<svg width="20" height="20" viewBox="0 0 20 20" fill="none" xmlns="http://www.w3.org/2000/svg">
<path d="M4.47083 6.66667H0.833333V19.1667H4.47083V6.66667ZM2.65208 5.14583C3.77708 5.14583 4.6875 4.23542 4.6875 3.11042C4.6875 1.98542 3.77708 1.075 2.65208 1.075C1.52708 1.075 0.616667 1.98542 0.616667 3.11042C0.616667 4.23542 1.52708 5.14583 2.65208 5.14583ZM19.1625 19.1667H19.1667V12.4583C19.1667 9.39375 18.4896 7.01667 14.9896 7.01667C13.3104 7.01667 12.1729 7.96875 11.7104 8.87083H11.6646V6.66667H8.19167V19.1667H11.8292V13.1042C11.8292 11.6542 12.1021 10.2542 13.8771 10.2542C15.6271 10.2542 15.6521 11.9 15.6521 13.2V19.1667H19.1625Z" fill="currentColor"/>
</svg>
