<svg width="20" height="18" viewBox="0 0 20 18" fill="none" xmlns="http://www.w3.org/2000/svg">
<path d="M3.40611 17.6695C2.49553 17.6695 1.6399 17.3147 0.996387 16.6713C-0.332129 15.3426 -0.332129 13.1806 0.996387 11.8521L11.5311 1.31691C12.3798 0.467305 13.5094 0 14.7104 0C15.9115 0 17.0411 0.467305 17.8899 1.31691C18.7394 2.16629 19.2073 3.29523 19.2073 4.49617C19.2073 5.69734 18.7399 6.82625 17.8906 7.67512L9.59748 15.9674C9.3485 16.2163 8.94529 16.2163 8.69643 15.9674C8.44744 15.7185 8.44744 15.3153 8.69643 15.0663L16.9893 6.77394C17.598 6.16535 17.9328 5.35633 17.9328 4.49617C17.9328 3.63617 17.5973 2.82664 16.9888 2.21797C16.3801 1.60938 15.571 1.27445 14.7104 1.27445C13.8499 1.27445 13.0408 1.60938 12.4321 2.21797L1.89756 12.7532C1.06619 13.5852 1.06619 14.9382 1.89756 15.7701C2.704 16.5755 4.10807 16.5755 4.91447 15.7701L11.9883 8.6957C12.1807 8.50336 12.2909 8.23711 12.2909 7.9657C12.2909 7.69051 12.1833 7.43109 11.9878 7.23566C11.5858 6.83367 10.9305 6.83246 10.5285 7.23566L5.69736 12.0673C5.44854 12.3164 5.04514 12.3164 4.79631 12.0673C4.54732 11.8185 4.54732 11.4151 4.79631 11.1663L9.62729 6.33465C10.5259 5.43605 11.989 5.43605 12.8889 6.33465C13.3252 6.77082 13.5653 7.35027 13.5653 7.96574C13.5653 8.57305 13.3189 9.16738 12.8896 9.59676L5.81568 16.6713C5.17217 17.3147 4.3165 17.6695 3.40611 17.6695Z" fill="currentColor"/>
</svg>
