<svg width="20" height="21" viewBox="0 0 20 21" fill="none" xmlns="http://www.w3.org/2000/svg">
<path d="M9.99992 10.5001C12.3011 10.5001 14.1666 8.6346 14.1666 6.33341C14.1666 4.03223 12.3011 2.16675 9.99992 2.16675C7.69873 2.16675 5.83325 4.03223 5.83325 6.33341C5.83325 8.6346 7.69873 10.5001 9.99992 10.5001Z" stroke="white" stroke-linecap="round" stroke-linejoin="round"/>
<path d="M14.1666 12.1667H14.4599C15.0691 12.1669 15.6573 12.3896 16.114 12.7928C16.5706 13.1961 16.8643 13.7522 16.9399 14.3567L17.2657 16.9601C17.295 17.1946 17.2741 17.4327 17.2044 17.6585C17.1346 17.8843 17.0177 18.0927 16.8612 18.2699C16.7048 18.4471 16.5125 18.5889 16.297 18.6861C16.0816 18.7832 15.8479 18.8335 15.6116 18.8334H4.38822C4.15187 18.8335 3.91822 18.7832 3.70276 18.6861C3.4873 18.5889 3.29497 18.4471 3.13853 18.2699C2.9821 18.0927 2.86513 17.8843 2.79539 17.6585C2.72566 17.4327 2.70475 17.1946 2.73405 16.9601L3.05905 14.3567C3.13463 13.7519 3.42857 13.1956 3.88558 12.7923C4.34259 12.389 4.9312 12.1665 5.54072 12.1667H5.83322" stroke="white" stroke-linecap="round" stroke-linejoin="round"/>
</svg>
