<svg width="40" height="41" viewBox="0 0 40 41" fill="none" xmlns="http://www.w3.org/2000/svg">
<path d="M35.7793 15.6388C36.3875 13.9963 36.5631 12.43 36.1262 11.0244C35.925 11.0425 35.7162 11.0519 35.5025 11.0519C29.1012 11.0519 17.7875 3.00375 16.9312 1.75C13.4031 6.88937 6.00809 10.8406 2.66559 15.2719C1.31309 17.065 0.636842 18.3994 1.98247 20.4506L16.0756 38.5588C16.7112 39.4194 17.9568 39.4894 18.8437 38.6956C18.8437 38.6956 30.4012 23.865 38.7506 19.2762C38.1231 18.0506 37.0787 16.8275 35.7793 15.6388ZM15.83 34.7213L15.7712 34.7619L15.7181 34.8081C15.5027 35.0013 15.3113 35.2198 15.1481 35.4587L2.93684 19.7694C2.05747 18.4087 2.30684 17.6925 3.60122 15.9775C5.06934 14.0319 7.41559 12.1431 9.89997 10.1438C12.4825 8.065 15.1425 5.925 17.0962 3.49C20.3212 6.14375 29.3418 12.0031 35.1787 12.2175C35.8787 19.0906 21.6275 30.6775 15.83 34.7213Z" fill="#0F130F"/>
<path d="M12.4956 9.3487L28.2487 21.6925L28.81 21.19L12.9056 8.9812L12.4956 9.3487Z" fill="#0F130F"/>
<path d="M17.6295 15.9194L11.182 10.5244C11.182 10.5244 8.9382 11.9569 6.2207 15.0988L11.9407 21.0125L17.6295 15.9194Z" fill="#0F130F"/>
<path d="M3.50366 18.0375L15.6712 32.9507L17.918 30.94L4.94554 16.1082C4.94554 16.1082 3.81491 16.72 3.50366 18.0375Z" fill="#0F130F"/>
<path d="M17.1375 18.8924L24.2056 25.3112L26.4512 23.3006L19.0918 17.1431L17.1375 18.8924Z" fill="#0F130F"/>
<path d="M13.2288 22.392L19.7144 29.332L21.9594 27.322L15.1831 20.6426L13.2288 22.392Z" fill="#0F130F"/>
</svg>
