<?xml version="1.0" standalone="no"?>
<!DOCTYPE svg PUBLIC "-//W3C//DTD SVG 1.1//EN" "http://www.w3.org/Graphics/SVG/1.1/DTD/svg11.dtd" >
<svg xmlns="http://www.w3.org/2000/svg" xmlns:xlink="http://www.w3.org/1999/xlink" version="1.1">
<metadata>
Created by FontForge 20230101 at Mon Jun 21 02:23:30 2021
 By Webmaster
Copyright \(c\) 2020 by Alexander Slobzheninov. All rights reserved.
</metadata>
<defs>
<font id="PPRightGroteskText-RegularItalic" horiz-adv-x="1425" >
  <font-face 
    font-family="PP Right Grotesk Text"
    font-weight="400"
    font-style="italic"
    font-stretch="normal"
    units-per-em="2048"
    panose-1="0 0 5 0 0 0 0 0 0 0"
    ascent="1638"
    descent="-410"
    x-height="1050"
    cap-height="1400"
    bbox="-536 -412 2325.32 1791"
    underline-thickness="89"
    underline-position="-200"
    slope="-12"
    stemh="115"
    stemv="167"
    unicode-range="U+0020-2BA7"
  />
<missing-glyph horiz-adv-x="1437" 
d="M1149 0h-1085l298 1400h1085zM239 152l47 -10c50 103 121 219 175 293l633 836h-590l-163 -768c-18 -84 -59 -227 -102 -351zM1049 964l-633 -835h590l164 768c17 82 58 225 102 352l-47 10c-50 -102 -121 -218 -176 -295z" />
    <glyph glyph-name=".notdef" horiz-adv-x="1437" 
d="M1149 0h-1085l298 1400h1085zM239 152l47 -10c50 103 121 219 175 293l633 836h-590l-163 -768c-18 -84 -59 -227 -102 -351zM1049 964l-633 -835h590l164 768c17 82 58 225 102 352l-47 10c-50 -102 -121 -218 -176 -295z" />
    <glyph glyph-name="space" unicode=" " horiz-adv-x="534" 
 />
    <glyph glyph-name="A" unicode="A" horiz-adv-x="1216" 
d="M156 0h-180l723 1400h204l113 -1400h-175l-23 314h-499zM575 838l-197 -398h433l-22 398c-7 127 -9 241 -9 377l-34 3c-58 -143 -109 -257 -171 -380z" />
    <glyph glyph-name="B" unicode="B" horiz-adv-x="1256" 
d="M615 0h-531l306 1400h500c202 0 311 -90 311 -259c0 -194 -94 -360 -291 -384l-1 -30c120 -22 186 -107 186 -243c0 -291 -167 -484 -480 -484zM535 1270l-102 -466h301c197 0 295 132 295 314c0 105 -64 152 -191 152h-303zM407 683l-121 -553h316
c223 0 319 157 319 357c0 135 -72 196 -208 196h-306z" />
    <glyph glyph-name="C" unicode="C" horiz-adv-x="1324" 
d="M612 -20c-355 0 -524 256 -433 676l46 203c76 354 265 561 584 561c292 0 483 -184 433 -519l-175 -26c51 287 -60 413 -266 413c-217 0 -338 -143 -403 -437l-54 -235c-74 -338 39 -504 274 -504c191 0 313 118 379 405l162 -61c-76 -318 -272 -476 -547 -476z" />
    <glyph glyph-name="D" unicode="D" horiz-adv-x="1295" 
d="M531 0h-447l306 1400h377c350 0 517 -233 423 -660l-45 -194c-79 -355 -269 -546 -614 -546zM535 1268l-249 -1136h251c240 0 370 131 435 421l53 228c75 338 -34 487 -272 487h-218z" />
    <glyph glyph-name="E" unicode="E" horiz-adv-x="1116" 
d="M878 0h-794l305 1400h775l-28 -132h-602l-100 -458h558l-27 -126h-558l-121 -552h621z" />
    <glyph glyph-name="F" unicode="F" horiz-adv-x="1071" 
d="M258 0h-174l303 1400h754l-28 -132h-580l-104 -477h533l-27 -125h-533z" />
    <glyph glyph-name="G" unicode="G" horiz-adv-x="1366" 
d="M518 -18c-302 0 -431 250 -341 663l48 216c76 353 270 559 596 559c292 0 468 -161 434 -438l-176 -32c36 230 -63 338 -266 338c-231 0 -351 -144 -415 -434l-52 -234c-74 -337 7 -506 224 -506c202 0 342 169 459 475h-282l27 130h447l-158 -719h-155
c14 81 42 157 151 413l-31 12c-152 -323 -293 -443 -510 -443z" />
    <glyph glyph-name="H" unicode="H" horiz-adv-x="1345" 
d="M257 0h-173l305 1400h173l-127 -586h599l127 586h174l-305 -1400h-173l148 682h-600z" />
    <glyph glyph-name="I" unicode="I" horiz-adv-x="573" 
d="M257 0h-173l306 1400h173z" />
    <glyph glyph-name="J" unicode="J" horiz-adv-x="1109" 
d="M448 -20c-255 0 -398 149 -349 464l178 27c-47 -260 27 -366 181 -366c129 0 214 87 247 246l230 1049h173l-236 -1072c-49 -227 -189 -348 -424 -348z" />
    <glyph glyph-name="K" unicode="K" horiz-adv-x="1182" 
d="M257 0h-173l306 1400h173l-84 -388c-23 -103 -50 -182 -93 -279l25 -16l668 683h198l-530 -527l232 -873h-178l-187 757l-240 -223z" />
    <glyph glyph-name="L" unicode="L" horiz-adv-x="1054" 
d="M838 0h-754l305 1400h173l-276 -1268h581z" />
    <glyph glyph-name="M" unicode="M" horiz-adv-x="1635" 
d="M248 0h-164l306 1400h234l94 -819c12 -103 17 -236 15 -358l29 -3c42 113 105 250 164 359l442 821h256l-305 -1400h-170l156 715c35 157 82 341 127 487l-37 7l-625 -1209h-133l-121 1206l-39 -1c-12 -153 -40 -341 -73 -490z" />
    <glyph glyph-name="N" unicode="N" horiz-adv-x="1335" 
d="M249 0h-165l305 1400h200l250 -867c23 -87 48 -222 62 -327l36 1c7 133 28 299 53 414l169 779h165l-305 -1400h-196l-248 859c-24 92 -50 232 -64 340l-37 -1c-5 -125 -27 -289 -52 -404z" />
    <glyph glyph-name="O" unicode="O" horiz-adv-x="1368" 
d="M625 -20c-362 0 -537 256 -446 675l46 203c76 355 266 562 591 562c363 0 538 -257 447 -677l-45 -203c-77 -353 -266 -560 -593 -560zM632 112c224 0 349 147 412 435l53 233c75 340 -40 508 -287 508c-224 0 -348 -147 -412 -437l-54 -234c-74 -338 41 -505 288 -505z
" />
    <glyph glyph-name="P" unicode="P" horiz-adv-x="1196" 
d="M257 0h-173l306 1400h410c245 0 378 -114 378 -331c0 -266 -160 -521 -531 -521h-270zM535 1270l-130 -592h245c254 0 357 185 357 379c0 140 -85 213 -244 213h-228z" />
    <glyph glyph-name="Q" unicode="Q" horiz-adv-x="1368" 
d="M816 1420c363 0 538 -257 447 -677l-45 -203c-76 -350 -263 -557 -586 -560c-24 -108 12 -140 152 -147l132 -6l-61 -152c-275 35 -380 135 -341 314c-286 49 -416 293 -335 666l46 203c76 355 266 562 591 562zM1044 547l53 233c75 340 -40 508 -287 508
c-224 0 -348 -147 -412 -437l-54 -234c-74 -338 41 -505 288 -505c224 0 349 147 412 435z" />
    <glyph glyph-name="R" unicode="R" horiz-adv-x="1241" 
d="M258 0h-174l306 1400h447c232 0 357 -97 357 -288c0 -199 -121 -389 -390 -397l-2 -30c97 -21 131 -83 146 -235l16 -152c15 -153 43 -241 88 -267l-7 -31h-199c-25 60 -41 139 -51 288l-10 149c-11 150 -44 216 -190 216h-194zM535 1270l-106 -486h258
c236 0 330 144 330 307c0 122 -75 179 -225 179h-257z" />
    <glyph glyph-name="S" unicode="S" horiz-adv-x="1278" 
d="M615 -20c-329 0 -511 176 -475 493l172 34c-40 -272 75 -400 312 -400c174 0 283 75 288 217c4 107 -40 178 -197 284l-154 103c-162 111 -244 204 -241 365c6 221 173 344 438 344c307 0 464 -172 428 -452l-163 -31c33 237 -56 356 -269 356c-162 0 -265 -68 -269 -200
c-3 -96 41 -164 202 -271l152 -99c156 -103 247 -211 242 -381c-7 -229 -182 -362 -466 -362z" />
    <glyph glyph-name="T" unicode="T" horiz-adv-x="1110" 
d="M523 0h-173l276 1268h-380l28 132h934l-29 -132h-380z" />
    <glyph glyph-name="U" unicode="U" horiz-adv-x="1313" 
d="M571 -20c-318 0 -464 165 -403 456l206 964h173l-213 -978c-43 -201 45 -310 245 -310c182 0 302 105 345 305l216 983h173l-222 -1005c-60 -276 -232 -415 -520 -415z" />
    <glyph glyph-name="V" unicode="V" horiz-adv-x="1202" 
d="M582 0h-199l-109 1400h174l49 -816c8 -124 8 -254 2 -413l34 -3c61 160 116 291 178 416l406 816h183z" />
    <glyph glyph-name="W" unicode="W" horiz-adv-x="1769" 
d="M513 0h-201l-38 1400h170l12 -809c1 -132 -3 -251 -19 -404l36 -4c49 154 99 289 151 408l359 809h174l4 -809c1 -119 -7 -253 -28 -402l36 -4c50 149 104 284 159 406l365 809h174l-647 -1400h-205l-4 740c1 138 10 282 29 434l-36 4c-51 -163 -103 -304 -160 -437z" />
    <glyph glyph-name="X" unicode="X" horiz-adv-x="1170" 
d="M170 0h-194l547 732l-219 668h178l132 -411c13 -44 22 -104 23 -152l28 -2c18 47 50 105 80 146l320 419h190l-526 -686l241 -714h-185l-141 444c-15 50 -26 116 -28 165l-28 2c-20 -51 -52 -109 -88 -160z" />
    <glyph glyph-name="Y" unicode="Y" horiz-adv-x="1160" 
d="M547 0h-173l125 565l-225 835h175l106 -423c19 -83 33 -159 41 -266l31 -2c54 109 100 183 155 268l285 423h191l-595 -860z" />
    <glyph glyph-name="Z" unicode="Z" horiz-adv-x="1078" 
d="M860 0h-862l20 110l728 960c39 51 101 124 150 168l-7 32c-51 -2 -94 -2 -149 -2h-465l28 132h823l-19 -110l-714 -951c-37 -50 -103 -127 -158 -176l7 -32c46 1 89 2 138 2h509z" />
    <glyph glyph-name="a" unicode="a" horiz-adv-x="1139" 
d="M325 -20c-157 0 -249 83 -249 211c0 228 206 341 465 400l253 53l22 98c34 142 -54 215 -196 215c-158 0 -245 -80 -256 -215l-159 35c20 173 162 293 422 293c255 0 402 -128 351 -351l-120 -521c-17 -75 -6 -93 47 -94l48 -2l-44 -119c-11 -2 -29 -3 -45 -3
c-171 0 -188 78 -104 264l-32 8c-88 -177 -219 -272 -403 -272zM392 96c152 0 302 134 350 326l26 107l-195 -41c-188 -44 -322 -122 -322 -266c-1 -80 50 -126 141 -126z" />
    <glyph glyph-name="b" unicode="b" horiz-adv-x="1181" 
d="M579 -17c-171 0 -282 92 -299 276l-34 -3c3 -125 -1 -203 -12 -256h-170l306 1400h169l-61 -277c-21 -96 -57 -189 -117 -305l31 -12c101 180 206 262 376 262c248 0 359 -184 291 -499l-36 -166c-59 -270 -212 -420 -444 -420zM552 98c155 0 260 112 304 320l37 168
c53 247 -23 366 -193 366c-162 0 -289 -141 -336 -361l-27 -118c-51 -238 32 -375 215 -375z" />
    <glyph glyph-name="c" unicode="c" horiz-adv-x="1118" 
d="M493 -20c-294 0 -436 200 -368 515l32 146c60 276 217 429 479 429c247 0 408 -142 376 -377l-170 -18c33 183 -55 280 -212 280c-164 0 -257 -109 -304 -323l-39 -172c-51 -233 30 -365 213 -365c141 0 231 86 282 261l159 -50c-68 -213 -219 -326 -448 -326z" />
    <glyph glyph-name="d" unicode="d" horiz-adv-x="1184" 
d="M412 -17c-249 0 -358 183 -292 491l38 169c57 270 215 425 438 425c185 0 293 -98 307 -275l35 4c-4 131 4 224 24 318l62 285h169l-305 -1400h-165c10 53 42 126 97 231l-31 12c-92 -176 -212 -260 -377 -260zM482 98c162 0 288 142 335 359l27 120
c52 238 -32 375 -215 375c-154 0 -259 -111 -304 -320l-37 -167c-53 -245 23 -367 194 -367z" />
    <glyph glyph-name="e" unicode="e" horiz-adv-x="1128" 
d="M978 496h-685l-11 -48c-50 -229 39 -354 216 -354c140 0 238 77 290 234l156 -45c-70 -193 -228 -303 -454 -303c-290 0 -433 199 -367 506l34 153c59 274 224 431 494 431c228 0 376 -123 376 -325c0 -73 -21 -178 -49 -249zM644 956c-171 0 -273 -113 -320 -326l-4 -19
h520l15 70c37 174 -52 275 -211 275z" />
    <glyph glyph-name="f" unicode="f" horiz-adv-x="828" 
d="M314 0h-169l204 931h-163l26 119h163l19 83c41 178 166 278 512 287l-9 -139l-140 -7c-142 -8 -178 -38 -200 -138l-18 -86h300l-25 -119h-296z" />
    <glyph glyph-name="g" unicode="g" horiz-adv-x="1107" 
d="M1144 1181l-94 -11c-87 -10 -142 -44 -148 -152c89 -47 139 -125 139 -226c0 -242 -180 -393 -467 -393c-73 0 -137 11 -190 31c-88 -10 -143 -39 -143 -89s52 -76 202 -103l166 -29c146 -26 289 -83 289 -243c0 -221 -179 -336 -510 -336c-279 0 -440 85 -440 248
c0 131 93 220 254 243l4 30c-70 33 -112 81 -112 143c0 91 72 145 199 152l4 30c-62 49 -97 117 -97 202c0 241 180 391 467 391c64 0 121 -8 171 -24c-2 166 88 264 277 280zM587 503c175 0 287 109 287 281c0 112 -87 181 -223 181c-173 0 -283 -107 -283 -279
c0 -112 86 -183 219 -183zM523 84l-166 26l-38 6c-147 -32 -222 -98 -222 -203c0 -109 109 -171 314 -171c220 0 339 71 339 198c0 85 -78 121 -227 144z" />
    <glyph glyph-name="h" unicode="h" horiz-adv-x="1156" 
d="M234 0h-170l306 1400h169l-71 -325c-19 -87 -53 -174 -115 -286l29 -15c128 207 244 293 419 293c191 0 281 -108 239 -304l-164 -763h-169l164 748c27 127 -23 201 -143 201c-178 0 -337 -183 -392 -453z" />
    <glyph glyph-name="i" unicode="i" horiz-adv-x="527" 
d="M512 1225h-195l37 175h196zM234 0h-170l230 1050h169z" />
    <glyph glyph-name="j" unicode="j" horiz-adv-x="526" 
d="M512 1225h-195l37 175h196zM-204 -370l-21 147l99 8c102 7 151 39 174 142l245 1123h169l-220 -1007c-67 -291 -210 -389 -446 -413z" />
    <glyph glyph-name="k" unicode="k" horiz-adv-x="994" 
d="M234 0h-170l306 1400h169l-106 -487c-26 -118 -58 -214 -106 -314l23 -14l485 465h193l-399 -364l172 -686h-171l-131 590l-171 -152z" />
    <glyph glyph-name="l" unicode="l" horiz-adv-x="529" 
d="M234 0h-170l306 1400h169z" />
    <glyph glyph-name="m" unicode="m" horiz-adv-x="1682" 
d="M234 0h-170l230 1050h169c-11 -60 -37 -121 -104 -248l30 -16c117 201 215 281 373 281c171 0 241 -102 178 -271l30 -13c107 200 220 284 384 284c177 0 255 -99 216 -284l-169 -783h-168l166 764c25 117 -19 184 -124 184c-163 0 -294 -179 -346 -423l-111 -525h-169
l166 761c25 118 -20 188 -125 188c-157 0 -292 -176 -346 -430z" />
    <glyph glyph-name="n" unicode="n" horiz-adv-x="1156" 
d="M234 0h-170l230 1050h171c-12 -62 -43 -134 -112 -261l29 -15c128 207 244 293 419 293c191 0 281 -108 239 -304l-164 -763h-169l164 748c27 127 -22 201 -142 201c-178 0 -338 -183 -393 -453z" />
    <glyph glyph-name="o" unicode="o" horiz-adv-x="1128" 
d="M499 -20c-296 0 -441 203 -374 516l32 151c57 276 223 423 473 423c295 0 440 -203 373 -516l-32 -151c-57 -276 -222 -423 -472 -423zM505 95c154 0 250 97 297 318l39 176c51 236 -27 366 -215 366c-157 0 -253 -97 -300 -318l-39 -175c-51 -237 28 -367 218 -367z" />
    <glyph glyph-name="p" unicode="p" horiz-adv-x="1184" 
d="M772 1067c249 0 358 -183 292 -491l-38 -169c-57 -270 -215 -425 -438 -425c-185 0 -293 98 -307 275l-35 -4c4 -131 -4 -224 -24 -318l-62 -285h-169l305 1400h165c-10 -53 -42 -126 -97 -231l31 -12c92 176 212 260 377 260zM702 952c-162 0 -288 -142 -335 -359
l-27 -120c-52 -238 32 -375 215 -375c154 0 259 111 304 320l37 167c53 245 -23 367 -194 367z" />
    <glyph glyph-name="q" unicode="q" horiz-adv-x="1181" 
d="M602 1067c171 0 282 -92 299 -276l34 3c-3 125 1 203 12 256h170l-306 -1400h-169l61 277c21 96 57 189 117 305l-31 12c-101 -180 -206 -262 -376 -262c-248 0 -359 184 -291 499l36 166c59 270 212 420 444 420zM629 952c-155 0 -260 -112 -304 -320l-37 -168
c-53 -247 23 -366 193 -366c162 0 289 141 336 361l27 118c51 238 -32 375 -215 375z" />
    <glyph glyph-name="r" unicode="r" horiz-adv-x="817" 
d="M234 0h-170l230 1050h170c-11 -59 -39 -124 -113 -261l30 -14c125 216 232 290 446 302l-3 -149l-106 -9c-200 -18 -320 -149 -378 -421z" />
    <glyph glyph-name="s" unicode="s" horiz-adv-x="1068" 
d="M487 -19c-269 0 -429 125 -406 347l161 26c-21 -174 73 -263 248 -263c135 0 224 56 228 154c3 88 -55 142 -177 214l-122 72c-121 72 -203 145 -199 267c7 168 138 271 374 271c252 0 394 -116 370 -310l-160 -25c23 148 -58 225 -210 225c-133 0 -213 -52 -216 -141
c-3 -73 37 -118 159 -189l122 -70c122 -71 226 -150 222 -298c-7 -173 -146 -280 -394 -280z" />
    <glyph glyph-name="t" unicode="t" horiz-adv-x="864" 
d="M432 -18c-182 0 -268 97 -230 271l148 678h-164l26 119h164l61 274l178 45l-70 -319h328l-26 -119h-328l-147 -668c-22 -102 21 -149 122 -149c57 0 113 11 173 38l-32 -125c-59 -30 -125 -45 -203 -45z" />
    <glyph glyph-name="u" unicode="u" horiz-adv-x="1157" 
d="M923 1050h169l-229 -1050h-171c12 62 42 134 112 261l-30 15c-127 -207 -243 -293 -418 -293c-192 0 -282 108 -240 304l164 763h169l-163 -748c-28 -127 22 -201 142 -201c178 0 338 183 393 453z" />
    <glyph glyph-name="v" unicode="v" horiz-adv-x="1049" 
d="M501 0h-186l-125 1050h169l55 -510c10 -115 15 -226 9 -375l32 -4c59 152 111 264 171 379l276 510h181z" />
    <glyph glyph-name="w" unicode="w" horiz-adv-x="1576" 
d="M445 0h-186l-69 1050h164l25 -568c4 -94 2 -229 -5 -325l33 -3c42 116 95 249 134 328l274 568h169l28 -567c5 -87 2 -226 -6 -325l33 -4c35 106 89 240 129 321l278 575h164l-525 -1050h-189l-23 536c-4 102 0 250 10 356l-33 3c-34 -99 -95 -248 -147 -357z" />
    <glyph glyph-name="x" unicode="x" horiz-adv-x="1033" 
d="M156 0h-190l450 544l-202 506h179l111 -280c13 -36 22 -77 24 -130l27 -2c23 52 49 92 76 127l236 285h186l-429 -514l219 -536h-185l-122 311c-14 38 -23 79 -26 128l-26 2c-20 -49 -45 -89 -76 -127z" />
    <glyph glyph-name="y" unicode="y" horiz-adv-x="1050" 
d="M-44 -370l-16 149l127 10c125 10 164 39 205 122l41 81l-121 1058h170l50 -562c9 -111 16 -212 11 -349l32 -3c54 140 104 241 161 352l289 562h179l-540 -998c-164 -300 -290 -392 -588 -422z" />
    <glyph glyph-name="z" unicode="z" horiz-adv-x="991" 
d="M773 0h-774l17 103l580 650c31 34 82 85 159 142l-7 32c-32 -1 -55 -2 -87 -2h-446l26 125h738l-18 -103l-580 -648c-30 -34 -86 -88 -159 -144l7 -32c32 1 59 2 91 2h479z" />
    <glyph glyph-name="Aacute" unicode="&#xc1;" horiz-adv-x="1216" 
d="M883 1497h-137l146 204h186zM156 0h-180l723 1400h204l113 -1400h-175l-23 314h-499zM575 838l-197 -398h433l-22 398c-7 127 -9 241 -9 377l-34 3c-58 -143 -109 -257 -171 -380z" />
    <glyph glyph-name="Abreve" unicode="&#x102;" horiz-adv-x="1216" 
d="M836 1491c-165 0 -245 75 -229 212h118c-8 -73 35 -115 119 -115c87 0 140 41 155 115h124c-29 -140 -126 -212 -287 -212zM156 0h-180l723 1400h204l113 -1400h-175l-23 314h-499zM575 838l-197 -398h433l-22 398c-7 127 -9 241 -9 377l-34 3
c-58 -143 -109 -257 -171 -380z" />
    <glyph glyph-name="Acircumflex" unicode="&#xc2;" horiz-adv-x="1216" 
d="M688 1497h-153l239 204h162l171 -204h-145l-119 109zM156 0h-180l723 1400h204l113 -1400h-175l-23 314h-499zM575 838l-197 -398h433l-22 398c-7 127 -9 241 -9 377l-34 3c-58 -143 -109 -257 -171 -380z" />
    <glyph glyph-name="Adieresis" unicode="&#xc4;" horiz-adv-x="1216" 
d="M745 1514h-179l37 174h179zM1089 1514h-180l38 174h180zM156 0h-180l723 1400h204l113 -1400h-175l-23 314h-499zM575 838l-197 -398h433l-22 398c-7 127 -9 241 -9 377l-34 3c-58 -143 -109 -257 -171 -380z" />
    <glyph glyph-name="Agrave" unicode="&#xc0;" horiz-adv-x="1216" 
d="M872 1497h-127l-150 204h177zM156 0h-180l723 1400h204l113 -1400h-175l-23 314h-499zM575 838l-197 -398h433l-22 398c-7 127 -9 241 -9 377l-34 3c-58 -143 -109 -257 -171 -380z" />
    <glyph glyph-name="Amacron" unicode="&#x100;" horiz-adv-x="1216" 
d="M1119 1520h-587l24 110h587zM156 0h-180l723 1400h204l113 -1400h-175l-23 314h-499zM575 838l-197 -398h433l-22 398c-7 127 -9 241 -9 377l-34 3c-58 -143 -109 -257 -171 -380z" />
    <glyph glyph-name="Aogonek" unicode="&#x104;" horiz-adv-x="1216" 
d="M850 -126c0 -32 24 -50 63 -50c20 0 40 3 58 8l-34 -107c-24 -8 -48 -13 -76 -13c-88 0 -140 44 -140 116c0 70 52 134 145 172h-25l-23 314h-499l-163 -314h-180l723 1400h204l113 -1400c-108 -32 -166 -77 -166 -126zM575 838l-197 -398h433l-22 398
c-7 127 -9 241 -9 377l-34 3c-58 -143 -109 -257 -171 -380z" />
    <glyph glyph-name="Aring" unicode="&#xc5;" horiz-adv-x="1216" 
d="M852 1472c-122 0 -198 61 -198 159s76 160 198 160s198 -62 198 -160s-76 -159 -198 -159zM852 1555c59 0 95 30 95 76c0 47 -36 76 -95 76s-94 -29 -94 -76c0 -46 35 -76 94 -76zM156 0h-180l723 1400h204l113 -1400h-175l-23 314h-499zM575 838l-197 -398h433l-22 398
c-7 127 -9 241 -9 377l-34 3c-58 -143 -109 -257 -171 -380z" />
    <glyph glyph-name="Atilde" unicode="&#xc3;" horiz-adv-x="1216" 
d="M982 1497c-117 0 -208 108 -274 108c-44 0 -65 -29 -83 -103h-96c25 139 81 203 181 203c117 0 207 -108 273 -108c43 0 65 28 81 102h96c-25 -139 -82 -202 -178 -202zM156 0h-180l723 1400h204l113 -1400h-175l-23 314h-499zM575 838l-197 -398h433l-22 398
c-7 127 -9 241 -9 377l-34 3c-58 -143 -109 -257 -171 -380z" />
    <glyph glyph-name="AE" unicode="&#xc6;" horiz-adv-x="1676" 
d="M154 0h-184l890 1400h864l-28 -132h-580l-101 -460h537l-28 -126h-536l-120 -550h599l-29 -132h-760l70 317h-391zM794 1017l-362 -575h343l184 827l-35 3c-36 -82 -85 -180 -130 -255z" />
    <glyph glyph-name="AEacute" unicode="&#x1fc;" horiz-adv-x="1676" 
d="M1087 1497h-137l146 204h186zM154 0h-184l890 1400h864l-28 -132h-580l-101 -460h537l-28 -126h-536l-120 -550h599l-29 -132h-760l70 317h-391zM794 1017l-362 -575h343l184 827l-35 3c-36 -82 -85 -180 -130 -255z" />
    <glyph glyph-name="Cacute" unicode="&#x106;" horiz-adv-x="1324" 
d="M926 1497h-137l146 204h186zM612 -20c-355 0 -524 256 -433 676l46 203c76 354 265 561 584 561c292 0 483 -184 433 -519l-175 -26c51 287 -60 413 -266 413c-217 0 -338 -143 -403 -437l-54 -235c-74 -338 39 -504 274 -504c191 0 313 118 379 405l162 -61
c-76 -318 -272 -476 -547 -476z" />
    <glyph glyph-name="Ccaron" unicode="&#x10c;" horiz-adv-x="1324" 
d="M1047 1702h152l-238 -204h-162l-171 204h145l118 -110zM612 -20c-355 0 -524 256 -433 676l46 203c76 354 265 561 584 561c292 0 483 -184 433 -519l-175 -26c51 287 -60 413 -266 413c-217 0 -338 -143 -403 -437l-54 -235c-74 -338 39 -504 274 -504
c191 0 313 118 379 405l162 -61c-76 -318 -272 -476 -547 -476z" />
    <glyph glyph-name="Ccedilla" unicode="&#xc7;" horiz-adv-x="1324" 
d="M1242 901l-175 -26c51 287 -60 413 -266 413c-217 0 -338 -143 -403 -437l-54 -235c-74 -338 39 -504 274 -504c191 0 313 118 379 405l162 -61c-76 -317 -271 -475 -544 -476l-22 -61c114 -15 179 -58 179 -140c0 -89 -72 -142 -191 -142c-67 0 -131 16 -183 45l30 87
c41 -25 93 -40 145 -40c58 0 92 24 92 62c0 50 -73 69 -196 76l41 121c-284 45 -413 290 -331 668l46 203c76 354 265 561 584 561c292 0 483 -184 433 -519z" />
    <glyph glyph-name="Cdotaccent" unicode="&#x10a;" horiz-adv-x="1324" 
d="M966 1514h-190l37 174h190zM612 -20c-355 0 -524 256 -433 676l46 203c76 354 265 561 584 561c292 0 483 -184 433 -519l-175 -26c51 287 -60 413 -266 413c-217 0 -338 -143 -403 -437l-54 -235c-74 -338 39 -504 274 -504c191 0 313 118 379 405l162 -61
c-76 -318 -272 -476 -547 -476z" />
    <glyph glyph-name="Eth" unicode="&#xd0;" horiz-adv-x="1308" 
d="M403 1400h378c349 0 516 -233 422 -660l-45 -194c-78 -355 -269 -546 -614 -546h-446l150 687h-123l27 121h122zM985 553l53 228c75 338 -33 487 -272 487h-218l-100 -460h304l-28 -121h-303l-121 -555h251c240 0 370 131 434 421z" />
    <glyph glyph-name="Dcaron" unicode="&#x10e;" horiz-adv-x="1295" 
d="M1004 1702h152l-238 -204h-162l-171 204h145l118 -110zM531 0h-447l306 1400h377c350 0 517 -233 423 -660l-45 -194c-79 -355 -269 -546 -614 -546zM535 1268l-249 -1136h251c240 0 370 131 435 421l53 228c75 338 -34 487 -272 487h-218z" />
    <glyph glyph-name="Dcroat" unicode="&#x110;" horiz-adv-x="1308" 
d="M403 1400h378c349 0 516 -233 422 -660l-45 -194c-78 -355 -269 -546 -614 -546h-446l150 687h-123l27 121h122zM985 553l53 228c75 338 -33 487 -272 487h-218l-100 -460h304l-28 -121h-303l-121 -555h251c240 0 370 131 434 421z" />
    <glyph glyph-name="Eacute" unicode="&#xc9;" horiz-adv-x="1116" 
d="M866 1497h-137l146 204h186zM878 0h-794l305 1400h775l-28 -132h-602l-100 -458h558l-27 -126h-558l-121 -552h621z" />
    <glyph glyph-name="Ecaron" unicode="&#x11a;" horiz-adv-x="1116" 
d="M986 1702h152l-238 -204h-162l-171 204h145l118 -110zM878 0h-794l305 1400h775l-28 -132h-602l-100 -458h558l-27 -126h-558l-121 -552h621z" />
    <glyph glyph-name="Ecircumflex" unicode="&#xca;" horiz-adv-x="1116" 
d="M670 1497h-153l239 204h162l171 -204h-145l-119 109zM878 0h-794l305 1400h775l-28 -132h-602l-100 -458h558l-27 -126h-558l-121 -552h621z" />
    <glyph glyph-name="Edieresis" unicode="&#xcb;" horiz-adv-x="1116" 
d="M728 1514h-179l37 174h179zM1072 1514h-180l38 174h180zM878 0h-794l305 1400h775l-28 -132h-602l-100 -458h558l-27 -126h-558l-121 -552h621z" />
    <glyph glyph-name="Edotaccent" unicode="&#x116;" horiz-adv-x="1116" 
d="M905 1514h-190l37 174h190zM878 0h-794l305 1400h775l-28 -132h-602l-100 -458h558l-27 -126h-558l-121 -552h621z" />
    <glyph glyph-name="Egrave" unicode="&#xc8;" horiz-adv-x="1116" 
d="M855 1497h-127l-150 204h177zM878 0h-794l305 1400h775l-28 -132h-602l-100 -458h558l-27 -126h-558l-121 -552h621z" />
    <glyph glyph-name="Emacron" unicode="&#x112;" horiz-adv-x="1116" 
d="M1102 1520h-587l24 110h587zM878 0h-794l305 1400h775l-28 -132h-602l-100 -458h558l-27 -126h-558l-121 -552h621z" />
    <glyph glyph-name="Eogonek" unicode="&#x118;" horiz-adv-x="1116" 
d="M1164 1400l-28 -132h-602l-100 -458h558l-27 -126h-558l-121 -552h621l-29 -132c-108 -32 -166 -77 -166 -126c0 -32 24 -50 63 -50c20 0 40 3 58 8l-34 -107c-24 -8 -48 -13 -76 -13c-88 0 -140 44 -140 116c0 70 52 134 145 172h-644l305 1400h775z" />
    <glyph glyph-name="uni1EBC" unicode="&#x1ebc;" horiz-adv-x="1116" 
d="M964 1497c-117 0 -208 108 -274 108c-44 0 -65 -29 -83 -103h-96c25 139 81 203 181 203c117 0 207 -108 273 -108c43 0 65 28 81 102h96c-25 -139 -82 -202 -178 -202zM878 0h-794l305 1400h775l-28 -132h-602l-100 -458h558l-27 -126h-558l-121 -552h621z" />
    <glyph glyph-name="Gbreve" unicode="&#x11e;" horiz-adv-x="1366" 
d="M890 1491c-165 0 -245 75 -229 212h118c-8 -73 35 -115 119 -115c87 0 140 41 155 115h124c-29 -140 -126 -212 -287 -212zM518 -18c-302 0 -431 250 -341 663l48 216c76 353 270 559 596 559c292 0 468 -161 434 -438l-176 -32c36 230 -63 338 -266 338
c-231 0 -351 -144 -415 -434l-52 -234c-74 -337 7 -506 224 -506c202 0 342 169 459 475h-282l27 130h447l-158 -719h-155c14 81 42 157 151 413l-31 12c-152 -323 -293 -443 -510 -443z" />
    <glyph glyph-name="Gcaron" unicode="&#x1e6;" horiz-adv-x="1366" 
d="M1057 1702h152l-238 -204h-162l-171 204h145l118 -110zM518 -18c-302 0 -431 250 -341 663l48 216c76 353 270 559 596 559c292 0 468 -161 434 -438l-176 -32c36 230 -63 338 -266 338c-231 0 -351 -144 -415 -434l-52 -234c-74 -337 7 -506 224 -506
c202 0 342 169 459 475h-282l27 130h447l-158 -719h-155c14 81 42 157 151 413l-31 12c-152 -323 -293 -443 -510 -443z" />
    <glyph glyph-name="uni0122" unicode="&#x122;" horiz-adv-x="1366" 
d="M518 -18c-302 0 -431 250 -341 663l48 216c76 353 270 559 596 559c292 0 468 -161 434 -438l-176 -32c36 230 -63 338 -266 338c-231 0 -351 -144 -415 -434l-52 -234c-74 -337 7 -506 224 -506c202 0 342 169 459 475h-282l27 130h447l-158 -719h-155
c14 81 42 157 151 413l-31 12c-152 -323 -293 -443 -510 -443zM409 -372l-8 58c71 4 97 29 111 92h-90l29 136h184l-24 -111c-26 -119 -76 -167 -202 -175z" />
    <glyph glyph-name="Gdotaccent" unicode="&#x120;" horiz-adv-x="1366" 
d="M977 1514h-190l37 174h190zM518 -18c-302 0 -431 250 -341 663l48 216c76 353 270 559 596 559c292 0 468 -161 434 -438l-176 -32c36 230 -63 338 -266 338c-231 0 -351 -144 -415 -434l-52 -234c-74 -337 7 -506 224 -506c202 0 342 169 459 475h-282l27 130h447
l-158 -719h-155c14 81 42 157 151 413l-31 12c-152 -323 -293 -443 -510 -443z" />
    <glyph glyph-name="Hbar" unicode="&#x126;" horiz-adv-x="1329" 
d="M1263 1097h130l-26 -121h-130l-208 -976h-173l118 558h-606l-118 -558h-174l208 976h-131l26 121h131l64 303h174l-64 -303h606l64 303h173zM397 690h606l61 286h-606z" />
    <glyph glyph-name="Iacute" unicode="&#xcd;" horiz-adv-x="573" 
d="M557 1497h-137l146 204h186zM257 0h-173l306 1400h173z" />
    <glyph glyph-name="Icircumflex" unicode="&#xce;" horiz-adv-x="573" 
d="M432 1497h-115l153 204h143l64 -204h-108l-45 115zM257 0h-173l306 1400h173z" />
    <glyph glyph-name="Idieresis" unicode="&#xcf;" horiz-adv-x="573" 
d="M454 1513h-150l39 178h150zM667 1513h-150l39 178h150zM257 0h-173l306 1400h173z" />
    <glyph glyph-name="Idotaccent" unicode="&#x130;" horiz-adv-x="573" 
d="M597 1514h-190l37 174h190zM257 0h-173l306 1400h173z" />
    <glyph glyph-name="Igrave" unicode="&#xcc;" horiz-adv-x="573" 
d="M546 1497h-127l-150 204h177zM257 0h-173l306 1400h173z" />
    <glyph glyph-name="Imacron" unicode="&#x12a;" horiz-adv-x="573" 
d="M668 1548h-321l23 105h321zM257 0h-173l306 1400h173z" />
    <glyph glyph-name="Iogonek" unicode="&#x12e;" horiz-adv-x="573" 
d="M563 1400l-306 -1400c-108 -32 -166 -77 -166 -126c0 -32 24 -50 63 -50c20 0 40 3 58 8l-34 -107c-24 -8 -48 -13 -76 -13c-88 0 -140 44 -140 116c0 70 52 134 145 172h-23l306 1400h173z" />
    <glyph glyph-name="Itilde" unicode="&#x128;" horiz-adv-x="573" 
d="M586 1517c-55 0 -104 56 -134 56c-21 0 -32 -18 -36 -53h-83c13 110 48 164 110 164c51 0 105 -57 135 -57c20 0 31 18 35 54h83c-15 -111 -49 -164 -110 -164zM257 0h-173l306 1400h173z" />
    <glyph glyph-name="uni004A0301" horiz-adv-x="1109" 
d="M1104 1497h-137l146 204h186zM448 -20c-255 0 -398 149 -349 464l178 27c-47 -260 27 -366 181 -366c129 0 214 87 247 246l230 1049h173l-236 -1072c-49 -227 -189 -348 -424 -348z" />
    <glyph glyph-name="uni0136" unicode="&#x136;" horiz-adv-x="1182" 
d="M257 0h-173l306 1400h173l-84 -388c-23 -103 -50 -182 -93 -279l25 -16l668 683h198l-530 -527l232 -873h-178l-187 757l-240 -223zM362 -372l-8 58c71 4 97 29 111 92h-90l29 136h184l-24 -111c-26 -119 -76 -167 -202 -175z" />
    <glyph glyph-name="Lacute" unicode="&#x139;" horiz-adv-x="1054" 
d="M559 1497h-137l146 204h186zM838 0h-754l305 1400h173l-276 -1268h581z" />
    <glyph glyph-name="Lcaron" unicode="&#x13d;" horiz-adv-x="1054" 
d="M838 0h-754l305 1400h173l-276 -1268h581zM767 1083h-105l82 317h145z" />
    <glyph glyph-name="uni013B" unicode="&#x13b;" horiz-adv-x="1054" 
d="M838 0h-754l305 1400h173l-276 -1268h581zM308 -372l-8 58c71 4 97 29 111 92h-90l29 136h184l-24 -111c-26 -119 -76 -167 -202 -175z" />
    <glyph glyph-name="Ldot" unicode="&#x13f;" horiz-adv-x="1114" 
d="M838 0h-754l305 1400h173l-276 -1268h581zM678 700l44 202h217l-44 -202h-217z" />
    <glyph glyph-name="Lslash" unicode="&#x141;" horiz-adv-x="1073" 
d="M425 678l-119 -546h580l-29 -132h-753l135 620l-165 -51l30 138l165 51l139 642h174l-127 -584l321 99l-30 -138z" />
    <glyph glyph-name="Nacute" unicode="&#x143;" horiz-adv-x="1335" 
d="M938 1497h-137l146 204h186zM249 0h-165l305 1400h200l250 -867c23 -87 48 -222 62 -327l36 1c7 133 28 299 53 414l169 779h165l-305 -1400h-196l-248 859c-24 92 -50 232 -64 340l-37 -1c-5 -125 -27 -289 -52 -404z" />
    <glyph glyph-name="Ncaron" unicode="&#x147;" horiz-adv-x="1335" 
d="M1058 1702h152l-238 -204h-162l-171 204h145l118 -110zM249 0h-165l305 1400h200l250 -867c23 -87 48 -222 62 -327l36 1c7 133 28 299 53 414l169 779h165l-305 -1400h-196l-248 859c-24 92 -50 232 -64 340l-37 -1c-5 -125 -27 -289 -52 -404z" />
    <glyph glyph-name="uni0145" unicode="&#x145;" horiz-adv-x="1335" 
d="M249 0h-165l305 1400h200l250 -867c23 -87 48 -222 62 -327l36 1c7 133 28 299 53 414l169 779h165l-305 -1400h-196l-248 859c-24 92 -50 232 -64 340l-37 -1c-5 -125 -27 -289 -52 -404zM398 -372l-8 58c71 4 97 29 111 92h-90l29 136h184l-24 -111
c-26 -119 -76 -167 -202 -175z" />
    <glyph glyph-name="Eng" unicode="&#x14a;" horiz-adv-x="1335" 
d="M508 -370l-19 149l101 5c179 9 217 43 251 217l-270 880c-26 89 -45 200 -55 301l-35 -1c-6 -106 -24 -230 -49 -343l-183 -838h-165l305 1400h195l264 -864c25 -84 43 -190 52 -287l35 1c8 112 26 243 50 352l174 798h165l-305 -1398c-51 -229 -183 -334 -511 -372z" />
    <glyph glyph-name="Ntilde" unicode="&#xd1;" horiz-adv-x="1335" 
d="M1037 1497c-117 0 -208 108 -274 108c-44 0 -65 -29 -83 -103h-96c25 139 81 203 181 203c117 0 207 -108 273 -108c43 0 65 28 81 102h96c-25 -139 -82 -202 -178 -202zM249 0h-165l305 1400h200l250 -867c23 -87 48 -222 62 -327l36 1c7 133 28 299 53 414l169 779h165
l-305 -1400h-196l-248 859c-24 92 -50 232 -64 340l-37 -1c-5 -125 -27 -289 -52 -404z" />
    <glyph glyph-name="Oacute" unicode="&#xd3;" horiz-adv-x="1368" 
d="M929 1497h-137l146 204h186zM625 -20c-362 0 -537 256 -446 675l46 203c76 355 266 562 591 562c363 0 538 -257 447 -677l-45 -203c-77 -353 -266 -560 -593 -560zM632 112c224 0 349 147 412 435l53 233c75 340 -40 508 -287 508c-224 0 -348 -147 -412 -437l-54 -234
c-74 -338 41 -505 288 -505z" />
    <glyph glyph-name="Ocircumflex" unicode="&#xd4;" horiz-adv-x="1368" 
d="M734 1497h-153l239 204h162l171 -204h-145l-119 109zM625 -20c-362 0 -537 256 -446 675l46 203c76 355 266 562 591 562c363 0 538 -257 447 -677l-45 -203c-77 -353 -266 -560 -593 -560zM632 112c224 0 349 147 412 435l53 233c75 340 -40 508 -287 508
c-224 0 -348 -147 -412 -437l-54 -234c-74 -338 41 -505 288 -505z" />
    <glyph glyph-name="Odieresis" unicode="&#xd6;" horiz-adv-x="1368" 
d="M791 1514h-179l37 174h179zM1135 1514h-180l38 174h180zM625 -20c-362 0 -537 256 -446 675l46 203c76 355 266 562 591 562c363 0 538 -257 447 -677l-45 -203c-77 -353 -266 -560 -593 -560zM632 112c224 0 349 147 412 435l53 233c75 340 -40 508 -287 508
c-224 0 -348 -147 -412 -437l-54 -234c-74 -338 41 -505 288 -505z" />
    <glyph glyph-name="Ograve" unicode="&#xd2;" horiz-adv-x="1368" 
d="M918 1497h-127l-150 204h177zM625 -20c-362 0 -537 256 -446 675l46 203c76 355 266 562 591 562c363 0 538 -257 447 -677l-45 -203c-77 -353 -266 -560 -593 -560zM632 112c224 0 349 147 412 435l53 233c75 340 -40 508 -287 508c-224 0 -348 -147 -412 -437l-54 -234
c-74 -338 41 -505 288 -505z" />
    <glyph glyph-name="Ohungarumlaut" unicode="&#x150;" horiz-adv-x="1370" 
d="M761 1497h-136l146 204h186zM1059 1497h-136l146 204h186zM625 -20c-362 0 -537 256 -446 675l46 203c76 355 266 562 591 562c363 0 538 -257 447 -677l-45 -203c-77 -353 -266 -560 -593 -560zM632 112c224 0 349 147 412 435l53 233c75 340 -40 508 -287 508
c-224 0 -348 -147 -412 -437l-54 -234c-74 -338 41 -505 288 -505z" />
    <glyph glyph-name="Omacron" unicode="&#x14c;" horiz-adv-x="1368" 
d="M1174 1552h-586l24 109h586zM625 -20c-362 0 -537 256 -446 675l46 203c76 355 266 562 591 562c363 0 538 -257 447 -677l-45 -203c-77 -353 -266 -560 -593 -560zM632 112c224 0 349 147 412 435l53 233c75 340 -40 508 -287 508c-224 0 -348 -147 -412 -437l-54 -234
c-74 -338 41 -505 288 -505z" />
    <glyph glyph-name="uni01EA" unicode="&#x1ea;" horiz-adv-x="1368" 
d="M816 1420c363 0 538 -257 447 -677l-45 -203c-67 -305 -217 -501 -467 -549c-91 -31 -139 -72 -139 -117c0 -32 24 -50 63 -50c20 0 40 3 58 8l-34 -107c-24 -8 -48 -13 -76 -13c-88 0 -140 44 -140 116c0 60 37 114 106 153c-338 17 -498 269 -410 674l46 203
c76 355 266 562 591 562zM1044 547l53 233c75 340 -40 508 -287 508c-224 0 -348 -147 -412 -437l-54 -234c-74 -338 41 -505 288 -505c224 0 349 147 412 435z" />
    <glyph glyph-name="Oslash" unicode="&#xd8;" horiz-adv-x="1369" 
d="M1242 1500h152l-189 -253c83 -117 107 -289 59 -504l-46 -203c-76 -354 -266 -560 -592 -560c-124 0 -226 30 -303 85l-123 -165h-152l189 253c-83 116 -106 288 -58 502l46 203c76 355 266 562 591 562c123 0 225 -30 303 -85zM396 850l-53 -233
c-31 -136 -30 -244 -3 -325l691 925c-53 47 -127 71 -220 71c-225 0 -351 -147 -415 -438zM1047 547l53 233c31 137 30 247 2 328l-691 -925c53 -47 128 -71 221 -71c224 0 351 146 415 435z" />
    <glyph glyph-name="Oslashacute" unicode="&#x1fe;" horiz-adv-x="1369" 
d="M961 1701h186l-195 -204h-137zM1242 1500h152l-189 -253c83 -117 107 -289 59 -504l-46 -203c-76 -354 -266 -560 -592 -560c-124 0 -226 30 -303 85l-123 -165h-152l189 253c-83 116 -106 288 -58 502l46 203c76 355 266 562 591 562c123 0 225 -30 303 -85zM396 850
l-53 -233c-31 -136 -30 -244 -3 -325l691 925c-53 47 -127 71 -220 71c-225 0 -351 -147 -415 -438zM1047 547l53 233c31 137 30 247 2 328l-691 -925c53 -47 128 -71 221 -71c224 0 351 146 415 435z" />
    <glyph glyph-name="Otilde" unicode="&#xd5;" horiz-adv-x="1368" 
d="M1028 1497c-117 0 -208 108 -274 108c-44 0 -65 -29 -83 -103h-96c25 139 81 203 181 203c117 0 207 -108 273 -108c43 0 65 28 81 102h96c-25 -139 -82 -202 -178 -202zM625 -20c-362 0 -537 256 -446 675l46 203c76 355 266 562 591 562c363 0 538 -257 447 -677
l-45 -203c-77 -353 -266 -560 -593 -560zM632 112c224 0 349 147 412 435l53 233c75 340 -40 508 -287 508c-224 0 -348 -147 -412 -437l-54 -234c-74 -338 41 -505 288 -505z" />
    <glyph glyph-name="OE" unicode="&#x152;" horiz-adv-x="1952" 
d="M587 -20c-340 0 -501 257 -409 672l47 206c77 354 261 562 575 562c209 0 340 -96 391 -264l55 244h754l-28 -132h-590l-100 -459h546l-27 -126h-547l-120 -551h609l-29 -132h-773l39 165c-94 -123 -225 -185 -393 -185zM631 113c222 0 350 145 414 436l53 232
c76 340 -40 507 -287 507c-224 0 -349 -146 -413 -437l-54 -234c-76 -339 41 -504 287 -504z" />
    <glyph glyph-name="Thorn" unicode="&#xde;" horiz-adv-x="1196" 
d="M257 0h-173l306 1400h172l-54 -252h237c240 0 378 -118 378 -337c0 -315 -210 -521 -533 -521h-269zM479 1017l-130 -596h245c219 0 357 151 357 381c0 140 -88 215 -243 215h-229z" />
    <glyph glyph-name="Racute" unicode="&#x154;" horiz-adv-x="1241" 
d="M870 1497h-137l146 204h186zM258 0h-174l306 1400h447c232 0 357 -97 357 -288c0 -199 -121 -389 -390 -397l-2 -30c97 -21 131 -83 146 -235l16 -152c15 -153 43 -241 88 -267l-7 -31h-199c-25 60 -41 139 -51 288l-10 149c-11 150 -44 216 -190 216h-194zM535 1270
l-106 -486h258c236 0 330 144 330 307c0 122 -75 179 -225 179h-257z" />
    <glyph glyph-name="Rcaron" unicode="&#x158;" horiz-adv-x="1241" 
d="M990 1702h152l-238 -204h-162l-171 204h145l118 -110zM258 0h-174l306 1400h447c232 0 357 -97 357 -288c0 -199 -121 -389 -390 -397l-2 -30c97 -21 131 -83 146 -235l16 -152c15 -153 43 -241 88 -267l-7 -31h-199c-25 60 -41 139 -51 288l-10 149
c-11 150 -44 216 -190 216h-194zM535 1270l-106 -486h258c236 0 330 144 330 307c0 122 -75 179 -225 179h-257z" />
    <glyph glyph-name="uni0156" unicode="&#x156;" horiz-adv-x="1241" 
d="M258 0h-174l306 1400h447c232 0 357 -97 357 -288c0 -199 -121 -389 -390 -397l-2 -30c97 -21 131 -83 146 -235l16 -152c15 -153 43 -241 88 -267l-7 -31h-199c-25 60 -41 139 -51 288l-10 149c-11 150 -44 216 -190 216h-194zM535 1270l-106 -486h258
c236 0 330 144 330 307c0 122 -75 179 -225 179h-257zM390 -372l-8 58c71 4 97 29 111 92h-90l29 136h184l-24 -111c-26 -119 -76 -167 -202 -175z" />
    <glyph glyph-name="Sacute" unicode="&#x15a;" horiz-adv-x="1278" 
d="M891 1497h-137l146 204h186zM615 -20c-329 0 -511 176 -475 493l172 34c-40 -272 75 -400 312 -400c174 0 283 75 288 217c4 107 -40 178 -197 284l-154 103c-162 111 -244 204 -241 365c6 221 173 344 438 344c307 0 464 -172 428 -452l-163 -31
c33 237 -56 356 -269 356c-162 0 -265 -68 -269 -200c-3 -96 41 -164 202 -271l152 -99c156 -103 247 -211 242 -381c-7 -229 -182 -362 -466 -362z" />
    <glyph glyph-name="Scaron" unicode="&#x160;" horiz-adv-x="1278" 
d="M1011 1702h152l-238 -204h-162l-171 204h145l118 -110zM615 -20c-329 0 -511 176 -475 493l172 34c-40 -272 75 -400 312 -400c174 0 283 75 288 217c4 107 -40 178 -197 284l-154 103c-162 111 -244 204 -241 365c6 221 173 344 438 344c307 0 464 -172 428 -452
l-163 -31c33 237 -56 356 -269 356c-162 0 -265 -68 -269 -200c-3 -96 41 -164 202 -271l152 -99c156 -103 247 -211 242 -381c-7 -229 -182 -362 -466 -362z" />
    <glyph glyph-name="Scedilla" unicode="&#x15e;" horiz-adv-x="1278" 
d="M1186 968l-163 -31c33 237 -56 356 -269 356c-162 0 -265 -68 -269 -200c-3 -96 41 -164 202 -271l152 -99c156 -103 247 -211 242 -381c-7 -229 -182 -362 -466 -362h-15l-22 -61c114 -15 179 -58 179 -140c0 -89 -72 -142 -191 -142c-67 0 -131 16 -183 45l30 87
c41 -25 93 -40 145 -40c58 0 92 24 92 62c0 50 -73 69 -196 76l42 122c-253 39 -387 208 -356 484l172 34c-40 -272 75 -400 312 -400c174 0 283 75 288 217c4 107 -40 178 -197 284l-154 103c-162 111 -244 204 -241 365c6 221 173 344 438 344c307 0 464 -172 428 -452z
" />
    <glyph glyph-name="uni0218" unicode="&#x218;" horiz-adv-x="1278" 
d="M615 -20c-329 0 -511 176 -475 493l172 34c-40 -272 75 -400 312 -400c174 0 283 75 288 217c4 107 -40 178 -197 284l-154 103c-162 111 -244 204 -241 365c6 221 173 344 438 344c307 0 464 -172 428 -452l-163 -31c33 237 -56 356 -269 356c-162 0 -265 -68 -269 -200
c-3 -96 41 -164 202 -271l152 -99c156 -103 247 -211 242 -381c-7 -229 -182 -362 -466 -362zM402 -372l-8 58c71 4 97 29 111 92h-90l29 136h184l-24 -111c-26 -119 -76 -167 -202 -175z" />
    <glyph glyph-name="uni1E9E" unicode="&#x1e9e;" horiz-adv-x="1218" 
d="M687 -13c-141 0 -235 61 -277 166l85 105c34 -92 103 -149 201 -149c108 0 174 63 174 159c0 62 -30 110 -95 183l-65 71c-66 72 -109 137 -109 211c0 246 408 269 408 440c0 74 -78 123 -214 123c-188 0 -292 -76 -327 -240l-231 -1056h-173l233 1059
c52 236 216 361 502 361c238 0 369 -95 369 -236c0 -257 -401 -263 -401 -432c0 -38 24 -81 90 -154l66 -72c67 -73 111 -142 111 -232c0 -187 -133 -307 -347 -307z" />
    <glyph glyph-name="Tbar" unicode="&#x166;" horiz-adv-x="1110" 
d="M1208 1400l-29 -132h-380l-103 -472h240l-27 -121h-239l-147 -675h-173l147 675h-242l27 121h241l103 472h-380l28 132h934z" />
    <glyph glyph-name="Tcaron" unicode="&#x164;" horiz-adv-x="1110" 
d="M943 1702h152l-238 -204h-162l-171 204h145l118 -110zM523 0h-173l276 1268h-380l28 132h934l-29 -132h-380z" />
    <glyph glyph-name="uni0162" unicode="&#x162;" horiz-adv-x="1110" 
d="M246 1268l28 132h934l-29 -132h-380l-276 -1268h-35l-29 -81c114 -15 179 -58 179 -140c0 -89 -72 -142 -191 -142c-67 0 -131 16 -183 45l30 87c41 -25 93 -40 145 -40c58 0 92 24 92 62c0 50 -73 69 -196 76l46 133h-31l276 1268h-380z" />
    <glyph glyph-name="uni021A" unicode="&#x21a;" horiz-adv-x="1110" 
d="M523 0h-173l276 1268h-380l28 132h934l-29 -132h-380zM283 -372l-8 58c71 4 97 29 111 92h-90l29 136h184l-24 -111c-26 -119 -76 -167 -202 -175z" />
    <glyph glyph-name="Uacute" unicode="&#xda;" horiz-adv-x="1313" 
d="M925 1497h-137l146 204h186zM571 -20c-318 0 -464 165 -403 456l206 964h173l-213 -978c-43 -201 45 -310 245 -310c182 0 302 105 345 305l216 983h173l-222 -1005c-60 -276 -232 -415 -520 -415z" />
    <glyph glyph-name="Ubreve" unicode="&#x16c;" horiz-adv-x="1313" 
d="M878 1491c-165 0 -245 75 -229 212h118c-8 -73 35 -115 119 -115c87 0 140 41 155 115h124c-29 -140 -126 -212 -287 -212zM571 -20c-318 0 -464 165 -403 456l206 964h173l-213 -978c-43 -201 45 -310 245 -310c182 0 302 105 345 305l216 983h173l-222 -1005
c-60 -276 -232 -415 -520 -415z" />
    <glyph glyph-name="Ucircumflex" unicode="&#xdb;" horiz-adv-x="1313" 
d="M730 1497h-153l239 204h162l171 -204h-145l-119 109zM571 -20c-318 0 -464 165 -403 456l206 964h173l-213 -978c-43 -201 45 -310 245 -310c182 0 302 105 345 305l216 983h173l-222 -1005c-60 -276 -232 -415 -520 -415z" />
    <glyph glyph-name="Udieresis" unicode="&#xdc;" horiz-adv-x="1313" 
d="M787 1514h-179l37 174h179zM1131 1514h-180l38 174h180zM571 -20c-318 0 -464 165 -403 456l206 964h173l-213 -978c-43 -201 45 -310 245 -310c182 0 302 105 345 305l216 983h173l-222 -1005c-60 -276 -232 -415 -520 -415z" />
    <glyph glyph-name="Ugrave" unicode="&#xd9;" horiz-adv-x="1313" 
d="M914 1497h-127l-150 204h177zM571 -20c-318 0 -464 165 -403 456l206 964h173l-213 -978c-43 -201 45 -310 245 -310c182 0 302 105 345 305l216 983h173l-222 -1005c-60 -276 -232 -415 -520 -415z" />
    <glyph glyph-name="Uhungarumlaut" unicode="&#x170;" horiz-adv-x="1313" 
d="M748 1497h-136l146 204h186zM1046 1497h-136l146 204h186zM571 -20c-318 0 -464 165 -403 456l206 964h173l-213 -978c-43 -201 45 -310 245 -310c182 0 302 105 345 305l216 983h173l-222 -1005c-60 -276 -232 -415 -520 -415z" />
    <glyph glyph-name="Umacron" unicode="&#x16a;" horiz-adv-x="1313" 
d="M1170 1552h-586l24 109h586zM571 -20c-318 0 -464 165 -403 456l206 964h173l-213 -978c-43 -201 45 -310 245 -310c182 0 302 105 345 305l216 983h173l-222 -1005c-60 -276 -232 -415 -520 -415z" />
    <glyph glyph-name="Uogonek" unicode="&#x172;" horiz-adv-x="1313" 
d="M924 417l216 983h173l-222 -1005c-49 -227 -175 -362 -378 -402c-94 -31 -144 -73 -144 -119c0 -32 24 -50 63 -50c20 0 40 3 58 8l-34 -107c-24 -8 -48 -13 -76 -13c-88 0 -140 44 -140 116c0 59 37 114 105 152c-300 9 -436 173 -377 456l206 964h173l-213 -978
c-43 -201 45 -310 245 -310c182 0 302 105 345 305z" />
    <glyph glyph-name="Uring" unicode="&#x16e;" horiz-adv-x="1313" 
d="M894 1472c-122 0 -198 61 -198 159s76 160 198 160s198 -62 198 -160s-76 -159 -198 -159zM894 1555c59 0 95 30 95 76c0 47 -36 76 -95 76s-94 -29 -94 -76c0 -46 35 -76 94 -76zM571 -20c-318 0 -464 165 -403 456l206 964h173l-213 -978c-43 -201 45 -310 245 -310
c182 0 302 105 345 305l216 983h173l-222 -1005c-60 -276 -232 -415 -520 -415z" />
    <glyph glyph-name="Utilde" unicode="&#x168;" horiz-adv-x="1313" 
d="M1024 1497c-117 0 -208 108 -274 108c-44 0 -65 -29 -83 -103h-96c25 139 81 203 181 203c117 0 207 -108 273 -108c43 0 65 28 81 102h96c-25 -139 -82 -202 -178 -202zM571 -20c-318 0 -464 165 -403 456l206 964h173l-213 -978c-43 -201 45 -310 245 -310
c182 0 302 105 345 305l216 983h173l-222 -1005c-60 -276 -232 -415 -520 -415z" />
    <glyph glyph-name="Wacute" unicode="&#x1e82;" horiz-adv-x="1769" 
d="M1152 1497h-137l146 204h186zM513 0h-201l-38 1400h170l12 -809c1 -132 -3 -251 -19 -404l36 -4c49 154 99 289 151 408l359 809h174l4 -809c1 -119 -7 -253 -28 -402l36 -4c50 149 104 284 159 406l365 809h174l-647 -1400h-205l-4 740c1 138 10 282 29 434l-36 4
c-51 -163 -103 -304 -160 -437z" />
    <glyph glyph-name="Wcircumflex" unicode="&#x174;" horiz-adv-x="1769" 
d="M957 1497h-153l239 204h162l171 -204h-145l-119 109zM513 0h-201l-38 1400h170l12 -809c1 -132 -3 -251 -19 -404l36 -4c49 154 99 289 151 408l359 809h174l4 -809c1 -119 -7 -253 -28 -402l36 -4c50 149 104 284 159 406l365 809h174l-647 -1400h-205l-4 740
c1 138 10 282 29 434l-36 4c-51 -163 -103 -304 -160 -437z" />
    <glyph glyph-name="Wdieresis" unicode="&#x1e84;" horiz-adv-x="1769" 
d="M1014 1514h-179l37 174h179zM1358 1514h-180l38 174h180zM513 0h-201l-38 1400h170l12 -809c1 -132 -3 -251 -19 -404l36 -4c49 154 99 289 151 408l359 809h174l4 -809c1 -119 -7 -253 -28 -402l36 -4c50 149 104 284 159 406l365 809h174l-647 -1400h-205l-4 740
c1 138 10 282 29 434l-36 4c-51 -163 -103 -304 -160 -437z" />
    <glyph glyph-name="Wgrave" unicode="&#x1e80;" horiz-adv-x="1769" 
d="M1142 1497h-127l-150 204h177zM513 0h-201l-38 1400h170l12 -809c1 -132 -3 -251 -19 -404l36 -4c49 154 99 289 151 408l359 809h174l4 -809c1 -119 -7 -253 -28 -402l36 -4c50 149 104 284 159 406l365 809h174l-647 -1400h-205l-4 740c1 138 10 282 29 434l-36 4
c-51 -163 -103 -304 -160 -437z" />
    <glyph glyph-name="Yacute" unicode="&#xdd;" horiz-adv-x="1160" 
d="M848 1497h-137l146 204h186zM547 0h-173l125 565l-225 835h175l106 -423c19 -83 33 -159 41 -266l31 -2c54 109 100 183 155 268l285 423h191l-595 -860z" />
    <glyph glyph-name="Ycircumflex" unicode="&#x176;" horiz-adv-x="1160" 
d="M653 1497h-153l239 204h162l171 -204h-145l-119 109zM547 0h-173l125 565l-225 835h175l106 -423c19 -83 33 -159 41 -266l31 -2c54 109 100 183 155 268l285 423h191l-595 -860z" />
    <glyph glyph-name="Ydieresis" unicode="&#x178;" horiz-adv-x="1160" 
d="M710 1514h-179l37 174h179zM1054 1514h-180l38 174h180zM547 0h-173l125 565l-225 835h175l106 -423c19 -83 33 -159 41 -266l31 -2c54 109 100 183 155 268l285 423h191l-595 -860z" />
    <glyph glyph-name="Ygrave" unicode="&#x1ef2;" horiz-adv-x="1160" 
d="M838 1497h-127l-150 204h177zM547 0h-173l125 565l-225 835h175l106 -423c19 -83 33 -159 41 -266l31 -2c54 109 100 183 155 268l285 423h191l-595 -860z" />
    <glyph glyph-name="uni1EF8" unicode="&#x1ef8;" horiz-adv-x="1160" 
d="M947 1497c-117 0 -208 108 -274 108c-44 0 -65 -29 -83 -103h-96c25 139 81 203 181 203c117 0 207 -108 273 -108c43 0 65 28 81 102h96c-25 -139 -82 -202 -178 -202zM547 0h-173l125 565l-225 835h175l106 -423c19 -83 33 -159 41 -266l31 -2c54 109 100 183 155 268
l285 423h191l-595 -860z" />
    <glyph glyph-name="Zacute" unicode="&#x179;" horiz-adv-x="1078" 
d="M802 1497h-137l146 204h186zM860 0h-862l20 110l728 960c39 51 101 124 150 168l-7 32c-51 -2 -94 -2 -149 -2h-465l28 132h823l-19 -110l-714 -951c-37 -50 -103 -127 -158 -176l7 -32c46 1 89 2 138 2h509z" />
    <glyph glyph-name="Zcaron" unicode="&#x17d;" horiz-adv-x="1078" 
d="M922 1702h152l-238 -204h-162l-171 204h145l118 -110zM860 0h-862l20 110l728 960c39 51 101 124 150 168l-7 32c-51 -2 -94 -2 -149 -2h-465l28 132h823l-19 -110l-714 -951c-37 -50 -103 -127 -158 -176l7 -32c46 1 89 2 138 2h509z" />
    <glyph glyph-name="Zdotaccent" unicode="&#x17b;" horiz-adv-x="1078" 
d="M842 1514h-190l37 174h190zM860 0h-862l20 110l728 960c39 51 101 124 150 168l-7 32c-51 -2 -94 -2 -149 -2h-465l28 132h823l-19 -110l-714 -951c-37 -50 -103 -127 -158 -176l7 -32c46 1 89 2 138 2h509z" />
    <glyph glyph-name="aacute" unicode="&#xe1;" horiz-adv-x="1139" 
d="M718 1149h-126l155 251h176zM325 -20c-157 0 -249 83 -249 211c0 228 206 341 465 400l253 53l22 98c34 142 -54 215 -196 215c-158 0 -245 -80 -256 -215l-159 35c20 173 162 293 422 293c255 0 402 -128 351 -351l-120 -521c-17 -75 -6 -93 47 -94l48 -2l-44 -119
c-11 -2 -29 -3 -45 -3c-171 0 -188 78 -104 264l-32 8c-88 -177 -219 -272 -403 -272zM392 96c152 0 302 134 350 326l26 107l-195 -41c-188 -44 -322 -122 -322 -266c-1 -80 50 -126 141 -126z" />
    <glyph glyph-name="abreve" unicode="&#x103;" horiz-adv-x="1139" 
d="M683 1141c-167 0 -245 91 -225 259h113c-11 -105 26 -159 119 -159c89 0 148 54 171 159h118c-37 -172 -131 -259 -296 -259zM325 -20c-157 0 -249 83 -249 211c0 228 206 341 465 400l253 53l22 98c34 142 -54 215 -196 215c-158 0 -245 -80 -256 -215l-159 35
c20 173 162 293 422 293c255 0 402 -128 351 -351l-120 -521c-17 -75 -6 -93 47 -94l48 -2l-44 -119c-11 -2 -29 -3 -45 -3c-171 0 -188 78 -104 264l-32 8c-88 -177 -219 -272 -403 -272zM392 96c152 0 302 134 350 326l26 107l-195 -41c-188 -44 -322 -122 -322 -266
c-1 -80 50 -126 141 -126z" />
    <glyph glyph-name="acircumflex" unicode="&#xe2;" horiz-adv-x="1139" 
d="M521 1148h-143l256 252h158l155 -252h-132l-115 148zM325 -20c-157 0 -249 83 -249 211c0 228 206 341 465 400l253 53l22 98c34 142 -54 215 -196 215c-158 0 -245 -80 -256 -215l-159 35c20 173 162 293 422 293c255 0 402 -128 351 -351l-120 -521
c-17 -75 -6 -93 47 -94l48 -2l-44 -119c-11 -2 -29 -3 -45 -3c-171 0 -188 78 -104 264l-32 8c-88 -177 -219 -272 -403 -272zM392 96c152 0 302 134 350 326l26 107l-195 -41c-188 -44 -322 -122 -322 -266c-1 -80 50 -126 141 -126z" />
    <glyph glyph-name="adieresis" unicode="&#xe4;" horiz-adv-x="1139" 
d="M595 1197h-181l38 174h181zM937 1197h-182l39 174h181zM325 -20c-157 0 -249 83 -249 211c0 228 206 341 465 400l253 53l22 98c34 142 -54 215 -196 215c-158 0 -245 -80 -256 -215l-159 35c20 173 162 293 422 293c255 0 402 -128 351 -351l-120 -521
c-17 -75 -6 -93 47 -94l48 -2l-44 -119c-11 -2 -29 -3 -45 -3c-171 0 -188 78 -104 264l-32 8c-88 -177 -219 -272 -403 -272zM392 96c152 0 302 134 350 326l26 107l-195 -41c-188 -44 -322 -122 -322 -266c-1 -80 50 -126 141 -126z" />
    <glyph glyph-name="agrave" unicode="&#xe0;" horiz-adv-x="1139" 
d="M728 1148h-120l-138 252h171zM325 -20c-157 0 -249 83 -249 211c0 228 206 341 465 400l253 53l22 98c34 142 -54 215 -196 215c-158 0 -245 -80 -256 -215l-159 35c20 173 162 293 422 293c255 0 402 -128 351 -351l-120 -521c-17 -75 -6 -93 47 -94l48 -2l-44 -119
c-11 -2 -29 -3 -45 -3c-171 0 -188 78 -104 264l-32 8c-88 -177 -219 -272 -403 -272zM392 96c152 0 302 134 350 326l26 107l-195 -41c-188 -44 -322 -122 -322 -266c-1 -80 50 -126 141 -126z" />
    <glyph glyph-name="amacron" unicode="&#x101;" horiz-adv-x="1139" 
d="M969 1202h-586l24 109h586zM325 -20c-157 0 -249 83 -249 211c0 228 206 341 465 400l253 53l22 98c34 142 -54 215 -196 215c-158 0 -245 -80 -256 -215l-159 35c20 173 162 293 422 293c255 0 402 -128 351 -351l-120 -521c-17 -75 -6 -93 47 -94l48 -2l-44 -119
c-11 -2 -29 -3 -45 -3c-171 0 -188 78 -104 264l-32 8c-88 -177 -219 -272 -403 -272zM392 96c152 0 302 134 350 326l26 107l-195 -41c-188 -44 -322 -122 -322 -266c-1 -80 50 -126 141 -126z" />
    <glyph glyph-name="aogonek" unicode="&#x105;" horiz-adv-x="1139" 
d="M978 719l-120 -521c-17 -75 -6 -93 47 -94l48 -2l-44 -119c-11 -2 -29 -3 -45 -3c-9 0 -17 0 -26 1c-72 -30 -110 -67 -110 -107c0 -32 24 -50 63 -50c20 0 40 3 58 8l-34 -107c-24 -8 -48 -13 -76 -13c-88 0 -140 44 -140 116s54 136 151 174c-58 35 -49 112 10 242
l-32 8c-88 -177 -219 -272 -403 -272c-157 0 -249 83 -249 211c0 228 206 341 465 400l253 53l22 98c34 142 -54 215 -196 215c-158 0 -245 -80 -256 -215l-159 35c20 173 162 293 422 293c255 0 402 -128 351 -351zM742 422l26 107l-195 -41c-188 -44 -322 -122 -322 -266
c-1 -80 50 -126 141 -126c152 0 302 134 350 326z" />
    <glyph glyph-name="aring" unicode="&#xe5;" horiz-adv-x="1139" 
d="M702 1131c-116 0 -198 78 -198 191c0 112 82 191 198 191s198 -79 198 -191c0 -113 -82 -191 -198 -191zM702 1224c57 0 98 40 98 98c0 57 -41 98 -98 98s-98 -41 -98 -98c0 -58 41 -98 98 -98zM325 -20c-157 0 -249 83 -249 211c0 228 206 341 465 400l253 53l22 98
c34 142 -54 215 -196 215c-158 0 -245 -80 -256 -215l-159 35c20 173 162 293 422 293c255 0 402 -128 351 -351l-120 -521c-17 -75 -6 -93 47 -94l48 -2l-44 -119c-11 -2 -29 -3 -45 -3c-171 0 -188 78 -104 264l-32 8c-88 -177 -219 -272 -403 -272zM392 96
c152 0 302 134 350 326l26 107l-195 -41c-188 -44 -322 -122 -322 -266c-1 -80 50 -126 141 -126z" />
    <glyph glyph-name="atilde" unicode="&#xe3;" horiz-adv-x="1139" 
d="M833 1177c-119 0 -206 113 -271 113c-45 0 -68 -30 -87 -107h-98c27 144 84 212 185 212c116 0 203 -113 269 -113c42 0 66 30 83 107h98c-26 -143 -84 -212 -179 -212zM325 -20c-157 0 -249 83 -249 211c0 228 206 341 465 400l253 53l22 98c34 142 -54 215 -196 215
c-158 0 -245 -80 -256 -215l-159 35c20 173 162 293 422 293c255 0 402 -128 351 -351l-120 -521c-17 -75 -6 -93 47 -94l48 -2l-44 -119c-11 -2 -29 -3 -45 -3c-171 0 -188 78 -104 264l-32 8c-88 -177 -219 -272 -403 -272zM392 96c152 0 302 134 350 326l26 107l-195 -41
c-188 -44 -322 -122 -322 -266c-1 -80 50 -126 141 -126z" />
    <glyph glyph-name="ae" unicode="&#xe6;" horiz-adv-x="1755" 
d="M1606 497h-685l-11 -49c-55 -228 38 -354 216 -354c140 0 237 77 290 234l155 -45c-70 -193 -227 -303 -454 -303c-201 0 -337 108 -338 280l-30 5c-99 -188 -240 -285 -424 -285c-157 0 -249 83 -249 211c0 228 206 341 465 400l249 53l20 94c31 144 -48 219 -192 219
c-157 0 -244 -82 -255 -215l-160 35c19 173 162 293 415 293c169 0 282 -77 301 -211c73 135 210 211 370 211c218 0 366 -123 366 -325c0 -73 -22 -176 -49 -248zM1272 956c-171 0 -270 -113 -321 -326l-4 -18h521l15 69c37 174 -52 275 -211 275zM740 422l26 107l-193 -41
c-188 -44 -322 -122 -322 -266c-1 -80 50 -126 141 -126c152 0 301 134 348 326z" />
    <glyph glyph-name="aeacute" unicode="&#x1fd;" horiz-adv-x="1755" 
d="M1078 1400h176l-205 -251h-126zM1606 497h-685l-11 -49c-55 -228 38 -354 216 -354c140 0 237 77 290 234l155 -45c-70 -193 -227 -303 -454 -303c-201 0 -337 108 -338 280l-30 5c-99 -188 -240 -285 -424 -285c-157 0 -249 83 -249 211c0 228 206 341 465 400l249 53
l20 94c31 144 -48 219 -192 219c-157 0 -244 -82 -255 -215l-160 35c19 173 162 293 415 293c169 0 282 -77 301 -211c73 135 210 211 370 211c218 0 366 -123 366 -325c0 -73 -22 -176 -49 -248zM1272 956c-171 0 -270 -113 -321 -326l-4 -18h521l15 69
c37 174 -52 275 -211 275zM740 422l26 107l-193 -41c-188 -44 -322 -122 -322 -266c-1 -80 50 -126 141 -126c152 0 301 134 348 326z" />
    <glyph glyph-name="a.ss01" horiz-adv-x="1182" 
d="M412 -17c-249 0 -358 183 -292 491l38 169c57 270 215 425 438 425c185 0 293 -98 306 -276l34 3c0 125 4 202 12 255h169l-229 -1050h-165c10 53 42 126 97 231l-31 12c-92 -176 -212 -260 -377 -260zM482 98c162 0 288 142 335 359l27 120c52 238 -32 375 -215 375
c-154 0 -259 -111 -304 -320l-37 -167c-53 -245 23 -367 194 -367z" />
    <glyph glyph-name="aacute.ss01" horiz-adv-x="1182" 
d="M766 1149h-126l155 251h176zM412 -17c-249 0 -358 183 -292 491l38 169c57 270 215 425 438 425c185 0 293 -98 306 -276l34 3c0 125 4 202 12 255h169l-229 -1050h-165c10 53 42 126 97 231l-31 12c-92 -176 -212 -260 -377 -260zM482 98c162 0 288 142 335 359l27 120
c52 238 -32 375 -215 375c-154 0 -259 -111 -304 -320l-37 -167c-53 -245 23 -367 194 -367z" />
    <glyph glyph-name="abreve.ss01" horiz-adv-x="1182" 
d="M731 1141c-167 0 -245 91 -225 259h113c-11 -105 26 -159 119 -159c89 0 148 54 171 159h118c-37 -172 -131 -259 -296 -259zM412 -17c-249 0 -358 183 -292 491l38 169c57 270 215 425 438 425c185 0 293 -98 306 -276l34 3c0 125 4 202 12 255h169l-229 -1050h-165
c10 53 42 126 97 231l-31 12c-92 -176 -212 -260 -377 -260zM482 98c162 0 288 142 335 359l27 120c52 238 -32 375 -215 375c-154 0 -259 -111 -304 -320l-37 -167c-53 -245 23 -367 194 -367z" />
    <glyph glyph-name="acircumflex.ss01" horiz-adv-x="1182" 
d="M570 1148h-143l256 252h158l155 -252h-132l-115 148zM412 -17c-249 0 -358 183 -292 491l38 169c57 270 215 425 438 425c185 0 293 -98 306 -276l34 3c0 125 4 202 12 255h169l-229 -1050h-165c10 53 42 126 97 231l-31 12c-92 -176 -212 -260 -377 -260zM482 98
c162 0 288 142 335 359l27 120c52 238 -32 375 -215 375c-154 0 -259 -111 -304 -320l-37 -167c-53 -245 23 -367 194 -367z" />
    <glyph glyph-name="adieresis.ss01" horiz-adv-x="1182" 
d="M643 1197h-181l38 174h181zM985 1197h-182l39 174h181zM412 -17c-249 0 -358 183 -292 491l38 169c57 270 215 425 438 425c185 0 293 -98 306 -276l34 3c0 125 4 202 12 255h169l-229 -1050h-165c10 53 42 126 97 231l-31 12c-92 -176 -212 -260 -377 -260zM482 98
c162 0 288 142 335 359l27 120c52 238 -32 375 -215 375c-154 0 -259 -111 -304 -320l-37 -167c-53 -245 23 -367 194 -367z" />
    <glyph glyph-name="agrave.ss01" horiz-adv-x="1182" 
d="M776 1148h-120l-138 252h171zM412 -17c-249 0 -358 183 -292 491l38 169c57 270 215 425 438 425c185 0 293 -98 306 -276l34 3c0 125 4 202 12 255h169l-229 -1050h-165c10 53 42 126 97 231l-31 12c-92 -176 -212 -260 -377 -260zM482 98c162 0 288 142 335 359l27 120
c52 238 -32 375 -215 375c-154 0 -259 -111 -304 -320l-37 -167c-53 -245 23 -367 194 -367z" />
    <glyph glyph-name="amacron.ss01" horiz-adv-x="1182" 
d="M1017 1202h-586l24 109h586zM412 -17c-249 0 -358 183 -292 491l38 169c57 270 215 425 438 425c185 0 293 -98 306 -276l34 3c0 125 4 202 12 255h169l-229 -1050h-165c10 53 42 126 97 231l-31 12c-92 -176 -212 -260 -377 -260zM482 98c162 0 288 142 335 359l27 120
c52 238 -32 375 -215 375c-154 0 -259 -111 -304 -320l-37 -167c-53 -245 23 -367 194 -367z" />
    <glyph glyph-name="aogonek.ss01" horiz-adv-x="1182" 
d="M888 0h1c-108 -32 -166 -77 -166 -126c0 -32 24 -50 63 -50c20 0 40 3 58 8l-34 -107c-24 -8 -48 -13 -76 -13c-88 0 -140 44 -140 116c0 70 52 134 145 172h-16c10 53 42 126 97 231l-31 12c-92 -176 -212 -260 -377 -260c-249 0 -358 183 -292 491l38 169
c57 270 215 425 438 425c185 0 293 -98 306 -276l34 3c0 125 4 202 12 255h169zM817 457l27 120c52 238 -32 375 -215 375c-154 0 -259 -111 -304 -320l-37 -167c-53 -245 23 -367 194 -367c162 0 288 142 335 359z" />
    <glyph glyph-name="aring.ss01" horiz-adv-x="1182" 
d="M750 1131c-116 0 -198 78 -198 191c0 112 82 191 198 191s198 -79 198 -191c0 -113 -82 -191 -198 -191zM750 1224c57 0 98 40 98 98c0 57 -41 98 -98 98s-98 -41 -98 -98c0 -58 41 -98 98 -98zM412 -17c-249 0 -358 183 -292 491l38 169c57 270 215 425 438 425
c185 0 293 -98 306 -276l34 3c0 125 4 202 12 255h169l-229 -1050h-165c10 53 42 126 97 231l-31 12c-92 -176 -212 -260 -377 -260zM482 98c162 0 288 142 335 359l27 120c52 238 -32 375 -215 375c-154 0 -259 -111 -304 -320l-37 -167c-53 -245 23 -367 194 -367z" />
    <glyph glyph-name="atilde.ss01" horiz-adv-x="1182" 
d="M881 1177c-119 0 -206 113 -271 113c-45 0 -68 -30 -87 -107h-98c27 144 84 212 185 212c116 0 203 -113 269 -113c42 0 66 30 83 107h98c-26 -143 -84 -212 -179 -212zM412 -17c-249 0 -358 183 -292 491l38 169c57 270 215 425 438 425c185 0 293 -98 306 -276l34 3
c0 125 4 202 12 255h169l-229 -1050h-165c10 53 42 126 97 231l-31 12c-92 -176 -212 -260 -377 -260zM482 98c162 0 288 142 335 359l27 120c52 238 -32 375 -215 375c-154 0 -259 -111 -304 -320l-37 -167c-53 -245 23 -367 194 -367z" />
    <glyph glyph-name="cacute" unicode="&#x107;" horiz-adv-x="1118" 
d="M732 1149h-126l155 251h176zM493 -20c-294 0 -436 200 -368 515l32 146c60 276 217 429 479 429c247 0 408 -142 376 -377l-170 -18c33 183 -55 280 -212 280c-164 0 -257 -109 -304 -323l-39 -172c-51 -233 30 -365 213 -365c141 0 231 86 282 261l159 -50
c-68 -213 -219 -326 -448 -326z" />
    <glyph glyph-name="ccaron" unicode="&#x10d;" horiz-adv-x="1118" 
d="M868 1400h142l-255 -252h-159l-154 252h132l114 -147zM493 -20c-294 0 -436 200 -368 515l32 146c60 276 217 429 479 429c247 0 408 -142 376 -377l-170 -18c33 183 -55 280 -212 280c-164 0 -257 -109 -304 -323l-39 -172c-51 -233 30 -365 213 -365
c141 0 231 86 282 261l159 -50c-68 -213 -219 -326 -448 -326z" />
    <glyph glyph-name="ccedilla" unicode="&#xe7;" horiz-adv-x="1118" 
d="M1012 693l-170 -18c33 183 -55 280 -212 280c-164 0 -257 -109 -304 -323l-39 -172c-51 -233 30 -365 213 -365c141 0 231 86 282 261l159 -50c-67 -209 -214 -322 -436 -326l-22 -61c114 -15 179 -58 179 -140c0 -89 -72 -142 -191 -142c-67 0 -131 16 -183 45l30 87
c41 -25 93 -40 145 -40c58 0 92 24 92 62c0 50 -73 69 -196 76l41 120c-230 39 -335 228 -275 508l32 146c60 276 217 429 479 429c247 0 408 -142 376 -377z" />
    <glyph glyph-name="cdotaccent" unicode="&#x10b;" horiz-adv-x="1118" 
d="M779 1199h-193l38 173h193zM493 -20c-294 0 -436 200 -368 515l32 146c60 276 217 429 479 429c247 0 408 -142 376 -377l-170 -18c33 183 -55 280 -212 280c-164 0 -257 -109 -304 -323l-39 -172c-51 -233 30 -365 213 -365c141 0 231 86 282 261l159 -50
c-68 -213 -219 -326 -448 -326z" />
    <glyph glyph-name="eth" unicode="&#xf0;" horiz-adv-x="1125" 
d="M1089 1347l20 -105l-146 -28c81 -171 98 -374 40 -645l-32 -149c-61 -284 -219 -440 -475 -440c-298 0 -436 205 -371 517l32 149c55 262 214 415 436 415c179 0 281 -90 298 -241l34 3c-3 126 -35 249 -100 365l-256 -48l-20 104l212 40c-23 30 -48 60 -76 88l141 47
c30 -34 58 -70 82 -107zM803 414l35 151c55 246 -22 380 -210 380c-155 0 -260 -106 -304 -312l-37 -171c-50 -235 25 -366 216 -366c159 0 251 100 300 318z" />
    <glyph glyph-name="dcaron" unicode="&#x10f;" horiz-adv-x="1184" 
d="M412 -17c-249 0 -358 183 -292 491l38 169c57 270 215 425 438 425c185 0 293 -98 307 -275l35 4c-4 131 4 224 24 318l62 285h169l-305 -1400h-165c10 53 42 126 97 231l-31 12c-92 -176 -212 -260 -377 -260zM1337 1097h-99l79 303h139zM482 98c162 0 288 142 335 359
l27 120c52 238 -32 375 -215 375c-154 0 -259 -111 -304 -320l-37 -167c-53 -245 23 -367 194 -367z" />
    <glyph glyph-name="dcroat" unicode="&#x111;" horiz-adv-x="1201" 
d="M1166 1276h159l-23 -105h-159l-255 -1171h-165c10 53 42 126 97 231l-31 12c-92 -176 -212 -260 -377 -260c-249 0 -358 183 -292 491l38 169c57 270 215 425 438 425c185 0 293 -98 307 -275l35 4c-4 131 4 224 24 318l12 56h-319l24 105h318l27 124h169zM817 457
l27 120c52 238 -32 375 -215 375c-154 0 -259 -111 -304 -320l-37 -167c-53 -245 23 -367 194 -367c162 0 288 142 335 359z" />
    <glyph glyph-name="eacute" unicode="&#xe9;" horiz-adv-x="1128" 
d="M769 1400h176l-205 -251h-126zM978 496h-685l-11 -48c-50 -229 39 -354 216 -354c140 0 238 77 290 234l156 -45c-70 -193 -228 -303 -454 -303c-290 0 -433 199 -367 506l34 153c59 274 224 431 494 431c228 0 376 -123 376 -325c0 -73 -21 -178 -49 -249zM644 956
c-171 0 -273 -113 -320 -326l-4 -19h520l15 70c37 174 -52 275 -211 275z" />
    <glyph glyph-name="ecaron" unicode="&#x11b;" horiz-adv-x="1128" 
d="M1019 1400l-255 -252h-159l-154 252h132l114 -147l180 147h142zM978 496h-685l-11 -48c-50 -229 39 -354 216 -354c140 0 238 77 290 234l156 -45c-70 -193 -228 -303 -454 -303c-290 0 -433 199 -367 506l34 153c59 274 224 431 494 431c228 0 376 -123 376 -325
c0 -73 -21 -178 -49 -249zM644 956c-171 0 -273 -113 -320 -326l-4 -19h520l15 70c37 174 -52 275 -211 275z" />
    <glyph glyph-name="ecircumflex" unicode="&#xea;" horiz-adv-x="1128" 
d="M837 1148l-115 148l-179 -148h-143l256 252h158l155 -252h-132zM978 496h-685l-11 -48c-50 -229 39 -354 216 -354c140 0 238 77 290 234l156 -45c-70 -193 -228 -303 -454 -303c-290 0 -433 199 -367 506l34 153c59 274 224 431 494 431c228 0 376 -123 376 -325
c0 -73 -21 -178 -49 -249zM644 956c-171 0 -273 -113 -320 -326l-4 -19h520l15 70c37 174 -52 275 -211 275z" />
    <glyph glyph-name="edieresis" unicode="&#xeb;" horiz-adv-x="1128" 
d="M474 1371h181l-38 -174h-181zM816 1371h181l-38 -174h-182zM978 496h-685l-11 -48c-50 -229 39 -354 216 -354c140 0 238 77 290 234l156 -45c-70 -193 -228 -303 -454 -303c-290 0 -433 199 -367 506l34 153c59 274 224 431 494 431c228 0 376 -123 376 -325
c0 -73 -21 -178 -49 -249zM644 956c-171 0 -273 -113 -320 -326l-4 -19h520l15 70c37 174 -52 275 -211 275z" />
    <glyph glyph-name="edotaccent" unicode="&#x117;" horiz-adv-x="1128" 
d="M630 1372h193l-38 -173h-193zM978 496h-685l-11 -48c-50 -229 39 -354 216 -354c140 0 238 77 290 234l156 -45c-70 -193 -228 -303 -454 -303c-290 0 -433 199 -367 506l34 153c59 274 224 431 494 431c228 0 376 -123 376 -325c0 -73 -21 -178 -49 -249zM644 956
c-171 0 -273 -113 -320 -326l-4 -19h520l15 70c37 174 -52 275 -211 275z" />
    <glyph glyph-name="egrave" unicode="&#xe8;" horiz-adv-x="1128" 
d="M663 1400l87 -252h-120l-138 252h171zM978 496h-685l-11 -48c-50 -229 39 -354 216 -354c140 0 238 77 290 234l156 -45c-70 -193 -228 -303 -454 -303c-290 0 -433 199 -367 506l34 153c59 274 224 431 494 431c228 0 376 -123 376 -325c0 -73 -21 -178 -49 -249z
M644 956c-171 0 -273 -113 -320 -326l-4 -19h520l15 70c37 174 -52 275 -211 275z" />
    <glyph glyph-name="emacron" unicode="&#x113;" horiz-adv-x="1128" 
d="M429 1311h586l-24 -109h-586zM978 496h-685l-11 -48c-50 -229 39 -354 216 -354c140 0 238 77 290 234l156 -45c-70 -193 -228 -303 -454 -303c-290 0 -433 199 -367 506l34 153c59 274 224 431 494 431c228 0 376 -123 376 -325c0 -73 -21 -178 -49 -249zM644 956
c-171 0 -273 -113 -320 -326l-4 -19h520l15 70c37 174 -52 275 -211 275z" />
    <glyph glyph-name="eogonek" unicode="&#x119;" horiz-adv-x="1128" 
d="M978 496h-685l-11 -48c-50 -229 39 -354 216 -354c140 0 238 77 290 234l156 -45c-57 -157 -171 -259 -333 -291c-91 -32 -140 -73 -140 -118c0 -32 24 -50 63 -50c20 0 40 3 58 8l-34 -107c-24 -8 -48 -13 -76 -13c-88 0 -140 44 -140 116c0 60 37 115 107 153
c-262 19 -389 213 -326 505l34 153c59 274 224 431 494 431c228 0 376 -123 376 -325c0 -73 -21 -178 -49 -249zM644 956c-171 0 -273 -113 -320 -326l-4 -19h520l15 70c37 174 -52 275 -211 275z" />
    <glyph glyph-name="uni1EBD" unicode="&#x1ebd;" horiz-adv-x="1128" 
d="M584 1290c-45 0 -68 -30 -87 -107h-98c27 144 84 212 185 212c116 0 203 -113 269 -113c42 0 66 30 83 107h98c-26 -143 -84 -212 -179 -212c-119 0 -206 113 -271 113zM651 1070c228 0 376 -123 376 -325c0 -73 -21 -178 -49 -249h-685l-11 -48
c-50 -229 39 -354 216 -354c140 0 238 77 290 234l156 -45c-70 -193 -228 -303 -454 -303c-290 0 -433 199 -367 506l34 153c59 274 224 431 494 431zM840 611l15 70c37 174 -52 275 -211 275c-171 0 -273 -113 -320 -326l-4 -19h520z" />
    <glyph glyph-name="g.accents" horiz-adv-x="1101" 
d="M1122 1083l-79 -8c-72 -6 -104 -24 -118 -70c74 -48 116 -121 116 -213c0 -242 -180 -393 -467 -393c-73 0 -137 11 -190 31c-88 -10 -143 -39 -143 -89s52 -76 202 -103l166 -29c146 -26 289 -83 289 -243c0 -221 -183 -336 -514 -336c-279 0 -436 85 -436 248
c0 131 93 220 254 243l4 30c-70 33 -112 81 -112 143c0 91 72 145 199 152l4 30c-62 49 -97 117 -97 202c0 241 180 391 467 391c82 0 154 -14 211 -39c5 120 73 185 225 195zM587 503c175 0 287 109 287 281c0 112 -87 181 -223 181c-173 0 -283 -107 -283 -279
c0 -112 86 -183 219 -183zM523 84l-166 26l-38 6c-147 -32 -222 -98 -222 -203c0 -109 105 -171 310 -171c221 0 343 71 343 198c0 85 -78 121 -227 144z" />
    <glyph glyph-name="gbreve" unicode="&#x11f;" horiz-adv-x="1101" 
d="M638 1137c-153 0 -223 86 -200 249h110c-12 -100 19 -149 99 -149c79 0 126 46 149 149h117c-36 -169 -125 -249 -275 -249zM1122 1083l-79 -8c-72 -6 -104 -24 -118 -70c74 -48 116 -121 116 -213c0 -242 -180 -393 -467 -393c-73 0 -137 11 -190 31
c-88 -10 -143 -39 -143 -89s52 -76 202 -103l166 -29c146 -26 289 -83 289 -243c0 -221 -183 -336 -514 -336c-279 0 -436 85 -436 248c0 131 93 220 254 243l4 30c-70 33 -112 81 -112 143c0 91 72 145 199 152l4 30c-62 49 -97 117 -97 202c0 241 180 391 467 391
c82 0 154 -14 211 -39c5 120 73 185 225 195zM587 503c175 0 287 109 287 281c0 112 -87 181 -223 181c-173 0 -283 -107 -283 -279c0 -112 86 -183 219 -183zM523 84l-166 26l-38 6c-147 -32 -222 -98 -222 -203c0 -109 105 -171 310 -171c221 0 343 71 343 198
c0 85 -78 121 -227 144z" />
    <glyph glyph-name="gcaron" unicode="&#x1e7;" horiz-adv-x="1101" 
d="M956 1386l-234 -241h-154l-143 241h123l110 -143l162 143h136zM1122 1083l-79 -8c-72 -6 -104 -24 -118 -70c74 -48 116 -121 116 -213c0 -242 -180 -393 -467 -393c-73 0 -137 11 -190 31c-88 -10 -143 -39 -143 -89s52 -76 202 -103l166 -29c146 -26 289 -83 289 -243
c0 -221 -183 -336 -514 -336c-279 0 -436 85 -436 248c0 131 93 220 254 243l4 30c-70 33 -112 81 -112 143c0 91 72 145 199 152l4 30c-62 49 -97 117 -97 202c0 241 180 391 467 391c82 0 154 -14 211 -39c5 120 73 185 225 195zM587 503c175 0 287 109 287 281
c0 112 -87 181 -223 181c-173 0 -283 -107 -283 -279c0 -112 86 -183 219 -183zM523 84l-166 26l-38 6c-147 -32 -222 -98 -222 -203c0 -109 105 -171 310 -171c221 0 343 71 343 198c0 85 -78 121 -227 144z" />
    <glyph glyph-name="uni0123" unicode="&#x123;" horiz-adv-x="1101" 
d="M691 1282h87l-29 -137h-180l24 111c26 116 76 164 197 173l8 -58c-68 -4 -94 -28 -107 -89zM1122 1083l-79 -8c-72 -6 -104 -24 -118 -70c74 -48 116 -121 116 -213c0 -242 -180 -393 -467 -393c-73 0 -137 11 -190 31c-88 -10 -143 -39 -143 -89s52 -76 202 -103
l166 -29c146 -26 289 -83 289 -243c0 -221 -183 -336 -514 -336c-279 0 -436 85 -436 248c0 131 93 220 254 243l4 30c-70 33 -112 81 -112 143c0 91 72 145 199 152l4 30c-62 49 -97 117 -97 202c0 241 180 391 467 391c82 0 154 -14 211 -39c5 120 73 185 225 195z
M587 503c175 0 287 109 287 281c0 112 -87 181 -223 181c-173 0 -283 -107 -283 -279c0 -112 86 -183 219 -183zM523 84l-166 26l-38 6c-147 -32 -222 -98 -222 -203c0 -109 105 -171 310 -171c221 0 343 71 343 198c0 85 -78 121 -227 144z" />
    <glyph glyph-name="gdotaccent" unicode="&#x121;" horiz-adv-x="1101" 
d="M618 1369h184l-38 -173h-184zM1122 1083l-79 -8c-72 -6 -104 -24 -118 -70c74 -48 116 -121 116 -213c0 -242 -180 -393 -467 -393c-73 0 -137 11 -190 31c-88 -10 -143 -39 -143 -89s52 -76 202 -103l166 -29c146 -26 289 -83 289 -243c0 -221 -183 -336 -514 -336
c-279 0 -436 85 -436 248c0 131 93 220 254 243l4 30c-70 33 -112 81 -112 143c0 91 72 145 199 152l4 30c-62 49 -97 117 -97 202c0 241 180 391 467 391c82 0 154 -14 211 -39c5 120 73 185 225 195zM587 503c175 0 287 109 287 281c0 112 -87 181 -223 181
c-173 0 -283 -107 -283 -279c0 -112 86 -183 219 -183zM523 84l-166 26l-38 6c-147 -32 -222 -98 -222 -203c0 -109 105 -171 310 -171c221 0 343 71 343 198c0 85 -78 121 -227 144z" />
    <glyph glyph-name="hbar" unicode="&#x127;" horiz-adv-x="1154" 
d="M798 1067c192 0 282 -108 240 -304l-164 -763h-169l163 748c28 127 -23 201 -143 201c-178 0 -337 -183 -392 -453l-102 -496h-169l258 1182h-141l22 104h141l25 114h169l-25 -114h300l-22 -104h-301l-23 -107c-18 -87 -53 -174 -115 -286l29 -15
c128 207 244 293 419 293z" />
    <glyph glyph-name="dotlessi" unicode="&#x131;" horiz-adv-x="527" 
d="M234 0h-170l230 1050h169z" />
    <glyph glyph-name="iacute" unicode="&#xed;" horiz-adv-x="527" 
d="M465 1144h-135l124 256h167zM234 0h-170l230 1050h169z" />
    <glyph glyph-name="icircumflex" unicode="&#xee;" horiz-adv-x="527" 
d="M332 1144h-114l156 256h143l60 -256h-108l-39 148zM234 0h-170l230 1050h169z" />
    <glyph glyph-name="idieresis" unicode="&#xef;" horiz-adv-x="527" 
d="M378 1195h-149l39 178h149zM591 1195h-149l38 178h150zM234 0h-170l230 1050h169z" />
    <glyph glyph-name="i.loclTRK" horiz-adv-x="527" 
d="M506 1198h-193l38 173h193zM234 0h-170l230 1050h169z" />
    <glyph glyph-name="igrave" unicode="&#xec;" horiz-adv-x="527" 
d="M456 1144h-125l-54 256h160zM234 0h-170l230 1050h169z" />
    <glyph glyph-name="imacron" unicode="&#x12b;" horiz-adv-x="527" 
d="M571 1198h-321l23 105h321zM234 0h-170l230 1050h169z" />
    <glyph glyph-name="iogonek" unicode="&#x12f;" horiz-adv-x="527" 
d="M317 1225l37 175h196l-38 -175h-195zM83 0h-19l230 1050h169l-229 -1050h-1c-108 -32 -166 -77 -166 -126c0 -32 24 -50 63 -50c20 0 40 3 58 8l-34 -107c-24 -8 -48 -13 -76 -13c-88 0 -140 44 -140 116c0 70 52 134 145 172z" />
    <glyph glyph-name="itilde" unicode="&#x129;" horiz-adv-x="527" 
d="M489 1167c-55 0 -104 56 -134 56c-21 0 -32 -18 -36 -53h-83c13 110 48 164 110 164c51 0 105 -57 135 -57c20 0 31 18 35 54h83c-15 -111 -49 -164 -110 -164zM234 0h-170l230 1050h169z" />
    <glyph glyph-name="uni0237" unicode="&#x237;" horiz-adv-x="526" 
d="M-204 -370l-21 147l99 8c102 7 151 39 174 142l245 1123h169l-220 -1007c-67 -291 -210 -389 -446 -413z" />
    <glyph glyph-name="uni006A0301" horiz-adv-x="526" 
d="M464 1144h-135l124 256h167zM-204 -370l-21 147l99 8c102 7 151 39 174 142l245 1123h169l-220 -1007c-67 -291 -210 -389 -446 -413z" />
    <glyph glyph-name="uni0137" unicode="&#x137;" horiz-adv-x="994" 
d="M234 0h-170l306 1400h169l-106 -487c-26 -118 -58 -214 -106 -314l23 -14l485 465h193l-399 -364l172 -686h-171l-131 590l-171 -152zM280 -372l-8 58c71 4 97 29 111 92h-90l29 136h184l-24 -111c-26 -119 -76 -167 -202 -175z" />
    <glyph glyph-name="lacute" unicode="&#x13a;" horiz-adv-x="529" 
d="M536 1497h-137l146 204h186zM234 0h-170l306 1400h169z" />
    <glyph glyph-name="lcaron" unicode="&#x13e;" horiz-adv-x="529" 
d="M234 0h-170l306 1400h169zM695 1097h-99l79 303h139z" />
    <glyph glyph-name="uni013C" unicode="&#x13c;" horiz-adv-x="529" 
d="M234 0h-170l306 1400h169zM-4 -372l-8 58c71 4 97 29 111 92h-90l29 136h184l-24 -111c-26 -119 -76 -167 -202 -175z" />
    <glyph glyph-name="ldot" unicode="&#x140;" horiz-adv-x="874" 
d="M234 0h-170l306 1400h169zM527 649l45 202h216l-44 -202h-217z" />
    <glyph glyph-name="lslash" unicode="&#x142;" horiz-adv-x="779" 
d="M550 873l205 66l-30 -139l-205 -66l-160 -734h-169l147 675l-200 -64l30 139l200 65l128 585h169z" />
    <glyph glyph-name="nacute" unicode="&#x144;" horiz-adv-x="1156" 
d="M773 1149h-126l155 251h176zM234 0h-170l230 1050h171c-12 -62 -43 -134 -112 -261l29 -15c128 207 244 293 419 293c191 0 281 -108 239 -304l-164 -763h-169l164 748c27 127 -22 201 -142 201c-178 0 -338 -183 -393 -453z" />
    <glyph glyph-name="ncaron" unicode="&#x148;" horiz-adv-x="1156" 
d="M910 1400h142l-255 -252h-159l-154 252h132l114 -147zM234 0h-170l230 1050h171c-12 -62 -43 -134 -112 -261l29 -15c128 207 244 293 419 293c191 0 281 -108 239 -304l-164 -763h-169l164 748c27 127 -22 201 -142 201c-178 0 -338 -183 -393 -453z" />
    <glyph glyph-name="uni0146" unicode="&#x146;" horiz-adv-x="1156" 
d="M234 0h-170l230 1050h171c-12 -62 -43 -134 -112 -261l29 -15c128 207 244 293 419 293c191 0 281 -108 239 -304l-164 -763h-169l164 748c27 127 -22 201 -142 201c-178 0 -338 -183 -393 -453zM326 -372l-8 58c71 4 97 29 111 92h-90l29 136h184l-24 -111
c-26 -119 -76 -167 -202 -175z" />
    <glyph glyph-name="eng" unicode="&#x14b;" horiz-adv-x="1156" 
d="M801 1067c191 0 281 -108 239 -304l-164 -763c-57 -244 -196 -340 -464 -370l-20 151l100 6c133 8 177 40 216 213h-1l164 748c27 127 -22 201 -142 201c-178 0 -338 -183 -393 -453l-102 -496h-170l230 1050h171c-12 -62 -43 -134 -112 -261l29 -15
c128 207 244 293 419 293z" />
    <glyph glyph-name="ntilde" unicode="&#xf1;" horiz-adv-x="1156" 
d="M888 1177c-119 0 -206 113 -271 113c-45 0 -68 -30 -87 -107h-98c27 144 84 212 185 212c116 0 203 -113 269 -113c42 0 66 30 83 107h98c-26 -143 -84 -212 -179 -212zM234 0h-170l230 1050h171c-12 -62 -43 -134 -112 -261l29 -15c128 207 244 293 419 293
c191 0 281 -108 239 -304l-164 -763h-169l164 748c27 127 -22 201 -142 201c-178 0 -338 -183 -393 -453z" />
    <glyph glyph-name="oacute" unicode="&#xf3;" horiz-adv-x="1128" 
d="M743 1149h-126l155 251h176zM499 -20c-296 0 -441 203 -374 516l32 151c57 276 223 423 473 423c295 0 440 -203 373 -516l-32 -151c-57 -276 -222 -423 -472 -423zM505 95c154 0 250 97 297 318l39 176c51 236 -27 366 -215 366c-157 0 -253 -97 -300 -318l-39 -175
c-51 -237 28 -367 218 -367z" />
    <glyph glyph-name="ocircumflex" unicode="&#xf4;" horiz-adv-x="1128" 
d="M546 1148h-143l256 252h158l155 -252h-132l-115 148zM499 -20c-296 0 -441 203 -374 516l32 151c57 276 223 423 473 423c295 0 440 -203 373 -516l-32 -151c-57 -276 -222 -423 -472 -423zM505 95c154 0 250 97 297 318l39 176c51 236 -27 366 -215 366
c-157 0 -253 -97 -300 -318l-39 -175c-51 -237 28 -367 218 -367z" />
    <glyph glyph-name="odieresis" unicode="&#xf6;" horiz-adv-x="1128" 
d="M620 1197h-181l38 174h181zM962 1197h-182l39 174h181zM499 -20c-296 0 -441 203 -374 516l32 151c57 276 223 423 473 423c295 0 440 -203 373 -516l-32 -151c-57 -276 -222 -423 -472 -423zM505 95c154 0 250 97 297 318l39 176c51 236 -27 366 -215 366
c-157 0 -253 -97 -300 -318l-39 -175c-51 -237 28 -367 218 -367z" />
    <glyph glyph-name="ograve" unicode="&#xf2;" horiz-adv-x="1128" 
d="M753 1148h-120l-138 252h171zM499 -20c-296 0 -441 203 -374 516l32 151c57 276 223 423 473 423c295 0 440 -203 373 -516l-32 -151c-57 -276 -222 -423 -472 -423zM505 95c154 0 250 97 297 318l39 176c51 236 -27 366 -215 366c-157 0 -253 -97 -300 -318l-39 -175
c-51 -237 28 -367 218 -367z" />
    <glyph glyph-name="ohungarumlaut" unicode="&#x151;" horiz-adv-x="1128" 
d="M579 1149h-126l155 251h176zM863 1149h-126l155 251h175zM499 -20c-296 0 -441 203 -374 516l32 151c57 276 223 423 473 423c295 0 440 -203 373 -516l-32 -151c-57 -276 -222 -423 -472 -423zM505 95c154 0 250 97 297 318l39 176c51 236 -27 366 -215 366
c-157 0 -253 -97 -300 -318l-39 -175c-51 -237 28 -367 218 -367z" />
    <glyph glyph-name="omacron" unicode="&#x14d;" horiz-adv-x="1128" 
d="M994 1202h-586l24 109h586zM499 -20c-296 0 -441 203 -374 516l32 151c57 276 223 423 473 423c295 0 440 -203 373 -516l-32 -151c-57 -276 -222 -423 -472 -423zM505 95c154 0 250 97 297 318l39 176c51 236 -27 366 -215 366c-157 0 -253 -97 -300 -318l-39 -175
c-51 -237 28 -367 218 -367z" />
    <glyph glyph-name="uni01EB" unicode="&#x1eb;" horiz-adv-x="1128" 
d="M630 1070c295 0 440 -203 373 -516l-32 -151c-48 -232 -172 -372 -358 -412c-91 -31 -139 -72 -139 -117c0 -32 24 -50 63 -50c20 0 40 3 58 8l-34 -107c-24 -8 -48 -13 -76 -13c-88 0 -140 44 -140 116c0 60 38 115 107 154c-264 20 -390 218 -327 514l32 151
c57 276 223 423 473 423zM802 413l39 176c51 236 -27 366 -215 366c-157 0 -253 -97 -300 -318l-39 -175c-51 -237 28 -367 218 -367c154 0 250 97 297 318z" />
    <glyph glyph-name="oslash" unicode="&#xf8;" horiz-adv-x="1132" 
d="M1047 1163l-127 -192c94 -90 127 -237 87 -420l-33 -146c-58 -277 -219 -425 -472 -425c-80 0 -149 14 -206 42l-89 -136h-130l130 198c-90 90 -121 234 -82 414l34 146c58 278 219 426 473 426c76 0 142 -13 198 -38l86 131h131zM322 635l-40 -171
c-23 -106 -20 -191 9 -253l469 715c-35 19 -79 29 -132 29c-162 0 -260 -100 -306 -320zM811 415l40 172c24 110 20 197 -12 259l-473 -718c37 -22 85 -33 142 -33c159 0 257 101 303 320z" />
    <glyph glyph-name="oslashacute" unicode="&#x1ff;" horiz-adv-x="1132" 
d="M759 1400h176l-205 -251h-126zM1047 1163l-127 -192c94 -90 127 -237 87 -420l-33 -146c-58 -277 -219 -425 -472 -425c-80 0 -149 14 -206 42l-89 -136h-130l130 198c-90 90 -121 234 -82 414l34 146c58 278 219 426 473 426c76 0 142 -13 198 -38l86 131h131zM322 635
l-40 -171c-23 -106 -20 -191 9 -253l469 715c-35 19 -79 29 -132 29c-162 0 -260 -100 -306 -320zM811 415l40 172c24 110 20 197 -12 259l-473 -718c37 -22 85 -33 142 -33c159 0 257 101 303 320z" />
    <glyph glyph-name="otilde" unicode="&#xf5;" horiz-adv-x="1128" 
d="M858 1177c-119 0 -206 113 -271 113c-45 0 -68 -30 -87 -107h-98c27 144 84 212 185 212c116 0 203 -113 269 -113c42 0 66 30 83 107h98c-26 -143 -84 -212 -179 -212zM499 -20c-296 0 -441 203 -374 516l32 151c57 276 223 423 473 423c295 0 440 -203 373 -516
l-32 -151c-57 -276 -222 -423 -472 -423zM505 95c154 0 250 97 297 318l39 176c51 236 -27 366 -215 366c-157 0 -253 -97 -300 -318l-39 -175c-51 -237 28 -367 218 -367z" />
    <glyph glyph-name="oe" unicode="&#x153;" horiz-adv-x="1828" 
d="M1678 496h-685l-12 -51c-57 -223 41 -351 217 -351c141 0 238 77 291 234l155 -46c-70 -193 -227 -302 -453 -302c-164 0 -281 70 -333 199c-81 -135 -199 -199 -362 -199c-295 0 -450 203 -370 517l34 149c67 266 210 424 467 424c167 0 290 -70 343 -200
c85 130 214 200 382 200c227 0 375 -123 375 -325c0 -73 -21 -176 -49 -249zM1344 956c-168 0 -267 -118 -321 -330l-3 -15h520l15 70c37 174 -52 275 -211 275zM800 416l40 173c59 232 -25 366 -214 366c-158 0 -243 -104 -298 -321l-40 -172c-59 -233 27 -367 218 -367
c157 0 239 104 294 321z" />
    <glyph glyph-name="thorn" unicode="&#xfe;" horiz-adv-x="1183" 
d="M159 -350h-169l382 1750h169l-64 -293c-20 -96 -53 -174 -111 -290l19 -9c98 173 214 260 385 260c248 0 362 -186 291 -501l-37 -163c-57 -267 -213 -421 -437 -421c-182 0 -290 95 -315 275l-21 -3c1 -126 -7 -213 -28 -309zM554 98c155 0 258 112 304 321l37 165
c55 246 -23 368 -193 368c-162 0 -289 -141 -336 -361l-27 -118c-52 -238 32 -375 215 -375z" />
    <glyph glyph-name="racute" unicode="&#x155;" horiz-adv-x="817" 
d="M624 1149h-126l155 251h176zM234 0h-170l230 1050h170c-11 -59 -39 -124 -113 -261l30 -14c125 216 232 290 446 302l-3 -149l-106 -9c-200 -18 -320 -149 -378 -421z" />
    <glyph glyph-name="rcaron" unicode="&#x159;" horiz-adv-x="817" 
d="M760 1400h142l-255 -252h-159l-154 252h132l114 -147zM234 0h-170l230 1050h170c-11 -59 -39 -124 -113 -261l30 -14c125 216 232 290 446 302l-3 -149l-106 -9c-200 -18 -320 -149 -378 -421z" />
    <glyph glyph-name="uni0157" unicode="&#x157;" horiz-adv-x="817" 
d="M234 0h-170l230 1050h170c-11 -59 -39 -124 -113 -261l30 -14c125 216 232 290 446 302l-3 -149l-106 -9c-200 -18 -320 -149 -378 -421zM-5 -372l-8 58c71 4 97 29 111 92h-90l29 136h184l-24 -111c-26 -119 -76 -167 -202 -175z" />
    <glyph glyph-name="sacute" unicode="&#x15b;" horiz-adv-x="1068" 
d="M709 1149h-126l155 251h176zM487 -19c-269 0 -429 125 -406 347l161 26c-21 -174 73 -263 248 -263c135 0 224 56 228 154c3 88 -55 142 -177 214l-122 72c-121 72 -203 145 -199 267c7 168 138 271 374 271c252 0 394 -116 370 -310l-160 -25c23 148 -58 225 -210 225
c-133 0 -213 -52 -216 -141c-3 -73 37 -118 159 -189l122 -70c122 -71 226 -150 222 -298c-7 -173 -146 -280 -394 -280z" />
    <glyph glyph-name="scaron" unicode="&#x161;" horiz-adv-x="1068" 
d="M845 1400h142l-255 -252h-159l-154 252h132l114 -147zM487 -19c-269 0 -429 125 -406 347l161 26c-21 -174 73 -263 248 -263c135 0 224 56 228 154c3 88 -55 142 -177 214l-122 72c-121 72 -203 145 -199 267c7 168 138 271 374 271c252 0 394 -116 370 -310l-160 -25
c23 148 -58 225 -210 225c-133 0 -213 -52 -216 -141c-3 -73 37 -118 159 -189l122 -70c122 -71 226 -150 222 -298c-7 -173 -146 -280 -394 -280z" />
    <glyph glyph-name="scedilla" unicode="&#x15f;" horiz-adv-x="1068" 
d="M964 759l-160 -25c23 148 -58 225 -210 225c-133 0 -213 -52 -216 -141c-3 -73 37 -118 159 -189l122 -70c122 -71 226 -150 222 -298c-7 -173 -146 -280 -394 -280h-9l-23 -62c114 -15 179 -58 179 -140c0 -89 -72 -142 -191 -142c-67 0 -131 16 -183 45l30 87
c41 -25 93 -40 145 -40c58 0 92 24 92 62c0 50 -73 69 -196 76l42 122c-199 32 -312 150 -292 339l161 26c-21 -174 73 -263 248 -263c135 0 224 56 228 154c3 88 -55 142 -177 214l-122 72c-121 72 -203 145 -199 267c7 168 138 271 374 271c252 0 394 -116 370 -310z" />
    <glyph glyph-name="uni0219" unicode="&#x219;" horiz-adv-x="1068" 
d="M487 -19c-269 0 -429 125 -406 347l161 26c-21 -174 73 -263 248 -263c135 0 224 56 228 154c3 88 -55 142 -177 214l-122 72c-121 72 -203 145 -199 267c7 168 138 271 374 271c252 0 394 -116 370 -310l-160 -25c23 148 -58 225 -210 225c-133 0 -213 -52 -216 -141
c-3 -73 37 -118 159 -189l122 -70c122 -71 226 -150 222 -298c-7 -173 -146 -280 -394 -280zM279 -372l-8 58c71 4 97 29 111 92h-90l29 136h184l-24 -111c-26 -119 -76 -167 -202 -175z" />
    <glyph glyph-name="germandbls" unicode="&#xdf;" horiz-adv-x="1155" 
d="M643 -13c-132 0 -228 59 -274 161l90 94c37 -85 97 -133 188 -133c102 0 160 67 160 155c0 61 -27 103 -90 178l-63 74c-64 75 -105 137 -105 213c0 269 408 256 408 450c0 76 -73 122 -206 122c-165 0 -251 -75 -287 -243l-231 -1058h-169l232 1059
c53 239 197 361 461 361c225 0 353 -81 353 -235c0 -281 -399 -254 -399 -431c0 -48 17 -74 82 -151l64 -76c64 -76 113 -142 113 -241c0 -166 -114 -299 -327 -299z" />
    <glyph glyph-name="tbar" unicode="&#x167;" horiz-adv-x="865" 
d="M875 1050l-26 -119h-328l-60 -274h327l-22 -106h-329l-63 -288c-22 -102 21 -149 122 -149c57 0 113 11 173 38l-32 -125c-59 -30 -126 -45 -204 -45c-182 0 -267 97 -229 271l65 298h-164l23 106h164l60 274h-164l26 119h164l61 274l178 45l-71 -319h329z" />
    <glyph glyph-name="tcaron" unicode="&#x165;" horiz-adv-x="864" 
d="M810 1195h-99l79 303h139zM432 -18c-182 0 -268 97 -230 271l148 678h-164l26 119h164l61 274l178 45l-70 -319h328l-26 -119h-328l-147 -668c-22 -102 21 -149 122 -149c57 0 113 11 173 38l-32 -125c-59 -30 -125 -45 -203 -45z" />
    <glyph glyph-name="uni0163" unicode="&#x163;" horiz-adv-x="864" 
d="M847 931h-328l-147 -668c-22 -102 21 -149 122 -149c57 0 113 11 173 38l-32 -125c-57 -29 -121 -44 -196 -45l-23 -63c114 -15 179 -58 179 -140c0 -89 -72 -142 -191 -142c-67 0 -131 16 -183 45l30 87c41 -25 93 -40 145 -40c58 0 92 24 92 62c0 50 -73 69 -196 76
l43 126c-114 30 -163 121 -133 260l148 678h-164l26 119h164l61 274l178 45l-70 -319h328z" />
    <glyph glyph-name="uni021B" unicode="&#x21b;" horiz-adv-x="864" 
d="M432 -18c-182 0 -268 97 -230 271l148 678h-164l26 119h164l61 274l178 45l-70 -319h328l-26 -119h-328l-147 -668c-22 -102 21 -149 122 -149c57 0 113 11 173 38l-32 -125c-59 -30 -125 -45 -203 -45zM239 -372l-8 58c71 4 97 29 111 92h-90l29 136h184l-24 -111
c-26 -119 -76 -167 -202 -175z" />
    <glyph glyph-name="uacute" unicode="&#xfa;" horiz-adv-x="1157" 
d="M760 1149h-126l155 251h176zM923 1050h169l-229 -1050h-171c12 62 42 134 112 261l-30 15c-127 -207 -243 -293 -418 -293c-192 0 -282 108 -240 304l164 763h169l-163 -748c-28 -127 22 -201 142 -201c178 0 338 183 393 453z" />
    <glyph glyph-name="ubreve" unicode="&#x16d;" horiz-adv-x="1157" 
d="M725 1141c-167 0 -245 91 -225 259h113c-11 -105 26 -159 119 -159c89 0 148 54 171 159h118c-37 -172 -131 -259 -296 -259zM923 1050h169l-229 -1050h-171c12 62 42 134 112 261l-30 15c-127 -207 -243 -293 -418 -293c-192 0 -282 108 -240 304l164 763h169l-163 -748
c-28 -127 22 -201 142 -201c178 0 338 183 393 453z" />
    <glyph glyph-name="ucircumflex" unicode="&#xfb;" horiz-adv-x="1157" 
d="M563 1148h-143l256 252h158l155 -252h-132l-115 148zM923 1050h169l-229 -1050h-171c12 62 42 134 112 261l-30 15c-127 -207 -243 -293 -418 -293c-192 0 -282 108 -240 304l164 763h169l-163 -748c-28 -127 22 -201 142 -201c178 0 338 183 393 453z" />
    <glyph glyph-name="udieresis" unicode="&#xfc;" horiz-adv-x="1157" 
d="M637 1197h-181l38 174h181zM979 1197h-182l39 174h181zM923 1050h169l-229 -1050h-171c12 62 42 134 112 261l-30 15c-127 -207 -243 -293 -418 -293c-192 0 -282 108 -240 304l164 763h169l-163 -748c-28 -127 22 -201 142 -201c178 0 338 183 393 453z" />
    <glyph glyph-name="ugrave" unicode="&#xf9;" horiz-adv-x="1157" 
d="M770 1148h-120l-138 252h171zM923 1050h169l-229 -1050h-171c12 62 42 134 112 261l-30 15c-127 -207 -243 -293 -418 -293c-192 0 -282 108 -240 304l164 763h169l-163 -748c-28 -127 22 -201 142 -201c178 0 338 183 393 453z" />
    <glyph glyph-name="uhungarumlaut" unicode="&#x171;" horiz-adv-x="1157" 
d="M596 1149h-126l155 251h176zM880 1149h-126l155 251h175zM923 1050h169l-229 -1050h-171c12 62 42 134 112 261l-30 15c-127 -207 -243 -293 -418 -293c-192 0 -282 108 -240 304l164 763h169l-163 -748c-28 -127 22 -201 142 -201c178 0 338 183 393 453z" />
    <glyph glyph-name="umacron" unicode="&#x16b;" horiz-adv-x="1157" 
d="M1011 1202h-586l24 109h586zM923 1050h169l-229 -1050h-171c12 62 42 134 112 261l-30 15c-127 -207 -243 -293 -418 -293c-192 0 -282 108 -240 304l164 763h169l-163 -748c-28 -127 22 -201 142 -201c178 0 338 183 393 453z" />
    <glyph glyph-name="uogonek" unicode="&#x173;" horiz-adv-x="1157" 
d="M863 0h4c-108 -32 -166 -77 -166 -126c0 -32 24 -50 63 -50c20 0 40 3 58 8l-34 -107c-24 -8 -48 -13 -76 -13c-88 0 -140 44 -140 116c0 70 52 134 145 172h-25c12 62 42 134 112 261l-30 15c-127 -207 -243 -293 -418 -293c-192 0 -282 108 -240 304l164 763h169
l-163 -748c-28 -127 22 -201 142 -201c178 0 338 183 393 453l102 496h169z" />
    <glyph glyph-name="uring" unicode="&#x16f;" horiz-adv-x="1157" 
d="M744 1131c-116 0 -198 78 -198 191c0 112 82 191 198 191s198 -79 198 -191c0 -113 -82 -191 -198 -191zM744 1224c57 0 98 40 98 98c0 57 -41 98 -98 98s-98 -41 -98 -98c0 -58 41 -98 98 -98zM923 1050h169l-229 -1050h-171c12 62 42 134 112 261l-30 15
c-127 -207 -243 -293 -418 -293c-192 0 -282 108 -240 304l164 763h169l-163 -748c-28 -127 22 -201 142 -201c178 0 338 183 393 453z" />
    <glyph glyph-name="utilde" unicode="&#x169;" horiz-adv-x="1157" 
d="M875 1177c-119 0 -206 113 -271 113c-45 0 -68 -30 -87 -107h-98c27 144 84 212 185 212c116 0 203 -113 269 -113c42 0 66 30 83 107h98c-26 -143 -84 -212 -179 -212zM923 1050h169l-229 -1050h-171c12 62 42 134 112 261l-30 15c-127 -207 -243 -293 -418 -293
c-192 0 -282 108 -240 304l164 763h169l-163 -748c-28 -127 22 -201 142 -201c178 0 338 183 393 453z" />
    <glyph glyph-name="wacute" unicode="&#x1e83;" horiz-adv-x="1576" 
d="M967 1149h-126l155 251h176zM445 0h-186l-69 1050h164l25 -568c4 -94 2 -229 -5 -325l33 -3c42 116 95 249 134 328l274 568h169l28 -567c5 -87 2 -226 -6 -325l33 -4c35 106 89 240 129 321l278 575h164l-525 -1050h-189l-23 536c-4 102 0 250 10 356l-33 3
c-34 -99 -95 -248 -147 -357z" />
    <glyph glyph-name="wcircumflex" unicode="&#x175;" horiz-adv-x="1576" 
d="M771 1148h-143l256 252h158l155 -252h-132l-115 148zM445 0h-186l-69 1050h164l25 -568c4 -94 2 -229 -5 -325l33 -3c42 116 95 249 134 328l274 568h169l28 -567c5 -87 2 -226 -6 -325l33 -4c35 106 89 240 129 321l278 575h164l-525 -1050h-189l-23 536
c-4 102 0 250 10 356l-33 3c-34 -99 -95 -248 -147 -357z" />
    <glyph glyph-name="wdieresis" unicode="&#x1e85;" horiz-adv-x="1576" 
d="M844 1197h-181l38 174h181zM1186 1197h-182l39 174h181zM445 0h-186l-69 1050h164l25 -568c4 -94 2 -229 -5 -325l33 -3c42 116 95 249 134 328l274 568h169l28 -567c5 -87 2 -226 -6 -325l33 -4c35 106 89 240 129 321l278 575h164l-525 -1050h-189l-23 536
c-4 102 0 250 10 356l-33 3c-34 -99 -95 -248 -147 -357z" />
    <glyph glyph-name="wgrave" unicode="&#x1e81;" horiz-adv-x="1576" 
d="M977 1148h-120l-138 252h171zM445 0h-186l-69 1050h164l25 -568c4 -94 2 -229 -5 -325l33 -3c42 116 95 249 134 328l274 568h169l28 -567c5 -87 2 -226 -6 -325l33 -4c35 106 89 240 129 321l278 575h164l-525 -1050h-189l-23 536c-4 102 0 250 10 356l-33 3
c-34 -99 -95 -248 -147 -357z" />
    <glyph glyph-name="yacute" unicode="&#xfd;" horiz-adv-x="1050" 
d="M703 1149h-126l155 251h176zM-44 -370l-16 149l127 10c125 10 164 39 205 122l41 81l-121 1058h170l50 -562c9 -111 16 -212 11 -349l32 -3c54 140 104 241 161 352l289 562h179l-540 -998c-164 -300 -290 -392 -588 -422z" />
    <glyph glyph-name="ycircumflex" unicode="&#x177;" horiz-adv-x="1050" 
d="M506 1148h-143l256 252h158l155 -252h-132l-115 148zM-44 -370l-16 149l127 10c125 10 164 39 205 122l41 81l-121 1058h170l50 -562c9 -111 16 -212 11 -349l32 -3c54 140 104 241 161 352l289 562h179l-540 -998c-164 -300 -290 -392 -588 -422z" />
    <glyph glyph-name="ydieresis" unicode="&#xff;" horiz-adv-x="1050" 
d="M580 1197h-181l38 174h181zM922 1197h-182l39 174h181zM-44 -370l-16 149l127 10c125 10 164 39 205 122l41 81l-121 1058h170l50 -562c9 -111 16 -212 11 -349l32 -3c54 140 104 241 161 352l289 562h179l-540 -998c-164 -300 -290 -392 -588 -422z" />
    <glyph glyph-name="ygrave" unicode="&#x1ef3;" horiz-adv-x="1050" 
d="M713 1148h-120l-138 252h171zM-44 -370l-16 149l127 10c125 10 164 39 205 122l41 81l-121 1058h170l50 -562c9 -111 16 -212 11 -349l32 -3c54 140 104 241 161 352l289 562h179l-540 -998c-164 -300 -290 -392 -588 -422z" />
    <glyph glyph-name="uni1EF9" unicode="&#x1ef9;" horiz-adv-x="1050" 
d="M818 1177c-119 0 -206 113 -271 113c-45 0 -68 -30 -87 -107h-98c27 144 84 212 185 212c116 0 203 -113 269 -113c42 0 66 30 83 107h98c-26 -143 -84 -212 -179 -212zM-44 -370l-16 149l127 10c125 10 164 39 205 122l41 81l-121 1058h170l50 -562
c9 -111 16 -212 11 -349l32 -3c54 140 104 241 161 352l289 562h179l-540 -998c-164 -300 -290 -392 -588 -422z" />
    <glyph glyph-name="zacute" unicode="&#x17a;" horiz-adv-x="991" 
d="M679 1149h-126l155 251h176zM773 0h-774l17 103l580 650c31 34 82 85 159 142l-7 32c-32 -1 -55 -2 -87 -2h-446l26 125h738l-18 -103l-580 -648c-30 -34 -86 -88 -159 -144l7 -32c32 1 59 2 91 2h479z" />
    <glyph glyph-name="zcaron" unicode="&#x17e;" horiz-adv-x="991" 
d="M816 1400h142l-255 -252h-159l-154 252h132l114 -147zM773 0h-774l17 103l580 650c31 34 82 85 159 142l-7 32c-32 -1 -55 -2 -87 -2h-446l26 125h738l-18 -103l-580 -648c-30 -34 -86 -88 -159 -144l7 -32c32 1 59 2 91 2h479z" />
    <glyph glyph-name="zdotaccent" unicode="&#x17c;" horiz-adv-x="991" 
d="M732 1198h-193l38 173h193zM773 0h-774l17 103l580 650c31 34 82 85 159 142l-7 32c-32 -1 -55 -2 -87 -2h-446l26 125h738l-18 -103l-580 -648c-30 -34 -86 -88 -159 -144l7 -32c32 1 59 2 91 2h479z" />
    <glyph glyph-name="g.ss02" horiz-adv-x="1184" 
d="M415 -370c-247 0 -395 106 -409 274l169 39c10 -121 97 -198 248 -198c158 0 249 75 295 234l10 36c17 54 52 140 96 224l-31 12c-97 -173 -207 -241 -376 -241c-247 0 -358 175 -289 493l33 149c58 267 212 415 444 415c170 0 282 -92 299 -276l34 3
c-1 125 3 203 12 256h169l-227 -1045c-55 -252 -210 -375 -477 -375zM485 126c163 0 289 126 338 353l24 102c51 236 -33 371 -216 371c-155 0 -259 -109 -303 -315l-34 -152c-54 -250 21 -359 191 -359z" />
    <glyph glyph-name="gbreve.ss02" horiz-adv-x="1184" 
d="M727 1141c-167 0 -245 91 -225 259h113c-11 -105 26 -159 119 -159c89 0 148 54 171 159h118c-37 -172 -131 -259 -296 -259zM415 -370c-247 0 -395 106 -409 274l169 39c10 -121 97 -198 248 -198c158 0 249 75 295 234l10 36c17 54 52 140 96 224l-31 12
c-97 -173 -207 -241 -376 -241c-247 0 -358 175 -289 493l33 149c58 267 212 415 444 415c170 0 282 -92 299 -276l34 3c-1 125 3 203 12 256h169l-227 -1045c-55 -252 -210 -375 -477 -375zM485 126c163 0 289 126 338 353l24 102c51 236 -33 371 -216 371
c-155 0 -259 -109 -303 -315l-34 -152c-54 -250 21 -359 191 -359z" />
    <glyph glyph-name="gcaron.ss02" horiz-adv-x="1184" 
d="M898 1399h142l-255 -252h-159l-154 252h132l114 -147zM415 -370c-247 0 -395 106 -409 274l169 39c10 -121 97 -198 248 -198c158 0 249 75 295 234l10 36c17 54 52 140 96 224l-31 12c-97 -173 -207 -241 -376 -241c-247 0 -358 175 -289 493l33 149
c58 267 212 415 444 415c170 0 282 -92 299 -276l34 3c-1 125 3 203 12 256h169l-227 -1045c-55 -252 -210 -375 -477 -375zM485 126c163 0 289 126 338 353l24 102c51 236 -33 371 -216 371c-155 0 -259 -109 -303 -315l-34 -152c-54 -250 21 -359 191 -359z" />
    <glyph glyph-name="uni0123.ss02" horiz-adv-x="1184" 
d="M839 1421l8 -58c-71 -4 -97 -29 -111 -92h90l-29 -136h-184l24 111c26 119 76 167 202 175zM415 -370c-247 0 -395 106 -409 274l169 39c10 -121 97 -198 248 -198c158 0 249 75 295 234l10 36c17 54 52 140 96 224l-31 12c-97 -173 -207 -241 -376 -241
c-247 0 -358 175 -289 493l33 149c58 267 212 415 444 415c170 0 282 -92 299 -276l34 3c-1 125 3 203 12 256h169l-227 -1045c-55 -252 -210 -375 -477 -375zM485 126c163 0 289 126 338 353l24 102c51 236 -33 371 -216 371c-155 0 -259 -109 -303 -315l-34 -152
c-54 -250 21 -359 191 -359z" />
    <glyph glyph-name="gdotaccent.ss02" horiz-adv-x="1184" 
d="M815 1197h-193l38 173h193zM415 -370c-247 0 -395 106 -409 274l169 39c10 -121 97 -198 248 -198c158 0 249 75 295 234l10 36c17 54 52 140 96 224l-31 12c-97 -173 -207 -241 -376 -241c-247 0 -358 175 -289 493l33 149c58 267 212 415 444 415
c170 0 282 -92 299 -276l34 3c-1 125 3 203 12 256h169l-227 -1045c-55 -252 -210 -375 -477 -375zM485 126c163 0 289 126 338 353l24 102c51 236 -33 371 -216 371c-155 0 -259 -109 -303 -315l-34 -152c-54 -250 21 -359 191 -359z" />
    <glyph glyph-name="f.calt" horiz-adv-x="773" 
d="M314 0h-169l204 931h-163l26 119h163l19 83c41 178 166 278 512 287l-9 -139l-140 -7c-142 -8 -178 -38 -200 -138l-18 -86h231l-25 -119h-227z" />
    <glyph glyph-name="t.calt" horiz-adv-x="796" 
d="M432 -18c-182 0 -268 97 -230 271l148 678h-164l26 119h164l61 274l178 45l-70 -319h252l-26 -119h-252l-147 -668c-22 -102 21 -149 122 -149c57 0 113 11 173 38l-32 -125c-59 -30 -125 -45 -203 -45z" />
    <glyph glyph-name="tbar.calt" horiz-adv-x="797" 
d="M799 1050l-26 -119h-252l-61 -275h295l-24 -107h-294l-63 -286c-22 -102 21 -149 122 -149c57 0 113 11 173 38l-32 -125c-59 -30 -126 -45 -204 -45c-182 0 -267 97 -229 271l65 296h-164l23 107h164l60 275h-164l26 119h164l61 274l178 45l-71 -319h253z" />
    <glyph glyph-name="tcaron.calt" horiz-adv-x="796" 
d="M810 1195h-99l79 303h139zM432 -18c-182 0 -268 97 -230 271l148 678h-164l26 119h164l61 274l178 45l-70 -319h252l-26 -119h-252l-147 -668c-22 -102 21 -149 122 -149c57 0 113 11 173 38l-32 -125c-59 -30 -125 -45 -203 -45z" />
    <glyph glyph-name="uni0163.calt" horiz-adv-x="796" 
d="M771 931h-252l-147 -668c-22 -102 21 -149 122 -149c57 0 113 11 173 38l-32 -125c-58 -29 -122 -44 -197 -45l-23 -63c114 -15 179 -58 179 -140c0 -89 -72 -142 -191 -142c-67 0 -131 16 -183 45l30 87c41 -25 93 -40 145 -40c58 0 92 24 92 62c0 50 -73 69 -196 76
l43 127c-113 30 -162 120 -132 259l148 678h-164l26 119h164l61 274l178 45l-70 -319h252z" />
    <glyph glyph-name="uni021B.calt" horiz-adv-x="796" 
d="M432 -18c-182 0 -268 97 -230 271l148 678h-164l26 119h164l61 274l178 45l-70 -319h252l-26 -119h-252l-147 -668c-22 -102 21 -149 122 -149c57 0 113 11 173 38l-32 -125c-59 -30 -125 -45 -203 -45zM239 -372l-8 58c71 4 97 29 111 92h-90l29 136h184l-24 -111
c-26 -119 -76 -167 -202 -175z" />
    <glyph glyph-name="zero.slashed" horiz-adv-x="1277" 
d="M770 1420c343 0 493 -257 402 -676l-46 -205c-76 -353 -241 -559 -547 -559c-342 0 -490 256 -400 674l45 206c76 354 241 560 546 560zM765 1288c-204 0 -304 -144 -368 -435l-53 -231l683 276c32 261 -61 390 -262 390zM585 112c205 0 304 144 368 434l51 224
l-681 -275c-29 -256 63 -382 262 -383z" />
    <glyph glyph-name="zero" unicode="0" horiz-adv-x="1277" 
d="M579 -20c-342 0 -490 256 -400 674l45 206c76 354 241 560 546 560c343 0 493 -257 402 -676l-46 -205c-76 -353 -241 -559 -547 -559zM585 112c205 0 304 144 368 434l54 237c75 339 -14 505 -242 505c-204 0 -304 -144 -368 -435l-54 -237c-73 -338 14 -503 242 -504z
" />
    <glyph glyph-name="one" unicode="1" horiz-adv-x="796" 
d="M480 0h-172l224 1024h-318l23 109c322 7 342 17 417 267h132z" />
    <glyph glyph-name="two" unicode="2" horiz-adv-x="1141" 
d="M899 0h-857v104c690 532 891 758 891 985c-1 134 -70 199 -214 199c-174 0 -263 -104 -289 -300l-170 40c40 249 193 392 470 392c239 0 376 -116 376 -317c0 -271 -202 -492 -813 -949l5 -25c50 2 99 3 151 3h479z" />
    <glyph glyph-name="three" unicode="3" horiz-adv-x="1220" 
d="M569 -20c-290 0 -454 168 -437 411l174 34c-16 -192 83 -314 273 -314c165 0 286 128 286 330c0 150 -66 218 -199 221l-144 3l19 105l148 6c179 8 292 109 292 302c0 138 -85 211 -238 211c-165 0 -272 -91 -305 -251l-163 39c49 213 223 343 479 343
c249 0 393 -117 393 -326c0 -203 -110 -339 -292 -370l-2 -30c119 -32 184 -122 184 -263c0 -269 -194 -451 -468 -451z" />
    <glyph glyph-name="four" unicode="4" horiz-adv-x="1152" 
d="M766 0h-173l73 332h-597v103l760 965h243l-206 -942h162l-26 -126h-163zM676 1001l-428 -543h445l116 501c26 110 62 238 92 321l-35 10c-55 -97 -131 -211 -190 -289z" />
    <glyph glyph-name="five" unicode="5" horiz-adv-x="1209" 
d="M545 -20c-250 0 -409 112 -432 297l174 42c16 -134 112 -212 263 -212c203 0 333 160 333 408c0 155 -89 251 -241 251c-134 0 -241 -63 -304 -149l-135 39l198 744h809l-28 -132h-649l-128 -474c76 59 175 96 291 96c227 0 362 -139 362 -360
c0 -332 -204 -550 -513 -550z" />
    <glyph glyph-name="six" unicode="6" horiz-adv-x="1213" 
d="M771 1420c230 0 373 -111 400 -310l-167 -39c-19 149 -107 220 -243 220c-196 0 -322 -173 -409 -571c70 93 186 143 324 143c226 0 368 -130 368 -336c0 -335 -188 -547 -491 -547c-324 0 -472 211 -390 603l36 169c96 449 270 668 572 668zM633 740
c-199 0 -324 -155 -324 -395c0 -149 93 -236 247 -236c195 0 319 157 319 404c0 144 -92 227 -242 227z" />
    <glyph glyph-name="seven" unicode="7" horiz-adv-x="1053" 
d="M481 0h-174c135 584 334 986 611 1268h-656l28 132h845l-22 -103c-292 -276 -492 -682 -632 -1297z" />
    <glyph glyph-name="eight" unicode="8" horiz-adv-x="1256" 
d="M554 -20c-277 0 -435 124 -435 343c0 215 134 377 341 407l4 30c-106 36 -166 122 -166 255c0 241 191 405 480 405c259 0 407 -116 407 -319c0 -190 -118 -336 -299 -364l-4 -30c123 -31 192 -123 192 -276c0 -268 -208 -451 -520 -451zM702 791c195 0 315 112 315 298
c0 131 -94 206 -247 206c-193 0 -311 -113 -311 -301c0 -128 92 -203 243 -203zM563 105c212 0 341 128 341 341c0 140 -98 224 -261 224c-217 0 -350 -128 -350 -339c0 -142 102 -226 270 -226z" />
    <glyph glyph-name="nine" unicode="9" horiz-adv-x="1213" 
d="M517 -20c-230 0 -374 111 -400 310l167 39c18 -149 106 -220 243 -220c195 0 322 173 408 571c-69 -93 -186 -143 -324 -143c-225 0 -367 130 -367 336c0 335 187 547 491 547c323 0 472 -211 389 -603l-36 -169c-95 -449 -270 -668 -571 -668zM655 660
c198 0 324 155 324 395c0 149 -94 236 -247 236c-195 0 -319 -157 -319 -404c0 -144 92 -227 242 -227z" />
    <glyph glyph-name="zero.tf.slashed" horiz-adv-x="1281" 
d="M772 1420c336 0 480 -251 389 -676l-46 -205c-71 -357 -235 -559 -533 -559c-336 0 -479 250 -387 674l46 206c70 357 234 560 531 560zM767 1291c-197 0 -294 -142 -353 -438l-52 -227l653 268c34 269 -52 397 -248 397zM587 109c199 0 296 142 355 437l50 221
l-652 -268c-33 -264 55 -389 247 -390z" />
    <glyph glyph-name="zero.tf" horiz-adv-x="1281" 
d="M582 -20c-336 0 -479 250 -387 674l46 206c70 357 234 560 531 560c336 0 480 -251 389 -676l-46 -205c-71 -357 -235 -559 -533 -559zM587 109c199 0 296 142 355 437l54 237c74 345 -8 508 -229 508c-197 0 -294 -142 -353 -438l-54 -237c-75 -344 8 -506 227 -507z
" />
    <glyph glyph-name="one.tf" horiz-adv-x="1281" 
d="M1016 0h-975l29 132h436l190 894h-420l23 108c423 6 443 17 517 266h132l-269 -1268h365z" />
    <glyph glyph-name="two.tf" horiz-adv-x="1281" 
d="M968 0h-857v104c690 532 891 758 890 985c0 134 -69 199 -213 199c-174 0 -263 -104 -289 -300l-170 40c40 249 193 392 470 392c239 0 376 -116 376 -317c0 -271 -202 -492 -813 -949l5 -25c50 2 99 3 150 3h480z" />
    <glyph glyph-name="three.tf" horiz-adv-x="1281" 
d="M600 -20c-290 0 -454 168 -437 411l174 34c-16 -192 82 -314 272 -314c165 0 287 128 287 330c0 150 -67 218 -199 221l-145 3l20 105l147 6c180 8 292 109 292 302c0 138 -85 211 -237 211c-165 0 -272 -91 -305 -251l-163 39c49 213 223 343 478 343
c250 0 393 -117 393 -326c0 -203 -109 -339 -291 -370l-2 -30c119 -32 184 -122 184 -263c0 -269 -195 -451 -468 -451z" />
    <glyph glyph-name="four.tf" horiz-adv-x="1281" 
d="M841 0h-172l73 332h-597v103l760 965h242l-206 -942h163l-27 -126h-163zM751 1001l-427 -543h445l116 501c26 110 62 238 92 321l-35 10c-56 -97 -131 -211 -191 -289z" />
    <glyph glyph-name="five.tf" horiz-adv-x="1281" 
d="M567 -20c-250 0 -409 112 -432 297l174 42c16 -134 112 -212 263 -212c203 0 333 160 333 408c0 155 -89 251 -240 251c-135 0 -242 -63 -305 -149l-135 39l198 744h809l-28 -132h-649l-128 -474c76 59 175 96 291 96c227 0 362 -139 362 -360
c0 -332 -204 -550 -513 -550z" />
    <glyph glyph-name="six.tf" horiz-adv-x="1281" 
d="M801 1420c230 0 374 -111 400 -310l-167 -39c-19 149 -107 220 -243 220c-195 0 -322 -173 -409 -571c70 93 186 143 324 143c226 0 368 -130 368 -336c0 -335 -188 -547 -491 -547c-323 0 -472 211 -389 603l36 169c95 449 270 668 571 668zM663 740
c-198 0 -324 -155 -324 -395c0 -149 93 -236 247 -236c195 0 319 157 319 404c0 144 -92 227 -242 227z" />
    <glyph glyph-name="seven.tf" horiz-adv-x="1281" 
d="M596 0h-174c134 584 333 986 611 1268h-657l29 132h844l-22 -103c-291 -276 -491 -682 -631 -1297z" />
    <glyph glyph-name="eight.tf" horiz-adv-x="1281" 
d="M567 -20c-277 0 -435 124 -435 343c0 215 134 377 341 407l4 30c-106 36 -166 122 -166 255c0 241 191 405 480 405c259 0 407 -116 407 -319c0 -190 -118 -336 -299 -364l-5 -30c124 -31 193 -123 193 -276c0 -268 -208 -451 -520 -451zM714 791c196 0 315 112 315 298
c0 131 -93 206 -246 206c-194 0 -312 -113 -312 -301c0 -128 92 -203 243 -203zM576 105c212 0 341 128 341 341c0 140 -99 224 -262 224c-216 0 -349 -128 -349 -339c0 -142 102 -226 270 -226z" />
    <glyph glyph-name="nine.tf" horiz-adv-x="1281" 
d="M551 -20c-230 0 -374 111 -400 310l167 39c19 -149 107 -220 243 -220c195 0 322 173 408 571c-69 -93 -186 -143 -323 -143c-226 0 -368 130 -368 336c0 335 187 547 491 547c323 0 472 -211 389 -603l-36 -169c-95 -449 -270 -668 -571 -668zM689 660
c198 0 324 155 324 395c0 149 -94 236 -247 236c-195 0 -319 -157 -319 -404c0 -144 92 -227 242 -227z" />
    <glyph glyph-name="uni24EA" unicode="&#x24ea;" horiz-adv-x="1812" 
d="M943 -48c-427 0 -749 321 -749 748s322 748 749 748s748 -321 748 -748s-321 -748 -748 -748zM943 32c381 0 668 287 668 668s-287 668 -668 668s-669 -287 -669 -668s288 -668 669 -668zM897 265c-220 0 -322 161 -265 415l27 127c44 219 152 328 330 328
c222 0 324 -160 267 -414l-27 -127c-45 -220 -153 -329 -332 -329zM900 364c102 1 158 81 191 236l33 157c39 174 -4 280 -137 279c-102 0 -158 -80 -190 -235l-34 -156c-39 -173 3 -281 137 -281z" />
    <glyph glyph-name="uni2460" unicode="&#x2460;" horiz-adv-x="1812" 
d="M943 -48c-427 0 -749 321 -749 748s322 748 749 748s748 -321 748 -748s-321 -748 -748 -748zM943 32c381 0 668 287 668 668s-287 668 -668 668s-669 -287 -669 -668s288 -668 669 -668zM1181 285h-588l24 105h249l104 481h-235l20 88c235 5 252 13 299 170h112
l-161 -739h199z" />
    <glyph glyph-name="uni2461" unicode="&#x2461;" horiz-adv-x="1812" 
d="M943 -48c-427 0 -749 321 -749 748s322 748 749 748s748 -321 748 -748s-321 -748 -748 -748zM943 32c381 0 668 287 668 668s-287 668 -668 668s-669 -287 -669 -668s288 -668 669 -668zM1157 279h-553v87c430 305 551 425 550 555c0 75 -45 117 -129 117
c-100 0 -150 -57 -169 -180l-132 24c28 169 130 254 311 254c160 0 254 -73 254 -203c0 -152 -107 -272 -492 -539l2 -13c33 2 63 3 95 3h286z" />
    <glyph glyph-name="uni2462" unicode="&#x2462;" horiz-adv-x="1812" 
d="M943 -48c-427 0 -749 321 -749 748s322 748 749 748s748 -321 748 -748s-321 -748 -748 -748zM943 32c381 0 668 287 668 668s-287 668 -668 668s-669 -287 -669 -668s288 -668 669 -668zM897 266c-179 0 -285 93 -287 252l136 23c-3 -112 55 -179 155 -179
c102 0 166 74 166 189c0 82 -41 118 -111 121l-79 4l12 83l78 1c105 2 166 70 165 164c0 73 -55 117 -141 117c-91 0 -147 -56 -165 -138l-128 26c30 128 131 208 299 208c163 0 268 -77 267 -202c0 -113 -63 -199 -183 -215l-1 -21c78 -18 122 -72 122 -160
c0 -163 -121 -273 -305 -273z" />
    <glyph glyph-name="uni2463" unicode="&#x2463;" horiz-adv-x="1812" 
d="M943 -48c-427 0 -749 321 -749 748s322 748 749 748s748 -321 748 -748s-321 -748 -748 -748zM943 32c381 0 668 287 668 668s-287 668 -668 668s-669 -287 -669 -668s288 -668 669 -668zM1023 278h-136l39 179h-369l-2 78l458 587h194l-124 -571h110l-21 -94h-110z
M940 859l-245 -308h251l66 285c13 56 28 111 44 163l-24 6c-31 -56 -62 -105 -92 -146z" />
    <glyph glyph-name="uni2464" unicode="&#x2464;" horiz-adv-x="1812" 
d="M943 -48c-427 0 -749 321 -749 748s322 748 749 748s748 -321 748 -748s-321 -748 -748 -748zM943 32c381 0 668 287 668 668s-287 668 -668 668s-669 -287 -669 -668s288 -668 669 -668zM874 265c-156 0 -260 73 -284 190l136 35c11 -82 66 -128 150 -128
c120 0 196 92 195 231c0 94 -49 141 -139 141c-75 0 -132 -28 -175 -98l-116 32l121 455h525l-23 -106h-397l-66 -236c43 32 98 47 169 47c149 0 238 -83 238 -228c0 -203 -129 -335 -334 -335z" />
    <glyph glyph-name="uni2465" unicode="&#x2465;" horiz-adv-x="1812" 
d="M943 -48c-427 0 -749 321 -749 748s322 748 749 748s748 -321 748 -748s-321 -748 -748 -748zM943 32c381 0 668 287 668 668s-287 668 -668 668s-669 -287 -669 -668s288 -668 669 -668zM1015 1135c152 0 254 -78 264 -204l-129 -25c-7 83 -59 131 -144 131
c-107 0 -179 -84 -215 -254l-10 -49c43 42 109 68 192 68c145 0 234 -80 234 -212c0 -202 -120 -326 -317 -326c-213 0 -309 134 -262 356l35 156c51 239 159 359 352 359zM937 712c-120 0 -194 -82 -193 -213c0 -85 55 -137 145 -137c115 0 186 85 186 221
c-1 81 -53 129 -138 129z" />
    <glyph glyph-name="uni2466" unicode="&#x2466;" horiz-adv-x="1812" 
d="M943 -48c-427 0 -749 321 -749 748s322 748 749 748s748 -321 748 -748s-321 -748 -748 -748zM943 32c381 0 668 287 668 668s-287 668 -668 668s-669 -287 -669 -668s288 -668 669 -668zM872 278h-141c81 339 210 569 385 736h-424l24 108h575l-19 -86
c-189 -169 -316 -398 -400 -758z" />
    <glyph glyph-name="uni2467" unicode="&#x2467;" horiz-adv-x="1812" 
d="M943 -48c-427 0 -749 321 -749 748s322 748 749 748s748 -321 748 -748s-321 -748 -748 -748zM943 32c381 0 668 287 668 668s-287 668 -668 668s-669 -287 -669 -668s288 -668 669 -668zM881 265c-185 0 -292 76 -291 210c0 138 81 227 210 244l3 18
c-67 22 -105 76 -105 147c1 159 113 251 307 251c175 0 275 -73 275 -198c0 -121 -73 -201 -186 -220l-4 -18c78 -21 122 -79 122 -159c1 -175 -119 -275 -331 -275zM971 760c112 0 175 60 175 163c0 74 -53 117 -144 117c-112 0 -176 -59 -175 -163c0 -74 52 -117 144 -117
zM884 360c123 0 192 67 192 184c0 80 -56 126 -155 126c-123 0 -193 -66 -193 -183c0 -81 57 -127 156 -127z" />
    <glyph glyph-name="uni2468" unicode="&#x2468;" horiz-adv-x="1812" 
d="M943 -48c-427 0 -749 321 -749 748s322 748 749 748s748 -321 748 -748s-321 -748 -748 -748zM943 32c381 0 668 287 668 668s-287 668 -668 668s-669 -287 -669 -668s288 -668 669 -668zM870 264c-151 0 -253 79 -263 204l129 25c6 -82 59 -131 144 -131
c107 0 179 84 215 255l10 49c-43 -43 -109 -69 -192 -69c-145 0 -234 80 -234 212c0 202 119 326 317 326c213 0 309 -134 262 -356l-35 -156c-51 -239 -160 -359 -353 -359zM949 687c120 0 193 82 193 213c0 86 -55 137 -145 137c-115 0 -186 -85 -186 -221
c0 -81 53 -129 138 -129z" />
    <glyph glyph-name="uni24FF" unicode="&#x24ff;" horiz-adv-x="1812" 
d="M943 -48c425 0 748 322 748 748c0 425 -323 748 -748 748c-424 0 -749 -323 -749 -748c0 -426 325 -748 749 -748zM897 265c-220 0 -322 161 -265 415l27 127c44 219 152 328 330 328c222 0 324 -160 267 -414l-27 -127c-45 -220 -153 -329 -332 -329zM900 364
c102 1 158 81 191 236l33 157c39 174 -4 280 -137 279c-102 0 -158 -80 -190 -235l-34 -156c-39 -173 3 -281 137 -281z" />
    <glyph glyph-name="uni2776" unicode="&#x2776;" horiz-adv-x="1812" 
d="M943 -48c425 0 748 322 748 748c0 425 -323 748 -748 748c-424 0 -749 -323 -749 -748c0 -426 325 -748 749 -748zM1181 285h-588l24 105h249l104 481h-235l20 88c235 5 252 13 299 170h112l-161 -739h199z" />
    <glyph glyph-name="uni2777" unicode="&#x2777;" horiz-adv-x="1812" 
d="M943 -48c425 0 748 322 748 748c0 425 -323 748 -748 748c-424 0 -749 -323 -749 -748c0 -426 325 -748 749 -748zM1157 279h-553v87c430 305 551 425 550 555c0 75 -45 117 -129 117c-100 0 -150 -57 -169 -180l-132 24c28 169 130 254 311 254c160 0 254 -73 254 -203
c0 -152 -107 -272 -492 -539l2 -13c33 2 63 3 95 3h286z" />
    <glyph glyph-name="uni2778" unicode="&#x2778;" horiz-adv-x="1812" 
d="M943 -48c425 0 748 322 748 748c0 425 -323 748 -748 748c-424 0 -749 -323 -749 -748c0 -426 325 -748 749 -748zM897 266c-179 0 -285 93 -287 252l136 23c-3 -112 55 -179 155 -179c102 0 166 74 166 189c0 82 -41 118 -111 121l-79 4l12 83l78 1
c105 2 166 70 165 164c0 73 -55 117 -141 117c-91 0 -147 -56 -165 -138l-128 26c30 128 131 208 299 208c163 0 268 -77 267 -202c0 -113 -63 -199 -183 -215l-1 -21c78 -18 122 -72 122 -160c0 -163 -121 -273 -305 -273z" />
    <glyph glyph-name="uni2779" unicode="&#x2779;" horiz-adv-x="1812" 
d="M943 -48c425 0 748 322 748 748c0 425 -323 748 -748 748c-424 0 -749 -323 -749 -748c0 -426 325 -748 749 -748zM1023 278h-136l39 179h-369l-2 78l458 587h194l-124 -571h110l-21 -94h-110zM940 859l-245 -308h251l66 285c13 56 28 111 44 163l-24 6
c-31 -56 -62 -105 -92 -146z" />
    <glyph glyph-name="uni277A" unicode="&#x277a;" horiz-adv-x="1812" 
d="M943 -48c425 0 748 322 748 748c0 425 -323 748 -748 748c-424 0 -749 -323 -749 -748c0 -426 325 -748 749 -748zM874 265c-156 0 -260 73 -284 190l136 35c11 -82 66 -128 150 -128c120 0 196 92 195 231c0 94 -49 141 -139 141c-75 0 -132 -28 -175 -98l-116 32
l121 455h525l-23 -106h-397l-66 -236c43 32 98 47 169 47c149 0 238 -83 238 -228c0 -203 -129 -335 -334 -335z" />
    <glyph glyph-name="uni277B" unicode="&#x277b;" horiz-adv-x="1812" 
d="M943 -48c425 0 748 322 748 748c0 425 -323 748 -748 748c-424 0 -749 -323 -749 -748c0 -426 325 -748 749 -748zM1015 1135c152 0 254 -78 264 -204l-129 -25c-7 83 -59 131 -144 131c-107 0 -179 -84 -215 -254l-10 -49c43 42 109 68 192 68c145 0 234 -80 234 -212
c0 -202 -120 -326 -317 -326c-213 0 -309 134 -262 356l35 156c51 239 159 359 352 359zM937 712c-120 0 -194 -82 -193 -213c0 -85 55 -137 145 -137c115 0 186 85 186 221c-1 81 -53 129 -138 129z" />
    <glyph glyph-name="uni277C" unicode="&#x277c;" horiz-adv-x="1812" 
d="M943 -48c425 0 748 322 748 748c0 425 -323 748 -748 748c-424 0 -749 -323 -749 -748c0 -426 325 -748 749 -748zM872 278h-141c81 339 210 569 385 736h-424l24 108h575l-19 -86c-189 -169 -316 -398 -400 -758z" />
    <glyph glyph-name="uni277D" unicode="&#x277d;" horiz-adv-x="1812" 
d="M943 -48c425 0 748 322 748 748c0 425 -323 748 -748 748c-424 0 -749 -323 -749 -748c0 -426 325 -748 749 -748zM881 265c-185 0 -292 76 -291 210c0 138 81 227 210 244l3 18c-67 22 -105 76 -105 147c1 159 113 251 307 251c175 0 275 -73 275 -198
c0 -121 -73 -201 -186 -220l-4 -18c78 -21 122 -79 122 -159c1 -175 -119 -275 -331 -275zM971 760c112 0 175 60 175 163c0 74 -53 117 -144 117c-112 0 -176 -59 -175 -163c0 -74 52 -117 144 -117zM884 360c123 0 192 67 192 184c0 80 -56 126 -155 126
c-123 0 -193 -66 -193 -183c0 -81 57 -127 156 -127z" />
    <glyph glyph-name="uni277E" unicode="&#x277e;" horiz-adv-x="1812" 
d="M943 -48c425 0 748 322 748 748c0 425 -323 748 -748 748c-424 0 -749 -323 -749 -748c0 -426 325 -748 749 -748zM870 264c-151 0 -253 79 -263 204l129 25c6 -82 59 -131 144 -131c107 0 179 84 215 255l10 49c-43 -43 -109 -69 -192 -69c-145 0 -234 80 -234 212
c0 202 119 326 317 326c213 0 309 -134 262 -356l-35 -156c-51 -239 -160 -359 -353 -359zM949 687c120 0 193 82 193 213c0 86 -55 137 -145 137c-115 0 -186 -85 -186 -221c0 -81 53 -129 138 -129z" />
    <glyph glyph-name="uni2460.init" 
d="M1311 -20h-368c-427 0 -750 310 -750 720s323 720 750 720h674l-16 -75h-658c-382 0 -670 -277 -670 -645s288 -645 670 -645h384zM1245 285h-588l24 105h249l104 481h-235l20 88c235 5 252 13 299 170h112l-161 -739h199z" />
    <glyph glyph-name="uni2460.medi" horiz-adv-x="911" 
d="M1087 1345h-915l16 75h915zM730 285h-588l24 105h249l104 481h-235l20 88c235 5 252 13 299 170h112l-161 -739h199zM797 -20h-915l16 75h915z" />
    <glyph glyph-name="uni2460.fina" 
d="M188 1420h368c427 0 750 -310 750 -720s-323 -720 -750 -720h-674l16 75h658c382 0 670 277 670 645s-288 645 -670 645h-384zM730 285h-588l24 105h249l104 481h-235l20 88c235 5 252 13 299 170h112l-161 -739h199z" />
    <glyph glyph-name="uni2461.init" 
d="M1311 -20h-368c-427 0 -750 310 -750 720s323 720 750 720h674l-16 -75h-658c-382 0 -670 -277 -670 -645s288 -645 670 -645h384zM1221 279h-553v87c430 305 551 425 550 555c0 75 -45 117 -129 117c-100 0 -150 -57 -169 -180l-132 24c28 169 130 254 311 254
c160 0 254 -73 254 -203c0 -152 -107 -272 -492 -539l2 -13c33 2 63 3 95 3h286z" />
    <glyph glyph-name="uni2461.medi" horiz-adv-x="911" 
d="M1087 1345h-915l16 75h915zM707 279h-553v87c430 305 551 425 550 555c0 75 -45 117 -129 117c-100 0 -150 -57 -169 -180l-132 24c28 169 130 254 311 254c160 0 254 -73 254 -203c0 -152 -107 -272 -492 -539l2 -13c33 2 63 3 95 3h286zM797 -20h-915l16 75h915z" />
    <glyph glyph-name="uni2461.fina" 
d="M188 1420h368c427 0 750 -310 750 -720s-323 -720 -750 -720h-674l16 75h658c382 0 670 277 670 645s-288 645 -670 645h-384zM707 279h-553v87c430 305 551 425 550 555c0 75 -45 117 -129 117c-100 0 -150 -57 -169 -180l-132 24c28 169 130 254 311 254
c160 0 254 -73 254 -203c0 -152 -107 -272 -492 -539l2 -13c33 2 63 3 95 3h286z" />
    <glyph glyph-name="uni2462.init" 
d="M1311 -20h-368c-427 0 -750 310 -750 720s323 720 750 720h674l-16 -75h-658c-382 0 -670 -277 -670 -645s288 -645 670 -645h384zM961 266c-179 0 -285 93 -287 252l136 23c-3 -112 55 -179 155 -179c102 0 166 74 166 189c0 82 -41 118 -111 121l-79 4l12 83l78 1
c105 2 166 70 165 164c0 73 -55 117 -141 117c-91 0 -147 -56 -165 -138l-128 26c30 128 131 208 299 208c163 0 268 -77 267 -202c0 -113 -63 -199 -183 -215l-1 -21c78 -18 122 -72 122 -160c0 -163 -121 -273 -305 -273z" />
    <glyph glyph-name="uni2462.medi" horiz-adv-x="911" 
d="M1087 1345h-915l16 75h915zM447 266c-179 0 -285 93 -287 252l136 23c-3 -112 55 -179 155 -179c102 0 166 74 166 189c0 82 -41 118 -111 121l-79 4l12 83l78 1c105 2 166 70 165 164c0 73 -55 117 -141 117c-91 0 -147 -56 -165 -138l-128 26c30 128 131 208 299 208
c163 0 268 -77 267 -202c0 -113 -63 -199 -183 -215l-1 -21c78 -18 122 -72 122 -160c0 -163 -121 -273 -305 -273zM797 -20h-915l16 75h915z" />
    <glyph glyph-name="uni2462.fina" 
d="M188 1420h368c427 0 750 -310 750 -720s-323 -720 -750 -720h-674l16 75h658c382 0 670 277 670 645s-288 645 -670 645h-384zM447 266c-179 0 -285 93 -287 252l136 23c-3 -112 55 -179 155 -179c102 0 166 74 166 189c0 82 -41 118 -111 121l-79 4l12 83l78 1
c105 2 166 70 165 164c0 73 -55 117 -141 117c-91 0 -147 -56 -165 -138l-128 26c30 128 131 208 299 208c163 0 268 -77 267 -202c0 -113 -63 -199 -183 -215l-1 -21c78 -18 122 -72 122 -160c0 -163 -121 -273 -305 -273z" />
    <glyph glyph-name="uni2463.init" 
d="M1311 -20h-368c-427 0 -750 310 -750 720s323 720 750 720h674l-16 -75h-658c-382 0 -670 -277 -670 -645s288 -645 670 -645h384zM1087 278h-136l39 179h-369l-2 78l458 587h194l-124 -571h110l-21 -94h-110zM1004 859l-245 -308h251l66 285c13 56 28 111 44 163l-24 6
c-31 -56 -62 -105 -92 -146z" />
    <glyph glyph-name="uni2463.medi" horiz-adv-x="911" 
d="M1087 1345h-915l16 75h915zM573 278h-136l39 179h-369l-2 78l458 587h194l-124 -571h110l-21 -94h-110zM490 859l-245 -308h251l66 285c13 56 28 111 44 163l-24 6c-31 -56 -62 -105 -92 -146zM797 -20h-915l16 75h915z" />
    <glyph glyph-name="uni2463.fina" 
d="M188 1420h368c427 0 750 -310 750 -720s-323 -720 -750 -720h-674l16 75h658c382 0 670 277 670 645s-288 645 -670 645h-384zM573 278h-136l39 179h-369l-2 78l458 587h194l-124 -571h110l-21 -94h-110zM490 859l-245 -308h251l66 285c13 56 28 111 44 163l-24 6
c-31 -56 -62 -105 -92 -146z" />
    <glyph glyph-name="uni2464.init" 
d="M1311 -20h-368c-427 0 -750 310 -750 720s323 720 750 720h674l-16 -75h-658c-382 0 -670 -277 -670 -645s288 -645 670 -645h384zM938 265c-156 0 -260 73 -284 190l136 35c11 -82 66 -128 150 -128c120 0 196 92 195 231c0 94 -49 141 -139 141
c-75 0 -132 -28 -175 -98l-116 32l121 455h525l-23 -106h-397l-66 -236c43 32 98 47 169 47c149 0 238 -83 238 -228c0 -203 -129 -335 -334 -335z" />
    <glyph glyph-name="uni2464.medi" horiz-adv-x="911" 
d="M1087 1345h-915l16 75h915zM423 265c-156 0 -260 73 -284 190l136 35c11 -82 66 -128 150 -128c120 0 196 92 195 231c0 94 -49 141 -139 141c-75 0 -132 -28 -175 -98l-116 32l121 455h525l-23 -106h-397l-66 -236c43 32 98 47 169 47c149 0 238 -83 238 -228
c0 -203 -129 -335 -334 -335zM797 -20h-915l16 75h915z" />
    <glyph glyph-name="uni2464.fina" 
d="M188 1420h368c427 0 750 -310 750 -720s-323 -720 -750 -720h-674l16 75h658c382 0 670 277 670 645s-288 645 -670 645h-384zM423 265c-156 0 -260 73 -284 190l136 35c11 -82 66 -128 150 -128c120 0 196 92 195 231c0 94 -49 141 -139 141c-75 0 -132 -28 -175 -98
l-116 32l121 455h525l-23 -106h-397l-66 -236c43 32 98 47 169 47c149 0 238 -83 238 -228c0 -203 -129 -335 -334 -335z" />
    <glyph glyph-name="uni2465.init" 
d="M1311 -20h-368c-427 0 -750 310 -750 720s323 720 750 720h674l-16 -75h-658c-382 0 -670 -277 -670 -645s288 -645 670 -645h384zM1079 1135c152 0 254 -78 264 -204l-129 -25c-7 83 -59 131 -144 131c-107 0 -179 -84 -215 -254l-10 -49c43 42 109 68 192 68
c145 0 234 -80 234 -212c0 -202 -120 -326 -317 -326c-213 0 -309 134 -262 356l35 156c51 239 159 359 352 359zM1001 712c-120 0 -194 -82 -193 -213c0 -85 55 -137 145 -137c115 0 186 85 186 221c-1 81 -53 129 -138 129z" />
    <glyph glyph-name="uni2465.medi" horiz-adv-x="911" 
d="M1087 1345h-915l16 75h915zM565 1135c152 0 254 -78 264 -204l-129 -25c-7 83 -59 131 -144 131c-107 0 -179 -84 -215 -254l-10 -49c43 42 109 68 192 68c145 0 234 -80 234 -212c0 -202 -120 -326 -317 -326c-213 0 -309 134 -262 356l35 156c51 239 159 359 352 359z
M487 712c-120 0 -194 -82 -193 -213c0 -85 55 -137 145 -137c115 0 186 85 186 221c-1 81 -53 129 -138 129zM797 -20h-915l16 75h915z" />
    <glyph glyph-name="uni2465.fina" 
d="M188 1420h368c427 0 750 -310 750 -720s-323 -720 -750 -720h-674l16 75h658c382 0 670 277 670 645s-288 645 -670 645h-384zM565 1135c152 0 254 -78 264 -204l-129 -25c-7 83 -59 131 -144 131c-107 0 -179 -84 -215 -254l-10 -49c43 42 109 68 192 68
c145 0 234 -80 234 -212c0 -202 -120 -326 -317 -326c-213 0 -309 134 -262 356l35 156c51 239 159 359 352 359zM487 712c-120 0 -194 -82 -193 -213c0 -85 55 -137 145 -137c115 0 186 85 186 221c-1 81 -53 129 -138 129z" />
    <glyph glyph-name="uni2466.init" 
d="M1311 -20h-368c-427 0 -750 310 -750 720s323 720 750 720h674l-16 -75h-658c-382 0 -670 -277 -670 -645s288 -645 670 -645h384zM936 278h-141c81 339 210 569 385 736h-424l24 108h575l-19 -86c-189 -169 -316 -398 -400 -758z" />
    <glyph glyph-name="uni2466.medi" horiz-adv-x="911" 
d="M1087 1345h-915l16 75h915zM421 278h-141c81 339 210 569 385 736h-424l24 108h575l-19 -86c-189 -169 -316 -398 -400 -758zM797 -20h-915l16 75h915z" />
    <glyph glyph-name="uni2466.fina" 
d="M188 1420h368c427 0 750 -310 750 -720s-323 -720 -750 -720h-674l16 75h658c382 0 670 277 670 645s-288 645 -670 645h-384zM421 278h-141c81 339 210 569 385 736h-424l24 108h575l-19 -86c-189 -169 -316 -398 -400 -758z" />
    <glyph glyph-name="uni2467.init" 
d="M1311 -20h-368c-427 0 -750 310 -750 720s323 720 750 720h674l-16 -75h-658c-382 0 -670 -277 -670 -645s288 -645 670 -645h384zM945 265c-185 0 -292 76 -291 210c0 138 81 227 210 244l3 18c-67 22 -105 76 -105 147c1 159 113 251 307 251c175 0 275 -73 275 -198
c0 -121 -73 -201 -186 -220l-4 -18c78 -21 122 -79 122 -159c1 -175 -119 -275 -331 -275zM1035 760c112 0 175 60 175 163c0 74 -53 117 -144 117c-112 0 -176 -59 -175 -163c0 -74 52 -117 144 -117zM948 360c123 0 192 67 192 184c0 80 -56 126 -155 126
c-123 0 -193 -66 -193 -183c0 -81 57 -127 156 -127z" />
    <glyph glyph-name="uni2467.medi" horiz-adv-x="911" 
d="M1087 1345h-915l16 75h915zM431 265c-185 0 -292 76 -291 210c0 138 81 227 210 244l3 18c-67 22 -105 76 -105 147c1 159 113 251 307 251c175 0 275 -73 275 -198c0 -121 -73 -201 -186 -220l-4 -18c78 -21 122 -79 122 -159c1 -175 -119 -275 -331 -275zM521 760
c112 0 175 60 175 163c0 74 -53 117 -144 117c-112 0 -176 -59 -175 -163c0 -74 52 -117 144 -117zM434 360c123 0 192 67 192 184c0 80 -56 126 -155 126c-123 0 -193 -66 -193 -183c0 -81 57 -127 156 -127zM797 -20h-915l16 75h915z" />
    <glyph glyph-name="uni2467.fina" 
d="M188 1420h368c427 0 750 -310 750 -720s-323 -720 -750 -720h-674l16 75h658c382 0 670 277 670 645s-288 645 -670 645h-384zM431 265c-185 0 -292 76 -291 210c0 138 81 227 210 244l3 18c-67 22 -105 76 -105 147c1 159 113 251 307 251c175 0 275 -73 275 -198
c0 -121 -73 -201 -186 -220l-4 -18c78 -21 122 -79 122 -159c1 -175 -119 -275 -331 -275zM521 760c112 0 175 60 175 163c0 74 -53 117 -144 117c-112 0 -176 -59 -175 -163c0 -74 52 -117 144 -117zM434 360c123 0 192 67 192 184c0 80 -56 126 -155 126
c-123 0 -193 -66 -193 -183c0 -81 57 -127 156 -127z" />
    <glyph glyph-name="uni2468.init" 
d="M1311 -20h-368c-427 0 -750 310 -750 720s323 720 750 720h674l-16 -75h-658c-382 0 -670 -277 -670 -645s288 -645 670 -645h384zM934 264c-151 0 -253 79 -263 204l129 25c6 -82 59 -131 144 -131c107 0 179 84 215 255l10 49c-43 -43 -109 -69 -192 -69
c-145 0 -234 80 -234 212c0 202 119 326 317 326c213 0 309 -134 262 -356l-35 -156c-51 -239 -160 -359 -353 -359zM1013 687c120 0 193 82 193 213c0 86 -55 137 -145 137c-115 0 -186 -85 -186 -221c0 -81 53 -129 138 -129z" />
    <glyph glyph-name="uni2468.medi" horiz-adv-x="911" 
d="M1087 1345h-915l16 75h915zM420 264c-151 0 -253 79 -263 204l129 25c6 -82 59 -131 144 -131c107 0 179 84 215 255l10 49c-43 -43 -109 -69 -192 -69c-145 0 -234 80 -234 212c0 202 119 326 317 326c213 0 309 -134 262 -356l-35 -156c-51 -239 -160 -359 -353 -359z
M499 687c120 0 193 82 193 213c0 86 -55 137 -145 137c-115 0 -186 -85 -186 -221c0 -81 53 -129 138 -129zM797 -20h-915l16 75h915z" />
    <glyph glyph-name="uni2468.fina" 
d="M188 1420h368c427 0 750 -310 750 -720s-323 -720 -750 -720h-674l16 75h658c382 0 670 277 670 645s-288 645 -670 645h-384zM420 264c-151 0 -253 79 -263 204l129 25c6 -82 59 -131 144 -131c107 0 179 84 215 255l10 49c-43 -43 -109 -69 -192 -69
c-145 0 -234 80 -234 212c0 202 119 326 317 326c213 0 309 -134 262 -356l-35 -156c-51 -239 -160 -359 -353 -359zM499 687c120 0 193 82 193 213c0 86 -55 137 -145 137c-115 0 -186 -85 -186 -221c0 -81 53 -129 138 -129z" />
    <glyph glyph-name="uni24EA.init" 
d="M1311 -20h-368c-427 0 -750 310 -750 720s323 720 750 720h674l-16 -75h-658c-382 0 -670 -277 -670 -645s288 -645 670 -645h384zM961 265c-220 0 -322 161 -265 415l27 127c44 219 152 328 330 328c222 0 324 -160 267 -414l-27 -127c-45 -220 -153 -329 -332 -329z
M964 364c102 1 158 81 191 236l33 157c39 174 -4 280 -137 279c-102 0 -158 -80 -190 -235l-34 -156c-39 -173 3 -281 137 -281z" />
    <glyph glyph-name="uni24EA.medi" horiz-adv-x="911" 
d="M1087 1345h-915l16 75h915zM446 265c-220 0 -322 161 -265 415l27 127c44 219 152 328 330 328c222 0 324 -160 267 -414l-27 -127c-45 -220 -153 -329 -332 -329zM449 364c102 1 158 81 191 236l33 157c39 174 -4 280 -137 279c-102 0 -158 -80 -190 -235l-34 -156
c-39 -173 3 -281 137 -281zM797 -20h-915l16 75h915z" />
    <glyph glyph-name="uni24EA.fina" 
d="M188 1420h368c427 0 750 -310 750 -720s-323 -720 -750 -720h-674l16 75h658c382 0 670 277 670 645s-288 645 -670 645h-384zM446 265c-220 0 -322 161 -265 415l27 127c44 219 152 328 330 328c222 0 324 -160 267 -414l-27 -127c-45 -220 -153 -329 -332 -329z
M449 364c102 1 158 81 191 236l33 157c39 174 -4 280 -137 279c-102 0 -158 -80 -190 -235l-34 -156c-39 -173 3 -281 137 -281z" />
    <glyph glyph-name="uni2776.init" 
d="M943 -20h368l306 1440h-674c-427 0 -750 -310 -750 -720s323 -720 750 -720zM1245 285h-588l24 105h249l104 481h-235l20 88c235 5 252 13 299 170h112l-161 -739h199z" />
    <glyph glyph-name="uni2776.medi" horiz-adv-x="911" 
d="M188 1420l-306 -1440h915l306 1440h-915zM730 285h-588l24 105h249l104 481h-235l20 88c235 5 252 13 299 170h112l-161 -739h199z" />
    <glyph glyph-name="uni2776.fina" 
d="M556 1420h-368l-306 -1440h674c427 0 750 310 750 720s-323 720 -750 720zM730 285h-588l24 105h249l104 481h-235l20 88c235 5 252 13 299 170h112l-161 -739h199z" />
    <glyph glyph-name="uni2777.init" 
d="M943 -20h368l306 1440h-674c-427 0 -750 -310 -750 -720s323 -720 750 -720zM1221 279h-553v87c430 305 551 425 550 555c0 75 -45 117 -129 117c-100 0 -150 -57 -169 -180l-132 24c28 169 130 254 311 254c160 0 254 -73 254 -203c0 -152 -107 -272 -492 -539l2 -13
c33 2 63 3 95 3h286z" />
    <glyph glyph-name="uni2777.medi" horiz-adv-x="911" 
d="M188 1420l-306 -1440h915l306 1440h-915zM707 279h-553v87c430 305 551 425 550 555c0 75 -45 117 -129 117c-100 0 -150 -57 -169 -180l-132 24c28 169 130 254 311 254c160 0 254 -73 254 -203c0 -152 -107 -272 -492 -539l2 -13c33 2 63 3 95 3h286z" />
    <glyph glyph-name="uni2777.fina" 
d="M556 1420h-368l-306 -1440h674c427 0 750 310 750 720s-323 720 -750 720zM707 279h-553v87c430 305 551 425 550 555c0 75 -45 117 -129 117c-100 0 -150 -57 -169 -180l-132 24c28 169 130 254 311 254c160 0 254 -73 254 -203c0 -152 -107 -272 -492 -539l2 -13
c33 2 63 3 95 3h286z" />
    <glyph glyph-name="uni2778.init" 
d="M943 -20h368l306 1440h-674c-427 0 -750 -310 -750 -720s323 -720 750 -720zM961 266c-179 0 -285 93 -287 252l136 23c-3 -112 55 -179 155 -179c102 0 166 74 166 189c0 82 -41 118 -111 121l-79 4l12 83l78 1c105 2 166 70 165 164c0 73 -55 117 -141 117
c-91 0 -147 -56 -165 -138l-128 26c30 128 131 208 299 208c163 0 268 -77 267 -202c0 -113 -63 -199 -183 -215l-1 -21c78 -18 122 -72 122 -160c0 -163 -121 -273 -305 -273z" />
    <glyph glyph-name="uni2778.medi" horiz-adv-x="911" 
d="M188 1420l-306 -1440h915l306 1440h-915zM447 266c-179 0 -285 93 -287 252l136 23c-3 -112 55 -179 155 -179c102 0 166 74 166 189c0 82 -41 118 -111 121l-79 4l12 83l78 1c105 2 166 70 165 164c0 73 -55 117 -141 117c-91 0 -147 -56 -165 -138l-128 26
c30 128 131 208 299 208c163 0 268 -77 267 -202c0 -113 -63 -199 -183 -215l-1 -21c78 -18 122 -72 122 -160c0 -163 -121 -273 -305 -273z" />
    <glyph glyph-name="uni2778.fina" 
d="M556 1420h-368l-306 -1440h674c427 0 750 310 750 720s-323 720 -750 720zM447 266c-179 0 -285 93 -287 252l136 23c-3 -112 55 -179 155 -179c102 0 166 74 166 189c0 82 -41 118 -111 121l-79 4l12 83l78 1c105 2 166 70 165 164c0 73 -55 117 -141 117
c-91 0 -147 -56 -165 -138l-128 26c30 128 131 208 299 208c163 0 268 -77 267 -202c0 -113 -63 -199 -183 -215l-1 -21c78 -18 122 -72 122 -160c0 -163 -121 -273 -305 -273z" />
    <glyph glyph-name="uni2779.init" 
d="M943 -20h368l306 1440h-674c-427 0 -750 -310 -750 -720s323 -720 750 -720zM1087 278h-136l39 179h-369l-2 78l458 587h194l-124 -571h110l-21 -94h-110zM1004 859l-245 -308h251l66 285c13 56 28 111 44 163l-24 6c-31 -56 -62 -105 -92 -146z" />
    <glyph glyph-name="uni2779.medi" horiz-adv-x="911" 
d="M188 1420l-306 -1440h915l306 1440h-915zM573 278h-136l39 179h-369l-2 78l458 587h194l-124 -571h110l-21 -94h-110zM490 859l-245 -308h251l66 285c13 56 28 111 44 163l-24 6c-31 -56 -62 -105 -92 -146z" />
    <glyph glyph-name="uni2779.fina" 
d="M556 1420h-368l-306 -1440h674c427 0 750 310 750 720s-323 720 -750 720zM573 278h-136l39 179h-369l-2 78l458 587h194l-124 -571h110l-21 -94h-110zM490 859l-245 -308h251l66 285c13 56 28 111 44 163l-24 6c-31 -56 -62 -105 -92 -146z" />
    <glyph glyph-name="uni277A.init" 
d="M943 -20h368l306 1440h-674c-427 0 -750 -310 -750 -720s323 -720 750 -720zM938 265c-156 0 -260 73 -284 190l136 35c11 -82 66 -128 150 -128c120 0 196 92 195 231c0 94 -49 141 -139 141c-75 0 -132 -28 -175 -98l-116 32l121 455h525l-23 -106h-397l-66 -236
c43 32 98 47 169 47c149 0 238 -83 238 -228c0 -203 -129 -335 -334 -335z" />
    <glyph glyph-name="uni277A.medi" horiz-adv-x="911" 
d="M188 1420l-306 -1440h915l306 1440h-915zM423 265c-156 0 -260 73 -284 190l136 35c11 -82 66 -128 150 -128c120 0 196 92 195 231c0 94 -49 141 -139 141c-75 0 -132 -28 -175 -98l-116 32l121 455h525l-23 -106h-397l-66 -236c43 32 98 47 169 47
c149 0 238 -83 238 -228c0 -203 -129 -335 -334 -335z" />
    <glyph glyph-name="uni277A.fina" 
d="M556 1420h-368l-306 -1440h674c427 0 750 310 750 720s-323 720 -750 720zM423 265c-156 0 -260 73 -284 190l136 35c11 -82 66 -128 150 -128c120 0 196 92 195 231c0 94 -49 141 -139 141c-75 0 -132 -28 -175 -98l-116 32l121 455h525l-23 -106h-397l-66 -236
c43 32 98 47 169 47c149 0 238 -83 238 -228c0 -203 -129 -335 -334 -335z" />
    <glyph glyph-name="uni277B.init" 
d="M943 -20h368l306 1440h-674c-427 0 -750 -310 -750 -720s323 -720 750 -720zM1079 1135c152 0 254 -78 264 -204l-129 -25c-7 83 -59 131 -144 131c-107 0 -179 -84 -215 -254l-10 -49c43 42 109 68 192 68c145 0 234 -80 234 -212c0 -202 -120 -326 -317 -326
c-213 0 -309 134 -262 356l35 156c51 239 159 359 352 359zM1001 712c-120 0 -194 -82 -193 -213c0 -85 55 -137 145 -137c115 0 186 85 186 221c-1 81 -53 129 -138 129z" />
    <glyph glyph-name="uni277B.medi" horiz-adv-x="911" 
d="M188 1420l-306 -1440h915l306 1440h-915zM565 1135c152 0 254 -78 264 -204l-129 -25c-7 83 -59 131 -144 131c-107 0 -179 -84 -215 -254l-10 -49c43 42 109 68 192 68c145 0 234 -80 234 -212c0 -202 -120 -326 -317 -326c-213 0 -309 134 -262 356l35 156
c51 239 159 359 352 359zM487 712c-120 0 -194 -82 -193 -213c0 -85 55 -137 145 -137c115 0 186 85 186 221c-1 81 -53 129 -138 129z" />
    <glyph glyph-name="uni277B.fina" 
d="M556 1420h-368l-306 -1440h674c427 0 750 310 750 720s-323 720 -750 720zM565 1135c152 0 254 -78 264 -204l-129 -25c-7 83 -59 131 -144 131c-107 0 -179 -84 -215 -254l-10 -49c43 42 109 68 192 68c145 0 234 -80 234 -212c0 -202 -120 -326 -317 -326
c-213 0 -309 134 -262 356l35 156c51 239 159 359 352 359zM487 712c-120 0 -194 -82 -193 -213c0 -85 55 -137 145 -137c115 0 186 85 186 221c-1 81 -53 129 -138 129z" />
    <glyph glyph-name="uni277C.init" 
d="M943 -20h368l306 1440h-674c-427 0 -750 -310 -750 -720s323 -720 750 -720zM936 278h-141c81 339 210 569 385 736h-424l24 108h575l-19 -86c-189 -169 -316 -398 -400 -758z" />
    <glyph glyph-name="uni277C.medi" horiz-adv-x="911" 
d="M188 1420l-306 -1440h915l306 1440h-915zM421 278h-141c81 339 210 569 385 736h-424l24 108h575l-19 -86c-189 -169 -316 -398 -400 -758z" />
    <glyph glyph-name="uni277C.fina" 
d="M556 1420h-368l-306 -1440h674c427 0 750 310 750 720s-323 720 -750 720zM421 278h-141c81 339 210 569 385 736h-424l24 108h575l-19 -86c-189 -169 -316 -398 -400 -758z" />
    <glyph glyph-name="uni277D.init" 
d="M943 -20h368l306 1440h-674c-427 0 -750 -310 -750 -720s323 -720 750 -720zM945 265c-185 0 -292 76 -291 210c0 138 81 227 210 244l3 18c-67 22 -105 76 -105 147c1 159 113 251 307 251c175 0 275 -73 275 -198c0 -121 -73 -201 -186 -220l-4 -18
c78 -21 122 -79 122 -159c1 -175 -119 -275 -331 -275zM1035 760c112 0 175 60 175 163c0 74 -53 117 -144 117c-112 0 -176 -59 -175 -163c0 -74 52 -117 144 -117zM948 360c123 0 192 67 192 184c0 80 -56 126 -155 126c-123 0 -193 -66 -193 -183c0 -81 57 -127 156 -127
z" />
    <glyph glyph-name="uni277D.medi" horiz-adv-x="911" 
d="M188 1420l-306 -1440h915l306 1440h-915zM431 265c-185 0 -292 76 -291 210c0 138 81 227 210 244l3 18c-67 22 -105 76 -105 147c1 159 113 251 307 251c175 0 275 -73 275 -198c0 -121 -73 -201 -186 -220l-4 -18c78 -21 122 -79 122 -159c1 -175 -119 -275 -331 -275z
M521 760c112 0 175 60 175 163c0 74 -53 117 -144 117c-112 0 -176 -59 -175 -163c0 -74 52 -117 144 -117zM434 360c123 0 192 67 192 184c0 80 -56 126 -155 126c-123 0 -193 -66 -193 -183c0 -81 57 -127 156 -127z" />
    <glyph glyph-name="uni277D.fina" 
d="M556 1420h-368l-306 -1440h674c427 0 750 310 750 720s-323 720 -750 720zM431 265c-185 0 -292 76 -291 210c0 138 81 227 210 244l3 18c-67 22 -105 76 -105 147c1 159 113 251 307 251c175 0 275 -73 275 -198c0 -121 -73 -201 -186 -220l-4 -18
c78 -21 122 -79 122 -159c1 -175 -119 -275 -331 -275zM521 760c112 0 175 60 175 163c0 74 -53 117 -144 117c-112 0 -176 -59 -175 -163c0 -74 52 -117 144 -117zM434 360c123 0 192 67 192 184c0 80 -56 126 -155 126c-123 0 -193 -66 -193 -183c0 -81 57 -127 156 -127z
" />
    <glyph glyph-name="uni277E.init" 
d="M943 -20h368l306 1440h-674c-427 0 -750 -310 -750 -720s323 -720 750 -720zM934 264c-151 0 -253 79 -263 204l129 25c6 -82 59 -131 144 -131c107 0 179 84 215 255l10 49c-43 -43 -109 -69 -192 -69c-145 0 -234 80 -234 212c0 202 119 326 317 326
c213 0 309 -134 262 -356l-35 -156c-51 -239 -160 -359 -353 -359zM1013 687c120 0 193 82 193 213c0 86 -55 137 -145 137c-115 0 -186 -85 -186 -221c0 -81 53 -129 138 -129z" />
    <glyph glyph-name="uni277E.medi" horiz-adv-x="911" 
d="M188 1420l-306 -1440h915l306 1440h-915zM420 264c-151 0 -253 79 -263 204l129 25c6 -82 59 -131 144 -131c107 0 179 84 215 255l10 49c-43 -43 -109 -69 -192 -69c-145 0 -234 80 -234 212c0 202 119 326 317 326c213 0 309 -134 262 -356l-35 -156
c-51 -239 -160 -359 -353 -359zM499 687c120 0 193 82 193 213c0 86 -55 137 -145 137c-115 0 -186 -85 -186 -221c0 -81 53 -129 138 -129z" />
    <glyph glyph-name="uni277E.fina" 
d="M556 1420h-368l-306 -1440h674c427 0 750 310 750 720s-323 720 -750 720zM420 264c-151 0 -253 79 -263 204l129 25c6 -82 59 -131 144 -131c107 0 179 84 215 255l10 49c-43 -43 -109 -69 -192 -69c-145 0 -234 80 -234 212c0 202 119 326 317 326
c213 0 309 -134 262 -356l-35 -156c-51 -239 -160 -359 -353 -359zM499 687c120 0 193 82 193 213c0 86 -55 137 -145 137c-115 0 -186 -85 -186 -221c0 -81 53 -129 138 -129z" />
    <glyph glyph-name="uni24FF.init" 
d="M943 -20h368l306 1440h-674c-427 0 -750 -310 -750 -720s323 -720 750 -720zM961 265c-220 0 -322 161 -265 415l27 127c44 219 152 328 330 328c222 0 324 -160 267 -414l-27 -127c-45 -220 -153 -329 -332 -329zM964 364c102 1 158 81 191 236l33 157
c39 174 -4 280 -137 279c-102 0 -158 -80 -190 -235l-34 -156c-39 -173 3 -281 137 -281z" />
    <glyph glyph-name="uni24FF.medi" horiz-adv-x="911" 
d="M188 1420l-306 -1440h915l306 1440h-915zM446 265c-220 0 -322 161 -265 415l27 127c44 219 152 328 330 328c222 0 324 -160 267 -414l-27 -127c-45 -220 -153 -329 -332 -329zM449 364c102 1 158 81 191 236l33 157c39 174 -4 280 -137 279c-102 0 -158 -80 -190 -235
l-34 -156c-39 -173 3 -281 137 -281z" />
    <glyph glyph-name="uni24FF.fina" 
d="M556 1420h-368l-306 -1440h674c427 0 750 310 750 720s-323 720 -750 720zM446 265c-220 0 -322 161 -265 415l27 127c44 219 152 328 330 328c222 0 324 -160 267 -414l-27 -127c-45 -220 -153 -329 -332 -329zM449 364c102 1 158 81 191 236l33 157
c39 174 -4 280 -137 279c-102 0 -158 -80 -190 -235l-34 -156c-39 -173 3 -281 137 -281z" />
    <glyph glyph-name="zero.dnom" horiz-adv-x="861" 
d="M361 -13c-220 0 -322 161 -265 415l27 127c44 219 152 328 330 328c222 0 324 -160 267 -414l-27 -127c-45 -220 -153 -329 -332 -329zM364 86c102 1 158 81 191 236l33 157c39 174 -4 280 -137 279c-102 0 -158 -80 -190 -235l-34 -156c-39 -173 3 -281 137 -281z" />
    <glyph glyph-name="one.dnom" horiz-adv-x="861" 
d="M609 0h-588l24 105h249l104 481h-235l20 88c235 5 252 13 299 170h112l-161 -739h199z" />
    <glyph glyph-name="two.dnom" horiz-adv-x="861" 
d="M601 0h-553v87c430 305 551 425 550 555c0 75 -45 117 -129 117c-100 0 -150 -57 -169 -180l-132 24c28 169 130 254 311 254c160 0 254 -73 254 -203c0 -152 -107 -272 -492 -539l2 -13c33 2 63 3 95 3h286z" />
    <glyph glyph-name="three.dnom" horiz-adv-x="861" 
d="M364 -14c-179 0 -285 93 -287 252l136 23c-3 -112 55 -179 155 -179c102 0 166 74 166 189c0 82 -41 118 -111 121l-79 4l12 83l78 1c105 2 166 70 165 164c0 73 -55 117 -141 117c-91 0 -147 -56 -165 -138l-128 26c30 128 131 208 299 208c163 0 268 -77 267 -202
c0 -113 -63 -199 -183 -215l-1 -21c78 -18 122 -72 122 -160c0 -163 -121 -273 -305 -273z" />
    <glyph glyph-name="four.dnom" horiz-adv-x="861" 
d="M518 0h-136l39 179h-369l-2 78l458 587h194l-124 -571h110l-21 -94h-110zM435 581l-245 -308h251l66 285c13 56 28 111 44 163l-24 6c-31 -56 -62 -105 -92 -146z" />
    <glyph glyph-name="five.dnom" horiz-adv-x="861" 
d="M348 -14c-156 0 -260 73 -284 190l136 35c11 -82 66 -128 150 -128c120 0 196 92 195 231c0 94 -49 141 -139 141c-75 0 -132 -28 -175 -98l-116 32l121 455h525l-23 -106h-397l-66 -236c43 32 98 47 169 47c149 0 238 -83 238 -228c0 -203 -129 -335 -334 -335z" />
    <glyph glyph-name="six.dnom" horiz-adv-x="861" 
d="M481 859c152 0 254 -78 264 -204l-129 -25c-7 83 -59 131 -144 131c-107 0 -179 -84 -215 -254l-10 -49c43 42 109 68 192 68c145 0 234 -80 234 -212c0 -202 -120 -326 -317 -326c-213 0 -309 134 -262 356l35 156c51 239 159 359 352 359zM403 436
c-120 0 -194 -82 -193 -213c0 -85 55 -137 145 -137c115 0 186 85 186 221c-1 81 -53 129 -138 129z" />
    <glyph glyph-name="seven.dnom" horiz-adv-x="861" 
d="M368 0h-141c81 339 210 569 385 736h-424l24 108h575l-19 -86c-189 -169 -316 -398 -400 -758z" />
    <glyph glyph-name="eight.dnom" horiz-adv-x="861" 
d="M346 -13c-185 0 -292 76 -291 210c0 138 81 227 210 244l3 18c-67 22 -105 76 -105 147c1 159 113 251 307 251c175 0 275 -73 275 -198c0 -121 -73 -201 -186 -220l-4 -18c78 -21 122 -79 122 -159c1 -175 -119 -275 -331 -275zM436 482c112 0 175 60 175 163
c0 74 -53 117 -144 117c-112 0 -176 -59 -175 -163c0 -74 52 -117 144 -117zM349 82c123 0 192 67 192 184c0 80 -56 126 -155 126c-123 0 -193 -66 -193 -183c0 -81 57 -127 156 -127z" />
    <glyph glyph-name="nine.dnom" horiz-adv-x="861" 
d="M334 -14c-151 0 -253 79 -263 204l129 25c6 -82 59 -131 144 -131c107 0 179 84 215 255l10 49c-43 -43 -109 -69 -192 -69c-145 0 -234 80 -234 212c0 202 119 326 317 326c213 0 309 -134 262 -356l-35 -156c-51 -239 -160 -359 -353 -359zM413 409
c120 0 193 82 193 213c0 86 -55 137 -145 137c-115 0 -186 -85 -186 -221c0 -81 53 -129 138 -129z" />
    <glyph glyph-name="zero.numr" horiz-adv-x="861" 
d="M479 543c-220 0 -322 161 -265 415l27 127c44 219 152 328 330 328c222 0 324 -160 267 -414l-27 -127c-45 -220 -153 -329 -332 -329zM482 642c102 1 158 81 191 236l33 157c39 174 -4 280 -137 279c-102 0 -158 -80 -190 -235l-34 -156c-39 -173 3 -281 137 -281z" />
    <glyph glyph-name="one.numr" horiz-adv-x="861" 
d="M727 556h-588l24 105h249l104 481h-235l20 88c235 5 252 13 299 170h112l-161 -739h199z" />
    <glyph glyph-name="two.numr" horiz-adv-x="861" 
d="M719 556h-553v87c430 305 551 425 550 555c0 75 -45 117 -129 117c-100 0 -150 -57 -169 -180l-132 24c28 169 130 254 311 254c160 0 254 -73 254 -203c0 -152 -107 -272 -492 -539l2 -13c33 2 63 3 95 3h286z" />
    <glyph glyph-name="three.numr" horiz-adv-x="861" 
d="M482 542c-179 0 -285 93 -287 252l136 23c-3 -112 55 -179 155 -179c102 0 166 74 166 189c0 82 -41 118 -111 121l-79 4l12 83l78 1c105 2 166 70 165 164c0 73 -55 117 -141 117c-91 0 -147 -56 -165 -138l-128 26c30 128 131 208 299 208c163 0 268 -77 267 -202
c0 -113 -63 -199 -183 -215l-1 -21c78 -18 122 -72 122 -160c0 -163 -121 -273 -305 -273z" />
    <glyph glyph-name="four.numr" horiz-adv-x="861" 
d="M636 556h-136l39 179h-369l-2 78l458 587h194l-124 -571h110l-21 -94h-110zM553 1137l-245 -308h251l66 285c13 56 28 111 44 163l-24 6c-31 -56 -62 -105 -92 -146z" />
    <glyph glyph-name="five.numr" horiz-adv-x="861" 
d="M466 542c-156 0 -260 73 -284 190l136 35c11 -82 66 -128 150 -128c120 0 196 92 195 231c0 94 -49 141 -139 141c-75 0 -132 -28 -175 -98l-116 32l121 455h525l-23 -106h-397l-66 -236c43 32 98 47 169 47c149 0 238 -83 238 -228c0 -203 -129 -335 -334 -335z" />
    <glyph glyph-name="six.numr" horiz-adv-x="861" 
d="M599 1415c152 0 254 -78 264 -204l-129 -25c-7 83 -59 131 -144 131c-107 0 -179 -84 -215 -254l-10 -49c43 42 109 68 192 68c145 0 234 -80 234 -212c0 -202 -120 -326 -317 -326c-213 0 -309 134 -262 356l35 156c51 239 159 359 352 359zM521 992
c-120 0 -194 -82 -193 -213c0 -85 55 -137 145 -137c115 0 186 85 186 221c-1 81 -53 129 -138 129z" />
    <glyph glyph-name="seven.numr" horiz-adv-x="861" 
d="M486 556h-141c81 339 210 569 385 736h-424l24 108h575l-19 -86c-189 -169 -316 -398 -400 -758z" />
    <glyph glyph-name="eight.numr" horiz-adv-x="861" 
d="M464 543c-185 0 -292 76 -291 210c0 138 81 227 210 244l3 18c-67 22 -105 76 -105 147c1 159 113 251 307 251c175 0 275 -73 275 -198c0 -121 -73 -201 -186 -220l-4 -18c78 -21 122 -79 122 -159c1 -175 -119 -275 -331 -275zM554 1038c112 0 175 60 175 163
c0 74 -53 117 -144 117c-112 0 -176 -59 -175 -163c0 -74 52 -117 144 -117zM467 638c123 0 192 67 192 184c0 80 -56 126 -155 126c-123 0 -193 -66 -193 -183c0 -81 57 -127 156 -127z" />
    <glyph glyph-name="nine.numr" horiz-adv-x="861" 
d="M452 542c-151 0 -253 79 -263 204l129 25c6 -82 59 -131 144 -131c107 0 179 84 215 255l10 49c-43 -43 -109 -69 -192 -69c-145 0 -234 80 -234 212c0 202 119 326 317 326c213 0 309 -134 262 -356l-35 -156c-51 -239 -160 -359 -353 -359zM531 965
c120 0 193 82 193 213c0 86 -55 137 -145 137c-115 0 -186 -85 -186 -221c0 -81 53 -129 138 -129z" />
    <glyph glyph-name="fraction" unicode="&#x2044;" horiz-adv-x="498" 
d="M-161 0h-150l1046 1400h150z" />
    <glyph glyph-name="onehalf" unicode="&#xbd;" horiz-adv-x="2244" 
d="M727 556h-588l24 105h249l104 481h-235l20 88c235 5 252 13 299 170h112l-161 -739h199zM724 0h-150l1046 1400h150zM1984 0h-553v87c430 305 551 425 550 555c0 75 -45 117 -129 117c-100 0 -150 -57 -169 -180l-132 24c28 169 130 254 311 254c160 0 254 -73 254 -203
c0 -152 -107 -272 -492 -539l2 -13c33 2 63 3 95 3h286z" />
    <glyph glyph-name="uni2153" unicode="&#x2153;" horiz-adv-x="2244" 
d="M727 556h-588l24 105h249l104 481h-235l20 88c235 5 252 13 299 170h112l-161 -739h199zM724 0h-150l1046 1400h150zM1747 -14c-179 0 -285 93 -287 252l136 23c-3 -112 55 -179 155 -179c102 0 166 74 166 189c0 82 -41 118 -111 121l-79 4l12 83l78 1
c105 2 166 70 165 164c0 73 -55 117 -141 117c-91 0 -147 -56 -165 -138l-128 26c30 128 131 208 299 208c163 0 268 -77 267 -202c0 -113 -63 -199 -183 -215l-1 -21c78 -18 122 -72 122 -160c0 -163 -121 -273 -305 -273z" />
    <glyph glyph-name="onequarter" unicode="&#xbc;" horiz-adv-x="2186" 
d="M727 556h-588l24 105h249l104 481h-235l20 88c235 5 252 13 299 170h112l-161 -739h199zM724 0h-150l1046 1400h150zM1843 0h-136l39 179h-369l-2 78l458 587h194l-124 -571h110l-21 -94h-110zM1760 581l-245 -308h251l66 285c13 56 28 111 44 163l-24 6
c-31 -56 -62 -105 -92 -146z" />
    <glyph glyph-name="oneeighth" unicode="&#x215b;" horiz-adv-x="2244" 
d="M727 556h-588l24 105h249l104 481h-235l20 88c235 5 252 13 299 170h112l-161 -739h199zM724 0h-150l1046 1400h150zM1729 -13c-185 0 -292 76 -291 210c0 138 81 227 210 244l3 18c-67 22 -105 76 -105 147c1 159 113 251 307 251c175 0 275 -73 275 -198
c0 -121 -73 -201 -186 -220l-4 -18c78 -21 122 -79 122 -159c1 -175 -119 -275 -331 -275zM1819 482c112 0 175 60 175 163c0 74 -53 117 -144 117c-112 0 -176 -59 -175 -163c0 -74 52 -117 144 -117zM1732 82c123 0 192 67 192 184c0 80 -56 126 -155 126
c-123 0 -193 -66 -193 -183c0 -81 57 -127 156 -127z" />
    <glyph glyph-name="uni2154" unicode="&#x2154;" horiz-adv-x="2231" 
d="M719 556h-553v87c430 305 551 425 550 555c0 75 -45 117 -129 117c-100 0 -150 -57 -169 -180l-132 24c28 169 130 254 311 254c160 0 254 -73 254 -203c0 -152 -107 -272 -492 -539l2 -13c33 2 63 3 95 3h286zM711 0h-150l1046 1400h150zM1734 -14
c-179 0 -285 93 -287 252l136 23c-3 -112 55 -179 155 -179c102 0 166 74 166 189c0 82 -41 118 -111 121l-79 4l12 83l78 1c105 2 166 70 165 164c0 73 -55 117 -141 117c-91 0 -147 -56 -165 -138l-128 26c30 128 131 208 299 208c163 0 268 -77 267 -202
c0 -113 -63 -199 -183 -215l-1 -21c78 -18 122 -72 122 -160c0 -163 -121 -273 -305 -273z" />
    <glyph glyph-name="threequarters" unicode="&#xbe;" horiz-adv-x="2162" 
d="M482 542c-179 0 -285 93 -287 252l136 23c-3 -112 55 -179 155 -179c102 0 166 74 166 189c0 82 -41 118 -111 121l-79 4l12 83l78 1c105 2 166 70 165 164c0 73 -55 117 -141 117c-91 0 -147 -56 -165 -138l-128 26c30 128 131 208 299 208c163 0 268 -77 267 -202
c0 -113 -63 -199 -183 -215l-1 -21c78 -18 122 -72 122 -160c0 -163 -121 -273 -305 -273zM700 0h-150l1046 1400h150zM1819 0h-136l39 179h-369l-2 78l458 587h194l-124 -571h110l-21 -94h-110zM1736 581l-245 -308h251l66 285c13 56 28 111 44 163l-24 6
c-31 -56 -62 -105 -92 -146z" />
    <glyph glyph-name="threeeighths" unicode="&#x215c;" horiz-adv-x="2220" 
d="M482 542c-179 0 -285 93 -287 252l136 23c-3 -112 55 -179 155 -179c102 0 166 74 166 189c0 82 -41 118 -111 121l-79 4l12 83l78 1c105 2 166 70 165 164c0 73 -55 117 -141 117c-91 0 -147 -56 -165 -138l-128 26c30 128 131 208 299 208c163 0 268 -77 267 -202
c0 -113 -63 -199 -183 -215l-1 -21c78 -18 122 -72 122 -160c0 -163 -121 -273 -305 -273zM700 0h-150l1046 1400h150zM1705 -13c-185 0 -292 76 -291 210c0 138 81 227 210 244l3 18c-67 22 -105 76 -105 147c1 159 113 251 307 251c175 0 275 -73 275 -198
c0 -121 -73 -201 -186 -220l-4 -18c78 -21 122 -79 122 -159c1 -175 -119 -275 -331 -275zM1795 482c112 0 175 60 175 163c0 74 -53 117 -144 117c-112 0 -176 -59 -175 -163c0 -74 52 -117 144 -117zM1708 82c123 0 192 67 192 184c0 80 -56 126 -155 126
c-123 0 -193 -66 -193 -183c0 -81 57 -127 156 -127z" />
    <glyph glyph-name="fiveeighths" unicode="&#x215d;" horiz-adv-x="2220" 
d="M466 542c-156 0 -260 73 -284 190l136 35c11 -82 66 -128 150 -128c120 0 196 92 195 231c0 94 -49 141 -139 141c-75 0 -132 -28 -175 -98l-116 32l121 455h525l-23 -106h-397l-66 -236c43 32 98 47 169 47c149 0 238 -83 238 -228c0 -203 -129 -335 -334 -335zM700 0
h-150l1046 1400h150zM1705 -13c-185 0 -292 76 -291 210c0 138 81 227 210 244l3 18c-67 22 -105 76 -105 147c1 159 113 251 307 251c175 0 275 -73 275 -198c0 -121 -73 -201 -186 -220l-4 -18c78 -21 122 -79 122 -159c1 -175 -119 -275 -331 -275zM1795 482
c112 0 175 60 175 163c0 74 -53 117 -144 117c-112 0 -176 -59 -175 -163c0 -74 52 -117 144 -117zM1708 82c123 0 192 67 192 184c0 80 -56 126 -155 126c-123 0 -193 -66 -193 -183c0 -81 57 -127 156 -127z" />
    <glyph glyph-name="seveneighths" unicode="&#x215e;" horiz-adv-x="2161" 
d="M486 556h-141c81 339 210 569 385 736h-424l24 108h575l-19 -86c-189 -169 -316 -398 -400 -758zM641 0h-150l1046 1400h150zM1646 -13c-185 0 -292 76 -291 210c0 138 81 227 210 244l3 18c-67 22 -105 76 -105 147c1 159 113 251 307 251c175 0 275 -73 275 -198
c0 -121 -73 -201 -186 -220l-4 -18c78 -21 122 -79 122 -159c1 -175 -119 -275 -331 -275zM1736 482c112 0 175 60 175 163c0 74 -53 117 -144 117c-112 0 -176 -59 -175 -163c0 -74 52 -117 144 -117zM1649 82c123 0 192 67 192 184c0 80 -56 126 -155 126
c-123 0 -193 -66 -193 -183c0 -81 57 -127 156 -127z" />
    <glyph glyph-name="uni2003" unicode="&#x2003;" horiz-adv-x="2190" 
 />
    <glyph glyph-name="uni2002" unicode="&#x2002;" horiz-adv-x="1095" 
 />
    <glyph glyph-name="uni2004" unicode="&#x2004;" horiz-adv-x="730" 
 />
    <glyph glyph-name="uni2005" unicode="&#x2005;" horiz-adv-x="548" 
 />
    <glyph glyph-name="uni2006" unicode="&#x2006;" horiz-adv-x="365" 
 />
    <glyph glyph-name="uni2009" unicode="&#x2009;" horiz-adv-x="274" 
 />
    <glyph glyph-name="uni200A" unicode="&#x200a;" horiz-adv-x="183" 
 />
    <glyph glyph-name="uni2008" unicode="&#x2008;" horiz-adv-x="524" 
 />
    <glyph glyph-name="uni2007" unicode="&#x2007;" horiz-adv-x="1281" 
 />
    <glyph glyph-name="uni2008.tf" horiz-adv-x="641" 
 />
    <glyph glyph-name="period" unicode="." horiz-adv-x="524" 
d="M39 0l44 202h217l-45 -202h-216z" />
    <glyph glyph-name="comma" unicode="," horiz-adv-x="521" 
d="M-27 -305l-14 76c109 23 157 71 190 229h-111l43 202h217l-37 -171c-50 -230 -133 -305 -288 -336z" />
    <glyph glyph-name="colon" unicode=":" horiz-adv-x="528" 
d="M224 847l44 202h216l-44 -202h-216zM39 0l44 202h217l-45 -202h-216z" />
    <glyph glyph-name="semicolon" unicode=";" horiz-adv-x="523" 
d="M219 848l44 202h217l-45 -202h-216zM-27 -305l-14 76c109 23 157 71 190 229h-111l43 202h217l-37 -171c-50 -230 -133 -305 -288 -336z" />
    <glyph glyph-name="ellipsis" unicode="&#x2026;" horiz-adv-x="1300" 
d="M247 0h-208l44 202h209zM639 0h-208l44 202h209zM1032 0h-209l45 202h208z" />
    <glyph glyph-name="exclam" unicode="!" horiz-adv-x="524" 
d="M302 411h-128l187 989h182zM39 0l44 202h217l-45 -202h-216z" />
    <glyph glyph-name="exclamdown" unicode="&#xa1;" horiz-adv-x="524" 
d="M481 1050l-44 -202h-217l45 202h216zM218 639h128l-187 -989h-182z" />
    <glyph glyph-name="question" unicode="?" horiz-adv-x="1021" 
d="M534 410h-165c-36 138 36 226 163 324l126 97c127 96 204 181 204 300c0 102 -65 158 -193 158c-166 0 -245 -97 -270 -310l-168 34c34 256 179 407 444 407c222 0 351 -109 351 -281c0 -173 -120 -287 -257 -387l-129 -97c-130 -97 -175 -150 -98 -218zM284 0l44 202
h216l-44 -202h-216z" />
    <glyph glyph-name="questiondown" unicode="&#xbf;" horiz-adv-x="1021" 
d="M745 1050l-44 -202h-216l44 202h216zM495 640h165c36 -138 -36 -226 -163 -324l-126 -97c-127 -96 -204 -181 -204 -300c0 -102 65 -158 193 -158c166 0 245 97 270 310l168 -34c-34 -256 -179 -407 -444 -407c-222 0 -352 109 -352 281c0 173 121 287 258 387l129 97
c130 97 175 150 97 218z" />
    <glyph glyph-name="periodcentered" unicode="&#xb7;" horiz-adv-x="524" 
d="M143 489l45 203h216l-44 -203h-217z" />
    <glyph glyph-name="bullet" unicode="&#x2022;" horiz-adv-x="859" 
d="M534 461h-246l53 243h246z" />
    <glyph glyph-name="asterisk" unicode="*" horiz-adv-x="906" 
d="M551 988l-193 -211l-91 102l230 170l-260 118l68 119l233 -167l32 284l134 -29l-87 -272l281 57l14 -136l-286 -2l140 -248l-124 -56z" />
    <glyph glyph-name="numbersign" unicode="#" horiz-adv-x="1285" 
d="M1308 1019l-11 -117h-249l-113 -403h238l-12 -116h-258l-108 -383h-133l108 383h-358l-108 -383h-133l108 383h-228l12 116h248l113 403h-237l11 117h259l107 381h134l-107 -381h357l107 381h133l-107 -381h227zM444 499h358l113 403h-357z" />
    <glyph glyph-name="slash" unicode="/" horiz-adv-x="694" 
d="M59 -200h-165l783 1650h165z" />
    <glyph glyph-name="backslash" unicode="\" horiz-adv-x="838" 
d="M395 1450l241 -1650h-149l-242 1650h150z" />
    <glyph glyph-name="parenleft" unicode="(" horiz-adv-x="654" 
d="M452 -200h-151c-96 158 -148 354 -148 576c0 411 182 835 453 1074h174c-296 -262 -474 -669 -474 -1090c0 -219 52 -409 146 -560z" />
    <glyph glyph-name="parenright" unicode=")" horiz-adv-x="654" 
d="M245 1450h151c96 -158 148 -354 148 -576c0 -411 -182 -835 -453 -1074h-174c296 262 473 669 473 1090c0 219 -51 409 -145 560z" />
    <glyph glyph-name="braceleft" unicode="{" horiz-adv-x="641" 
d="M382 -200h-118c-153 0 -217 81 -185 227l85 388c19 87 -12 141 -92 164l29 135c87 7 139 52 157 137l84 386c32 144 115 213 264 213h136l-27 -129h-84c-74 0 -118 -35 -134 -110l-84 -384c-22 -102 -75 -163 -165 -178l-5 -33c76 -30 101 -99 78 -204l-79 -373
c-16 -73 13 -110 85 -110h83z" />
    <glyph glyph-name="braceright" unicode="}" horiz-adv-x="642" 
d="M302 1450h118c153 0 217 -81 185 -227l-85 -388c-19 -87 12 -141 93 -164l-30 -135c-87 -7 -139 -52 -157 -137l-84 -386c-31 -144 -115 -213 -264 -213h-136l27 129h84c75 0 118 35 134 110l84 384c22 102 75 163 165 178l5 33c-76 30 -101 99 -78 204l79 373
c16 73 -13 110 -85 110h-83z" />
    <glyph glyph-name="bracketleft" unicode="[" horiz-adv-x="682" 
d="M424 -200h-382l360 1650h382l-28 -129h-219l-304 -1392h218z" />
    <glyph glyph-name="bracketright" unicode="]" horiz-adv-x="682" 
d="M302 1450h381l-360 -1650h-381l27 129h219l304 1392h-218z" />
    <glyph glyph-name="hyphen" unicode="-" horiz-adv-x="857" 
d="M703 525h-550l28 131h551z" />
    <glyph glyph-name="endash" unicode="&#x2013;" horiz-adv-x="1214" 
d="M1061 530h-907l25 118h907z" />
    <glyph glyph-name="emdash" unicode="&#x2014;" horiz-adv-x="1653" 
d="M1500 531h-1346l25 118h1347z" />
    <glyph glyph-name="underscore" unicode="_" horiz-adv-x="548" 
d="M394 -200h-548l26 119h547z" />
    <glyph glyph-name="quotesinglbase" unicode="&#x201a;" horiz-adv-x="521" 
d="M-27 -305l-14 76c109 23 157 71 190 229h-111l43 202h217l-37 -171c-50 -230 -133 -305 -288 -336z" />
    <glyph glyph-name="quotedblbase" unicode="&#x201e;" horiz-adv-x="862" 
d="M-27 -305l-14 76c109 23 157 71 190 229h-111l43 202h217l-37 -171c-50 -230 -133 -305 -288 -336zM313 -305l-14 76c109 23 158 71 191 229h-111l42 202h217l-37 -171c-49 -230 -133 -305 -288 -336z" />
    <glyph glyph-name="quotedblleft" unicode="&#x201c;" horiz-adv-x="862" 
d="M563 1420l14 -75c-109 -24 -158 -71 -191 -229h111l-43 -202h-216l37 171c49 229 133 305 288 335zM903 1420l14 -75c-109 -24 -157 -71 -191 -229h112l-43 -202h-217l37 171c50 229 133 305 288 335z" />
    <glyph glyph-name="quotedblright" unicode="&#x201d;" horiz-adv-x="861" 
d="M227 893l-14 76c109 23 157 71 191 229h-112l43 202h217l-37 -171c-50 -230 -133 -305 -288 -336zM567 893l-14 76c109 23 158 71 191 229h-111l43 202h216l-37 -171c-49 -230 -133 -305 -288 -336z" />
    <glyph glyph-name="quoteleft" unicode="&#x2018;" horiz-adv-x="521" 
d="M566 1436l14 -76c-109 -23 -158 -71 -191 -229h112l-43 -202h-217l37 171c50 230 133 305 288 336z" />
    <glyph glyph-name="quoteright" unicode="&#x2019;" horiz-adv-x="521" 
d="M227 893l-14 76c109 23 157 71 191 229h-112l43 202h217l-37 -171c-50 -230 -133 -305 -288 -336z" />
    <glyph glyph-name="guillemotleft" unicode="&#xab;" horiz-adv-x="1095" 
d="M506 100h-150l-218 461l353 389h164l-352 -401zM868 100h-151l-198 436l366 414h168l-370 -426z" />
    <glyph glyph-name="guillemotright" unicode="&#xbb;" horiz-adv-x="1095" 
d="M227 950h150l198 -436l-365 -414h-169l371 426zM589 950h150l217 -461l-353 -389h-164l353 401z" />
    <glyph glyph-name="guilsinglleft" unicode="&#x2039;" horiz-adv-x="718" 
d="M493 100h-151l-205 456l363 394h170l-369 -412z" />
    <glyph glyph-name="guilsinglright" unicode="&#x203a;" horiz-adv-x="718" 
d="M225 950h151l205 -456l-363 -394h-170l369 412z" />
    <glyph glyph-name="quotedbl" unicode="&#x22;" horiz-adv-x="766" 
d="M360 907h-94l71 493h167zM653 907h-94l71 493h167z" />
    <glyph glyph-name="quotesingle" unicode="'" horiz-adv-x="473" 
d="M360 907h-94l71 493h167z" />
    <glyph glyph-name="colon.case" horiz-adv-x="528" 
d="M262 1023l44 202h216l-44 -202h-216zM77 176l44 202h217l-45 -202h-216z" />
    <glyph glyph-name="semicolon.case" horiz-adv-x="523" 
d="M256 1023l44 202h217l-45 -202h-216zM10 -130l-14 76c109 23 157 71 190 229h-111l43 202h217l-37 -171c-50 -230 -133 -305 -288 -336z" />
    <glyph glyph-name="bullet.case" horiz-adv-x="860" 
d="M569 626h-246l53 243h246z" />
    <glyph glyph-name="parenleft.case" horiz-adv-x="646" 
d="M466 -50h-151c-99 156 -148 325 -148 526c0 370 179 746 454 974h174c-299 -249 -474 -611 -474 -990c0 -197 48 -361 145 -510z" />
    <glyph glyph-name="parenright.case" horiz-adv-x="647" 
d="M255 1450h151c99 -156 148 -325 148 -526c0 -370 -179 -746 -453 -974h-174c299 249 473 611 473 990c0 197 -48 361 -145 510z" />
    <glyph glyph-name="braceleft.case" horiz-adv-x="642" 
d="M416 -50h-119c-151 0 -218 76 -186 223l68 313c19 88 -12 143 -92 165l29 134c86 9 139 52 157 138l70 314c32 144 115 213 264 213h137l-28 -129h-84c-75 0 -118 -35 -134 -110l-70 -313c-21 -101 -76 -163 -166 -177l-5 -34c77 -30 102 -98 80 -201l-62 -297
c-16 -74 12 -110 85 -110h84z" />
    <glyph glyph-name="braceright.case" horiz-adv-x="643" 
d="M301 1450h119c151 0 219 -76 186 -223l-68 -313c-19 -88 12 -143 93 -165l-30 -134c-86 -9 -139 -52 -157 -138l-70 -314c-32 -144 -115 -213 -264 -213h-136l28 129h83c75 0 118 35 134 110l70 313c22 101 76 163 166 177l5 34c-77 30 -102 98 -80 201l62 297
c16 74 -12 110 -85 110h-84z" />
    <glyph glyph-name="bracketleft.case" horiz-adv-x="682" 
d="M455 -50h-381l328 1500h381l-28 -129h-220l-272 -1242h221z" />
    <glyph glyph-name="bracketright.case" horiz-adv-x="682" 
d="M302 1450h380l-327 -1500h-381l27 129h220l272 1242h-220z" />
    <glyph glyph-name="hyphen.case" horiz-adv-x="857" 
d="M727 639h-550l29 132h551z" />
    <glyph glyph-name="endash.case" horiz-adv-x="1213" 
d="M1085 644h-907l25 118h908z" />
    <glyph glyph-name="emdash.case" horiz-adv-x="1652" 
d="M1525 645h-1347l26 118h1346z" />
    <glyph glyph-name="guillemotleft.case" horiz-adv-x="1094" 
d="M543 275h-149l-218 461l353 389h164l-353 -401zM905 275h-150l-198 436l366 414h168l-371 -426z" />
    <glyph glyph-name="guillemotright.case" horiz-adv-x="1095" 
d="M264 1125h150l199 -436l-366 -414h-169l371 426zM626 1125h150l217 -461l-353 -389h-164l353 401z" />
    <glyph glyph-name="guilsinglleft.case" horiz-adv-x="718" 
d="M530 275h-150l-205 456l362 394h171l-369 -412z" />
    <glyph glyph-name="guilsinglright.case" horiz-adv-x="718" 
d="M263 1125h150l205 -456l-362 -394h-171l369 412z" />
    <glyph glyph-name="exclamdown.case" horiz-adv-x="524" 
d="M555 1400l-44 -202h-217l45 202h216zM292 989h128l-187 -989h-182z" />
    <glyph glyph-name="questiondown.case" horiz-adv-x="1020" 
d="M819 1400l-44 -202h-216l44 202h216zM569 990h165c36 -138 -36 -226 -162 -324l-127 -97c-127 -96 -204 -181 -204 -300c0 -102 65 -158 193 -158c166 0 246 97 270 310l168 -34c-34 -256 -179 -407 -443 -407c-223 0 -352 109 -352 281c0 173 120 287 257 387l129 97
c130 97 175 150 98 218z" />
    <glyph glyph-name="period.tf" horiz-adv-x="641" 
d="M91 0l44 202h217l-45 -202h-216z" />
    <glyph glyph-name="comma.tf" horiz-adv-x="641" 
d="M25 -305l-14 76c109 23 158 71 191 229h-111l42 202h217l-37 -171c-49 -230 -133 -305 -288 -336z" />
    <glyph glyph-name="colon.case.tf" horiz-adv-x="641" 
d="M311 1023l44 202h217l-45 -202h-216zM126 176l44 202h217l-44 -202h-217z" />
    <glyph glyph-name="semicolon.case.tf" horiz-adv-x="641" 
d="M308 1023l44 202h216l-44 -202h-216zM61 -129l-14 75c109 24 158 72 191 229h-111l43 203h216l-37 -172c-49 -229 -133 -305 -288 -335z" />
    <glyph glyph-name="dollar" unicode="$" horiz-adv-x="1278" 
d="M1186 968l-163 -31c33 237 -56 356 -269 356c-162 0 -265 -68 -269 -200c-3 -96 41 -164 202 -271l152 -99c156 -103 247 -211 242 -381c-7 -229 -182 -362 -466 -362l-44 -202h-154l48 216c-233 48 -355 214 -325 479l172 34c-40 -272 75 -400 312 -400
c174 0 283 75 288 217c4 107 -40 178 -197 284l-154 103c-162 111 -244 204 -241 365c6 221 173 344 438 344h12l46 212h153l-50 -231c199 -51 296 -207 267 -433z" />
    <glyph glyph-name="cent" unicode="&#xa2;" horiz-adv-x="1118" 
d="M1050 869l-170 -18c33 183 -56 279 -213 279c-163 0 -257 -108 -304 -322l-39 -173c-51 -233 30 -364 213 -364c141 0 232 86 282 260l159 -49c-65 -205 -207 -317 -422 -325l-44 -203h-153l46 216c-207 50 -301 235 -243 501l33 146c57 264 203 416 446 428l45 211h153
l-48 -222c178 -39 285 -170 259 -365z" />
    <glyph glyph-name="Euro" unicode="&#x20ac;" horiz-adv-x="1367" 
d="M1284 895l-175 -27c50 290 -53 425 -255 425c-200 0 -319 -138 -388 -410h461l-45 -103h-440l-39 -164h411l-45 -103h-383c-32 -267 81 -405 286 -405c184 0 305 126 369 414l162 -56c-76 -326 -267 -486 -539 -486c-301 0 -475 197 -446 533h-130l22 103h122l6 29
l31 135h-125l22 103h127c86 344 265 537 569 537c286 0 474 -183 422 -525z" />
    <glyph glyph-name="sterling" unicode="&#xa3;" horiz-adv-x="1231" 
d="M810 1420c236 0 391 -141 390 -343l-166 -36c-1 158 -84 247 -231 247c-149 0 -225 -71 -263 -250l-69 -326h485l-25 -125h-487l-22 -104c-37 -177 -84 -265 -177 -329l7 -24c52 2 100 2 155 2h621l-28 -132h-976l3 93c127 80 182 182 225 384l24 110h-158l25 125h160
l70 328c55 260 191 380 437 380z" />
    <glyph glyph-name="yen" unicode="&#xa5;" horiz-adv-x="1160" 
d="M1067 1400h191l-569 -823h272l-23 -108h-290l-31 -145h291l-23 -108h-292l-46 -216h-173l48 216h-290l23 108h291l32 145h-293l24 108h287l-222 823h175l106 -423c19 -83 33 -159 41 -266l31 -2c54 109 100 183 155 268z" />
    <glyph glyph-name="uni20BD" unicode="&#x20bd;" horiz-adv-x="1196" 
d="M647 548h-270l-43 -195h410l-27 -125h-410l-50 -228h-173l50 228h-161l26 125h162l43 194h-164l28 131h164l158 722h410c245 0 378 -114 378 -331c0 -266 -160 -521 -531 -521zM763 1270h-228l-130 -592h245c254 0 357 185 357 379c0 140 -85 213 -244 213z" />
    <glyph glyph-name="uni20B4" unicode="&#x20b4;" horiz-adv-x="1522" 
d="M1168 887h279l-25 -121h-1219l25 121h782c109 79 162 158 162 252c0 99 -89 156 -245 156c-178 0 -299 -88 -333 -240l-153 40c52 207 231 325 496 325c252 0 399 -98 399 -264c0 -102 -56 -194 -168 -269zM400 530h-247l26 122h1218l-25 -122h-813
c-109 -78 -164 -160 -164 -257c0 -107 95 -168 269 -168c203 0 340 97 378 266l162 -43c-59 -221 -256 -348 -545 -348c-277 0 -435 100 -435 273c0 105 61 200 176 277z" />
    <glyph glyph-name="uni20B8" unicode="&#x20b8;" horiz-adv-x="1110" 
d="M1180 1268h-934l28 132h935zM530 0h-174l209 982h-380l28 132h934l-27 -132h-381z" />
    <glyph glyph-name="currency" unicode="&#xa4;" horiz-adv-x="1331" 
d="M441 406l-191 -156l-81 101l191 154c-36 56 -55 124 -55 198c0 106 37 198 99 263l-151 187l100 81l153 -188c54 31 118 48 189 48c107 0 199 -38 265 -102l196 158l81 -101l-198 -160c29 -53 46 -116 46 -186c0 -102 -35 -190 -94 -256l162 -200l-101 -81l-162 200
c-55 -33 -122 -51 -195 -51c-101 0 -189 33 -254 91zM695 445c151 0 260 109 260 258c0 152 -109 261 -260 261s-261 -109 -261 -261c0 -149 110 -258 261 -258z" />
    <glyph glyph-name="ampersand" unicode="&#x26;" horiz-adv-x="1254" 
d="M898 186c32 -62 75 -88 134 -88c22 0 50 4 74 11l-29 -112c-29 -12 -58 -17 -94 -17c-86 0 -150 37 -198 111c-99 -69 -213 -111 -340 -111c-228 0 -357 108 -357 294c0 196 123 341 381 475c-70 149 -98 231 -95 328c5 221 140 343 394 343c206 0 324 -94 324 -261
c0 -164 -102 -290 -437 -450l188 -396c74 94 128 208 158 318l135 -56c-48 -138 -130 -279 -238 -389zM528 1078c-2 -78 18 -145 77 -265c273 129 337 221 337 331c0 101 -63 155 -184 155c-146 0 -227 -80 -230 -221zM246 299c0 -124 76 -198 217 -198c99 0 189 38 267 98
l-209 442c-190 -109 -275 -213 -275 -342z" />
    <glyph glyph-name="at" unicode="@" horiz-adv-x="2064" 
d="M929 -412c-472 0 -782 300 -782 770c0 634 413 1090 988 1090c475 0 787 -295 787 -757c0 -410 -201 -711 -482 -711c-167 1 -238 102 -189 264l-32 8c-90 -179 -221 -272 -403 -272c-159 0 -251 83 -251 211c0 228 206 340 465 400l247 53l19 98
c26 143 -47 215 -189 215c-158 0 -240 -80 -251 -215l-159 35c20 173 157 293 417 293c255 0 390 -127 342 -351l-96 -458c-22 -107 10 -164 95 -165c189 0 326 252 325 593c0 394 -257 643 -648 643c-489 0 -843 -407 -843 -969c0 -404 255 -660 644 -660
c175 0 335 35 470 98l27 -109c-137 -68 -308 -104 -501 -104zM880 100c152 0 305 130 348 322l24 107l-191 -41c-188 -45 -322 -122 -322 -266c-1 -78 50 -122 141 -122z" />
    <glyph glyph-name="at.case" horiz-adv-x="2064" 
d="M967 -232c-471 0 -782 300 -782 771c0 634 413 1089 988 1089c475 0 788 -294 788 -756c0 -410 -201 -712 -483 -711c-166 0 -237 102 -189 264l-31 8c-90 -180 -222 -272 -404 -272c-159 0 -251 83 -251 211c1 227 207 340 465 399l247 54l19 98
c27 143 -47 215 -189 215c-157 0 -240 -80 -250 -215l-159 35c20 173 157 293 417 293c254 0 390 -127 342 -351l-96 -458c-23 -107 9 -165 94 -165c190 0 326 252 326 593c0 394 -257 643 -648 643c-490 0 -844 -407 -844 -969c0 -404 256 -660 644 -660
c176 0 336 35 471 98l27 -109c-138 -69 -309 -105 -502 -105zM919 280c152 0 304 131 348 323l23 107l-190 -42c-188 -45 -323 -122 -323 -265c0 -78 50 -123 142 -123z" />
    <glyph glyph-name="copyright" unicode="&#xa9;" horiz-adv-x="2099" 
d="M983 -401c-500 0 -824 318 -824 807c0 634 375 1047 955 1047c502 0 827 -318 827 -806c0 -636 -376 -1048 -958 -1048zM986 -286c492 0 810 367 811 928c0 421 -270 696 -686 696c-491 0 -809 -366 -809 -927c0 -422 269 -697 684 -697zM977 -20
c-294 0 -436 200 -368 515l32 146c60 276 217 429 479 429c247 0 408 -142 376 -377l-170 -18c33 183 -55 280 -212 280c-164 0 -257 -109 -304 -323l-39 -172c-51 -233 30 -365 213 -365c141 0 231 86 282 261l159 -50c-68 -213 -219 -326 -448 -326z" />
    <glyph glyph-name="copyright.case" horiz-adv-x="2099" 
d="M1021 -227c-501 0 -825 318 -825 808c0 634 375 1046 955 1046c502 0 827 -317 827 -806c0 -635 -376 -1048 -957 -1048zM1023 -111c492 0 811 366 811 928c0 421 -270 695 -685 695c-492 0 -810 -366 -810 -926c0 -422 269 -697 684 -697zM1014 154
c-293 0 -436 201 -368 515l32 146c60 276 217 430 479 430c247 0 408 -142 377 -377l-170 -18c32 183 -56 279 -213 279c-164 0 -257 -108 -304 -322l-39 -173c-51 -233 30 -364 213 -364c141 0 232 86 282 260l159 -49c-68 -213 -218 -327 -448 -327z" />
    <glyph glyph-name="registered" unicode="&#xae;" horiz-adv-x="1152" 
d="M664 631c-241 0 -398 150 -398 382c0 247 173 423 438 423c241 0 398 -151 398 -383c0 -250 -172 -422 -438 -422zM664 701c217 0 357 139 357 352c0 190 -124 313 -317 313c-216 0 -357 -139 -357 -353c0 -189 125 -312 317 -312zM566 826h-81l90 422h180
c86 0 132 -33 132 -97c0 -63 -44 -101 -125 -106l-3 -18c30 -6 44 -14 48 -63l3 -50c4 -49 12 -62 26 -72l-6 -16h-89c-6 18 -9 41 -11 86l-2 46c-2 45 -10 54 -55 54h-67zM644 1188l-25 -117h93c60 0 92 24 92 68c0 32 -22 49 -64 49h-96z" />
    <glyph glyph-name="trademark" unicode="&#x2122;" horiz-adv-x="1433" 
d="M408 772h-106l113 540h-159l18 88h425l-18 -88h-159zM742 772h-95l132 628h158l40 -375c6 -37 7 -81 4 -133l20 -2c20 53 40 97 60 134l198 376h162l-132 -628h-101l76 354c10 45 20 89 36 147l-21 3l-263 -504h-102l-49 505l-22 -1c-10 -57 -17 -101 -27 -150z" />
    <glyph glyph-name="paragraph" unicode="&#xb6;" horiz-adv-x="1509" 
d="M583 -350h-157l179 834c-221 38 -356 199 -356 438c0 296 198 478 562 478h733l-29 -133h-186l-342 -1617h-157l343 1617h-249z" />
    <glyph glyph-name="section" unicode="&#xa7;" horiz-adv-x="1161" 
d="M1124 1127l-159 -23c13 130 -76 209 -239 209c-137 0 -218 -50 -220 -136c-3 -69 33 -110 170 -168l138 -57c136 -58 232 -119 228 -250c-3 -117 -89 -188 -244 -202l-5 -35c100 -55 148 -122 145 -222c-4 -163 -165 -263 -409 -263c-271 0 -443 125 -426 320l164 25
c-16 -143 84 -236 268 -236c141 0 236 52 238 140c3 77 -45 116 -184 176l-138 60c-139 60 -223 124 -220 242c3 121 88 201 254 211l4 35c-96 55 -143 124 -140 218c3 159 153 249 379 249c247 0 410 -112 396 -293zM883 688c3 75 -47 114 -187 173l-59 25
c-179 -19 -245 -73 -247 -154c-3 -72 59 -113 202 -176l48 -21c171 22 241 75 243 153z" />
    <glyph glyph-name="uni2116" unicode="&#x2116;" horiz-adv-x="2129" 
d="M1740 543c-221 0 -323 161 -266 415l27 127c44 219 152 328 330 328c222 0 324 -160 267 -414l-27 -127c-45 -220 -153 -329 -331 -329zM249 0h-165l305 1400h200l250 -867c23 -87 48 -222 62 -327l36 1c7 133 28 299 53 414l169 779h165l-305 -1400h-196l-248 859
c-24 92 -50 232 -64 340l-37 -1c-5 -125 -27 -289 -52 -404zM1742 642c102 1 159 81 191 236l33 157c40 174 -4 280 -137 279c-102 0 -157 -80 -190 -235l-34 -156c-39 -173 3 -281 137 -281zM1928 245h-597l26 121h597z" />
    <glyph glyph-name="dagger" unicode="&#x2020;" horiz-adv-x="1238" 
d="M460 -316l-38 8c56 416 132 825 214 1231l-343 53l33 156l334 -92l60 352l159 -34l-89 -345l344 -53l-33 -156l-335 92c-91 -404 -188 -809 -306 -1212z" />
    <glyph glyph-name="daggerdbl" unicode="&#x2021;" horiz-adv-x="1239" 
d="M519 -335l-159 34l89 345l-343 53l32 152l341 -92l90 379l72 383l-349 54l33 152l335 -92l60 352l159 -34l-89 -345l343 -53l-32 -152l-341 92l-91 -379l-72 -383l349 -54l-32 -152l-335 92z" />
    <glyph glyph-name="plus" unicode="+" horiz-adv-x="1191" 
d="M640 209h-131l39 367h-371l13 126h371l39 366h131l-39 -366h371l-14 -126h-370z" />
    <glyph glyph-name="minus" unicode="&#x2212;" horiz-adv-x="1101" 
d="M958 574h-781l14 131h781z" />
    <glyph glyph-name="multiply" unicode="&#xd7;" horiz-adv-x="1236" 
d="M634 545l-301 -273l-85 93l302 274l-239 267l98 88l240 -268l298 270l84 -94l-298 -269l239 -268l-97 -88z" />
    <glyph glyph-name="divide" unicode="&#xf7;" horiz-adv-x="1135" 
d="M721 866h-212l21 205h212zM993 576h-816l13 126h816zM652 206h-213l22 205h212z" />
    <glyph glyph-name="equal" unicode="=" horiz-adv-x="1298" 
d="M1079 754h-788l15 130h786zM1040 395h-786l14 131h787z" />
    <glyph glyph-name="notequal" unicode="&#x2260;" horiz-adv-x="1298" 
d="M1098 911l-14 -131h-283l-112 -227h371l-14 -131h-422l-121 -245h-133l121 245h-232l15 131h282l112 227h-371l15 131h421l121 244h133l-121 -244h232z" />
    <glyph glyph-name="greater" unicode="&#x3e;" horiz-adv-x="1238" 
d="M316 861l14 137l780 -275l-19 -171l-837 -272l16 144l480 152c70 21 139 37 205 50l1 31c-62 13 -128 30 -193 51z" />
    <glyph glyph-name="less" unicode="&#x3c;" horiz-adv-x="1238" 
d="M971 417l-14 -136l-780 275l18 170l837 273l-15 -144l-480 -152c-70 -21 -139 -37 -205 -50l-1 -31c62 -14 128 -31 193 -52z" />
    <glyph glyph-name="greaterequal" unicode="&#x2265;" horiz-adv-x="1286" 
d="M346 1002l14 136l780 -275l-19 -170l-837 -273l15 144l481 152c70 21 139 37 205 50l1 31c-63 13 -128 31 -193 51zM1066 212h-809l13 126h809z" />
    <glyph glyph-name="lessequal" unicode="&#x2264;" horiz-adv-x="1266" 
d="M1001 556l-14 -136l-780 275l19 171l837 272l-16 -144l-480 -152c-70 -21 -139 -37 -205 -50l-1 -31c62 -13 128 -30 193 -51zM969 212h-808l13 126h809z" />
    <glyph glyph-name="plusminus" unicode="&#xb1;" horiz-adv-x="1363" 
d="M743 473h-130l30 283h-350l13 128h350l30 283h131l-30 -283h349l-13 -128h-350zM1065 202h-831l14 128h830z" />
    <glyph glyph-name="approxequal" unicode="&#x2248;" horiz-adv-x="1314" 
d="M906 705c-167 0 -263 185 -384 185c-73 0 -118 -64 -133 -167l-114 4c24 186 110 292 245 292c164 0 261 -185 382 -185c72 0 116 59 131 154l114 -4c-24 -178 -110 -279 -241 -279zM848 278c-167 0 -263 185 -384 185c-73 0 -118 -63 -133 -167l-114 4
c24 187 110 293 246 293c163 0 260 -185 382 -185c72 0 115 59 130 154l114 -4c-23 -179 -110 -280 -241 -280z" />
    <glyph glyph-name="asciitilde" unicode="~" horiz-adv-x="1281" 
d="M858 483c-167 0 -262 184 -383 184c-74 0 -118 -63 -134 -167l-113 4c24 187 109 293 245 293c164 0 260 -185 382 -185c72 0 116 59 131 154l114 -4c-24 -179 -110 -279 -242 -279z" />
    <glyph glyph-name="logicalnot" unicode="&#xac;" horiz-adv-x="1293" 
d="M1034 385h-139l33 303h-650l14 131h788z" />
    <glyph glyph-name="asciicircum" unicode="^" horiz-adv-x="1313" 
d="M437 844h-173l446 556h144l330 -556h-169l-155 255c-27 47 -55 107 -75 163l-30 1c-30 -55 -69 -114 -108 -164z" />
    <glyph glyph-name="infinity" unicode="&#x221e;" horiz-adv-x="1723" 
d="M1317 1103c223 0 333 -142 304 -396l-5 -52c-24 -229 -154 -357 -362 -357c-196 0 -290 124 -362 265c-96 -141 -213 -265 -412 -265c-223 0 -332 141 -304 395l5 51c25 230 155 359 362 359c196 0 290 -124 362 -265c96 141 213 265 412 265zM1474 670l6 47
c17 156 -48 244 -180 244c-148 0 -235 -127 -325 -270c64 -134 132 -250 277 -250c126 0 207 83 222 229zM497 439c148 0 236 127 326 270c-64 134 -133 250 -278 250c-125 0 -207 -83 -222 -229l-5 -47c-17 -156 47 -244 179 -244z" />
    <glyph glyph-name="percent" unicode="%" horiz-adv-x="1770" 
d="M519 720c-217 0 -317 141 -271 355l17 78c38 173 144 267 308 267c219 0 319 -141 274 -357l-17 -78c-36 -172 -144 -265 -311 -265zM461 0h-174l1097 1400h174zM518 822c89 0 148 63 173 179l20 92c30 137 -23 226 -134 226c-89 0 -147 -64 -173 -181l-20 -93
c-29 -135 22 -224 134 -223zM1269 -19c-217 0 -317 141 -271 355l17 78c37 173 143 267 308 267c219 0 319 -142 273 -357l-17 -79c-37 -171 -144 -264 -310 -264zM1268 83c89 0 146 64 172 178l21 92c30 138 -23 227 -136 227c-88 0 -146 -64 -171 -181l-21 -92
c-29 -136 22 -224 135 -224z" />
    <glyph glyph-name="perthousand" unicode="&#x2030;" horiz-adv-x="2488" 
d="M519 720c-217 0 -317 141 -271 355l17 78c38 173 144 267 308 267c219 0 319 -141 274 -357l-17 -78c-36 -172 -144 -265 -311 -265zM461 0h-174l1097 1400h174zM518 822c89 0 148 63 173 179l20 92c30 137 -23 226 -134 226c-89 0 -147 -64 -173 -181l-20 -93
c-29 -135 22 -224 134 -223zM1269 -19c-217 0 -317 141 -271 355l17 78c37 173 143 267 308 267c219 0 319 -142 273 -357l-17 -79c-37 -171 -144 -264 -310 -264zM1987 -19c-218 0 -317 141 -271 355l17 78c35 174 144 267 308 267c219 0 320 -142 273 -357l-17 -79
c-34 -172 -144 -264 -310 -264zM1268 83c89 0 146 64 172 178l21 92c30 138 -23 227 -136 227c-88 0 -146 -64 -171 -181l-21 -92c-29 -136 22 -224 135 -224zM1986 83c88 0 149 63 172 178l20 92c30 138 -22 227 -134 227c-88 0 -149 -64 -172 -181l-21 -92
c-29 -136 23 -224 135 -224z" />
    <glyph glyph-name="lozenge" unicode="&#x25ca;" horiz-adv-x="1326" 
d="M701 0h-150l-316 708l463 692h151l315 -708zM626 159l29 -1c34 74 77 157 122 228l222 314l-150 312c-30 73 -56 156 -75 229l-30 1c-34 -74 -72 -157 -120 -228l-223 -314l152 -312c32 -74 54 -157 73 -229z" />
    <glyph glyph-name="degree" unicode="&#xb0;" horiz-adv-x="924" 
d="M570 773c-189 0 -313 118 -313 297c0 211 135 350 340 350c189 0 314 -116 314 -292c0 -214 -136 -355 -341 -355zM576 891c127 0 209 89 209 226c0 112 -77 185 -195 185c-127 0 -208 -88 -208 -224c0 -113 76 -187 194 -187z" />
    <glyph glyph-name="uni2300" unicode="&#x2300;" horiz-adv-x="1485" 
d="M1310 1301l95 -94l-190 -190c74 -95 118 -215 118 -346c0 -312 -248 -559 -559 -559c-131 0 -251 44 -346 118l-190 -190l-95 94l191 191c-75 94 -119 214 -119 346c0 311 248 558 559 558c131 0 251 -44 346 -118zM353 671c0 -93 29 -179 79 -248l589 589
c-69 50 -154 79 -247 79c-235 0 -421 -186 -421 -420zM1195 671c0 93 -29 178 -79 247l-589 -589c69 -50 154 -79 247 -79c235 0 421 186 421 421z" />
    <glyph glyph-name="bar" unicode="|" horiz-adv-x="560" 
d="M201 -200h-159l360 1650h159z" />
    <glyph glyph-name="brokenbar" unicode="&#xa6;" horiz-adv-x="556" 
d="M404 751h-157l146 699h158zM205 -200h-158l147 699h158z" />
    <glyph glyph-name="uni25CF" unicode="&#x25cf;" horiz-adv-x="1390" 
d="M695 -20c-301 0 -544 243 -544 545s243 545 544 545s544 -243 544 -545s-243 -545 -544 -545z" />
    <glyph glyph-name="circle" unicode="&#x25cb;" horiz-adv-x="1390" 
d="M695 -20c-301 0 -544 243 -544 545s243 545 544 545s544 -243 544 -545s-243 -545 -544 -545zM695 60c257 0 464 207 464 465s-207 465 -464 465s-464 -207 -464 -465s207 -465 464 -465z" />
    <glyph glyph-name="filledbox" unicode="&#x25a0;" horiz-adv-x="1627" 
d="M1338 0h-1050v1050h1050v-1050z" />
    <glyph glyph-name="uni25A1" unicode="&#x25a1;" horiz-adv-x="1627" 
d="M1338 0h-1050v1050h1050v-1050zM368 970v-890h890v890h-890z" />
    <glyph glyph-name="uni2B24" unicode="&#x2b24;" horiz-adv-x="1812" 
d="M943 -48c425 0 748 322 748 748c0 425 -323 748 -748 748c-424 0 -749 -323 -749 -748c0 -426 325 -748 749 -748z" />
    <glyph glyph-name="uni2B1B" unicode="&#x2b1b;" horiz-adv-x="2051" 
d="M1762 0h-1400v1400h1400v-1400z" />
    <glyph glyph-name="whiteLargeCircle" horiz-adv-x="1812" 
d="M943 -48c-427 0 -749 321 -749 748s322 748 749 748s748 -321 748 -748s-321 -748 -748 -748zM943 32c381 0 668 287 668 668s-287 668 -668 668s-669 -287 -669 -668s288 -668 669 -668z" />
    <glyph glyph-name="uni2B1C" unicode="&#x2b1c;" horiz-adv-x="2051" 
d="M1762 0h-1400v1400h1400v-1400zM442 1320v-1240h1240v1240h-1240z" />
    <glyph glyph-name="triagup" unicode="&#x25b2;" horiz-adv-x="1371" 
d="M95 154l512 886l511 -886h-1023z" />
    <glyph glyph-name="uni25B6" unicode="&#x25b6;" horiz-adv-x="1494" 
d="M423 1084l886 -512l-886 -511v1023z" />
    <glyph glyph-name="triagdn" unicode="&#x25bc;" horiz-adv-x="1371" 
d="M1294 980l-511 -886l-512 886h1023z" />
    <glyph glyph-name="uni25C0" unicode="&#x25c0;" horiz-adv-x="1493" 
d="M1070 61l-886 511l886 512v-1023z" />
    <glyph glyph-name="arrowup" unicode="&#x2191;" horiz-adv-x="1394" 
d="M810 0h-146v884c0 79 8 175 20 253l-26 9l-298 -433h-166l514 687h58l513 -687h-166l-298 433l-26 -9c12 -77 21 -172 21 -253v-884z" />
    <glyph glyph-name="uni2197" unicode="&#x2197;" horiz-adv-x="1352" 
d="M296 138l-109 96l583 664c54 59 123 125 183 175l-13 24l-509 -125l-124 110l838 172l44 -38l-74 -856l-123 110l66 523l-27 10c-41 -65 -98 -142 -152 -202z" />
    <glyph glyph-name="arrowright" unicode="&#x2192;" horiz-adv-x="1593" 
d="M1484 671l-687 -513v165l434 298l-10 27c-76 -13 -172 -21 -252 -21h-773v146h773c79 0 175 -8 252 -20l10 25l-434 298v167l687 -514v-58z" />
    <glyph glyph-name="uni2198" unicode="&#x2198;" horiz-adv-x="1542" 
d="M1285 145l-44 -39l-838 173l124 110l509 -125l13 23c-60 51 -129 117 -183 176l-583 664l109 96l583 -663c54 -60 111 -137 152 -202l27 10l-66 523l123 110z" />
    <glyph glyph-name="arrowdown" unicode="&#x2193;" horiz-adv-x="1394" 
d="M659 516v884h146v-884c0 -81 -8 -176 -21 -253l27 -9l298 433h165l-513 -687h-58l-514 687h167l298 -433l25 9c-12 78 -20 174 -20 253z" />
    <glyph glyph-name="uni2199" unicode="&#x2199;" horiz-adv-x="1294" 
d="M1086 279l-838 -173l-44 39l74 856l123 -110l-66 -523l27 -10c41 65 98 142 152 202l583 663l109 -96l-583 -664c-54 -59 -123 -125 -183 -176l13 -23l509 125z" />
    <glyph glyph-name="arrowleft" unicode="&#x2190;" horiz-adv-x="1594" 
d="M871 323v-165l-687 513v58l687 514v-167l-434 -298l10 -25c77 12 173 20 252 20h773v-146h-773c-80 0 -176 8 -252 21l-10 -27z" />
    <glyph glyph-name="uni2196" unicode="&#x2196;" horiz-adv-x="1600" 
d="M767 898l583 -664l-109 -96l-583 663c-54 60 -111 137 -152 202l-26 -10l66 -523l-124 -110l-73 856l43 38l839 -172l-124 -110l-510 125l-13 -24c60 -50 130 -116 183 -175z" />
    <glyph glyph-name="arrowboth" unicode="&#x2194;" horiz-adv-x="2194" 
d="M871 323v-165l-687 513v58l687 514v-167l-434 -298l10 -25c77 12 173 20 252 20h871c79 0 174 -8 252 -20l10 25l-434 298v167l687 -514v-58l-687 -513v165l434 298l-10 27c-77 -13 -172 -21 -252 -21h-871c-80 0 -176 8 -252 21l-10 -27z" />
    <glyph glyph-name="arrowupdn" unicode="&#x2195;" horiz-adv-x="1532" 
d="M830 -229h-58l-514 687h166l298 -434l26 10c-12 78 -20 173 -20 252v805c0 79 8 175 20 253l-26 9l-298 -434h-166l514 688h58l513 -688h-166l-298 434l-26 -9c12 -77 21 -172 21 -253v-805c0 -80 -9 -175 -21 -252l26 -10l298 434h166z" />
    <glyph glyph-name="uni2BA0" unicode="&#x2ba0;" horiz-adv-x="1646" 
d="M871 323v-165l-687 513v58l687 514v-167l-434 -298l10 -25c77 12 173 20 252 20h639v330h146v-476h-785c-80 0 -176 8 -252 21l-10 -27z" />
    <glyph glyph-name="uni2BA1" unicode="&#x2ba1;" horiz-adv-x="1715" 
d="M1607 671l-688 -513v165l434 298l-9 27c-77 -13 -172 -21 -253 -21h-785v476h147v-330h638c79 0 175 -8 253 -20l9 25l-434 298v167l688 -514v-58z" />
    <glyph glyph-name="uni2BA6" unicode="&#x2ba6;" horiz-adv-x="1394" 
d="M761 0h-58l-514 687h167l298 -433l25 9c-12 78 -20 174 -20 253v884h476v-143h-330v-741c0 -81 -8 -176 -21 -253l27 -9l298 433h165z" />
    <glyph glyph-name="uni2BA4" unicode="&#x2ba4;" horiz-adv-x="1415" 
d="M194 713l514 687h58l513 -687h-166l-298 433l-26 -9c12 -77 21 -172 21 -253v-741h329v-143h-475v884c0 79 8 175 20 253l-26 9l-298 -433h-166z" />
    <glyph glyph-name="uni2BA7" unicode="&#x2ba7;" horiz-adv-x="1415" 
d="M1295 687l-514 -687h-58l-513 687h166l298 -433l26 9c-13 77 -21 172 -21 253v741h-330v143h476v-884c0 -79 -8 -175 -20 -253l25 -9l298 433h167z" />
    <glyph glyph-name="uni2BA5" unicode="&#x2ba5;" horiz-adv-x="1394" 
d="M707 1400h58l514 -687h-166l-298 433l-26 -9c12 -78 20 -174 20 -253v-884h-475v143h329v741c0 81 9 176 21 253l-26 9l-298 -433h-166z" />
    <glyph glyph-name="uni2BA2" unicode="&#x2ba2;" horiz-adv-x="1716" 
d="M871 322v-164l-688 514v56l688 514v-164l-292 -207c-55 -36 -112 -68 -168 -93l3 -16c60 8 121 11 187 11h883v-476h-145v330h-738c-66 0 -127 3 -187 11l-3 -16c56 -25 113 -57 168 -93z" />
    <glyph glyph-name="uni2BA3" unicode="&#x2ba3;" horiz-adv-x="1646" 
d="M1537 672l-688 -514v164l292 207c55 36 112 68 168 93l-3 16c-60 -8 -121 -11 -187 -11h-738v-330h-145v476h883c66 0 127 -3 187 -11l3 16c-56 25 -113 57 -168 93l-292 207v164l688 -514v-56z" />
    <glyph glyph-name="arrowup.ss05" horiz-adv-x="1394" 
d="M809 0h-146v712h-469l515 688h55l514 -688h-469v-712z" />
    <glyph glyph-name="uni2197.ss05" horiz-adv-x="1345" 
d="M763 678l-463 -541l-108 97l463 540l-348 313l838 165l41 -37l-78 -854z" />
    <glyph glyph-name="arrowright.ss05" horiz-adv-x="1594" 
d="M1486 672l-689 -514v469h-601v146h601v469l689 -514v-56z" />
    <glyph glyph-name="uni2198.ss05" horiz-adv-x="1534" 
d="M1276 143l-40 -37l-838 165l346 315l-461 539l108 96l461 -539l347 315z" />
    <glyph glyph-name="arrowdown.ss05" horiz-adv-x="1394" 
d="M659 688v712h146v-712h469l-514 -688h-55l-515 688h469z" />
    <glyph glyph-name="uni2199.ss05" horiz-adv-x="1287" 
d="M1078 271l-838 -165l-41 37l78 854l346 -315l461 539l109 -96l-462 -539z" />
    <glyph glyph-name="arrowleft.ss05" horiz-adv-x="1594" 
d="M871 627v-469l-688 514v56l688 514v-469h602v-146h-602z" />
    <glyph glyph-name="uni2196.ss05" horiz-adv-x="1592" 
d="M1342 234l-108 -97l-463 541l-345 -317l-78 854l41 37l838 -165l-348 -313z" />
    <glyph glyph-name="arrowboth.ss05" horiz-adv-x="2194" 
d="M871 627v-469l-688 514v56l688 514v-469h526v469l688 -514v-56l-688 -514v469h-526z" />
    <glyph glyph-name="arrowupdn.ss05" horiz-adv-x="1533" 
d="M829 -230h-55l-515 688h470l-1 462h-470l515 688h56l515 -688h-470v-462h470z" />
    <glyph glyph-name="uni2BA0.ss05" horiz-adv-x="1646" 
d="M871 627v-469l-688 514v56l688 514v-469h468v330h146v-476h-614z" />
    <glyph glyph-name="uni2BA1.ss05" horiz-adv-x="1717" 
d="M1608 672l-688 -514v469h-613v476h145v-330h468v469l688 -514v-56z" />
    <glyph glyph-name="uni2BA6.ss05" horiz-adv-x="1395" 
d="M760 0h-55l-515 688h470v712h475v-143h-330v-569h470z" />
    <glyph glyph-name="uni2BA4.ss05" horiz-adv-x="1414" 
d="M1139 0h-476v712h-469l515 688h55l514 -688h-469v-569h330v-143z" />
    <glyph glyph-name="uni2BA7.ss05" horiz-adv-x="1414" 
d="M1295 688l-516 -688h-54l-515 688h469v569h-329v143h475v-712h470z" />
    <glyph glyph-name="uni2BA5.ss05" horiz-adv-x="1394" 
d="M809 712v-712h-475v143h329v569h-469l515 688h55l514 -688h-469z" />
    <glyph glyph-name="uni2BA2.ss05" horiz-adv-x="1716" 
d="M871 627v-469l-688 514v56l688 514v-469h613v-476h-145v330h-468z" />
    <glyph glyph-name="uni2BA3.ss05" horiz-adv-x="1646" 
d="M1537 672l-688 -514v469h-468v-330h-145v476h613v469l688 -514v-56z" />
    <glyph glyph-name="uni0410" unicode="&#x410;" horiz-adv-x="1216" 
d="M156 0h-180l723 1400h204l113 -1400h-175l-23 314h-499zM575 838l-197 -398h433l-22 398c-7 127 -9 241 -9 377l-34 3c-58 -143 -109 -257 -171 -380z" />
    <glyph glyph-name="uni0411" unicode="&#x411;" horiz-adv-x="1253" 
d="M613 0h-529l306 1400h832l-28 -132h-660l-96 -441h304c232 0 359 -110 359 -308c0 -316 -183 -519 -488 -519zM410 696l-124 -566h319c203 0 323 153 323 381c0 128 -75 185 -227 185h-291z" />
    <glyph glyph-name="uni0412" unicode="&#x412;" horiz-adv-x="1256" 
d="M615 0h-531l306 1400h500c202 0 311 -90 311 -259c0 -194 -94 -360 -291 -384l-1 -30c120 -22 186 -107 186 -243c0 -291 -167 -484 -480 -484zM535 1270l-102 -466h301c197 0 295 132 295 314c0 105 -64 152 -191 152h-303zM407 683l-121 -553h316
c223 0 319 157 319 357c0 135 -72 196 -208 196h-306z" />
    <glyph glyph-name="uni0413" unicode="&#x413;" horiz-adv-x="1071" 
d="M257 0h-173l306 1400h779l-28 -134h-608z" />
    <glyph glyph-name="uni0403" unicode="&#x403;" horiz-adv-x="1071" 
d="M861 1497h-137l146 204h186zM257 0h-173l306 1400h779l-28 -134h-608z" />
    <glyph glyph-name="uni0490" unicode="&#x490;" horiz-adv-x="1072" 
d="M1020 1400l34 161h150l-35 -161l-28 -134h-608l-276 -1266h-173l306 1400h630z" />
    <glyph glyph-name="uni0492" unicode="&#x492;" horiz-adv-x="1122" 
d="M1220 1400l-28 -134h-608l-102 -467h368l-26 -121h-368l-148 -678h-173l148 678h-178l26 121h179l131 601h779z" />
    <glyph glyph-name="uni0414" unicode="&#x414;" horiz-adv-x="1356" 
d="M129 -206h-167l74 338h71c135 221 193 478 369 1268h827l-276 -1268h105l-74 -338h-167l44 206h-761zM261 166l7 -34h586l247 1136h-493c-123 -540 -229 -960 -347 -1102z" />
    <glyph glyph-name="uni0415" unicode="&#x415;" horiz-adv-x="1116" 
d="M878 0h-794l305 1400h775l-28 -132h-602l-100 -458h558l-27 -126h-558l-121 -552h621z" />
    <glyph glyph-name="uni0415_uni0301" horiz-adv-x="1116" 
d="M866 1497h-137l146 204h186zM878 0h-794l305 1400h775l-28 -132h-602l-100 -458h558l-27 -126h-558l-121 -552h621z" />
    <glyph glyph-name="uni0400" unicode="&#x400;" horiz-adv-x="1116" 
d="M855 1497h-127l-150 204h177zM878 0h-794l305 1400h775l-28 -132h-602l-100 -458h558l-27 -126h-558l-121 -552h621z" />
    <glyph glyph-name="uni0401" unicode="&#x401;" horiz-adv-x="1116" 
d="M728 1514h-179l37 174h179zM1072 1514h-180l38 174h180zM878 0h-794l305 1400h775l-28 -132h-602l-100 -458h558l-27 -126h-558l-121 -552h621z" />
    <glyph glyph-name="uni0416" unicode="&#x416;" horiz-adv-x="1791" 
d="M195 0h-210l-2 31c59 26 117 104 200 278l83 174c83 175 145 233 263 247l1 30c-99 12 -126 70 -138 220l-12 149c-13 149 -30 215 -73 240l6 31h190c24 -54 33 -131 40 -272l8 -141c7 -140 36 -183 164 -183h152l130 596h173l-130 -596h143c128 0 182 51 250 192l67 141
c68 141 108 212 151 263h204l2 -31c-56 -25 -113 -101 -190 -252l-78 -151c-77 -152 -131 -206 -242 -215l-1 -30c97 -16 134 -75 149 -245l16 -169c15 -172 42 -251 85 -276l-5 -31h-202c-25 59 -38 131 -48 295l-10 165c-11 165 -45 215 -171 215h-149l-147 -675h-173
l147 674h-144c-138 0 -192 -57 -266 -222l-74 -165c-75 -165 -112 -230 -159 -287z" />
    <glyph glyph-name="uni0496" unicode="&#x496;" horiz-adv-x="1791" 
d="M1651 1400h204l2 -31c-56 -25 -113 -101 -190 -252l-78 -151c-77 -152 -131 -206 -242 -215l-1 -30c97 -16 134 -75 149 -245l16 -169c7 -75 15 -132 27 -175h120l-74 -338h-166l44 206h-73c-25 59 -38 131 -48 295l-10 165c-11 165 -45 215 -171 215h-149l-147 -675
h-173l147 674h-144c-138 0 -192 -57 -266 -222l-74 -165c-75 -165 -112 -230 -159 -287h-210l-2 31c59 26 117 104 200 278l83 174c83 175 145 233 263 247l1 30c-99 12 -126 70 -138 220l-12 149c-13 149 -30 215 -73 240l6 31h190c24 -54 33 -131 40 -272l8 -141
c7 -140 36 -183 164 -183h152l130 596h173l-130 -596h143c128 0 182 51 250 192l67 141c68 141 108 212 151 263z" />
    <glyph glyph-name="uni0417" unicode="&#x417;" horiz-adv-x="1271" 
d="M591 -20c-323 0 -503 181 -459 455l173 32c-46 -226 67 -355 295 -355c211 1 332 139 332 343c0 138 -83 203 -244 203h-118l27 128h115c203 0 329 126 330 307c0 126 -94 195 -264 195c-214 0 -313 -111 -342 -294l-161 49c38 227 209 377 512 377
c273 0 426 -119 426 -303c0 -201 -120 -358 -322 -383l-2 -31c136 -23 216 -115 216 -247c0 -293 -197 -476 -514 -476z" />
    <glyph glyph-name="uni0418" unicode="&#x418;" horiz-adv-x="1332" 
d="M290 0h-206l306 1400h173l-180 -828c-21 -94 -64 -234 -107 -351l35 -7c40 84 87 165 138 240l665 946h207l-306 -1400h-172l186 841c27 123 67 253 102 340l-35 7c-44 -90 -94 -175 -145 -250z" />
    <glyph glyph-name="uni0418_uni0301" horiz-adv-x="1332" 
d="M924 1497h-137l146 204h186zM290 0h-206l306 1400h173l-180 -828c-21 -94 -64 -234 -107 -351l35 -7c40 84 87 165 138 240l665 946h207l-306 -1400h-172l186 841c27 123 67 253 102 340l-35 7c-44 -90 -94 -175 -145 -250z" />
    <glyph glyph-name="uni0419" unicode="&#x419;" horiz-adv-x="1332" 
d="M875 1512c-203 0 -285 85 -264 238h148c-12 -85 27 -141 132 -141s161 56 179 141h154c-31 -153 -146 -238 -349 -238zM290 0h-206l306 1400h173l-180 -828c-21 -94 -64 -234 -107 -351l35 -7c40 84 87 165 138 240l665 946h207l-306 -1400h-172l186 841
c27 123 67 253 102 340l-35 7c-44 -90 -94 -175 -145 -250z" />
    <glyph glyph-name="uni040D" unicode="&#x40d;" horiz-adv-x="1332" 
d="M913 1497h-127l-150 204h177zM290 0h-206l306 1400h173l-180 -828c-21 -94 -64 -234 -107 -351l35 -7c40 84 87 165 138 240l665 946h207l-306 -1400h-172l186 841c27 123 67 253 102 340l-35 7c-44 -90 -94 -175 -145 -250z" />
    <glyph glyph-name="uni0406" unicode="&#x406;" horiz-adv-x="573" 
d="M257 0h-173l306 1400h173z" />
    <glyph glyph-name="uni0407" unicode="&#x407;" horiz-adv-x="573" 
d="M454 1513h-150l39 178h150zM667 1513h-150l39 178h150zM257 0h-173l306 1400h173z" />
    <glyph glyph-name="uni0408" unicode="&#x408;" horiz-adv-x="1109" 
d="M448 -20c-255 0 -398 149 -349 464l178 27c-47 -260 27 -366 181 -366c129 0 214 87 247 246l230 1049h173l-236 -1072c-49 -227 -189 -348 -424 -348z" />
    <glyph glyph-name="uni041A" unicode="&#x41a;" horiz-adv-x="1236" 
d="M257 0h-173l306 1400h173l-129 -595h193c129 0 183 50 251 191l67 141c68 141 107 212 151 263h204l2 -32c-56 -28 -113 -100 -190 -251l-78 -151c-78 -152 -131 -206 -239 -216l-2 -29c95 -17 132 -75 147 -245l15 -170c16 -171 43 -250 86 -275l-5 -31h-202
c-25 59 -37 131 -48 295l-11 165c-11 165 -44 213 -171 213h-200z" />
    <glyph glyph-name="uni040C" unicode="&#x40c;" horiz-adv-x="1236" 
d="M879 1497h-137l146 204h186zM257 0h-173l306 1400h173l-129 -595h193c129 0 183 50 251 191l67 141c68 141 107 212 151 263h204l2 -32c-56 -28 -113 -100 -190 -251l-78 -151c-78 -152 -131 -206 -239 -216l-2 -29c95 -17 132 -75 147 -245l15 -170
c16 -171 43 -250 86 -275l-5 -31h-202c-25 59 -37 131 -48 295l-11 165c-11 165 -44 213 -171 213h-200z" />
    <glyph glyph-name="uni049A" unicode="&#x49a;" horiz-adv-x="1236" 
d="M1096 1400h204l2 -32c-56 -28 -113 -100 -190 -251l-78 -151c-78 -152 -131 -206 -239 -216l-2 -29c95 -17 132 -75 147 -245l15 -170c7 -74 16 -131 28 -174h115l-74 -338h-166l44 206h-68c-25 59 -37 131 -48 295l-11 165c-11 165 -44 213 -171 213h-200l-147 -673
h-173l306 1400h173l-129 -595h193c129 0 183 50 251 191l67 141c68 141 107 212 151 263z" />
    <glyph glyph-name="uni041B" unicode="&#x41b;" horiz-adv-x="1362" 
d="M9 -18l-9 163l40 2c166 11 256 223 456 1085l39 168h816l-306 -1400h-173l276 1266h-483l-26 -104c-185 -727 -322 -1203 -630 -1180z" />
    <glyph glyph-name="uni0409" unicode="&#x409;" horiz-adv-x="2002" 
d="M1233 856h299c228 0 357 -114 357 -322c0 -327 -188 -534 -494 -534h-523l276 1266h-483l-26 -104c-185 -727 -322 -1203 -630 -1180l-9 163l40 2c166 11 256 223 456 1085l39 168h816zM1074 130h312c208 0 331 158 331 400c0 133 -79 196 -221 196h-292z" />
    <glyph glyph-name="uni041C" unicode="&#x41c;" horiz-adv-x="1635" 
d="M248 0h-164l306 1400h234l94 -819c12 -103 17 -236 15 -358l29 -3c42 113 105 250 164 359l442 821h256l-305 -1400h-170l156 715c35 157 82 341 127 487l-37 7l-625 -1209h-133l-121 1206l-39 -1c-12 -153 -40 -341 -73 -490z" />
    <glyph glyph-name="uni041D" unicode="&#x41d;" horiz-adv-x="1345" 
d="M257 0h-173l305 1400h173l-127 -586h599l127 586h174l-305 -1400h-173l148 682h-600z" />
    <glyph glyph-name="uni04A2" unicode="&#x4a2;" horiz-adv-x="1378" 
d="M1161 1400h174l-276 -1268h95l-74 -338h-166l45 206h-102l148 682h-600l-148 -682h-173l305 1400h173l-127 -586h599z" />
    <glyph glyph-name="uni040A" unicode="&#x40a;" horiz-adv-x="1985" 
d="M1207 813h289c229 0 369 -113 369 -321c0 -306 -184 -492 -504 -492h-504l148 682h-600l-148 -682h-173l305 1400h173l-127 -586h599l127 586h174zM1058 130l295 1c218 0 339 133 338 353c0 133 -80 199 -234 199h-278z" />
    <glyph glyph-name="uni041E" unicode="&#x41e;" horiz-adv-x="1368" 
d="M625 -20c-362 0 -537 256 -446 675l46 203c76 355 266 562 591 562c363 0 538 -257 447 -677l-45 -203c-77 -353 -266 -560 -593 -560zM632 112c224 0 349 147 412 435l53 233c75 340 -40 508 -287 508c-224 0 -348 -147 -412 -437l-54 -234c-74 -338 41 -505 288 -505z
" />
    <glyph glyph-name="uni041E_uni0301" horiz-adv-x="1368" 
d="M929 1497h-137l146 204h186zM625 -20c-362 0 -537 256 -446 675l46 203c76 355 266 562 591 562c363 0 538 -257 447 -677l-45 -203c-77 -353 -266 -560 -593 -560zM632 112c224 0 349 147 412 435l53 233c75 340 -40 508 -287 508c-224 0 -348 -147 -412 -437l-54 -234
c-74 -338 41 -505 288 -505z" />
    <glyph glyph-name="uni04E8" unicode="&#x4e8;" horiz-adv-x="1368" 
d="M816 1420c363 0 538 -257 447 -677l-45 -203c-77 -353 -266 -560 -593 -560c-362 0 -537 256 -446 675l46 203c76 355 266 562 591 562zM810 1288c-224 0 -348 -147 -412 -437l-18 -78h715l2 7c75 340 -40 508 -287 508zM632 112c224 0 349 147 412 435l24 106h-716
l-8 -36c-74 -338 41 -505 288 -505z" />
    <glyph glyph-name="uni041F" unicode="&#x41f;" horiz-adv-x="1322" 
d="M257 0h-173l306 1400h921l-306 -1400h-172l277 1266h-577z" />
    <glyph glyph-name="uni0420" unicode="&#x420;" horiz-adv-x="1196" 
d="M257 0h-173l306 1400h410c245 0 378 -114 378 -331c0 -266 -160 -521 -531 -521h-270zM535 1270l-130 -592h245c254 0 357 185 357 379c0 140 -85 213 -244 213h-228z" />
    <glyph glyph-name="uni0421" unicode="&#x421;" horiz-adv-x="1324" 
d="M612 -20c-355 0 -524 256 -433 676l46 203c76 354 265 561 584 561c292 0 483 -184 433 -519l-175 -26c51 287 -60 413 -266 413c-217 0 -338 -143 -403 -437l-54 -235c-74 -338 39 -504 274 -504c191 0 313 118 379 405l162 -61c-76 -318 -272 -476 -547 -476z" />
    <glyph glyph-name="uni0422" unicode="&#x422;" horiz-adv-x="1110" 
d="M523 0h-173l276 1268h-380l28 132h934l-29 -132h-380z" />
    <glyph glyph-name="uni0423" unicode="&#x423;" horiz-adv-x="1185" 
d="M147 -20l-26 155l119 6c106 7 140 40 190 122l28 55l-184 1082h176l75 -547c20 -139 39 -299 36 -424l34 -2c45 123 133 293 206 424l298 549h184l-550 -964c-160 -284 -280 -428 -586 -456z" />
    <glyph glyph-name="uni0423_uni0301" horiz-adv-x="1185" 
d="M856 1497h-137l146 204h186zM147 -20l-26 155l119 6c106 7 140 40 190 122l28 55l-184 1082h176l75 -547c20 -139 39 -299 36 -424l34 -2c45 123 133 293 206 424l298 549h184l-550 -964c-160 -284 -280 -428 -586 -456z" />
    <glyph glyph-name="uni040E" unicode="&#x40e;" horiz-adv-x="1185" 
d="M807 1512c-203 0 -285 85 -264 238h148c-12 -85 27 -141 132 -141s161 56 179 141h154c-31 -153 -146 -238 -349 -238zM147 -20l-26 155l119 6c106 7 140 40 190 122l28 55l-184 1082h176l75 -547c20 -139 39 -299 36 -424l34 -2c45 123 133 293 206 424l298 549h184
l-550 -964c-160 -284 -280 -428 -586 -456z" />
    <glyph glyph-name="uni04EE" unicode="&#x4ee;" horiz-adv-x="1185" 
d="M1092 1520h-587l24 110h587zM147 -20l-26 155l119 6c106 7 140 40 190 122l28 55l-184 1082h176l75 -547c20 -139 39 -299 36 -424l34 -2c45 123 133 293 206 424l298 549h184l-550 -964c-160 -284 -280 -428 -586 -456z" />
    <glyph glyph-name="uni04AE" unicode="&#x4ae;" horiz-adv-x="1160" 
d="M547 0h-173l125 565l-225 835h175l106 -423c19 -83 33 -159 41 -266l31 -2c54 109 100 183 155 268l285 423h191l-595 -860z" />
    <glyph glyph-name="uni04B0" unicode="&#x4b0;" horiz-adv-x="1160" 
d="M1258 1400l-595 -860v-2h280l-27 -121h-279l-90 -417h-173l92 417h-266l27 121h266l6 27l-225 835h175l106 -423c19 -83 33 -159 41 -266l31 -2c54 109 100 183 155 268l285 423h191z" />
    <glyph glyph-name="uni0424" unicode="&#x424;" horiz-adv-x="1714" 
d="M825 -18h-173l31 141c-446 1 -562 266 -502 540l37 168c59 269 257 448 719 446l29 141h173l-30 -141c443 -1 562 -248 501 -527l-37 -166c-58 -267 -256 -462 -718 -461zM1080 1148l-198 -896c340 1 476 147 519 348l35 161c45 210 -16 388 -356 387zM712 252l198 896
c-342 0 -475 -128 -519 -332l-37 -164c-45 -204 13 -401 358 -400z" />
    <glyph glyph-name="uni0425" unicode="&#x425;" horiz-adv-x="1170" 
d="M170 0h-194l547 732l-219 668h178l132 -411c13 -44 22 -104 23 -152l28 -2c18 47 50 105 80 146l320 419h190l-526 -686l241 -714h-185l-141 444c-15 50 -26 116 -28 165l-28 2c-20 -51 -52 -109 -88 -160z" />
    <glyph glyph-name="uni04B2" unicode="&#x4b2;" horiz-adv-x="1170" 
d="M1255 1400l-526 -686l196 -582h101l-74 -338h-166l44 206h-45l-141 444c-15 50 -26 116 -28 165l-28 2c-20 -51 -52 -109 -88 -160l-330 -451h-194l547 732l-219 668h178l132 -411c13 -44 22 -104 23 -152l28 -2c18 47 50 105 80 146l320 419h190z" />
    <glyph glyph-name="uni0427" unicode="&#x427;" horiz-adv-x="1223" 
d="M907 0h-173l137 624c-89 -26 -178 -39 -280 -39c-274 0 -402 143 -348 391l89 424h173l-92 -422c-37 -174 40 -261 236 -261c91 0 166 12 250 38l141 645h173z" />
    <glyph glyph-name="uni04B6" unicode="&#x4b6;" horiz-adv-x="1223" 
d="M1040 1400h173l-277 -1268h105l-74 -338h-166l44 206h-111l137 624c-89 -26 -178 -39 -280 -39c-274 0 -402 143 -348 391l89 424h173l-92 -422c-37 -174 40 -261 236 -261c91 0 166 12 250 38z" />
    <glyph glyph-name="uni0426" unicode="&#x426;" horiz-adv-x="1363" 
d="M1065 -206h-167l46 206h-860l306 1400h173l-277 -1266h576l277 1266h171l-276 -1266h106z" />
    <glyph glyph-name="uni0428" unicode="&#x428;" horiz-adv-x="1895" 
d="M1579 0h-1495l306 1400h173l-277 -1266h489l276 1266h173l-277 -1266h488l277 1266h173z" />
    <glyph glyph-name="uni0429" unicode="&#x429;" horiz-adv-x="1930" 
d="M1712 1400h173l-277 -1268h98l-74 -338h-166l45 206h-1427l306 1400h173l-277 -1266h489l276 1266h173l-277 -1266h488z" />
    <glyph glyph-name="uni040F" unicode="&#x40f;" horiz-adv-x="1322" 
d="M1139 1400h172l-306 -1400h-363l-45 -206h-167l45 206h-391l306 1400h173l-277 -1266h576z" />
    <glyph glyph-name="uni042A" unicode="&#x42a;" horiz-adv-x="1427" 
d="M658 856h299c228 0 357 -114 357 -322c0 -327 -188 -534 -494 -534h-523l277 1268h-328l28 132h502zM499 130h312c208 0 330 158 330 400c0 133 -78 196 -221 196h-291z" />
    <glyph glyph-name="uni042B" unicode="&#x42b;" horiz-adv-x="1747" 
d="M607 0h-523l306 1400h173l-118 -544h299c229 0 357 -114 357 -322c0 -327 -188 -534 -494 -534zM1431 0h-173l305 1400h174zM416 726l-130 -596h312c208 0 331 158 331 400c0 133 -78 196 -221 196h-292z" />
    <glyph glyph-name="uni042B_uni0301" horiz-adv-x="1747" 
d="M1145 1497h-137l146 204h186zM607 0h-523l306 1400h173l-118 -544h299c229 0 357 -114 357 -322c0 -327 -188 -534 -494 -534zM1431 0h-173l305 1400h174zM416 726l-130 -596h312c208 0 331 158 331 400c0 133 -78 196 -221 196h-292z" />
    <glyph glyph-name="uni042C" unicode="&#x42c;" horiz-adv-x="1214" 
d="M607 0h-523l306 1400h173l-118 -544h299c229 0 357 -114 357 -322c0 -327 -188 -534 -494 -534zM416 726l-130 -596h312c208 0 331 158 331 400c0 133 -78 196 -221 196h-292z" />
    <glyph glyph-name="uni0405" unicode="&#x405;" horiz-adv-x="1278" 
d="M615 -20c-329 0 -511 176 -475 493l172 34c-40 -272 75 -400 312 -400c174 0 283 75 288 217c4 107 -40 178 -197 284l-154 103c-162 111 -244 204 -241 365c6 221 173 344 438 344c307 0 464 -172 428 -452l-163 -31c33 237 -56 356 -269 356c-162 0 -265 -68 -269 -200
c-3 -96 41 -164 202 -271l152 -99c156 -103 247 -211 242 -381c-7 -229 -182 -362 -466 -362z" />
    <glyph glyph-name="uni0404" unicode="&#x404;" horiz-adv-x="1327" 
d="M1251 950l-173 -26c43 239 -68 364 -275 364c-220 0 -341 -143 -405 -437l-15 -66h383l-27 -128h-386l-9 -40c-74 -339 38 -505 276 -505c192 0 313 115 372 357l159 -60c-68 -269 -264 -429 -539 -429c-357 0 -524 256 -433 676l46 203c76 354 264 561 585 561
c295 0 485 -183 441 -470z" />
    <glyph glyph-name="uni042D" unicode="&#x42d;" horiz-adv-x="1327" 
d="M790 1420c357 0 523 -256 432 -676l-45 -203c-77 -354 -264 -561 -585 -561c-296 0 -485 183 -441 470l173 26c-43 -239 67 -364 274 -364c220 0 341 143 406 437l22 95h-391l28 128h392l2 11c75 339 -37 505 -275 505c-192 0 -314 -115 -372 -357l-160 60
c68 269 264 429 540 429z" />
    <glyph glyph-name="uni042D_uni0301" horiz-adv-x="1327" 
d="M891 1701h186l-195 -204h-137zM790 1420c357 0 523 -256 432 -676l-45 -203c-77 -354 -264 -561 -585 -561c-296 0 -485 183 -441 470l173 26c-43 -239 67 -364 274 -364c220 0 341 143 406 437l22 95h-391l28 128h392l2 11c75 339 -37 505 -275 505
c-192 0 -314 -115 -372 -357l-160 60c68 269 264 429 540 429z" />
    <glyph glyph-name="uni04D8" unicode="&#x4d8;" horiz-adv-x="1344" 
d="M800 1420c366 0 531 -258 439 -678l-46 -200c-82 -370 -278 -562 -592 -562c-341 0 -499 218 -441 582c13 61 26 131 41 190h866l8 34c72 324 -38 502 -283 502c-189 0 -316 -110 -356 -274l-162 49c53 205 248 357 526 357zM610 112c214 0 346 143 412 442l18 77h-689
l-22 -101c-51 -271 57 -418 281 -418z" />
    <glyph glyph-name="uni040B" unicode="&#x40b;" horiz-adv-x="1416" 
d="M430 0h-173l276 1266h-288l29 134h931l-29 -134h-471l-110 -501c90 28 182 42 285 42c269 0 398 -144 345 -392l-88 -415h-172l89 415c37 172 -41 260 -234 260c-90 0 -167 -11 -252 -37z" />
    <glyph glyph-name="uni0402" unicode="&#x402;" horiz-adv-x="1418" 
d="M694 -236l4 150l96 7c112 9 164 43 189 155l71 339c36 172 -41 260 -234 260c-90 0 -167 -11 -252 -37l-138 -638h-173l276 1266h-288l29 134h931l-29 -134h-471l-110 -501c90 28 182 42 285 42c270 0 398 -144 345 -392l-58 -288c-48 -224 -205 -332 -473 -363z" />
    <glyph glyph-name="uni04BA" unicode="&#x4ba;" horiz-adv-x="1244" 
d="M390 1400h173l-137 -624c89 26 178 39 280 39c274 0 402 -143 348 -391l-89 -424h-173l92 422c37 174 -40 261 -236 261c-90 0 -166 -12 -250 -38l-141 -645h-173z" />
    <glyph glyph-name="uni042E" unicode="&#x42e;" horiz-adv-x="1816" 
d="M1270 1420c360 0 532 -257 441 -677l-46 -203c-76 -353 -261 -560 -586 -560c-359 0 -530 254 -441 670h-239l-142 -650h-173l306 1400h173l-136 -620h240l17 78c77 355 262 562 586 562zM1492 547l54 234c74 340 -37 507 -282 507c-221 0 -343 -146 -406 -437l-53 -234
c-74 -339 36 -505 280 -505c221 0 344 145 407 435z" />
    <glyph glyph-name="uni042E_uni0301" horiz-adv-x="1816" 
d="M1030 1711h186l-195 -204h-137zM1270 1420c360 0 532 -257 441 -677l-46 -203c-76 -353 -261 -560 -586 -560c-359 0 -530 254 -441 670h-239l-142 -650h-173l306 1400h173l-136 -620h240l17 78c77 355 262 562 586 562zM1492 547l54 234c74 340 -37 507 -282 507
c-221 0 -343 -146 -406 -437l-53 -234c-74 -339 36 -505 280 -505c221 0 344 145 407 435z" />
    <glyph glyph-name="uni042F" unicode="&#x42f;" horiz-adv-x="1246" 
d="M189 0h-209l-2 31c57 27 116 106 194 265l78 158c79 159 128 190 237 204v30c-139 11 -218 102 -218 246c0 274 149 466 496 466h471l-306 -1400h-173l133 610h-214c-145 0 -193 -28 -263 -183l-70 -154c-71 -155 -107 -216 -154 -273zM669 740h250l116 530h-259
c-260 0 -338 -151 -338 -341c0 -136 69 -189 231 -189z" />
    <glyph glyph-name="uni042F_uni0301" horiz-adv-x="1246" 
d="M905 1497h-137l146 204h186zM189 0h-209l-2 31c57 27 116 106 194 265l78 158c79 159 128 190 237 204v30c-139 11 -218 102 -218 246c0 274 149 466 496 466h471l-306 -1400h-173l133 610h-214c-145 0 -193 -28 -263 -183l-70 -154c-71 -155 -107 -216 -154 -273z
M669 740h250l116 530h-259c-260 0 -338 -151 -338 -341c0 -136 69 -189 231 -189z" />
    <glyph glyph-name="uni0414.loclBGR" horiz-adv-x="1392" 
d="M977 1400l100 -1268h91l-73 -338h-167l44 206h-799l-45 -206h-166l74 338h93l650 1268h198zM650 816l-340 -684h595l-42 684c-7 124 -7 254 -1 413l-34 3c-61 -160 -116 -291 -178 -416z" />
    <glyph glyph-name="uni041B.loclBGR" horiz-adv-x="1202" 
d="M694 1400h199l109 -1400h-174l-49 816c-8 124 -8 254 -2 413l-34 3c-61 -160 -116 -291 -178 -416l-406 -816h-183z" />
    <glyph glyph-name="uni0430" unicode="&#x430;" horiz-adv-x="1139" 
d="M325 -20c-157 0 -249 83 -249 211c0 228 206 341 465 400l253 53l22 98c34 142 -54 215 -196 215c-158 0 -245 -80 -256 -215l-159 35c20 173 162 293 422 293c255 0 402 -128 351 -351l-120 -521c-17 -75 -6 -93 47 -94l48 -2l-44 -119c-11 -2 -29 -3 -45 -3
c-171 0 -188 78 -104 264l-32 8c-88 -177 -219 -272 -403 -272zM392 96c152 0 302 134 350 326l26 107l-195 -41c-188 -44 -322 -122 -322 -266c-1 -80 50 -126 141 -126z" />
    <glyph glyph-name="uni0430_uni0301" horiz-adv-x="1139" 
d="M718 1149h-126l155 251h176zM325 -20c-157 0 -249 83 -249 211c0 228 206 341 465 400l253 53l22 98c34 142 -54 215 -196 215c-158 0 -245 -80 -256 -215l-159 35c20 173 162 293 422 293c255 0 402 -128 351 -351l-120 -521c-17 -75 -6 -93 47 -94l48 -2l-44 -119
c-11 -2 -29 -3 -45 -3c-171 0 -188 78 -104 264l-32 8c-88 -177 -219 -272 -403 -272zM392 96c152 0 302 134 350 326l26 107l-195 -41c-188 -44 -322 -122 -322 -266c-1 -80 50 -126 141 -126z" />
    <glyph glyph-name="uni0431" unicode="&#x431;" horiz-adv-x="1137" 
d="M495 -20c-291 0 -433 195 -370 506l63 306c71 352 206 446 491 497l190 34c84 15 135 36 138 79h145c-5 -120 -97 -169 -297 -204l-200 -35c-201 -34 -276 -131 -347 -351l30 -9c73 151 203 225 370 225c242 0 368 -175 305 -469l-33 -149c-59 -269 -220 -430 -485 -430z
M503 95c167 0 264 119 308 319l38 164c48 217 -29 334 -205 334c-158 0 -278 -106 -322 -313l-34 -158c-46 -216 36 -346 215 -346z" />
    <glyph glyph-name="uni0432" unicode="&#x432;" horiz-adv-x="1099" 
d="M552 0h-488l230 1050h457c156 0 246 -77 246 -205c1 -148 -84 -257 -224 -272l-2 -28c97 -15 151 -75 152 -178c3 -219 -143 -367 -371 -367zM436 935l-70 -319h265c125 0 203 81 203 209c-1 74 -46 110 -133 110h-265zM343 507l-86 -392h273c143 0 228 97 228 255
c0 93 -49 137 -145 137h-270z" />
    <glyph glyph-name="uni0433" unicode="&#x433;" horiz-adv-x="917" 
d="M232 0h-168l230 1050h643l-28 -127h-475z" />
    <glyph glyph-name="uni0453" unicode="&#x453;" horiz-adv-x="917" 
d="M686 1149h-126l155 251h176zM232 0h-168l230 1050h643l-28 -127h-475z" />
    <glyph glyph-name="uni0491" unicode="&#x491;" horiz-adv-x="918" 
d="M800 1050l36 163h136l-35 -163l-28 -127h-475l-202 -923h-168l230 1050h506z" />
    <glyph glyph-name="uni0493" unicode="&#x493;" horiz-adv-x="998" 
d="M1018 1050l-27 -127h-476l-75 -342h312l-25 -112h-311l-103 -469h-167l102 469h-178l25 112h178l102 469h643z" />
    <glyph glyph-name="uni0434" unicode="&#x434;" horiz-adv-x="1193" 
d="M108 -188h-147l68 313h66c127 199 163 362 287 925h699l-203 -925h99l-68 -313h-146l40 188h-654zM236 149l9 -24h466l176 800h-378c-94 -421 -158 -645 -273 -776z" />
    </font>
</defs>
</svg>
