<?xml version="1.0" standalone="no"?>
<!DOCTYPE svg PUBLIC "-//W3C//DTD SVG 1.1//EN" "http://www.w3.org/Graphics/SVG/1.1/DTD/svg11.dtd" >
<svg xmlns="http://www.w3.org/2000/svg" xmlns:xlink="http://www.w3.org/1999/xlink" version="1.1">
<metadata>
Created by FontForge 20230101 at Mon Jun 21 02:23:30 2021
 By Webmaster
Copyright \(c\) 2020 by Alexander Slobzheninov. All rights reserved.
</metadata>
<defs>
<font id="PPRightGroteskText-CompactMediumItalic" horiz-adv-x="1429" >
  <font-face 
    font-family="PP Right Grotesk Text Compact Medium"
    font-weight="500"
    font-style="italic"
    font-stretch="semi-condensed"
    units-per-em="2048"
    panose-1="0 0 6 6 0 0 0 0 0 0"
    ascent="1638"
    descent="-410"
    x-height="1050"
    cap-height="1400"
    bbox="-507 -410 2183.15 1787"
    underline-thickness="105"
    underline-position="-200"
    slope="-12"
    stemh="141"
    stemv="200"
    unicode-range="U+0020-2BA7"
  />
<missing-glyph horiz-adv-x="1293" 
d="M1029 0h-989l298 1400h989zM249 196l48 -11c51 116 132 263 187 351l441 704h-420l-140 -660c-20 -94 -65 -246 -116 -384zM883 864l-440 -704h419l140 660c19 90 65 241 116 384l-48 11c-51 -116 -130 -262 -187 -351z" />
    <glyph glyph-name=".notdef" horiz-adv-x="1293" 
d="M1029 0h-989l298 1400h989zM249 196l48 -11c51 116 132 263 187 351l441 704h-420l-140 -660c-20 -94 -65 -246 -116 -384zM883 864l-440 -704h419l140 660c19 90 65 241 116 384l-48 11c-51 -116 -130 -262 -187 -351z" />
    <glyph glyph-name="space" unicode=" " horiz-adv-x="433" 
 />
    <glyph glyph-name="A" unicode="A" horiz-adv-x="1114" 
d="M185 0h-210l648 1400h252l40 -1400h-209l-3 278h-391zM542 813l-164 -381h324l2 381c2 120 7 251 16 362l-37 4c-44 -125 -94 -257 -141 -366z" />
    <glyph glyph-name="B" unicode="B" horiz-adv-x="1113" 
d="M493 0h-433l305 1400h400c205 0 315 -91 315 -264c0 -196 -93 -361 -280 -384l-1 -33c114 -22 175 -100 175 -229c0 -303 -179 -490 -481 -490zM535 1234l-93 -425h170c171 0 263 120 263 287c0 96 -60 138 -171 138h-169zM411 664l-109 -498h182c192 0 282 138 282 327
c0 119 -61 171 -183 171h-172z" />
    <glyph glyph-name="C" unicode="C" horiz-adv-x="1131" 
d="M510 -21c-309 0 -450 240 -361 640l61 271c74 335 225 531 496 531c259 0 429 -177 366 -518l-206 -24c55 270 -19 376 -167 376s-226 -115 -281 -355l-81 -353c-63 -274 21 -402 180 -402c134 0 215 97 277 379l193 -69c-74 -329 -237 -476 -477 -476z" />
    <glyph glyph-name="D" unicode="D" horiz-adv-x="1134" 
d="M459 0h-399l305 1400h328c312 0 459 -218 364 -629l-59 -257c-77 -335 -237 -514 -539 -514zM535 1234l-233 -1068h166c177 0 269 102 323 335l78 346c63 274 -18 387 -193 387h-141z" />
    <glyph glyph-name="E" unicode="E" horiz-adv-x="969" 
d="M744 0h-684l305 1400h666l-36 -166h-460l-92 -420h420l-33 -154h-419l-109 -494h478z" />
    <glyph glyph-name="F" unicode="F" horiz-adv-x="931" 
d="M268 0h-208l301 1400h653l-35 -166h-446l-92 -428h405l-33 -154h-405z" />
    <glyph glyph-name="G" unicode="G" horiz-adv-x="1168" 
d="M399 -17c-246 0 -341 227 -254 616l66 298c74 333 234 524 513 524c259 0 417 -155 367 -435l-206 -33c46 215 -27 302 -170 302c-163 0 -243 -116 -296 -352l-79 -349c-62 -276 -13 -405 138 -405c139 0 242 137 344 417h-194l37 166h385l-160 -732h-179
c16 73 44 149 144 379l-32 12c-149 -300 -246 -408 -424 -408z" />
    <glyph glyph-name="H" unicode="H" horiz-adv-x="1184" 
d="M265 0h-205l305 1400h206l-125 -574h420l125 574h206l-305 -1400h-206l144 660h-421z" />
    <glyph glyph-name="I" unicode="I" horiz-adv-x="557" 
d="M265 0h-205l305 1400h206z" />
    <glyph glyph-name="J" unicode="J" horiz-adv-x="976" 
d="M381 -21c-226 0 -359 133 -301 443l211 29c-47 -236 0 -317 103 -317c86 0 138 61 163 181l237 1085h206l-244 -1112c-43 -201 -163 -309 -375 -309z" />
    <glyph glyph-name="K" unicode="K" horiz-adv-x="1067" 
d="M265 0h-205l305 1400h206l-72 -333c-25 -114 -50 -193 -102 -309l28 -15l521 657h220l-432 -520l130 -880h-209l-78 733l-200 -221z" />
    <glyph glyph-name="L" unicode="L" horiz-adv-x="914" 
d="M702 0h-642l305 1400h206l-269 -1234h436z" />
    <glyph glyph-name="M" unicode="M" horiz-adv-x="1507" 
d="M255 0h-195l305 1400h282l39 -694c6 -116 5 -282 -4 -419l32 -3c40 129 105 295 165 418l336 698h306l-305 -1400h-202l123 561c42 192 106 447 153 616l-42 6l-534 -1183h-151l-52 1180h-44c-14 -182 -51 -440 -90 -621z" />
    <glyph glyph-name="N" unicode="N" horiz-adv-x="1202" 
d="M258 0h-198l305 1400h239l130 -742c21 -114 40 -281 46 -398l41 1c6 168 31 382 58 506l137 633h200l-306 -1400h-236l-128 728c-22 117 -42 294 -48 419l-41 -1c-3 -152 -29 -366 -59 -507z" />
    <glyph glyph-name="O" unicode="O" horiz-adv-x="1167" 
d="M523 -21c-316 0 -463 240 -374 640l61 270c74 337 225 532 507 532c317 0 465 -242 375 -645l-61 -270c-74 -333 -224 -527 -508 -527zM531 145c157 0 239 117 292 351l80 351c64 277 -21 408 -192 408c-158 0 -239 -119 -294 -358l-80 -351c-63 -273 22 -401 194 -401z
" />
    <glyph glyph-name="P" unicode="P" horiz-adv-x="1064" 
d="M265 0h-205l305 1400h329c242 0 367 -108 367 -330c0 -264 -146 -532 -519 -532h-159zM536 1234l-118 -529h137c207 0 305 155 305 343c0 123 -71 186 -205 186h-119z" />
    <glyph glyph-name="Q" unicode="Q" horiz-adv-x="1167" 
d="M717 1421c317 0 465 -242 375 -645l-61 -270c-73 -330 -222 -524 -501 -527c-23 -88 6 -121 110 -126l120 -5l-70 -180c-247 24 -338 139 -285 324c-233 55 -333 281 -256 627l61 270c74 337 225 532 507 532zM823 496l80 351c64 277 -21 408 -192 408
c-158 0 -239 -119 -294 -358l-80 -351c-63 -273 22 -401 194 -401c157 0 239 117 292 351z" />
    <glyph glyph-name="R" unicode="R" horiz-adv-x="1105" 
d="M266 0h-206l305 1400h356c229 0 352 -93 352 -287c0 -197 -117 -381 -356 -395l-1 -33c98 -21 130 -80 135 -237l6 -157c5 -157 25 -234 66 -258l-9 -33h-230c-21 59 -29 134 -29 282v147c0 149 -20 205 -149 205h-101zM536 1234l-96 -434h135c196 0 287 116 287 272
c0 112 -67 162 -199 162h-127z" />
    <glyph glyph-name="S" unicode="S" horiz-adv-x="1111" 
d="M513 -21c-291 0 -452 167 -398 481l198 33c-49 -250 36 -360 210 -360c122 0 206 68 213 188c5 92 -29 158 -146 273l-115 111c-122 120 -195 212 -190 374c8 218 162 342 398 342c275 0 414 -162 367 -439l-189 -30c37 214 -25 315 -185 315c-111 0 -189 -59 -194 -167
c-4 -85 36 -154 158 -270l112 -106c116 -109 192 -214 184 -388c-10 -222 -169 -357 -423 -357z" />
    <glyph glyph-name="T" unicode="T" horiz-adv-x="990" 
d="M479 0h-206l269 1234h-305l37 166h815l-36 -166h-305z" />
    <glyph glyph-name="U" unicode="U" horiz-adv-x="1155" 
d="M497 -21c-281 0 -416 156 -361 419l213 1002h206l-223 -1024c-33 -151 30 -231 171 -231c126 0 211 74 244 223l227 1032h205l-233 -1058c-53 -239 -206 -363 -449 -363z" />
    <glyph glyph-name="V" unicode="V" horiz-adv-x="1092" 
d="M547 0h-238l-36 1400h208v-778c-1 -110 -12 -259 -28 -411l36 -3c47 150 99 299 149 414l337 778h216z" />
    <glyph glyph-name="W" unicode="W" horiz-adv-x="1586" 
d="M490 0h-241l24 1400h201l-29 -762c-6 -135 -16 -238 -37 -396l39 -4c43 148 88 291 131 399l298 763h209l-34 -762c-5 -110 -21 -252 -46 -395l40 -4c43 138 91 282 138 399l301 762h201l-583 -1400h-245l28 626c7 144 24 311 48 478l-38 4c-52 -180 -106 -346 -159 -482
z" />
    <glyph glyph-name="X" unicode="X" horiz-adv-x="1067" 
d="M204 0h-229l474 740l-147 660h210l70 -346c9 -50 13 -126 9 -191l33 -2c19 66 50 140 78 184l225 355h226l-454 -689l170 -711h-217l-78 393c-11 53 -16 133 -13 201l-33 2c-18 -68 -48 -141 -81 -196z" />
    <glyph glyph-name="Y" unicode="Y" horiz-adv-x="1051" 
d="M509 0h-206l127 570l-157 830h206l61 -382c10 -77 16 -151 12 -249l34 -3c39 100 77 174 120 252l223 382h221l-525 -859z" />
    <glyph glyph-name="Z" unicode="Z" horiz-adv-x="941" 
d="M735 0h-748l26 143l594 899c31 48 88 120 130 163l-7 31c-42 -2 -79 -2 -127 -2h-348l36 166h712l-27 -143l-578 -889c-30 -47 -90 -123 -140 -173l7 -30c43 1 79 2 127 2h379z" />
    <glyph glyph-name="a" unicode="a" horiz-adv-x="978" 
d="M264 -21c-133 0 -212 91 -212 217c0 216 167 339 399 400l188 50l27 114c26 111 -29 170 -117 170c-104 0 -164 -69 -174 -190l-190 40c19 169 144 291 371 291c220 0 350 -122 301 -339l-116 -518c-15 -67 -7 -85 38 -86l38 -2l-51 -143c-11 -3 -30 -4 -45 -4
c-159 0 -182 77 -110 245l-34 7c-71 -166 -162 -252 -313 -252zM356 120c95 0 187 112 225 272l29 117l-128 -37c-140 -40 -222 -123 -222 -239c0 -71 34 -113 96 -113z" />
    <glyph glyph-name="b" unicode="b" horiz-adv-x="1003" 
d="M504 -16c-132 0 -209 78 -225 247l-38 -2c10 -113 6 -183 -4 -229h-197l306 1400h202l-55 -243c-20 -92 -64 -202 -126 -322l34 -13c99 173 177 244 307 244c189 0 269 -162 204 -459l-51 -228c-56 -257 -173 -395 -357 -395zM459 125c100 0 166 89 204 264l53 241
c45 208 1 295 -103 295c-107 0 -195 -122 -237 -312l-39 -176c-45 -202 3 -312 122 -312z" />
    <glyph glyph-name="c" unicode="c" horiz-adv-x="945" 
d="M404 -21c-254 0 -374 191 -306 496l42 189c60 264 188 407 407 407c215 0 355 -136 313 -370l-199 -16c38 166 -17 246 -118 246c-106 0 -160 -90 -200 -265l-59 -256c-43 -187 10 -291 125 -291c95 0 153 72 194 248l188 -54c-57 -227 -191 -334 -387 -334z" />
    <glyph glyph-name="d" unicode="d" horiz-adv-x="1006" 
d="M293 -16c-190 0 -268 160 -204 447l52 233c57 261 179 402 352 402c150 0 227 -89 234 -244l37 4c-7 129 -2 226 17 312l57 262h202l-305 -1400h-192c8 44 33 105 93 212l-33 14c-84 -164 -183 -242 -310 -242zM391 125c107 0 194 122 236 310l40 177
c45 203 -4 313 -123 313c-99 0 -165 -89 -204 -266l-53 -240c-45 -203 0 -294 104 -294z" />
    <glyph glyph-name="e" unicode="e" horiz-adv-x="952" 
d="M824 481h-529l-19 -87c-41 -180 15 -275 133 -275c95 0 156 64 204 213l178 -43c-59 -204 -201 -310 -388 -310c-252 0 -374 186 -309 477l46 206c58 261 189 409 419 409c198 0 321 -116 321 -306c0 -77 -25 -201 -56 -284zM552 930c-115 0 -176 -92 -216 -268l-9 -41
h334l19 85c32 147 -22 224 -128 224z" />
    <glyph glyph-name="f" unicode="f" horiz-adv-x="692" 
d="M295 0h-202l197 900h-129l33 150h129l17 77c44 189 164 290 445 294l-13 -165l-93 -5c-96 -5 -126 -33 -144 -118l-17 -83h203l-32 -150h-197z" />
    <glyph glyph-name="g" unicode="g" horiz-adv-x="937" 
d="M994 1161l-82 -10c-77 -9 -123 -37 -125 -135c71 -47 112 -121 112 -214c0 -244 -165 -405 -417 -405c-55 0 -104 9 -147 26c-58 -9 -99 -33 -99 -77c0 -37 34 -61 148 -88l128 -29c113 -26 234 -85 234 -248c0 -231 -155 -352 -454 -352c-236 0 -360 77 -360 231
c0 127 77 213 225 241l4 36c-61 30 -100 77 -100 140c0 94 71 153 184 157l6 40c-53 46 -83 113 -83 192c0 243 166 403 418 403c50 0 95 -7 135 -21c-10 177 76 277 249 291zM499 519c122 0 202 109 202 273c0 94 -54 155 -135 155c-120 0 -199 -107 -199 -270
c0 -94 53 -158 132 -158zM395 78l-119 23c-112 -35 -170 -99 -170 -193c0 -90 67 -138 217 -138c162 0 248 62 248 175c0 75 -65 111 -176 133z" />
    <glyph glyph-name="h" unicode="h" horiz-adv-x="1002" 
d="M242 0h-202l306 1400h201l-66 -305c-21 -97 -59 -175 -121 -278l32 -17c121 188 205 266 341 266c154 0 222 -93 185 -267l-171 -799h-202l171 781c19 90 -10 144 -80 144c-117 0 -235 -162 -281 -383z" />
    <glyph glyph-name="i" unicode="i" horiz-adv-x="511" 
d="M513 1209h-219l41 191h219zM242 0h-202l230 1050h201z" />
    <glyph glyph-name="j" unicode="j" horiz-adv-x="510" 
d="M512 1209h-219l41 191h219zM-190 -371l-25 178l87 6c92 8 135 38 155 128l242 1109h201l-220 -1010c-65 -285 -217 -390 -440 -411z" />
    <glyph glyph-name="k" unicode="k" horiz-adv-x="917" 
d="M242 0h-202l306 1400h201l-96 -439c-28 -129 -67 -240 -118 -337l27 -15l376 441h216l-324 -349l98 -701h-198l-54 578l-142 -149z" />
    <glyph glyph-name="l" unicode="l" horiz-adv-x="513" 
d="M242 0h-202l306 1400h201z" />
    <glyph glyph-name="m" unicode="m" horiz-adv-x="1434" 
d="M242 0h-202l230 1050h195c-8 -50 -34 -108 -100 -223l32 -18c115 190 196 257 319 257c135 0 179 -92 113 -249l32 -15c98 189 193 264 327 264c144 0 202 -88 165 -255l-176 -811h-200l172 787c19 88 -5 137 -69 137c-109 0 -206 -156 -249 -356l-121 -568h-201l172 786
c19 86 -5 139 -69 139c-102 0 -205 -151 -249 -359z" />
    <glyph glyph-name="n" unicode="n" horiz-adv-x="1002" 
d="M242 0h-202l230 1050h196c-8 -51 -38 -118 -106 -233l32 -17c121 188 205 266 341 266c154 0 222 -93 185 -267l-171 -799h-202l171 781c19 90 -8 144 -78 144c-117 0 -237 -162 -283 -383z" />
    <glyph glyph-name="o" unicode="o" horiz-adv-x="952" 
d="M413 -21c-261 0 -380 198 -315 497l42 195c56 259 190 400 400 400c260 0 380 -197 314 -497l-42 -195c-55 -258 -189 -400 -399 -400zM416 119c100 0 153 79 194 260l59 262c42 185 -5 290 -129 290c-102 0 -157 -79 -197 -260l-59 -259c-42 -188 6 -293 132 -293z" />
    <glyph glyph-name="p" unicode="p" horiz-adv-x="1006" 
d="M713 1066c190 0 268 -160 204 -447l-52 -233c-57 -261 -179 -402 -352 -402c-150 0 -227 89 -234 244l-37 -4c7 -129 2 -226 -17 -312l-57 -262h-202l305 1400h192c-8 -44 -33 -105 -93 -212l33 -14c84 164 183 242 310 242zM615 925c-107 0 -194 -122 -236 -310
l-40 -177c-45 -203 4 -313 123 -313c99 0 165 89 204 266l53 240c45 203 0 294 -104 294z" />
    <glyph glyph-name="q" unicode="q" horiz-adv-x="1004" 
d="M500 1066c131 0 208 -78 225 -247l37 2c-9 113 -6 183 4 229h197l-306 -1400h-201l54 243c21 92 64 202 126 322l-34 13c-99 -173 -176 -244 -307 -244c-189 0 -269 162 -203 459l50 228c56 257 173 395 358 395zM544 925c-100 0 -166 -89 -204 -264l-52 -241
c-46 -208 -1 -295 102 -295c107 0 196 122 238 312l39 176c45 202 -4 312 -123 312z" />
    <glyph glyph-name="r" unicode="r" horiz-adv-x="749" 
d="M242 0h-202l230 1050h196c-9 -51 -38 -118 -106 -233l32 -17c123 203 208 268 370 278l-10 -185l-78 -8c-169 -17 -269 -126 -324 -383z" />
    <glyph glyph-name="s" unicode="s" horiz-adv-x="902" 
d="M391 -19c-236 0 -376 123 -334 340l187 26c-29 -154 33 -232 151 -232c83 0 140 42 145 123c4 72 -28 129 -119 209l-91 80c-90 80 -148 161 -142 273c10 167 121 269 325 269c222 0 347 -112 310 -304l-186 -24c29 130 -23 194 -123 194c-84 0 -132 -40 -137 -111
c-5 -63 21 -108 112 -187l90 -77c91 -78 163 -163 156 -302c-11 -172 -130 -277 -344 -277z" />
    <glyph glyph-name="t" unicode="t" horiz-adv-x="743" 
d="M359 -19c-169 0 -246 93 -208 266l142 653h-132l33 150h132l61 269l211 54l-71 -323h239l-33 -150h-238l-139 -633c-19 -84 11 -120 87 -120c46 0 87 9 125 24l-39 -152c-48 -25 -109 -38 -170 -38z" />
    <glyph glyph-name="u" unicode="u" horiz-adv-x="1002" 
d="M760 1050h202l-230 -1050h-196c8 51 38 118 106 233l-32 17c-121 -188 -205 -266 -341 -266c-154 0 -222 93 -185 267l171 799h202l-171 -781c-19 -90 8 -144 78 -144c117 0 237 162 283 383z" />
    <glyph glyph-name="v" unicode="v" horiz-adv-x="947" 
d="M473 0h-232l-52 1050h203l8 -463c2 -111 -2 -223 -16 -363l35 -4c48 141 93 254 143 367l206 463h214z" />
    <glyph glyph-name="w" unicode="w" horiz-adv-x="1435" 
d="M442 0h-232l-21 1050h199l-10 -528c-3 -104 -9 -233 -16 -313l37 -4c37 116 84 246 113 316l218 529h206l-11 -527c-3 -86 -11 -217 -21 -314l37 -4c32 104 77 227 108 299l230 546h191l-472 -1050h-238l11 470c4 108 16 259 32 368l-36 5c-34 -113 -88 -265 -131 -371z
" />
    <glyph glyph-name="x" unicode="x" horiz-adv-x="936" 
d="M182 0h-217l381 547l-134 503h209l53 -222c8 -35 14 -86 11 -165l31 -2c24 69 50 117 75 157l154 232h213l-357 -514l146 -536h-214l-62 265c-9 41 -15 90 -12 156l-31 3c-22 -66 -46 -113 -71 -153z" />
    <glyph glyph-name="y" unicode="y" horiz-adv-x="944" 
d="M-43 -370l-12 176l106 10c105 10 131 40 159 112l29 72l-48 1050h205l-1 -528c1 -107 -2 -203 -15 -340l34 -3c47 140 86 235 132 343l223 528h210l-464 -992c-138 -297 -286 -405 -558 -428z" />
    <glyph glyph-name="z" unicode="z" horiz-adv-x="864" 
d="M659 0h-672l22 131l468 599c25 31 67 81 133 137l-6 31c-29 -1 -52 -2 -86 -2h-323l32 154h637l-23 -131l-467 -598c-25 -31 -70 -83 -134 -139l8 -30c28 1 57 2 89 2h354z" />
    <glyph glyph-name="Aacute" unicode="&#xc1;" horiz-adv-x="1114" 
d="M841 1491h-154l135 212h214zM185 0h-210l648 1400h252l40 -1400h-209l-3 278h-391zM542 813l-164 -381h324l2 381c2 120 7 251 16 362l-37 4c-44 -125 -94 -257 -141 -366z" />
    <glyph glyph-name="Abreve" unicode="&#x102;" horiz-adv-x="1114" 
d="M782 1484c-158 0 -233 76 -217 219h142c-8 -68 23 -105 88 -105c67 0 108 36 122 105h146c-27 -146 -121 -219 -281 -219zM185 0h-210l648 1400h252l40 -1400h-209l-3 278h-391zM542 813l-164 -381h324l2 381c2 120 7 251 16 362l-37 4c-44 -125 -94 -257 -141 -366z" />
    <glyph glyph-name="Acircumflex" unicode="&#xc2;" horiz-adv-x="1114" 
d="M656 1491h-167l217 212h193l147 -212h-160l-99 102zM185 0h-210l648 1400h252l40 -1400h-209l-3 278h-391zM542 813l-164 -381h324l2 381c2 120 7 251 16 362l-37 4c-44 -125 -94 -257 -141 -366z" />
    <glyph glyph-name="Adieresis" unicode="&#xc4;" horiz-adv-x="1114" 
d="M716 1504h-195l42 192h194zM1027 1504h-195l42 192h194zM185 0h-210l648 1400h252l40 -1400h-209l-3 278h-391zM542 813l-164 -381h324l2 381c2 120 7 251 16 362l-37 4c-44 -125 -94 -257 -141 -366z" />
    <glyph glyph-name="Agrave" unicode="&#xc0;" horiz-adv-x="1114" 
d="M831 1491h-148l-151 212h207zM185 0h-210l648 1400h252l40 -1400h-209l-3 278h-391zM542 813l-164 -381h324l2 381c2 120 7 251 16 362l-37 4c-44 -125 -94 -257 -141 -366z" />
    <glyph glyph-name="Amacron" unicode="&#x100;" horiz-adv-x="1114" 
d="M1025 1511h-497l29 132h497zM185 0h-210l648 1400h252l40 -1400h-209l-3 278h-391zM542 813l-164 -381h324l2 381c2 120 7 251 16 362l-37 4c-44 -125 -94 -257 -141 -366z" />
    <glyph glyph-name="Aogonek" unicode="&#x104;" horiz-adv-x="1114" 
d="M760 -117c0 -28 21 -44 56 -44c18 0 37 3 56 8l-41 -133c-24 -9 -50 -14 -78 -14c-89 0 -142 45 -142 122c0 71 49 137 145 178h-50l-3 278h-391l-127 -278h-210l648 1400h252l40 -1400c-103 -33 -155 -73 -155 -117zM702 432l2 381c2 120 7 251 16 362l-37 4
c-44 -125 -94 -257 -141 -366l-164 -381h324z" />
    <glyph glyph-name="Aring" unicode="&#xc5;" horiz-adv-x="1114" 
d="M799 1465c-124 0 -201 61 -201 161c0 99 77 161 201 161c126 0 202 -62 202 -161c0 -100 -76 -161 -202 -161zM799 1559c51 0 82 26 82 67s-31 67 -82 67s-80 -26 -80 -67s29 -67 80 -67zM185 0h-210l648 1400h252l40 -1400h-209l-3 278h-391zM542 813l-164 -381h324
l2 381c2 120 7 251 16 362l-37 4c-44 -125 -94 -257 -141 -366z" />
    <glyph glyph-name="Atilde" unicode="&#xc3;" horiz-adv-x="1114" 
d="M910 1491c-104 0 -184 93 -236 93c-35 0 -53 -23 -68 -87h-108c26 140 81 206 181 206c103 0 180 -94 233 -94c33 0 50 24 66 88h107c-25 -141 -82 -206 -175 -206zM185 0h-210l648 1400h252l40 -1400h-209l-3 278h-391zM542 813l-164 -381h324l2 381c2 120 7 251 16 362
l-37 4c-44 -125 -94 -257 -141 -366z" />
    <glyph glyph-name="AE" unicode="&#xc6;" horiz-adv-x="1470" 
d="M185 0h-209l750 1400h807l-37 -166h-452l-91 -422h411l-33 -154h-411l-108 -492h469l-37 -166h-665l61 279h-305zM677 929l-262 -496h258l182 804l-42 3c-32 -89 -88 -217 -136 -311z" />
    <glyph glyph-name="AEacute" unicode="&#x1fc;" horiz-adv-x="1470" 
d="M996 1491h-154l135 212h214zM185 0h-209l750 1400h807l-37 -166h-452l-91 -422h411l-33 -154h-411l-108 -492h469l-37 -166h-665l61 279h-305zM677 929l-262 -496h258l182 804l-42 3c-32 -89 -88 -217 -136 -311z" />
    <glyph glyph-name="Cacute" unicode="&#x106;" horiz-adv-x="1131" 
d="M841 1491h-154l135 212h214zM510 -21c-309 0 -450 240 -361 640l61 271c74 335 225 531 496 531c259 0 429 -177 366 -518l-206 -24c55 270 -19 376 -167 376s-226 -115 -281 -355l-81 -353c-63 -274 21 -402 180 -402c134 0 215 97 277 379l193 -69
c-74 -329 -237 -476 -477 -476z" />
    <glyph glyph-name="Ccaron" unicode="&#x10c;" horiz-adv-x="1131" 
d="M930 1703h167l-217 -211h-193l-147 211h159l100 -102zM510 -21c-309 0 -450 240 -361 640l61 271c74 335 225 531 496 531c259 0 429 -177 366 -518l-206 -24c55 270 -19 376 -167 376s-226 -115 -281 -355l-81 -353c-63 -274 21 -402 180 -402c134 0 215 97 277 379
l193 -69c-74 -329 -237 -476 -477 -476z" />
    <glyph glyph-name="Ccedilla" unicode="&#xc7;" horiz-adv-x="1131" 
d="M1072 903l-206 -24c55 270 -19 376 -167 376s-226 -115 -281 -355l-81 -353c-63 -274 21 -402 180 -402c134 0 215 97 277 379l193 -69c-74 -328 -236 -475 -475 -476l-21 -57c95 -18 148 -62 148 -137c0 -93 -72 -148 -183 -148c-60 0 -117 16 -163 45l35 99
c35 -23 77 -36 118 -36c47 0 76 21 76 55c0 46 -69 66 -167 71l42 120c-229 54 -325 280 -248 628l61 271c74 335 225 531 496 531c259 0 429 -177 366 -518z" />
    <glyph glyph-name="Cdotaccent" unicode="&#x10a;" horiz-adv-x="1131" 
d="M886 1504h-225l42 192h224zM510 -21c-309 0 -450 240 -361 640l61 271c74 335 225 531 496 531c259 0 429 -177 366 -518l-206 -24c55 270 -19 376 -167 376s-226 -115 -281 -355l-81 -353c-63 -274 21 -402 180 -402c134 0 215 97 277 379l193 -69
c-74 -329 -237 -476 -477 -476z" />
    <glyph glyph-name="Eth" unicode="&#xd0;" horiz-adv-x="1147" 
d="M379 1400h328c312 0 459 -218 364 -629l-59 -257c-78 -335 -237 -514 -539 -514h-399l146 671h-104l34 145h102zM804 501l79 346c63 274 -18 387 -194 387h-140l-91 -418h225l-32 -145h-225l-110 -505h166c177 0 269 102 322 335z" />
    <glyph glyph-name="Dcaron" unicode="&#x10e;" horiz-adv-x="1134" 
d="M910 1703h167l-217 -211h-193l-147 211h159l100 -102zM459 0h-399l305 1400h328c312 0 459 -218 364 -629l-59 -257c-77 -335 -237 -514 -539 -514zM535 1234l-233 -1068h166c177 0 269 102 323 335l78 346c63 274 -18 387 -193 387h-141z" />
    <glyph glyph-name="Dcroat" unicode="&#x110;" horiz-adv-x="1147" 
d="M379 1400h328c312 0 459 -218 364 -629l-59 -257c-78 -335 -237 -514 -539 -514h-399l146 671h-104l34 145h102zM804 501l79 346c63 274 -18 387 -194 387h-140l-91 -418h225l-32 -145h-225l-110 -505h166c177 0 269 102 322 335z" />
    <glyph glyph-name="Eacute" unicode="&#xc9;" horiz-adv-x="969" 
d="M794 1491h-154l135 212h214zM744 0h-684l305 1400h666l-36 -166h-460l-92 -420h420l-33 -154h-419l-109 -494h478z" />
    <glyph glyph-name="Ecaron" unicode="&#x11a;" horiz-adv-x="969" 
d="M883 1703h167l-217 -211h-193l-147 211h159l100 -102zM744 0h-684l305 1400h666l-36 -166h-460l-92 -420h420l-33 -154h-419l-109 -494h478z" />
    <glyph glyph-name="Ecircumflex" unicode="&#xca;" horiz-adv-x="969" 
d="M609 1491h-167l217 212h193l147 -212h-160l-99 102zM744 0h-684l305 1400h666l-36 -166h-460l-92 -420h420l-33 -154h-419l-109 -494h478z" />
    <glyph glyph-name="Edieresis" unicode="&#xcb;" horiz-adv-x="969" 
d="M669 1504h-195l42 192h194zM980 1504h-195l42 192h194zM744 0h-684l305 1400h666l-36 -166h-460l-92 -420h420l-33 -154h-419l-109 -494h478z" />
    <glyph glyph-name="Edotaccent" unicode="&#x116;" horiz-adv-x="969" 
d="M839 1504h-225l42 192h224zM744 0h-684l305 1400h666l-36 -166h-460l-92 -420h420l-33 -154h-419l-109 -494h478z" />
    <glyph glyph-name="Egrave" unicode="&#xc8;" horiz-adv-x="969" 
d="M784 1491h-148l-151 212h207zM744 0h-684l305 1400h666l-36 -166h-460l-92 -420h420l-33 -154h-419l-109 -494h478z" />
    <glyph glyph-name="Emacron" unicode="&#x112;" horiz-adv-x="969" 
d="M978 1511h-497l29 132h497zM744 0h-684l305 1400h666l-36 -166h-460l-92 -420h420l-33 -154h-419l-109 -494h478z" />
    <glyph glyph-name="Eogonek" unicode="&#x118;" horiz-adv-x="969" 
d="M1031 1400l-36 -166h-460l-92 -420h420l-33 -154h-419l-109 -494h478l-36 -166c-103 -33 -155 -73 -155 -117c0 -28 21 -44 56 -44c18 0 37 3 56 8l-41 -133c-24 -9 -50 -14 -78 -14c-89 0 -142 45 -142 122c0 71 49 137 145 178h-525l305 1400h666z" />
    <glyph glyph-name="uni1EBC" unicode="&#x1ebc;" horiz-adv-x="969" 
d="M863 1491c-104 0 -184 93 -236 93c-35 0 -53 -23 -68 -87h-108c26 140 81 206 181 206c103 0 180 -94 233 -94c33 0 50 24 66 88h107c-25 -141 -82 -206 -175 -206zM744 0h-684l305 1400h666l-36 -166h-460l-92 -420h420l-33 -154h-419l-109 -494h478z" />
    <glyph glyph-name="Gbreve" unicode="&#x11e;" horiz-adv-x="1168" 
d="M795 1484c-158 0 -233 76 -217 219h142c-8 -68 23 -105 88 -105c67 0 108 36 122 105h146c-27 -146 -121 -219 -281 -219zM399 -17c-246 0 -341 227 -254 616l66 298c74 333 234 524 513 524c259 0 417 -155 367 -435l-206 -33c46 215 -27 302 -170 302
c-163 0 -243 -116 -296 -352l-79 -349c-62 -276 -13 -405 138 -405c139 0 242 137 344 417h-194l37 166h385l-160 -732h-179c16 73 44 149 144 379l-32 12c-149 -300 -246 -408 -424 -408z" />
    <glyph glyph-name="Gcaron" unicode="&#x1e6;" horiz-adv-x="1168" 
d="M944 1703h167l-217 -211h-193l-147 211h159l100 -102zM399 -17c-246 0 -341 227 -254 616l66 298c74 333 234 524 513 524c259 0 417 -155 367 -435l-206 -33c46 215 -27 302 -170 302c-163 0 -243 -116 -296 -352l-79 -349c-62 -276 -13 -405 138 -405
c139 0 242 137 344 417h-194l37 166h385l-160 -732h-179c16 73 44 149 144 379l-32 12c-149 -300 -246 -408 -424 -408z" />
    <glyph glyph-name="uni0122" unicode="&#x122;" horiz-adv-x="1168" 
d="M399 -17c-246 0 -341 227 -254 616l66 298c74 333 234 524 513 524c259 0 417 -155 367 -435l-206 -33c46 215 -27 302 -170 302c-163 0 -243 -116 -296 -352l-79 -349c-62 -276 -13 -405 138 -405c139 0 242 137 344 417h-194l37 166h385l-160 -732h-179
c16 73 44 149 144 379l-32 12c-149 -300 -246 -408 -424 -408zM307 -373l-9 64c74 4 100 25 114 87h-94l29 137h194l-25 -116c-26 -120 -78 -164 -209 -172z" />
    <glyph glyph-name="Gdotaccent" unicode="&#x120;" horiz-adv-x="1168" 
d="M900 1504h-225l42 192h224zM399 -17c-246 0 -341 227 -254 616l66 298c74 333 234 524 513 524c259 0 417 -155 367 -435l-206 -33c46 215 -27 302 -170 302c-163 0 -243 -116 -296 -352l-79 -349c-62 -276 -13 -405 138 -405c139 0 242 137 344 417h-194l37 166h385
l-160 -732h-179c16 73 44 149 144 379l-32 12c-149 -300 -246 -408 -424 -408z" />
    <glyph glyph-name="Hbar" unicode="&#x126;" horiz-adv-x="1171" 
d="M1132 1104h94l-31 -144h-94l-204 -960h-208l113 532h-431l-112 -532h-208l204 960h-95l31 144h95l63 296h208l-63 -296h430l63 296h208zM407 698h431l56 262h-431z" />
    <glyph glyph-name="Iacute" unicode="&#xcd;" horiz-adv-x="557" 
d="M559 1491h-154l135 212h214zM265 0h-205l305 1400h206z" />
    <glyph glyph-name="Icircumflex" unicode="&#xce;" horiz-adv-x="557" 
d="M430 1491h-126l148 212h163l59 -212h-119l-41 111zM265 0h-205l305 1400h206z" />
    <glyph glyph-name="Idieresis" unicode="&#xcf;" horiz-adv-x="557" 
d="M447 1502h-154l44 198h153zM660 1502h-153l43 198h153zM265 0h-205l305 1400h206z" />
    <glyph glyph-name="Idotaccent" unicode="&#x130;" horiz-adv-x="557" 
d="M604 1504h-225l42 192h224zM265 0h-205l305 1400h206z" />
    <glyph glyph-name="Igrave" unicode="&#xcc;" horiz-adv-x="557" 
d="M549 1491h-148l-151 212h207zM265 0h-205l305 1400h206z" />
    <glyph glyph-name="Imacron" unicode="&#x12a;" horiz-adv-x="557" 
d="M665 1542h-333l26 121h334zM265 0h-205l305 1400h206z" />
    <glyph glyph-name="Iogonek" unicode="&#x12e;" horiz-adv-x="557" 
d="M571 1400l-306 -1400c-103 -33 -155 -73 -155 -117c0 -28 21 -44 56 -44c18 0 37 3 56 8l-41 -133c-24 -9 -50 -14 -78 -14c-89 0 -142 45 -142 122c0 71 49 137 145 178h-46l305 1400h206z" />
    <glyph glyph-name="Itilde" unicode="&#x128;" horiz-adv-x="557" 
d="M578 1507c-55 0 -101 54 -130 54c-21 0 -32 -17 -36 -50h-90c14 122 50 181 116 181c51 0 102 -55 132 -55c20 0 31 17 35 51h91c-16 -122 -54 -181 -118 -181zM265 0h-205l305 1400h206z" />
    <glyph glyph-name="uni004A0301" horiz-adv-x="976" 
d="M988 1491h-154l135 212h214zM381 -21c-226 0 -359 133 -301 443l211 29c-47 -236 0 -317 103 -317c86 0 138 61 163 181l237 1085h206l-244 -1112c-43 -201 -163 -309 -375 -309z" />
    <glyph glyph-name="uni0136" unicode="&#x136;" horiz-adv-x="1067" 
d="M265 0h-205l305 1400h206l-72 -333c-25 -114 -50 -193 -102 -309l28 -15l521 657h220l-432 -520l130 -880h-209l-78 733l-200 -221zM295 -373l-9 64c74 4 100 25 114 87h-94l29 137h194l-25 -116c-26 -120 -78 -164 -209 -172z" />
    <glyph glyph-name="Lacute" unicode="&#x139;" horiz-adv-x="914" 
d="M561 1491h-154l135 212h214zM702 0h-642l305 1400h206l-269 -1234h436z" />
    <glyph glyph-name="Lcaron" unicode="&#x13d;" horiz-adv-x="914" 
d="M702 0h-642l305 1400h206l-269 -1234h436zM769 1081h-122l83 319h158z" />
    <glyph glyph-name="uni013B" unicode="&#x13b;" horiz-adv-x="914" 
d="M702 0h-642l305 1400h206l-269 -1234h436zM226 -373l-9 64c74 4 100 25 114 87h-94l29 137h194l-25 -116c-26 -120 -78 -164 -209 -172z" />
    <glyph glyph-name="Ldot" unicode="&#x13f;" horiz-adv-x="969" 
d="M702 0h-642l305 1400h206l-269 -1234h436zM593 688l50 230h250l-50 -230h-250z" />
    <glyph glyph-name="Lslash" unicode="&#x141;" horiz-adv-x="939" 
d="M443 696l-116 -530h436l-36 -166h-642l136 626l-136 -44l36 166l136 44l133 608h206l-117 -538l239 77l-36 -166z" />
    <glyph glyph-name="Nacute" unicode="&#x143;" horiz-adv-x="1202" 
d="M881 1491h-154l135 212h214zM258 0h-198l305 1400h239l130 -742c21 -114 40 -281 46 -398l41 1c6 168 31 382 58 506l137 633h200l-306 -1400h-236l-128 728c-22 117 -42 294 -48 419l-41 -1c-3 -152 -29 -366 -59 -507z" />
    <glyph glyph-name="Ncaron" unicode="&#x147;" horiz-adv-x="1202" 
d="M970 1703h167l-217 -211h-193l-147 211h159l100 -102zM258 0h-198l305 1400h239l130 -742c21 -114 40 -281 46 -398l41 1c6 168 31 382 58 506l137 633h200l-306 -1400h-236l-128 728c-22 117 -42 294 -48 419l-41 -1c-3 -152 -29 -366 -59 -507z" />
    <glyph glyph-name="uni0145" unicode="&#x145;" horiz-adv-x="1202" 
d="M258 0h-198l305 1400h239l130 -742c21 -114 40 -281 46 -398l41 1c6 168 31 382 58 506l137 633h200l-306 -1400h-236l-128 728c-22 117 -42 294 -48 419l-41 -1c-3 -152 -29 -366 -59 -507zM329 -373l-9 64c74 4 100 25 114 87h-94l29 137h194l-25 -116
c-26 -120 -78 -164 -209 -172z" />
    <glyph glyph-name="Eng" unicode="&#x14a;" horiz-adv-x="1202" 
d="M430 -371l-22 178l92 6c127 8 166 43 187 187l-148 788c-18 95 -26 210 -27 323h-38c-7 -114 -24 -235 -50 -355l-166 -756h-198l305 1400h236l143 -784c16 -88 24 -196 25 -303l38 -1c10 127 27 252 49 354l160 734h200l-306 -1400c-52 -230 -196 -339 -480 -371z" />
    <glyph glyph-name="Ntilde" unicode="&#xd1;" horiz-adv-x="1202" 
d="M950 1491c-104 0 -184 93 -236 93c-35 0 -53 -23 -68 -87h-108c26 140 81 206 181 206c103 0 180 -94 233 -94c33 0 50 24 66 88h107c-25 -141 -82 -206 -175 -206zM258 0h-198l305 1400h239l130 -742c21 -114 40 -281 46 -398l41 1c6 168 31 382 58 506l137 633h200
l-306 -1400h-236l-128 728c-22 117 -42 294 -48 419l-41 -1c-3 -152 -29 -366 -59 -507z" />
    <glyph glyph-name="Oacute" unicode="&#xd3;" horiz-adv-x="1167" 
d="M837 1491h-154l135 212h214zM523 -21c-316 0 -463 240 -374 640l61 270c74 337 225 532 507 532c317 0 465 -242 375 -645l-61 -270c-74 -333 -224 -527 -508 -527zM531 145c157 0 239 117 292 351l80 351c64 277 -21 408 -192 408c-158 0 -239 -119 -294 -358l-80 -351
c-63 -273 22 -401 194 -401z" />
    <glyph glyph-name="Ocircumflex" unicode="&#xd4;" horiz-adv-x="1167" 
d="M652 1491h-167l217 212h193l147 -212h-160l-99 102zM523 -21c-316 0 -463 240 -374 640l61 270c74 337 225 532 507 532c317 0 465 -242 375 -645l-61 -270c-74 -333 -224 -527 -508 -527zM531 145c157 0 239 117 292 351l80 351c64 277 -21 408 -192 408
c-158 0 -239 -119 -294 -358l-80 -351c-63 -273 22 -401 194 -401z" />
    <glyph glyph-name="Odieresis" unicode="&#xd6;" horiz-adv-x="1167" 
d="M712 1504h-195l42 192h194zM1023 1504h-195l42 192h194zM523 -21c-316 0 -463 240 -374 640l61 270c74 337 225 532 507 532c317 0 465 -242 375 -645l-61 -270c-74 -333 -224 -527 -508 -527zM531 145c157 0 239 117 292 351l80 351c64 277 -21 408 -192 408
c-158 0 -239 -119 -294 -358l-80 -351c-63 -273 22 -401 194 -401z" />
    <glyph glyph-name="Ograve" unicode="&#xd2;" horiz-adv-x="1167" 
d="M827 1491h-148l-151 212h207zM523 -21c-316 0 -463 240 -374 640l61 270c74 337 225 532 507 532c317 0 465 -242 375 -645l-61 -270c-74 -333 -224 -527 -508 -527zM531 145c157 0 239 117 292 351l80 351c64 277 -21 408 -192 408c-158 0 -239 -119 -294 -358l-80 -351
c-63 -273 22 -401 194 -401z" />
    <glyph glyph-name="Ohungarumlaut" unicode="&#x150;" horiz-adv-x="1167" 
d="M684 1491h-154l135 212h214zM962 1491h-154l135 212h214zM523 -21c-316 0 -463 240 -374 640l61 270c74 337 225 532 507 532c317 0 465 -242 375 -645l-61 -270c-74 -333 -224 -527 -508 -527zM531 145c157 0 239 117 292 351l80 351c64 277 -21 408 -192 408
c-158 0 -239 -119 -294 -358l-80 -351c-63 -273 22 -401 194 -401z" />
    <glyph glyph-name="Omacron" unicode="&#x14c;" horiz-adv-x="1167" 
d="M1025 1541h-497l29 131h497zM523 -21c-316 0 -463 240 -374 640l61 270c74 337 225 532 507 532c317 0 465 -242 375 -645l-61 -270c-74 -333 -224 -527 -508 -527zM531 145c157 0 239 117 292 351l80 351c64 277 -21 408 -192 408c-158 0 -239 -119 -294 -358l-80 -351
c-63 -273 22 -401 194 -401z" />
    <glyph glyph-name="uni01EA" unicode="&#x1ea;" horiz-adv-x="1167" 
d="M717 1421c317 0 465 -242 375 -645l-61 -270c-62 -278 -177 -459 -379 -512c-92 -31 -138 -69 -138 -111c0 -28 21 -44 56 -44c18 0 37 3 56 8l-41 -133c-24 -9 -50 -14 -78 -14c-89 0 -142 45 -142 122c0 61 36 118 107 159c-281 25 -407 260 -323 638l61 270
c74 337 225 532 507 532zM823 496l80 351c64 277 -21 408 -192 408c-158 0 -239 -119 -294 -358l-80 -351c-63 -273 22 -401 194 -401c157 0 239 117 292 351z" />
    <glyph glyph-name="Oslash" unicode="&#xd8;" horiz-adv-x="1170" 
d="M1061 1500h170l-168 -257c62 -110 75 -269 31 -467l-60 -271c-74 -333 -225 -526 -509 -526c-100 0 -183 23 -247 68l-96 -147h-171l168 257c-61 109 -74 266 -30 461l60 270c75 337 226 533 509 533c99 0 182 -24 246 -68zM415 897l-80 -350c-16 -71 -23 -132 -20 -184
l550 839c-36 36 -88 53 -151 53c-161 0 -244 -119 -299 -358zM828 497l80 350c17 74 24 138 21 192l-551 -841c36 -35 88 -53 152 -53c160 0 244 116 298 352z" />
    <glyph glyph-name="Oslashacute" unicode="&#x1fe;" horiz-adv-x="1170" 
d="M847 1703h214l-195 -212h-154zM1061 1500h170l-168 -257c62 -110 75 -269 31 -467l-60 -271c-74 -333 -225 -526 -509 -526c-100 0 -183 23 -247 68l-96 -147h-171l168 257c-61 109 -74 266 -30 461l60 270c75 337 226 533 509 533c99 0 182 -24 246 -68zM415 897
l-80 -350c-16 -71 -23 -132 -20 -184l550 839c-36 36 -88 53 -151 53c-161 0 -244 -119 -299 -358zM828 497l80 350c17 74 24 138 21 192l-551 -841c36 -35 88 -53 152 -53c160 0 244 116 298 352z" />
    <glyph glyph-name="Otilde" unicode="&#xd5;" horiz-adv-x="1167" 
d="M906 1491c-104 0 -184 93 -236 93c-35 0 -53 -23 -68 -87h-108c26 140 81 206 181 206c103 0 180 -94 233 -94c33 0 50 24 66 88h107c-25 -141 -82 -206 -175 -206zM523 -21c-316 0 -463 240 -374 640l61 270c74 337 225 532 507 532c317 0 465 -242 375 -645l-61 -270
c-74 -333 -224 -527 -508 -527zM531 145c157 0 239 117 292 351l80 351c64 277 -21 408 -192 408c-158 0 -239 -119 -294 -358l-80 -351c-63 -273 22 -401 194 -401z" />
    <glyph glyph-name="OE" unicode="&#x152;" horiz-adv-x="1616" 
d="M467 -21c-284 0 -409 235 -320 633l63 277c76 336 220 532 488 532c156 0 256 -73 305 -204l41 183h634l-36 -166h-445l-92 -421h405l-33 -153h-406l-107 -494h463l-37 -166h-652l30 122c-79 -95 -180 -143 -301 -143zM528 145c157 0 242 116 296 354l80 349
c64 278 -19 407 -190 407c-159 0 -241 -118 -296 -358l-81 -351c-63 -274 21 -401 191 -401z" />
    <glyph glyph-name="Thorn" unicode="&#xde;" horiz-adv-x="1063" 
d="M265 0h-205l305 1400h206l-52 -242h123c232 0 366 -116 366 -340c0 -313 -207 -534 -521 -534h-160zM482 992l-118 -542h136c185 0 306 143 306 350c0 126 -75 192 -205 192h-119z" />
    <glyph glyph-name="Racute" unicode="&#x154;" horiz-adv-x="1105" 
d="M814 1491h-154l135 212h214zM266 0h-206l305 1400h356c229 0 352 -93 352 -287c0 -197 -117 -381 -356 -395l-1 -33c98 -21 130 -80 135 -237l6 -157c5 -157 25 -234 66 -258l-9 -33h-230c-21 59 -29 134 -29 282v147c0 149 -20 205 -149 205h-101zM536 1234l-96 -434
h135c196 0 287 116 287 272c0 112 -67 162 -199 162h-127z" />
    <glyph glyph-name="Rcaron" unicode="&#x158;" horiz-adv-x="1105" 
d="M903 1703h167l-217 -211h-193l-147 211h159l100 -102zM266 0h-206l305 1400h356c229 0 352 -93 352 -287c0 -197 -117 -381 -356 -395l-1 -33c98 -21 130 -80 135 -237l6 -157c5 -157 25 -234 66 -258l-9 -33h-230c-21 59 -29 134 -29 282v147c0 149 -20 205 -149 205
h-101zM536 1234l-96 -434h135c196 0 287 116 287 272c0 112 -67 162 -199 162h-127z" />
    <glyph glyph-name="uni0156" unicode="&#x156;" horiz-adv-x="1105" 
d="M266 0h-206l305 1400h356c229 0 352 -93 352 -287c0 -197 -117 -381 -356 -395l-1 -33c98 -21 130 -80 135 -237l6 -157c5 -157 25 -234 66 -258l-9 -33h-230c-21 59 -29 134 -29 282v147c0 149 -20 205 -149 205h-101zM536 1234l-96 -434h135c196 0 287 116 287 272
c0 112 -67 162 -199 162h-127zM317 -373l-9 64c74 4 100 25 114 87h-94l29 137h194l-25 -116c-26 -120 -78 -164 -209 -172z" />
    <glyph glyph-name="Sacute" unicode="&#x15a;" horiz-adv-x="1111" 
d="M815 1491h-154l135 212h214zM513 -21c-291 0 -452 167 -398 481l198 33c-49 -250 36 -360 210 -360c122 0 206 68 213 188c5 92 -29 158 -146 273l-115 111c-122 120 -195 212 -190 374c8 218 162 342 398 342c275 0 414 -162 367 -439l-189 -30c37 214 -25 315 -185 315
c-111 0 -189 -59 -194 -167c-4 -85 36 -154 158 -270l112 -106c116 -109 192 -214 184 -388c-10 -222 -169 -357 -423 -357z" />
    <glyph glyph-name="Scaron" unicode="&#x160;" horiz-adv-x="1111" 
d="M904 1703h167l-217 -211h-193l-147 211h159l100 -102zM513 -21c-291 0 -452 167 -398 481l198 33c-49 -250 36 -360 210 -360c122 0 206 68 213 188c5 92 -29 158 -146 273l-115 111c-122 120 -195 212 -190 374c8 218 162 342 398 342c275 0 414 -162 367 -439l-189 -30
c37 214 -25 315 -185 315c-111 0 -189 -59 -194 -167c-4 -85 36 -154 158 -270l112 -106c116 -109 192 -214 184 -388c-10 -222 -169 -357 -423 -357z" />
    <glyph glyph-name="Scedilla" unicode="&#x15e;" horiz-adv-x="1111" 
d="M1050 982l-189 -30c37 214 -25 315 -185 315c-111 0 -189 -59 -194 -167c-4 -85 36 -154 158 -270l112 -106c116 -109 192 -214 184 -388c-10 -222 -169 -357 -423 -357h-10l-21 -57c95 -18 148 -62 148 -137c0 -93 -72 -148 -183 -148c-60 0 -117 16 -163 45l35 99
c35 -23 77 -36 118 -36c47 0 76 21 76 55c0 46 -69 66 -167 71l42 120c-210 43 -319 203 -273 469l198 33c-49 -250 36 -360 210 -360c122 0 206 68 213 188c5 92 -29 158 -146 273l-115 111c-122 120 -195 212 -190 374c8 218 162 342 398 342c275 0 414 -162 367 -439z
" />
    <glyph glyph-name="uni0218" unicode="&#x218;" horiz-adv-x="1111" 
d="M513 -21c-291 0 -452 167 -398 481l198 33c-49 -250 36 -360 210 -360c122 0 206 68 213 188c5 92 -29 158 -146 273l-115 111c-122 120 -195 212 -190 374c8 218 162 342 398 342c275 0 414 -162 367 -439l-189 -30c37 214 -25 315 -185 315c-111 0 -189 -59 -194 -167
c-4 -85 36 -154 158 -270l112 -106c116 -109 192 -214 184 -388c-10 -222 -169 -357 -423 -357zM297 -373l-9 64c74 4 100 25 114 87h-94l29 137h194l-25 -116c-26 -120 -78 -164 -209 -172z" />
    <glyph glyph-name="uni1E9E" unicode="&#x1e9e;" horiz-adv-x="1066" 
d="M591 -11c-98 0 -170 39 -217 107l74 132c36 -54 88 -90 144 -90c76 0 123 51 123 139c0 56 -17 103 -60 184l-42 80c-43 81 -59 140 -59 194c0 196 312 273 312 427c0 68 -55 114 -158 114c-125 0 -198 -63 -226 -194l-237 -1082h-205l241 1090c48 217 187 331 433 331
c224 0 341 -105 341 -241c0 -222 -312 -277 -312 -429c0 -31 15 -76 58 -156l42 -80c43 -80 60 -153 60 -215c0 -189 -122 -311 -312 -311z" />
    <glyph glyph-name="Tbar" unicode="&#x166;" horiz-adv-x="990" 
d="M1089 1400l-36 -166h-305l-96 -441h185l-32 -145h-185l-141 -648h-206l141 648h-185l32 145h185l96 441h-305l37 166h815z" />
    <glyph glyph-name="Tcaron" unicode="&#x164;" horiz-adv-x="990" 
d="M861 1703h167l-217 -211h-193l-147 211h159l100 -102zM479 0h-206l269 1234h-305l37 166h815l-36 -166h-305z" />
    <glyph glyph-name="uni0162" unicode="&#x162;" horiz-adv-x="990" 
d="M237 1234l37 166h815l-36 -166h-305l-269 -1234h-45l-29 -78c95 -18 148 -62 148 -137c0 -93 -72 -148 -183 -148c-60 0 -117 16 -163 45l35 99c35 -23 77 -36 118 -36c47 0 76 21 76 55c0 46 -69 66 -167 71l45 129h-41l269 1234h-305z" />
    <glyph glyph-name="uni021A" unicode="&#x21a;" horiz-adv-x="990" 
d="M479 0h-206l269 1234h-305l37 166h815l-36 -166h-305zM220 -373l-9 64c74 4 100 25 114 87h-94l29 137h194l-25 -116c-26 -120 -78 -164 -209 -172z" />
    <glyph glyph-name="Uacute" unicode="&#xda;" horiz-adv-x="1155" 
d="M855 1491h-154l135 212h214zM497 -21c-281 0 -416 156 -361 419l213 1002h206l-223 -1024c-33 -151 30 -231 171 -231c126 0 211 74 244 223l227 1032h205l-233 -1058c-53 -239 -206 -363 -449 -363z" />
    <glyph glyph-name="Ubreve" unicode="&#x16c;" horiz-adv-x="1155" 
d="M796 1484c-158 0 -233 76 -217 219h142c-8 -68 23 -105 88 -105c67 0 108 36 122 105h146c-27 -146 -121 -219 -281 -219zM497 -21c-281 0 -416 156 -361 419l213 1002h206l-223 -1024c-33 -151 30 -231 171 -231c126 0 211 74 244 223l227 1032h205l-233 -1058
c-53 -239 -206 -363 -449 -363z" />
    <glyph glyph-name="Ucircumflex" unicode="&#xdb;" horiz-adv-x="1155" 
d="M670 1491h-167l217 212h193l147 -212h-160l-99 102zM497 -21c-281 0 -416 156 -361 419l213 1002h206l-223 -1024c-33 -151 30 -231 171 -231c126 0 211 74 244 223l227 1032h205l-233 -1058c-53 -239 -206 -363 -449 -363z" />
    <glyph glyph-name="Udieresis" unicode="&#xdc;" horiz-adv-x="1155" 
d="M730 1504h-195l42 192h194zM1041 1504h-195l42 192h194zM497 -21c-281 0 -416 156 -361 419l213 1002h206l-223 -1024c-33 -151 30 -231 171 -231c126 0 211 74 244 223l227 1032h205l-233 -1058c-53 -239 -206 -363 -449 -363z" />
    <glyph glyph-name="Ugrave" unicode="&#xd9;" horiz-adv-x="1155" 
d="M845 1491h-148l-151 212h207zM497 -21c-281 0 -416 156 -361 419l213 1002h206l-223 -1024c-33 -151 30 -231 171 -231c126 0 211 74 244 223l227 1032h205l-233 -1058c-53 -239 -206 -363 -449 -363z" />
    <glyph glyph-name="Uhungarumlaut" unicode="&#x170;" horiz-adv-x="1155" 
d="M702 1491h-154l135 212h214zM980 1491h-154l135 212h214zM497 -21c-281 0 -416 156 -361 419l213 1002h206l-223 -1024c-33 -151 30 -231 171 -231c126 0 211 74 244 223l227 1032h205l-233 -1058c-53 -239 -206 -363 -449 -363z" />
    <glyph glyph-name="Umacron" unicode="&#x16a;" horiz-adv-x="1155" 
d="M1043 1541h-497l29 131h497zM497 -21c-281 0 -416 156 -361 419l213 1002h206l-223 -1024c-33 -151 30 -231 171 -231c126 0 211 74 244 223l227 1032h205l-233 -1058c-53 -239 -206 -363 -449 -363z" />
    <glyph glyph-name="Uogonek" unicode="&#x172;" horiz-adv-x="1155" 
d="M747 368l227 1032h205l-233 -1058c-43 -194 -152 -312 -321 -350c-88 -31 -132 -68 -132 -109c0 -28 21 -44 56 -44c18 0 37 3 56 8l-41 -133c-24 -9 -50 -14 -78 -14c-89 0 -142 45 -142 122c0 61 36 118 106 159c-249 16 -366 169 -314 417l213 1002h206l-223 -1024
c-33 -151 30 -231 171 -231c126 0 211 74 244 223z" />
    <glyph glyph-name="Uring" unicode="&#x16e;" horiz-adv-x="1155" 
d="M813 1465c-124 0 -201 61 -201 161c0 99 77 161 201 161c126 0 202 -62 202 -161c0 -100 -76 -161 -202 -161zM813 1559c51 0 82 26 82 67s-31 67 -82 67s-80 -26 -80 -67s29 -67 80 -67zM497 -21c-281 0 -416 156 -361 419l213 1002h206l-223 -1024
c-33 -151 30 -231 171 -231c126 0 211 74 244 223l227 1032h205l-233 -1058c-53 -239 -206 -363 -449 -363z" />
    <glyph glyph-name="Utilde" unicode="&#x168;" horiz-adv-x="1155" 
d="M924 1491c-104 0 -184 93 -236 93c-35 0 -53 -23 -68 -87h-108c26 140 81 206 181 206c103 0 180 -94 233 -94c33 0 50 24 66 88h107c-25 -141 -82 -206 -175 -206zM497 -21c-281 0 -416 156 -361 419l213 1002h206l-223 -1024c-33 -151 30 -231 171 -231
c126 0 211 74 244 223l227 1032h205l-233 -1058c-53 -239 -206 -363 -449 -363z" />
    <glyph glyph-name="Wacute" unicode="&#x1e82;" horiz-adv-x="1586" 
d="M1072 1491h-154l135 212h214zM490 0h-241l24 1400h201l-29 -762c-6 -135 -16 -238 -37 -396l39 -4c43 148 88 291 131 399l298 763h209l-34 -762c-5 -110 -21 -252 -46 -395l40 -4c43 138 91 282 138 399l301 762h201l-583 -1400h-245l28 626c7 144 24 311 48 478l-38 4
c-52 -180 -106 -346 -159 -482z" />
    <glyph glyph-name="Wcircumflex" unicode="&#x174;" horiz-adv-x="1586" 
d="M886 1491h-167l217 212h193l147 -212h-160l-99 102zM490 0h-241l24 1400h201l-29 -762c-6 -135 -16 -238 -37 -396l39 -4c43 148 88 291 131 399l298 763h209l-34 -762c-5 -110 -21 -252 -46 -395l40 -4c43 138 91 282 138 399l301 762h201l-583 -1400h-245l28 626
c7 144 24 311 48 478l-38 4c-52 -180 -106 -346 -159 -482z" />
    <glyph glyph-name="Wdieresis" unicode="&#x1e84;" horiz-adv-x="1586" 
d="M946 1504h-195l42 192h194zM1257 1504h-195l42 192h194zM490 0h-241l24 1400h201l-29 -762c-6 -135 -16 -238 -37 -396l39 -4c43 148 88 291 131 399l298 763h209l-34 -762c-5 -110 -21 -252 -46 -395l40 -4c43 138 91 282 138 399l301 762h201l-583 -1400h-245l28 626
c7 144 24 311 48 478l-38 4c-52 -180 -106 -346 -159 -482z" />
    <glyph glyph-name="Wgrave" unicode="&#x1e80;" horiz-adv-x="1586" 
d="M1062 1491h-148l-151 212h207zM490 0h-241l24 1400h201l-29 -762c-6 -135 -16 -238 -37 -396l39 -4c43 148 88 291 131 399l298 763h209l-34 -762c-5 -110 -21 -252 -46 -395l40 -4c43 138 91 282 138 399l301 762h201l-583 -1400h-245l28 626c7 144 24 311 48 478l-38 4
c-52 -180 -106 -346 -159 -482z" />
    <glyph glyph-name="Yacute" unicode="&#xdd;" horiz-adv-x="1051" 
d="M805 1491h-154l135 212h214zM509 0h-206l127 570l-157 830h206l61 -382c10 -77 16 -151 12 -249l34 -3c39 100 77 174 120 252l223 382h221l-525 -859z" />
    <glyph glyph-name="Ycircumflex" unicode="&#x176;" horiz-adv-x="1051" 
d="M619 1491h-167l217 212h193l147 -212h-160l-99 102zM509 0h-206l127 570l-157 830h206l61 -382c10 -77 16 -151 12 -249l34 -3c39 100 77 174 120 252l223 382h221l-525 -859z" />
    <glyph glyph-name="Ydieresis" unicode="&#x178;" horiz-adv-x="1051" 
d="M679 1504h-195l42 192h194zM990 1504h-195l42 192h194zM509 0h-206l127 570l-157 830h206l61 -382c10 -77 16 -151 12 -249l34 -3c39 100 77 174 120 252l223 382h221l-525 -859z" />
    <glyph glyph-name="Ygrave" unicode="&#x1ef2;" horiz-adv-x="1051" 
d="M795 1491h-148l-151 212h207zM509 0h-206l127 570l-157 830h206l61 -382c10 -77 16 -151 12 -249l34 -3c39 100 77 174 120 252l223 382h221l-525 -859z" />
    <glyph glyph-name="uni1EF8" unicode="&#x1ef8;" horiz-adv-x="1051" 
d="M874 1491c-104 0 -184 93 -236 93c-35 0 -53 -23 -68 -87h-108c26 140 81 206 181 206c103 0 180 -94 233 -94c33 0 50 24 66 88h107c-25 -141 -82 -206 -175 -206zM509 0h-206l127 570l-157 830h206l61 -382c10 -77 16 -151 12 -249l34 -3c39 100 77 174 120 252
l223 382h221l-525 -859z" />
    <glyph glyph-name="Zacute" unicode="&#x179;" horiz-adv-x="941" 
d="M742 1491h-154l135 212h214zM735 0h-748l26 143l594 899c31 48 88 120 130 163l-7 31c-42 -2 -79 -2 -127 -2h-348l36 166h712l-27 -143l-578 -889c-30 -47 -90 -123 -140 -173l7 -30c43 1 79 2 127 2h379z" />
    <glyph glyph-name="Zcaron" unicode="&#x17d;" horiz-adv-x="941" 
d="M831 1703h167l-217 -211h-193l-147 211h159l100 -102zM735 0h-748l26 143l594 899c31 48 88 120 130 163l-7 31c-42 -2 -79 -2 -127 -2h-348l36 166h712l-27 -143l-578 -889c-30 -47 -90 -123 -140 -173l7 -30c43 1 79 2 127 2h379z" />
    <glyph glyph-name="Zdotaccent" unicode="&#x17b;" horiz-adv-x="941" 
d="M787 1504h-225l42 192h224zM735 0h-748l26 143l594 899c31 48 88 120 130 163l-7 31c-42 -2 -79 -2 -127 -2h-348l36 166h712l-27 -143l-578 -889c-30 -47 -90 -123 -140 -173l7 -30c43 1 79 2 127 2h379z" />
    <glyph glyph-name="aacute" unicode="&#xe1;" horiz-adv-x="978" 
d="M656 1142h-147l141 258h198zM264 -21c-133 0 -212 91 -212 217c0 216 167 339 399 400l188 50l27 114c26 111 -29 170 -117 170c-104 0 -164 -69 -174 -190l-190 40c19 169 144 291 371 291c220 0 350 -122 301 -339l-116 -518c-15 -67 -7 -85 38 -86l38 -2l-51 -143
c-11 -3 -30 -4 -45 -4c-159 0 -182 77 -110 245l-34 7c-71 -166 -162 -252 -313 -252zM356 120c95 0 187 112 225 272l29 117l-128 -37c-140 -40 -222 -123 -222 -239c0 -71 34 -113 96 -113z" />
    <glyph glyph-name="abreve" unicode="&#x103;" horiz-adv-x="978" 
d="M615 1135c-168 0 -240 90 -219 265h133c-11 -98 19 -146 95 -146c71 0 121 48 142 146h141c-37 -177 -130 -265 -292 -265zM264 -21c-133 0 -212 91 -212 217c0 216 167 339 399 400l188 50l27 114c26 111 -29 170 -117 170c-104 0 -164 -69 -174 -190l-190 40
c19 169 144 291 371 291c220 0 350 -122 301 -339l-116 -518c-15 -67 -7 -85 38 -86l38 -2l-51 -143c-11 -3 -30 -4 -45 -4c-159 0 -182 77 -110 245l-34 7c-71 -166 -162 -252 -313 -252zM356 120c95 0 187 112 225 272l29 117l-128 -37c-140 -40 -222 -123 -222 -239
c0 -71 34 -113 96 -113z" />
    <glyph glyph-name="acircumflex" unicode="&#xe2;" horiz-adv-x="978" 
d="M478 1142h-158l238 258h177l133 -258h-149l-91 133zM264 -21c-133 0 -212 91 -212 217c0 216 167 339 399 400l188 50l27 114c26 111 -29 170 -117 170c-104 0 -164 -69 -174 -190l-190 40c19 169 144 291 371 291c220 0 350 -122 301 -339l-116 -518
c-15 -67 -7 -85 38 -86l38 -2l-51 -143c-11 -3 -30 -4 -45 -4c-159 0 -182 77 -110 245l-34 7c-71 -166 -162 -252 -313 -252zM356 120c95 0 187 112 225 272l29 117l-128 -37c-140 -40 -222 -123 -222 -239c0 -71 34 -113 96 -113z" />
    <glyph glyph-name="adieresis" unicode="&#xe4;" horiz-adv-x="978" 
d="M547 1181h-196l42 191h196zM857 1181h-197l43 191h195zM264 -21c-133 0 -212 91 -212 217c0 216 167 339 399 400l188 50l27 114c26 111 -29 170 -117 170c-104 0 -164 -69 -174 -190l-190 40c19 169 144 291 371 291c220 0 350 -122 301 -339l-116 -518
c-15 -67 -7 -85 38 -86l38 -2l-51 -143c-11 -3 -30 -4 -45 -4c-159 0 -182 77 -110 245l-34 7c-71 -166 -162 -252 -313 -252zM356 120c95 0 187 112 225 272l29 117l-128 -37c-140 -40 -222 -123 -222 -239c0 -71 34 -113 96 -113z" />
    <glyph glyph-name="agrave" unicode="&#xe0;" horiz-adv-x="978" 
d="M667 1142h-141l-122 258h195zM264 -21c-133 0 -212 91 -212 217c0 216 167 339 399 400l188 50l27 114c26 111 -29 170 -117 170c-104 0 -164 -69 -174 -190l-190 40c19 169 144 291 371 291c220 0 350 -122 301 -339l-116 -518c-15 -67 -7 -85 38 -86l38 -2l-51 -143
c-11 -3 -30 -4 -45 -4c-159 0 -182 77 -110 245l-34 7c-71 -166 -162 -252 -313 -252zM356 120c95 0 187 112 225 272l29 117l-128 -37c-140 -40 -222 -123 -222 -239c0 -71 34 -113 96 -113z" />
    <glyph glyph-name="amacron" unicode="&#x101;" horiz-adv-x="978" 
d="M854 1191h-497l29 131h497zM264 -21c-133 0 -212 91 -212 217c0 216 167 339 399 400l188 50l27 114c26 111 -29 170 -117 170c-104 0 -164 -69 -174 -190l-190 40c19 169 144 291 371 291c220 0 350 -122 301 -339l-116 -518c-15 -67 -7 -85 38 -86l38 -2l-51 -143
c-11 -3 -30 -4 -45 -4c-159 0 -182 77 -110 245l-34 7c-71 -166 -162 -252 -313 -252zM356 120c95 0 187 112 225 272l29 117l-128 -37c-140 -40 -222 -123 -222 -239c0 -71 34 -113 96 -113z" />
    <glyph glyph-name="aogonek" unicode="&#x105;" horiz-adv-x="978" 
d="M857 732l-116 -518c-15 -67 -7 -85 38 -86l38 -2l-51 -143c-11 -3 -30 -4 -45 -4c-8 0 -16 0 -24 1c-67 -29 -100 -62 -100 -97c0 -28 21 -44 56 -44c18 0 37 3 56 8l-41 -133c-24 -9 -50 -14 -78 -14c-89 0 -142 45 -142 122c0 74 54 143 158 183c-49 36 -43 107 5 219
l-34 7c-71 -166 -162 -252 -313 -252c-133 0 -212 91 -212 217c0 216 167 339 399 400l188 50l27 114c26 111 -29 170 -117 170c-104 0 -164 -69 -174 -190l-190 40c19 169 144 291 371 291c220 0 350 -122 301 -339zM581 392l29 117l-128 -37c-140 -40 -222 -123 -222 -239
c0 -71 34 -113 96 -113c95 0 187 112 225 272z" />
    <glyph glyph-name="aring" unicode="&#xe5;" horiz-adv-x="978" 
d="M636 1130c-121 0 -204 80 -204 197c0 116 83 197 204 197c122 0 205 -81 205 -197c0 -117 -83 -197 -205 -197zM636 1241c50 0 86 36 86 86s-36 85 -86 85c-49 0 -85 -35 -85 -85s36 -86 85 -86zM264 -21c-133 0 -212 91 -212 217c0 216 167 339 399 400l188 50l27 114
c26 111 -29 170 -117 170c-104 0 -164 -69 -174 -190l-190 40c19 169 144 291 371 291c220 0 350 -122 301 -339l-116 -518c-15 -67 -7 -85 38 -86l38 -2l-51 -143c-11 -3 -30 -4 -45 -4c-159 0 -182 77 -110 245l-34 7c-71 -166 -162 -252 -313 -252zM356 120
c95 0 187 112 225 272l29 117l-128 -37c-140 -40 -222 -123 -222 -239c0 -71 34 -113 96 -113z" />
    <glyph glyph-name="atilde" unicode="&#xe3;" horiz-adv-x="978" 
d="M748 1167c-109 0 -185 100 -236 100c-36 0 -54 -25 -71 -94h-112c28 150 83 221 183 221c106 0 180 -100 232 -100c34 0 51 26 67 94h112c-28 -150 -84 -221 -175 -221zM264 -21c-133 0 -212 91 -212 217c0 216 167 339 399 400l188 50l27 114c26 111 -29 170 -117 170
c-104 0 -164 -69 -174 -190l-190 40c19 169 144 291 371 291c220 0 350 -122 301 -339l-116 -518c-15 -67 -7 -85 38 -86l38 -2l-51 -143c-11 -3 -30 -4 -45 -4c-159 0 -182 77 -110 245l-34 7c-71 -166 -162 -252 -313 -252zM356 120c95 0 187 112 225 272l29 117l-128 -37
c-140 -40 -222 -123 -222 -239c0 -71 34 -113 96 -113z" />
    <glyph glyph-name="ae" unicode="&#xe6;" horiz-adv-x="1453" 
d="M1326 481h-529l-19 -87c-41 -180 15 -275 132 -275c95 0 157 64 204 213l178 -43c-58 -204 -200 -310 -387 -310c-174 0 -286 102 -278 258l-30 7c-88 -179 -182 -265 -333 -265c-133 0 -212 91 -212 217c0 216 167 338 399 400l185 50l24 114c24 112 -23 170 -111 170
c-104 0 -164 -69 -174 -190l-190 40c19 169 144 291 358 291c128 0 221 -64 245 -173c57 111 162 173 285 173c186 0 309 -116 309 -306c0 -77 -25 -198 -56 -284zM1054 930c-115 0 -176 -92 -216 -268l-9 -40h334l19 84c32 147 -22 224 -128 224zM581 392l29 117l-128 -37
c-140 -40 -222 -123 -222 -239c0 -71 34 -113 96 -113c95 0 187 112 225 272z" />
    <glyph glyph-name="aeacute" unicode="&#x1fd;" horiz-adv-x="1453" 
d="M908 1400h198l-192 -258h-147zM1326 481h-529l-19 -87c-41 -180 15 -275 132 -275c95 0 157 64 204 213l178 -43c-58 -204 -200 -310 -387 -310c-174 0 -286 102 -278 258l-30 7c-88 -179 -182 -265 -333 -265c-133 0 -212 91 -212 217c0 216 167 338 399 400l185 50
l24 114c24 112 -23 170 -111 170c-104 0 -164 -69 -174 -190l-190 40c19 169 144 291 358 291c128 0 221 -64 245 -173c57 111 162 173 285 173c186 0 309 -116 309 -306c0 -77 -25 -198 -56 -284zM1054 930c-115 0 -176 -92 -216 -268l-9 -40h334l19 84
c32 147 -22 224 -128 224zM581 392l29 117l-128 -37c-140 -40 -222 -123 -222 -239c0 -71 34 -113 96 -113c95 0 187 112 225 272z" />
    <glyph glyph-name="a.ss01" horiz-adv-x="1004" 
d="M293 -16c-190 0 -268 160 -204 447l52 233c57 261 179 402 352 402c150 0 227 -89 232 -247l37 3c-7 112 -3 182 5 228h197l-229 -1050h-192c8 44 33 105 93 212l-33 14c-84 -164 -183 -242 -310 -242zM391 125c107 0 194 122 236 310l40 177c45 203 -4 313 -123 313
c-99 0 -165 -89 -204 -266l-53 -240c-45 -203 0 -294 104 -294z" />
    <glyph glyph-name="aacute.ss01" horiz-adv-x="1004" 
d="M685 1142h-147l141 258h198zM293 -16c-190 0 -268 160 -204 447l52 233c57 261 179 402 352 402c150 0 227 -89 232 -247l37 3c-7 112 -3 182 5 228h197l-229 -1050h-192c8 44 33 105 93 212l-33 14c-84 -164 -183 -242 -310 -242zM391 125c107 0 194 122 236 310l40 177
c45 203 -4 313 -123 313c-99 0 -165 -89 -204 -266l-53 -240c-45 -203 0 -294 104 -294z" />
    <glyph glyph-name="abreve.ss01" horiz-adv-x="1004" 
d="M644 1135c-168 0 -240 90 -219 265h133c-11 -98 19 -146 95 -146c71 0 121 48 142 146h141c-37 -177 -130 -265 -292 -265zM293 -16c-190 0 -268 160 -204 447l52 233c57 261 179 402 352 402c150 0 227 -89 232 -247l37 3c-7 112 -3 182 5 228h197l-229 -1050h-192
c8 44 33 105 93 212l-33 14c-84 -164 -183 -242 -310 -242zM391 125c107 0 194 122 236 310l40 177c45 203 -4 313 -123 313c-99 0 -165 -89 -204 -266l-53 -240c-45 -203 0 -294 104 -294z" />
    <glyph glyph-name="acircumflex.ss01" horiz-adv-x="1004" 
d="M507 1142h-158l238 258h177l133 -258h-149l-91 133zM293 -16c-190 0 -268 160 -204 447l52 233c57 261 179 402 352 402c150 0 227 -89 232 -247l37 3c-7 112 -3 182 5 228h197l-229 -1050h-192c8 44 33 105 93 212l-33 14c-84 -164 -183 -242 -310 -242zM391 125
c107 0 194 122 236 310l40 177c45 203 -4 313 -123 313c-99 0 -165 -89 -204 -266l-53 -240c-45 -203 0 -294 104 -294z" />
    <glyph glyph-name="adieresis.ss01" horiz-adv-x="1004" 
d="M576 1181h-196l42 191h196zM886 1181h-197l43 191h195zM293 -16c-190 0 -268 160 -204 447l52 233c57 261 179 402 352 402c150 0 227 -89 232 -247l37 3c-7 112 -3 182 5 228h197l-229 -1050h-192c8 44 33 105 93 212l-33 14c-84 -164 -183 -242 -310 -242zM391 125
c107 0 194 122 236 310l40 177c45 203 -4 313 -123 313c-99 0 -165 -89 -204 -266l-53 -240c-45 -203 0 -294 104 -294z" />
    <glyph glyph-name="agrave.ss01" horiz-adv-x="1004" 
d="M696 1142h-141l-122 258h195zM293 -16c-190 0 -268 160 -204 447l52 233c57 261 179 402 352 402c150 0 227 -89 232 -247l37 3c-7 112 -3 182 5 228h197l-229 -1050h-192c8 44 33 105 93 212l-33 14c-84 -164 -183 -242 -310 -242zM391 125c107 0 194 122 236 310
l40 177c45 203 -4 313 -123 313c-99 0 -165 -89 -204 -266l-53 -240c-45 -203 0 -294 104 -294z" />
    <glyph glyph-name="amacron.ss01" horiz-adv-x="1004" 
d="M883 1191h-497l29 131h497zM293 -16c-190 0 -268 160 -204 447l52 233c57 261 179 402 352 402c150 0 227 -89 232 -247l37 3c-7 112 -3 182 5 228h197l-229 -1050h-192c8 44 33 105 93 212l-33 14c-84 -164 -183 -242 -310 -242zM391 125c107 0 194 122 236 310l40 177
c45 203 -4 313 -123 313c-99 0 -165 -89 -204 -266l-53 -240c-45 -203 0 -294 104 -294z" />
    <glyph glyph-name="aogonek.ss01" horiz-adv-x="1004" 
d="M964 1050l-229 -1050c-103 -33 -155 -73 -155 -117c0 -28 21 -44 56 -44c18 0 37 3 56 8l-41 -133c-24 -9 -50 -14 -78 -14c-89 0 -142 45 -142 122c0 71 49 137 145 178h-33c8 44 33 105 93 212l-33 14c-84 -164 -183 -242 -310 -242c-190 0 -268 160 -204 447l52 233
c57 261 179 402 352 402c150 0 227 -89 232 -247l37 3c-7 112 -3 182 5 228h197zM627 435l40 177c45 203 -4 313 -123 313c-99 0 -165 -89 -204 -266l-53 -240c-45 -203 0 -294 104 -294c107 0 194 122 236 310z" />
    <glyph glyph-name="aring.ss01" horiz-adv-x="1004" 
d="M665 1130c-121 0 -204 80 -204 197c0 116 83 197 204 197c122 0 205 -81 205 -197c0 -117 -83 -197 -205 -197zM665 1241c50 0 86 36 86 86s-36 85 -86 85c-49 0 -85 -35 -85 -85s36 -86 85 -86zM293 -16c-190 0 -268 160 -204 447l52 233c57 261 179 402 352 402
c150 0 227 -89 232 -247l37 3c-7 112 -3 182 5 228h197l-229 -1050h-192c8 44 33 105 93 212l-33 14c-84 -164 -183 -242 -310 -242zM391 125c107 0 194 122 236 310l40 177c45 203 -4 313 -123 313c-99 0 -165 -89 -204 -266l-53 -240c-45 -203 0 -294 104 -294z" />
    <glyph glyph-name="atilde.ss01" horiz-adv-x="1004" 
d="M777 1167c-109 0 -185 100 -236 100c-36 0 -54 -25 -71 -94h-112c28 150 83 221 183 221c106 0 180 -100 232 -100c34 0 51 26 67 94h112c-28 -150 -84 -221 -175 -221zM293 -16c-190 0 -268 160 -204 447l52 233c57 261 179 402 352 402c150 0 227 -89 232 -247l37 3
c-7 112 -3 182 5 228h197l-229 -1050h-192c8 44 33 105 93 212l-33 14c-84 -164 -183 -242 -310 -242zM391 125c107 0 194 122 236 310l40 177c45 203 -4 313 -123 313c-99 0 -165 -89 -204 -266l-53 -240c-45 -203 0 -294 104 -294z" />
    <glyph glyph-name="cacute" unicode="&#x107;" horiz-adv-x="945" 
d="M645 1142h-147l141 258h198zM404 -21c-254 0 -374 191 -306 496l42 189c60 264 188 407 407 407c215 0 355 -136 313 -370l-199 -16c38 166 -17 246 -118 246c-106 0 -160 -90 -200 -265l-59 -256c-43 -187 10 -291 125 -291c95 0 153 72 194 248l188 -54
c-57 -227 -191 -334 -387 -334z" />
    <glyph glyph-name="ccaron" unicode="&#x10d;" horiz-adv-x="945" 
d="M752 1400h158l-237 -258h-177l-133 258h149l91 -133zM404 -21c-254 0 -374 191 -306 496l42 189c60 264 188 407 407 407c215 0 355 -136 313 -370l-199 -16c38 166 -17 246 -118 246c-106 0 -160 -90 -200 -265l-59 -256c-43 -187 10 -291 125 -291c95 0 153 72 194 248
l188 -54c-57 -227 -191 -334 -387 -334z" />
    <glyph glyph-name="ccedilla" unicode="&#xe7;" horiz-adv-x="945" 
d="M860 701l-199 -16c38 166 -17 246 -118 246c-106 0 -160 -90 -200 -265l-59 -256c-43 -187 10 -291 125 -291c95 0 153 72 194 248l188 -54c-56 -222 -185 -329 -375 -334l-21 -57c95 -18 148 -62 148 -137c0 -93 -72 -148 -183 -148c-60 0 -117 16 -163 45l35 99
c35 -23 77 -36 118 -36c47 0 76 21 76 55c0 46 -69 66 -167 71l42 120c-182 46 -261 224 -203 484l42 189c60 264 188 407 407 407c215 0 355 -136 313 -370z" />
    <glyph glyph-name="cdotaccent" unicode="&#x10b;" horiz-adv-x="945" 
d="M705 1182h-224l41 190h224zM404 -21c-254 0 -374 191 -306 496l42 189c60 264 188 407 407 407c215 0 355 -136 313 -370l-199 -16c38 166 -17 246 -118 246c-106 0 -160 -90 -200 -265l-59 -256c-43 -187 10 -291 125 -291c95 0 153 72 194 248l188 -54
c-57 -227 -191 -334 -387 -334z" />
    <glyph glyph-name="eth" unicode="&#xf0;" horiz-adv-x="950" 
d="M942 1344l23 -127l-104 -19c49 -164 47 -359 -8 -614l-43 -198c-58 -265 -188 -407 -400 -407c-259 0 -377 195 -311 498l41 192c54 250 177 388 351 388c145 0 218 -80 228 -216l37 3c0 104 -19 213 -61 322l-217 -40l-23 125l183 35c-17 30 -36 60 -57 90l172 43
c22 -32 42 -65 60 -100zM610 381l54 229c48 204 3 306 -122 306c-99 0 -163 -76 -201 -249l-57 -254c-42 -189 4 -294 129 -294c102 0 154 80 197 262z" />
    <glyph glyph-name="dcaron" unicode="&#x10f;" horiz-adv-x="1006" 
d="M293 -16c-190 0 -268 160 -204 447l52 233c57 261 179 402 352 402c150 0 227 -89 234 -244l37 4c-7 129 -2 226 17 312l57 262h202l-305 -1400h-192c8 44 33 105 93 212l-33 14c-84 -164 -183 -242 -310 -242zM1186 1099h-116l79 301h152zM391 125
c107 0 194 122 236 310l40 177c45 203 -4 313 -123 313c-99 0 -165 -89 -204 -266l-53 -240c-45 -203 0 -294 104 -294z" />
    <glyph glyph-name="dcroat" unicode="&#x111;" horiz-adv-x="1024" 
d="M1016 1291h133l-29 -132h-133l-252 -1159h-192c8 44 33 105 93 212l-33 14c-84 -164 -183 -242 -310 -242c-190 0 -268 160 -204 447l52 233c57 261 179 402 352 402c150 0 227 -89 234 -244l37 4c-7 129 -2 226 17 312l5 21h-213l30 132h211l24 109h202zM627 435l40 177
c45 203 -4 313 -123 313c-99 0 -165 -89 -204 -266l-53 -240c-45 -203 0 -294 104 -294c107 0 194 122 236 310z" />
    <glyph glyph-name="eacute" unicode="&#xe9;" horiz-adv-x="952" 
d="M657 1400h198l-192 -258h-147zM824 481h-529l-19 -87c-41 -180 15 -275 133 -275c95 0 156 64 204 213l178 -43c-59 -204 -201 -310 -388 -310c-252 0 -374 186 -309 477l46 206c58 261 189 409 419 409c198 0 321 -116 321 -306c0 -77 -25 -201 -56 -284zM552 930
c-115 0 -176 -92 -216 -268l-9 -41h334l19 85c32 147 -22 224 -128 224z" />
    <glyph glyph-name="ecaron" unicode="&#x11b;" horiz-adv-x="952" 
d="M928 1400l-237 -258h-177l-133 258h149l91 -133l149 133h158zM559 1071c198 0 321 -116 321 -306c0 -77 -25 -201 -56 -284h-529l-19 -87c-41 -180 15 -275 133 -275c95 0 156 64 204 213l178 -43c-59 -204 -201 -310 -388 -310c-252 0 -374 186 -309 477l46 206
c58 261 189 409 419 409zM661 621l19 85c32 147 -22 224 -128 224c-115 0 -176 -92 -216 -268l-9 -41h334z" />
    <glyph glyph-name="ecircumflex" unicode="&#xea;" horiz-adv-x="952" 
d="M727 1142l-91 133l-150 -133h-158l238 258h177l133 -258h-149zM824 481h-529l-19 -87c-41 -180 15 -275 133 -275c95 0 156 64 204 213l178 -43c-59 -204 -201 -310 -388 -310c-252 0 -374 186 -309 477l46 206c58 261 189 409 419 409c198 0 321 -116 321 -306
c0 -77 -25 -201 -56 -284zM552 930c-115 0 -176 -92 -216 -268l-9 -41h334l19 85c32 147 -22 224 -128 224z" />
    <glyph glyph-name="edieresis" unicode="&#xeb;" horiz-adv-x="952" 
d="M400 1372h196l-42 -191h-196zM710 1372h195l-41 -191h-197zM559 1071c198 0 321 -116 321 -306c0 -77 -25 -201 -56 -284h-529l-19 -87c-41 -180 15 -275 133 -275c95 0 156 64 204 213l178 -43c-59 -204 -201 -310 -388 -310c-252 0 -374 186 -309 477l46 206
c58 261 189 409 419 409zM661 621l19 85c32 147 -22 224 -128 224c-115 0 -176 -92 -216 -268l-9 -41h334z" />
    <glyph glyph-name="edotaccent" unicode="&#x117;" horiz-adv-x="952" 
d="M540 1372h224l-41 -190h-224zM824 481h-529l-19 -87c-41 -180 15 -275 133 -275c95 0 156 64 204 213l178 -43c-59 -204 -201 -310 -388 -310c-252 0 -374 186 -309 477l46 206c58 261 189 409 419 409c198 0 321 -116 321 -306c0 -77 -25 -201 -56 -284zM552 930
c-115 0 -176 -92 -216 -268l-9 -41h334l19 85c32 147 -22 224 -128 224z" />
    <glyph glyph-name="egrave" unicode="&#xe8;" horiz-adv-x="952" 
d="M606 1400l68 -258h-141l-122 258h195zM824 481h-529l-19 -87c-41 -180 15 -275 133 -275c95 0 156 64 204 213l178 -43c-59 -204 -201 -310 -388 -310c-252 0 -374 186 -309 477l46 206c58 261 189 409 419 409c198 0 321 -116 321 -306c0 -77 -25 -201 -56 -284z
M552 930c-115 0 -176 -92 -216 -268l-9 -41h334l19 85c32 147 -22 224 -128 224z" />
    <glyph glyph-name="emacron" unicode="&#x113;" horiz-adv-x="952" 
d="M394 1322h497l-29 -131h-497zM559 1071c198 0 321 -116 321 -306c0 -77 -25 -201 -56 -284h-529l-19 -87c-41 -180 15 -275 133 -275c95 0 156 64 204 213l178 -43c-59 -204 -201 -310 -388 -310c-252 0 -374 186 -309 477l46 206c58 261 189 409 419 409zM661 621l19 85
c32 147 -22 224 -128 224c-115 0 -176 -92 -216 -268l-9 -41h334z" />
    <glyph glyph-name="eogonek" unicode="&#x119;" horiz-adv-x="952" 
d="M824 481h-529l-19 -87c-41 -180 15 -275 133 -275c95 0 156 64 204 213l178 -43c-48 -167 -152 -268 -290 -299c-83 -31 -125 -68 -125 -107c0 -28 21 -44 56 -44c18 0 37 3 56 8l-41 -133c-24 -9 -50 -14 -78 -14c-89 0 -142 45 -142 122c0 62 38 120 111 161
c-207 30 -303 208 -244 473l46 206c58 261 189 409 419 409c198 0 321 -116 321 -306c0 -77 -25 -201 -56 -284zM552 930c-115 0 -176 -92 -216 -268l-9 -41h334l19 85c32 147 -22 224 -128 224z" />
    <glyph glyph-name="uni1EBD" unicode="&#x1ebd;" horiz-adv-x="952" 
d="M519 1267c-36 0 -54 -25 -71 -94h-112c28 150 83 221 183 221c106 0 180 -100 232 -100c34 0 51 26 67 94h112c-28 -150 -84 -221 -175 -221c-109 0 -185 100 -236 100zM559 1071c198 0 321 -116 321 -306c0 -77 -25 -201 -56 -284h-529l-19 -87
c-41 -180 15 -275 133 -275c95 0 156 64 204 213l178 -43c-59 -204 -201 -310 -388 -310c-252 0 -374 186 -309 477l46 206c58 261 189 409 419 409zM661 621l19 85c32 147 -22 224 -128 224c-115 0 -176 -92 -216 -268l-9 -41h334z" />
    <glyph glyph-name="g.accents" horiz-adv-x="932" 
d="M972 1068l-64 -6c-58 -5 -88 -21 -102 -60c59 -47 93 -116 93 -200c0 -244 -165 -405 -417 -405c-55 0 -104 9 -147 26c-58 -9 -99 -33 -99 -77c0 -37 34 -61 148 -88l128 -29c113 -26 234 -85 234 -248c0 -231 -155 -352 -454 -352c-236 0 -360 77 -360 231
c0 127 77 213 225 241l4 36c-61 30 -100 77 -100 140c0 94 71 153 184 157l6 40c-53 46 -83 113 -83 192c0 243 166 403 418 403c66 0 124 -13 171 -36c-1 122 68 195 201 204zM499 519c122 0 202 109 202 273c0 94 -54 155 -135 155c-120 0 -199 -107 -199 -270
c0 -94 53 -158 132 -158zM395 78l-119 23c-112 -35 -170 -99 -170 -193c0 -90 67 -138 217 -138c162 0 248 62 248 175c0 75 -65 111 -176 133z" />
    <glyph glyph-name="gbreve" unicode="&#x11f;" horiz-adv-x="932" 
d="M545 1127c-146 0 -212 85 -188 253h125c-11 -91 14 -135 75 -135s100 41 121 135h133c-36 -172 -123 -253 -266 -253zM972 1068l-64 -6c-58 -5 -88 -21 -102 -60c59 -47 93 -116 93 -200c0 -244 -165 -405 -417 -405c-55 0 -104 9 -147 26c-58 -9 -99 -33 -99 -77
c0 -37 34 -61 148 -88l128 -29c113 -26 234 -85 234 -248c0 -231 -155 -352 -454 -352c-236 0 -360 77 -360 231c0 127 77 213 225 241l4 36c-61 30 -100 77 -100 140c0 94 71 153 184 157l6 40c-53 46 -83 113 -83 192c0 243 166 403 418 403c66 0 124 -13 171 -36
c-1 122 68 195 201 204zM499 519c122 0 202 109 202 273c0 94 -54 155 -135 155c-120 0 -199 -107 -199 -270c0 -94 53 -158 132 -158zM395 78l-119 23c-112 -35 -170 -99 -170 -193c0 -90 67 -138 217 -138c162 0 248 62 248 175c0 75 -65 111 -176 133z" />
    <glyph glyph-name="gcaron" unicode="&#x1e7;" horiz-adv-x="932" 
d="M858 1380l-211 -242h-170l-119 242h135l86 -126l131 126h148zM972 1068l-64 -6c-58 -5 -88 -21 -102 -60c59 -47 93 -116 93 -200c0 -244 -165 -405 -417 -405c-55 0 -104 9 -147 26c-58 -9 -99 -33 -99 -77c0 -37 34 -61 148 -88l128 -29c113 -26 234 -85 234 -248
c0 -231 -155 -352 -454 -352c-236 0 -360 77 -360 231c0 127 77 213 225 241l4 36c-61 30 -100 77 -100 140c0 94 71 153 184 157l6 40c-53 46 -83 113 -83 192c0 243 166 403 418 403c66 0 124 -13 171 -36c-1 122 68 195 201 204zM499 519c122 0 202 109 202 273
c0 94 -54 155 -135 155c-120 0 -199 -107 -199 -270c0 -94 53 -158 132 -158zM395 78l-119 23c-112 -35 -170 -99 -170 -193c0 -90 67 -138 217 -138c162 0 248 62 248 175c0 75 -65 111 -176 133z" />
    <glyph glyph-name="uni0123" unicode="&#x123;" horiz-adv-x="932" 
d="M604 1285h91l-30 -143h-189l25 115c25 116 77 162 202 170l10 -64c-73 -3 -97 -24 -109 -78zM972 1068l-64 -6c-58 -5 -88 -21 -102 -60c59 -47 93 -116 93 -200c0 -244 -165 -405 -417 -405c-55 0 -104 9 -147 26c-58 -9 -99 -33 -99 -77c0 -37 34 -61 148 -88l128 -29
c113 -26 234 -85 234 -248c0 -231 -155 -352 -454 -352c-236 0 -360 77 -360 231c0 127 77 213 225 241l4 36c-61 30 -100 77 -100 140c0 94 71 153 184 157l6 40c-53 46 -83 113 -83 192c0 243 166 403 418 403c66 0 124 -13 171 -36c-1 122 68 195 201 204zM499 519
c122 0 202 109 202 273c0 94 -54 155 -135 155c-120 0 -199 -107 -199 -270c0 -94 53 -158 132 -158zM395 78l-119 23c-112 -35 -170 -99 -170 -193c0 -90 67 -138 217 -138c162 0 248 62 248 175c0 75 -65 111 -176 133z" />
    <glyph glyph-name="gdotaccent" unicode="&#x121;" horiz-adv-x="932" 
d="M510 1370h212l-41 -191h-213zM972 1068l-64 -6c-58 -5 -88 -21 -102 -60c59 -47 93 -116 93 -200c0 -244 -165 -405 -417 -405c-55 0 -104 9 -147 26c-58 -9 -99 -33 -99 -77c0 -37 34 -61 148 -88l128 -29c113 -26 234 -85 234 -248c0 -231 -155 -352 -454 -352
c-236 0 -360 77 -360 231c0 127 77 213 225 241l4 36c-61 30 -100 77 -100 140c0 94 71 153 184 157l6 40c-53 46 -83 113 -83 192c0 243 166 403 418 403c66 0 124 -13 171 -36c-1 122 68 195 201 204zM499 519c122 0 202 109 202 273c0 94 -54 155 -135 155
c-120 0 -199 -107 -199 -270c0 -94 53 -158 132 -158zM395 78l-119 23c-112 -35 -170 -99 -170 -193c0 -90 67 -138 217 -138c162 0 248 62 248 175c0 75 -65 111 -176 133z" />
    <glyph glyph-name="hbar" unicode="&#x127;" horiz-adv-x="1002" 
d="M733 1066c154 0 222 -93 185 -267l-171 -799h-202l171 781c19 90 -10 144 -80 144c-117 0 -235 -162 -281 -383l-113 -542h-202l255 1167h-115l28 131h116l22 102h201l-22 -102h228l-28 -131h-228l-16 -72c-21 -97 -59 -175 -121 -278l32 -17c121 188 205 266 341 266z
" />
    <glyph glyph-name="dotlessi" unicode="&#x131;" horiz-adv-x="511" 
d="M242 0h-202l230 1050h201z" />
    <glyph glyph-name="iacute" unicode="&#xed;" horiz-adv-x="511" 
d="M461 1136h-155l116 264h195zM242 0h-202l230 1050h201z" />
    <glyph glyph-name="icircumflex" unicode="&#xee;" horiz-adv-x="511" 
d="M328 1136h-125l153 264h162l54 -264h-118l-36 138zM242 0h-202l230 1050h201z" />
    <glyph glyph-name="idieresis" unicode="&#xef;" horiz-adv-x="511" 
d="M369 1179h-154l44 198h153zM582 1179h-153l43 198h153zM242 0h-202l230 1050h201z" />
    <glyph glyph-name="i.loclTRK" horiz-adv-x="511" 
d="M511 1182h-224l41 190h224zM242 0h-202l230 1050h201z" />
    <glyph glyph-name="igrave" unicode="&#xec;" horiz-adv-x="511" 
d="M460 1136h-147l-49 264h189zM242 0h-202l230 1050h201z" />
    <glyph glyph-name="imacron" unicode="&#x12b;" horiz-adv-x="511" 
d="M567 1192h-333l26 121h334zM242 0h-202l230 1050h201z" />
    <glyph glyph-name="iogonek" unicode="&#x12f;" horiz-adv-x="511" 
d="M294 1209l41 191h219l-41 -191h-219zM78 0h-38l230 1050h201l-229 -1050h-5c-103 -33 -155 -73 -155 -117c0 -28 21 -44 56 -44c18 0 37 3 56 8l-41 -133c-24 -9 -50 -14 -78 -14c-89 0 -142 45 -142 122c0 71 49 137 145 178z" />
    <glyph glyph-name="itilde" unicode="&#x129;" horiz-adv-x="511" 
d="M480 1157c-55 0 -101 54 -130 54c-21 0 -32 -17 -36 -50h-90c14 122 50 181 116 181c51 0 102 -55 132 -55c20 0 31 17 35 51h91c-16 -122 -54 -181 -118 -181zM242 0h-202l230 1050h201z" />
    <glyph glyph-name="uni0237" unicode="&#x237;" horiz-adv-x="510" 
d="M-190 -371l-25 178l87 6c92 8 135 38 155 128l242 1109h201l-220 -1010c-65 -285 -217 -390 -440 -411z" />
    <glyph glyph-name="uni006A0301" horiz-adv-x="510" 
d="M460 1136h-155l116 264h195zM-190 -371l-25 178l87 6c92 8 135 38 155 128l242 1109h201l-220 -1010c-65 -285 -217 -390 -440 -411z" />
    <glyph glyph-name="uni0137" unicode="&#x137;" horiz-adv-x="917" 
d="M242 0h-202l306 1400h201l-96 -439c-28 -129 -67 -240 -118 -337l27 -15l376 441h216l-324 -349l98 -701h-198l-54 578l-142 -149zM232 -373l-9 64c74 4 100 25 114 87h-94l29 137h194l-25 -116c-26 -120 -78 -164 -209 -172z" />
    <glyph glyph-name="lacute" unicode="&#x13a;" horiz-adv-x="513" 
d="M537 1491h-154l135 212h214zM242 0h-202l306 1400h201z" />
    <glyph glyph-name="lcaron" unicode="&#x13e;" horiz-adv-x="513" 
d="M242 0h-202l306 1400h201zM706 1099h-116l79 301h152z" />
    <glyph glyph-name="uni013C" unicode="&#x13c;" horiz-adv-x="513" 
d="M242 0h-202l306 1400h201zM-15 -373l-9 64c74 4 100 25 114 87h-94l29 137h194l-25 -116c-26 -120 -78 -164 -209 -172z" />
    <glyph glyph-name="ldot" unicode="&#x140;" horiz-adv-x="864" 
d="M242 0h-202l306 1400h201zM504 632l50 230h250l-50 -230h-250z" />
    <glyph glyph-name="lslash" unicode="&#x142;" horiz-adv-x="706" 
d="M535 901l165 54l-36 -167l-165 -54l-160 -734h-201l144 663l-157 -52l36 167l158 52l124 570h201z" />
    <glyph glyph-name="nacute" unicode="&#x144;" horiz-adv-x="1002" 
d="M699 1142h-147l141 258h198zM242 0h-202l230 1050h196c-8 -51 -38 -118 -106 -233l32 -17c121 188 205 266 341 266c154 0 222 -93 185 -267l-171 -799h-202l171 781c19 90 -8 144 -78 144c-117 0 -237 -162 -283 -383z" />
    <glyph glyph-name="ncaron" unicode="&#x148;" horiz-adv-x="1002" 
d="M805 1400h158l-237 -258h-177l-133 258h149l91 -133zM242 0h-202l230 1050h196c-8 -51 -38 -118 -106 -233l32 -17c121 188 205 266 341 266c154 0 222 -93 185 -267l-171 -799h-202l171 781c19 90 -8 144 -78 144c-117 0 -237 -162 -283 -383z" />
    <glyph glyph-name="uni0146" unicode="&#x146;" horiz-adv-x="1002" 
d="M242 0h-202l230 1050h196c-8 -51 -38 -118 -106 -233l32 -17c121 188 205 266 341 266c154 0 222 -93 185 -267l-171 -799h-202l171 781c19 90 -8 144 -78 144c-117 0 -237 -162 -283 -383zM243 -373l-9 64c74 4 100 25 114 87h-94l29 137h194l-25 -116
c-26 -120 -78 -164 -209 -172z" />
    <glyph glyph-name="eng" unicode="&#x14b;" horiz-adv-x="1002" 
d="M733 1066c154 0 222 -93 185 -267l-171 -799c-57 -241 -205 -345 -447 -371l-22 182l86 6c108 8 148 37 181 183l171 781c19 90 -8 144 -78 144c-117 0 -237 -162 -283 -383l-113 -542h-202l230 1050h196c-8 -51 -38 -118 -106 -233l32 -17c121 188 205 266 341 266z" />
    <glyph glyph-name="ntilde" unicode="&#xf1;" horiz-adv-x="1002" 
d="M791 1167c-109 0 -185 100 -236 100c-36 0 -54 -25 -71 -94h-112c28 150 83 221 183 221c106 0 180 -100 232 -100c34 0 51 26 67 94h112c-28 -150 -84 -221 -175 -221zM242 0h-202l230 1050h196c-8 -51 -38 -118 -106 -233l32 -17c121 188 205 266 341 266
c154 0 222 -93 185 -267l-171 -799h-202l171 781c19 90 -8 144 -78 144c-117 0 -237 -162 -283 -383z" />
    <glyph glyph-name="oacute" unicode="&#xf3;" horiz-adv-x="952" 
d="M662 1142h-147l141 258h198zM413 -21c-261 0 -380 198 -315 497l42 195c56 259 190 400 400 400c260 0 380 -197 314 -497l-42 -195c-55 -258 -189 -400 -399 -400zM416 119c100 0 153 79 194 260l59 262c42 185 -5 290 -129 290c-102 0 -157 -79 -197 -260l-59 -259
c-42 -188 6 -293 132 -293z" />
    <glyph glyph-name="ocircumflex" unicode="&#xf4;" horiz-adv-x="952" 
d="M484 1142h-158l238 258h177l133 -258h-149l-91 133zM413 -21c-261 0 -380 198 -315 497l42 195c56 259 190 400 400 400c260 0 380 -197 314 -497l-42 -195c-55 -258 -189 -400 -399 -400zM416 119c100 0 153 79 194 260l59 262c42 185 -5 290 -129 290
c-102 0 -157 -79 -197 -260l-59 -259c-42 -188 6 -293 132 -293z" />
    <glyph glyph-name="odieresis" unicode="&#xf6;" horiz-adv-x="952" 
d="M553 1181h-196l42 191h196zM863 1181h-197l43 191h195zM413 -21c-261 0 -380 198 -315 497l42 195c56 259 190 400 400 400c260 0 380 -197 314 -497l-42 -195c-55 -258 -189 -400 -399 -400zM416 119c100 0 153 79 194 260l59 262c42 185 -5 290 -129 290
c-102 0 -157 -79 -197 -260l-59 -259c-42 -188 6 -293 132 -293z" />
    <glyph glyph-name="ograve" unicode="&#xf2;" horiz-adv-x="952" 
d="M673 1142h-141l-122 258h195zM413 -21c-261 0 -380 198 -315 497l42 195c56 259 190 400 400 400c260 0 380 -197 314 -497l-42 -195c-55 -258 -189 -400 -399 -400zM416 119c100 0 153 79 194 260l59 262c42 185 -5 290 -129 290c-102 0 -157 -79 -197 -260l-59 -259
c-42 -188 6 -293 132 -293z" />
    <glyph glyph-name="ohungarumlaut" unicode="&#x151;" horiz-adv-x="952" 
d="M505 1142h-147l141 258h198zM779 1142h-147l140 258h199zM413 -21c-261 0 -380 198 -315 497l42 195c56 259 190 400 400 400c260 0 380 -197 314 -497l-42 -195c-55 -258 -189 -400 -399 -400zM416 119c100 0 153 79 194 260l59 262c42 185 -5 290 -129 290
c-102 0 -157 -79 -197 -260l-59 -259c-42 -188 6 -293 132 -293z" />
    <glyph glyph-name="omacron" unicode="&#x14d;" horiz-adv-x="952" 
d="M860 1191h-497l29 131h497zM413 -21c-261 0 -380 198 -315 497l42 195c56 259 190 400 400 400c260 0 380 -197 314 -497l-42 -195c-55 -258 -189 -400 -399 -400zM416 119c100 0 153 79 194 260l59 262c42 185 -5 290 -129 290c-102 0 -157 -79 -197 -260l-59 -259
c-42 -188 6 -293 132 -293z" />
    <glyph glyph-name="uni01EB" unicode="&#x1eb;" horiz-adv-x="952" 
d="M540 1071c260 0 380 -197 314 -497l-42 -195c-45 -211 -143 -344 -292 -386c-89 -32 -134 -69 -134 -110c0 -28 21 -44 56 -44c18 0 37 3 56 8l-41 -133c-24 -9 -50 -14 -78 -14c-89 0 -142 45 -142 122c0 62 38 120 111 161c-215 31 -309 220 -250 493l42 195
c56 259 190 400 400 400zM610 379l59 262c42 185 -5 290 -129 290c-102 0 -157 -79 -197 -260l-59 -259c-42 -188 6 -293 132 -293c100 0 153 79 194 260z" />
    <glyph glyph-name="oslash" unicode="&#xf8;" horiz-adv-x="955" 
d="M775 1159h132l-110 -191c74 -87 97 -225 59 -397l-43 -190c-56 -262 -189 -402 -399 -402c-65 0 -122 12 -169 35l-72 -124h-132l113 196c-71 87 -92 223 -55 392l43 189c57 265 189 404 400 404c63 0 117 -11 163 -33zM336 669l-59 -255c-12 -53 -16 -100 -13 -139
l365 632c-23 16 -53 24 -88 24c-104 0 -165 -81 -205 -262zM621 381l60 257c13 58 16 108 11 150l-370 -641c24 -18 56 -28 95 -28c102 0 164 81 204 262z" />
    <glyph glyph-name="oslashacute" unicode="&#x1ff;" horiz-adv-x="955" 
d="M634 1400h198l-192 -258h-147zM775 1159h132l-110 -191c74 -87 97 -225 59 -397l-43 -190c-56 -262 -189 -402 -399 -402c-65 0 -122 12 -169 35l-72 -124h-132l113 196c-71 87 -92 223 -55 392l43 189c57 265 189 404 400 404c63 0 117 -11 163 -33zM336 669l-59 -255
c-12 -53 -16 -100 -13 -139l365 632c-23 16 -53 24 -88 24c-104 0 -165 -81 -205 -262zM621 381l60 257c13 58 16 108 11 150l-370 -641c24 -18 56 -28 95 -28c102 0 164 81 204 262z" />
    <glyph glyph-name="otilde" unicode="&#xf5;" horiz-adv-x="952" 
d="M754 1167c-109 0 -185 100 -236 100c-36 0 -54 -25 -71 -94h-112c28 150 83 221 183 221c106 0 180 -100 232 -100c34 0 51 26 67 94h112c-28 -150 -84 -221 -175 -221zM413 -21c-261 0 -380 198 -315 497l42 195c56 259 190 400 400 400c260 0 380 -197 314 -497
l-42 -195c-55 -258 -189 -400 -399 -400zM416 119c100 0 153 79 194 260l59 262c42 185 -5 290 -129 290c-102 0 -157 -79 -197 -260l-59 -259c-42 -188 6 -293 132 -293z" />
    <glyph glyph-name="oe" unicode="&#x153;" horiz-adv-x="1489" 
d="M1361 481h-528l-19 -85c-41 -180 16 -277 133 -277c95 0 157 64 204 213l178 -43c-59 -204 -201 -310 -386 -310c-124 0 -215 50 -263 147c-66 -100 -155 -147 -271 -147c-254 0 -379 192 -311 496l43 190c57 257 182 406 396 406c125 0 219 -51 269 -149
c69 98 165 149 290 149c198 0 321 -116 321 -306c0 -77 -25 -198 -56 -284zM608 384l60 259c42 184 -8 288 -130 288c-101 0 -154 -86 -195 -265l-59 -256c-42 -186 8 -291 131 -291c101 0 152 86 193 265zM1089 931c-115 0 -174 -94 -215 -271l-9 -39h333l19 85
c32 147 -22 225 -128 225z" />
    <glyph glyph-name="thorn" unicode="&#xfe;" horiz-adv-x="1006" 
d="M167 -350h-201l382 1750h202l-62 -283c-19 -91 -53 -166 -113 -283l19 -10c90 160 175 242 315 242c190 0 271 -163 205 -460l-51 -226c-56 -253 -175 -396 -351 -396c-148 0 -224 84 -242 247l-20 -3c5 -121 -1 -204 -21 -293zM461 125c100 0 165 89 204 266l53 237
c46 206 1 297 -103 297c-107 0 -195 -122 -237 -312l-39 -176c-45 -202 3 -312 122 -312z" />
    <glyph glyph-name="racute" unicode="&#x155;" horiz-adv-x="749" 
d="M589 1142h-147l141 258h198zM242 0h-202l230 1050h196c-9 -51 -38 -118 -106 -233l32 -17c123 203 208 268 370 278l-10 -185l-78 -8c-169 -17 -269 -126 -324 -383z" />
    <glyph glyph-name="rcaron" unicode="&#x159;" horiz-adv-x="749" 
d="M696 1400h158l-237 -258h-177l-133 258h149l91 -133zM242 0h-202l230 1050h196c-9 -51 -38 -118 -106 -233l32 -17c123 203 208 268 370 278l-10 -185l-78 -8c-169 -17 -269 -126 -324 -383z" />
    <glyph glyph-name="uni0157" unicode="&#x157;" horiz-adv-x="749" 
d="M242 0h-202l230 1050h196c-9 -51 -38 -118 -106 -233l32 -17c123 203 208 268 370 278l-10 -185l-78 -8c-169 -17 -269 -126 -324 -383zM-16 -373l-9 64c74 4 100 25 114 87h-94l29 137h194l-25 -116c-26 -120 -78 -164 -209 -172z" />
    <glyph glyph-name="sacute" unicode="&#x15b;" horiz-adv-x="902" 
d="M633 1142h-147l141 258h198zM391 -19c-236 0 -376 123 -334 340l187 26c-29 -154 33 -232 151 -232c83 0 140 42 145 123c4 72 -28 129 -119 209l-91 80c-90 80 -148 161 -142 273c10 167 121 269 325 269c222 0 347 -112 310 -304l-186 -24c29 130 -23 194 -123 194
c-84 0 -132 -40 -137 -111c-5 -63 21 -108 112 -187l90 -77c91 -78 163 -163 156 -302c-11 -172 -130 -277 -344 -277z" />
    <glyph glyph-name="scaron" unicode="&#x161;" horiz-adv-x="902" 
d="M740 1400h158l-237 -258h-177l-133 258h149l91 -133zM391 -19c-236 0 -376 123 -334 340l187 26c-29 -154 33 -232 151 -232c83 0 140 42 145 123c4 72 -28 129 -119 209l-91 80c-90 80 -148 161 -142 273c10 167 121 269 325 269c222 0 347 -112 310 -304l-186 -24
c29 130 -23 194 -123 194c-84 0 -132 -40 -137 -111c-5 -63 21 -108 112 -187l90 -77c91 -78 163 -163 156 -302c-11 -172 -130 -277 -344 -277z" />
    <glyph glyph-name="scedilla" unicode="&#x15f;" horiz-adv-x="902" 
d="M823 765l-186 -24c29 130 -23 194 -123 194c-84 0 -132 -40 -137 -111c-5 -63 21 -108 112 -187l90 -77c91 -78 163 -163 156 -302c-11 -172 -130 -277 -344 -277h-1l-22 -59c95 -18 148 -62 148 -137c0 -93 -72 -148 -183 -148c-60 0 -117 16 -163 45l35 99
c35 -23 77 -36 118 -36c47 0 76 21 76 55c0 46 -69 66 -167 71l43 121c-164 36 -253 151 -218 329l187 26c-29 -154 33 -232 151 -232c83 0 140 42 145 123c4 72 -28 129 -119 209l-91 80c-90 80 -148 161 -142 273c10 167 121 269 325 269c222 0 347 -112 310 -304z" />
    <glyph glyph-name="uni0219" unicode="&#x219;" horiz-adv-x="902" 
d="M391 -19c-236 0 -376 123 -334 340l187 26c-29 -154 33 -232 151 -232c83 0 140 42 145 123c4 72 -28 129 -119 209l-91 80c-90 80 -148 161 -142 273c10 167 121 269 325 269c222 0 347 -112 310 -304l-186 -24c29 130 -23 194 -123 194c-84 0 -132 -40 -137 -111
c-5 -63 21 -108 112 -187l90 -77c91 -78 163 -163 156 -302c-11 -172 -130 -277 -344 -277zM183 -373l-9 64c74 4 100 25 114 87h-94l29 137h194l-25 -116c-26 -120 -78 -164 -209 -172z" />
    <glyph glyph-name="germandbls" unicode="&#xdf;" horiz-adv-x="1005" 
d="M546 -11c-89 0 -162 37 -212 101l81 120c36 -49 74 -71 123 -71c73 0 116 52 116 137c0 52 -10 89 -51 169l-40 80c-41 82 -55 143 -55 193c0 233 314 276 314 455c0 66 -55 106 -147 106c-107 0 -169 -60 -198 -194l-236 -1085h-201l239 1087c49 223 176 334 406 334
c197 0 318 -86 318 -237c0 -247 -312 -278 -312 -440c0 -42 8 -68 48 -151l40 -82c39 -82 61 -148 61 -220c0 -172 -106 -302 -294 -302z" />
    <glyph glyph-name="tbar" unicode="&#x167;" horiz-adv-x="744" 
d="M767 1050l-32 -150h-239l-52 -236h238l-28 -132h-239l-58 -265c-19 -84 12 -120 88 -120c46 0 87 9 125 24l-39 -152c-49 -25 -109 -38 -170 -38c-169 0 -247 93 -209 266l62 285h-131l28 132h132l52 236h-132l32 150h132l61 269l212 54l-72 -323h239z" />
    <glyph glyph-name="tcaron" unicode="&#x165;" horiz-adv-x="743" 
d="M787 1181h-116l79 301h152zM359 -19c-169 0 -246 93 -208 266l142 653h-132l33 150h132l61 269l211 54l-71 -323h239l-33 -150h-238l-139 -633c-19 -84 11 -120 87 -120c46 0 87 9 125 24l-39 -152c-48 -25 -109 -38 -170 -38z" />
    <glyph glyph-name="uni0163" unicode="&#x163;" horiz-adv-x="743" 
d="M733 900h-238l-139 -633c-19 -84 11 -120 87 -120c46 0 87 9 125 24l-39 -152c-45 -24 -102 -37 -160 -38l-22 -59c95 -18 148 -62 148 -137c0 -93 -72 -148 -183 -148c-60 0 -117 16 -163 45l35 99c35 -23 77 -36 118 -36c47 0 76 21 76 55c0 46 -69 66 -167 71l44 125
c-95 33 -133 119 -104 251l142 653h-132l33 150h132l61 269l211 54l-71 -323h239z" />
    <glyph glyph-name="uni021B" unicode="&#x21b;" horiz-adv-x="743" 
d="M359 -19c-169 0 -246 93 -208 266l142 653h-132l33 150h132l61 269l211 54l-71 -323h239l-33 -150h-238l-139 -633c-19 -84 11 -120 87 -120c46 0 87 9 125 24l-39 -152c-48 -25 -109 -38 -170 -38zM162 -373l-9 64c74 4 100 25 114 87h-94l29 137h194l-25 -116
c-26 -120 -78 -164 -209 -172z" />
    <glyph glyph-name="uacute" unicode="&#xfa;" horiz-adv-x="1002" 
d="M692 1142h-147l141 258h198zM760 1050h202l-230 -1050h-196c8 51 38 118 106 233l-32 17c-121 -188 -205 -266 -341 -266c-154 0 -222 93 -185 267l171 799h202l-171 -781c-19 -90 8 -144 78 -144c117 0 237 162 283 383z" />
    <glyph glyph-name="ubreve" unicode="&#x16d;" horiz-adv-x="1002" 
d="M651 1135c-168 0 -240 90 -219 265h133c-11 -98 19 -146 95 -146c71 0 121 48 142 146h141c-37 -177 -130 -265 -292 -265zM760 1050h202l-230 -1050h-196c8 51 38 118 106 233l-32 17c-121 -188 -205 -266 -341 -266c-154 0 -222 93 -185 267l171 799h202l-171 -781
c-19 -90 8 -144 78 -144c117 0 237 162 283 383z" />
    <glyph glyph-name="ucircumflex" unicode="&#xfb;" horiz-adv-x="1002" 
d="M514 1142h-158l238 258h177l133 -258h-149l-91 133zM760 1050h202l-230 -1050h-196c8 51 38 118 106 233l-32 17c-121 -188 -205 -266 -341 -266c-154 0 -222 93 -185 267l171 799h202l-171 -781c-19 -90 8 -144 78 -144c117 0 237 162 283 383z" />
    <glyph glyph-name="udieresis" unicode="&#xfc;" horiz-adv-x="1002" 
d="M583 1181h-196l42 191h196zM893 1181h-197l43 191h195zM760 1050h202l-230 -1050h-196c8 51 38 118 106 233l-32 17c-121 -188 -205 -266 -341 -266c-154 0 -222 93 -185 267l171 799h202l-171 -781c-19 -90 8 -144 78 -144c117 0 237 162 283 383z" />
    <glyph glyph-name="ugrave" unicode="&#xf9;" horiz-adv-x="1002" 
d="M703 1142h-141l-122 258h195zM760 1050h202l-230 -1050h-196c8 51 38 118 106 233l-32 17c-121 -188 -205 -266 -341 -266c-154 0 -222 93 -185 267l171 799h202l-171 -781c-19 -90 8 -144 78 -144c117 0 237 162 283 383z" />
    <glyph glyph-name="uhungarumlaut" unicode="&#x171;" horiz-adv-x="1002" 
d="M535 1142h-147l141 258h198zM809 1142h-147l140 258h199zM760 1050h202l-230 -1050h-196c8 51 38 118 106 233l-32 17c-121 -188 -205 -266 -341 -266c-154 0 -222 93 -185 267l171 799h202l-171 -781c-19 -90 8 -144 78 -144c117 0 237 162 283 383z" />
    <glyph glyph-name="umacron" unicode="&#x16b;" horiz-adv-x="1002" 
d="M890 1191h-497l29 131h497zM760 1050h202l-230 -1050h-196c8 51 38 118 106 233l-32 17c-121 -188 -205 -266 -341 -266c-154 0 -222 93 -185 267l171 799h202l-171 -781c-19 -90 8 -144 78 -144c117 0 237 162 283 383z" />
    <glyph glyph-name="uogonek" unicode="&#x173;" horiz-adv-x="1002" 
d="M732 0h2c-103 -33 -155 -73 -155 -117c0 -28 21 -44 56 -44c18 0 37 3 56 8l-41 -133c-24 -9 -50 -14 -78 -14c-89 0 -142 45 -142 122c0 71 49 137 145 178h-39c8 51 38 118 106 233l-32 17c-121 -188 -205 -266 -341 -266c-154 0 -222 93 -185 267l171 799h202
l-171 -781c-19 -90 8 -144 78 -144c117 0 237 162 283 383l113 542h202z" />
    <glyph glyph-name="uring" unicode="&#x16f;" horiz-adv-x="1002" 
d="M671 1130c-121 0 -204 80 -204 197c0 116 83 197 204 197c122 0 205 -81 205 -197c0 -117 -83 -197 -205 -197zM671 1241c50 0 86 36 86 86s-36 85 -86 85c-49 0 -85 -35 -85 -85s36 -86 85 -86zM760 1050h202l-230 -1050h-196c8 51 38 118 106 233l-32 17
c-121 -188 -205 -266 -341 -266c-154 0 -222 93 -185 267l171 799h202l-171 -781c-19 -90 8 -144 78 -144c117 0 237 162 283 383z" />
    <glyph glyph-name="utilde" unicode="&#x169;" horiz-adv-x="1002" 
d="M783 1167c-109 0 -185 100 -236 100c-36 0 -54 -25 -71 -94h-112c28 150 83 221 183 221c106 0 180 -100 232 -100c34 0 51 26 67 94h112c-28 -150 -84 -221 -175 -221zM760 1050h202l-230 -1050h-196c8 51 38 118 106 233l-32 17c-121 -188 -205 -266 -341 -266
c-154 0 -222 93 -185 267l171 799h202l-171 -781c-19 -90 8 -144 78 -144c117 0 237 162 283 383z" />
    <glyph glyph-name="wacute" unicode="&#x1e83;" horiz-adv-x="1435" 
d="M903 1142h-147l141 258h198zM442 0h-232l-21 1050h199l-10 -528c-3 -104 -9 -233 -16 -313l37 -4c37 116 84 246 113 316l218 529h206l-11 -527c-3 -86 -11 -217 -21 -314l37 -4c32 104 77 227 108 299l230 546h191l-472 -1050h-238l11 470c4 108 16 259 32 368l-36 5
c-34 -113 -88 -265 -131 -371z" />
    <glyph glyph-name="wcircumflex" unicode="&#x175;" horiz-adv-x="1435" 
d="M725 1142h-158l238 258h177l133 -258h-149l-91 133zM442 0h-232l-21 1050h199l-10 -528c-3 -104 -9 -233 -16 -313l37 -4c37 116 84 246 113 316l218 529h206l-11 -527c-3 -86 -11 -217 -21 -314l37 -4c32 104 77 227 108 299l230 546h191l-472 -1050h-238l11 470
c4 108 16 259 32 368l-36 5c-34 -113 -88 -265 -131 -371z" />
    <glyph glyph-name="wdieresis" unicode="&#x1e85;" horiz-adv-x="1435" 
d="M794 1181h-196l42 191h196zM1104 1181h-197l43 191h195zM442 0h-232l-21 1050h199l-10 -528c-3 -104 -9 -233 -16 -313l37 -4c37 116 84 246 113 316l218 529h206l-11 -527c-3 -86 -11 -217 -21 -314l37 -4c32 104 77 227 108 299l230 546h191l-472 -1050h-238l11 470
c4 108 16 259 32 368l-36 5c-34 -113 -88 -265 -131 -371z" />
    <glyph glyph-name="wgrave" unicode="&#x1e81;" horiz-adv-x="1435" 
d="M914 1142h-141l-122 258h195zM442 0h-232l-21 1050h199l-10 -528c-3 -104 -9 -233 -16 -313l37 -4c37 116 84 246 113 316l218 529h206l-11 -527c-3 -86 -11 -217 -21 -314l37 -4c32 104 77 227 108 299l230 546h191l-472 -1050h-238l11 470c4 108 16 259 32 368l-36 5
c-34 -113 -88 -265 -131 -371z" />
    <glyph glyph-name="yacute" unicode="&#xfd;" horiz-adv-x="944" 
d="M659 1142h-147l141 258h198zM-43 -370l-12 176l106 10c105 10 131 40 159 112l29 72l-48 1050h205l-1 -528c1 -107 -2 -203 -15 -340l34 -3c47 140 86 235 132 343l223 528h210l-464 -992c-138 -297 -286 -405 -558 -428z" />
    <glyph glyph-name="ycircumflex" unicode="&#x177;" horiz-adv-x="944" 
d="M481 1142h-158l238 258h177l133 -258h-149l-91 133zM-43 -370l-12 176l106 10c105 10 131 40 159 112l29 72l-48 1050h205l-1 -528c1 -107 -2 -203 -15 -340l34 -3c47 140 86 235 132 343l223 528h210l-464 -992c-138 -297 -286 -405 -558 -428z" />
    <glyph glyph-name="ydieresis" unicode="&#xff;" horiz-adv-x="944" 
d="M550 1181h-196l42 191h196zM860 1181h-197l43 191h195zM-43 -370l-12 176l106 10c105 10 131 40 159 112l29 72l-48 1050h205l-1 -528c1 -107 -2 -203 -15 -340l34 -3c47 140 86 235 132 343l223 528h210l-464 -992c-138 -297 -286 -405 -558 -428z" />
    <glyph glyph-name="ygrave" unicode="&#x1ef3;" horiz-adv-x="944" 
d="M670 1142h-141l-122 258h195zM-43 -370l-12 176l106 10c105 10 131 40 159 112l29 72l-48 1050h205l-1 -528c1 -107 -2 -203 -15 -340l34 -3c47 140 86 235 132 343l223 528h210l-464 -992c-138 -297 -286 -405 -558 -428z" />
    <glyph glyph-name="uni1EF9" unicode="&#x1ef9;" horiz-adv-x="944" 
d="M750 1167c-109 0 -185 100 -236 100c-36 0 -54 -25 -71 -94h-112c28 150 83 221 183 221c106 0 180 -100 232 -100c34 0 51 26 67 94h112c-28 -150 -84 -221 -175 -221zM-43 -370l-12 176l106 10c105 10 131 40 159 112l29 72l-48 1050h205l-1 -528
c1 -107 -2 -203 -15 -340l34 -3c47 140 86 235 132 343l223 528h210l-464 -992c-138 -297 -286 -405 -558 -428z" />
    <glyph glyph-name="zacute" unicode="&#x17a;" horiz-adv-x="864" 
d="M621 1142h-147l141 258h198zM659 0h-672l22 131l468 599c25 31 67 81 133 137l-6 31c-29 -1 -52 -2 -86 -2h-323l32 154h637l-23 -131l-467 -598c-25 -31 -70 -83 -134 -139l8 -30c28 1 57 2 89 2h354z" />
    <glyph glyph-name="zcaron" unicode="&#x17e;" horiz-adv-x="864" 
d="M727 1400h158l-237 -258h-177l-133 258h149l91 -133zM659 0h-672l22 131l468 599c25 31 67 81 133 137l-6 31c-29 -1 -52 -2 -86 -2h-323l32 154h637l-23 -131l-467 -598c-25 -31 -70 -83 -134 -139l8 -30c28 1 57 2 89 2h354z" />
    <glyph glyph-name="zdotaccent" unicode="&#x17c;" horiz-adv-x="864" 
d="M681 1182h-224l41 190h224zM659 0h-672l22 131l468 599c25 31 67 81 133 137l-6 31c-29 -1 -52 -2 -86 -2h-323l32 154h637l-23 -131l-467 -598c-25 -31 -70 -83 -134 -139l8 -30c28 1 57 2 89 2h354z" />
    <glyph glyph-name="g.ss02" horiz-adv-x="1009" 
d="M325 -371c-221 0 -352 109 -349 261l205 39c0 -90 57 -160 156 -160c104 0 158 64 196 193l12 39c19 58 52 143 100 233l-34 13c-99 -174 -177 -237 -307 -237c-189 0 -270 158 -202 459l45 202c58 258 174 395 358 395c131 0 209 -78 225 -247l37 2c-7 113 -3 183 5 229
h197l-232 -1063c-53 -247 -185 -358 -412 -358zM399 151c107 0 194 114 239 312l34 150c47 203 -3 312 -122 312c-100 0 -165 -88 -204 -264l-48 -215c-48 -212 -3 -295 101 -295z" />
    <glyph glyph-name="gbreve.ss02" horiz-adv-x="1009" 
d="M634 1134c-168 0 -240 90 -219 265h133c-11 -98 19 -146 95 -146c71 0 121 48 142 146h141c-37 -177 -130 -265 -292 -265zM325 -371c-221 0 -352 109 -349 261l205 39c0 -90 57 -160 156 -160c104 0 158 64 196 193l12 39c19 58 52 143 100 233l-34 13
c-99 -174 -177 -237 -307 -237c-189 0 -270 158 -202 459l45 202c58 258 174 395 358 395c131 0 209 -78 225 -247l37 2c-7 113 -3 183 5 229h197l-232 -1063c-53 -247 -185 -358 -412 -358zM399 151c107 0 194 114 239 312l34 150c47 203 -3 312 -122 312
c-100 0 -165 -88 -204 -264l-48 -215c-48 -212 -3 -295 101 -295z" />
    <glyph glyph-name="gcaron.ss02" horiz-adv-x="1009" 
d="M782 1398h158l-237 -258h-177l-133 258h149l91 -133zM325 -371c-221 0 -352 109 -349 261l205 39c0 -90 57 -160 156 -160c104 0 158 64 196 193l12 39c19 58 52 143 100 233l-34 13c-99 -174 -177 -237 -307 -237c-189 0 -270 158 -202 459l45 202
c58 258 174 395 358 395c131 0 209 -78 225 -247l37 2c-7 113 -3 183 5 229h197l-232 -1063c-53 -247 -185 -358 -412 -358zM399 151c107 0 194 114 239 312l34 150c47 203 -3 312 -122 312c-100 0 -165 -88 -204 -264l-48 -215c-48 -212 -3 -295 101 -295z" />
    <glyph glyph-name="uni0123.ss02" horiz-adv-x="1009" 
d="M750 1421l9 -64c-74 -4 -100 -25 -114 -87h94l-29 -137h-194l25 116c26 120 78 164 209 172zM325 -371c-221 0 -352 109 -349 261l205 39c0 -90 57 -160 156 -160c104 0 158 64 196 193l12 39c19 58 52 143 100 233l-34 13c-99 -174 -177 -237 -307 -237
c-189 0 -270 158 -202 459l45 202c58 258 174 395 358 395c131 0 209 -78 225 -247l37 2c-7 113 -3 183 5 229h197l-232 -1063c-53 -247 -185 -358 -412 -358zM399 151c107 0 194 114 239 312l34 150c47 203 -3 312 -122 312c-100 0 -165 -88 -204 -264l-48 -215
c-48 -212 -3 -295 101 -295z" />
    <glyph glyph-name="gdotaccent.ss02" horiz-adv-x="1009" 
d="M735 1180h-224l41 190h224zM325 -371c-221 0 -352 109 -349 261l205 39c0 -90 57 -160 156 -160c104 0 158 64 196 193l12 39c19 58 52 143 100 233l-34 13c-99 -174 -177 -237 -307 -237c-189 0 -270 158 -202 459l45 202c58 258 174 395 358 395
c131 0 209 -78 225 -247l37 2c-7 113 -3 183 5 229h197l-232 -1063c-53 -247 -185 -358 -412 -358zM399 151c107 0 194 114 239 312l34 150c47 203 -3 312 -122 312c-100 0 -165 -88 -204 -264l-48 -215c-48 -212 -3 -295 101 -295z" />
    <glyph glyph-name="f.calt" horiz-adv-x="656" 
d="M295 0h-202l197 900h-129l33 150h129l17 77c44 189 164 290 445 294l-13 -165l-93 -5c-96 -5 -126 -33 -144 -118l-17 -83h155l-32 -150h-149z" />
    <glyph glyph-name="t.calt" horiz-adv-x="687" 
d="M359 -19c-169 0 -246 93 -208 266l142 653h-132l33 150h132l61 269l211 54l-71 -323h180l-33 -150h-179l-139 -633c-19 -84 11 -120 87 -120c46 0 87 9 125 24l-39 -152c-48 -25 -109 -38 -170 -38z" />
    <glyph glyph-name="tbar.calt" horiz-adv-x="688" 
d="M708 1050l-32 -150h-180l-52 -237h224l-30 -137h-224l-57 -259c-19 -84 12 -120 88 -120c46 0 87 9 125 24l-39 -152c-49 -25 -109 -38 -170 -38c-169 0 -247 93 -209 266l61 279h-131l29 137h132l52 237h-132l32 150h132l61 269l212 54l-72 -323h180z" />
    <glyph glyph-name="tcaron.calt" horiz-adv-x="687" 
d="M787 1181h-116l79 301h152zM359 -19c-169 0 -246 93 -208 266l142 653h-132l33 150h132l61 269l211 54l-71 -323h180l-33 -150h-179l-139 -633c-19 -84 11 -120 87 -120c46 0 87 9 125 24l-39 -152c-48 -25 -109 -38 -170 -38z" />
    <glyph glyph-name="uni0163.calt" horiz-adv-x="687" 
d="M674 900h-179l-139 -633c-19 -84 11 -120 87 -120c46 0 87 9 125 24l-39 -152c-45 -23 -102 -36 -159 -38l-22 -59c95 -18 148 -62 148 -137c0 -93 -72 -148 -183 -148c-60 0 -117 16 -163 45l35 99c35 -23 77 -36 118 -36c47 0 76 21 76 55c0 46 -69 66 -167 71l44 125
c-96 33 -134 118 -105 251l142 653h-132l33 150h132l61 269l211 54l-71 -323h180z" />
    <glyph glyph-name="uni021B.calt" horiz-adv-x="687" 
d="M359 -19c-169 0 -246 93 -208 266l142 653h-132l33 150h132l61 269l211 54l-71 -323h180l-33 -150h-179l-139 -633c-19 -84 11 -120 87 -120c46 0 87 9 125 24l-39 -152c-48 -25 -109 -38 -170 -38zM164 -373l-9 64c74 4 100 25 114 87h-94l29 137h194l-25 -116
c-26 -120 -78 -164 -209 -172z" />
    <glyph glyph-name="zero.slashed" horiz-adv-x="1112" 
d="M689 1421c309 0 436 -242 347 -643l-61 -273c-73 -333 -204 -526 -479 -526c-310 0 -435 240 -347 639l60 273c74 335 206 530 480 530zM416 900l-54 -235l495 219c50 253 -15 371 -172 371c-150 0 -215 -118 -269 -355zM769 497l52 228l-494 -219
c-47 -245 18 -360 174 -361c150 0 214 116 268 352z" />
    <glyph glyph-name="zero" unicode="0" horiz-adv-x="1112" 
d="M496 -21c-310 0 -435 240 -347 639l60 273c74 335 206 530 480 530c309 0 436 -242 347 -643l-61 -273c-73 -333 -204 -526 -479 -526zM501 145c150 0 214 116 268 352l81 353c63 276 -1 405 -165 405c-150 0 -215 -118 -269 -355l-81 -354c-62 -273 2 -400 166 -401z
" />
    <glyph glyph-name="one" unicode="1" horiz-adv-x="745" 
d="M453 0h-205l222 1016h-272l29 134c270 9 299 24 364 250h168z" />
    <glyph glyph-name="two" unicode="2" horiz-adv-x="1016" 
d="M782 0h-743v133c584 506 762 747 762 962c-1 108 -47 160 -145 160c-130 0 -188 -81 -213 -262l-197 34c43 265 171 394 424 394c212 0 333 -108 333 -307c0 -265 -182 -503 -690 -925l6 -27c48 3 96 4 147 4h351z" />
    <glyph glyph-name="three" unicode="3" horiz-adv-x="1072" 
d="M483 -21c-258 0 -409 163 -373 411l203 29c-25 -174 46 -274 179 -274c128 0 217 115 217 309c0 130 -48 186 -146 190l-112 5l27 135l114 5c141 7 236 101 236 283c0 119 -58 183 -167 183c-117 0 -195 -74 -225 -218l-187 43c47 220 201 341 426 341
c220 0 346 -114 346 -319c0 -208 -108 -351 -266 -379l-2 -34c100 -34 158 -112 158 -248c0 -279 -173 -462 -428 -462z" />
    <glyph glyph-name="four" unicode="4" horiz-adv-x="1044" 
d="M689 0h-205l69 305h-486v128l631 967h297l-206 -941h139l-32 -154h-139zM584 950l-308 -491h308l109 466c24 98 59 223 90 314l-38 10c-50 -102 -113 -221 -161 -299z" />
    <glyph glyph-name="five" unicode="5" horiz-adv-x="1057" 
d="M469 -21c-230 0 -370 113 -379 319l208 30c7 -120 73 -195 174 -195c153 0 246 150 246 387c0 136 -64 220 -169 220c-88 0 -160 -53 -207 -131l-165 38l190 753h711l-36 -167h-517l-108 -414c62 45 131 72 216 72c183 0 290 -134 290 -349c0 -340 -180 -563 -454 -563z
" />
    <glyph glyph-name="six" unicode="6" horiz-adv-x="1070" 
d="M698 1421c217 0 338 -113 353 -327l-203 -26c-9 132 -65 187 -165 187c-142 0 -234 -143 -308 -497c59 72 154 114 254 114c184 0 299 -125 299 -312c0 -351 -177 -581 -455 -581c-288 0 -418 201 -335 590l44 207c97 452 252 645 516 645zM563 718
c-151 0 -250 -156 -250 -384c0 -122 61 -189 168 -189c149 0 247 154 247 386c0 121 -60 187 -165 187z" />
    <glyph glyph-name="seven" unicode="7" horiz-adv-x="929" 
d="M437 0h-206c132 587 302 955 546 1234h-536l36 167h747l-29 -134c-253 -275 -425 -658 -558 -1267z" />
    <glyph glyph-name="eight" unicode="8" horiz-adv-x="1102" 
d="M478 -21c-244 0 -381 121 -381 338c0 216 121 379 310 412l5 34c-88 37 -137 121 -137 244c0 244 176 414 432 414c222 0 350 -113 350 -315c0 -193 -106 -339 -271 -370l-5 -34c104 -33 162 -119 162 -265c0 -271 -193 -458 -465 -458zM627 805c143 0 231 105 231 287
c0 112 -63 175 -165 175c-143 0 -231 -107 -231 -289c0 -110 63 -173 165 -173zM487 133c159 0 256 121 256 326c0 121 -68 192 -179 192c-161 0 -260 -121 -260 -325c0 -122 70 -193 183 -193z" />
    <glyph glyph-name="nine" unicode="9" horiz-adv-x="1071" 
d="M447 -21c-217 0 -338 113 -353 327l203 26c9 -132 65 -187 165 -187c142 0 234 143 308 497c-59 -72 -154 -114 -253 -114c-184 0 -300 125 -300 312c0 351 178 581 455 581c288 0 418 -201 335 -590l-44 -207c-96 -452 -252 -645 -516 -645zM582 682
c151 0 251 156 251 384c0 122 -62 189 -169 189c-148 0 -246 -154 -246 -386c0 -121 60 -187 164 -187z" />
    <glyph glyph-name="zero.tf.slashed" horiz-adv-x="1095" 
d="M681 1421c309 0 437 -242 347 -643l-61 -273c-65 -335 -204 -526 -479 -526c-310 0 -436 240 -347 639l60 273c67 337 206 530 480 530zM408 900l-54 -235l495 219c49 253 -15 376 -172 376c-150 0 -221 -121 -269 -360zM761 497l52 228l-494 -218
c-46 -248 18 -367 173 -368c151 0 222 121 269 358z" />
    <glyph glyph-name="zero.tf" horiz-adv-x="1095" 
d="M488 -21c-310 0 -436 240 -347 639l60 273c67 337 206 530 480 530c309 0 437 -242 347 -643l-61 -273c-65 -335 -204 -526 -479 -526zM492 139c151 0 222 121 269 358l81 353c61 276 -1 410 -165 410c-150 0 -221 -121 -269 -360l-81 -354c-60 -274 2 -406 165 -407z
" />
    <glyph glyph-name="one.tf" horiz-adv-x="1095" 
d="M853 0h-835l35 165h345l180 852h-330l28 134c328 9 357 24 421 249h170l-262 -1235h283z" />
    <glyph glyph-name="two.tf" horiz-adv-x="1095" 
d="M820 0h-743v133c585 506 762 747 762 962c-1 108 -47 160 -145 160c-130 0 -188 -81 -213 -262l-197 34c43 265 171 394 424 394c212 0 333 -108 333 -307c0 -265 -182 -503 -690 -925l6 -27c49 3 96 4 147 4h351z" />
    <glyph glyph-name="three.tf" horiz-adv-x="1095" 
d="M494 -21c-258 0 -409 163 -373 411l203 29c-25 -174 46 -274 179 -274c128 0 216 115 216 309c0 130 -47 186 -145 190l-112 5l27 135l113 5c141 7 236 101 236 283c0 119 -57 183 -166 183c-117 0 -195 -74 -225 -218l-187 43c46 220 201 341 426 341
c220 0 345 -114 345 -319c0 -208 -107 -351 -265 -379l-3 -34c101 -34 159 -112 159 -248c0 -279 -173 -462 -428 -462z" />
    <glyph glyph-name="four.tf" horiz-adv-x="1095" 
d="M722 0h-205l69 305h-485v128l630 967h297l-205 -941h139l-32 -154h-140zM617 950l-308 -491h309l109 466c23 98 59 223 89 314l-37 10c-50 -102 -113 -221 -162 -299z" />
    <glyph glyph-name="five.tf" horiz-adv-x="1095" 
d="M478 -21c-231 0 -371 113 -379 319l208 30c6 -120 73 -195 173 -195c153 0 247 150 247 387c0 136 -65 220 -169 220c-88 0 -160 -53 -207 -131l-165 38l189 753h712l-36 -167h-517l-108 -414c61 45 131 72 216 72c183 0 290 -134 290 -349c0 -340 -181 -563 -454 -563z
" />
    <glyph glyph-name="six.tf" horiz-adv-x="1095" 
d="M700 1421c217 0 338 -113 353 -327l-203 -26c-9 132 -65 187 -165 187c-142 0 -234 -143 -308 -497c59 72 154 114 253 114c184 0 300 -125 300 -312c0 -351 -178 -581 -455 -581c-288 0 -418 201 -335 590l44 207c97 452 252 645 516 645zM565 718
c-151 0 -251 -156 -251 -384c0 -122 62 -189 169 -189c149 0 247 154 247 386c0 121 -60 187 -165 187z" />
    <glyph glyph-name="seven.tf" horiz-adv-x="1095" 
d="M521 0h-207c133 587 303 955 547 1234h-536l36 167h746l-29 -134c-252 -275 -424 -658 -557 -1267z" />
    <glyph glyph-name="eight.tf" horiz-adv-x="1095" 
d="M474 -21c-244 0 -381 121 -381 338c0 216 121 379 311 412l5 34c-88 37 -138 121 -138 244c0 244 177 414 432 414c222 0 350 -113 350 -315c0 -193 -105 -339 -271 -370l-5 -34c104 -33 162 -119 162 -265c0 -271 -192 -458 -465 -458zM623 805c144 0 232 105 232 287
c0 112 -63 175 -165 175c-144 0 -231 -107 -231 -289c0 -110 63 -173 164 -173zM484 133c158 0 255 121 255 326c0 121 -68 192 -179 192c-161 0 -260 -121 -260 -325c0 -122 70 -193 184 -193z" />
    <glyph glyph-name="nine.tf" horiz-adv-x="1095" 
d="M459 -21c-217 0 -338 113 -353 327l203 26c9 -132 65 -187 165 -187c142 0 234 143 308 497c-59 -72 -154 -114 -254 -114c-183 0 -299 125 -299 312c0 351 177 581 455 581c288 0 418 -201 335 -590l-44 -207c-97 -452 -252 -645 -516 -645zM594 682
c151 0 251 156 251 384c0 122 -62 189 -169 189c-149 0 -247 -154 -247 -386c0 -121 60 -187 165 -187z" />
    <glyph glyph-name="uni24EA" unicode="&#x24ea;" horiz-adv-x="1772" 
d="M923 -40c-422 0 -740 318 -740 740s318 740 740 740s740 -318 740 -740s-318 -740 -740 -740zM923 40c376 0 660 284 660 660s-284 660 -660 660s-660 -284 -660 -660s284 -660 660 -660zM874 259c-208 0 -302 149 -249 390l39 181c42 210 142 311 309 311
c208 0 303 -150 249 -390l-39 -182c-42 -209 -141 -310 -309 -310zM878 381c74 1 111 64 137 187l50 233c30 135 2 218 -95 217c-75 0 -112 -63 -138 -186l-50 -233c-31 -134 -1 -218 96 -218z" />
    <glyph glyph-name="uni2460" unicode="&#x2460;" horiz-adv-x="1772" 
d="M923 -40c-422 0 -740 318 -740 740s318 740 740 740s740 -318 740 -740s-318 -740 -740 -740zM923 40c376 0 660 284 660 660s-284 660 -660 660s-660 -284 -660 -660s284 -660 660 -660zM1141 283h-564l28 129h222l100 458h-207l23 108c205 7 228 18 271 160h139
l-159 -726h175z" />
    <glyph glyph-name="uni2461" unicode="&#x2461;" horiz-adv-x="1772" 
d="M923 -40c-422 0 -740 318 -740 740s318 740 740 740s740 -318 740 -740s-318 -740 -740 -740zM923 40c376 0 660 284 660 660s-284 660 -660 660s-660 -284 -660 -660s284 -660 660 -660zM1114 274h-513v105c376 295 490 422 489 548c-1 61 -31 95 -93 95
c-73 0 -108 -49 -126 -168l-159 24c28 179 126 265 302 265c151 0 238 -73 238 -203c0 -148 -95 -275 -429 -529l3 -12c33 3 62 4 92 4h224z" />
    <glyph glyph-name="uni2462" unicode="&#x2462;" horiz-adv-x="1772" 
d="M923 -40c-422 0 -740 318 -740 740s318 740 740 740s740 -318 740 -740s-318 -740 -740 -740zM923 40c376 0 660 284 660 660s-284 660 -660 660s-660 -284 -660 -660s284 -660 660 -660zM874 258c-183 0 -276 92 -264 259l164 21c-8 -103 32 -162 107 -162
c78 0 124 67 123 177c-1 76 -37 103 -88 107l-59 4l16 101l60 2c87 2 137 66 136 156c-1 64 -38 101 -99 101c-68 0 -109 -48 -123 -123l-156 25c31 136 126 216 285 216c153 0 254 -80 254 -204c0 -119 -60 -205 -174 -223l-1 -20c70 -21 109 -72 109 -160
c0 -167 -115 -277 -290 -277z" />
    <glyph glyph-name="uni2463" unicode="&#x2463;" horiz-adv-x="1772" 
d="M923 -40c-422 0 -740 318 -740 740s318 740 740 740s740 -318 740 -740s-318 -740 -740 -740zM923 40c376 0 660 284 660 660s-284 660 -660 660s-660 -284 -660 -660s284 -660 660 -660zM1011 272h-162l37 169h-330l-3 88l397 598h247l-126 -581h81l-23 -105h-81z
M889 816l-176 -270h196l60 250c14 62 31 120 54 190l-34 11c-38 -78 -70 -135 -100 -181z" />
    <glyph glyph-name="uni2464" unicode="&#x2464;" horiz-adv-x="1772" 
d="M923 -40c-422 0 -740 318 -740 740s318 740 740 740s740 -318 740 -740s-318 -740 -740 -740zM923 40c376 0 660 284 660 660s-284 660 -660 660s-660 -284 -660 -660s284 -660 660 -660zM859 258c-151 0 -257 79 -273 206l169 33c7 -78 44 -120 105 -120
c91 0 150 90 149 220c-1 83 -34 120 -99 120c-55 0 -98 -30 -128 -93l-145 35l121 469h493l-28 -129h-336l-54 -203c35 24 78 36 131 36c129 0 210 -83 210 -220c0 -211 -125 -354 -315 -354z" />
    <glyph glyph-name="uni2465" unicode="&#x2465;" horiz-adv-x="1772" 
d="M923 -40c-422 0 -740 318 -740 740s318 740 740 740s740 -318 740 -740s-318 -740 -740 -740zM923 40c376 0 660 284 660 660s-284 660 -660 660s-660 -284 -660 -660s284 -660 660 -660zM992 1142c151 0 244 -80 250 -212l-160 -22c0 74 -35 113 -101 113
c-77 0 -127 -65 -156 -204l-14 -64c40 36 95 57 158 57c129 0 207 -77 206 -205c0 -216 -115 -346 -306 -346c-207 0 -295 136 -246 357l43 194c49 222 145 332 326 332zM916 702c-92 0 -148 -80 -148 -205c0 -74 38 -117 101 -117c91 0 146 82 145 210
c0 72 -38 112 -98 112z" />
    <glyph glyph-name="uni2466" unicode="&#x2466;" horiz-adv-x="1772" 
d="M923 -40c-422 0 -740 318 -740 740s318 740 740 740s740 -318 740 -740s-318 -740 -740 -740zM923 40c376 0 660 284 660 660s-284 660 -660 660s-660 -284 -660 -660s284 -660 660 -660zM867 272h-173c83 342 196 552 358 720h-379l30 135h560l-23 -108
c-182 -175 -291 -391 -373 -747z" />
    <glyph glyph-name="uni2467" unicode="&#x2467;" horiz-adv-x="1772" 
d="M923 -40c-422 0 -740 318 -740 740s318 740 740 740s740 -318 740 -740s-318 -740 -740 -740zM923 40c376 0 660 284 660 660s-284 660 -660 660s-660 -284 -660 -660s284 -660 660 -660zM862 259c-174 0 -275 77 -274 211c0 141 75 233 196 250l2 17
c-58 25 -91 78 -91 147c0 163 106 257 288 257c165 0 260 -73 260 -200c0 -124 -67 -206 -174 -226l-3 -17c68 -22 107 -78 107 -156c0 -180 -113 -283 -311 -283zM950 769c84 0 131 57 131 157c0 63 -37 99 -101 99c-84 0 -131 -57 -131 -156c0 -64 37 -100 101 -100z
M864 375c93 0 146 65 145 177c0 69 -40 108 -109 108c-93 0 -145 -64 -145 -177c0 -69 40 -108 109 -108z" />
    <glyph glyph-name="uni2468" unicode="&#x2468;" horiz-adv-x="1772" 
d="M923 -40c-422 0 -740 318 -740 740s318 740 740 740s740 -318 740 -740s-318 -740 -740 -740zM923 40c376 0 660 284 660 660s-284 660 -660 660s-660 -284 -660 -660s284 -660 660 -660zM853 259c-151 0 -244 79 -250 211l161 22c-1 -74 34 -113 101 -113
c76 0 126 66 156 205l13 63c-40 -36 -95 -57 -158 -57c-129 0 -207 77 -206 205c0 216 115 347 307 347c207 0 295 -136 246 -358l-43 -194c-49 -222 -146 -331 -327 -331zM929 698c92 0 148 80 149 205c0 74 -39 117 -102 117c-90 0 -146 -82 -145 -210
c0 -72 38 -112 98 -112z" />
    <glyph glyph-name="uni24FF" unicode="&#x24ff;" horiz-adv-x="1772" 
d="M923 -40c420 0 740 319 740 740s-320 740 -740 740s-740 -319 -740 -740s320 -740 740 -740zM874 259c-208 0 -302 149 -249 390l39 181c42 210 142 311 309 311c208 0 303 -150 249 -390l-39 -182c-42 -209 -141 -310 -309 -310zM878 381c74 1 111 64 137 187l50 233
c30 135 2 218 -95 217c-75 0 -112 -63 -138 -186l-50 -233c-31 -134 -1 -218 96 -218z" />
    <glyph glyph-name="uni2776" unicode="&#x2776;" horiz-adv-x="1772" 
d="M923 -40c420 0 740 319 740 740s-320 740 -740 740s-740 -319 -740 -740s320 -740 740 -740zM1141 283h-564l28 129h222l100 458h-207l23 108c205 7 228 18 271 160h139l-159 -726h175z" />
    <glyph glyph-name="uni2777" unicode="&#x2777;" horiz-adv-x="1772" 
d="M923 -40c420 0 740 319 740 740s-320 740 -740 740s-740 -319 -740 -740s320 -740 740 -740zM1114 274h-513v105c376 295 490 422 489 548c-1 61 -31 95 -93 95c-73 0 -108 -49 -126 -168l-159 24c28 179 126 265 302 265c151 0 238 -73 238 -203
c0 -148 -95 -275 -429 -529l3 -12c33 3 62 4 92 4h224z" />
    <glyph glyph-name="uni2778" unicode="&#x2778;" horiz-adv-x="1772" 
d="M923 -40c420 0 740 319 740 740s-320 740 -740 740s-740 -319 -740 -740s320 -740 740 -740zM874 258c-183 0 -276 92 -264 259l164 21c-8 -103 32 -162 107 -162c78 0 124 67 123 177c-1 76 -37 103 -88 107l-59 4l16 101l60 2c87 2 137 66 136 156
c-1 64 -38 101 -99 101c-68 0 -109 -48 -123 -123l-156 25c31 136 126 216 285 216c153 0 254 -80 254 -204c0 -119 -60 -205 -174 -223l-1 -20c70 -21 109 -72 109 -160c0 -167 -115 -277 -290 -277z" />
    <glyph glyph-name="uni2779" unicode="&#x2779;" horiz-adv-x="1772" 
d="M923 -40c420 0 740 319 740 740s-320 740 -740 740s-740 -319 -740 -740s320 -740 740 -740zM1011 272h-162l37 169h-330l-3 88l397 598h247l-126 -581h81l-23 -105h-81zM889 816l-176 -270h196l60 250c14 62 31 120 54 190l-34 11c-38 -78 -70 -135 -100 -181z" />
    <glyph glyph-name="uni277A" unicode="&#x277a;" horiz-adv-x="1772" 
d="M923 -40c420 0 740 319 740 740s-320 740 -740 740s-740 -319 -740 -740s320 -740 740 -740zM859 258c-151 0 -257 79 -273 206l169 33c7 -78 44 -120 105 -120c91 0 150 90 149 220c-1 83 -34 120 -99 120c-55 0 -98 -30 -128 -93l-145 35l121 469h493l-28 -129h-336
l-54 -203c35 24 78 36 131 36c129 0 210 -83 210 -220c0 -211 -125 -354 -315 -354z" />
    <glyph glyph-name="uni277B" unicode="&#x277b;" horiz-adv-x="1772" 
d="M923 -40c420 0 740 319 740 740s-320 740 -740 740s-740 -319 -740 -740s320 -740 740 -740zM992 1142c151 0 244 -80 250 -212l-160 -22c0 74 -35 113 -101 113c-77 0 -127 -65 -156 -204l-14 -64c40 36 95 57 158 57c129 0 207 -77 206 -205
c0 -216 -115 -346 -306 -346c-207 0 -295 136 -246 357l43 194c49 222 145 332 326 332zM916 702c-92 0 -148 -80 -148 -205c0 -74 38 -117 101 -117c91 0 146 82 145 210c0 72 -38 112 -98 112z" />
    <glyph glyph-name="uni277C" unicode="&#x277c;" horiz-adv-x="1772" 
d="M923 -40c420 0 740 319 740 740s-320 740 -740 740s-740 -319 -740 -740s320 -740 740 -740zM867 272h-173c83 342 196 552 358 720h-379l30 135h560l-23 -108c-182 -175 -291 -391 -373 -747z" />
    <glyph glyph-name="uni277D" unicode="&#x277d;" horiz-adv-x="1772" 
d="M923 -40c420 0 740 319 740 740s-320 740 -740 740s-740 -319 -740 -740s320 -740 740 -740zM862 259c-174 0 -275 77 -274 211c0 141 75 233 196 250l2 17c-58 25 -91 78 -91 147c0 163 106 257 288 257c165 0 260 -73 260 -200c0 -124 -67 -206 -174 -226l-3 -17
c68 -22 107 -78 107 -156c0 -180 -113 -283 -311 -283zM950 769c84 0 131 57 131 157c0 63 -37 99 -101 99c-84 0 -131 -57 -131 -156c0 -64 37 -100 101 -100zM864 375c93 0 146 65 145 177c0 69 -40 108 -109 108c-93 0 -145 -64 -145 -177c0 -69 40 -108 109 -108z" />
    <glyph glyph-name="uni277E" unicode="&#x277e;" horiz-adv-x="1772" 
d="M923 -40c420 0 740 319 740 740s-320 740 -740 740s-740 -319 -740 -740s320 -740 740 -740zM853 259c-151 0 -244 79 -250 211l161 22c-1 -74 34 -113 101 -113c76 0 126 66 156 205l13 63c-40 -36 -95 -57 -158 -57c-129 0 -207 77 -206 205c0 216 115 347 307 347
c207 0 295 -136 246 -358l-43 -194c-49 -222 -146 -331 -327 -331zM929 698c92 0 148 80 149 205c0 74 -39 117 -102 117c-90 0 -146 -82 -145 -210c0 -72 38 -112 98 -112z" />
    <glyph glyph-name="uni2460.init" 
d="M1315 -20h-383c-427 0 -750 310 -750 720s323 720 750 720h689l-16 -75h-673c-382 0 -670 -277 -670 -645s288 -645 670 -645h399zM1243 283h-564l28 129h222l100 458h-207l23 108c205 7 228 18 271 160h139l-159 -726h175z" />
    <glyph glyph-name="uni2460.medi" horiz-adv-x="882" 
d="M1058 1345h-886l16 75h886zM696 283h-564l28 129h222l100 458h-207l23 108c205 7 228 18 271 160h139l-159 -726h175zM768 -20h-886l16 75h886z" />
    <glyph glyph-name="uni2460.fina" 
d="M188 1420h383c427 0 750 -310 750 -720s-323 -720 -750 -720h-689l16 75h673c382 0 670 277 670 645s-288 645 -670 645h-399zM696 283h-564l28 129h222l100 458h-207l23 108c205 7 228 18 271 160h139l-159 -726h175z" />
    <glyph glyph-name="uni2461.init" 
d="M1315 -20h-383c-427 0 -750 310 -750 720s323 720 750 720h689l-16 -75h-673c-382 0 -670 -277 -670 -645s288 -645 670 -645h399zM1216 274h-513v105c376 295 490 422 489 548c-1 61 -31 95 -93 95c-73 0 -108 -49 -126 -168l-159 24c28 179 126 265 302 265
c151 0 238 -73 238 -203c0 -148 -95 -275 -429 -529l3 -12c33 3 62 4 92 4h224z" />
    <glyph glyph-name="uni2461.medi" horiz-adv-x="882" 
d="M1058 1345h-886l16 75h886zM669 274h-513v105c376 295 490 422 489 548c-1 61 -31 95 -93 95c-73 0 -108 -49 -126 -168l-159 24c28 179 126 265 302 265c151 0 238 -73 238 -203c0 -148 -95 -275 -429 -529l3 -12c33 3 62 4 92 4h224zM768 -20h-886l16 75h886z" />
    <glyph glyph-name="uni2461.fina" 
d="M188 1420h383c427 0 750 -310 750 -720s-323 -720 -750 -720h-689l16 75h673c382 0 670 277 670 645s-288 645 -670 645h-399zM669 274h-513v105c376 295 490 422 489 548c-1 61 -31 95 -93 95c-73 0 -108 -49 -126 -168l-159 24c28 179 126 265 302 265
c151 0 238 -73 238 -203c0 -148 -95 -275 -429 -529l3 -12c33 3 62 4 92 4h224z" />
    <glyph glyph-name="uni2462.init" 
d="M1315 -20h-383c-427 0 -750 310 -750 720s323 720 750 720h689l-16 -75h-673c-382 0 -670 -277 -670 -645s288 -645 670 -645h399zM976 258c-183 0 -276 92 -264 259l164 21c-8 -103 32 -162 107 -162c78 0 124 67 123 177c-1 76 -37 103 -88 107l-59 4l16 101l60 2
c87 2 137 66 136 156c-1 64 -38 101 -99 101c-68 0 -109 -48 -123 -123l-156 25c31 136 126 216 285 216c153 0 254 -80 254 -204c0 -119 -60 -205 -174 -223l-1 -20c70 -21 109 -72 109 -160c0 -167 -115 -277 -290 -277z" />
    <glyph glyph-name="uni2462.medi" horiz-adv-x="882" 
d="M1058 1345h-886l16 75h886zM429 258c-183 0 -276 92 -264 259l164 21c-8 -103 32 -162 107 -162c78 0 124 67 123 177c-1 76 -37 103 -88 107l-59 4l16 101l60 2c87 2 137 66 136 156c-1 64 -38 101 -99 101c-68 0 -109 -48 -123 -123l-156 25c31 136 126 216 285 216
c153 0 254 -80 254 -204c0 -119 -60 -205 -174 -223l-1 -20c70 -21 109 -72 109 -160c0 -167 -115 -277 -290 -277zM768 -20h-886l16 75h886z" />
    <glyph glyph-name="uni2462.fina" 
d="M188 1420h383c427 0 750 -310 750 -720s-323 -720 -750 -720h-689l16 75h673c382 0 670 277 670 645s-288 645 -670 645h-399zM429 258c-183 0 -276 92 -264 259l164 21c-8 -103 32 -162 107 -162c78 0 124 67 123 177c-1 76 -37 103 -88 107l-59 4l16 101l60 2
c87 2 137 66 136 156c-1 64 -38 101 -99 101c-68 0 -109 -48 -123 -123l-156 25c31 136 126 216 285 216c153 0 254 -80 254 -204c0 -119 -60 -205 -174 -223l-1 -20c70 -21 109 -72 109 -160c0 -167 -115 -277 -290 -277z" />
    <glyph glyph-name="uni2463.init" 
d="M1315 -20h-383c-427 0 -750 310 -750 720s323 720 750 720h689l-16 -75h-673c-382 0 -670 -277 -670 -645s288 -645 670 -645h399zM1113 272h-162l37 169h-330l-3 88l397 598h247l-126 -581h81l-23 -105h-81zM991 816l-176 -270h196l60 250c14 62 31 120 54 190l-34 11
c-38 -78 -70 -135 -100 -181z" />
    <glyph glyph-name="uni2463.medi" horiz-adv-x="882" 
d="M1058 1345h-886l16 75h886zM566 272h-162l37 169h-330l-3 88l397 598h247l-126 -581h81l-23 -105h-81zM444 816l-176 -270h196l60 250c14 62 31 120 54 190l-34 11c-38 -78 -70 -135 -100 -181zM768 -20h-886l16 75h886z" />
    <glyph glyph-name="uni2463.fina" 
d="M188 1420h383c427 0 750 -310 750 -720s-323 -720 -750 -720h-689l16 75h673c382 0 670 277 670 645s-288 645 -670 645h-399zM566 272h-162l37 169h-330l-3 88l397 598h247l-126 -581h81l-23 -105h-81zM444 816l-176 -270h196l60 250c14 62 31 120 54 190l-34 11
c-38 -78 -70 -135 -100 -181z" />
    <glyph glyph-name="uni2464.init" 
d="M1315 -20h-383c-427 0 -750 310 -750 720s323 720 750 720h689l-16 -75h-673c-382 0 -670 -277 -670 -645s288 -645 670 -645h399zM961 258c-151 0 -257 79 -273 206l169 33c7 -78 44 -120 105 -120c91 0 150 90 149 220c-1 83 -34 120 -99 120c-55 0 -98 -30 -128 -93
l-145 35l121 469h493l-28 -129h-336l-54 -203c35 24 78 36 131 36c129 0 210 -83 210 -220c0 -211 -125 -354 -315 -354z" />
    <glyph glyph-name="uni2464.medi" horiz-adv-x="882" 
d="M1058 1345h-886l16 75h886zM414 258c-151 0 -257 79 -273 206l169 33c7 -78 44 -120 105 -120c91 0 150 90 149 220c-1 83 -34 120 -99 120c-55 0 -98 -30 -128 -93l-145 35l121 469h493l-28 -129h-336l-54 -203c35 24 78 36 131 36c129 0 210 -83 210 -220
c0 -211 -125 -354 -315 -354zM768 -20h-886l16 75h886z" />
    <glyph glyph-name="uni2464.fina" 
d="M188 1420h383c427 0 750 -310 750 -720s-323 -720 -750 -720h-689l16 75h673c382 0 670 277 670 645s-288 645 -670 645h-399zM414 258c-151 0 -257 79 -273 206l169 33c7 -78 44 -120 105 -120c91 0 150 90 149 220c-1 83 -34 120 -99 120c-55 0 -98 -30 -128 -93
l-145 35l121 469h493l-28 -129h-336l-54 -203c35 24 78 36 131 36c129 0 210 -83 210 -220c0 -211 -125 -354 -315 -354z" />
    <glyph glyph-name="uni2465.init" 
d="M1315 -20h-383c-427 0 -750 310 -750 720s323 720 750 720h689l-16 -75h-673c-382 0 -670 -277 -670 -645s288 -645 670 -645h399zM1095 1142c151 0 244 -80 250 -212l-160 -22c0 74 -35 113 -101 113c-77 0 -127 -65 -156 -204l-14 -64c40 36 95 57 158 57
c129 0 207 -77 206 -205c0 -216 -115 -346 -306 -346c-207 0 -295 136 -246 357l43 194c49 222 145 332 326 332zM1019 702c-92 0 -148 -80 -148 -205c0 -74 38 -117 101 -117c91 0 146 82 145 210c0 72 -38 112 -98 112z" />
    <glyph glyph-name="uni2465.medi" horiz-adv-x="882" 
d="M1058 1345h-886l16 75h886zM548 1142c151 0 244 -80 250 -212l-160 -22c0 74 -35 113 -101 113c-77 0 -127 -65 -156 -204l-14 -64c40 36 95 57 158 57c129 0 207 -77 206 -205c0 -216 -115 -346 -306 -346c-207 0 -295 136 -246 357l43 194c49 222 145 332 326 332z
M472 702c-92 0 -148 -80 -148 -205c0 -74 38 -117 101 -117c91 0 146 82 145 210c0 72 -38 112 -98 112zM768 -20h-886l16 75h886z" />
    <glyph glyph-name="uni2465.fina" 
d="M188 1420h383c427 0 750 -310 750 -720s-323 -720 -750 -720h-689l16 75h673c382 0 670 277 670 645s-288 645 -670 645h-399zM548 1142c151 0 244 -80 250 -212l-160 -22c0 74 -35 113 -101 113c-77 0 -127 -65 -156 -204l-14 -64c40 36 95 57 158 57
c129 0 207 -77 206 -205c0 -216 -115 -346 -306 -346c-207 0 -295 136 -246 357l43 194c49 222 145 332 326 332zM472 702c-92 0 -148 -80 -148 -205c0 -74 38 -117 101 -117c91 0 146 82 145 210c0 72 -38 112 -98 112z" />
    <glyph glyph-name="uni2466.init" 
d="M1315 -20h-383c-427 0 -750 310 -750 720s323 720 750 720h689l-16 -75h-673c-382 0 -670 -277 -670 -645s288 -645 670 -645h399zM969 272h-173c83 342 196 552 358 720h-379l30 135h560l-23 -108c-182 -175 -291 -391 -373 -747z" />
    <glyph glyph-name="uni2466.medi" horiz-adv-x="882" 
d="M1058 1345h-886l16 75h886zM422 272h-173c83 342 196 552 358 720h-379l30 135h560l-23 -108c-182 -175 -291 -391 -373 -747zM768 -20h-886l16 75h886z" />
    <glyph glyph-name="uni2466.fina" 
d="M188 1420h383c427 0 750 -310 750 -720s-323 -720 -750 -720h-689l16 75h673c382 0 670 277 670 645s-288 645 -670 645h-399zM422 272h-173c83 342 196 552 358 720h-379l30 135h560l-23 -108c-182 -175 -291 -391 -373 -747z" />
    <glyph glyph-name="uni2467.init" 
d="M1315 -20h-383c-427 0 -750 310 -750 720s323 720 750 720h689l-16 -75h-673c-382 0 -670 -277 -670 -645s288 -645 670 -645h399zM964 259c-174 0 -275 77 -274 211c0 141 75 233 196 250l2 17c-58 25 -91 78 -91 147c0 163 106 257 288 257c165 0 260 -73 260 -200
c0 -124 -67 -206 -174 -226l-3 -17c68 -22 107 -78 107 -156c0 -180 -113 -283 -311 -283zM1052 769c84 0 131 57 131 157c0 63 -37 99 -101 99c-84 0 -131 -57 -131 -156c0 -64 37 -100 101 -100zM966 375c93 0 146 65 145 177c0 69 -40 108 -109 108
c-93 0 -145 -64 -145 -177c0 -69 40 -108 109 -108z" />
    <glyph glyph-name="uni2467.medi" horiz-adv-x="882" 
d="M1058 1345h-886l16 75h886zM417 259c-174 0 -275 77 -274 211c0 141 75 233 196 250l2 17c-58 25 -91 78 -91 147c0 163 106 257 288 257c165 0 260 -73 260 -200c0 -124 -67 -206 -174 -226l-3 -17c68 -22 107 -78 107 -156c0 -180 -113 -283 -311 -283zM505 769
c84 0 131 57 131 157c0 63 -37 99 -101 99c-84 0 -131 -57 -131 -156c0 -64 37 -100 101 -100zM419 375c93 0 146 65 145 177c0 69 -40 108 -109 108c-93 0 -145 -64 -145 -177c0 -69 40 -108 109 -108zM768 -20h-886l16 75h886z" />
    <glyph glyph-name="uni2467.fina" 
d="M188 1420h383c427 0 750 -310 750 -720s-323 -720 -750 -720h-689l16 75h673c382 0 670 277 670 645s-288 645 -670 645h-399zM417 259c-174 0 -275 77 -274 211c0 141 75 233 196 250l2 17c-58 25 -91 78 -91 147c0 163 106 257 288 257c165 0 260 -73 260 -200
c0 -124 -67 -206 -174 -226l-3 -17c68 -22 107 -78 107 -156c0 -180 -113 -283 -311 -283zM505 769c84 0 131 57 131 157c0 63 -37 99 -101 99c-84 0 -131 -57 -131 -156c0 -64 37 -100 101 -100zM419 375c93 0 146 65 145 177c0 69 -40 108 -109 108
c-93 0 -145 -64 -145 -177c0 -69 40 -108 109 -108z" />
    <glyph glyph-name="uni2468.init" 
d="M1315 -20h-383c-427 0 -750 310 -750 720s323 720 750 720h689l-16 -75h-673c-382 0 -670 -277 -670 -645s288 -645 670 -645h399zM955 259c-151 0 -244 79 -250 211l161 22c-1 -74 34 -113 101 -113c76 0 126 66 156 205l13 63c-40 -36 -95 -57 -158 -57
c-129 0 -207 77 -206 205c0 216 115 347 307 347c207 0 295 -136 246 -358l-43 -194c-49 -222 -146 -331 -327 -331zM1031 698c92 0 148 80 149 205c0 74 -39 117 -102 117c-90 0 -146 -82 -145 -210c0 -72 38 -112 98 -112z" />
    <glyph glyph-name="uni2468.medi" horiz-adv-x="882" 
d="M1058 1345h-886l16 75h886zM408 259c-151 0 -244 79 -250 211l161 22c-1 -74 34 -113 101 -113c76 0 126 66 156 205l13 63c-40 -36 -95 -57 -158 -57c-129 0 -207 77 -206 205c0 216 115 347 307 347c207 0 295 -136 246 -358l-43 -194c-49 -222 -146 -331 -327 -331z
M484 698c92 0 148 80 149 205c0 74 -39 117 -102 117c-90 0 -146 -82 -145 -210c0 -72 38 -112 98 -112zM768 -20h-886l16 75h886z" />
    <glyph glyph-name="uni2468.fina" 
d="M188 1420h383c427 0 750 -310 750 -720s-323 -720 -750 -720h-689l16 75h673c382 0 670 277 670 645s-288 645 -670 645h-399zM408 259c-151 0 -244 79 -250 211l161 22c-1 -74 34 -113 101 -113c76 0 126 66 156 205l13 63c-40 -36 -95 -57 -158 -57
c-129 0 -207 77 -206 205c0 216 115 347 307 347c207 0 295 -136 246 -358l-43 -194c-49 -222 -146 -331 -327 -331zM484 698c92 0 148 80 149 205c0 74 -39 117 -102 117c-90 0 -146 -82 -145 -210c0 -72 38 -112 98 -112z" />
    <glyph glyph-name="uni24EA.init" 
d="M1315 -20h-383c-427 0 -750 310 -750 720s323 720 750 720h689l-16 -75h-673c-382 0 -670 -277 -670 -645s288 -645 670 -645h399zM976 259c-208 0 -302 149 -249 390l39 181c42 210 142 311 309 311c208 0 303 -150 249 -390l-39 -182c-42 -209 -141 -310 -309 -310z
M980 381c74 1 111 64 137 187l50 233c30 135 2 218 -95 217c-75 0 -112 -63 -138 -186l-50 -233c-31 -134 -1 -218 96 -218z" />
    <glyph glyph-name="uni24EA.medi" horiz-adv-x="882" 
d="M1058 1345h-886l16 75h886zM429 259c-208 0 -302 149 -249 390l39 181c42 210 142 311 309 311c208 0 303 -150 249 -390l-39 -182c-42 -209 -141 -310 -309 -310zM433 381c74 1 111 64 137 187l50 233c30 135 2 218 -95 217c-75 0 -112 -63 -138 -186l-50 -233
c-31 -134 -1 -218 96 -218zM768 -20h-886l16 75h886z" />
    <glyph glyph-name="uni24EA.fina" 
d="M188 1420h383c427 0 750 -310 750 -720s-323 -720 -750 -720h-689l16 75h673c382 0 670 277 670 645s-288 645 -670 645h-399zM429 259c-208 0 -302 149 -249 390l39 181c42 210 142 311 309 311c208 0 303 -150 249 -390l-39 -182c-42 -209 -141 -310 -309 -310z
M433 381c74 1 111 64 137 187l50 233c30 135 2 218 -95 217c-75 0 -112 -63 -138 -186l-50 -233c-31 -134 -1 -218 96 -218z" />
    <glyph glyph-name="uni2776.init" 
d="M932 -20h383l306 1440h-689c-427 0 -750 -310 -750 -720s323 -720 750 -720zM1243 283h-564l28 129h222l100 458h-207l23 108c205 7 228 18 271 160h139l-159 -726h175z" />
    <glyph glyph-name="uni2776.medi" horiz-adv-x="882" 
d="M188 1420l-306 -1440h886l306 1440h-886zM696 283h-564l28 129h222l100 458h-207l23 108c205 7 228 18 271 160h139l-159 -726h175z" />
    <glyph glyph-name="uni2776.fina" 
d="M571 1420h-383l-306 -1440h689c427 0 750 310 750 720s-323 720 -750 720zM696 283h-564l28 129h222l100 458h-207l23 108c205 7 228 18 271 160h139l-159 -726h175z" />
    <glyph glyph-name="uni2777.init" 
d="M932 -20h383l306 1440h-689c-427 0 -750 -310 -750 -720s323 -720 750 -720zM1216 274h-513v105c376 295 490 422 489 548c-1 61 -31 95 -93 95c-73 0 -108 -49 -126 -168l-159 24c28 179 126 265 302 265c151 0 238 -73 238 -203c0 -148 -95 -275 -429 -529l3 -12
c33 3 62 4 92 4h224z" />
    <glyph glyph-name="uni2777.medi" horiz-adv-x="882" 
d="M188 1420l-306 -1440h886l306 1440h-886zM669 274h-513v105c376 295 490 422 489 548c-1 61 -31 95 -93 95c-73 0 -108 -49 -126 -168l-159 24c28 179 126 265 302 265c151 0 238 -73 238 -203c0 -148 -95 -275 -429 -529l3 -12c33 3 62 4 92 4h224z" />
    <glyph glyph-name="uni2777.fina" 
d="M571 1420h-383l-306 -1440h689c427 0 750 310 750 720s-323 720 -750 720zM669 274h-513v105c376 295 490 422 489 548c-1 61 -31 95 -93 95c-73 0 -108 -49 -126 -168l-159 24c28 179 126 265 302 265c151 0 238 -73 238 -203c0 -148 -95 -275 -429 -529l3 -12
c33 3 62 4 92 4h224z" />
    <glyph glyph-name="uni2778.init" 
d="M932 -20h383l306 1440h-689c-427 0 -750 -310 -750 -720s323 -720 750 -720zM976 258c-183 0 -276 92 -264 259l164 21c-8 -103 32 -162 107 -162c78 0 124 67 123 177c-1 76 -37 103 -88 107l-59 4l16 101l60 2c87 2 137 66 136 156c-1 64 -38 101 -99 101
c-68 0 -109 -48 -123 -123l-156 25c31 136 126 216 285 216c153 0 254 -80 254 -204c0 -119 -60 -205 -174 -223l-1 -20c70 -21 109 -72 109 -160c0 -167 -115 -277 -290 -277z" />
    <glyph glyph-name="uni2778.medi" horiz-adv-x="882" 
d="M188 1420l-306 -1440h886l306 1440h-886zM429 258c-183 0 -276 92 -264 259l164 21c-8 -103 32 -162 107 -162c78 0 124 67 123 177c-1 76 -37 103 -88 107l-59 4l16 101l60 2c87 2 137 66 136 156c-1 64 -38 101 -99 101c-68 0 -109 -48 -123 -123l-156 25
c31 136 126 216 285 216c153 0 254 -80 254 -204c0 -119 -60 -205 -174 -223l-1 -20c70 -21 109 -72 109 -160c0 -167 -115 -277 -290 -277z" />
    <glyph glyph-name="uni2778.fina" 
d="M571 1420h-383l-306 -1440h689c427 0 750 310 750 720s-323 720 -750 720zM429 258c-183 0 -276 92 -264 259l164 21c-8 -103 32 -162 107 -162c78 0 124 67 123 177c-1 76 -37 103 -88 107l-59 4l16 101l60 2c87 2 137 66 136 156c-1 64 -38 101 -99 101
c-68 0 -109 -48 -123 -123l-156 25c31 136 126 216 285 216c153 0 254 -80 254 -204c0 -119 -60 -205 -174 -223l-1 -20c70 -21 109 -72 109 -160c0 -167 -115 -277 -290 -277z" />
    <glyph glyph-name="uni2779.init" 
d="M932 -20h383l306 1440h-689c-427 0 -750 -310 -750 -720s323 -720 750 -720zM1113 272h-162l37 169h-330l-3 88l397 598h247l-126 -581h81l-23 -105h-81zM991 816l-176 -270h196l60 250c14 62 31 120 54 190l-34 11c-38 -78 -70 -135 -100 -181z" />
    <glyph glyph-name="uni2779.medi" horiz-adv-x="882" 
d="M188 1420l-306 -1440h886l306 1440h-886zM566 272h-162l37 169h-330l-3 88l397 598h247l-126 -581h81l-23 -105h-81zM444 816l-176 -270h196l60 250c14 62 31 120 54 190l-34 11c-38 -78 -70 -135 -100 -181z" />
    <glyph glyph-name="uni2779.fina" 
d="M571 1420h-383l-306 -1440h689c427 0 750 310 750 720s-323 720 -750 720zM566 272h-162l37 169h-330l-3 88l397 598h247l-126 -581h81l-23 -105h-81zM444 816l-176 -270h196l60 250c14 62 31 120 54 190l-34 11c-38 -78 -70 -135 -100 -181z" />
    <glyph glyph-name="uni277A.init" 
d="M932 -20h383l306 1440h-689c-427 0 -750 -310 -750 -720s323 -720 750 -720zM961 258c-151 0 -257 79 -273 206l169 33c7 -78 44 -120 105 -120c91 0 150 90 149 220c-1 83 -34 120 -99 120c-55 0 -98 -30 -128 -93l-145 35l121 469h493l-28 -129h-336l-54 -203
c35 24 78 36 131 36c129 0 210 -83 210 -220c0 -211 -125 -354 -315 -354z" />
    <glyph glyph-name="uni277A.medi" horiz-adv-x="882" 
d="M188 1420l-306 -1440h886l306 1440h-886zM414 258c-151 0 -257 79 -273 206l169 33c7 -78 44 -120 105 -120c91 0 150 90 149 220c-1 83 -34 120 -99 120c-55 0 -98 -30 -128 -93l-145 35l121 469h493l-28 -129h-336l-54 -203c35 24 78 36 131 36c129 0 210 -83 210 -220
c0 -211 -125 -354 -315 -354z" />
    <glyph glyph-name="uni277A.fina" 
d="M571 1420h-383l-306 -1440h689c427 0 750 310 750 720s-323 720 -750 720zM414 258c-151 0 -257 79 -273 206l169 33c7 -78 44 -120 105 -120c91 0 150 90 149 220c-1 83 -34 120 -99 120c-55 0 -98 -30 -128 -93l-145 35l121 469h493l-28 -129h-336l-54 -203
c35 24 78 36 131 36c129 0 210 -83 210 -220c0 -211 -125 -354 -315 -354z" />
    <glyph glyph-name="uni277B.init" 
d="M932 -20h383l306 1440h-689c-427 0 -750 -310 -750 -720s323 -720 750 -720zM1095 1142c151 0 244 -80 250 -212l-160 -22c0 74 -35 113 -101 113c-77 0 -127 -65 -156 -204l-14 -64c40 36 95 57 158 57c129 0 207 -77 206 -205c0 -216 -115 -346 -306 -346
c-207 0 -295 136 -246 357l43 194c49 222 145 332 326 332zM1019 702c-92 0 -148 -80 -148 -205c0 -74 38 -117 101 -117c91 0 146 82 145 210c0 72 -38 112 -98 112z" />
    <glyph glyph-name="uni277B.medi" horiz-adv-x="882" 
d="M188 1420l-306 -1440h886l306 1440h-886zM548 1142c151 0 244 -80 250 -212l-160 -22c0 74 -35 113 -101 113c-77 0 -127 -65 -156 -204l-14 -64c40 36 95 57 158 57c129 0 207 -77 206 -205c0 -216 -115 -346 -306 -346c-207 0 -295 136 -246 357l43 194
c49 222 145 332 326 332zM472 702c-92 0 -148 -80 -148 -205c0 -74 38 -117 101 -117c91 0 146 82 145 210c0 72 -38 112 -98 112z" />
    <glyph glyph-name="uni277B.fina" 
d="M571 1420h-383l-306 -1440h689c427 0 750 310 750 720s-323 720 -750 720zM548 1142c151 0 244 -80 250 -212l-160 -22c0 74 -35 113 -101 113c-77 0 -127 -65 -156 -204l-14 -64c40 36 95 57 158 57c129 0 207 -77 206 -205c0 -216 -115 -346 -306 -346
c-207 0 -295 136 -246 357l43 194c49 222 145 332 326 332zM472 702c-92 0 -148 -80 -148 -205c0 -74 38 -117 101 -117c91 0 146 82 145 210c0 72 -38 112 -98 112z" />
    <glyph glyph-name="uni277C.init" 
d="M932 -20h383l306 1440h-689c-427 0 -750 -310 -750 -720s323 -720 750 -720zM969 272h-173c83 342 196 552 358 720h-379l30 135h560l-23 -108c-182 -175 -291 -391 -373 -747z" />
    <glyph glyph-name="uni277C.medi" horiz-adv-x="882" 
d="M188 1420l-306 -1440h886l306 1440h-886zM422 272h-173c83 342 196 552 358 720h-379l30 135h560l-23 -108c-182 -175 -291 -391 -373 -747z" />
    <glyph glyph-name="uni277C.fina" 
d="M571 1420h-383l-306 -1440h689c427 0 750 310 750 720s-323 720 -750 720zM422 272h-173c83 342 196 552 358 720h-379l30 135h560l-23 -108c-182 -175 -291 -391 -373 -747z" />
    <glyph glyph-name="uni277D.init" 
d="M932 -20h383l306 1440h-689c-427 0 -750 -310 -750 -720s323 -720 750 -720zM964 259c-174 0 -275 77 -274 211c0 141 75 233 196 250l2 17c-58 25 -91 78 -91 147c0 163 106 257 288 257c165 0 260 -73 260 -200c0 -124 -67 -206 -174 -226l-3 -17
c68 -22 107 -78 107 -156c0 -180 -113 -283 -311 -283zM1052 769c84 0 131 57 131 157c0 63 -37 99 -101 99c-84 0 -131 -57 -131 -156c0 -64 37 -100 101 -100zM966 375c93 0 146 65 145 177c0 69 -40 108 -109 108c-93 0 -145 -64 -145 -177c0 -69 40 -108 109 -108z" />
    <glyph glyph-name="uni277D.medi" horiz-adv-x="882" 
d="M188 1420l-306 -1440h886l306 1440h-886zM417 259c-174 0 -275 77 -274 211c0 141 75 233 196 250l2 17c-58 25 -91 78 -91 147c0 163 106 257 288 257c165 0 260 -73 260 -200c0 -124 -67 -206 -174 -226l-3 -17c68 -22 107 -78 107 -156c0 -180 -113 -283 -311 -283z
M505 769c84 0 131 57 131 157c0 63 -37 99 -101 99c-84 0 -131 -57 -131 -156c0 -64 37 -100 101 -100zM419 375c93 0 146 65 145 177c0 69 -40 108 -109 108c-93 0 -145 -64 -145 -177c0 -69 40 -108 109 -108z" />
    <glyph glyph-name="uni277D.fina" 
d="M571 1420h-383l-306 -1440h689c427 0 750 310 750 720s-323 720 -750 720zM417 259c-174 0 -275 77 -274 211c0 141 75 233 196 250l2 17c-58 25 -91 78 -91 147c0 163 106 257 288 257c165 0 260 -73 260 -200c0 -124 -67 -206 -174 -226l-3 -17
c68 -22 107 -78 107 -156c0 -180 -113 -283 -311 -283zM505 769c84 0 131 57 131 157c0 63 -37 99 -101 99c-84 0 -131 -57 -131 -156c0 -64 37 -100 101 -100zM419 375c93 0 146 65 145 177c0 69 -40 108 -109 108c-93 0 -145 -64 -145 -177c0 -69 40 -108 109 -108z" />
    <glyph glyph-name="uni277E.init" 
d="M932 -20h383l306 1440h-689c-427 0 -750 -310 -750 -720s323 -720 750 -720zM955 259c-151 0 -244 79 -250 211l161 22c-1 -74 34 -113 101 -113c76 0 126 66 156 205l13 63c-40 -36 -95 -57 -158 -57c-129 0 -207 77 -206 205c0 216 115 347 307 347
c207 0 295 -136 246 -358l-43 -194c-49 -222 -146 -331 -327 -331zM1031 698c92 0 148 80 149 205c0 74 -39 117 -102 117c-90 0 -146 -82 -145 -210c0 -72 38 -112 98 -112z" />
    <glyph glyph-name="uni277E.medi" horiz-adv-x="882" 
d="M188 1420l-306 -1440h886l306 1440h-886zM408 259c-151 0 -244 79 -250 211l161 22c-1 -74 34 -113 101 -113c76 0 126 66 156 205l13 63c-40 -36 -95 -57 -158 -57c-129 0 -207 77 -206 205c0 216 115 347 307 347c207 0 295 -136 246 -358l-43 -194
c-49 -222 -146 -331 -327 -331zM484 698c92 0 148 80 149 205c0 74 -39 117 -102 117c-90 0 -146 -82 -145 -210c0 -72 38 -112 98 -112z" />
    <glyph glyph-name="uni277E.fina" 
d="M571 1420h-383l-306 -1440h689c427 0 750 310 750 720s-323 720 -750 720zM408 259c-151 0 -244 79 -250 211l161 22c-1 -74 34 -113 101 -113c76 0 126 66 156 205l13 63c-40 -36 -95 -57 -158 -57c-129 0 -207 77 -206 205c0 216 115 347 307 347
c207 0 295 -136 246 -358l-43 -194c-49 -222 -146 -331 -327 -331zM484 698c92 0 148 80 149 205c0 74 -39 117 -102 117c-90 0 -146 -82 -145 -210c0 -72 38 -112 98 -112z" />
    <glyph glyph-name="uni24FF.init" 
d="M932 -20h383l306 1440h-689c-427 0 -750 -310 -750 -720s323 -720 750 -720zM976 259c-208 0 -302 149 -249 390l39 181c42 210 142 311 309 311c208 0 303 -150 249 -390l-39 -182c-42 -209 -141 -310 -309 -310zM980 381c74 1 111 64 137 187l50 233
c30 135 2 218 -95 217c-75 0 -112 -63 -138 -186l-50 -233c-31 -134 -1 -218 96 -218z" />
    <glyph glyph-name="uni24FF.medi" horiz-adv-x="882" 
d="M188 1420l-306 -1440h886l306 1440h-886zM429 259c-208 0 -302 149 -249 390l39 181c42 210 142 311 309 311c208 0 303 -150 249 -390l-39 -182c-42 -209 -141 -310 -309 -310zM433 381c74 1 111 64 137 187l50 233c30 135 2 218 -95 217c-75 0 -112 -63 -138 -186
l-50 -233c-31 -134 -1 -218 96 -218z" />
    <glyph glyph-name="uni24FF.fina" 
d="M571 1420h-383l-306 -1440h689c427 0 750 310 750 720s-323 720 -750 720zM429 259c-208 0 -302 149 -249 390l39 181c42 210 142 311 309 311c208 0 303 -150 249 -390l-39 -182c-42 -209 -141 -310 -309 -310zM433 381c74 1 111 64 137 187l50 233
c30 135 2 218 -95 217c-75 0 -112 -63 -138 -186l-50 -233c-31 -134 -1 -218 96 -218z" />
    <glyph glyph-name="zero.dnom" horiz-adv-x="788" 
d="M323 -14c-208 0 -302 149 -249 390l39 181c42 210 142 311 309 311c208 0 303 -150 249 -390l-39 -182c-42 -209 -141 -310 -309 -310zM327 108c74 1 111 64 137 187l50 233c30 135 2 218 -95 217c-75 0 -112 -63 -138 -186l-50 -233c-31 -134 -1 -218 96 -218z" />
    <glyph glyph-name="one.dnom" horiz-adv-x="788" 
d="M561 0h-564l28 129h222l100 458h-207l23 108c205 7 228 18 271 160h139l-159 -726h175z" />
    <glyph glyph-name="two.dnom" horiz-adv-x="788" 
d="M548 0h-513v105c376 295 490 422 489 548c-1 61 -31 95 -93 95c-73 0 -108 -49 -126 -168l-159 24c28 179 126 265 302 265c151 0 238 -73 238 -203c0 -148 -95 -275 -429 -529l3 -12c33 3 62 4 92 4h224z" />
    <glyph glyph-name="three.dnom" horiz-adv-x="788" 
d="M325 -15c-183 0 -276 92 -264 259l164 21c-8 -103 32 -162 107 -162c78 0 124 67 123 177c-1 76 -37 103 -88 107l-59 4l16 101l60 2c87 2 137 66 136 156c-1 64 -38 101 -99 101c-68 0 -109 -48 -123 -123l-156 25c31 136 126 216 285 216c153 0 254 -80 254 -204
c0 -119 -60 -205 -174 -223l-1 -20c70 -21 109 -72 109 -160c0 -167 -115 -277 -290 -277z" />
    <glyph glyph-name="four.dnom" horiz-adv-x="788" 
d="M491 0h-162l37 169h-330l-3 88l397 598h247l-126 -581h81l-23 -105h-81zM369 544l-176 -270h196l60 250c14 62 31 120 54 190l-34 11c-38 -78 -70 -135 -100 -181z" />
    <glyph glyph-name="five.dnom" horiz-adv-x="788" 
d="M316 -15c-151 0 -257 79 -273 206l169 33c7 -78 44 -120 105 -120c91 0 150 90 149 220c-1 83 -34 120 -99 120c-55 0 -98 -30 -128 -93l-145 35l121 469h493l-28 -129h-336l-54 -203c35 24 78 36 131 36c129 0 210 -83 210 -220c0 -211 -125 -354 -315 -354z" />
    <glyph glyph-name="six.dnom" horiz-adv-x="788" 
d="M443 872c151 0 244 -80 250 -212l-160 -22c0 74 -35 113 -101 113c-77 0 -127 -65 -156 -204l-14 -64c40 36 95 57 158 57c129 0 207 -77 206 -205c0 -216 -115 -346 -306 -346c-207 0 -295 136 -246 357l43 194c49 222 145 332 326 332zM367 432
c-92 0 -148 -80 -148 -205c0 -74 38 -117 101 -117c91 0 146 82 145 210c0 72 -38 112 -98 112z" />
    <glyph glyph-name="seven.dnom" horiz-adv-x="788" 
d="M350 0h-173c83 342 196 552 358 720h-379l30 135h560l-23 -108c-182 -175 -291 -391 -373 -747z" />
    <glyph glyph-name="eight.dnom" horiz-adv-x="788" 
d="M312 -14c-174 0 -275 77 -274 211c0 141 75 233 196 250l2 17c-58 25 -91 78 -91 147c0 163 106 257 288 257c165 0 260 -73 260 -200c0 -124 -67 -206 -174 -226l-3 -17c68 -22 107 -78 107 -156c0 -180 -113 -283 -311 -283zM400 496c84 0 131 57 131 157
c0 63 -37 99 -101 99c-84 0 -131 -57 -131 -156c0 -64 37 -100 101 -100zM314 102c93 0 146 65 145 177c0 69 -40 108 -109 108c-93 0 -145 -64 -145 -177c0 -69 40 -108 109 -108z" />
    <glyph glyph-name="nine.dnom" horiz-adv-x="788" 
d="M303 -14c-151 0 -244 79 -250 211l161 22c-1 -74 34 -113 101 -113c76 0 126 66 156 205l13 63c-40 -36 -95 -57 -158 -57c-129 0 -207 77 -206 205c0 216 115 347 307 347c207 0 295 -136 246 -358l-43 -194c-49 -222 -146 -331 -327 -331zM379 425c92 0 148 80 149 205
c0 74 -39 117 -102 117c-90 0 -146 -82 -145 -210c0 -72 38 -112 98 -112z" />
    <glyph glyph-name="zero.numr" horiz-adv-x="788" 
d="M439 531c-208 0 -302 149 -249 390l39 181c42 210 142 311 309 311c208 0 303 -150 249 -390l-39 -182c-42 -209 -141 -310 -309 -310zM443 653c74 1 111 64 137 187l50 233c30 135 2 218 -95 217c-75 0 -112 -63 -138 -186l-50 -233c-31 -134 -1 -218 96 -218z" />
    <glyph glyph-name="one.numr" horiz-adv-x="788" 
d="M677 545h-564l28 129h222l100 458h-207l23 108c205 7 228 18 271 160h139l-159 -726h175z" />
    <glyph glyph-name="two.numr" horiz-adv-x="788" 
d="M664 545h-513v105c376 295 490 422 489 548c-1 61 -31 95 -93 95c-73 0 -108 -49 -126 -168l-159 24c28 179 126 265 302 265c151 0 238 -73 238 -203c0 -148 -95 -275 -429 -529l3 -12c33 3 62 4 92 4h224z" />
    <glyph glyph-name="three.numr" horiz-adv-x="788" 
d="M441 530c-183 0 -276 92 -264 259l164 21c-8 -103 32 -162 107 -162c78 0 124 67 123 177c-1 76 -37 103 -88 107l-59 4l16 101l60 2c87 2 137 66 136 156c-1 64 -38 101 -99 101c-68 0 -109 -48 -123 -123l-156 25c31 136 126 216 285 216c153 0 254 -80 254 -204
c0 -119 -60 -205 -174 -223l-1 -20c70 -21 109 -72 109 -160c0 -167 -115 -277 -290 -277z" />
    <glyph glyph-name="four.numr" horiz-adv-x="788" 
d="M607 545h-162l37 169h-330l-3 88l397 598h247l-126 -581h81l-23 -105h-81zM485 1089l-176 -270h196l60 250c14 62 31 120 54 190l-34 11c-38 -78 -70 -135 -100 -181z" />
    <glyph glyph-name="five.numr" horiz-adv-x="788" 
d="M432 530c-151 0 -257 79 -273 206l169 33c7 -78 44 -120 105 -120c91 0 150 90 149 220c-1 83 -34 120 -99 120c-55 0 -98 -30 -128 -93l-145 35l121 469h493l-28 -129h-336l-54 -203c35 24 78 36 131 36c129 0 210 -83 210 -220c0 -211 -125 -354 -315 -354z" />
    <glyph glyph-name="six.numr" horiz-adv-x="788" 
d="M559 1417c151 0 244 -80 250 -212l-160 -22c0 74 -35 113 -101 113c-77 0 -127 -65 -156 -204l-14 -64c40 36 95 57 158 57c129 0 207 -77 206 -205c0 -216 -115 -346 -306 -346c-207 0 -295 136 -246 357l43 194c49 222 145 332 326 332zM483 977
c-92 0 -148 -80 -148 -205c0 -74 38 -117 101 -117c91 0 146 82 145 210c0 72 -38 112 -98 112z" />
    <glyph glyph-name="seven.numr" horiz-adv-x="788" 
d="M466 545h-173c83 342 196 552 358 720h-379l30 135h560l-23 -108c-182 -175 -291 -391 -373 -747z" />
    <glyph glyph-name="eight.numr" horiz-adv-x="788" 
d="M428 531c-174 0 -275 77 -274 211c0 141 75 233 196 250l2 17c-58 25 -91 78 -91 147c0 163 106 257 288 257c165 0 260 -73 260 -200c0 -124 -67 -206 -174 -226l-3 -17c68 -22 107 -78 107 -156c0 -180 -113 -283 -311 -283zM516 1041c84 0 131 57 131 157
c0 63 -37 99 -101 99c-84 0 -131 -57 -131 -156c0 -64 37 -100 101 -100zM430 647c93 0 146 65 145 177c0 69 -40 108 -109 108c-93 0 -145 -64 -145 -177c0 -69 40 -108 109 -108z" />
    <glyph glyph-name="nine.numr" horiz-adv-x="788" 
d="M419 531c-151 0 -244 79 -250 211l161 22c-1 -74 34 -113 101 -113c76 0 126 66 156 205l13 63c-40 -36 -95 -57 -158 -57c-129 0 -207 77 -206 205c0 216 115 347 307 347c207 0 295 -136 246 -358l-43 -194c-49 -222 -146 -331 -327 -331zM495 970c92 0 148 80 149 205
c0 74 -39 117 -102 117c-90 0 -146 -82 -145 -210c0 -72 38 -112 98 -112z" />
    <glyph glyph-name="fraction" unicode="&#x2044;" horiz-adv-x="491" 
d="M-120 0h-176l983 1400h176z" />
    <glyph glyph-name="onehalf" unicode="&#xbd;" horiz-adv-x="2089" 
d="M677 545h-564l28 129h222l100 458h-207l23 108c205 7 228 18 271 160h139l-159 -726h175zM690 0h-176l983 1400h176zM1849 0h-513v105c376 295 490 422 489 548c-1 61 -31 95 -93 95c-73 0 -108 -49 -126 -168l-159 24c28 179 126 265 302 265c151 0 238 -73 238 -203
c0 -148 -95 -275 -429 -529l3 -12c33 3 62 4 92 4h224z" />
    <glyph glyph-name="uni2153" unicode="&#x2153;" horiz-adv-x="2089" 
d="M677 545h-564l28 129h222l100 458h-207l23 108c205 7 228 18 271 160h139l-159 -726h175zM690 0h-176l983 1400h176zM1626 -15c-183 0 -276 92 -264 259l164 21c-8 -103 32 -162 107 -162c78 0 124 67 123 177c-1 76 -37 103 -88 107l-59 4l16 101l60 2
c87 2 137 66 136 156c-1 64 -38 101 -99 101c-68 0 -109 -48 -123 -123l-156 25c31 136 126 216 285 216c153 0 254 -80 254 -204c0 -119 -60 -205 -174 -223l-1 -20c70 -21 109 -72 109 -160c0 -167 -115 -277 -290 -277z" />
    <glyph glyph-name="onequarter" unicode="&#xbc;" horiz-adv-x="2039" 
d="M677 545h-564l28 129h222l100 458h-207l23 108c205 7 228 18 271 160h139l-159 -726h175zM690 0h-176l983 1400h176zM1742 0h-162l37 169h-330l-3 88l397 598h247l-126 -581h81l-23 -105h-81zM1620 544l-176 -270h196l60 250c14 62 31 120 54 190l-34 11
c-38 -78 -70 -135 -100 -181z" />
    <glyph glyph-name="oneeighth" unicode="&#x215b;" horiz-adv-x="2089" 
d="M677 545h-564l28 129h222l100 458h-207l23 108c205 7 228 18 271 160h139l-159 -726h175zM690 0h-176l983 1400h176zM1613 -14c-174 0 -275 77 -274 211c0 141 75 233 196 250l2 17c-58 25 -91 78 -91 147c0 163 106 257 288 257c165 0 260 -73 260 -200
c0 -124 -67 -206 -174 -226l-3 -17c68 -22 107 -78 107 -156c0 -180 -113 -283 -311 -283zM1701 496c84 0 131 57 131 157c0 63 -37 99 -101 99c-84 0 -131 -57 -131 -156c0 -64 37 -100 101 -100zM1615 102c93 0 146 65 145 177c0 69 -40 108 -109 108
c-93 0 -145 -64 -145 -177c0 -69 40 -108 109 -108z" />
    <glyph glyph-name="uni2154" unicode="&#x2154;" horiz-adv-x="2077" 
d="M664 545h-513v105c376 295 490 422 489 548c-1 61 -31 95 -93 95c-73 0 -108 -49 -126 -168l-159 24c28 179 126 265 302 265c151 0 238 -73 238 -203c0 -148 -95 -275 -429 -529l3 -12c33 3 62 4 92 4h224zM678 0h-176l983 1400h176zM1614 -15c-183 0 -276 92 -264 259
l164 21c-8 -103 32 -162 107 -162c78 0 124 67 123 177c-1 76 -37 103 -88 107l-59 4l16 101l60 2c87 2 137 66 136 156c-1 64 -38 101 -99 101c-68 0 -109 -48 -123 -123l-156 25c31 136 126 216 285 216c153 0 254 -80 254 -204c0 -119 -60 -205 -174 -223l-1 -20
c70 -21 109 -72 109 -160c0 -167 -115 -277 -290 -277z" />
    <glyph glyph-name="threequarters" unicode="&#xbe;" horiz-adv-x="2017" 
d="M441 530c-183 0 -276 92 -264 259l164 21c-8 -103 32 -162 107 -162c78 0 124 67 123 177c-1 76 -37 103 -88 107l-59 4l16 101l60 2c87 2 137 66 136 156c-1 64 -38 101 -99 101c-68 0 -109 -48 -123 -123l-156 25c31 136 126 216 285 216c153 0 254 -80 254 -204
c0 -119 -60 -205 -174 -223l-1 -20c70 -21 109 -72 109 -160c0 -167 -115 -277 -290 -277zM668 0h-176l983 1400h176zM1720 0h-162l37 169h-330l-3 88l397 598h247l-126 -581h81l-23 -105h-81zM1598 544l-176 -270h196l60 250c14 62 31 120 54 190l-34 11
c-38 -78 -70 -135 -100 -181z" />
    <glyph glyph-name="threeeighths" unicode="&#x215c;" horiz-adv-x="2067" 
d="M441 530c-183 0 -276 92 -264 259l164 21c-8 -103 32 -162 107 -162c78 0 124 67 123 177c-1 76 -37 103 -88 107l-59 4l16 101l60 2c87 2 137 66 136 156c-1 64 -38 101 -99 101c-68 0 -109 -48 -123 -123l-156 25c31 136 126 216 285 216c153 0 254 -80 254 -204
c0 -119 -60 -205 -174 -223l-1 -20c70 -21 109 -72 109 -160c0 -167 -115 -277 -290 -277zM668 0h-176l983 1400h176zM1591 -14c-174 0 -275 77 -274 211c0 141 75 233 196 250l2 17c-58 25 -91 78 -91 147c0 163 106 257 288 257c165 0 260 -73 260 -200
c0 -124 -67 -206 -174 -226l-3 -17c68 -22 107 -78 107 -156c0 -180 -113 -283 -311 -283zM1679 496c84 0 131 57 131 157c0 63 -37 99 -101 99c-84 0 -131 -57 -131 -156c0 -64 37 -100 101 -100zM1593 102c93 0 146 65 145 177c0 69 -40 108 -109 108
c-93 0 -145 -64 -145 -177c0 -69 40 -108 109 -108z" />
    <glyph glyph-name="fiveeighths" unicode="&#x215d;" horiz-adv-x="2067" 
d="M432 530c-151 0 -257 79 -273 206l169 33c7 -78 44 -120 105 -120c91 0 150 90 149 220c-1 83 -34 120 -99 120c-55 0 -98 -30 -128 -93l-145 35l121 469h493l-28 -129h-336l-54 -203c35 24 78 36 131 36c129 0 210 -83 210 -220c0 -211 -125 -354 -315 -354zM668 0h-176
l983 1400h176zM1591 -14c-174 0 -275 77 -274 211c0 141 75 233 196 250l2 17c-58 25 -91 78 -91 147c0 163 106 257 288 257c165 0 260 -73 260 -200c0 -124 -67 -206 -174 -226l-3 -17c68 -22 107 -78 107 -156c0 -180 -113 -283 -311 -283zM1679 496c84 0 131 57 131 157
c0 63 -37 99 -101 99c-84 0 -131 -57 -131 -156c0 -64 37 -100 101 -100zM1593 102c93 0 146 65 145 177c0 69 -40 108 -109 108c-93 0 -145 -64 -145 -177c0 -69 40 -108 109 -108z" />
    <glyph glyph-name="seveneighths" unicode="&#x215e;" horiz-adv-x="2003" 
d="M466 545h-173c83 342 196 552 358 720h-379l30 135h560l-23 -108c-182 -175 -291 -391 -373 -747zM604 0h-176l983 1400h176zM1527 -14c-174 0 -275 77 -274 211c0 141 75 233 196 250l2 17c-58 25 -91 78 -91 147c0 163 106 257 288 257c165 0 260 -73 260 -200
c0 -124 -67 -206 -174 -226l-3 -17c68 -22 107 -78 107 -156c0 -180 -113 -283 -311 -283zM1615 496c84 0 131 57 131 157c0 63 -37 99 -101 99c-84 0 -131 -57 -131 -156c0 -64 37 -100 101 -100zM1529 102c93 0 146 65 145 177c0 69 -40 108 -109 108
c-93 0 -145 -64 -145 -177c0 -69 40 -108 109 -108z" />
    <glyph glyph-name="uni2003" unicode="&#x2003;" horiz-adv-x="2168" 
 />
    <glyph glyph-name="uni2002" unicode="&#x2002;" horiz-adv-x="1084" 
 />
    <glyph glyph-name="uni2004" unicode="&#x2004;" horiz-adv-x="723" 
 />
    <glyph glyph-name="uni2005" unicode="&#x2005;" horiz-adv-x="542" 
 />
    <glyph glyph-name="uni2006" unicode="&#x2006;" horiz-adv-x="361" 
 />
    <glyph glyph-name="uni2009" unicode="&#x2009;" horiz-adv-x="271" 
 />
    <glyph glyph-name="uni200A" unicode="&#x200a;" horiz-adv-x="181" 
 />
    <glyph glyph-name="uni2008" unicode="&#x2008;" horiz-adv-x="509" 
 />
    <glyph glyph-name="uni2007" unicode="&#x2007;" horiz-adv-x="1095" 
 />
    <glyph glyph-name="uni2008.tf" horiz-adv-x="548" 
 />
    <glyph glyph-name="period" unicode="." horiz-adv-x="509" 
d="M15 0l50 230h250l-50 -230h-250z" />
    <glyph glyph-name="comma" unicode="," horiz-adv-x="507" 
d="M-40 -312l-15 95c111 21 163 67 193 217h-123l48 230h250l-40 -191c-53 -243 -144 -325 -313 -351z" />
    <glyph glyph-name="colon" unicode=":" horiz-adv-x="514" 
d="M194 820l50 230h250l-50 -230h-250zM15 0l50 230h250l-50 -230h-250z" />
    <glyph glyph-name="semicolon" unicode=";" horiz-adv-x="510" 
d="M191 820l50 230h250l-50 -230h-250zM-40 -312l-15 95c111 21 163 67 193 217h-123l48 230h250l-40 -191c-53 -243 -144 -325 -313 -351z" />
    <glyph glyph-name="ellipsis" unicode="&#x2026;" horiz-adv-x="1273" 
d="M250 0h-235l50 230h235zM639 0h-235l50 230h235zM1028 0h-235l50 230h236z" />
    <glyph glyph-name="exclam" unicode="!" horiz-adv-x="509" 
d="M315 415h-170l185 985h226zM15 0l50 230h250l-50 -230h-250z" />
    <glyph glyph-name="exclamdown" unicode="&#xa1;" horiz-adv-x="509" 
d="M490 1050l-50 -230h-250l50 230h250zM190 635h170l-185 -985h-226z" />
    <glyph glyph-name="question" unicode="?" horiz-adv-x="923" 
d="M511 412h-195c-45 125 37 233 147 337l111 103c111 103 174 182 174 277c0 80 -45 126 -130 126c-119 0 -174 -75 -195 -251l-200 35c34 241 155 382 402 382c204 0 321 -105 321 -272c0 -156 -112 -282 -225 -387l-113 -105c-114 -105 -159 -157 -90 -217zM223 0l50 230
h250l-50 -230h-250z" />
    <glyph glyph-name="questiondown" unicode="&#xbf;" horiz-adv-x="923" 
d="M710 1050l-50 -230h-250l50 230h250zM422 638h194c46 -125 -36 -233 -146 -337l-112 -103c-110 -103 -173 -182 -173 -277c0 -80 44 -126 129 -126c120 0 174 75 196 251l199 -35c-34 -241 -155 -382 -401 -382c-205 0 -321 105 -321 272c0 156 112 282 225 387l113 105
c114 105 159 157 90 217z" />
    <glyph glyph-name="periodcentered" unicode="&#xb7;" horiz-adv-x="510" 
d="M116 474l50 229h250l-50 -229h-250z" />
    <glyph glyph-name="bullet" unicode="&#x2022;" horiz-adv-x="791" 
d="M509 445h-272l59 271h273z" />
    <glyph glyph-name="asterisk" unicode="*" horiz-adv-x="875" 
d="M532 968l-180 -197l-106 118l214 159l-242 110l79 137l217 -155l30 265l156 -34l-81 -254l261 54l16 -158l-266 -2l131 -231l-145 -65z" />
    <glyph glyph-name="numbersign" unicode="#" horiz-adv-x="1201" 
d="M1220 1024l-14 -136h-214l-91 -373h202l-14 -135h-220l-93 -380h-153l93 380h-312l-93 -380h-152l93 380h-196l14 136h215l90 372h-201l13 136h221l92 376h152l-92 -376h312l92 376h153l-92 -376h195zM437 516l312 -1l90 373h-312z" />
    <glyph glyph-name="slash" unicode="/" horiz-adv-x="682" 
d="M95 -200h-199l734 1650h199z" />
    <glyph glyph-name="backslash" unicode="\" horiz-adv-x="855" 
d="M429 1450l222 -1650h-182l-222 1650h182z" />
    <glyph glyph-name="parenleft" unicode="(" horiz-adv-x="637" 
d="M433 -200h-184c-79 153 -123 337 -123 548c0 407 171 849 434 1102h206c-283 -276 -452 -703 -452 -1123c0 -206 42 -384 119 -527z" />
    <glyph glyph-name="parenright" unicode=")" horiz-adv-x="637" 
d="M247 1450h184c79 -153 123 -337 123 -548c0 -407 -171 -849 -433 -1102h-207c283 276 452 703 452 1123c0 206 -41 384 -119 527z" />
    <glyph glyph-name="braceleft" unicode="{" horiz-adv-x="624" 
d="M383 -200h-119c-161 0 -227 86 -192 244l78 355c20 87 -7 142 -81 166l36 165c80 7 129 53 147 139l75 346c34 160 122 235 280 235h136l-36 -166h-60c-71 0 -112 -33 -128 -106l-76 -349c-22 -103 -75 -166 -164 -181l-6 -36c75 -29 100 -97 78 -201l-73 -339
c-15 -70 12 -106 81 -106h60z" />
    <glyph glyph-name="braceright" unicode="}" horiz-adv-x="625" 
d="M284 1450h120c160 0 226 -86 191 -244l-78 -355c-19 -87 8 -142 82 -166l-37 -165c-80 -7 -128 -53 -147 -139l-75 -346c-34 -160 -122 -235 -280 -235h-136l36 166h60c71 0 112 33 128 106l76 349c22 103 75 166 164 181l6 36c-75 29 -100 97 -77 201l72 339
c15 70 -12 106 -81 106h-60z" />
    <glyph glyph-name="bracketleft" unicode="[" horiz-adv-x="645" 
d="M404 -200h-386l360 1650h386l-36 -166h-184l-289 -1318h184z" />
    <glyph glyph-name="bracketright" unicode="]" horiz-adv-x="645" 
d="M284 1450h386l-360 -1650h-386l36 166h185l288 1318h-184z" />
    <glyph glyph-name="hyphen" unicode="-" horiz-adv-x="741" 
d="M611 505h-491l36 166h492z" />
    <glyph glyph-name="endash" unicode="&#x2013;" horiz-adv-x="1036" 
d="M909 513h-787l32 150h787z" />
    <glyph glyph-name="emdash" unicode="&#x2014;" horiz-adv-x="1434" 
d="M1306 513h-1184l32 150h1184z" />
    <glyph glyph-name="underscore" unicode="_" horiz-adv-x="499" 
d="M342 -214h-499l30 142h499z" />
    <glyph glyph-name="quotesinglbase" unicode="&#x201a;" horiz-adv-x="507" 
d="M-40 -312l-15 95c111 21 163 67 193 217h-123l48 230h250l-40 -191c-53 -243 -144 -325 -313 -351z" />
    <glyph glyph-name="quotedblbase" unicode="&#x201e;" horiz-adv-x="871" 
d="M-40 -312l-15 95c111 21 163 67 193 217h-123l48 230h250l-40 -191c-53 -243 -144 -325 -313 -351zM324 -312l-16 95c112 21 163 67 193 217h-123l49 230h250l-41 -191c-52 -243 -143 -325 -312 -351z" />
    <glyph glyph-name="quotedblleft" unicode="&#x201c;" horiz-adv-x="870" 
d="M559 1422l16 -96c-112 -21 -163 -66 -193 -217h123l-49 -229h-250l41 190c52 244 143 325 312 352zM923 1422l15 -96c-111 -21 -163 -66 -193 -217h123l-48 -229h-250l40 190c53 244 144 325 313 352z" />
    <glyph glyph-name="quotedblright" unicode="&#x201d;" horiz-adv-x="870" 
d="M209 858l-16 95c112 22 163 67 193 217h-122l48 230h250l-41 -191c-52 -243 -143 -324 -312 -351zM572 858l-16 95c112 22 164 67 194 217h-123l48 230h250l-40 -191c-53 -243 -144 -324 -313 -351z" />
    <glyph glyph-name="quoteleft" unicode="&#x2018;" horiz-adv-x="507" 
d="M564 1440l15 -95c-111 -22 -163 -67 -193 -217h123l-48 -230h-250l40 191c53 243 144 324 313 351z" />
    <glyph glyph-name="quoteright" unicode="&#x2019;" horiz-adv-x="507" 
d="M209 858l-16 95c112 22 163 67 193 217h-122l48 230h250l-41 -191c-52 -243 -143 -324 -312 -351z" />
    <glyph glyph-name="guillemotleft" unicode="&#xab;" horiz-adv-x="1002" 
d="M452 100h-166l-169 463l306 387h180l-306 -401zM797 100h-166l-151 439l319 411h184l-323 -426z" />
    <glyph glyph-name="guillemotright" unicode="&#xbb;" horiz-adv-x="1002" 
d="M205 950h166l151 -439l-318 -411h-185l323 426zM550 950h166l170 -463l-307 -387h-180l306 401z" />
    <glyph glyph-name="guilsinglleft" unicode="&#x2039;" horiz-adv-x="644" 
d="M439 100h-167l-157 455l320 395h190l-330 -417z" />
    <glyph glyph-name="guilsinglright" unicode="&#x203a;" horiz-adv-x="644" 
d="M205 950h167l157 -455l-319 -395h-191l330 417z" />
    <glyph glyph-name="quotedbl" unicode="&#x22;" horiz-adv-x="752" 
d="M357 888h-120l76 512h191zM660 888h-120l76 512h191z" />
    <glyph glyph-name="quotesingle" unicode="'" horiz-adv-x="449" 
d="M357 888h-120l76 512h191z" />
    <glyph glyph-name="colon.case" horiz-adv-x="514" 
d="M232 995l50 230h250l-50 -230h-250zM53 175l50 230h250l-50 -230h-250z" />
    <glyph glyph-name="semicolon.case" horiz-adv-x="510" 
d="M228 995l50 230h250l-50 -230h-250zM-3 -137l-15 95c111 21 163 67 193 217h-123l48 230h250l-40 -191c-53 -243 -144 -325 -313 -351z" />
    <glyph glyph-name="bullet.case" horiz-adv-x="791" 
d="M544 611h-272l59 271h273z" />
    <glyph glyph-name="parenleft.case" horiz-adv-x="634" 
d="M448 -50h-184c-82 151 -123 309 -123 500c0 367 167 759 433 1000h207c-287 -263 -452 -642 -452 -1019c0 -186 39 -339 119 -481z" />
    <glyph glyph-name="parenright.case" horiz-adv-x="635" 
d="M261 1450h184c81 -151 122 -309 122 -500c0 -367 -166 -759 -432 -1000h-207c286 263 452 642 452 1019c0 186 -39 339 -119 481z" />
    <glyph glyph-name="braceleft.case" horiz-adv-x="626" 
d="M416 -50h-119c-159 0 -228 81 -193 239l60 278c20 88 -8 144 -81 166l36 165c80 9 128 54 147 139l62 278c36 160 122 235 280 235h136l-36 -166h-59c-72 0 -113 -33 -129 -106l-62 -281c-23 -102 -77 -165 -165 -180l-7 -36c76 -30 100 -97 80 -195l-55 -264
c-15 -71 11 -106 81 -106h60z" />
    <glyph glyph-name="braceright.case" horiz-adv-x="627" 
d="M284 1450h120c158 0 228 -81 193 -239l-61 -278c-19 -88 9 -144 82 -166l-36 -165c-81 -9 -129 -54 -147 -139l-63 -278c-35 -160 -121 -235 -280 -235h-136l36 166h60c72 0 113 33 129 106l62 281c23 102 76 165 165 180l6 36c-76 30 -100 97 -80 195l55 264
c15 71 -11 106 -81 106h-60z" />
    <glyph glyph-name="bracketleft.case" horiz-adv-x="645" 
d="M436 -50h-386l328 1500h386l-37 -166h-185l-256 -1168h186z" />
    <glyph glyph-name="bracketright.case" horiz-adv-x="645" 
d="M284 1450h386l-328 -1500h-386l36 166h186l256 1168h-186z" />
    <glyph glyph-name="hyphen.case" horiz-adv-x="741" 
d="M636 620h-491l35 166h493z" />
    <glyph glyph-name="endash.case" horiz-adv-x="1036" 
d="M933 627h-787l32 150h787z" />
    <glyph glyph-name="emdash.case" horiz-adv-x="1433" 
d="M1330 627h-1184l32 150h1184z" />
    <glyph glyph-name="guillemotleft.case" horiz-adv-x="1002" 
d="M490 275h-166l-170 463l307 387h180l-306 -401zM835 275h-166l-151 439l318 411h185l-323 -426z" />
    <glyph glyph-name="guillemotright.case" horiz-adv-x="1002" 
d="M242 1125h166l151 -439l-318 -411h-185l323 426zM587 1125h166l170 -463l-307 -387h-180l306 401z" />
    <glyph glyph-name="guilsinglleft.case" horiz-adv-x="643" 
d="M476 275h-167l-157 455l320 395h190l-330 -417z" />
    <glyph glyph-name="guilsinglright.case" horiz-adv-x="644" 
d="M242 1125h167l157 -455l-319 -395h-191l330 417z" />
    <glyph glyph-name="exclamdown.case" horiz-adv-x="509" 
d="M564 1400l-50 -230h-250l50 230h250zM264 985h170l-185 -985h-226z" />
    <glyph glyph-name="questiondown.case" horiz-adv-x="922" 
d="M784 1400l-50 -230h-250l50 230h250zM496 988h194c46 -125 -36 -233 -146 -337l-112 -103c-110 -103 -173 -182 -173 -277c0 -80 44 -126 129 -126c120 0 174 75 196 251l199 -35c-34 -241 -155 -382 -401 -382c-205 0 -321 105 -321 272c0 156 112 282 225 387l113 105
c114 105 159 157 90 217z" />
    <glyph glyph-name="period.tf" horiz-adv-x="548" 
d="M30 0l50 230h250l-50 -230h-250z" />
    <glyph glyph-name="comma.tf" horiz-adv-x="548" 
d="M-24 -312l-16 95c112 21 163 67 193 217h-123l49 230h250l-41 -191c-52 -243 -143 -325 -312 -351z" />
    <glyph glyph-name="colon.case.tf" horiz-adv-x="548" 
d="M244 995l50 230h250l-50 -230h-250zM65 175l50 230h250l-50 -230h-250z" />
    <glyph glyph-name="semicolon.case.tf" horiz-adv-x="548" 
d="M242 996l50 229h250l-50 -229h-250zM11 -137l-16 95c112 22 164 67 194 217h-123l48 230h250l-40 -191c-53 -243 -144 -324 -313 -351z" />
    <glyph glyph-name="dollar" unicode="$" horiz-adv-x="1111" 
d="M1050 982l-189 -30c37 214 -25 315 -185 315c-111 0 -189 -59 -194 -167c-4 -85 36 -154 158 -270l112 -106c116 -109 192 -214 184 -388c-10 -211 -154 -343 -386 -356l-42 -195h-194l47 212c-193 51 -290 209 -246 463l198 33c-49 -250 36 -360 210 -360
c122 0 206 68 213 188c5 92 -29 158 -146 273l-115 111c-122 120 -195 212 -190 374c8 212 154 336 380 342l45 204h193l-51 -230c161 -56 234 -201 198 -413z" />
    <glyph glyph-name="cent" unicode="&#xa2;" horiz-adv-x="945" 
d="M897 877l-199 -16c39 166 -16 246 -118 246c-105 0 -160 -89 -200 -265l-58 -256c-43 -187 9 -290 124 -290c96 0 154 71 195 247l188 -54c-54 -210 -172 -317 -344 -332l-42 -196h-193l48 219c-153 62 -216 231 -162 471l42 189c54 241 166 382 352 405l44 202h193
l-48 -220c135 -46 211 -169 178 -350z" />
    <glyph glyph-name="Euro" unicode="&#x20ac;" horiz-adv-x="1177" 
d="M1117 899l-200 -23c54 272 -20 386 -172 386c-149 0 -227 -121 -286 -372h343l-52 -120h-319l-32 -140h294l-53 -120h-267c-47 -249 37 -371 192 -371c132 0 216 102 281 386l188 -63c-77 -337 -238 -483 -478 -483c-274 0 -423 193 -380 531h-102l26 120h98l31 140h-101
l26 120h102c80 343 224 531 496 531c259 0 430 -176 365 -522z" />
    <glyph glyph-name="sterling" unicode="&#xa3;" horiz-adv-x="1107" 
d="M1099 1087l-190 -43c5 141 -56 211 -165 211c-111 0 -162 -59 -192 -200l-68 -317h394l-31 -154h-396l-20 -96c-33 -157 -73 -238 -160 -297l9 -27c52 2 95 2 149 2h498l-34 -166h-876l6 122c115 71 166 167 206 354l24 108h-153l30 154h156l71 326
c52 242 173 357 396 357c219 0 361 -136 346 -334z" />
    <glyph glyph-name="yen" unicode="&#xa5;" horiz-adv-x="1051" 
d="M929 1400h221l-485 -794h225l-28 -131h-251l-28 -131h251l-28 -131h-251l-46 -213h-206l47 213h-252l28 131h254l29 131h-255l28 131h241l-150 794h206l61 -382c10 -77 16 -151 12 -249l34 -3c39 100 77 174 120 252z" />
    <glyph glyph-name="uni20BD" unicode="&#x20bd;" horiz-adv-x="1064" 
d="M542 538h-159l-39 -179h353l-36 -166h-354l-42 -193h-205l42 193h-148l35 166h149l39 179h-151l36 166h151l152 696h329c242 0 367 -108 367 -330c0 -264 -146 -532 -519 -532zM655 1234h-119l-118 -529h137c207 0 305 155 305 343c0 123 -71 186 -205 186z" />
    <glyph glyph-name="uni20B4" unicode="&#x20b4;" horiz-adv-x="1356" 
d="M1048 918h262l-32 -153h-1097l32 153h654c93 73 137 142 137 222c0 79 -68 127 -176 127c-127 0 -217 -76 -236 -200l-179 36c37 196 202 318 430 318c221 0 360 -100 360 -261c0 -87 -53 -172 -155 -242zM367 501h-242l32 154h1097l-32 -154h-676
c-96 -74 -140 -147 -140 -232s69 -136 193 -136c148 0 253 86 274 228l188 -40c-40 -211 -221 -342 -472 -342c-245 0 -391 100 -391 259c0 100 58 195 169 263z" />
    <glyph glyph-name="uni20B8" unicode="&#x20b8;" horiz-adv-x="991" 
d="M1055 1234h-817l36 166h816zM487 0h-207l199 934h-305l35 166h817l-35 -166h-305z" />
    <glyph glyph-name="currency" unicode="&#xa4;" horiz-adv-x="1272" 
d="M438 406l-186 -151l-102 126l187 150c-29 49 -44 108 -44 171c0 94 31 176 83 237l-148 182l125 102l150 -185c47 25 103 39 164 39c95 0 177 -31 238 -86l189 154l101 -126l-191 -154c24 -48 38 -102 38 -163c0 -91 -30 -170 -80 -231l156 -192l-126 -102l-156 193
c-48 -26 -105 -41 -169 -41c-90 0 -169 28 -229 77zM667 487c126 0 216 91 216 215c0 126 -90 217 -216 217c-125 0 -216 -91 -216 -217c0 -124 91 -215 216 -215z" />
    <glyph glyph-name="ampersand" unicode="&#x26;" horiz-adv-x="1157" 
d="M829 194c29 -48 66 -70 115 -70c22 0 49 4 75 12l-39 -139c-29 -12 -60 -17 -94 -17c-78 0 -139 33 -186 98c-88 -61 -189 -98 -301 -98c-215 0 -335 104 -335 287c0 182 102 328 355 478c-61 145 -83 233 -79 331c8 222 138 344 378 344c201 0 316 -99 316 -267
s-100 -286 -405 -453l134 -339c52 80 92 172 114 260l164 -59c-47 -131 -118 -263 -212 -368zM521 1071c-2 -73 10 -138 54 -241c215 120 279 201 279 302c0 90 -51 137 -149 137c-116 0 -179 -71 -184 -198zM253 300c0 -104 59 -169 169 -169c77 0 148 31 211 82l-159 397
c-156 -105 -221 -202 -221 -310z" />
    <glyph glyph-name="at" unicode="@" horiz-adv-x="1890" 
d="M834 -410c-428 0 -710 289 -710 745c0 649 376 1110 920 1110c439 0 728 -283 728 -730c0 -427 -195 -736 -480 -736c-153 0 -234 95 -202 245l-34 7c-77 -172 -168 -252 -313 -252c-139 0 -218 91 -218 217c0 216 167 338 399 400l184 50l22 114
c22 112 -20 170 -108 170c-104 0 -160 -69 -171 -190l-189 40c18 169 140 291 367 291c220 0 337 -121 292 -339l-96 -467c-19 -92 14 -143 85 -143c173 0 292 248 291 586c0 366 -223 596 -561 596c-440 0 -747 -402 -747 -961c0 -374 218 -611 549 -611
c143 0 277 28 392 79l31 -133c-120 -57 -267 -88 -431 -88zM826 123c96 0 190 109 226 269l26 117l-126 -37c-139 -41 -221 -123 -221 -239c0 -69 33 -110 95 -110z" />
    <glyph glyph-name="at.case" horiz-adv-x="1890" 
d="M873 -228c-428 0 -711 289 -711 745c0 649 376 1110 920 1110c440 0 729 -283 729 -731c0 -426 -196 -735 -481 -735c-152 0 -233 95 -201 245l-34 7c-78 -172 -169 -252 -313 -252c-140 0 -219 90 -219 217c0 216 168 337 400 399l183 50l23 115
c22 112 -20 170 -109 170c-104 0 -160 -70 -170 -190l-190 39c19 169 141 291 367 291c221 0 338 -120 293 -338l-97 -468c-19 -91 14 -143 86 -143c173 0 292 248 291 586c-1 366 -223 596 -562 596c-440 0 -746 -402 -746 -960c0 -375 218 -611 548 -611
c144 0 278 28 393 79l31 -133c-121 -58 -267 -88 -431 -88zM865 305c95 0 190 109 226 268l26 118l-126 -37c-140 -42 -222 -123 -222 -240c0 -69 34 -109 96 -109z" />
    <glyph glyph-name="copyright" unicode="&#xa9;" horiz-adv-x="1937" 
d="M900 -410c-462 0 -767 312 -767 784c0 655 358 1087 901 1087c465 0 771 -309 771 -777c0 -660 -359 -1094 -905 -1094zM904 -268c439 0 728 375 728 944c0 388 -240 644 -603 644c-437 0 -724 -374 -724 -940c0 -390 238 -648 599 -648zM892 -21
c-254 0 -374 191 -306 496l42 189c60 264 188 407 407 407c215 0 355 -136 313 -370l-199 -16c38 166 -17 246 -118 246c-106 0 -160 -90 -200 -265l-59 -256c-43 -187 10 -291 125 -291c95 0 153 72 194 248l188 -54c-57 -227 -191 -334 -387 -334z" />
    <glyph glyph-name="copyright.case" horiz-adv-x="1938" 
d="M937 -235c-462 0 -766 311 -766 784c0 655 358 1087 901 1087c465 0 771 -309 771 -778c0 -659 -359 -1093 -906 -1093zM942 -94c438 0 727 376 727 944c0 388 -239 645 -602 645c-437 0 -725 -374 -724 -940c0 -391 238 -649 599 -649zM930 153
c-254 0 -375 192 -306 496l42 189c59 264 188 408 407 408c215 0 355 -137 312 -370l-199 -17c39 166 -16 246 -118 246c-105 0 -160 -89 -200 -265l-58 -256c-43 -186 9 -290 124 -290c96 0 154 72 195 247l188 -54c-58 -226 -192 -334 -387 -334z" />
    <glyph glyph-name="registered" unicode="&#xae;" horiz-adv-x="1051" 
d="M614 633c-222 0 -369 151 -369 381c0 245 163 423 409 423c223 0 369 -152 369 -383c0 -244 -162 -421 -409 -421zM614 709c194 0 322 137 322 345c0 186 -112 307 -282 307c-194 0 -322 -137 -322 -347c0 -184 112 -305 282 -305zM543 836h-88l87 406h150
c79 0 122 -32 122 -92c0 -62 -39 -98 -112 -102l-2 -17c28 -6 44 -17 44 -64l1 -49c1 -47 5 -58 17 -66l-6 -16h-93c-5 16 -4 38 -4 82l1 45c1 43 -6 50 -44 50h-35zM616 1176l-21 -99h56c48 0 73 21 73 59c0 27 -18 40 -52 40h-56z" />
    <glyph glyph-name="trademark" unicode="&#x2122;" horiz-adv-x="1331" 
d="M390 771h-124l111 528h-125l21 101h373l-21 -101h-124zM691 771h-107l132 629h175l26 -326c5 -40 6 -96 1 -153l21 -2c21 55 45 111 66 154l163 327h175l-132 -629h-115l69 318c10 45 20 91 36 148l-23 3l-226 -469h-116l-29 470h-23c-9 -57 -17 -103 -27 -152z" />
    <glyph glyph-name="paragraph" unicode="&#xb6;" horiz-adv-x="1456" 
d="M588 -350h-189l182 847c-219 39 -353 197 -353 433c0 289 194 469 558 470h727l-36 -167h-154l-335 -1583h-189l336 1583h-212z" />
    <glyph glyph-name="section" unicode="&#xa7;" horiz-adv-x="1028" 
d="M1015 1136l-187 -22c19 117 -47 178 -171 178c-94 0 -148 -43 -151 -115c-4 -62 26 -103 137 -163l111 -61c110 -61 182 -125 177 -245c-4 -115 -82 -183 -225 -195l-5 -32c88 -61 134 -135 130 -236c-7 -165 -157 -266 -377 -266c-252 0 -405 119 -374 316l198 21
c-22 -129 51 -206 187 -206c93 0 162 43 164 116c4 68 -34 106 -146 169l-111 62c-111 62 -176 131 -171 240c5 120 85 198 240 205l4 33c-86 59 -130 134 -126 233c5 157 138 253 345 253c227 0 378 -106 351 -285zM741 684c4 65 -37 102 -147 164l-26 15
c-123 -21 -170 -65 -172 -128c-4 -60 43 -98 157 -165l19 -11c117 19 167 63 169 125z" />
    <glyph glyph-name="uni2116" unicode="&#x2116;" horiz-adv-x="1930" 
d="M1580 531c-208 0 -303 149 -250 390l39 181c42 210 142 311 309 311c208 0 303 -150 249 -390l-39 -182c-42 -209 -141 -310 -308 -310zM258 0h-198l305 1400h239l130 -742c21 -114 40 -281 46 -398l41 1c6 168 31 382 58 506l137 633h200l-306 -1400h-236l-128 728
c-22 117 -42 294 -48 419l-41 -1c-3 -152 -29 -366 -59 -507zM1583 653c74 1 111 64 137 187l50 233c30 135 2 218 -95 217c-74 0 -111 -63 -138 -186l-50 -233c-31 -134 -1 -218 96 -218zM1744 210h-556l33 154h556z" />
    <glyph glyph-name="dagger" unicode="&#x2020;" horiz-adv-x="1143" 
d="M409 -317l-33 7c45 411 112 812 191 1205l-307 44l40 187l297 -86l61 354l187 -40l-88 -347l307 -44l-40 -187l-298 85c-89 -391 -190 -784 -317 -1178z" />
    <glyph glyph-name="daggerdbl" unicode="&#x2021;" horiz-adv-x="1144" 
d="M486 -338l-187 40l88 347l-307 44l40 186l306 -86l83 346l65 349l-314 46l39 186l298 -85l61 353l187 -40l-89 -347l307 -44l-40 -186l-305 86l-84 -346l-65 -349l314 -46l-38 -186l-298 85z" />
    <glyph glyph-name="plus" unicode="+" horiz-adv-x="1084" 
d="M606 231h-163l35 337h-328l17 157h327l36 335h163l-35 -335h328l-17 -157h-327z" />
    <glyph glyph-name="minus" unicode="&#x2212;" horiz-adv-x="984" 
d="M868 564h-718l17 165h719z" />
    <glyph glyph-name="multiply" unicode="&#xd7;" horiz-adv-x="1139" 
d="M585 524l-275 -248l-107 118l275 248l-215 241l124 111l217 -242l270 244l106 -117l-270 -245l214 -240l-123 -111z" />
    <glyph glyph-name="divide" unicode="&#xf7;" horiz-adv-x="1060" 
d="M696 860h-236l23 224h236zM944 566h-794l17 159h794zM627 207h-236l23 224h236z" />
    <glyph glyph-name="equal" unicode="=" horiz-adv-x="1156" 
d="M977 739h-728l19 165h727zM940 390h-727l18 165h727z" />
    <glyph glyph-name="notequal" unicode="&#x2260;" horiz-adv-x="1156" 
d="M999 922l-18 -165h-258l-74 -183h313l-18 -165h-362l-87 -216h-159l87 216h-207l19 165h255l74 183h-311l19 165h358l87 215h160l-87 -215h209z" />
    <glyph glyph-name="greater" unicode="&#x3e;" horiz-adv-x="1113" 
d="M270 828l18 171l727 -250l-23 -209l-778 -246l19 180l376 112c76 20 158 38 217 48l1 31c-55 10 -132 29 -205 50z" />
    <glyph glyph-name="less" unicode="&#x3c;" horiz-adv-x="1114" 
d="M895 465l-18 -170l-727 250l23 209l779 246l-20 -180l-376 -112c-76 -21 -158 -38 -216 -48l-1 -31c54 -10 131 -29 204 -50z" />
    <glyph glyph-name="greaterequal" unicode="&#x2265;" horiz-adv-x="1160" 
d="M302 977l18 171l726 -250l-22 -209l-779 -246l19 180l377 112c75 20 158 38 216 48l1 31c-54 10 -132 29 -204 50zM971 220h-754l17 157h753z" />
    <glyph glyph-name="lessequal" unicode="&#x2264;" horiz-adv-x="1142" 
d="M927 614l-18 -171l-726 251l22 209l779 245l-19 -179l-377 -112c-75 -21 -158 -38 -216 -49l-1 -31c54 -10 132 -28 204 -49zM890 220h-753l17 157h753z" />
    <glyph glyph-name="plusminus" unicode="&#xb1;" horiz-adv-x="1225" 
d="M695 499h-163l26 247h-307l17 160h307l26 247h163l-26 -247h306l-16 -160h-307zM971 214h-776l17 160h776z" />
    <glyph glyph-name="approxequal" unicode="&#x2248;" horiz-adv-x="1167" 
d="M811 703c-149 0 -228 155 -331 155c-60 0 -101 -53 -114 -141l-134 6c25 193 110 295 240 295c151 0 224 -155 328 -155c59 0 98 50 111 131l135 -6c-26 -188 -108 -285 -235 -285zM753 285c-149 0 -228 154 -331 154c-60 0 -101 -53 -114 -140l-134 6
c25 193 110 295 240 295c150 0 224 -156 328 -156c59 0 98 51 110 132l136 -6c-26 -188 -108 -285 -235 -285z" />
    <glyph glyph-name="asciitilde" unicode="~" horiz-adv-x="1136" 
d="M765 486c-150 0 -228 155 -331 155c-61 0 -101 -53 -114 -141l-135 6c25 194 110 295 241 295c150 0 224 -155 328 -155c58 0 98 50 110 132l135 -6c-25 -189 -107 -286 -234 -286z" />
    <glyph glyph-name="logicalnot" unicode="&#xac;" horiz-adv-x="1150" 
d="M931 376h-175l30 286h-553l18 165h728z" />
    <glyph glyph-name="asciicircum" unicode="^" horiz-adv-x="1168" 
d="M451 864h-207l378 536h180l266 -536h-201l-92 186c-24 51 -47 111 -64 171h-29c-29 -60 -64 -119 -100 -171z" />
    <glyph glyph-name="infinity" unicode="&#x221e;" horiz-adv-x="1543" 
d="M1169 1109c218 0 323 -139 295 -392l-8 -75c-24 -226 -148 -351 -349 -351c-178 0 -257 103 -309 227c-72 -124 -171 -227 -350 -227c-218 0 -322 138 -294 390l8 75c24 228 148 353 349 353c177 0 256 -103 308 -226c72 123 171 226 350 226zM1280 659l8 69
c15 132 -38 205 -147 205c-127 0 -191 -113 -255 -245c41 -120 90 -219 214 -219c103 0 167 68 180 190zM476 467c128 0 191 114 255 245c-41 120 -90 219 -213 219c-103 0 -168 -68 -181 -192l-7 -69c-15 -131 37 -203 146 -203z" />
    <glyph glyph-name="percent" unicode="%" horiz-adv-x="1648" 
d="M477 722c-204 0 -298 137 -252 347l20 94c37 167 137 258 291 258c208 0 302 -137 256 -348l-20 -94c-36 -167 -138 -257 -295 -257zM434 0h-203l1057 1400h203zM478 838c66 0 108 54 129 148l30 131c26 114 -14 188 -97 188c-66 0 -108 -54 -130 -150l-29 -132
c-25 -111 13 -185 97 -185zM1183 -19c-205 0 -299 137 -253 346l21 94c37 169 136 259 291 259c207 0 302 -137 256 -349l-21 -94c-36 -166 -138 -256 -294 -256zM1183 97c66 0 108 54 129 148l30 132c26 112 -13 187 -98 187c-65 0 -108 -54 -129 -150l-29 -132
c-25 -111 14 -185 97 -185z" />
    <glyph glyph-name="perthousand" unicode="&#x2030;" horiz-adv-x="2321" 
d="M477 722c-204 0 -298 137 -252 347l20 94c37 167 137 258 291 258c208 0 302 -137 256 -348l-20 -94c-36 -167 -138 -257 -295 -257zM434 0h-203l1057 1400h203zM478 838c66 0 108 54 129 148l30 131c26 114 -14 188 -97 188c-66 0 -108 -54 -130 -150l-29 -132
c-25 -111 13 -185 97 -185zM1183 -19c-205 0 -299 137 -253 346l21 94c37 169 136 259 291 259c207 0 302 -137 256 -349l-21 -94c-36 -166 -138 -256 -294 -256zM1856 -19c-205 0 -299 137 -252 346l20 94c36 169 137 259 291 259c208 0 304 -137 256 -349l-20 -94
c-35 -166 -138 -256 -295 -256zM1183 97c66 0 108 54 129 148l30 132c26 112 -13 187 -98 187c-65 0 -108 -54 -129 -150l-29 -132c-25 -111 14 -185 97 -185zM1857 97c65 0 109 54 129 148l29 132c25 112 -13 187 -97 187c-65 0 -109 -54 -129 -150l-30 -132
c-25 -111 14 -185 98 -185z" />
    <glyph glyph-name="lozenge" unicode="&#x25ca;" horiz-adv-x="1187" 
d="M653 0h-193l-249 710l397 690h193l249 -710zM562 205l29 -1c32 81 71 169 112 244l147 252l-89 250c-25 77 -46 165 -62 245l-29 1c-32 -81 -67 -170 -111 -245l-148 -251l90 -249c28 -78 45 -166 61 -246z" />
    <glyph glyph-name="degree" unicode="&#xb0;" horiz-adv-x="828" 
d="M520 773c-172 0 -285 117 -285 294c1 213 126 354 316 354c172 0 285 -115 285 -290c0 -216 -126 -358 -316 -358zM529 917c96 0 159 80 159 202c0 96 -58 159 -147 159c-96 0 -159 -80 -158 -201c0 -97 58 -160 146 -160z" />
    <glyph glyph-name="uni2300" unicode="&#x2300;" horiz-adv-x="1443" 
d="M1262 1297l118 -116l-176 -176c68 -93 108 -208 108 -334c0 -314 -246 -560 -559 -560c-126 0 -242 40 -335 108l-175 -175l-118 116l176 176c-68 93 -108 209 -108 335c0 313 247 559 560 559c126 0 241 -40 334 -108zM368 671c0 -77 22 -149 60 -208l532 532
c-59 38 -130 59 -207 59c-216 0 -385 -168 -385 -383zM1136 671c0 77 -21 148 -59 207l-532 -532c60 -37 131 -59 208 -59c215 0 383 168 383 384z" />
    <glyph glyph-name="bar" unicode="|" horiz-adv-x="545" 
d="M210 -200h-192l360 1650h192z" />
    <glyph glyph-name="brokenbar" unicode="&#xa6;" horiz-adv-x="542" 
d="M415 749h-193l147 701h193zM216 -200h-193l147 701h193z" />
    <glyph glyph-name="uni25CF" unicode="&#x25cf;" horiz-adv-x="1368" 
d="M684 -20c-301 0 -544 243 -544 545s243 545 544 545s544 -243 544 -545s-243 -545 -544 -545z" />
    <glyph glyph-name="circle" unicode="&#x25cb;" horiz-adv-x="1368" 
d="M684 -20c-301 0 -544 243 -544 545s243 545 544 545s544 -243 544 -545s-243 -545 -544 -545zM684 60c257 0 464 207 464 465s-207 465 -464 465s-464 -207 -464 -465s207 -465 464 -465z" />
    <glyph glyph-name="filledbox" unicode="&#x25a0;" horiz-adv-x="1578" 
d="M1314 0h-1050v1050h1050v-1050z" />
    <glyph glyph-name="uni25A1" unicode="&#x25a1;" horiz-adv-x="1578" 
d="M1314 0h-1050v1050h1050v-1050zM344 970v-890h890v890h-890z" />
    <glyph glyph-name="uni2B24" unicode="&#x2b24;" horiz-adv-x="1772" 
d="M923 -40c420 0 740 319 740 740s-320 740 -740 740s-740 -319 -740 -740s320 -740 740 -740z" />
    <glyph glyph-name="uni2B1B" unicode="&#x2b1b;" horiz-adv-x="2002" 
d="M1738 0h-1400v1400h1400v-1400z" />
    <glyph glyph-name="whiteLargeCircle" horiz-adv-x="1772" 
d="M923 -40c-422 0 -740 318 -740 740s318 740 740 740s740 -318 740 -740s-318 -740 -740 -740zM923 40c376 0 660 284 660 660s-284 660 -660 660s-660 -284 -660 -660s284 -660 660 -660z" />
    <glyph glyph-name="uni2B1C" unicode="&#x2b1c;" horiz-adv-x="2002" 
d="M1738 0h-1400v1400h1400v-1400zM418 1320v-1240h1240v1240h-1240z" />
    <glyph glyph-name="triagup" unicode="&#x25b2;" horiz-adv-x="1349" 
d="M84 154l512 886l511 -886h-1023z" />
    <glyph glyph-name="uni25B6" unicode="&#x25b6;" horiz-adv-x="1471" 
d="M412 1084l886 -512l-886 -511v1023z" />
    <glyph glyph-name="triagdn" unicode="&#x25bc;" horiz-adv-x="1349" 
d="M1283 980l-511 -886l-512 886h1023z" />
    <glyph glyph-name="uni25C0" unicode="&#x25c0;" horiz-adv-x="1471" 
d="M1059 61l-886 511l886 512v-1023z" />
    <glyph glyph-name="arrowup" unicode="&#x2191;" horiz-adv-x="1288" 
d="M775 0h-175v823c0 64 9 159 21 240l-26 8l-223 -338h-196l485 667h53l485 -667h-196l-223 338l-26 -8c12 -78 21 -173 21 -240v-823z" />
    <glyph glyph-name="uni2197" unicode="&#x2197;" horiz-adv-x="1271" 
d="M269 115l-134 112l529 631c41 49 109 116 170 170l-15 23l-388 -116l-150 126l800 199l41 -33l-58 -823l-149 125l46 403l-26 11c-40 -68 -94 -147 -137 -198z" />
    <glyph glyph-name="arrowright" unicode="&#x2192;" horiz-adv-x="1510" 
d="M1427 674l-667 -485v195l338 223l-9 27c-77 -12 -172 -21 -239 -21h-677v175h677c64 0 159 -9 239 -21l9 25l-338 224v195l667 -484v-53z" />
    <glyph glyph-name="uni2198" unicode="&#x2198;" horiz-adv-x="1487" 
d="M1247 121l-41 -34l-800 200l150 126l387 -116l15 23c-61 53 -128 121 -170 170l-528 630l133 113l529 -631c43 -51 98 -130 138 -197l26 11l-47 403l150 125z" />
    <glyph glyph-name="arrowdown" unicode="&#x2193;" horiz-adv-x="1288" 
d="M587 577v823h175v-823c0 -67 -9 -162 -22 -240l27 -8l223 338h195l-484 -667h-53l-485 667h196l223 -338l26 8c-13 81 -21 176 -21 240z" />
    <glyph glyph-name="uni2199" unicode="&#x2199;" horiz-adv-x="1211" 
d="M1027 287l-800 -200l-40 34l57 823l150 -125l-47 -403l27 -11c39 67 94 146 137 197l529 631l134 -113l-529 -630c-41 -49 -109 -117 -170 -170l15 -23l387 116z" />
    <glyph glyph-name="arrowleft" unicode="&#x2190;" horiz-adv-x="1511" 
d="M825 384v-195l-667 485v53l667 484v-195l-338 -224l8 -25c81 12 176 21 240 21h676v-175h-676c-67 0 -162 9 -240 21l-8 -27z" />
    <glyph glyph-name="uni2196" unicode="&#x2196;" horiz-adv-x="1548" 
d="M789 858l528 -631l-133 -112l-529 630c-43 51 -98 130 -138 198l-26 -11l47 -403l-150 -125l-58 823l41 33l800 -199l-150 -126l-387 116l-15 -23c61 -54 128 -121 170 -170z" />
    <glyph glyph-name="arrowboth" unicode="&#x2194;" horiz-adv-x="1980" 
d="M825 384v-195l-667 485v53l667 484v-195l-338 -224l8 -25c81 12 176 21 240 21h585c64 0 159 -9 239 -21l9 25l-338 224v195l667 -484v-53l-667 -485v195l338 223l-9 27c-77 -12 -172 -21 -239 -21h-585c-67 0 -162 9 -240 21l-8 -27z" />
    <glyph glyph-name="arrowupdn" unicode="&#x2195;" horiz-adv-x="1419" 
d="M772 -182h-53l-484 667h195l223 -338l26 9c-12 80 -21 175 -21 239v610c0 64 9 159 21 239l-26 9l-223 -338h-195l484 667h53l485 -667h-195l-223 338l-27 -9c13 -77 21 -172 21 -239v-610c0 -67 -8 -162 -21 -239l27 -9l223 338h195z" />
    <glyph glyph-name="uni2BA0" unicode="&#x2ba0;" horiz-adv-x="1551" 
d="M825 384v-195l-667 485v53l667 484v-195l-338 -224l8 -25c81 12 176 21 240 21h501v280h175v-455h-676c-67 0 -162 9 -240 21l-8 -27z" />
    <glyph glyph-name="uni2BA1" unicode="&#x2ba1;" horiz-adv-x="1609" 
d="M1526 674l-667 -485v195l338 223l-8 27c-77 -12 -173 -21 -240 -21h-676v455h175v-280h501c65 0 159 -9 240 -21l8 25l-338 224v195l667 -484v-53z" />
    <glyph glyph-name="uni2BA6" unicode="&#x2ba6;" horiz-adv-x="1288" 
d="M701 0h-53l-485 667h196l223 -338l26 8c-13 81 -21 176 -21 240v823h456v-173h-281v-650c0 -67 -9 -162 -22 -240l27 -8l223 338h195z" />
    <glyph glyph-name="uni2BA4" unicode="&#x2ba4;" horiz-adv-x="1304" 
d="M176 733l485 667h53l485 -667h-196l-223 338l-26 -8c12 -78 21 -173 21 -240v-650h281v-173h-456v823c0 64 9 159 21 240l-26 8l-223 -338h-196z" />
    <glyph glyph-name="uni2BA7" unicode="&#x2ba7;" horiz-adv-x="1304" 
d="M1202 667l-485 -667h-53l-485 667h196l223 -338l26 8c-12 78 -21 173 -21 240v650h-281v173h456v-823c0 -64 -9 -159 -21 -240l26 -8l223 338h196z" />
    <glyph glyph-name="uni2BA5" unicode="&#x2ba5;" horiz-adv-x="1288" 
d="M661 1400h53l485 -667h-196l-223 338l-26 -8c12 -81 21 -176 21 -240v-823h-456v173h281v650c0 67 9 162 21 240l-26 8l-223 -338h-196z" />
    <glyph glyph-name="uni2BA2" unicode="&#x2ba2;" horiz-adv-x="1613" 
d="M826 382v-193l-668 484v54l668 484v-193l-218 -141c-58 -37 -111 -64 -165 -85l4 -16c57 8 115 10 181 10h786v-454h-173v282h-613c-66 0 -124 3 -181 11l-4 -16c54 -22 107 -49 165 -85z" />
    <glyph glyph-name="uni2BA3" unicode="&#x2ba3;" horiz-adv-x="1553" 
d="M1469 673l-668 -484v193l218 142c58 36 112 63 165 85l-3 16c-58 -8 -116 -11 -181 -11h-614v-282h-173v454h787c65 0 123 -2 181 -10l3 16c-53 21 -107 48 -165 85l-218 141v193l668 -484v-54z" />
    <glyph glyph-name="arrowup.ss05" horiz-adv-x="1287" 
d="M773 0h-173v731h-424l484 669h53l484 -669h-424v-731z" />
    <glyph glyph-name="uni2197.ss05" horiz-adv-x="1263" 
d="M736 684l-458 -568l-133 110l460 568l-323 273l798 195l40 -35l-64 -819z" />
    <glyph glyph-name="arrowright.ss05" horiz-adv-x="1513" 
d="M1430 673l-669 -484v425h-588v172h588v425l669 -484v-54z" />
    <glyph glyph-name="uni2198.ss05" horiz-adv-x="1475" 
d="M1234 121l-40 -34l-797 194l321 274l-458 567l132 110l458 -566l321 274z" />
    <glyph glyph-name="arrowdown.ss05" horiz-adv-x="1287" 
d="M588 669v731h173v-731h424l-484 -669h-53l-484 669h424z" />
    <glyph glyph-name="uni2199.ss05" horiz-adv-x="1202" 
d="M1017 281l-797 -194l-40 34l63 819l321 -274l458 566l132 -110l-458 -567z" />
    <glyph glyph-name="arrowleft.ss05" horiz-adv-x="1513" 
d="M827 614v-425l-669 484v54l669 484v-425h587v-172h-587z" />
    <glyph glyph-name="uni2196.ss05" horiz-adv-x="1536" 
d="M1305 226l-132 -110l-459 568l-320 -276l-64 819l41 35l797 -195l-322 -273z" />
    <glyph glyph-name="arrowboth.ss05" horiz-adv-x="1982" 
d="M826 614v-425l-668 484v54l668 484v-425h404v425l668 -484v-54l-668 -484v425h-404z" />
    <glyph glyph-name="arrowupdn.ss05" horiz-adv-x="1418" 
d="M773 -182h-53l-484 670h424l-1 425h-424l484 669h54l484 -669h-424v-425h424z" />
    <glyph glyph-name="uni2BA0.ss05" horiz-adv-x="1553" 
d="M827 614v-425l-669 484v54l669 484v-425h414v282h173v-454h-587z" />
    <glyph glyph-name="uni2BA1.ss05" horiz-adv-x="1614" 
d="M1530 673l-669 -484v425h-587v454h173v-282h414v425l669 -484v-54z" />
    <glyph glyph-name="uni2BA6.ss05" horiz-adv-x="1288" 
d="M702 0h-54l-484 669h425v731h454v-173h-281v-558h424z" />
    <glyph glyph-name="uni2BA4.ss05" horiz-adv-x="1303" 
d="M1054 0h-454v731h-424l484 669h53l484 -669h-424v-558h281v-173z" />
    <glyph glyph-name="uni2BA7.ss05" horiz-adv-x="1303" 
d="M1202 669l-485 -669h-53l-484 669h424v558h-282v173h455v-731h425z" />
    <glyph glyph-name="uni2BA5.ss05" horiz-adv-x="1287" 
d="M773 731v-731h-454v173h281v558h-424l484 669h53l484 -669h-424z" />
    <glyph glyph-name="uni2BA2.ss05" horiz-adv-x="1613" 
d="M826 614v-425l-668 484v54l668 484v-425h588v-454h-173v282h-415z" />
    <glyph glyph-name="uni2BA3.ss05" horiz-adv-x="1553" 
d="M1469 673l-668 -484v425h-415v-282h-173v454h588v425l668 -484v-54z" />
    <glyph glyph-name="uni0410" unicode="&#x410;" horiz-adv-x="1114" 
d="M185 0h-210l648 1400h252l40 -1400h-209l-3 278h-391zM542 813l-164 -381h324l2 381c2 120 7 251 16 362l-37 4c-44 -125 -94 -257 -141 -366z" />
    <glyph glyph-name="uni0411" unicode="&#x411;" horiz-adv-x="1112" 
d="M505 0h-445l305 1400h756l-36 -166h-549l-86 -394h183c231 0 349 -111 349 -308c0 -331 -174 -532 -477 -532zM413 674l-110 -508h201c174 0 272 137 272 354c0 105 -61 154 -184 154h-179z" />
    <glyph glyph-name="uni0412" unicode="&#x412;" horiz-adv-x="1113" 
d="M493 0h-433l305 1400h400c205 0 315 -91 315 -264c0 -196 -93 -361 -280 -384l-1 -33c114 -22 175 -100 175 -229c0 -303 -179 -490 -481 -490zM535 1234l-93 -425h170c171 0 263 120 263 287c0 96 -60 138 -171 138h-169zM411 664l-109 -498h182c192 0 282 138 282 327
c0 119 -61 171 -183 171h-172z" />
    <glyph glyph-name="uni0413" unicode="&#x413;" horiz-adv-x="972" 
d="M265 0h-205l306 1400h705l-36 -166h-500z" />
    <glyph glyph-name="uni0403" unicode="&#x403;" horiz-adv-x="972" 
d="M810 1491h-154l135 212h214zM265 0h-205l306 1400h705l-36 -166h-500z" />
    <glyph glyph-name="uni0490" unicode="&#x490;" horiz-adv-x="972" 
d="M891 1400l33 153h179l-32 -153l-36 -166h-500l-270 -1234h-205l306 1400h525z" />
    <glyph glyph-name="uni0492" unicode="&#x492;" horiz-adv-x="1006" 
d="M1105 1400l-36 -166h-500l-96 -441h289l-32 -148h-290l-141 -645h-205l141 645h-148l31 148h149l133 607h705z" />
    <glyph glyph-name="uni0414" unicode="&#x414;" horiz-adv-x="1212" 
d="M137 -204h-195l81 370h70c134 226 183 444 361 1234h725l-269 -1234h109l-81 -370h-195l44 204h-606zM277 204l10 -38h418l232 1068h-331c-120 -522 -213 -889 -329 -1030z" />
    <glyph glyph-name="uni0415" unicode="&#x415;" horiz-adv-x="969" 
d="M744 0h-684l305 1400h666l-36 -166h-460l-92 -420h420l-33 -154h-419l-109 -494h478z" />
    <glyph glyph-name="uni0415_uni0301" horiz-adv-x="969" 
d="M794 1491h-154l135 212h214zM744 0h-684l305 1400h666l-36 -166h-460l-92 -420h420l-33 -154h-419l-109 -494h478z" />
    <glyph glyph-name="uni0400" unicode="&#x400;" horiz-adv-x="969" 
d="M784 1491h-148l-151 212h207zM744 0h-684l305 1400h666l-36 -166h-460l-92 -420h420l-33 -154h-419l-109 -494h478z" />
    <glyph glyph-name="uni0401" unicode="&#x401;" horiz-adv-x="969" 
d="M669 1504h-195l42 192h194zM980 1504h-195l42 192h194zM744 0h-684l305 1400h666l-36 -166h-460l-92 -420h420l-33 -154h-419l-109 -494h478z" />
    <glyph glyph-name="uni0416" unicode="&#x416;" horiz-adv-x="1612" 
d="M223 0h-238l-2 33c53 24 97 87 175 271l79 185c78 185 138 228 248 239l1 33c-92 8 -123 64 -126 219l-4 154c-3 154 -17 212 -55 233l7 33h219c21 -52 28 -128 27 -271l-1 -142c-1 -142 25 -174 127 -174h86l128 587h206l-128 -587h78c103 0 148 40 209 184l61 144
c61 144 96 211 133 259h235l2 -32c-51 -23 -96 -92 -168 -247l-71 -157c-72 -156 -127 -209 -237 -214l-1 -34c96 -13 133 -67 138 -243l5 -174c6 -177 25 -243 64 -266l-7 -33h-232c-21 56 -27 127 -27 291v164c0 165 -33 198 -133 198h-84l-143 -653h-206l143 653h-82
c-109 0 -154 -38 -221 -207l-68 -168c-68 -168 -95 -225 -137 -278z" />
    <glyph glyph-name="uni0496" unicode="&#x496;" horiz-adv-x="1612" 
d="M1453 1400h235l2 -32c-51 -23 -96 -92 -168 -247l-71 -157c-72 -156 -127 -209 -237 -214l-1 -34c96 -13 133 -67 138 -243l5 -174c2 -55 5 -99 9 -134h130l-81 -369h-194l44 204h-83c-21 56 -27 127 -27 291v164c0 165 -33 198 -133 198h-84l-143 -653h-206l143 653h-82
c-109 0 -154 -38 -221 -207l-68 -168c-68 -168 -95 -225 -137 -278h-238l-2 33c53 24 97 87 175 271l79 185c78 185 138 228 248 239l1 33c-92 8 -123 64 -126 219l-4 154c-3 154 -17 212 -55 233l7 33h219c21 -52 28 -128 27 -271l-1 -142c-1 -142 25 -174 127 -174h86
l128 587h206l-128 -587h78c103 0 148 40 209 184l61 144c61 144 96 211 133 259z" />
    <glyph glyph-name="uni0417" unicode="&#x417;" horiz-adv-x="1110" 
d="M506 -21c-289 0 -449 172 -399 443l202 33c-42 -201 38 -310 202 -310c161 0 252 135 252 315c0 126 -71 179 -191 180h-88l34 160h83c169 0 272 129 273 289c0 105 -67 166 -178 166c-155 0 -226 -94 -239 -248l-194 45c33 230 177 369 445 369c235 0 369 -117 369 -297
c1 -204 -115 -370 -303 -394l-5 -34c122 -22 198 -105 198 -235c-1 -280 -178 -482 -461 -482z" />
    <glyph glyph-name="uni0418" unicode="&#x418;" horiz-adv-x="1190" 
d="M293 0h-233l306 1400h205l-153 -702c-25 -112 -75 -274 -123 -406l38 -6c42 100 78 175 122 250l513 864h236l-306 -1400h-205l158 713c31 139 78 292 119 396l-38 6c-47 -107 -86 -187 -133 -267z" />
    <glyph glyph-name="uni0418_uni0301" horiz-adv-x="1190" 
d="M864 1491h-154l135 212h214zM293 0h-233l306 1400h205l-153 -702c-25 -112 -75 -274 -123 -406l38 -6c42 100 78 175 122 250l513 864h236l-306 -1400h-205l158 713c31 139 78 292 119 396l-38 6c-47 -107 -86 -187 -133 -267z" />
    <glyph glyph-name="uni0419" unicode="&#x419;" horiz-adv-x="1190" 
d="M803 1505c-180 0 -261 87 -240 240h166c-12 -76 20 -129 95 -129s117 53 134 129h171c-31 -153 -144 -240 -326 -240zM293 0h-233l306 1400h205l-153 -702c-25 -112 -75 -274 -123 -406l38 -6c42 100 78 175 122 250l513 864h236l-306 -1400h-205l158 713
c31 139 78 292 119 396l-38 6c-47 -107 -86 -187 -133 -267z" />
    <glyph glyph-name="uni040D" unicode="&#x40d;" horiz-adv-x="1190" 
d="M853 1491h-148l-151 212h207zM293 0h-233l306 1400h205l-153 -702c-25 -112 -75 -274 -123 -406l38 -6c42 100 78 175 122 250l513 864h236l-306 -1400h-205l158 713c31 139 78 292 119 396l-38 6c-47 -107 -86 -187 -133 -267z" />
    <glyph glyph-name="uni0406" unicode="&#x406;" horiz-adv-x="557" 
d="M265 0h-205l305 1400h206z" />
    <glyph glyph-name="uni0407" unicode="&#x407;" horiz-adv-x="557" 
d="M447 1502h-154l44 198h153zM660 1502h-153l43 198h153zM265 0h-205l305 1400h206z" />
    <glyph glyph-name="uni0408" unicode="&#x408;" horiz-adv-x="976" 
d="M381 -21c-226 0 -359 133 -301 443l211 29c-47 -236 0 -317 103 -317c86 0 138 61 163 181l237 1085h206l-244 -1112c-43 -201 -163 -309 -375 -309z" />
    <glyph glyph-name="uni041A" unicode="&#x41a;" horiz-adv-x="1106" 
d="M265 0h-205l306 1400h205l-127 -584h99c103 0 149 37 210 181l61 144c61 144 94 211 133 259h234l2 -33c-50 -26 -96 -91 -167 -246l-72 -157c-72 -156 -127 -209 -231 -215l-2 -33c92 -14 129 -67 134 -243l4 -175c5 -176 25 -242 64 -265l-6 -33h-233
c-20 56 -27 127 -27 291v164c-1 165 -34 194 -135 194h-104z" />
    <glyph glyph-name="uni040C" unicode="&#x40c;" horiz-adv-x="1106" 
d="M826 1491h-154l135 212h214zM265 0h-205l306 1400h205l-127 -584h99c103 0 149 37 210 181l61 144c61 144 94 211 133 259h234l2 -33c-50 -26 -96 -91 -167 -246l-72 -157c-72 -156 -127 -209 -231 -215l-2 -33c92 -14 129 -67 134 -243l4 -175c5 -176 25 -242 64 -265
l-6 -33h-233c-20 56 -27 127 -27 291v164c-1 165 -34 194 -135 194h-104z" />
    <glyph glyph-name="uni049A" unicode="&#x49a;" horiz-adv-x="1106" 
d="M947 1400h234l2 -33c-50 -26 -96 -91 -167 -246l-72 -157c-72 -156 -127 -209 -231 -215l-2 -33c92 -14 129 -67 134 -243l4 -175c2 -54 4 -98 9 -133h121l-81 -369h-194l44 204h-74c-20 56 -27 127 -27 291v164c-1 165 -34 194 -135 194h-104l-143 -649h-205l306 1400
h205l-127 -584h99c103 0 149 37 210 181l61 144c61 144 94 211 133 259z" />
    <glyph glyph-name="uni041B" unicode="&#x41b;" horiz-adv-x="1197" 
d="M-6 -18l-7 192l39 3c148 9 225 163 424 1036l43 187h718l-306 -1400h-206l269 1234h-323l-33 -133c-172 -702 -309 -1149 -618 -1119z" />
    <glyph glyph-name="uni0409" unicode="&#x409;" horiz-adv-x="1729" 
d="M1095 869h177c231 0 352 -116 352 -328c0 -331 -190 -541 -492 -541h-433l269 1234h-323l-33 -133c-172 -702 -309 -1149 -618 -1119l-7 192l39 3c148 9 225 163 424 1036l43 187h718l-109 -500zM942 166h189c177 0 286 149 286 368c0 116 -63 169 -182 169h-176
l-56 -256z" />
    <glyph glyph-name="uni041C" unicode="&#x41c;" horiz-adv-x="1507" 
d="M255 0h-195l305 1400h282l39 -694c6 -116 5 -282 -4 -419l32 -3c40 129 105 295 165 418l336 698h306l-305 -1400h-202l123 561c42 192 106 447 153 616l-42 6l-534 -1183h-151l-52 1180h-44c-14 -182 -51 -440 -90 -621z" />
    <glyph glyph-name="uni041D" unicode="&#x41d;" horiz-adv-x="1184" 
d="M265 0h-205l305 1400h206l-125 -574h420l125 574h206l-305 -1400h-206l144 660h-421z" />
    <glyph glyph-name="uni04A2" unicode="&#x4a2;" horiz-adv-x="1220" 
d="M991 1400h206l-269 -1235h98l-81 -369h-194l45 204h-110l144 660h-421l-144 -660h-205l305 1400h206l-125 -574h420z" />
    <glyph glyph-name="uni040A" unicode="&#x40a;" horiz-adv-x="1715" 
d="M1072 825h170c226 0 361 -114 361 -320c0 -318 -176 -505 -492 -505h-425l144 660h-421l-144 -660h-205l305 1400h206l-125 -574h420l125 574h206zM927 161h182c181 0 287 128 286 329c-1 113 -68 174 -191 174h-167z" />
    <glyph glyph-name="uni041E" unicode="&#x41e;" horiz-adv-x="1167" 
d="M523 -21c-316 0 -463 240 -374 640l61 270c74 337 225 532 507 532c317 0 465 -242 375 -645l-61 -270c-74 -333 -224 -527 -508 -527zM531 145c157 0 239 117 292 351l80 351c64 277 -21 408 -192 408c-158 0 -239 -119 -294 -358l-80 -351c-63 -273 22 -401 194 -401z
" />
    <glyph glyph-name="uni041E_uni0301" horiz-adv-x="1167" 
d="M837 1491h-154l135 212h214zM523 -21c-316 0 -463 240 -374 640l61 270c74 337 225 532 507 532c317 0 465 -242 375 -645l-61 -270c-74 -333 -224 -527 -508 -527zM531 145c157 0 239 117 292 351l80 351c64 277 -21 408 -192 408c-158 0 -239 -119 -294 -358l-80 -351
c-63 -273 22 -401 194 -401z" />
    <glyph glyph-name="uni04E8" unicode="&#x4e8;" horiz-adv-x="1167" 
d="M717 1421c317 0 465 -242 375 -645l-61 -270c-74 -333 -224 -527 -508 -527c-316 0 -463 240 -374 640l61 270c74 337 225 532 507 532zM417 897l-25 -111h497l14 61c64 277 -21 408 -192 408c-158 0 -239 -119 -294 -358zM823 496l32 142h-497l-21 -92
c-63 -273 22 -401 194 -401c157 0 239 117 292 351z" />
    <glyph glyph-name="uni041F" unicode="&#x41f;" horiz-adv-x="1172" 
d="M265 0h-205l306 1400h820l-306 -1400h-205l270 1234h-410z" />
    <glyph glyph-name="uni0420" unicode="&#x420;" horiz-adv-x="1064" 
d="M265 0h-205l305 1400h329c242 0 367 -108 367 -330c0 -264 -146 -532 -519 -532h-159zM536 1234l-118 -529h137c207 0 305 155 305 343c0 123 -71 186 -205 186h-119z" />
    <glyph glyph-name="uni0421" unicode="&#x421;" horiz-adv-x="1131" 
d="M510 -21c-309 0 -450 240 -361 640l61 271c74 335 225 531 496 531c259 0 429 -177 366 -518l-206 -24c55 270 -19 376 -167 376s-226 -115 -281 -355l-81 -353c-63 -274 21 -402 180 -402c134 0 215 97 277 379l193 -69c-74 -329 -237 -476 -477 -476z" />
    <glyph glyph-name="uni0422" unicode="&#x422;" horiz-adv-x="990" 
d="M479 0h-206l269 1234h-305l37 166h815l-36 -166h-305z" />
    <glyph glyph-name="uni0423" unicode="&#x423;" horiz-adv-x="1093" 
d="M134 -21l-28 182l108 7c99 8 129 43 156 112l26 60l-123 1060h214l36 -522c10 -125 14 -269 7 -388l36 -3c38 115 99 262 159 387l248 526h219l-496 -967c-150 -295 -288 -435 -562 -454z" />
    <glyph glyph-name="uni0423_uni0301" horiz-adv-x="1093" 
d="M821 1491h-154l135 212h214zM134 -21l-28 182l108 7c99 8 129 43 156 112l26 60l-123 1060h214l36 -522c10 -125 14 -269 7 -388l36 -3c38 115 99 262 159 387l248 526h219l-496 -967c-150 -295 -288 -435 -562 -454z" />
    <glyph glyph-name="uni040E" unicode="&#x40e;" horiz-adv-x="1093" 
d="M760 1505c-180 0 -261 87 -240 240h166c-12 -76 20 -129 95 -129s117 53 134 129h171c-31 -153 -144 -240 -326 -240zM134 -21l-28 182l108 7c99 8 129 43 156 112l26 60l-123 1060h214l36 -522c10 -125 14 -269 7 -388l36 -3c38 115 99 262 159 387l248 526h219
l-496 -967c-150 -295 -288 -435 -562 -454z" />
    <glyph glyph-name="uni04EE" unicode="&#x4ee;" horiz-adv-x="1093" 
d="M1005 1511h-497l29 132h497zM134 -21l-28 182l108 7c99 8 129 43 156 112l26 60l-123 1060h214l36 -522c10 -125 14 -269 7 -388l36 -3c38 115 99 262 159 387l248 526h219l-496 -967c-150 -295 -288 -435 -562 -454z" />
    <glyph glyph-name="uni04AE" unicode="&#x4ae;" horiz-adv-x="1051" 
d="M509 0h-206l127 570l-157 830h206l61 -382c10 -77 16 -151 12 -249l34 -3c39 100 77 174 120 252l223 382h221l-525 -859z" />
    <glyph glyph-name="uni04B0" unicode="&#x4b0;" horiz-adv-x="1051" 
d="M929 1400h221l-523 -855h209l-33 -148h-209l-85 -397h-206l88 397h-214l33 148h214l6 25l-157 830h206l61 -382c10 -77 16 -151 12 -249l34 -3c39 100 77 174 120 252z" />
    <glyph glyph-name="uni0424" unicode="&#x424;" horiz-adv-x="1556" 
d="M762 -18h-205l29 135c-364 1 -496 237 -434 518l51 226c58 259 242 424 640 423l28 134h205l-28 -134c363 -1 497 -220 433 -502l-51 -226c-57 -259 -240 -439 -638 -438zM624 277l186 847c-246 -1 -364 -106 -404 -282l-50 -221c-41 -181 16 -344 268 -344zM1011 1124
l-187 -847c246 1 365 122 404 299l48 218c41 185 -18 330 -265 330z" />
    <glyph glyph-name="uni0425" unicode="&#x425;" horiz-adv-x="1067" 
d="M204 0h-229l474 740l-147 660h210l70 -346c9 -50 13 -126 9 -191l33 -2c19 66 50 140 78 184l225 355h226l-454 -689l170 -711h-217l-78 393c-11 53 -16 133 -13 201l-33 2c-18 -68 -48 -141 -81 -196z" />
    <glyph glyph-name="uni04B2" unicode="&#x4b2;" horiz-adv-x="1067" 
d="M1153 1400l-454 -689l131 -546h104l-81 -369h-194l44 204h-51l-78 393c-11 53 -16 133 -13 201l-33 2c-18 -68 -48 -141 -81 -196l-243 -400h-229l474 740l-147 660h210l70 -346c9 -50 13 -126 9 -191l33 -2c19 66 50 140 78 184l225 355h226z" />
    <glyph glyph-name="uni0427" unicode="&#x427;" horiz-adv-x="1081" 
d="M789 0h-205l134 610c-62 -18 -134 -30 -214 -30c-229 0 -341 139 -292 367l96 453h205l-97 -442c-30 -141 26 -212 169 -212c59 0 112 9 168 28l137 626h205z" />
    <glyph glyph-name="uni04B6" unicode="&#x4b6;" horiz-adv-x="1081" 
d="M890 1400h205l-270 -1235h109l-81 -369h-194l44 204h-119l134 610c-62 -18 -134 -30 -214 -30c-229 0 -341 139 -292 367l96 453h205l-97 -442c-30 -141 26 -212 169 -212c59 0 112 9 168 28z" />
    <glyph glyph-name="uni0426" unicode="&#x426;" horiz-adv-x="1224" 
d="M949 -204h-194l45 204h-740l306 1400h205l-270 -1234h416l270 1234h205l-270 -1234h108z" />
    <glyph glyph-name="uni0428" unicode="&#x428;" horiz-adv-x="1696" 
d="M1404 0h-1344l306 1400h205l-270 -1234h365l270 1234h205l-270 -1234h364l269 1234h206z" />
    <glyph glyph-name="uni0429" unicode="&#x429;" horiz-adv-x="1736" 
d="M1504 1400h206l-270 -1235h102l-81 -369h-194l45 204h-1252l306 1400h205l-270 -1234h365l270 1234h205l-270 -1234h364z" />
    <glyph glyph-name="uni040F" unicode="&#x40f;" horiz-adv-x="1172" 
d="M981 1400h205l-306 -1400h-299l-45 -204h-194l44 204h-326l306 1400h205l-270 -1234h410z" />
    <glyph glyph-name="uni042A" unicode="&#x42a;" horiz-adv-x="1280" 
d="M647 869h177c230 0 351 -116 351 -328c0 -331 -189 -541 -492 -541h-432l269 1234h-283l37 166h488zM493 166h189c177 0 287 149 287 368c0 116 -63 169 -182 169h-178z" />
    <glyph glyph-name="uni042B" unicode="&#x42b;" horiz-adv-x="1606" 
d="M493 0h-433l305 1400h206l-115 -531h177c231 0 352 -116 352 -328c0 -331 -190 -541 -492 -541zM1314 0h-205l305 1400h206zM419 703l-116 -537h189c177 0 286 149 286 368c0 116 -63 169 -182 169h-177z" />
    <glyph glyph-name="uni042B_uni0301" horiz-adv-x="1606" 
d="M1084 1491h-154l135 212h214zM493 0h-433l305 1400h206l-115 -531h177c231 0 352 -116 352 -328c0 -331 -190 -541 -492 -541zM1314 0h-205l305 1400h206zM419 703l-116 -537h189c177 0 286 149 286 368c0 116 -63 169 -182 169h-177z" />
    <glyph glyph-name="uni042C" unicode="&#x42c;" horiz-adv-x="1090" 
d="M493 0h-433l305 1400h206l-115 -531h177c231 0 352 -116 352 -328c0 -331 -190 -541 -492 -541zM419 703l-116 -537h189c177 0 286 149 286 368c0 116 -63 169 -182 169h-177z" />
    <glyph glyph-name="uni0405" unicode="&#x405;" horiz-adv-x="1111" 
d="M513 -21c-291 0 -452 167 -398 481l198 33c-49 -250 36 -360 210 -360c122 0 206 68 213 188c5 92 -29 158 -146 273l-115 111c-122 120 -195 212 -190 374c8 218 162 342 398 342c275 0 414 -162 367 -439l-189 -30c37 214 -25 315 -185 315c-111 0 -189 -59 -194 -167
c-4 -85 36 -154 158 -270l112 -106c116 -109 192 -214 184 -388c-10 -222 -169 -357 -423 -357z" />
    <glyph glyph-name="uni0404" unicode="&#x404;" horiz-adv-x="1139" 
d="M1081 948l-199 -22c47 225 -34 329 -180 329c-152 0 -230 -117 -285 -356l-23 -102h250l-35 -160h-252l-20 -90c-64 -274 22 -402 183 -402c136 0 218 93 279 335l187 -69c-73 -282 -235 -432 -475 -432c-310 0 -451 240 -362 640l61 271c74 335 225 531 498 531
c264 0 432 -177 373 -473z" />
    <glyph glyph-name="uni042D" unicode="&#x42d;" horiz-adv-x="1138" 
d="M702 1421c310 0 452 -240 362 -640l-60 -271c-75 -335 -226 -531 -499 -531c-264 0 -431 177 -373 473l200 22c-48 -225 33 -329 179 -329c152 0 230 117 285 356l28 120h-254l35 160h255l17 72c63 274 -23 402 -184 402c-135 0 -218 -93 -278 -335l-188 69
c74 282 236 432 475 432z" />
    <glyph glyph-name="uni042D_uni0301" horiz-adv-x="1138" 
d="M785 1703h214l-195 -212h-154zM702 1421c310 0 452 -240 362 -640l-60 -271c-75 -335 -226 -531 -499 -531c-264 0 -431 177 -373 473l200 22c-48 -225 33 -329 179 -329c152 0 230 117 285 356l28 120h-254l35 160h255l17 72c63 274 -23 402 -184 402
c-135 0 -218 -93 -278 -335l-188 69c74 282 236 432 475 432z" />
    <glyph glyph-name="uni04D8" unicode="&#x4d8;" horiz-adv-x="1151" 
d="M708 1421c324 0 460 -238 368 -643l-61 -268c-82 -358 -238 -531 -512 -531c-300 0 -436 211 -369 566c16 70 31 157 50 228h687l18 79c60 259 -15 403 -189 403c-139 0 -229 -93 -256 -235l-195 45c46 214 213 356 459 356zM810 508l25 111h-479l-26 -123
c-50 -228 24 -351 186 -351c147 0 236 115 294 363z" />
    <glyph glyph-name="uni040B" unicode="&#x40b;" horiz-adv-x="1252" 
d="M418 0h-205l266 1234h-242l36 166h815l-36 -166h-368l-100 -455c65 25 141 41 225 41c218 0 334 -141 285 -368l-96 -452h-206l95 443c29 137 -27 211 -162 211c-59 0 -115 -9 -172 -27z" />
    <glyph glyph-name="uni0402" unicode="&#x402;" horiz-adv-x="1254" 
d="M570 -248l11 183l81 7c81 6 126 37 144 122l81 379c29 137 -27 211 -162 211c-59 0 -115 -9 -172 -27l-135 -627h-205l266 1234h-242l36 166h815l-36 -166h-369l-99 -455c65 25 142 41 226 41c218 0 331 -142 284 -368l-71 -343c-47 -225 -200 -332 -453 -357z" />
    <glyph glyph-name="uni04BA" unicode="&#x4ba;" horiz-adv-x="1102" 
d="M366 1400h205l-134 -610c63 18 134 30 214 30c229 0 342 -139 293 -367l-97 -453h-205l97 442c30 141 -25 212 -169 212c-59 0 -111 -9 -168 -28l-137 -626h-205z" />
    <glyph glyph-name="uni042E" unicode="&#x42e;" horiz-adv-x="1605" 
d="M1163 1421c314 0 457 -242 367 -645l-61 -270c-74 -333 -218 -527 -499 -527c-314 0 -456 240 -366 640l3 15h-203l-139 -634h-205l305 1400h206l-132 -606h204l21 95c75 337 220 532 499 532zM1262 496l80 351c64 278 -15 408 -183 408c-155 0 -233 -118 -288 -358
l-80 -351c-62 -274 16 -401 184 -401c155 0 233 116 287 351z" />
    <glyph glyph-name="uni042E_uni0301" horiz-adv-x="1605" 
d="M1001 1711h214l-195 -212h-154zM1163 1421c314 0 457 -242 367 -645l-61 -270c-74 -333 -218 -527 -499 -527c-314 0 -456 240 -366 640l3 15h-203l-139 -634h-205l305 1400h206l-132 -606h204l21 95c75 337 220 532 499 532zM1262 496l80 351c64 278 -15 408 -183 408
c-155 0 -233 -118 -288 -358l-80 -351c-62 -274 16 -401 184 -401c155 0 233 116 287 351z" />
    <glyph glyph-name="uni042F" unicode="&#x42f;" horiz-adv-x="1105" 
d="M206 0h-238l-2 33c51 24 96 90 168 253l72 163c73 163 120 198 232 211l1 33c-121 13 -193 100 -193 230c0 286 157 477 487 477h386l-306 -1400h-205l128 588h-118c-118 0 -158 -19 -221 -175l-62 -156c-62 -157 -87 -204 -129 -257zM640 754h133l105 480h-138
c-213 0 -292 -134 -292 -311c0 -120 60 -169 192 -169z" />
    <glyph glyph-name="uni042F_uni0301" horiz-adv-x="1105" 
d="M831 1491h-154l135 212h214zM206 0h-238l-2 33c51 24 96 90 168 253l72 163c73 163 120 198 232 211l1 33c-121 13 -193 100 -193 230c0 286 157 477 487 477h386l-306 -1400h-205l128 588h-118c-118 0 -158 -19 -221 -175l-62 -156c-62 -157 -87 -204 -129 -257z
M640 754h133l105 480h-138c-213 0 -292 -134 -292 -311c0 -120 60 -169 192 -169z" />
    <glyph glyph-name="uni0414.loclBGR" horiz-adv-x="1239" 
d="M923 1400l32 -1234h90l-80 -370h-195l42 204h-631l-45 -204h-194l81 370h94l568 1234h238zM594 778l-265 -612h422l1 612c0 110 11 259 27 411l-36 3c-47 -150 -99 -299 -149 -414z" />
    <glyph glyph-name="uni041B.loclBGR" horiz-adv-x="1092" 
d="M619 1400h238l36 -1400h-208v778c1 110 12 259 28 411l-36 3c-47 -150 -99 -299 -149 -414l-337 -778h-216z" />
    <glyph glyph-name="uni0430" unicode="&#x430;" horiz-adv-x="978" 
d="M264 -21c-133 0 -212 91 -212 217c0 216 167 339 399 400l188 50l27 114c26 111 -29 170 -117 170c-104 0 -164 -69 -174 -190l-190 40c19 169 144 291 371 291c220 0 350 -122 301 -339l-116 -518c-15 -67 -7 -85 38 -86l38 -2l-51 -143c-11 -3 -30 -4 -45 -4
c-159 0 -182 77 -110 245l-34 7c-71 -166 -162 -252 -313 -252zM356 120c95 0 187 112 225 272l29 117l-128 -37c-140 -40 -222 -123 -222 -239c0 -71 34 -113 96 -113z" />
    <glyph glyph-name="uni0430_uni0301" horiz-adv-x="978" 
d="M656 1142h-147l141 258h198zM264 -21c-133 0 -212 91 -212 217c0 216 167 339 399 400l188 50l27 114c26 111 -29 170 -117 170c-104 0 -164 -69 -174 -190l-190 40c19 169 144 291 371 291c220 0 350 -122 301 -339l-116 -518c-15 -67 -7 -85 38 -86l38 -2l-51 -143
c-11 -3 -30 -4 -45 -4c-159 0 -182 77 -110 245l-34 7c-71 -166 -162 -252 -313 -252zM356 120c95 0 187 112 225 272l29 117l-128 -37c-140 -40 -222 -123 -222 -239c0 -71 34 -113 96 -113z" />
    <glyph glyph-name="uni0431" unicode="&#x431;" horiz-adv-x="961" 
d="M413 -21c-253 0 -377 189 -315 485l77 372c63 301 149 394 391 450l162 36c72 17 114 36 116 78h168c-3 -135 -103 -184 -264 -220l-161 -35c-162 -36 -208 -108 -275 -304l33 -10c67 140 172 199 290 199c194 0 293 -163 229 -449l-43 -196
c-57 -255 -186 -406 -408 -406zM418 119c110 0 164 97 202 263l54 235c42 180 -8 272 -122 272c-102 0 -176 -86 -214 -261l-50 -228c-39 -178 12 -281 130 -281z" />
    <glyph glyph-name="uni0432" unicode="&#x432;" horiz-adv-x="957" 
d="M441 0h-401l230 1050h366c154 0 243 -73 242 -207c1 -144 -78 -256 -215 -273l-3 -33c88 -14 138 -67 142 -166c7 -219 -137 -371 -361 -371zM439 908l-63 -287h137c103 0 169 77 169 193c0 65 -36 94 -109 94h-134zM348 492l-77 -350h145c117 0 188 89 189 234
c0 79 -39 116 -118 116h-139z" />
    <glyph glyph-name="uni0433" unicode="&#x433;" horiz-adv-x="778" 
d="M240 0h-200l230 1050h539l-34 -154h-339z" />
    <glyph glyph-name="uni0453" unicode="&#x453;" horiz-adv-x="778" 
d="M614 1142h-147l141 258h198zM240 0h-200l230 1050h539l-34 -154h-339z" />
    <glyph glyph-name="uni0491" unicode="&#x491;" horiz-adv-x="778" 
d="M645 1050l33 154h164l-33 -154l-34 -154h-339l-196 -896h-200l230 1050h375z" />
    <glyph glyph-name="uni0493" unicode="&#x493;" horiz-adv-x="818" 
d="M849 1050l-33 -154h-339l-68 -309h233l-31 -141h-232l-98 -446h-200l98 446h-128l31 141h128l101 463h538z" />
    <glyph glyph-name="uni0434" unicode="&#x434;" horiz-adv-x="1060" 
d="M110 -185h-165l73 339h64c123 201 158 362 278 896h606l-198 -896h100l-72 -339h-164l40 185h-521zM248 182l11 -28h309l164 742h-226c-86 -379 -147 -585 -258 -714z" />
    <glyph glyph-name="uni0435" unicode="&#x435;" horiz-adv-x="952" 
d="M824 481h-529l-19 -87c-41 -180 15 -275 133 -275c95 0 156 64 204 213l178 -43c-59 -204 -201 -310 -388 -310c-252 0 -374 186 -309 477l46 206c58 261 189 409 419 409c198 0 321 -116 321 -306c0 -77 -25 -201 -56 -284zM552 930c-115 0 -176 -92 -216 -268l-9 -41
h334l19 85c32 147 -22 224 -128 224z" />
    <glyph glyph-name="uni0435_uni0301" horiz-adv-x="952" 
d="M657 1400h198l-192 -258h-147zM824 481h-529l-19 -87c-41 -180 15 -275 133 -275c95 0 156 64 204 213l178 -43c-59 -204 -201 -310 -388 -310c-252 0 -374 186 -309 477l46 206c58 261 189 409 419 409c198 0 321 -116 321 -306c0 -77 -25 -201 -56 -284zM552 930
c-115 0 -176 -92 -216 -268l-9 -41h334l19 85c32 147 -22 224 -128 224z" />
    <glyph glyph-name="uni0450" unicode="&#x450;" horiz-adv-x="952" 
d="M606 1400l68 -258h-141l-122 258h195zM824 481h-529l-19 -87c-41 -180 15 -275 133 -275c95 0 156 64 204 213l178 -43c-59 -204 -201 -310 -388 -310c-252 0 -374 186 -309 477l46 206c58 261 189 409 419 409c198 0 321 -116 321 -306c0 -77 -25 -201 -56 -284z
M552 930c-115 0 -176 -92 -216 -268l-9 -41h334l19 85c32 147 -22 224 -128 224z" />
    <glyph glyph-name="uni0451" unicode="&#x451;" horiz-adv-x="952" 
d="M400 1372h196l-42 -191h-196zM710 1372h195l-41 -191h-197zM559 1071c198 0 321 -116 321 -306c0 -77 -25 -201 -56 -284h-529l-19 -87c-41 -180 15 -275 133 -275c95 0 156 64 204 213l178 -43c-59 -204 -201 -310 -388 -310c-252 0 -374 186 -309 477l46 206
c58 261 189 409 419 409zM661 621l19 85c32 147 -22 224 -128 224c-115 0 -176 -92 -216 -268l-9 -41h334z" />
    </font>
</defs>
</svg>
