<?xml version="1.0" standalone="no"?>
<!DOCTYPE svg PUBLIC "-//W3C//DTD SVG 1.1//EN" "http://www.w3.org/Graphics/SVG/1.1/DTD/svg11.dtd" >
<svg xmlns="http://www.w3.org/2000/svg" xmlns:xlink="http://www.w3.org/1999/xlink" version="1.1">
<metadata>
Created by FontForge 20230101 at Mon Jun 21 02:23:45 2021
 By Webmaster
Copyright \(c\) 2020 by Alexander Slobzheninov. All rights reserved.
</metadata>
<defs>
<font id="PPRightGroteskText-WideBoldItalic" horiz-adv-x="1599" >
  <font-face 
    font-family="PP Right Grotesk Text Wide"
    font-weight="700"
    font-style="italic"
    font-stretch="expanded"
    units-per-em="2048"
    panose-1="0 0 8 5 0 0 0 0 0 0"
    ascent="1638"
    descent="-410"
    x-height="1050"
    cap-height="1400"
    bbox="-708.75 -475 3080.71 1811"
    underline-thickness="132"
    underline-position="-200"
    slope="-12"
    stemh="224"
    stemv="367"
    unicode-range="U+0020-2BA7"
  />
<missing-glyph horiz-adv-x="1737" 
d="M1465 0h-1417l298 1400h1417zM436 289l55 -11c74 152 168 301 242 401l341 475h-422l-66 -312c-28 -131 -81 -328 -150 -553zM1073 721l-342 -475h423l66 312c26 126 80 325 150 559l-54 11c-74 -155 -169 -306 -243 -407z" />
    <glyph glyph-name=".notdef" horiz-adv-x="1737" 
d="M1465 0h-1417l298 1400h1417zM436 289l55 -11c74 152 168 301 242 401l341 475h-422l-66 -312c-28 -131 -81 -328 -150 -553zM1073 721l-342 -475h423l66 312c26 126 80 325 150 559l-54 11c-74 -155 -169 -306 -243 -407z" />
    <glyph glyph-name="space" unicode=" " horiz-adv-x="567" 
 />
    <glyph glyph-name="A" unicode="A" horiz-adv-x="1565" 
d="M366 0h-378l761 1400h451l153 -1400h-376l-13 213h-484zM744 763l-154 -314h361l-15 315c-7 117 -7 229 -2 340l-41 4c-46 -121 -93 -235 -149 -345z" />
    <glyph glyph-name="B" unicode="B" horiz-adv-x="1558" 
d="M876 0h-808l305 1400h763c240 0 369 -100 369 -287c0 -196 -99 -335 -290 -365l-1 -39c127 -28 193 -109 193 -239c0 -299 -214 -470 -531 -470zM693 1156l-70 -317h284c138 0 221 78 221 205c0 79 -52 112 -153 112h-282zM575 615l-80 -371h290c156 0 239 88 239 235
c0 92 -56 136 -165 136h-284z" />
    <glyph glyph-name="C" unicode="C" horiz-adv-x="1652" 
d="M789 -25c-473 0 -696 285 -601 744l25 115c79 379 330 591 740 591c399 0 637 -205 609 -523l-378 -39c34 194 -63 306 -250 306c-186 0 -296 -112 -346 -350l-38 -168c-58 -275 34 -420 250 -420c175 0 273 96 326 292l364 -75c-76 -304 -330 -473 -701 -473z" />
    <glyph glyph-name="D" unicode="D" horiz-adv-x="1620" 
d="M736 0h-668l305 1400h557c460 0 672 -267 577 -717l-24 -108c-81 -383 -335 -575 -747 -575zM692 1144l-194 -888h249c194 0 314 95 364 337l37 166c53 257 -37 385 -248 385h-208z" />
    <glyph glyph-name="E" unicode="E" horiz-adv-x="1370" 
d="M1139 0h-1071l301 1400h1051l-56 -256h-677l-65 -302h636l-50 -236h-636l-76 -350h698z" />
    <glyph glyph-name="F" unicode="F" horiz-adv-x="1308" 
d="M442 0h-374l298 1400h1019l-55 -256h-644l-68 -317h587l-51 -236h-586z" />
    <glyph glyph-name="G" unicode="G" horiz-adv-x="1682" 
d="M622 -22c-369 0 -532 274 -440 716l29 131c80 388 345 600 758 600c391 0 619 -168 611 -451l-386 -53c15 170 -76 248 -242 248c-196 0 -314 -113 -363 -346l-36 -165c-57 -272 21 -424 220 -424c169 0 288 94 355 275h-240l48 244h624l-164 -753h-312
c18 74 52 159 144 360l-39 18c-169 -294 -320 -400 -567 -400z" />
    <glyph glyph-name="H" unicode="H" horiz-adv-x="1642" 
d="M441 0h-373l301 1400h373l-116 -538h533l116 538h373l-301 -1400h-373l130 606h-533z" />
    <glyph glyph-name="I" unicode="I" horiz-adv-x="741" 
d="M441 0h-373l305 1400h373z" />
    <glyph glyph-name="J" unicode="J" horiz-adv-x="1434" 
d="M626 -25c-373 0 -562 178 -510 551l382 48c-41 -248 14 -351 155 -351c109 0 181 72 210 207l213 970h373l-220 -1000c-62 -285 -252 -425 -603 -425z" />
    <glyph glyph-name="K" unicode="K" horiz-adv-x="1529" 
d="M441 0h-373l305 1400h373l-61 -283c-25 -111 -61 -209 -117 -307l35 -22l610 612h399l-551 -528l254 -872h-380l-158 653l-241 -216z" />
    <glyph glyph-name="L" unicode="L" horiz-adv-x="1316" 
d="M1088 0h-1020l301 1400h373l-246 -1144h647z" />
    <glyph glyph-name="M" unicode="M" horiz-adv-x="2027" 
d="M427 0h-359l305 1400h456l91 -584c19 -131 29 -272 34 -434l39 -3c56 146 137 319 203 435l342 586h494l-305 -1400h-363l77 349c46 214 121 496 180 652l-50 10l-535 -1011h-276l-125 1009l-52 -5c-1 -180 -38 -464 -80 -656z" />
    <glyph glyph-name="N" unicode="N" horiz-adv-x="1647" 
d="M418 0h-350l301 1400h391l199 -502c57 -134 118 -333 145 -462l50 5c1 157 29 401 66 573l83 386h350l-302 -1400h-387l-196 488c-53 128 -117 337 -148 488l-49 -5c2 -140 -28 -389 -70 -583z" />
    <glyph glyph-name="O" unicode="O" horiz-adv-x="1677" 
d="M794 -25c-476 0 -702 285 -607 740l25 114c79 384 332 596 744 596c476 0 703 -288 608 -746l-25 -114c-80 -380 -332 -590 -745 -590zM808 231c189 0 307 115 355 343l38 167c58 276 -37 428 -258 428c-189 0 -307 -117 -355 -349l-38 -167c-58 -274 38 -422 258 -422z
" />
    <glyph glyph-name="P" unicode="P" horiz-adv-x="1500" 
d="M441 0h-373l305 1400h620c312 0 477 -129 477 -383c0 -294 -190 -548 -629 -548h-297zM694 1156l-99 -443h230c193 0 276 119 276 275c0 115 -65 168 -198 168h-209z" />
    <glyph glyph-name="Q" unicode="Q" horiz-adv-x="1677" 
d="M956 1425c476 0 703 -288 608 -746l-25 -114c-76 -363 -310 -571 -691 -589c-14 -71 22 -91 142 -97l216 -10l-87 -233c-427 21 -578 125 -495 353c-359 62 -520 329 -437 726l25 114c79 384 332 596 744 596zM1163 574l38 167c58 276 -37 428 -258 428
c-189 0 -307 -117 -355 -349l-38 -167c-58 -274 38 -422 258 -422c189 0 307 115 355 343z" />
    <glyph glyph-name="R" unicode="R" horiz-adv-x="1558" 
d="M441 0h-373l305 1400h663c311 0 469 -104 469 -322c0 -205 -114 -376 -389 -404l-2 -39c100 -22 141 -79 154 -224l13 -143c13 -144 39 -207 81 -231l-11 -37h-400c-20 51 -32 111 -36 247l-4 134c-4 136 -37 171 -159 171h-187zM694 1156l-80 -360h245
c203 0 264 110 264 222c0 96 -63 138 -189 138h-240z" />
    <glyph glyph-name="S" unicode="S" horiz-adv-x="1565" 
d="M754 -25c-425 0 -660 161 -631 443l374 37c-25 -160 77 -238 282 -238c150 0 228 42 231 140c2 83 -38 122 -227 202l-187 80c-189 81 -308 192 -305 380c3 268 234 406 602 406c401 0 617 -155 587 -421l-342 -36c16 143 -72 215 -254 215c-150 0 -226 -42 -228 -133
c-1 -68 39 -105 232 -186l189 -77c190 -79 310 -187 306 -392c-4 -270 -242 -420 -629 -420z" />
    <glyph glyph-name="T" unicode="T" horiz-adv-x="1399" 
d="M771 0h-373l246 1144h-413l55 256h1200l-56 -256h-413z" />
    <glyph glyph-name="U" unicode="U" horiz-adv-x="1605" 
d="M732 -25c-435 0 -634 193 -562 536l186 889h373l-196 -902c-37 -174 39 -267 216 -267c163 0 260 84 297 252l202 917h372l-207 -947c-70 -317 -294 -478 -681 -478z" />
    <glyph glyph-name="V" unicode="V" horiz-adv-x="1546" 
d="M880 0h-446l-148 1400h377l36 -683c7 -113 5 -300 -5 -433l40 -4c45 136 120 323 176 436l333 684h389z" />
    <glyph glyph-name="W" unicode="W" horiz-adv-x="2174" 
d="M766 0h-454l-26 1400h366l-7 -690c-1 -133 -7 -244 -27 -383l41 -4c40 132 91 271 144 387l304 690h334l9 -690c2 -119 -6 -252 -24 -382l43 -4c36 127 85 263 137 386l289 690h366l-630 -1400h-460l-5 529c0 143 11 293 35 446l-41 4c-44 -161 -96 -313 -157 -449z" />
    <glyph glyph-name="X" unicode="X" horiz-adv-x="1574" 
d="M398 0h-410l602 714l-282 686h398l116 -298c20 -52 31 -125 32 -185l36 -2c22 62 61 134 101 183l251 302h409l-590 -677l301 -723h-404l-128 336c-19 51 -29 124 -30 186l-37 2c-21 -60 -59 -134 -99 -185z" />
    <glyph glyph-name="Y" unicode="Y" horiz-adv-x="1525" 
d="M829 0h-372l116 516l-287 884h371l91 -329c22 -86 38 -170 43 -276l39 -3c48 111 96 192 154 279l227 329h400l-682 -928z" />
    <glyph glyph-name="Z" unicode="Z" horiz-adv-x="1350" 
d="M1124 0h-1123l49 224l668 740c35 39 108 103 167 144l-3 39c-48 -2 -84 -3 -134 -3h-491l56 256h1077l-43 -224l-645 -735c-34 -39 -105 -104 -172 -151l3 -37c39 2 79 3 128 3h518z" />
    <glyph glyph-name="a" unicode="a" horiz-adv-x="1437" 
d="M379 -25c-201 0 -318 99 -317 253c1 256 255 366 545 405l304 38l13 56c22 92 -47 142 -163 142c-127 0 -197 -51 -201 -146l-361 26c12 207 206 326 578 326s559 -143 496 -407l-95 -405c-13 -58 -1 -74 48 -74h44l-70 -205c-35 -6 -74 -9 -117 -9
c-220 0 -256 90 -185 261l-39 10c-89 -175 -249 -271 -480 -271zM559 199c130 0 249 99 290 232l14 52l-168 -25c-164 -25 -249 -70 -250 -165c-1 -63 40 -94 114 -94z" />
    <glyph glyph-name="b" unicode="b" horiz-adv-x="1479" 
d="M818 -18c-197 0 -318 88 -358 281l-42 -5c14 -124 10 -205 -1 -258h-369l306 1400h368l-55 -249c-23 -103 -69 -214 -134 -322l39 -17c123 184 248 258 433 258c289 0 419 -195 349 -537l-23 -103c-60 -291 -238 -448 -513 -448zM715 206c130 0 221 82 253 242l25 112
c38 188 -27 286 -177 286c-136 0 -235 -94 -269 -261l-20 -89c-38 -184 33 -290 188 -290z" />
    <glyph glyph-name="c" unicode="c" horiz-adv-x="1438" 
d="M660 -26c-406 0 -603 223 -530 568l17 81c62 291 276 453 635 453s573 -165 543 -441l-369 -21c24 156 -50 238 -187 238c-136 0 -218 -83 -252 -243l-28 -123c-38 -179 29 -288 185 -288c122 0 209 74 245 219l356 -62c-64 -246 -277 -381 -615 -381z" />
    <glyph glyph-name="d" unicode="d" horiz-adv-x="1484" 
d="M470 -18c-288 0 -416 196 -348 520l23 105c62 300 244 463 516 463c209 0 330 -92 366 -272l41 6c-12 131 -7 228 17 335l56 261h368l-305 -1400h-363c8 54 39 122 107 225l-36 18c-113 -176 -246 -261 -442 -261zM665 206c137 0 234 93 270 260l19 89
c39 184 -32 291 -188 291c-130 0 -220 -83 -253 -242l-24 -112c-39 -187 26 -286 176 -286z" />
    <glyph glyph-name="e" unicode="e" horiz-adv-x="1449" 
d="M1288 431h-811c-31 -160 48 -241 196 -241c120 0 201 48 241 141l350 -54c-78 -186 -279 -302 -604 -302c-403 0 -602 224 -534 549l20 91c61 290 295 460 656 460c341 0 542 -150 542 -390c0 -82 -23 -188 -56 -254zM791 860c-135 0 -223 -72 -265 -214h445l8 40
c24 113 -55 174 -188 174z" />
    <glyph glyph-name="f" unicode="f" horiz-adv-x="1005" 
d="M508 0h-368l179 820h-152l50 230h152l13 50c54 212 200 330 688 326l-24 -219l-135 -8c-137 -8 -164 -31 -180 -105l-10 -44h288l-50 -230h-272z" />
    <glyph glyph-name="g" unicode="g" horiz-adv-x="1388" 
d="M1112 1034c140 -47 221 -133 221 -252c0 -252 -244 -393 -638 -393c-85 0 -161 7 -228 21c-61 -7 -91 -24 -91 -56c0 -38 46 -55 243 -78l201 -25c181 -21 398 -70 398 -268c0 -246 -240 -358 -713 -358c-385 0 -586 74 -586 233c0 124 89 189 268 194l5 41
c-90 36 -141 89 -141 159c0 109 94 167 254 167l6 45c-91 50 -142 123 -142 217c0 253 245 394 642 394c72 0 138 -5 196 -16c-24 207 104 324 353 332l25 -246l-121 -7c-110 -7 -149 -30 -152 -104zM727 577c140 0 246 64 246 187c0 83 -88 123 -196 123
c-141 0 -247 -65 -247 -187c0 -82 88 -123 197 -123zM648 22l-215 20c-27 2 -54 6 -79 9c-82 -24 -123 -62 -123 -116c0 -77 71 -110 330 -110c251 0 360 30 360 102c0 50 -66 76 -273 95z" />
    <glyph glyph-name="h" unicode="h" horiz-adv-x="1457" 
d="M417 0h-369l306 1400h368l-66 -304c-25 -110 -55 -175 -130 -281l37 -22c139 186 270 275 483 275c239 0 349 -128 301 -350l-152 -718h-369l141 646c25 116 -21 180 -136 180c-149 0 -267 -131 -313 -351z" />
    <glyph glyph-name="i" unicode="i" horiz-adv-x="694" 
d="M670 1162h-369l51 238h369zM417 0h-369l230 1050h368z" />
    <glyph glyph-name="j" unicode="j" horiz-adv-x="694" 
d="M670 1162h-369l51 238h369zM-171 -373l-29 230l94 7c97 7 132 36 152 125l231 1061h369l-215 -987c-75 -335 -255 -437 -602 -436z" />
    <glyph glyph-name="k" unicode="k" horiz-adv-x="1344" 
d="M417 0h-369l306 1400h368l-76 -350c-31 -144 -96 -316 -159 -422l31 -20l456 442h392l-413 -370l187 -680h-367l-111 491l-173 -150z" />
    <glyph glyph-name="l" unicode="l" horiz-adv-x="696" 
d="M417 0h-369l306 1400h368z" />
    <glyph glyph-name="m" unicode="m" horiz-adv-x="2135" 
d="M417 0h-369l230 1050h358c-4 -61 -35 -126 -109 -235l38 -21c136 195 267 274 454 274c198 0 286 -97 235 -269l38 -16c131 198 271 285 469 285c216 0 315 -117 269 -327l-159 -741h-368l142 655c22 103 -14 171 -113 171c-134 0 -239 -130 -281 -328l-108 -498h-367
l141 654c23 105 -13 172 -111 172c-134 0 -239 -131 -283 -332z" />
    <glyph glyph-name="n" unicode="n" horiz-adv-x="1457" 
d="M417 0h-369l230 1050h359c-6 -64 -36 -129 -111 -235l37 -22c139 186 270 275 483 275c239 0 349 -128 301 -350l-152 -718h-369l141 646c25 116 -19 180 -134 180c-149 0 -269 -131 -315 -351z" />
    <glyph glyph-name="o" unicode="o" horiz-adv-x="1446" 
d="M666 -25c-405 0 -606 227 -536 566l17 83c61 291 284 452 633 452c403 0 607 -228 537 -567l-18 -83c-60 -290 -283 -451 -633 -451zM677 199c131 0 217 79 251 242l29 125c37 179 -32 286 -188 286c-133 0 -218 -79 -252 -242l-28 -124c-38 -181 31 -287 188 -287z" />
    <glyph glyph-name="p" unicode="p" horiz-adv-x="1484" 
d="M1014 1068c288 0 416 -196 348 -520l-23 -105c-62 -300 -244 -463 -516 -463c-209 0 -330 92 -366 272l-41 -6c12 -131 7 -228 -17 -335l-56 -261h-368l305 1400h363c-8 -54 -39 -122 -107 -225l36 -18c113 176 246 261 442 261zM819 844c-137 0 -234 -93 -270 -260
l-19 -89c-39 -184 32 -291 188 -291c130 0 220 83 253 242l24 112c39 187 -26 286 -176 286z" />
    <glyph glyph-name="q" unicode="q" horiz-adv-x="1479" 
d="M661 1068c197 0 318 -88 358 -281l42 5c-14 124 -10 205 1 258h369l-306 -1400h-368l55 249c23 103 69 214 134 322l-39 17c-123 -184 -248 -258 -433 -258c-289 0 -419 195 -349 537l23 103c60 291 238 448 513 448zM764 844c-130 0 -221 -82 -253 -242l-25 -112
c-38 -188 27 -286 177 -286c136 0 235 94 269 261l20 89c38 184 -33 290 -188 290z" />
    <glyph glyph-name="r" unicode="r" horiz-adv-x="1061" 
d="M417 0h-369l230 1050h359c-6 -64 -36 -129 -111 -235l37 -22c154 211 265 275 485 289l-35 -297l-156 -12c-207 -16 -298 -107 -353 -366z" />
    <glyph glyph-name="s" unicode="s" horiz-adv-x="1363" 
d="M628 -23c-397 0 -573 124 -553 352l357 20c-11 -110 53 -170 203 -170c113 0 176 26 178 89s-54 98 -203 152l-148 54c-148 53 -269 130 -266 278c5 205 174 322 529 322c382 0 552 -118 534 -322l-350 -27c8 103 -51 147 -185 147c-110 0 -166 -21 -168 -79
c-2 -54 35 -84 186 -137l152 -53c152 -53 292 -128 289 -301c-6 -209 -178 -325 -555 -325z" />
    <glyph glyph-name="t" unicode="t" horiz-adv-x="1030" 
d="M521 -23c-245 0 -357 116 -312 325l112 518h-154l50 230h154l59 256l381 71l-72 -327h297l-50 -230h-297l-100 -461c-19 -85 21 -126 114 -126c58 0 104 9 159 27l-67 -233c-86 -34 -166 -50 -274 -50z" />
    <glyph glyph-name="u" unicode="u" horiz-adv-x="1457" 
d="M1040 1050h369l-230 -1050h-359c6 64 36 129 112 235l-37 22c-140 -186 -271 -275 -484 -275c-239 0 -349 128 -301 350l152 718h369l-140 -646c-25 -116 19 -180 133 -180c149 0 269 131 316 351z" />
    <glyph glyph-name="v" unicode="v" horiz-adv-x="1416" 
d="M827 0h-471l-154 1050h363l52 -454c10 -94 14 -190 8 -305l40 -4c43 117 89 214 139 309l246 454h388z" />
    <glyph glyph-name="w" unicode="w" horiz-adv-x="1964" 
d="M696 0h-419l-75 1050h344l14 -502c1 -95 -2 -205 -8 -266l41 -4c27 87 69 199 102 270l228 502h357l14 -501c1 -84 -3 -194 -10 -266l41 -4c23 78 64 185 97 257l235 514h330l-530 -1050h-422l-10 404c-1 102 8 246 23 346l-42 4c-30 -107 -82 -251 -126 -348z" />
    <glyph glyph-name="x" unicode="x" horiz-adv-x="1387" 
d="M365 0h-387l478 533l-233 517h396l66 -176c17 -44 30 -103 32 -174l36 -3c33 71 70 129 105 171l152 182h382l-457 -505l250 -545h-403l-77 211c-15 41 -27 96 -32 162l-35 3c-26 -61 -62 -114 -99 -159z" />
    <glyph glyph-name="y" unicode="y" horiz-adv-x="1413" 
d="M7 -374l-6 248l143 9c132 8 179 37 210 86l30 49l-182 1032h370l54 -492c11 -94 11 -182 2 -299l39 -4c46 121 86 209 135 303l254 492h379l-482 -854c-263 -441 -460 -545 -946 -570z" />
    <glyph glyph-name="z" unicode="z" horiz-adv-x="1250" 
d="M1023 0h-1016l39 204l525 467c28 25 88 72 169 114l-7 38c-43 -2 -73 -3 -119 -3h-415l49 230h979l-38 -204l-519 -461c-27 -24 -92 -70 -180 -120l8 -39c44 3 89 4 140 4h435z" />
    <glyph glyph-name="Aacute" unicode="&#xc1;" horiz-adv-x="1565" 
d="M1101 1488h-248l152 231h343zM366 0h-378l761 1400h451l153 -1400h-376l-13 213h-484zM744 763l-154 -314h361l-15 315c-7 117 -7 229 -2 340l-41 4c-46 -121 -93 -235 -149 -345z" />
    <glyph glyph-name="Abreve" unicode="&#x102;" horiz-adv-x="1565" 
d="M1007 1479c-248 0 -354 78 -338 242h237c-5 -58 36 -89 119 -89c84 0 133 30 146 89h244c-32 -165 -164 -242 -408 -242zM366 0h-378l761 1400h451l153 -1400h-376l-13 213h-484zM744 763l-154 -314h361l-15 315c-7 117 -7 229 -2 340l-41 4c-46 -121 -93 -235 -149 -345
z" />
    <glyph glyph-name="Acircumflex" unicode="&#xc2;" horiz-adv-x="1565" 
d="M866 1488h-293l296 231h319l216 -231h-279l-114 88zM366 0h-378l761 1400h451l153 -1400h-376l-13 213h-484zM744 763l-154 -314h361l-15 315c-7 117 -7 229 -2 340l-41 4c-46 -121 -93 -235 -149 -345z" />
    <glyph glyph-name="Adieresis" unicode="&#xc4;" horiz-adv-x="1565" 
d="M930 1496h-332l49 228h332zM1397 1496h-333l50 228h333zM366 0h-378l761 1400h451l153 -1400h-376l-13 213h-484zM744 763l-154 -314h361l-15 315c-7 117 -7 229 -2 340l-41 4c-46 -121 -93 -235 -149 -345z" />
    <glyph glyph-name="Agrave" unicode="&#xc0;" horiz-adv-x="1565" 
d="M1109 1488h-243l-189 231h335zM366 0h-378l761 1400h451l153 -1400h-376l-13 213h-484zM744 763l-154 -314h361l-15 315c-7 117 -7 229 -2 340l-41 4c-46 -121 -93 -235 -149 -345z" />
    <glyph glyph-name="Amacron" unicode="&#x100;" horiz-adv-x="1565" 
d="M1369 1506h-746l40 183h745zM366 0h-378l761 1400h451l153 -1400h-376l-13 213h-484zM744 763l-154 -314h361l-15 315c-7 117 -7 229 -2 340l-41 4c-46 -121 -93 -235 -149 -345z" />
    <glyph glyph-name="Aogonek" unicode="&#x104;" horiz-adv-x="1565" 
d="M1183 -107c0 -26 25 -41 61 -41c25 0 47 4 68 10l-53 -176c-40 -15 -79 -23 -132 -23c-127 0 -196 54 -196 148c0 80 52 148 166 189h-120l-13 213h-484l-114 -213h-378l761 1400h451l153 -1400c-123 -34 -170 -66 -170 -107zM744 763l-154 -314h361l-15 315
c-7 117 -7 229 -2 340l-41 4c-46 -121 -93 -235 -149 -345z" />
    <glyph glyph-name="Aring" unicode="&#xc5;" horiz-adv-x="1565" 
d="M1027 1460c-160 0 -253 65 -253 175c0 111 93 176 253 176s253 -65 253 -176c0 -110 -93 -175 -253 -175zM1027 1575c50 0 79 23 79 60c0 39 -29 61 -79 61s-78 -22 -78 -61c0 -37 28 -60 78 -60zM366 0h-378l761 1400h451l153 -1400h-376l-13 213h-484zM744 763
l-154 -314h361l-15 315c-7 117 -7 229 -2 340l-41 4c-46 -121 -93 -235 -149 -345z" />
    <glyph glyph-name="Atilde" unicode="&#xc3;" horiz-adv-x="1565" 
d="M1176 1482c-142 0 -244 93 -316 93c-44 0 -68 -25 -85 -86h-179c31 165 120 251 264 251c147 0 241 -93 320 -93c42 0 67 25 82 86h180c-31 -165 -125 -251 -266 -251zM366 0h-378l761 1400h451l153 -1400h-376l-13 213h-484zM744 763l-154 -314h361l-15 315
c-7 117 -7 229 -2 340l-41 4c-46 -121 -93 -235 -149 -345z" />
    <glyph glyph-name="AE" unicode="&#xc6;" horiz-adv-x="2048" 
d="M326 0h-376l919 1400h1229l-55 -256h-672l-65 -303h631l-51 -236h-630l-76 -349h692l-55 -256h-1001l51 227h-399zM886 889l-275 -426h304l164 692l-51 5c-37 -82 -93 -190 -142 -271z" />
    <glyph glyph-name="AEacute" unicode="&#x1fc;" horiz-adv-x="2048" 
d="M1264 1488h-248l152 231h343zM326 0h-376l919 1400h1229l-55 -256h-672l-65 -303h631l-51 -236h-630l-76 -349h692l-55 -256h-1001l51 227h-399zM886 889l-275 -426h304l164 692l-51 5c-37 -82 -93 -190 -142 -271z" />
    <glyph glyph-name="Cacute" unicode="&#x106;" horiz-adv-x="1652" 
d="M1136 1488h-248l152 231h343zM789 -25c-473 0 -696 285 -601 744l25 115c79 379 330 591 740 591c399 0 637 -205 609 -523l-378 -39c34 194 -63 306 -250 306c-186 0 -296 -112 -346 -350l-38 -168c-58 -275 34 -420 250 -420c175 0 273 96 326 292l364 -75
c-76 -304 -330 -473 -701 -473z" />
    <glyph glyph-name="Ccaron" unicode="&#x10c;" horiz-adv-x="1652" 
d="M1203 1718h293l-297 -231h-319l-216 231h279l114 -88zM789 -25c-473 0 -696 285 -601 744l25 115c79 379 330 591 740 591c399 0 637 -205 609 -523l-378 -39c34 194 -63 306 -250 306c-186 0 -296 -112 -346 -350l-38 -168c-58 -275 34 -420 250 -420
c175 0 273 96 326 292l364 -75c-76 -304 -330 -473 -701 -473z" />
    <glyph glyph-name="Ccedilla" unicode="&#xc7;" horiz-adv-x="1652" 
d="M1562 902l-378 -39c34 194 -63 306 -250 306c-186 0 -296 -112 -346 -350l-38 -168c-58 -275 34 -420 250 -420c175 0 273 96 326 292l364 -75c-75 -301 -325 -470 -691 -473l-19 -48c138 -13 214 -54 214 -143c0 -103 -89 -157 -242 -157c-84 0 -162 19 -226 51l43 128
c46 -25 101 -39 154 -39s79 16 79 43c0 43 -77 57 -207 62l38 115c-365 57 -529 327 -445 732l25 115c79 379 330 591 740 591c399 0 637 -205 609 -523z" />
    <glyph glyph-name="Cdotaccent" unicode="&#x10a;" horiz-adv-x="1652" 
d="M1195 1496h-326l49 228h326zM789 -25c-473 0 -696 285 -601 744l25 115c79 379 330 591 740 591c399 0 637 -205 609 -523l-378 -39c34 194 -63 306 -250 306c-186 0 -296 -112 -346 -350l-38 -168c-58 -275 34 -420 250 -420c175 0 273 96 326 292l364 -75
c-76 -304 -330 -473 -701 -473z" />
    <glyph glyph-name="Eth" unicode="&#xd0;" horiz-adv-x="1624" 
d="M377 1400h557c459 0 672 -267 577 -717l-25 -108c-81 -383 -334 -575 -747 -575h-667l133 609h-103l49 224h102zM1115 593l37 166c53 257 -37 385 -248 385h-209l-68 -311h267l-49 -224h-266l-77 -353h249c193 0 314 95 364 337z" />
    <glyph glyph-name="Dcaron" unicode="&#x10e;" horiz-adv-x="1620" 
d="M1159 1718h293l-297 -231h-319l-216 231h279l114 -88zM736 0h-668l305 1400h557c460 0 672 -267 577 -717l-24 -108c-81 -383 -335 -575 -747 -575zM692 1144l-194 -888h249c194 0 314 95 364 337l37 166c53 257 -37 385 -248 385h-208z" />
    <glyph glyph-name="Dcroat" unicode="&#x110;" horiz-adv-x="1624" 
d="M377 1400h557c459 0 672 -267 577 -717l-25 -108c-81 -383 -334 -575 -747 -575h-667l133 609h-103l49 224h102zM1115 593l37 166c53 257 -37 385 -248 385h-209l-68 -311h267l-49 -224h-266l-77 -353h249c193 0 314 95 364 337z" />
    <glyph glyph-name="Eacute" unicode="&#xc9;" horiz-adv-x="1370" 
d="M1027 1488h-248l152 231h343zM1139 0h-1071l301 1400h1051l-56 -256h-677l-65 -302h636l-50 -236h-636l-76 -350h698z" />
    <glyph glyph-name="Ecaron" unicode="&#x11a;" horiz-adv-x="1370" 
d="M1094 1718h293l-297 -231h-319l-216 231h279l114 -88zM1139 0h-1071l301 1400h1051l-56 -256h-677l-65 -302h636l-50 -236h-636l-76 -350h698z" />
    <glyph glyph-name="Ecircumflex" unicode="&#xca;" horiz-adv-x="1370" 
d="M791 1488h-293l296 231h319l216 -231h-279l-114 88zM1139 0h-1071l301 1400h1051l-56 -256h-677l-65 -302h636l-50 -236h-636l-76 -350h698z" />
    <glyph glyph-name="Edieresis" unicode="&#xcb;" horiz-adv-x="1370" 
d="M855 1496h-332l49 228h332zM1322 1496h-333l50 228h333zM1139 0h-1071l301 1400h1051l-56 -256h-677l-65 -302h636l-50 -236h-636l-76 -350h698z" />
    <glyph glyph-name="Edotaccent" unicode="&#x116;" horiz-adv-x="1370" 
d="M1086 1496h-326l49 228h326zM1139 0h-1071l301 1400h1051l-56 -256h-677l-65 -302h636l-50 -236h-636l-76 -350h698z" />
    <glyph glyph-name="Egrave" unicode="&#xc8;" horiz-adv-x="1370" 
d="M1034 1488h-243l-189 231h335zM1139 0h-1071l301 1400h1051l-56 -256h-677l-65 -302h636l-50 -236h-636l-76 -350h698z" />
    <glyph glyph-name="Emacron" unicode="&#x112;" horiz-adv-x="1370" 
d="M1295 1506h-746l40 183h745zM1139 0h-1071l301 1400h1051l-56 -256h-677l-65 -302h636l-50 -236h-636l-76 -350h698z" />
    <glyph glyph-name="Eogonek" unicode="&#x118;" horiz-adv-x="1370" 
d="M1420 1400l-56 -256h-677l-65 -302h636l-50 -236h-636l-76 -350h698l-55 -256h-5c-123 -34 -170 -66 -170 -107c0 -26 25 -41 61 -41c25 0 47 4 68 10l-53 -176c-40 -15 -79 -23 -132 -23c-127 0 -196 54 -196 148c0 80 52 148 166 189h-810l301 1400h1051z" />
    <glyph glyph-name="uni1EBC" unicode="&#x1ebc;" horiz-adv-x="1370" 
d="M1101 1482c-142 0 -244 93 -316 93c-44 0 -68 -25 -85 -86h-179c31 165 120 251 264 251c147 0 241 -93 320 -93c42 0 67 25 82 86h180c-31 -165 -125 -251 -266 -251zM1139 0h-1071l301 1400h1051l-56 -256h-677l-65 -302h636l-50 -236h-636l-76 -350h698z" />
    <glyph glyph-name="Gbreve" unicode="&#x11e;" horiz-adv-x="1682" 
d="M1058 1479c-248 0 -354 78 -338 242h237c-5 -58 36 -89 119 -89c84 0 133 30 146 89h244c-32 -165 -164 -242 -408 -242zM622 -22c-369 0 -532 274 -440 716l29 131c80 388 345 600 758 600c391 0 619 -168 611 -451l-386 -53c15 170 -76 248 -242 248
c-196 0 -314 -113 -363 -346l-36 -165c-57 -272 21 -424 220 -424c169 0 288 94 355 275h-240l48 244h624l-164 -753h-312c18 74 52 159 144 360l-39 18c-169 -294 -320 -400 -567 -400z" />
    <glyph glyph-name="Gcaron" unicode="&#x1e6;" horiz-adv-x="1682" 
d="M1220 1718h293l-297 -231h-319l-216 231h279l114 -88zM622 -22c-369 0 -532 274 -440 716l29 131c80 388 345 600 758 600c391 0 619 -168 611 -451l-386 -53c15 170 -76 248 -242 248c-196 0 -314 -113 -363 -346l-36 -165c-57 -272 21 -424 220 -424
c169 0 288 94 355 275h-240l48 244h624l-164 -753h-312c18 74 52 159 144 360l-39 18c-169 -294 -320 -400 -567 -400z" />
    <glyph glyph-name="uni0122" unicode="&#x122;" horiz-adv-x="1682" 
d="M622 -22c-369 0 -532 274 -440 716l29 131c80 388 345 600 758 600c391 0 619 -168 611 -451l-386 -53c15 170 -76 248 -242 248c-196 0 -314 -113 -363 -346l-36 -165c-57 -272 21 -424 220 -424c169 0 288 94 355 275h-240l48 244h624l-164 -753h-312
c18 74 52 159 144 360l-39 18c-169 -294 -320 -400 -567 -400zM509 -392l-9 77c101 5 124 21 134 72h-119l34 155h304l-23 -107c-32 -146 -92 -192 -321 -197z" />
    <glyph glyph-name="Gdotaccent" unicode="&#x120;" horiz-adv-x="1682" 
d="M1211 1496h-326l49 228h326zM622 -22c-369 0 -532 274 -440 716l29 131c80 388 345 600 758 600c391 0 619 -168 611 -451l-386 -53c15 170 -76 248 -242 248c-196 0 -314 -113 -363 -346l-36 -165c-57 -272 21 -424 220 -424c169 0 288 94 355 275h-240l48 244h624
l-164 -753h-312c18 74 52 159 144 360l-39 18c-169 -294 -320 -400 -567 -400z" />
    <glyph glyph-name="Hbar" unicode="&#x126;" horiz-adv-x="1646" 
d="M1606 1151h109l-48 -224h-109l-197 -927h-374l91 429h-551l-92 -429h-374l197 927h-109l48 224h109l53 249h374l-53 -249h552l53 249h374zM581 685h552l51 242h-552z" />
    <glyph glyph-name="Iacute" unicode="&#xcd;" horiz-adv-x="741" 
d="M685 1488h-248l152 231h343zM441 0h-373l305 1400h373z" />
    <glyph glyph-name="Icircumflex" unicode="&#xce;" horiz-adv-x="741" 
d="M511 1488h-194l172 231h274l79 -231h-186l-54 105zM441 0h-373l305 1400h373z" />
    <glyph glyph-name="Idieresis" unicode="&#xcf;" horiz-adv-x="741" 
d="M538 1493h-226l51 235h226zM824 1493h-225l51 235h226zM441 0h-373l305 1400h373z" />
    <glyph glyph-name="Idotaccent" unicode="&#x130;" horiz-adv-x="741" 
d="M744 1496h-326l49 228h326zM441 0h-373l305 1400h373z" />
    <glyph glyph-name="Igrave" unicode="&#xcc;" horiz-adv-x="741" 
d="M693 1488h-243l-189 231h335zM441 0h-373l305 1400h373z" />
    <glyph glyph-name="Imacron" unicode="&#x12a;" horiz-adv-x="741" 
d="M823 1534h-468l36 168h468zM441 0h-373l305 1400h373z" />
    <glyph glyph-name="Iogonek" unicode="&#x12e;" horiz-adv-x="741" 
d="M746 1400l-305 -1400c-123 -34 -170 -66 -170 -107c0 -26 25 -41 61 -41c25 0 47 4 68 10l-53 -176c-40 -15 -79 -23 -132 -23c-127 0 -196 54 -196 148c0 80 52 148 166 189h-117l305 1400h373z" />
    <glyph glyph-name="Itilde" unicode="&#x128;" horiz-adv-x="741" 
d="M689 1486c-71 0 -128 61 -167 61c-25 0 -39 -18 -44 -54h-138c22 170 77 251 172 251c69 0 133 -63 173 -63c24 0 38 19 44 55h138c-26 -170 -82 -250 -178 -250zM441 0h-373l305 1400h373z" />
    <glyph glyph-name="uni004A0301" horiz-adv-x="1434" 
d="M1388 1488h-248l152 231h343zM626 -25c-373 0 -562 178 -510 551l382 48c-41 -248 14 -351 155 -351c109 0 181 72 210 207l213 970h373l-220 -1000c-62 -285 -252 -425 -603 -425z" />
    <glyph glyph-name="uni0136" unicode="&#x136;" horiz-adv-x="1529" 
d="M441 0h-373l305 1400h373l-61 -283c-25 -111 -61 -209 -117 -307l35 -22l610 612h399l-551 -528l254 -872h-380l-158 653l-241 -216zM462 -392l-9 77c101 5 124 21 134 72h-119l34 155h304l-23 -107c-32 -146 -92 -192 -321 -197z" />
    <glyph glyph-name="Lacute" unicode="&#x139;" horiz-adv-x="1316" 
d="M681 1488h-248l152 231h343zM1088 0h-1020l301 1400h373l-246 -1144h647z" />
    <glyph glyph-name="Lcaron" unicode="&#x13d;" horiz-adv-x="1316" 
d="M1088 0h-1020l301 1400h373l-246 -1144h647zM1003 1044h-196l93 356h253z" />
    <glyph glyph-name="uni013B" unicode="&#x13b;" horiz-adv-x="1316" 
d="M1088 0h-1020l301 1400h373l-246 -1144h647zM362 -392l-9 77c101 5 124 21 134 72h-119l34 155h304l-23 -107c-32 -146 -92 -192 -321 -197z" />
    <glyph glyph-name="Ldot" unicode="&#x13f;" horiz-adv-x="1372" 
d="M1088 0h-1020l301 1400h373l-246 -1144h647zM807 663l69 317h373l-69 -317h-373z" />
    <glyph glyph-name="Lslash" unicode="&#x141;" horiz-adv-x="1338" 
d="M604 651l-85 -395h647l-56 -256h-1019l118 549l-141 -36l55 253l140 36l129 598h372l-106 -496l331 85l-55 -253z" />
    <glyph glyph-name="Nacute" unicode="&#x143;" horiz-adv-x="1647" 
d="M1136 1488h-248l152 231h343zM418 0h-350l301 1400h391l199 -502c57 -134 118 -333 145 -462l50 5c1 157 29 401 66 573l83 386h350l-302 -1400h-387l-196 488c-53 128 -117 337 -148 488l-49 -5c2 -140 -28 -389 -70 -583z" />
    <glyph glyph-name="Ncaron" unicode="&#x147;" horiz-adv-x="1647" 
d="M1204 1718h293l-297 -231h-319l-216 231h279l114 -88zM418 0h-350l301 1400h391l199 -502c57 -134 118 -333 145 -462l50 5c1 157 29 401 66 573l83 386h350l-302 -1400h-387l-196 488c-53 128 -117 337 -148 488l-49 -5c2 -140 -28 -389 -70 -583z" />
    <glyph glyph-name="uni0145" unicode="&#x145;" horiz-adv-x="1647" 
d="M418 0h-350l301 1400h391l199 -502c57 -134 118 -333 145 -462l50 5c1 157 29 401 66 573l83 386h350l-302 -1400h-387l-196 488c-53 128 -117 337 -148 488l-49 -5c2 -140 -28 -389 -70 -583zM493 -392l-9 77c101 5 124 21 134 72h-119l34 155h304l-23 -107
c-32 -146 -92 -192 -321 -197z" />
    <glyph glyph-name="Eng" unicode="&#x14a;" horiz-adv-x="1647" 
d="M700 -373l-25 240l98 6c130 7 166 36 185 132l-192 522c-49 113 -108 283 -137 428l-47 -4c-1 -118 -26 -310 -64 -487l-100 -464h-350l301 1400h391l202 -541c52 -116 108 -276 133 -403l48 5c3 132 27 321 60 476l100 463h350l-300 -1388c-59 -273 -233 -381 -653 -385
z" />
    <glyph glyph-name="Ntilde" unicode="&#xd1;" horiz-adv-x="1647" 
d="M1211 1482c-142 0 -244 93 -316 93c-44 0 -68 -25 -85 -86h-179c31 165 120 251 264 251c147 0 241 -93 320 -93c42 0 67 25 82 86h180c-31 -165 -125 -251 -266 -251zM418 0h-350l301 1400h391l199 -502c57 -134 118 -333 145 -462l50 5c1 157 29 401 66 573l83 386h350
l-302 -1400h-387l-196 488c-53 128 -117 337 -148 488l-49 -5c2 -140 -28 -389 -70 -583z" />
    <glyph glyph-name="Oacute" unicode="&#xd3;" horiz-adv-x="1677" 
d="M1114 1488h-248l152 231h343zM794 -25c-476 0 -702 285 -607 740l25 114c79 384 332 596 744 596c476 0 703 -288 608 -746l-25 -114c-80 -380 -332 -590 -745 -590zM808 231c189 0 307 115 355 343l38 167c58 276 -37 428 -258 428c-189 0 -307 -117 -355 -349l-38 -167
c-58 -274 38 -422 258 -422z" />
    <glyph glyph-name="Ocircumflex" unicode="&#xd4;" horiz-adv-x="1677" 
d="M879 1488h-293l296 231h319l216 -231h-279l-114 88zM794 -25c-476 0 -702 285 -607 740l25 114c79 384 332 596 744 596c476 0 703 -288 608 -746l-25 -114c-80 -380 -332 -590 -745 -590zM808 231c189 0 307 115 355 343l38 167c58 276 -37 428 -258 428
c-189 0 -307 -117 -355 -349l-38 -167c-58 -274 38 -422 258 -422z" />
    <glyph glyph-name="Odieresis" unicode="&#xd6;" horiz-adv-x="1677" 
d="M943 1496h-332l49 228h332zM1410 1496h-333l50 228h333zM794 -25c-476 0 -702 285 -607 740l25 114c79 384 332 596 744 596c476 0 703 -288 608 -746l-25 -114c-80 -380 -332 -590 -745 -590zM808 231c189 0 307 115 355 343l38 167c58 276 -37 428 -258 428
c-189 0 -307 -117 -355 -349l-38 -167c-58 -274 38 -422 258 -422z" />
    <glyph glyph-name="Ograve" unicode="&#xd2;" horiz-adv-x="1677" 
d="M1122 1488h-243l-189 231h335zM794 -25c-476 0 -702 285 -607 740l25 114c79 384 332 596 744 596c476 0 703 -288 608 -746l-25 -114c-80 -380 -332 -590 -745 -590zM808 231c189 0 307 115 355 343l38 167c58 276 -37 428 -258 428c-189 0 -307 -117 -355 -349
l-38 -167c-58 -274 38 -422 258 -422z" />
    <glyph glyph-name="Ohungarumlaut" unicode="&#x150;" horiz-adv-x="1689" 
d="M892 1488h-249l152 231h344zM1322 1488h-249l152 231h344zM794 -25c-476 0 -702 285 -607 740l25 114c79 384 332 596 744 596c476 0 703 -288 608 -746l-25 -114c-80 -380 -332 -590 -745 -590zM808 231c189 0 307 115 355 343l38 167c58 276 -37 428 -258 428
c-189 0 -307 -117 -355 -349l-38 -167c-58 -274 38 -422 258 -422z" />
    <glyph glyph-name="Omacron" unicode="&#x14c;" horiz-adv-x="1677" 
d="M1388 1521h-746l40 183h746zM794 -25c-476 0 -702 285 -607 740l25 114c79 384 332 596 744 596c476 0 703 -288 608 -746l-25 -114c-80 -380 -332 -590 -745 -590zM808 231c189 0 307 115 355 343l38 167c58 276 -37 428 -258 428c-189 0 -307 -117 -355 -349l-38 -167
c-58 -274 38 -422 258 -422z" />
    <glyph glyph-name="uni01EA" unicode="&#x1ea;" horiz-adv-x="1677" 
d="M956 1425c476 0 703 -288 608 -746l-25 -114c-68 -321 -258 -520 -564 -575c-98 -30 -136 -60 -136 -97c0 -26 25 -41 61 -41c25 0 47 4 68 10l-53 -176c-40 -15 -79 -23 -132 -23c-127 0 -196 54 -196 148c0 68 37 126 117 168c-414 34 -606 311 -517 736l25 114
c79 384 332 596 744 596zM1163 574l38 167c58 276 -37 428 -258 428c-189 0 -307 -117 -355 -349l-38 -167c-58 -274 38 -422 258 -422c189 0 307 115 355 343z" />
    <glyph glyph-name="Oslash" unicode="&#xd8;" horiz-adv-x="1679" 
d="M1438 1500h290l-249 -282c101 -129 133 -313 86 -539l-25 -115c-79 -380 -332 -589 -745 -589c-139 0 -257 24 -352 70l-128 -145h-289l247 279c-102 128 -133 311 -87 535l25 114c80 384 333 597 746 597c139 0 257 -25 352 -71zM580 819l-37 -166
c-15 -69 -19 -130 -14 -183l582 659c-44 26 -100 40 -166 40c-190 0 -316 -117 -365 -350zM1172 574l38 166c15 72 20 135 14 189l-582 -659c44 -26 100 -39 166 -39c190 0 316 115 364 343z" />
    <glyph glyph-name="Oslashacute" unicode="&#x1fe;" horiz-adv-x="1679" 
d="M1050 1719h343l-247 -231h-248zM1438 1500h290l-249 -282c101 -129 133 -313 86 -539l-25 -115c-79 -380 -332 -589 -745 -589c-139 0 -257 24 -352 70l-128 -145h-289l247 279c-102 128 -133 311 -87 535l25 114c80 384 333 597 746 597c139 0 257 -25 352 -71zM580 819
l-37 -166c-15 -69 -19 -130 -14 -183l582 659c-44 26 -100 40 -166 40c-190 0 -316 -117 -365 -350zM1172 574l38 166c15 72 20 135 14 189l-582 -659c44 -26 100 -39 166 -39c190 0 316 115 364 343z" />
    <glyph glyph-name="Otilde" unicode="&#xd5;" horiz-adv-x="1677" 
d="M1189 1482c-142 0 -244 93 -316 93c-44 0 -68 -25 -85 -86h-179c31 165 120 251 264 251c147 0 241 -93 320 -93c42 0 67 25 82 86h180c-31 -165 -125 -251 -266 -251zM794 -25c-476 0 -702 285 -607 740l25 114c79 384 332 596 744 596c476 0 703 -288 608 -746
l-25 -114c-80 -380 -332 -590 -745 -590zM808 231c189 0 307 115 355 343l38 167c58 276 -37 428 -258 428c-189 0 -307 -117 -355 -349l-38 -167c-58 -274 38 -422 258 -422z" />
    <glyph glyph-name="OE" unicode="&#x152;" horiz-adv-x="2297" 
d="M673 -26c-400 0 -580 297 -487 736l26 119c80 380 313 597 679 597c214 0 366 -76 443 -219l44 193h969l-55 -256h-626l-65 -302h585l-51 -236h-585l-75 -350h646l-55 -256h-990l31 147c-110 -115 -255 -173 -434 -173zM807 233c189 0 308 113 356 342l38 166
c58 278 -35 426 -256 426c-189 0 -308 -114 -357 -347l-38 -167c-57 -274 37 -420 257 -420z" />
    <glyph glyph-name="Thorn" unicode="&#xde;" horiz-adv-x="1499" 
d="M441 0h-373l306 1400h372l-47 -216h247c307 0 477 -136 477 -391c0 -344 -260 -550 -631 -550h-298zM646 940l-99 -453h230c174 0 276 109 276 279c0 118 -68 174 -198 174h-209z" />
    <glyph glyph-name="Racute" unicode="&#x154;" horiz-adv-x="1558" 
d="M1076 1488h-248l152 231h343zM441 0h-373l305 1400h663c311 0 469 -104 469 -322c0 -205 -114 -376 -389 -404l-2 -39c100 -22 141 -79 154 -224l13 -143c13 -144 39 -207 81 -231l-11 -37h-400c-20 51 -32 111 -36 247l-4 134c-4 136 -37 171 -159 171h-187zM694 1156
l-80 -360h245c203 0 264 110 264 222c0 96 -63 138 -189 138h-240z" />
    <glyph glyph-name="Rcaron" unicode="&#x158;" horiz-adv-x="1558" 
d="M1144 1718h293l-297 -231h-319l-216 231h279l114 -88zM441 0h-373l305 1400h663c311 0 469 -104 469 -322c0 -205 -114 -376 -389 -404l-2 -39c100 -22 141 -79 154 -224l13 -143c13 -144 39 -207 81 -231l-11 -37h-400c-20 51 -32 111 -36 247l-4 134
c-4 136 -37 171 -159 171h-187zM694 1156l-80 -360h245c203 0 264 110 264 222c0 96 -63 138 -189 138h-240z" />
    <glyph glyph-name="uni0156" unicode="&#x156;" horiz-adv-x="1558" 
d="M441 0h-373l305 1400h663c311 0 469 -104 469 -322c0 -205 -114 -376 -389 -404l-2 -39c100 -22 141 -79 154 -224l13 -143c13 -144 39 -207 81 -231l-11 -37h-400c-20 51 -32 111 -36 247l-4 134c-4 136 -37 171 -159 171h-187zM694 1156l-80 -360h245
c203 0 264 110 264 222c0 96 -63 138 -189 138h-240zM477 -392l-9 77c101 5 124 21 134 72h-119l34 155h304l-23 -107c-32 -146 -92 -192 -321 -197z" />
    <glyph glyph-name="Sacute" unicode="&#x15a;" horiz-adv-x="1565" 
d="M1081 1488h-248l152 231h343zM754 -25c-425 0 -660 161 -631 443l374 37c-25 -160 77 -238 282 -238c150 0 228 42 231 140c2 83 -38 122 -227 202l-187 80c-189 81 -308 192 -305 380c3 268 234 406 602 406c401 0 617 -155 587 -421l-342 -36c16 143 -72 215 -254 215
c-150 0 -226 -42 -228 -133c-1 -68 39 -105 232 -186l189 -77c190 -79 310 -187 306 -392c-4 -270 -242 -420 -629 -420z" />
    <glyph glyph-name="Scaron" unicode="&#x160;" horiz-adv-x="1565" 
d="M1148 1718h293l-297 -231h-319l-216 231h279l114 -88zM754 -25c-425 0 -660 161 -631 443l374 37c-25 -160 77 -238 282 -238c150 0 228 42 231 140c2 83 -38 122 -227 202l-187 80c-189 81 -308 192 -305 380c3 268 234 406 602 406c401 0 617 -155 587 -421l-342 -36
c16 143 -72 215 -254 215c-150 0 -226 -42 -228 -133c-1 -68 39 -105 232 -186l189 -77c190 -79 310 -187 306 -392c-4 -270 -242 -420 -629 -420z" />
    <glyph glyph-name="Scedilla" unicode="&#x15e;" horiz-adv-x="1565" 
d="M1480 1004l-342 -36c16 143 -72 215 -254 215c-150 0 -226 -42 -228 -133c-1 -68 39 -105 232 -186l189 -77c190 -79 310 -187 306 -392c-4 -263 -230 -412 -600 -420l-19 -48c138 -13 214 -54 214 -143c0 -103 -89 -157 -242 -157c-84 0 -162 19 -226 51l43 128
c46 -25 101 -39 154 -39s79 16 79 43c0 43 -77 57 -207 62l36 109c-336 33 -518 187 -492 437l374 37c-25 -160 77 -238 282 -238c150 0 228 42 231 140c2 83 -38 122 -227 202l-187 80c-189 81 -308 192 -305 380c3 268 234 406 602 406c401 0 617 -155 587 -421z" />
    <glyph glyph-name="uni0218" unicode="&#x218;" horiz-adv-x="1565" 
d="M754 -25c-425 0 -660 161 -631 443l374 37c-25 -160 77 -238 282 -238c150 0 228 42 231 140c2 83 -38 122 -227 202l-187 80c-189 81 -308 192 -305 380c3 268 234 406 602 406c401 0 617 -155 587 -421l-342 -36c16 143 -72 215 -254 215c-150 0 -226 -42 -228 -133
c-1 -68 39 -105 232 -186l189 -77c190 -79 310 -187 306 -392c-4 -270 -242 -420 -629 -420zM497 -392l-9 77c101 5 124 21 134 72h-119l34 155h304l-23 -107c-32 -146 -92 -192 -321 -197z" />
    <glyph glyph-name="uni1E9E" unicode="&#x1e9e;" horiz-adv-x="1526" 
d="M856 -14c-121 0 -227 30 -301 82l86 235c70 -38 133 -69 219 -69c78 0 128 30 128 90c0 36 -18 75 -73 141l-55 64c-55 65 -95 121 -95 189c0 201 342 260 342 381c0 57 -66 102 -193 102c-158 0 -246 -69 -275 -203l-218 -998h-373l221 1000c62 281 264 425 660 425
c371 0 538 -123 538 -283c0 -225 -356 -258 -356 -387c0 -38 22 -78 81 -146l59 -69c59 -68 99 -137 99 -215c0 -212 -187 -339 -494 -339z" />
    <glyph glyph-name="Tbar" unicode="&#x166;" horiz-adv-x="1399" 
d="M1486 1400l-56 -256h-413l-85 -393h223l-49 -224h-222l-113 -527h-373l113 527h-225l48 224h225l85 393h-413l55 256h1200z" />
    <glyph glyph-name="Tcaron" unicode="&#x164;" horiz-adv-x="1399" 
d="M1078 1718h293l-297 -231h-319l-216 231h279l114 -88zM771 0h-373l246 1144h-413l55 256h1200l-56 -256h-413z" />
    <glyph glyph-name="uni0162" unicode="&#x162;" horiz-adv-x="1399" 
d="M231 1144l55 256h1200l-56 -256h-413l-246 -1144h-106l-29 -73c138 -13 214 -54 214 -143c0 -103 -89 -157 -242 -157c-84 0 -162 19 -226 51l43 128c46 -25 101 -39 154 -39s79 16 79 43c0 43 -77 57 -207 62l43 128h-96l246 1144h-413z" />
    <glyph glyph-name="uni021A" unicode="&#x21a;" horiz-adv-x="1399" 
d="M771 0h-373l246 1144h-413l55 256h1200l-56 -256h-413zM369 -392l-9 77c101 5 124 21 134 72h-119l34 155h304l-23 -107c-32 -146 -92 -192 -321 -197z" />
    <glyph glyph-name="Uacute" unicode="&#xda;" horiz-adv-x="1605" 
d="M1114 1488h-248l152 231h343zM732 -25c-435 0 -634 193 -562 536l186 889h373l-196 -902c-37 -174 39 -267 216 -267c163 0 260 84 297 252l202 917h372l-207 -947c-70 -317 -294 -478 -681 -478z" />
    <glyph glyph-name="Ubreve" unicode="&#x16c;" horiz-adv-x="1605" 
d="M1020 1479c-248 0 -354 78 -338 242h237c-5 -58 36 -89 119 -89c84 0 133 30 146 89h244c-32 -165 -164 -242 -408 -242zM732 -25c-435 0 -634 193 -562 536l186 889h373l-196 -902c-37 -174 39 -267 216 -267c163 0 260 84 297 252l202 917h372l-207 -947
c-70 -317 -294 -478 -681 -478z" />
    <glyph glyph-name="Ucircumflex" unicode="&#xdb;" horiz-adv-x="1605" 
d="M879 1488h-293l296 231h319l216 -231h-279l-114 88zM732 -25c-435 0 -634 193 -562 536l186 889h373l-196 -902c-37 -174 39 -267 216 -267c163 0 260 84 297 252l202 917h372l-207 -947c-70 -317 -294 -478 -681 -478z" />
    <glyph glyph-name="Udieresis" unicode="&#xdc;" horiz-adv-x="1605" 
d="M943 1496h-332l49 228h332zM1410 1496h-333l50 228h333zM732 -25c-435 0 -634 193 -562 536l186 889h373l-196 -902c-37 -174 39 -267 216 -267c163 0 260 84 297 252l202 917h372l-207 -947c-70 -317 -294 -478 -681 -478z" />
    <glyph glyph-name="Ugrave" unicode="&#xd9;" horiz-adv-x="1605" 
d="M1122 1488h-243l-189 231h335zM732 -25c-435 0 -634 193 -562 536l186 889h373l-196 -902c-37 -174 39 -267 216 -267c163 0 260 84 297 252l202 917h372l-207 -947c-70 -317 -294 -478 -681 -478z" />
    <glyph glyph-name="Uhungarumlaut" unicode="&#x170;" horiz-adv-x="1607" 
d="M830 1488h-249l152 231h344zM1260 1488h-249l152 231h344zM732 -25c-435 0 -634 193 -562 536l186 889h373l-196 -902c-37 -174 39 -267 216 -267c163 0 260 84 297 252l202 917h372l-207 -947c-70 -317 -294 -478 -681 -478z" />
    <glyph glyph-name="Umacron" unicode="&#x16a;" horiz-adv-x="1605" 
d="M1388 1521h-746l40 183h746zM732 -25c-435 0 -634 193 -562 536l186 889h373l-196 -902c-37 -174 39 -267 216 -267c163 0 260 84 297 252l202 917h372l-207 -947c-70 -317 -294 -478 -681 -478z" />
    <glyph glyph-name="Uogonek" unicode="&#x172;" horiz-adv-x="1605" 
d="M1046 483l202 917h372l-207 -947c-56 -253 -210 -407 -468 -459c-108 -32 -150 -62 -150 -101c0 -26 25 -41 61 -41c25 0 47 4 68 10l-53 -176c-40 -15 -79 -23 -132 -23c-127 0 -196 54 -196 148c0 67 36 125 114 166c-383 22 -555 211 -487 534l186 889h373l-196 -902
c-37 -174 39 -267 216 -267c163 0 260 84 297 252z" />
    <glyph glyph-name="Uring" unicode="&#x16e;" horiz-adv-x="1605" 
d="M1040 1460c-160 0 -253 65 -253 175c0 111 93 176 253 176s253 -65 253 -176c0 -110 -93 -175 -253 -175zM1040 1575c50 0 79 23 79 60c0 39 -29 61 -79 61s-78 -22 -78 -61c0 -37 28 -60 78 -60zM732 -25c-435 0 -634 193 -562 536l186 889h373l-196 -902
c-37 -174 39 -267 216 -267c163 0 260 84 297 252l202 917h372l-207 -947c-70 -317 -294 -478 -681 -478z" />
    <glyph glyph-name="Utilde" unicode="&#x168;" horiz-adv-x="1605" 
d="M1189 1482c-142 0 -244 93 -316 93c-44 0 -68 -25 -85 -86h-179c31 165 120 251 264 251c147 0 241 -93 320 -93c42 0 67 25 82 86h180c-31 -165 -125 -251 -266 -251zM732 -25c-435 0 -634 193 -562 536l186 889h373l-196 -902c-37 -174 39 -267 216 -267
c163 0 260 84 297 252l202 917h372l-207 -947c-70 -317 -294 -478 -681 -478z" />
    <glyph glyph-name="Wacute" unicode="&#x1e82;" horiz-adv-x="2174" 
d="M1400 1488h-248l152 231h343zM766 0h-454l-26 1400h366l-7 -690c-1 -133 -7 -244 -27 -383l41 -4c40 132 91 271 144 387l304 690h334l9 -690c2 -119 -6 -252 -24 -382l43 -4c36 127 85 263 137 386l289 690h366l-630 -1400h-460l-5 529c0 143 11 293 35 446l-41 4
c-44 -161 -96 -313 -157 -449z" />
    <glyph glyph-name="Wcircumflex" unicode="&#x174;" horiz-adv-x="2174" 
d="M1165 1488h-293l296 231h319l216 -231h-279l-114 88zM766 0h-454l-26 1400h366l-7 -690c-1 -133 -7 -244 -27 -383l41 -4c40 132 91 271 144 387l304 690h334l9 -690c2 -119 -6 -252 -24 -382l43 -4c36 127 85 263 137 386l289 690h366l-630 -1400h-460l-5 529
c0 143 11 293 35 446l-41 4c-44 -161 -96 -313 -157 -449z" />
    <glyph glyph-name="Wdieresis" unicode="&#x1e84;" horiz-adv-x="2174" 
d="M1229 1496h-332l49 228h332zM1696 1496h-333l50 228h333zM766 0h-454l-26 1400h366l-7 -690c-1 -133 -7 -244 -27 -383l41 -4c40 132 91 271 144 387l304 690h334l9 -690c2 -119 -6 -252 -24 -382l43 -4c36 127 85 263 137 386l289 690h366l-630 -1400h-460l-5 529
c0 143 11 293 35 446l-41 4c-44 -161 -96 -313 -157 -449z" />
    <glyph glyph-name="Wgrave" unicode="&#x1e80;" horiz-adv-x="2174" 
d="M1408 1488h-243l-189 231h335zM766 0h-454l-26 1400h366l-7 -690c-1 -133 -7 -244 -27 -383l41 -4c40 132 91 271 144 387l304 690h334l9 -690c2 -119 -6 -252 -24 -382l43 -4c36 127 85 263 137 386l289 690h366l-630 -1400h-460l-5 529c0 143 11 293 35 446l-41 4
c-44 -161 -96 -313 -157 -449z" />
    <glyph glyph-name="Yacute" unicode="&#xdd;" horiz-adv-x="1525" 
d="M1075 1488h-248l152 231h343zM829 0h-372l116 516l-287 884h371l91 -329c22 -86 38 -170 43 -276l39 -3c48 111 96 192 154 279l227 329h400l-682 -928z" />
    <glyph glyph-name="Ycircumflex" unicode="&#x176;" horiz-adv-x="1525" 
d="M840 1488h-293l296 231h319l216 -231h-279l-114 88zM829 0h-372l116 516l-287 884h371l91 -329c22 -86 38 -170 43 -276l39 -3c48 111 96 192 154 279l227 329h400l-682 -928z" />
    <glyph glyph-name="Ydieresis" unicode="&#x178;" horiz-adv-x="1525" 
d="M904 1496h-332l49 228h332zM1371 1496h-333l50 228h333zM829 0h-372l116 516l-287 884h371l91 -329c22 -86 38 -170 43 -276l39 -3c48 111 96 192 154 279l227 329h400l-682 -928z" />
    <glyph glyph-name="Ygrave" unicode="&#x1ef2;" horiz-adv-x="1525" 
d="M1083 1488h-243l-189 231h335zM829 0h-372l116 516l-287 884h371l91 -329c22 -86 38 -170 43 -276l39 -3c48 111 96 192 154 279l227 329h400l-682 -928z" />
    <glyph glyph-name="uni1EF8" unicode="&#x1ef8;" horiz-adv-x="1525" 
d="M1150 1482c-142 0 -244 93 -316 93c-44 0 -68 -25 -85 -86h-179c31 165 120 251 264 251c147 0 241 -93 320 -93c42 0 67 25 82 86h180c-31 -165 -125 -251 -266 -251zM829 0h-372l116 516l-287 884h371l91 -329c22 -86 38 -170 43 -276l39 -3c48 111 96 192 154 279
l227 329h400l-682 -928z" />
    <glyph glyph-name="Zacute" unicode="&#x179;" horiz-adv-x="1350" 
d="M982 1488h-248l152 231h343zM1124 0h-1123l49 224l668 740c35 39 108 103 167 144l-3 39c-48 -2 -84 -3 -134 -3h-491l56 256h1077l-43 -224l-645 -735c-34 -39 -105 -104 -172 -151l3 -37c39 2 79 3 128 3h518z" />
    <glyph glyph-name="Zcaron" unicode="&#x17d;" horiz-adv-x="1350" 
d="M1049 1718h293l-297 -231h-319l-216 231h279l114 -88zM1124 0h-1123l49 224l668 740c35 39 108 103 167 144l-3 39c-48 -2 -84 -3 -134 -3h-491l56 256h1077l-43 -224l-645 -735c-34 -39 -105 -104 -172 -151l3 -37c39 2 79 3 128 3h518z" />
    <glyph glyph-name="Zdotaccent" unicode="&#x17b;" horiz-adv-x="1350" 
d="M1041 1496h-326l49 228h326zM1124 0h-1123l49 224l668 740c35 39 108 103 167 144l-3 39c-48 -2 -84 -3 -134 -3h-491l56 256h1077l-43 -224l-645 -735c-34 -39 -105 -104 -172 -151l3 -37c39 2 79 3 128 3h518z" />
    <glyph glyph-name="aacute" unicode="&#xe1;" horiz-adv-x="1437" 
d="M923 1138h-246l153 262h322zM379 -25c-201 0 -318 99 -317 253c1 256 255 366 545 405l304 38l13 56c22 92 -47 142 -163 142c-127 0 -197 -51 -201 -146l-361 26c12 207 206 326 578 326s559 -143 496 -407l-95 -405c-13 -58 -1 -74 48 -74h44l-70 -205
c-35 -6 -74 -9 -117 -9c-220 0 -256 90 -185 261l-39 10c-89 -175 -249 -271 -480 -271zM559 199c130 0 249 99 290 232l14 52l-168 -25c-164 -25 -249 -70 -250 -165c-1 -63 40 -94 114 -94z" />
    <glyph glyph-name="abreve" unicode="&#x103;" horiz-adv-x="1437" 
d="M835 1132c-234 0 -337 93 -319 268h219c-5 -74 27 -109 116 -109c86 0 133 35 151 109h231c-39 -178 -164 -268 -398 -268zM379 -25c-201 0 -318 99 -317 253c1 256 255 366 545 405l304 38l13 56c22 92 -47 142 -163 142c-127 0 -197 -51 -201 -146l-361 26
c12 207 206 326 578 326s559 -143 496 -407l-95 -405c-13 -58 -1 -74 48 -74h44l-70 -205c-35 -6 -74 -9 -117 -9c-220 0 -256 90 -185 261l-39 10c-89 -175 -249 -271 -480 -271zM559 199c130 0 249 99 290 232l14 52l-168 -25c-164 -25 -249 -70 -250 -165
c-1 -63 40 -94 114 -94z" />
    <glyph glyph-name="acircumflex" unicode="&#xe2;" horiz-adv-x="1437" 
d="M697 1138h-269l268 262h343l169 -262h-257l-105 113zM379 -25c-201 0 -318 99 -317 253c1 256 255 366 545 405l304 38l13 56c22 92 -47 142 -163 142c-127 0 -197 -51 -201 -146l-361 26c12 207 206 326 578 326s559 -143 496 -407l-95 -405c-13 -58 -1 -74 48 -74h44
l-70 -205c-35 -6 -74 -9 -117 -9c-220 0 -256 90 -185 261l-39 10c-89 -175 -249 -271 -480 -271zM559 199c130 0 249 99 290 232l14 52l-168 -25c-164 -25 -249 -70 -250 -165c-1 -63 40 -94 114 -94z" />
    <glyph glyph-name="adieresis" unicode="&#xe4;" horiz-adv-x="1437" 
d="M755 1157h-334l50 227h334zM1221 1157h-334l50 227h334zM379 -25c-201 0 -318 99 -317 253c1 256 255 366 545 405l304 38l13 56c22 92 -47 142 -163 142c-127 0 -197 -51 -201 -146l-361 26c12 207 206 326 578 326s559 -143 496 -407l-95 -405c-13 -58 -1 -74 48 -74
h44l-70 -205c-35 -6 -74 -9 -117 -9c-220 0 -256 90 -185 261l-39 10c-89 -175 -249 -271 -480 -271zM559 199c130 0 249 99 290 232l14 52l-168 -25c-164 -25 -249 -70 -250 -165c-1 -63 40 -94 114 -94z" />
    <glyph glyph-name="agrave" unicode="&#xe0;" horiz-adv-x="1437" 
d="M942 1138h-236l-165 262h324zM379 -25c-201 0 -318 99 -317 253c1 256 255 366 545 405l304 38l13 56c22 92 -47 142 -163 142c-127 0 -197 -51 -201 -146l-361 26c12 207 206 326 578 326s559 -143 496 -407l-95 -405c-13 -58 -1 -74 48 -74h44l-70 -205
c-35 -6 -74 -9 -117 -9c-220 0 -256 90 -185 261l-39 10c-89 -175 -249 -271 -480 -271zM559 199c130 0 249 99 290 232l14 52l-168 -25c-164 -25 -249 -70 -250 -165c-1 -63 40 -94 114 -94z" />
    <glyph glyph-name="amacron" unicode="&#x101;" horiz-adv-x="1437" 
d="M1198 1171h-746l40 183h746zM379 -25c-201 0 -318 99 -317 253c1 256 255 366 545 405l304 38l13 56c22 92 -47 142 -163 142c-127 0 -197 -51 -201 -146l-361 26c12 207 206 326 578 326s559 -143 496 -407l-95 -405c-13 -58 -1 -74 48 -74h44l-70 -205
c-35 -6 -74 -9 -117 -9c-220 0 -256 90 -185 261l-39 10c-89 -175 -249 -271 -480 -271zM559 199c130 0 249 99 290 232l14 52l-168 -25c-164 -25 -249 -70 -250 -165c-1 -63 40 -94 114 -94z" />
    <glyph glyph-name="aogonek" unicode="&#x105;" horiz-adv-x="1437" 
d="M1273 668l-95 -405c-13 -58 -1 -74 48 -74h44l-70 -205c-29 -5 -61 -8 -95 -9c-66 -25 -93 -51 -93 -82c0 -26 25 -41 61 -41c25 0 47 4 68 10l-53 -176c-40 -15 -79 -23 -132 -23c-127 0 -196 54 -196 148c0 81 53 149 168 190c-77 38 -79 117 -30 235l-39 10
c-89 -175 -249 -271 -480 -271c-201 0 -318 99 -317 253c1 256 255 366 545 405l304 38l13 56c22 92 -47 142 -163 142c-127 0 -197 -51 -201 -146l-361 26c12 207 206 326 578 326s559 -143 496 -407zM849 431l14 52l-168 -25c-164 -25 -249 -70 -250 -165
c-1 -63 40 -94 114 -94c130 0 249 99 290 232z" />
    <glyph glyph-name="aring" unicode="&#xe5;" horiz-adv-x="1437" 
d="M864 1126c-148 0 -246 90 -246 225s98 224 246 224s245 -89 245 -224s-97 -225 -245 -225zM864 1270c47 0 80 34 80 81s-33 80 -80 80s-80 -33 -80 -80s33 -81 80 -81zM379 -25c-201 0 -318 99 -317 253c1 256 255 366 545 405l304 38l13 56c22 92 -47 142 -163 142
c-127 0 -197 -51 -201 -146l-361 26c12 207 206 326 578 326s559 -143 496 -407l-95 -405c-13 -58 -1 -74 48 -74h44l-70 -205c-35 -6 -74 -9 -117 -9c-220 0 -256 90 -185 261l-39 10c-89 -175 -249 -271 -480 -271zM559 199c130 0 249 99 290 232l14 52l-168 -25
c-164 -25 -249 -70 -250 -165c-1 -63 40 -94 114 -94z" />
    <glyph glyph-name="atilde" unicode="&#xe3;" horiz-adv-x="1437" 
d="M1016 1161c-145 0 -248 98 -320 98c-47 0 -73 -25 -91 -91h-189c33 178 124 275 275 275c147 0 243 -98 323 -98c44 0 71 26 87 91h190c-34 -177 -131 -275 -275 -275zM379 -25c-201 0 -318 99 -317 253c1 256 255 366 545 405l304 38l13 56c22 92 -47 142 -163 142
c-127 0 -197 -51 -201 -146l-361 26c12 207 206 326 578 326s559 -143 496 -407l-95 -405c-13 -58 -1 -74 48 -74h44l-70 -205c-35 -6 -74 -9 -117 -9c-220 0 -256 90 -185 261l-39 10c-89 -175 -249 -271 -480 -271zM559 199c130 0 249 99 290 232l14 52l-168 -25
c-164 -25 -249 -70 -250 -165c-1 -63 40 -94 114 -94z" />
    <glyph glyph-name="ae" unicode="&#xe6;" horiz-adv-x="2169" 
d="M2009 431h-811c-31 -160 48 -241 196 -241c120 0 201 48 241 141l350 -54c-78 -186 -279 -302 -604 -302c-251 0 -422 107 -444 285l-38 6c-99 -183 -289 -291 -520 -291c-201 0 -318 99 -317 253c1 256 255 366 545 405l302 38l11 56c21 93 -43 142 -159 142
c-127 0 -197 -51 -201 -146l-361 26c12 207 200 326 546 326c180 0 327 -63 384 -168c88 107 246 168 438 168c297 0 498 -150 498 -390c0 -82 -23 -185 -56 -254zM1512 860c-135 0 -223 -72 -265 -214h445l8 40c24 113 -55 174 -188 174zM849 431l14 52l-168 -25
c-164 -25 -249 -70 -250 -165c-1 -63 40 -94 114 -94c130 0 249 99 290 232z" />
    <glyph glyph-name="aeacute" unicode="&#x1fd;" horiz-adv-x="2169" 
d="M1206 1400h322l-229 -262h-246zM2009 431h-811c-31 -160 48 -241 196 -241c120 0 201 48 241 141l350 -54c-78 -186 -279 -302 -604 -302c-251 0 -422 107 -444 285l-38 6c-99 -183 -289 -291 -520 -291c-201 0 -318 99 -317 253c1 256 255 366 545 405l302 38l11 56
c21 93 -43 142 -159 142c-127 0 -197 -51 -201 -146l-361 26c12 207 200 326 546 326c180 0 327 -63 384 -168c88 107 246 168 438 168c297 0 498 -150 498 -390c0 -82 -23 -185 -56 -254zM1512 860c-135 0 -223 -72 -265 -214h445l8 40c24 113 -55 174 -188 174zM849 431
l14 52l-168 -25c-164 -25 -249 -70 -250 -165c-1 -63 40 -94 114 -94c130 0 249 99 290 232z" />
    <glyph glyph-name="a.ss01" horiz-adv-x="1482" 
d="M470 -18c-288 0 -416 196 -348 520l23 105c62 300 244 463 516 463c209 0 330 -92 360 -283l42 5c-13 124 -9 205 1 258h369l-229 -1050h-363c8 54 39 122 107 225l-36 18c-113 -176 -246 -261 -442 -261zM665 206c137 0 234 93 270 260l19 89c39 184 -32 291 -188 291
c-130 0 -220 -83 -253 -242l-24 -112c-39 -187 26 -286 176 -286z" />
    <glyph glyph-name="aacute.ss01" horiz-adv-x="1482" 
d="M976 1138h-246l153 262h322zM470 -18c-288 0 -416 196 -348 520l23 105c62 300 244 463 516 463c209 0 330 -92 360 -283l42 5c-13 124 -9 205 1 258h369l-229 -1050h-363c8 54 39 122 107 225l-36 18c-113 -176 -246 -261 -442 -261zM665 206c137 0 234 93 270 260
l19 89c39 184 -32 291 -188 291c-130 0 -220 -83 -253 -242l-24 -112c-39 -187 26 -286 176 -286z" />
    <glyph glyph-name="abreve.ss01" horiz-adv-x="1482" 
d="M888 1132c-234 0 -337 93 -319 268h219c-5 -74 27 -109 116 -109c86 0 133 35 151 109h231c-39 -178 -164 -268 -398 -268zM470 -18c-288 0 -416 196 -348 520l23 105c62 300 244 463 516 463c209 0 330 -92 360 -283l42 5c-13 124 -9 205 1 258h369l-229 -1050h-363
c8 54 39 122 107 225l-36 18c-113 -176 -246 -261 -442 -261zM665 206c137 0 234 93 270 260l19 89c39 184 -32 291 -188 291c-130 0 -220 -83 -253 -242l-24 -112c-39 -187 26 -286 176 -286z" />
    <glyph glyph-name="acircumflex.ss01" horiz-adv-x="1482" 
d="M750 1138h-269l268 262h343l169 -262h-257l-105 113zM470 -18c-288 0 -416 196 -348 520l23 105c62 300 244 463 516 463c209 0 330 -92 360 -283l42 5c-13 124 -9 205 1 258h369l-229 -1050h-363c8 54 39 122 107 225l-36 18c-113 -176 -246 -261 -442 -261zM665 206
c137 0 234 93 270 260l19 89c39 184 -32 291 -188 291c-130 0 -220 -83 -253 -242l-24 -112c-39 -187 26 -286 176 -286z" />
    <glyph glyph-name="adieresis.ss01" horiz-adv-x="1482" 
d="M808 1157h-334l50 227h334zM1274 1157h-334l50 227h334zM470 -18c-288 0 -416 196 -348 520l23 105c62 300 244 463 516 463c209 0 330 -92 360 -283l42 5c-13 124 -9 205 1 258h369l-229 -1050h-363c8 54 39 122 107 225l-36 18c-113 -176 -246 -261 -442 -261zM665 206
c137 0 234 93 270 260l19 89c39 184 -32 291 -188 291c-130 0 -220 -83 -253 -242l-24 -112c-39 -187 26 -286 176 -286z" />
    <glyph glyph-name="agrave.ss01" horiz-adv-x="1482" 
d="M995 1138h-236l-165 262h324zM470 -18c-288 0 -416 196 -348 520l23 105c62 300 244 463 516 463c209 0 330 -92 360 -283l42 5c-13 124 -9 205 1 258h369l-229 -1050h-363c8 54 39 122 107 225l-36 18c-113 -176 -246 -261 -442 -261zM665 206c137 0 234 93 270 260
l19 89c39 184 -32 291 -188 291c-130 0 -220 -83 -253 -242l-24 -112c-39 -187 26 -286 176 -286z" />
    <glyph glyph-name="amacron.ss01" horiz-adv-x="1482" 
d="M1251 1171h-746l40 183h746zM470 -18c-288 0 -416 196 -348 520l23 105c62 300 244 463 516 463c209 0 330 -92 360 -283l42 5c-13 124 -9 205 1 258h369l-229 -1050h-363c8 54 39 122 107 225l-36 18c-113 -176 -246 -261 -442 -261zM665 206c137 0 234 93 270 260
l19 89c39 184 -32 291 -188 291c-130 0 -220 -83 -253 -242l-24 -112c-39 -187 26 -286 176 -286z" />
    <glyph glyph-name="aogonek.ss01" horiz-adv-x="1482" 
d="M1204 0h1c-123 -34 -170 -66 -170 -107c0 -26 25 -41 61 -41c25 0 47 4 68 10l-53 -176c-40 -15 -79 -23 -132 -23c-127 0 -196 54 -196 148c0 80 52 148 166 189h-108c8 54 39 122 107 225l-36 18c-113 -176 -246 -261 -442 -261c-288 0 -416 196 -348 520l23 105
c62 300 244 463 516 463c209 0 330 -92 360 -283l42 5c-13 124 -9 205 1 258h369zM935 466l19 89c39 184 -32 291 -188 291c-130 0 -220 -83 -253 -242l-24 -112c-39 -187 26 -286 176 -286c137 0 234 93 270 260z" />
    <glyph glyph-name="aring.ss01" horiz-adv-x="1482" 
d="M917 1126c-148 0 -246 90 -246 225s98 224 246 224s245 -89 245 -224s-97 -225 -245 -225zM917 1270c47 0 80 34 80 81s-33 80 -80 80s-80 -33 -80 -80s33 -81 80 -81zM470 -18c-288 0 -416 196 -348 520l23 105c62 300 244 463 516 463c209 0 330 -92 360 -283l42 5
c-13 124 -9 205 1 258h369l-229 -1050h-363c8 54 39 122 107 225l-36 18c-113 -176 -246 -261 -442 -261zM665 206c137 0 234 93 270 260l19 89c39 184 -32 291 -188 291c-130 0 -220 -83 -253 -242l-24 -112c-39 -187 26 -286 176 -286z" />
    <glyph glyph-name="atilde.ss01" horiz-adv-x="1482" 
d="M1069 1161c-145 0 -248 98 -320 98c-47 0 -73 -25 -91 -91h-189c33 178 124 275 275 275c147 0 243 -98 323 -98c44 0 71 26 87 91h190c-34 -177 -131 -275 -275 -275zM470 -18c-288 0 -416 196 -348 520l23 105c62 300 244 463 516 463c209 0 330 -92 360 -283l42 5
c-13 124 -9 205 1 258h369l-229 -1050h-363c8 54 39 122 107 225l-36 18c-113 -176 -246 -261 -442 -261zM665 206c137 0 234 93 270 260l19 89c39 184 -32 291 -188 291c-130 0 -220 -83 -253 -242l-24 -112c-39 -187 26 -286 176 -286z" />
    <glyph glyph-name="cacute" unicode="&#x107;" horiz-adv-x="1438" 
d="M929 1138h-246l153 262h322zM660 -26c-406 0 -603 223 -530 568l17 81c62 291 276 453 635 453s573 -165 543 -441l-369 -21c24 156 -50 238 -187 238c-136 0 -218 -83 -252 -243l-28 -123c-38 -179 29 -288 185 -288c122 0 209 74 245 219l356 -62
c-64 -246 -277 -381 -615 -381z" />
    <glyph glyph-name="ccaron" unicode="&#x10d;" horiz-adv-x="1438" 
d="M989 1400h269l-268 -262h-343l-169 262h257l105 -113zM660 -26c-406 0 -603 223 -530 568l17 81c62 291 276 453 635 453s573 -165 543 -441l-369 -21c24 156 -50 238 -187 238c-136 0 -218 -83 -252 -243l-28 -123c-38 -179 29 -288 185 -288c122 0 209 74 245 219
l356 -62c-64 -246 -277 -381 -615 -381z" />
    <glyph glyph-name="ccedilla" unicode="&#xe7;" horiz-adv-x="1438" 
d="M1325 635l-369 -21c24 156 -50 238 -187 238c-136 0 -218 -83 -252 -243l-28 -123c-38 -179 29 -288 185 -288c122 0 209 74 245 219l356 -62c-62 -238 -264 -372 -583 -381l-19 -47c138 -13 214 -54 214 -143c0 -103 -89 -157 -242 -157c-84 0 -162 19 -226 51l43 128
c46 -25 101 -39 154 -39s79 16 79 43c0 43 -77 57 -207 62l37 111c-314 45 -459 255 -395 559l17 81c62 291 276 453 635 453s573 -165 543 -441z" />
    <glyph glyph-name="cdotaccent" unicode="&#x10b;" horiz-adv-x="1438" 
d="M959 1165h-342l49 227h343zM660 -26c-406 0 -603 223 -530 568l17 81c62 291 276 453 635 453s573 -165 543 -441l-369 -21c24 156 -50 238 -187 238c-136 0 -218 -83 -252 -243l-28 -123c-38 -179 29 -288 185 -288c122 0 209 74 245 219l356 -62
c-64 -246 -277 -381 -615 -381z" />
    <glyph glyph-name="eth" unicode="&#xf0;" horiz-adv-x="1432" 
d="M1399 1361l27 -177l-147 -19c67 -169 83 -368 35 -599l-18 -88c-64 -315 -283 -502 -637 -502c-401 0 -599 228 -530 562l18 82c55 269 237 422 506 422c196 0 329 -89 366 -242l41 3c-4 107 -28 216 -75 323l-299 -39l-27 175l232 31c-20 29 -42 58 -66 86l290 46
c27 -29 51 -60 73 -92zM926 433l26 113c38 177 -31 272 -187 272c-133 0 -220 -73 -251 -218l-28 -122c-37 -177 31 -278 187 -278c134 0 220 81 253 233z" />
    <glyph glyph-name="dcaron" unicode="&#x10f;" horiz-adv-x="1484" 
d="M470 -18c-288 0 -416 196 -348 520l23 105c62 300 244 463 516 463c209 0 330 -92 366 -272l41 6c-12 131 -7 228 17 335l56 261h368l-305 -1400h-363c8 54 39 122 107 225l-36 18c-113 -176 -246 -261 -442 -261zM1709 1106h-171l80 294h228zM665 206
c137 0 234 93 270 260l19 89c39 184 -32 291 -188 291c-130 0 -220 -83 -253 -242l-24 -112c-39 -187 26 -286 176 -286z" />
    <glyph glyph-name="dcroat" unicode="&#x111;" horiz-adv-x="1501" 
d="M1489 1306h133l-36 -164h-133l-249 -1142h-363c8 54 39 122 107 225l-36 18c-113 -176 -246 -261 -442 -261c-288 0 -416 196 -348 520l23 105c62 300 244 463 516 463c209 0 330 -92 366 -272l41 6c-12 131 -7 228 17 335l1 3h-270l35 164h270l20 94h368zM935 466l19 89
c39 184 -32 291 -188 291c-130 0 -220 -83 -253 -242l-24 -112c-39 -187 26 -286 176 -286c137 0 234 93 270 260z" />
    <glyph glyph-name="eacute" unicode="&#xe9;" horiz-adv-x="1449" 
d="M861 1400h322l-229 -262h-246zM1288 431h-811c-31 -160 48 -241 196 -241c120 0 201 48 241 141l350 -54c-78 -186 -279 -302 -604 -302c-403 0 -602 224 -534 549l20 91c61 290 295 460 656 460c341 0 542 -150 542 -390c0 -82 -23 -188 -56 -254zM791 860
c-135 0 -223 -72 -265 -214h445l8 40c24 113 -55 174 -188 174z" />
    <glyph glyph-name="ecaron" unicode="&#x11b;" horiz-adv-x="1449" 
d="M1283 1400l-268 -262h-343l-169 262h257l105 -113l149 113h269zM1288 431h-811c-31 -160 48 -241 196 -241c120 0 201 48 241 141l350 -54c-78 -186 -279 -302 -604 -302c-403 0 -602 224 -534 549l20 91c61 290 295 460 656 460c341 0 542 -150 542 -390
c0 -82 -23 -188 -56 -254zM791 860c-135 0 -223 -72 -265 -214h445l8 40c24 113 -55 174 -188 174z" />
    <glyph glyph-name="ecircumflex" unicode="&#xea;" horiz-adv-x="1449" 
d="M983 1138l-105 113l-149 -113h-269l268 262h343l169 -262h-257zM1288 431h-811c-31 -160 48 -241 196 -241c120 0 201 48 241 141l350 -54c-78 -186 -279 -302 -604 -302c-403 0 -602 224 -534 549l20 91c61 290 295 460 656 460c341 0 542 -150 542 -390
c0 -82 -23 -188 -56 -254zM791 860c-135 0 -223 -72 -265 -214h445l8 40c24 113 -55 174 -188 174z" />
    <glyph glyph-name="edieresis" unicode="&#xeb;" horiz-adv-x="1449" 
d="M503 1384h334l-50 -227h-334zM969 1384h334l-50 -227h-334zM1288 431h-811c-31 -160 48 -241 196 -241c120 0 201 48 241 141l350 -54c-78 -186 -279 -302 -604 -302c-403 0 -602 224 -534 549l20 91c61 290 295 460 656 460c341 0 542 -150 542 -390
c0 -82 -23 -188 -56 -254zM791 860c-135 0 -223 -72 -265 -214h445l8 40c24 113 -55 174 -188 174z" />
    <glyph glyph-name="edotaccent" unicode="&#x117;" horiz-adv-x="1449" 
d="M676 1392h342l-49 -227h-343zM1288 431h-811c-31 -160 48 -241 196 -241c120 0 201 48 241 141l350 -54c-78 -186 -279 -302 -604 -302c-403 0 -602 224 -534 549l20 91c61 290 295 460 656 460c341 0 542 -150 542 -390c0 -82 -23 -188 -56 -254zM791 860
c-135 0 -223 -72 -265 -214h445l8 40c24 113 -55 174 -188 174z" />
    <glyph glyph-name="egrave" unicode="&#xe8;" horiz-adv-x="1449" 
d="M897 1400l77 -262h-236l-165 262h324zM1288 431h-811c-31 -160 48 -241 196 -241c120 0 201 48 241 141l350 -54c-78 -186 -279 -302 -604 -302c-403 0 -602 224 -534 549l20 91c61 290 295 460 656 460c341 0 542 -150 542 -390c0 -82 -23 -188 -56 -254zM791 860
c-135 0 -223 -72 -265 -214h445l8 40c24 113 -55 174 -188 174z" />
    <glyph glyph-name="emacron" unicode="&#x113;" horiz-adv-x="1449" 
d="M523 1354h746l-40 -183h-746zM1288 431h-811c-31 -160 48 -241 196 -241c120 0 201 48 241 141l350 -54c-78 -186 -279 -302 -604 -302c-403 0 -602 224 -534 549l20 91c61 290 295 460 656 460c341 0 542 -150 542 -390c0 -82 -23 -188 -56 -254zM791 860
c-135 0 -223 -72 -265 -214h445l8 40c24 113 -55 174 -188 174z" />
    <glyph glyph-name="eogonek" unicode="&#x119;" horiz-adv-x="1449" 
d="M1288 431h-811c-31 -160 48 -241 196 -241c120 0 201 48 241 141l350 -54c-61 -145 -197 -248 -408 -286c-101 -31 -140 -61 -140 -98c0 -26 25 -41 61 -41c25 0 47 4 68 10l-53 -176c-40 -15 -79 -23 -132 -23c-127 0 -196 54 -196 148c0 67 37 126 116 167
c-349 28 -517 243 -454 546l20 91c61 290 295 460 656 460c341 0 542 -150 542 -390c0 -82 -23 -188 -56 -254zM791 860c-135 0 -223 -72 -265 -214h445l8 40c24 113 -55 174 -188 174z" />
    <glyph glyph-name="uni1EBD" unicode="&#x1ebd;" horiz-adv-x="1449" 
d="M728 1259c-47 0 -73 -25 -91 -91h-189c33 178 124 275 275 275c147 0 243 -98 323 -98c44 0 71 26 87 91h190c-34 -177 -131 -275 -275 -275c-145 0 -248 98 -320 98zM1288 431h-811c-31 -160 48 -241 196 -241c120 0 201 48 241 141l350 -54
c-78 -186 -279 -302 -604 -302c-403 0 -602 224 -534 549l20 91c61 290 295 460 656 460c341 0 542 -150 542 -390c0 -82 -23 -188 -56 -254zM791 860c-135 0 -223 -72 -265 -214h445l8 40c24 113 -55 174 -188 174z" />
    <glyph glyph-name="g.accents" horiz-adv-x="1388" 
d="M1423 1059l-87 -5c-81 -5 -119 -19 -138 -58c87 -50 135 -122 135 -214c0 -252 -244 -393 -638 -393c-85 0 -161 7 -228 21c-61 -7 -91 -24 -91 -56c0 -38 46 -55 243 -78l201 -25c181 -21 398 -70 398 -268c0 -246 -240 -358 -713 -358c-385 0 -586 74 -586 233
c0 124 89 189 268 194l5 41c-90 36 -141 89 -141 159c0 109 94 167 254 167l6 45c-91 50 -142 123 -142 217c0 253 245 394 642 394c119 0 222 -15 305 -43c-7 171 89 260 284 266zM727 577c140 0 246 64 246 187c0 83 -88 123 -196 123c-141 0 -247 -65 -247 -187
c0 -82 88 -123 197 -123zM648 22l-215 20c-27 2 -54 6 -79 9c-82 -24 -123 -62 -123 -116c0 -77 71 -110 330 -110c251 0 360 30 360 102c0 50 -66 76 -273 95z" />
    <glyph glyph-name="gbreve" unicode="&#x11f;" horiz-adv-x="1388" 
d="M772 1131c-226 0 -324 89 -301 261h217c-6 -71 24 -104 107 -104c84 0 126 32 143 104h226c-38 -175 -164 -261 -392 -261zM1423 1059l-87 -5c-81 -5 -119 -19 -138 -58c87 -50 135 -122 135 -214c0 -252 -244 -393 -638 -393c-85 0 -161 7 -228 21
c-61 -7 -91 -24 -91 -56c0 -38 46 -55 243 -78l201 -25c181 -21 398 -70 398 -268c0 -246 -240 -358 -713 -358c-385 0 -586 74 -586 233c0 124 89 189 268 194l5 41c-90 36 -141 89 -141 159c0 109 94 167 254 167l6 45c-91 50 -142 123 -142 217c0 253 245 394 642 394
c119 0 222 -15 305 -43c-7 171 89 260 284 266zM727 577c140 0 246 64 246 187c0 83 -88 123 -196 123c-141 0 -247 -65 -247 -187c0 -82 88 -123 197 -123zM648 22l-215 20c-27 2 -54 6 -79 9c-82 -24 -123 -62 -123 -116c0 -77 71 -110 330 -110c251 0 360 30 360 102
c0 50 -66 76 -273 95z" />
    <glyph glyph-name="gcaron" unicode="&#x1e7;" horiz-adv-x="1388" 
d="M1220 1392l-262 -256h-334l-163 256h247l104 -109l142 109h266zM1423 1059l-87 -5c-81 -5 -119 -19 -138 -58c87 -50 135 -122 135 -214c0 -252 -244 -393 -638 -393c-85 0 -161 7 -228 21c-61 -7 -91 -24 -91 -56c0 -38 46 -55 243 -78l201 -25
c181 -21 398 -70 398 -268c0 -246 -240 -358 -713 -358c-385 0 -586 74 -586 233c0 124 89 189 268 194l5 41c-90 36 -141 89 -141 159c0 109 94 167 254 167l6 45c-91 50 -142 123 -142 217c0 253 245 394 642 394c119 0 222 -15 305 -43c-7 171 89 260 284 266zM727 577
c140 0 246 64 246 187c0 83 -88 123 -196 123c-141 0 -247 -65 -247 -187c0 -82 88 -123 197 -123zM648 22l-215 20c-27 2 -54 6 -79 9c-82 -24 -123 -62 -123 -116c0 -77 71 -110 330 -110c251 0 360 30 360 102c0 50 -66 76 -273 95z" />
    <glyph glyph-name="uni0123" unicode="&#x123;" horiz-adv-x="1388" 
d="M901 1300h105l-34 -158h-290l23 106c31 141 95 188 304 193l12 -76c-87 -4 -110 -20 -120 -65zM1423 1059l-87 -5c-81 -5 -119 -19 -138 -58c87 -50 135 -122 135 -214c0 -252 -244 -393 -638 -393c-85 0 -161 7 -228 21c-61 -7 -91 -24 -91 -56c0 -38 46 -55 243 -78
l201 -25c181 -21 398 -70 398 -268c0 -246 -240 -358 -713 -358c-385 0 -586 74 -586 233c0 124 89 189 268 194l5 41c-90 36 -141 89 -141 159c0 109 94 167 254 167l6 45c-91 50 -142 123 -142 217c0 253 245 394 642 394c119 0 222 -15 305 -43c-7 171 89 260 284 266z
M727 577c140 0 246 64 246 187c0 83 -88 123 -196 123c-141 0 -247 -65 -247 -187c0 -82 88 -123 197 -123zM648 22l-215 20c-27 2 -54 6 -79 9c-82 -24 -123 -62 -123 -116c0 -77 71 -110 330 -110c251 0 360 30 360 102c0 50 -66 76 -273 95z" />
    <glyph glyph-name="gdotaccent" unicode="&#x121;" horiz-adv-x="1388" 
d="M725 1384h316l-49 -224h-316zM1423 1059l-87 -5c-81 -5 -119 -19 -138 -58c87 -50 135 -122 135 -214c0 -252 -244 -393 -638 -393c-85 0 -161 7 -228 21c-61 -7 -91 -24 -91 -56c0 -38 46 -55 243 -78l201 -25c181 -21 398 -70 398 -268c0 -246 -240 -358 -713 -358
c-385 0 -586 74 -586 233c0 124 89 189 268 194l5 41c-90 36 -141 89 -141 159c0 109 94 167 254 167l6 45c-91 50 -142 123 -142 217c0 253 245 394 642 394c119 0 222 -15 305 -43c-7 171 89 260 284 266zM727 577c140 0 246 64 246 187c0 83 -88 123 -196 123
c-141 0 -247 -65 -247 -187c0 -82 88 -123 197 -123zM648 22l-215 20c-27 2 -54 6 -79 9c-82 -24 -123 -62 -123 -116c0 -77 71 -110 330 -110c251 0 360 30 360 102c0 50 -66 76 -273 95z" />
    <glyph glyph-name="hbar" unicode="&#x127;" horiz-adv-x="1457" 
d="M1046 1068c239 0 349 -128 301 -350l-152 -718h-369l141 646c25 116 -21 180 -136 180c-149 0 -267 -131 -313 -351l-101 -475h-369l250 1142h-117l35 164h117l21 94h368l-20 -94h295l-35 -164h-296l-10 -46c-25 -110 -55 -175 -130 -281l37 -22c139 186 270 275 483 275
z" />
    <glyph glyph-name="dotlessi" unicode="&#x131;" horiz-adv-x="694" 
d="M417 0h-369l230 1050h368z" />
    <glyph glyph-name="iacute" unicode="&#xed;" horiz-adv-x="694" 
d="M600 1127h-261l126 273h319zM417 0h-369l230 1050h368z" />
    <glyph glyph-name="icircumflex" unicode="&#xee;" horiz-adv-x="694" 
d="M411 1126h-195l175 274h275l76 -274h-187l-50 122zM417 0h-369l230 1050h368z" />
    <glyph glyph-name="idieresis" unicode="&#xef;" horiz-adv-x="694" 
d="M454 1153h-226l52 235h225zM741 1153h-226l51 235h226zM417 0h-369l230 1050h368z" />
    <glyph glyph-name="i.loclTRK" horiz-adv-x="694" 
d="M657 1157h-343l50 227h342zM417 0h-369l230 1050h368z" />
    <glyph glyph-name="igrave" unicode="&#xec;" horiz-adv-x="694" 
d="M603 1127h-253l-73 273h307zM417 0h-369l230 1050h368z" />
    <glyph glyph-name="imacron" unicode="&#x12b;" horiz-adv-x="694" 
d="M726 1184h-468l36 168h468zM417 0h-369l230 1050h368z" />
    <glyph glyph-name="iogonek" unicode="&#x12f;" horiz-adv-x="694" 
d="M301 1162l51 238h369l-51 -238h-369zM151 0h-103l230 1050h368l-229 -1050h-10c-123 -34 -170 -66 -170 -107c0 -26 25 -41 61 -41c25 0 47 4 68 10l-53 -176c-40 -15 -79 -23 -132 -23c-127 0 -196 54 -196 148c0 80 52 148 166 189z" />
    <glyph glyph-name="itilde" unicode="&#x129;" horiz-adv-x="694" 
d="M592 1136c-71 0 -128 61 -167 61c-25 0 -39 -18 -44 -54h-138c22 170 77 251 172 251c69 0 133 -63 173 -63c24 0 38 19 44 55h138c-26 -170 -82 -250 -178 -250zM417 0h-369l230 1050h368z" />
    <glyph glyph-name="uni0237" unicode="&#x237;" horiz-adv-x="694" 
d="M-171 -373l-29 230l94 7c97 7 132 36 152 125l231 1061h369l-215 -987c-75 -335 -255 -437 -602 -436z" />
    <glyph glyph-name="uni006A0301" horiz-adv-x="694" 
d="M599 1127h-261l126 273h319zM-171 -373l-29 230l94 7c97 7 132 36 152 125l231 1061h369l-215 -987c-75 -335 -255 -437 -602 -436z" />
    <glyph glyph-name="uni0137" unicode="&#x137;" horiz-adv-x="1344" 
d="M417 0h-369l306 1400h368l-76 -350c-31 -144 -96 -316 -159 -422l31 -20l456 442h392l-413 -370l187 -680h-367l-111 491l-173 -150zM383 -392l-9 77c101 5 124 21 134 72h-119l34 155h304l-23 -107c-32 -146 -92 -192 -321 -197z" />
    <glyph glyph-name="lacute" unicode="&#x13a;" horiz-adv-x="696" 
d="M664 1488h-248l152 231h343zM417 0h-369l306 1400h368z" />
    <glyph glyph-name="lcaron" unicode="&#x13e;" horiz-adv-x="696" 
d="M417 0h-369l306 1400h368zM925 1106h-171l80 294h228z" />
    <glyph glyph-name="uni013C" unicode="&#x13c;" horiz-adv-x="696" 
d="M417 0h-369l306 1400h368zM21 -392l-9 77c101 5 124 21 134 72h-119l34 155h304l-23 -107c-32 -146 -92 -192 -321 -197z" />
    <glyph glyph-name="ldot" unicode="&#x140;" horiz-adv-x="1202" 
d="M417 0h-369l306 1400h368zM683 578l69 317h373l-69 -317h-373z" />
    <glyph glyph-name="lslash" unicode="&#x142;" horiz-adv-x="951" 
d="M751 948l191 53l-55 -253l-191 -53l-151 -695h-368l128 585l-181 -51l55 253l181 51l123 562h367z" />
    <glyph glyph-name="nacute" unicode="&#x144;" horiz-adv-x="1457" 
d="M982 1138h-246l153 262h322zM417 0h-369l230 1050h359c-6 -64 -36 -129 -111 -235l37 -22c139 186 270 275 483 275c239 0 349 -128 301 -350l-152 -718h-369l141 646c25 116 -19 180 -134 180c-149 0 -269 -131 -315 -351z" />
    <glyph glyph-name="ncaron" unicode="&#x148;" horiz-adv-x="1457" 
d="M1041 1400h269l-268 -262h-343l-169 262h257l105 -113zM417 0h-369l230 1050h359c-6 -64 -36 -129 -111 -235l37 -22c139 186 270 275 483 275c239 0 349 -128 301 -350l-152 -718h-369l141 646c25 116 -19 180 -134 180c-149 0 -269 -131 -315 -351z" />
    <glyph glyph-name="uni0146" unicode="&#x146;" horiz-adv-x="1457" 
d="M417 0h-369l230 1050h359c-6 -64 -36 -129 -111 -235l37 -22c139 186 270 275 483 275c239 0 349 -128 301 -350l-152 -718h-369l141 646c25 116 -19 180 -134 180c-149 0 -269 -131 -315 -351zM414 -392l-9 77c101 5 124 21 134 72h-119l34 155h304l-23 -107
c-32 -146 -92 -192 -321 -197z" />
    <glyph glyph-name="eng" unicode="&#x14b;" horiz-adv-x="1457" 
d="M1046 1068c239 0 349 -128 301 -350l-152 -718c-63 -270 -239 -372 -608 -373l-24 243l93 6c120 8 152 40 178 162l133 608c25 116 -19 180 -134 180c-149 0 -269 -131 -315 -351l-101 -475h-369l230 1050h359c-6 -64 -36 -129 -111 -235l37 -22c139 186 270 275 483 275
z" />
    <glyph glyph-name="ntilde" unicode="&#xf1;" horiz-adv-x="1457" 
d="M1075 1161c-145 0 -248 98 -320 98c-47 0 -73 -25 -91 -91h-189c33 178 124 275 275 275c147 0 243 -98 323 -98c44 0 71 26 87 91h190c-34 -177 -131 -275 -275 -275zM417 0h-369l230 1050h359c-6 -64 -36 -129 -111 -235l37 -22c139 186 270 275 483 275
c239 0 349 -128 301 -350l-152 -718h-369l141 646c25 116 -19 180 -134 180c-149 0 -269 -131 -315 -351z" />
    <glyph glyph-name="oacute" unicode="&#xf3;" horiz-adv-x="1446" 
d="M951 1138h-246l153 262h322zM666 -25c-405 0 -606 227 -536 566l17 83c61 291 284 452 633 452c403 0 607 -228 537 -567l-18 -83c-60 -290 -283 -451 -633 -451zM677 199c131 0 217 79 251 242l29 125c37 179 -32 286 -188 286c-133 0 -218 -79 -252 -242l-28 -124
c-38 -181 31 -287 188 -287z" />
    <glyph glyph-name="ocircumflex" unicode="&#xf4;" horiz-adv-x="1446" 
d="M725 1138h-269l268 262h343l169 -262h-257l-105 113zM666 -25c-405 0 -606 227 -536 566l17 83c61 291 284 452 633 452c403 0 607 -228 537 -567l-18 -83c-60 -290 -283 -451 -633 -451zM677 199c131 0 217 79 251 242l29 125c37 179 -32 286 -188 286
c-133 0 -218 -79 -252 -242l-28 -124c-38 -181 31 -287 188 -287z" />
    <glyph glyph-name="odieresis" unicode="&#xf6;" horiz-adv-x="1446" 
d="M784 1157h-334l50 227h334zM1250 1157h-334l50 227h334zM666 -25c-405 0 -606 227 -536 566l17 83c61 291 284 452 633 452c403 0 607 -228 537 -567l-18 -83c-60 -290 -283 -451 -633 -451zM677 199c131 0 217 79 251 242l29 125c37 179 -32 286 -188 286
c-133 0 -218 -79 -252 -242l-28 -124c-38 -181 31 -287 188 -287z" />
    <glyph glyph-name="ograve" unicode="&#xf2;" horiz-adv-x="1446" 
d="M970 1138h-236l-165 262h324zM666 -25c-405 0 -606 227 -536 566l17 83c61 291 284 452 633 452c403 0 607 -228 537 -567l-18 -83c-60 -290 -283 -451 -633 -451zM677 199c131 0 217 79 251 242l29 125c37 179 -32 286 -188 286c-133 0 -218 -79 -252 -242l-28 -124
c-38 -181 31 -287 188 -287z" />
    <glyph glyph-name="ohungarumlaut" unicode="&#x151;" horiz-adv-x="1446" 
d="M733 1138h-246l153 262h322zM1150 1138h-247l153 262h323zM666 -25c-405 0 -606 227 -536 566l17 83c61 291 284 452 633 452c403 0 607 -228 537 -567l-18 -83c-60 -290 -283 -451 -633 -451zM677 199c131 0 217 79 251 242l29 125c37 179 -32 286 -188 286
c-133 0 -218 -79 -252 -242l-28 -124c-38 -181 31 -287 188 -287z" />
    <glyph glyph-name="omacron" unicode="&#x14d;" horiz-adv-x="1446" 
d="M1226 1171h-746l40 183h746zM666 -25c-405 0 -606 227 -536 566l17 83c61 291 284 452 633 452c403 0 607 -228 537 -567l-18 -83c-60 -290 -283 -451 -633 -451zM677 199c131 0 217 79 251 242l29 125c37 179 -32 286 -188 286c-133 0 -218 -79 -252 -242l-28 -124
c-38 -181 31 -287 188 -287z" />
    <glyph glyph-name="uni01EB" unicode="&#x1eb;" horiz-adv-x="1446" 
d="M780 1076c403 0 607 -228 537 -567l-18 -83c-48 -232 -201 -382 -439 -432c-107 -32 -149 -62 -149 -101c0 -26 25 -41 61 -41c25 0 47 4 68 10l-53 -176c-40 -15 -79 -23 -132 -23c-127 0 -196 54 -196 148c0 68 37 126 117 168c-344 32 -511 249 -446 562l17 83
c61 291 284 452 633 452zM928 441l29 125c37 179 -32 286 -188 286c-133 0 -218 -79 -252 -242l-28 -124c-38 -181 31 -287 188 -287c131 0 217 79 251 242z" />
    <glyph glyph-name="oslash" unicode="&#xf8;" horiz-adv-x="1460" 
d="M1387 1156l-177 -211c113 -100 158 -252 120 -437l-18 -81c-61 -292 -289 -453 -640 -453c-94 0 -177 12 -248 35l-98 -116h-260l180 214c-111 100 -154 251 -116 435l18 80c61 294 289 454 638 454c92 0 174 -12 245 -34l96 114h260zM494 610l-28 -123
c-10 -47 -12 -89 -7 -126l404 480c-26 7 -55 11 -87 11c-150 0 -249 -85 -282 -242zM965 441l28 125c10 48 12 91 6 128l-407 -484c27 -8 58 -12 92 -12c149 0 248 85 281 243z" />
    <glyph glyph-name="oslashacute" unicode="&#x1ff;" horiz-adv-x="1460" 
d="M848 1400h322l-229 -262h-246zM1387 1156l-177 -211c113 -100 158 -252 120 -437l-18 -81c-61 -292 -289 -453 -640 -453c-94 0 -177 12 -248 35l-98 -116h-260l180 214c-111 100 -154 251 -116 435l18 80c61 294 289 454 638 454c92 0 174 -12 245 -34l96 114h260z
M494 610l-28 -123c-10 -47 -12 -89 -7 -126l404 480c-26 7 -55 11 -87 11c-150 0 -249 -85 -282 -242zM965 441l28 125c10 48 12 91 6 128l-407 -484c27 -8 58 -12 92 -12c149 0 248 85 281 243z" />
    <glyph glyph-name="otilde" unicode="&#xf5;" horiz-adv-x="1446" 
d="M1044 1161c-145 0 -248 98 -320 98c-47 0 -73 -25 -91 -91h-189c33 178 124 275 275 275c147 0 243 -98 323 -98c44 0 71 26 87 91h190c-34 -177 -131 -275 -275 -275zM666 -25c-405 0 -606 227 -536 566l17 83c61 291 284 452 633 452c403 0 607 -228 537 -567l-18 -83
c-60 -290 -283 -451 -633 -451zM677 199c131 0 217 79 251 242l29 125c37 179 -32 286 -188 286c-133 0 -218 -79 -252 -242l-28 -124c-38 -181 31 -287 188 -287z" />
    <glyph glyph-name="oe" unicode="&#x153;" horiz-adv-x="2278" 
d="M2117 431h-811c-31 -159 50 -241 197 -241c120 0 201 47 241 141l350 -55c-81 -186 -280 -301 -603 -301c-171 0 -316 54 -405 150c-104 -99 -252 -150 -437 -150c-394 0 -604 223 -520 563l22 92c70 285 273 445 616 445c183 0 332 -59 421 -157c114 99 273 157 449 157
c335 0 536 -150 536 -390c0 -82 -23 -185 -56 -254zM1621 860c-134 0 -222 -72 -264 -214h443l9 40c22 110 -56 174 -188 174zM928 441l30 129c42 174 -32 282 -189 282c-136 0 -213 -85 -251 -243l-30 -127c-43 -177 31 -284 189 -284c135 0 212 85 251 243z" />
    <glyph glyph-name="thorn" unicode="&#xfe;" horiz-adv-x="1481" 
d="M343 -350h-369l382 1750h368l-59 -275c-24 -110 -57 -186 -120 -301l19 -10c115 170 245 256 443 256c290 0 424 -196 349 -538l-23 -101c-60 -290 -238 -449 -509 -449c-201 0 -327 91 -372 280l-22 -4c7 -123 0 -212 -21 -315zM716 206c130 0 220 82 253 242l24 111
c39 188 -26 287 -177 287c-136 0 -234 -94 -269 -261l-19 -89c-38 -184 32 -290 188 -290z" />
    <glyph glyph-name="racute" unicode="&#x155;" horiz-adv-x="1061" 
d="M783 1138h-246l153 262h322zM417 0h-369l230 1050h359c-6 -64 -36 -129 -111 -235l37 -22c154 211 265 275 485 289l-35 -297l-156 -12c-207 -16 -298 -107 -353 -366z" />
    <glyph glyph-name="rcaron" unicode="&#x159;" horiz-adv-x="1061" 
d="M843 1400h269l-268 -262h-343l-169 262h257l105 -113zM417 0h-369l230 1050h359c-6 -64 -36 -129 -111 -235l37 -22c154 211 265 275 485 289l-35 -297l-156 -12c-207 -16 -298 -107 -353 -366z" />
    <glyph glyph-name="uni0157" unicode="&#x157;" horiz-adv-x="1061" 
d="M417 0h-369l230 1050h359c-6 -64 -36 -129 -111 -235l37 -22c154 211 265 275 485 289l-35 -297l-156 -12c-207 -16 -298 -107 -353 -366zM20 -392l-9 77c101 5 124 21 134 72h-119l34 155h304l-23 -107c-32 -146 -92 -192 -321 -197z" />
    <glyph glyph-name="sacute" unicode="&#x15b;" horiz-adv-x="1363" 
d="M906 1138h-246l153 262h322zM628 -23c-397 0 -573 124 -553 352l357 20c-11 -110 53 -170 203 -170c113 0 176 26 178 89s-54 98 -203 152l-148 54c-148 53 -269 130 -266 278c5 205 174 322 529 322c382 0 552 -118 534 -322l-350 -27c8 103 -51 147 -185 147
c-110 0 -166 -21 -168 -79c-2 -54 35 -84 186 -137l152 -53c152 -53 292 -128 289 -301c-6 -209 -178 -325 -555 -325z" />
    <glyph glyph-name="scaron" unicode="&#x161;" horiz-adv-x="1363" 
d="M966 1400h269l-268 -262h-343l-169 262h257l105 -113zM628 -23c-397 0 -573 124 -553 352l357 20c-11 -110 53 -170 203 -170c113 0 176 26 178 89s-54 98 -203 152l-148 54c-148 53 -269 130 -266 278c5 205 174 322 529 322c382 0 552 -118 534 -322l-350 -27
c8 103 -51 147 -185 147c-110 0 -166 -21 -168 -79c-2 -54 35 -84 186 -137l152 -53c152 -53 292 -128 289 -301c-6 -209 -178 -325 -555 -325z" />
    <glyph glyph-name="scedilla" unicode="&#x15f;" horiz-adv-x="1363" 
d="M1259 752l-350 -27c8 103 -51 147 -185 147c-110 0 -166 -21 -168 -79c-2 -54 35 -84 186 -137l152 -53c152 -53 292 -128 289 -301c-6 -206 -174 -322 -541 -325l-20 -50c138 -13 214 -54 214 -143c0 -103 -89 -157 -242 -157c-84 0 -162 19 -226 51l43 128
c46 -25 101 -39 154 -39s79 16 79 43c0 43 -77 57 -207 62l37 112c-288 30 -416 149 -399 345l357 20c-11 -110 53 -170 203 -170c113 0 176 26 178 89s-54 98 -203 152l-148 54c-148 53 -269 130 -266 278c5 205 174 322 529 322c382 0 552 -118 534 -322z" />
    <glyph glyph-name="uni0219" unicode="&#x219;" horiz-adv-x="1363" 
d="M628 -23c-397 0 -573 124 -553 352l357 20c-11 -110 53 -170 203 -170c113 0 176 26 178 89s-54 98 -203 152l-148 54c-148 53 -269 130 -266 278c5 205 174 322 529 322c382 0 552 -118 534 -322l-350 -27c8 103 -51 147 -185 147c-110 0 -166 -21 -168 -79
c-2 -54 35 -84 186 -137l152 -53c152 -53 292 -128 289 -301c-6 -209 -178 -325 -555 -325zM355 -392l-9 77c101 5 124 21 134 72h-119l34 155h304l-23 -107c-32 -146 -92 -192 -321 -197z" />
    <glyph glyph-name="germandbls" unicode="&#xdf;" horiz-adv-x="1430" 
d="M823 -14c-119 0 -221 36 -294 81l79 212c43 -24 102 -45 166 -45c91 0 135 40 135 99c0 46 -21 82 -73 147l-52 64c-52 65 -78 112 -78 169c0 212 332 272 332 396c0 58 -65 92 -167 92c-136 0 -207 -62 -235 -196l-220 -1005h-368l224 1009c61 278 255 416 617 416
c304 0 496 -104 496 -270c0 -224 -339 -270 -339 -409c0 -36 22 -74 75 -144l53 -71c53 -70 80 -125 80 -199c0 -224 -187 -346 -431 -346z" />
    <glyph glyph-name="tbar" unicode="&#x167;" horiz-adv-x="1032" 
d="M1037 1050l-50 -230h-296l-38 -173h295l-37 -176h-296l-25 -112c-18 -85 21 -126 115 -126c57 0 104 9 158 27l-66 -233c-86 -34 -166 -50 -274 -50c-245 0 -358 116 -312 325l36 169h-153l37 176h154l37 173h-153l50 230h154l59 256l381 71l-73 -327h297z" />
    <glyph glyph-name="tcaron" unicode="&#x165;" horiz-adv-x="1030" 
d="M1040 1163h-171l80 294h228zM521 -23c-245 0 -357 116 -312 325l112 518h-154l50 230h154l59 256l381 71l-72 -327h297l-50 -230h-297l-100 -461c-19 -85 21 -126 114 -126c58 0 104 9 159 27l-67 -233c-86 -34 -166 -50 -274 -50z" />
    <glyph glyph-name="uni0163" unicode="&#x163;" horiz-adv-x="1030" 
d="M986 820h-297l-100 -461c-19 -85 21 -126 114 -126c58 0 104 9 159 27l-67 -233c-75 -30 -145 -46 -234 -49l-20 -51c138 -13 214 -54 214 -143c0 -103 -89 -157 -242 -157c-84 0 -162 19 -226 51l43 128c46 -25 101 -39 154 -39s79 16 79 43c0 43 -77 57 -207 62l39 118
c-156 35 -222 143 -186 312l112 518h-154l50 230h154l59 256l381 71l-72 -327h297z" />
    <glyph glyph-name="uni021B" unicode="&#x21b;" horiz-adv-x="1030" 
d="M521 -23c-245 0 -357 116 -312 325l112 518h-154l50 230h154l59 256l381 71l-72 -327h297l-50 -230h-297l-100 -461c-19 -85 21 -126 114 -126c58 0 104 9 159 27l-67 -233c-86 -34 -166 -50 -274 -50zM274 -392l-9 77c101 5 124 21 134 72h-119l34 155h304l-23 -107
c-32 -146 -92 -192 -321 -197z" />
    <glyph glyph-name="uacute" unicode="&#xfa;" horiz-adv-x="1457" 
d="M959 1138h-246l153 262h322zM1040 1050h369l-230 -1050h-359c6 64 36 129 112 235l-37 22c-140 -186 -271 -275 -484 -275c-239 0 -349 128 -301 350l152 718h369l-140 -646c-25 -116 19 -180 133 -180c149 0 269 131 316 351z" />
    <glyph glyph-name="ubreve" unicode="&#x16d;" horiz-adv-x="1457" 
d="M872 1132c-234 0 -337 93 -319 268h219c-5 -74 27 -109 116 -109c86 0 133 35 151 109h231c-39 -178 -164 -268 -398 -268zM1040 1050h369l-230 -1050h-359c6 64 36 129 112 235l-37 22c-140 -186 -271 -275 -484 -275c-239 0 -349 128 -301 350l152 718h369l-140 -646
c-25 -116 19 -180 133 -180c149 0 269 131 316 351z" />
    <glyph glyph-name="ucircumflex" unicode="&#xfb;" horiz-adv-x="1457" 
d="M734 1138h-269l268 262h343l169 -262h-257l-105 113zM1040 1050h369l-230 -1050h-359c6 64 36 129 112 235l-37 22c-140 -186 -271 -275 -484 -275c-239 0 -349 128 -301 350l152 718h369l-140 -646c-25 -116 19 -180 133 -180c149 0 269 131 316 351z" />
    <glyph glyph-name="udieresis" unicode="&#xfc;" horiz-adv-x="1457" 
d="M792 1157h-334l50 227h334zM1258 1157h-334l50 227h334zM1040 1050h369l-230 -1050h-359c6 64 36 129 112 235l-37 22c-140 -186 -271 -275 -484 -275c-239 0 -349 128 -301 350l152 718h369l-140 -646c-25 -116 19 -180 133 -180c149 0 269 131 316 351z" />
    <glyph glyph-name="ugrave" unicode="&#xf9;" horiz-adv-x="1457" 
d="M979 1138h-236l-165 262h324zM1040 1050h369l-230 -1050h-359c6 64 36 129 112 235l-37 22c-140 -186 -271 -275 -484 -275c-239 0 -349 128 -301 350l152 718h369l-140 -646c-25 -116 19 -180 133 -180c149 0 269 131 316 351z" />
    <glyph glyph-name="uhungarumlaut" unicode="&#x171;" horiz-adv-x="1457" 
d="M742 1138h-246l153 262h322zM1159 1138h-247l153 262h323zM1040 1050h369l-230 -1050h-359c6 64 36 129 112 235l-37 22c-140 -186 -271 -275 -484 -275c-239 0 -349 128 -301 350l152 718h369l-140 -646c-25 -116 19 -180 133 -180c149 0 269 131 316 351z" />
    <glyph glyph-name="umacron" unicode="&#x16b;" horiz-adv-x="1457" 
d="M1234 1171h-746l40 183h746zM1040 1050h369l-230 -1050h-359c6 64 36 129 112 235l-37 22c-140 -186 -271 -275 -484 -275c-239 0 -349 128 -301 350l152 718h369l-140 -646c-25 -116 19 -180 133 -180c149 0 269 131 316 351z" />
    <glyph glyph-name="uogonek" unicode="&#x173;" horiz-adv-x="1457" 
d="M940 575l100 475h369l-230 -1050h-2c-123 -34 -170 -66 -170 -107c0 -26 25 -41 61 -41c25 0 47 4 68 10l-53 -176c-40 -15 -79 -23 -132 -23c-127 0 -196 54 -196 148c0 80 52 148 166 189h-101c6 64 36 129 112 235l-37 22c-140 -186 -271 -275 -484 -275
c-239 0 -349 128 -301 350l152 718h369l-140 -646c-25 -116 19 -180 133 -180c149 0 269 131 316 351z" />
    <glyph glyph-name="uring" unicode="&#x16f;" horiz-adv-x="1457" 
d="M901 1126c-148 0 -246 90 -246 225s98 224 246 224s245 -89 245 -224s-97 -225 -245 -225zM901 1270c47 0 80 34 80 81s-33 80 -80 80s-80 -33 -80 -80s33 -81 80 -81zM1040 1050h369l-230 -1050h-359c6 64 36 129 112 235l-37 22c-140 -186 -271 -275 -484 -275
c-239 0 -349 128 -301 350l152 718h369l-140 -646c-25 -116 19 -180 133 -180c149 0 269 131 316 351z" />
    <glyph glyph-name="utilde" unicode="&#x169;" horiz-adv-x="1457" 
d="M1053 1161c-145 0 -248 98 -320 98c-47 0 -73 -25 -91 -91h-189c33 178 124 275 275 275c147 0 243 -98 323 -98c44 0 71 26 87 91h190c-34 -177 -131 -275 -275 -275zM1040 1050h369l-230 -1050h-359c6 64 36 129 112 235l-37 22c-140 -186 -271 -275 -484 -275
c-239 0 -349 128 -301 350l152 718h369l-140 -646c-25 -116 19 -180 133 -180c149 0 269 131 316 351z" />
    <glyph glyph-name="wacute" unicode="&#x1e83;" horiz-adv-x="1964" 
d="M1208 1138h-246l153 262h322zM696 0h-419l-75 1050h344l14 -502c1 -95 -2 -205 -8 -266l41 -4c27 87 69 199 102 270l228 502h357l14 -501c1 -84 -3 -194 -10 -266l41 -4c23 78 64 185 97 257l235 514h330l-530 -1050h-422l-10 404c-1 102 8 246 23 346l-42 4
c-30 -107 -82 -251 -126 -348z" />
    <glyph glyph-name="wcircumflex" unicode="&#x175;" horiz-adv-x="1964" 
d="M982 1138h-269l268 262h343l169 -262h-257l-105 113zM696 0h-419l-75 1050h344l14 -502c1 -95 -2 -205 -8 -266l41 -4c27 87 69 199 102 270l228 502h357l14 -501c1 -84 -3 -194 -10 -266l41 -4c23 78 64 185 97 257l235 514h330l-530 -1050h-422l-10 404
c-1 102 8 246 23 346l-42 4c-30 -107 -82 -251 -126 -348z" />
    <glyph glyph-name="wdieresis" unicode="&#x1e85;" horiz-adv-x="1964" 
d="M1040 1157h-334l50 227h334zM1506 1157h-334l50 227h334zM696 0h-419l-75 1050h344l14 -502c1 -95 -2 -205 -8 -266l41 -4c27 87 69 199 102 270l228 502h357l14 -501c1 -84 -3 -194 -10 -266l41 -4c23 78 64 185 97 257l235 514h330l-530 -1050h-422l-10 404
c-1 102 8 246 23 346l-42 4c-30 -107 -82 -251 -126 -348z" />
    <glyph glyph-name="wgrave" unicode="&#x1e81;" horiz-adv-x="1964" 
d="M1227 1138h-236l-165 262h324zM696 0h-419l-75 1050h344l14 -502c1 -95 -2 -205 -8 -266l41 -4c27 87 69 199 102 270l228 502h357l14 -501c1 -84 -3 -194 -10 -266l41 -4c23 78 64 185 97 257l235 514h330l-530 -1050h-422l-10 404c-1 102 8 246 23 346l-42 4
c-30 -107 -82 -251 -126 -348z" />
    <glyph glyph-name="yacute" unicode="&#xfd;" horiz-adv-x="1413" 
d="M937 1138h-246l153 262h322zM7 -374l-6 248l143 9c132 8 179 37 210 86l30 49l-182 1032h370l54 -492c11 -94 11 -182 2 -299l39 -4c46 121 86 209 135 303l254 492h379l-482 -854c-263 -441 -460 -545 -946 -570z" />
    <glyph glyph-name="ycircumflex" unicode="&#x177;" horiz-adv-x="1413" 
d="M711 1138h-269l268 262h343l169 -262h-257l-105 113zM7 -374l-6 248l143 9c132 8 179 37 210 86l30 49l-182 1032h370l54 -492c11 -94 11 -182 2 -299l39 -4c46 121 86 209 135 303l254 492h379l-482 -854c-263 -441 -460 -545 -946 -570z" />
    <glyph glyph-name="ydieresis" unicode="&#xff;" horiz-adv-x="1413" 
d="M769 1157h-334l50 227h334zM1235 1157h-334l50 227h334zM7 -374l-6 248l143 9c132 8 179 37 210 86l30 49l-182 1032h370l54 -492c11 -94 11 -182 2 -299l39 -4c46 121 86 209 135 303l254 492h379l-482 -854c-263 -441 -460 -545 -946 -570z" />
    <glyph glyph-name="ygrave" unicode="&#x1ef3;" horiz-adv-x="1413" 
d="M956 1138h-236l-165 262h324zM7 -374l-6 248l143 9c132 8 179 37 210 86l30 49l-182 1032h370l54 -492c11 -94 11 -182 2 -299l39 -4c46 121 86 209 135 303l254 492h379l-482 -854c-263 -441 -460 -545 -946 -570z" />
    <glyph glyph-name="uni1EF9" unicode="&#x1ef9;" horiz-adv-x="1413" 
d="M1030 1161c-145 0 -248 98 -320 98c-47 0 -73 -25 -91 -91h-189c33 178 124 275 275 275c147 0 243 -98 323 -98c44 0 71 26 87 91h190c-34 -177 -131 -275 -275 -275zM7 -374l-6 248l143 9c132 8 179 37 210 86l30 49l-182 1032h370l54 -492c11 -94 11 -182 2 -299
l39 -4c46 121 86 209 135 303l254 492h379l-482 -854c-263 -441 -460 -545 -946 -570z" />
    <glyph glyph-name="zacute" unicode="&#x17a;" horiz-adv-x="1250" 
d="M856 1138h-246l153 262h322zM1023 0h-1016l39 204l525 467c28 25 88 72 169 114l-7 38c-43 -2 -73 -3 -119 -3h-415l49 230h979l-38 -204l-519 -461c-27 -24 -92 -70 -180 -120l8 -39c44 3 89 4 140 4h435z" />
    <glyph glyph-name="zcaron" unicode="&#x17e;" horiz-adv-x="1250" 
d="M915 1400h269l-268 -262h-343l-169 262h257l105 -113zM1023 0h-1016l39 204l525 467c28 25 88 72 169 114l-7 38c-43 -2 -73 -3 -119 -3h-415l49 230h979l-38 -204l-519 -461c-27 -24 -92 -70 -180 -120l8 -39c44 3 89 4 140 4h435z" />
    <glyph glyph-name="zdotaccent" unicode="&#x17c;" horiz-adv-x="1250" 
d="M926 1157h-343l50 227h342zM1023 0h-1016l39 204l525 467c28 25 88 72 169 114l-7 38c-43 -2 -73 -3 -119 -3h-415l49 230h979l-38 -204l-519 -461c-27 -24 -92 -70 -180 -120l8 -39c44 3 89 4 140 4h435z" />
    <glyph glyph-name="g.ss02" horiz-adv-x="1487" 
d="M563 -375c-333 -1 -539 111 -562 288l377 62c19 -78 95 -126 209 -126c112 0 188 41 240 150l16 34c28 61 69 135 113 200l-39 17c-100 -139 -255 -210 -433 -210c-287 0 -417 183 -349 513l21 91c57 273 237 424 513 424c197 0 318 -88 358 -281l42 5
c-14 124 -10 205 1 258h369l-207 -945c-72 -327 -281 -480 -669 -480zM673 264c140 0 237 84 269 237l18 77c37 174 -33 266 -188 266c-134 0 -223 -73 -253 -218l-23 -100c-36 -177 31 -262 177 -262z" />
    <glyph glyph-name="gbreve.ss02" horiz-adv-x="1487" 
d="M899 1131c-234 0 -337 93 -319 268h219c-5 -74 27 -109 116 -109c86 0 133 35 151 109h231c-39 -178 -164 -268 -398 -268zM563 -375c-333 -1 -539 111 -562 288l377 62c19 -78 95 -126 209 -126c112 0 188 41 240 150l16 34c28 61 69 135 113 200l-39 17
c-100 -139 -255 -210 -433 -210c-287 0 -417 183 -349 513l21 91c57 273 237 424 513 424c197 0 318 -88 358 -281l42 5c-14 124 -10 205 1 258h369l-207 -945c-72 -327 -281 -480 -669 -480zM673 264c140 0 237 84 269 237l18 77c37 174 -33 266 -188 266
c-134 0 -223 -73 -253 -218l-23 -100c-36 -177 31 -262 177 -262z" />
    <glyph glyph-name="gcaron.ss02" horiz-adv-x="1487" 
d="M1047 1399h269l-268 -262h-343l-169 262h257l105 -113zM563 -375c-333 -1 -539 111 -562 288l377 62c19 -78 95 -126 209 -126c112 0 188 41 240 150l16 34c28 61 69 135 113 200l-39 17c-100 -139 -255 -210 -433 -210c-287 0 -417 183 -349 513l21 91
c57 273 237 424 513 424c197 0 318 -88 358 -281l42 5c-14 124 -10 205 1 258h369l-207 -945c-72 -327 -281 -480 -669 -480zM673 264c140 0 237 84 269 237l18 77c37 174 -33 266 -188 266c-134 0 -223 -73 -253 -218l-23 -100c-36 -177 31 -262 177 -262z" />
    <glyph glyph-name="uni0123.ss02" horiz-adv-x="1487" 
d="M1075 1441l9 -77c-101 -5 -124 -21 -134 -72h119l-34 -155h-304l23 107c32 146 92 192 321 197zM563 -375c-333 -1 -539 111 -562 288l377 62c19 -78 95 -126 209 -126c112 0 188 41 240 150l16 34c28 61 69 135 113 200l-39 17c-100 -139 -255 -210 -433 -210
c-287 0 -417 183 -349 513l21 91c57 273 237 424 513 424c197 0 318 -88 358 -281l42 5c-14 124 -10 205 1 258h369l-207 -945c-72 -327 -281 -480 -669 -480zM673 264c140 0 237 84 269 237l18 77c37 174 -33 266 -188 266c-134 0 -223 -73 -253 -218l-23 -100
c-36 -177 31 -262 177 -262z" />
    <glyph glyph-name="gdotaccent.ss02" horiz-adv-x="1487" 
d="M1057 1156h-343l50 227h342zM563 -375c-333 -1 -539 111 -562 288l377 62c19 -78 95 -126 209 -126c112 0 188 41 240 150l16 34c28 61 69 135 113 200l-39 17c-100 -139 -255 -210 -433 -210c-287 0 -417 183 -349 513l21 91c57 273 237 424 513 424
c197 0 318 -88 358 -281l42 5c-14 124 -10 205 1 258h369l-207 -945c-72 -327 -281 -480 -669 -480zM673 264c140 0 237 84 269 237l18 77c37 174 -33 266 -188 266c-134 0 -223 -73 -253 -218l-23 -100c-36 -177 31 -262 177 -262z" />
    <glyph glyph-name="f.calt" horiz-adv-x="953" 
d="M508 0h-368l179 820h-152l50 230h152l13 50c54 212 200 330 688 326l-24 -219l-135 -8c-137 -8 -164 -31 -180 -105l-10 -44h221l-50 -230h-205z" />
    <glyph glyph-name="t.calt" horiz-adv-x="974" 
d="M521 -23c-245 0 -357 116 -312 325l112 518h-154l50 230h154l59 256l381 71l-72 -327h228l-50 -230h-228l-100 -461c-19 -85 21 -126 114 -126c58 0 104 9 159 27l-67 -233c-86 -34 -166 -50 -274 -50z" />
    <glyph glyph-name="tbar.calt" horiz-adv-x="976" 
d="M969 1050l-51 -230h-227l-38 -174h255l-39 -180h-256l-23 -107c-18 -85 21 -126 115 -126c57 0 104 9 158 27l-66 -233c-86 -34 -166 -50 -274 -50c-245 0 -358 116 -312 325l35 164h-153l38 180h154l37 174h-153l50 230h154l59 256l381 71l-73 -327h229z" />
    <glyph glyph-name="tcaron.calt" horiz-adv-x="974" 
d="M1040 1163h-171l80 294h228zM521 -23c-245 0 -357 116 -312 325l112 518h-154l50 230h154l59 256l381 71l-72 -327h228l-50 -230h-228l-100 -461c-19 -85 21 -126 114 -126c58 0 104 9 159 27l-67 -233c-86 -34 -166 -50 -274 -50z" />
    <glyph glyph-name="uni0163.calt" horiz-adv-x="974" 
d="M917 820h-228l-100 -461c-19 -85 21 -126 114 -126c58 0 104 9 159 27l-67 -233c-76 -30 -148 -46 -238 -49l-20 -51c138 -13 214 -54 214 -143c0 -103 -89 -157 -242 -157c-84 0 -162 19 -226 51l43 128c46 -25 101 -39 154 -39s79 16 79 43c0 43 -77 57 -207 62l39 118
c-153 37 -218 144 -182 312l112 518h-154l50 230h154l59 256l381 71l-72 -327h228z" />
    <glyph glyph-name="uni021B.calt" horiz-adv-x="974" 
d="M521 -23c-245 0 -357 116 -312 325l112 518h-154l50 230h154l59 256l381 71l-72 -327h228l-50 -230h-228l-100 -461c-19 -85 21 -126 114 -126c58 0 104 9 159 27l-67 -233c-86 -34 -166 -50 -274 -50zM270 -392l-9 77c101 5 124 21 134 72h-119l34 155h304l-23 -107
c-32 -146 -92 -192 -321 -197z" />
    <glyph glyph-name="zero.slashed" horiz-adv-x="1581" 
d="M908 1425c452 0 654 -287 559 -745l-25 -115c-78 -380 -304 -590 -697 -590c-451 0 -653 286 -558 740l25 115c79 384 305 595 696 595zM897 1169c-168 0 -261 -114 -310 -348l-30 -133l568 209c6 178 -67 272 -228 272zM757 231c170 0 261 114 310 345l29 127l-567 -209
c-4 -172 70 -263 228 -263z" />
    <glyph glyph-name="zero" unicode="0" horiz-adv-x="1581" 
d="M745 -25c-451 0 -653 286 -558 740l25 115c79 384 305 595 696 595c452 0 654 -287 559 -745l-25 -115c-78 -380 -304 -590 -697 -590zM757 231c170 0 261 114 310 345l38 167c58 277 -6 426 -208 426c-168 0 -261 -114 -310 -348l-38 -167c-58 -275 6 -423 208 -423z
" />
    <glyph glyph-name="one" unicode="1" horiz-adv-x="1017" 
d="M717 0h-371l199 908h-349l49 224c364 8 395 26 476 268h302z" />
    <glyph glyph-name="two" unicode="2" horiz-adv-x="1449" 
d="M1200 0h-1132v226c754 426 966 612 966 802c-1 96 -62 141 -177 141c-128 0 -223 -70 -243 -249l-374 59c39 297 270 446 645 446c331 0 528 -129 527 -365c0 -283 -224 -482 -819 -773l7 -36c59 4 111 5 170 5h486z" />
    <glyph glyph-name="three" unicode="3" horiz-adv-x="1518" 
d="M713 -25c-377 0 -599 158 -589 434l378 41c-1 -154 81 -225 235 -225c140 0 232 81 232 231c0 105 -58 157 -173 162l-124 6l35 186l129 6c148 7 241 78 241 211c0 103 -72 148 -202 148c-144 0 -233 -58 -256 -173l-355 41c43 244 274 382 636 382
c343 0 540 -126 540 -351c0 -192 -109 -316 -300 -350l-3 -39c130 -39 205 -122 205 -250c0 -277 -249 -460 -629 -460z" />
    <glyph glyph-name="four" unicode="4" horiz-adv-x="1473" 
d="M1090 0h-372l60 266h-680l1 216l803 918h494l-193 -886h158l-53 -248h-158zM760 895l-313 -381h384l76 317c24 97 67 235 108 347l-41 14c-71 -110 -156 -228 -214 -297z" />
    <glyph glyph-name="five" unicode="5" horiz-adv-x="1535" 
d="M719 -25c-343 0 -560 107 -587 306l366 81c25 -99 111 -145 240 -145c167 0 271 108 271 274c0 119 -93 195 -234 195c-117 0 -199 -43 -248 -123l-335 78l192 759h1156l-53 -256h-807l-85 -323c86 60 199 93 322 93c289 0 472 -148 472 -383c0 -335 -266 -556 -670 -556
z" />
    <glyph glyph-name="six" unicode="6" horiz-adv-x="1554" 
d="M913 1425c345 0 539 -120 583 -361l-376 -58c-19 122 -95 181 -232 181c-168 0 -275 -133 -332 -423c83 84 213 135 349 135c292 0 485 -158 485 -388c0 -333 -234 -536 -629 -536c-460 0 -674 256 -578 722l20 95c88 427 318 633 710 633zM795 675
c-163 0 -270 -111 -270 -272c0 -115 91 -190 234 -190c163 0 270 113 270 277c0 114 -91 185 -234 185z" />
    <glyph glyph-name="seven" unicode="7" horiz-adv-x="1330" 
d="M704 0h-373c138 508 343 885 634 1144h-717l56 256h1102l-43 -196c-305 -270 -511 -656 -659 -1204z" />
    <glyph glyph-name="eight" unicode="8" horiz-adv-x="1564" 
d="M709 -25c-376 0 -590 134 -590 374c0 207 131 344 358 372l5 38c-117 38 -185 132 -185 258c0 254 238 408 629 408c360 0 563 -124 563 -346c0 -184 -115 -311 -316 -343l-4 -37c138 -38 217 -135 217 -277c0 -278 -255 -447 -677 -447zM858 823c170 0 267 76 267 214
c0 102 -79 158 -218 158c-168 0 -265 -76 -265 -213c0 -103 79 -159 216 -159zM733 205c182 0 286 86 286 239c0 111 -84 173 -231 173c-185 0 -292 -86 -292 -239c0 -111 86 -173 237 -173z" />
    <glyph glyph-name="nine" unicode="9" horiz-adv-x="1554" 
d="M716 -25c-346 0 -539 120 -584 361l376 58c19 -122 96 -181 232 -181c169 0 276 133 332 423c-82 -84 -213 -135 -348 -135c-292 0 -485 158 -485 388c0 333 233 536 629 536c459 0 673 -256 577 -722l-20 -95c-88 -427 -318 -633 -709 -633zM833 725
c163 0 271 111 271 272c0 115 -91 190 -234 190c-163 0 -270 -113 -270 -277c0 -114 91 -185 233 -185z" />
    <glyph glyph-name="zero.tf.slashed" horiz-adv-x="1494" 
d="M865 1426c435 0 627 -275 529 -746l-25 -115c-75 -377 -304 -591 -667 -591c-435 0 -627 273 -529 741l25 115c76 381 304 596 667 596zM853 1170c-150 0 -231 -109 -279 -349l-28 -121l507 187c14 194 -51 283 -200 283zM714 230c150 0 231 108 279 346l27 115
l-506 -187c-12 -187 53 -274 200 -274z" />
    <glyph glyph-name="zero.tf" horiz-adv-x="1494" 
d="M702 -26c-435 0 -627 273 -529 741l25 115c76 381 304 596 667 596c435 0 627 -275 529 -746l-25 -115c-75 -377 -304 -591 -667 -591zM714 230c150 0 231 108 279 346l39 167c60 294 3 427 -179 427c-150 0 -231 -109 -279 -349l-39 -167c-59 -292 -2 -424 179 -424z
" />
    <glyph glyph-name="one.tf" horiz-adv-x="1494" 
d="M1210 0h-1150l56 261h441l137 647h-431l48 225c446 7 476 26 556 267h304l-242 -1139h337z" />
    <glyph glyph-name="two.tf" horiz-adv-x="1494" 
d="M1225 0h-1132v226c753 426 966 612 966 802c-1 96 -62 141 -177 141c-128 0 -224 -70 -243 -249l-374 59c39 297 270 446 645 446c330 0 527 -129 527 -365c0 -283 -224 -482 -819 -773l7 -36c59 4 111 5 169 5h487z" />
    <glyph glyph-name="three.tf" horiz-adv-x="1494" 
d="M700 -25c-377 0 -599 158 -589 434l378 41c-1 -154 81 -225 235 -225c140 0 232 81 232 231c0 105 -58 157 -173 162l-124 6l35 186l129 6c148 7 241 78 241 211c0 103 -72 148 -202 148c-144 0 -233 -58 -256 -173l-355 41c43 244 274 382 636 382
c343 0 540 -126 540 -351c0 -192 -109 -316 -300 -350l-3 -39c130 -39 205 -122 205 -250c0 -277 -249 -460 -629 -460z" />
    <glyph glyph-name="four.tf" horiz-adv-x="1494" 
d="M1102 0h-372l60 266h-680l1 216l803 918h494l-194 -886h158l-52 -248h-159zM772 895l-313 -381h383l77 317c24 97 67 235 108 347l-41 14c-72 -110 -156 -228 -214 -297z" />
    <glyph glyph-name="five.tf" horiz-adv-x="1494" 
d="M682 -25c-343 0 -560 107 -587 306l366 81c25 -99 111 -145 240 -145c167 0 272 108 272 274c0 119 -93 195 -235 195c-117 0 -198 -43 -248 -123l-335 78l192 759h1156l-53 -256h-807l-85 -323c86 60 199 93 322 93c289 0 472 -148 472 -383c0 -335 -266 -556 -670 -556
z" />
    <glyph glyph-name="six.tf" horiz-adv-x="1494" 
d="M876 1425c345 0 539 -120 583 -361l-376 -58c-19 122 -96 181 -232 181c-168 0 -276 -133 -332 -423c83 84 213 135 348 135c292 0 485 -158 485 -388c0 -333 -233 -536 -628 -536c-460 0 -674 256 -578 722l20 95c88 427 318 633 710 633zM758 675
c-163 0 -271 -111 -271 -272c0 -115 92 -190 235 -190c162 0 269 113 269 277c0 114 -90 185 -233 185z" />
    <glyph glyph-name="seven.tf" horiz-adv-x="1494" 
d="M784 0h-373c138 508 342 885 633 1144h-717l56 256h1102l-42 -196c-305 -270 -512 -656 -659 -1204z" />
    <glyph glyph-name="eight.tf" horiz-adv-x="1494" 
d="M674 -25c-376 0 -590 134 -590 374c0 207 130 344 358 372l4 38c-117 38 -184 132 -184 258c0 254 237 408 629 408c360 0 563 -124 563 -346c0 -184 -115 -311 -316 -343l-5 -37c139 -38 218 -135 218 -277c0 -278 -255 -447 -677 -447zM823 823c170 0 267 76 267 214
c0 102 -80 158 -219 158c-167 0 -264 -76 -264 -213c0 -103 79 -159 216 -159zM698 205c181 0 286 86 286 239c0 111 -84 173 -231 173c-185 0 -292 -86 -292 -239c0 -111 86 -173 237 -173z" />
    <glyph glyph-name="nine.tf" horiz-adv-x="1494" 
d="M686 -25c-346 0 -539 120 -584 361l376 58c19 -122 96 -181 232 -181c168 0 276 133 332 423c-82 -84 -213 -135 -348 -135c-292 0 -485 158 -485 388c0 333 233 536 628 536c460 0 674 -256 578 -722l-20 -95c-88 -427 -318 -633 -709 -633zM803 725
c163 0 271 111 271 272c0 115 -92 190 -235 190c-162 0 -269 -113 -269 -277c0 -114 91 -185 233 -185z" />
    <glyph glyph-name="uni24EA" unicode="&#x24ea;" horiz-adv-x="1857" 
d="M966 -58c-433 0 -758 326 -758 758s325 758 758 758c432 0 758 -326 758 -758s-326 -758 -758 -758zM966 22c386 0 678 292 678 678s-292 678 -678 678c-387 0 -678 -292 -678 -678s291 -678 678 -678zM924 265c-270 0 -399 172 -339 442l18 83c44 227 183 345 404 345
c270 0 399 -171 339 -442l-18 -82c-45 -228 -183 -346 -404 -346zM929 439c79 0 128 59 153 179l29 134c29 130 -9 210 -109 210c-80 0 -128 -60 -153 -178l-30 -134c-29 -130 8 -211 110 -211z" />
    <glyph glyph-name="uni2460" unicode="&#x2460;" horiz-adv-x="1857" 
d="M966 -58c-433 0 -758 326 -758 758s325 758 758 758c432 0 758 -326 758 -758s-326 -758 -758 -758zM966 22c386 0 678 292 678 678s-292 678 -678 678c-387 0 -678 -292 -678 -678s291 -678 678 -678zM1275 290h-712l39 179h261l75 347h-243l33 154
c249 6 273 19 319 159h207l-144 -660h204z" />
    <glyph glyph-name="uni2461" unicode="&#x2461;" horiz-adv-x="1857" 
d="M966 -58c-433 0 -758 326 -758 758s325 758 758 758c432 0 758 -326 758 -758s-326 -758 -758 -758zM966 22c386 0 678 292 678 678s-292 678 -678 678c-387 0 -678 -292 -678 -678s291 -678 678 -678zM1253 286h-688v158c447 246 576 338 576 444c0 52 -44 84 -113 84
c-74 0 -121 -43 -132 -128l-237 21c19 175 163 275 386 275c213 0 335 -81 335 -222c0 -151 -108 -251 -462 -446l2 -10c42 3 74 3 106 3h266z" />
    <glyph glyph-name="uni2462" unicode="&#x2462;" horiz-adv-x="1857" 
d="M966 -58c-433 0 -758 326 -758 758s325 758 758 758c432 0 758 -326 758 -758s-326 -758 -758 -758zM966 22c386 0 678 292 678 678s-292 678 -678 678c-387 0 -678 -292 -678 -678s291 -678 678 -678zM924 266c-240 0 -369 93 -363 266l243 24c1 -86 44 -129 127 -129
c79 0 128 50 127 132c-1 58 -36 84 -88 87l-59 3l21 129l63 2c71 3 123 46 122 114c0 51 -41 83 -113 83c-77 0 -121 -32 -133 -98l-230 25c28 156 154 234 380 234c216 0 340 -79 340 -210c0 -118 -67 -192 -195 -214l-1 -17c89 -21 135 -72 135 -159
c0 -163 -149 -272 -376 -272z" />
    <glyph glyph-name="uni2463" unicode="&#x2463;" horiz-adv-x="1857" 
d="M966 -58c-433 0 -758 326 -758 758s325 758 758 758c432 0 758 -326 758 -758s-326 -758 -758 -758zM966 22c386 0 678 292 678 678s-292 678 -678 678c-387 0 -678 -292 -678 -678s291 -678 678 -678zM1125 284h-240l34 156h-402l-2 132l449 551h344l-115 -530h105
l-33 -153h-105zM928 817l-182 -224h206l43 189c11 47 26 101 46 162l-27 9c-35 -60 -60 -99 -86 -136z" />
    <glyph glyph-name="uni2464" unicode="&#x2464;" horiz-adv-x="1857" 
d="M966 -58c-433 0 -758 326 -758 758s325 758 758 758c432 0 758 -326 758 -758s-326 -758 -758 -758zM966 22c386 0 678 292 678 678s-292 678 -678 678c-387 0 -678 -292 -678 -678s291 -678 678 -678zM900 267c-204 0 -339 75 -360 199l247 53c11 -58 55 -91 122 -91
c90 0 150 61 149 151c0 69 -42 104 -115 104c-64 0 -110 -25 -136 -74l-222 53l115 461h668l-38 -174h-444l-42 -159c50 28 108 40 176 40c178 0 285 -85 285 -231c1 -204 -155 -332 -405 -332z" />
    <glyph glyph-name="uni2465" unicode="&#x2465;" horiz-adv-x="1857" 
d="M966 -58c-433 0 -758 326 -758 758s325 758 758 758c432 0 758 -326 758 -758s-326 -758 -758 -758zM966 22c386 0 678 292 678 678s-292 678 -678 678c-387 0 -678 -292 -678 -678s291 -678 678 -678zM1024 1136c207 0 332 -83 341 -229l-240 -19c-7 54 -51 85 -116 85
c-93 0 -150 -65 -176 -189l-6 -30c55 39 122 60 204 60c177 0 278 -79 278 -223c-1 -205 -140 -326 -384 -326c-283 0 -399 159 -345 411l19 88c52 245 186 372 425 372zM956 671c-98 0 -154 -53 -154 -139c0 -67 44 -104 122 -104c96 0 151 55 151 147c0 62 -44 96 -119 96
z" />
    <glyph glyph-name="uni2466" unicode="&#x2466;" horiz-adv-x="1857" 
d="M966 -58c-433 0 -758 326 -758 758s325 758 758 758c432 0 758 -326 758 -758s-326 -758 -758 -758zM966 22c386 0 678 292 678 678s-292 678 -678 678c-387 0 -678 -292 -678 -678s291 -678 678 -678zM937 280h-252c82 296 200 503 387 653h-449l41 186h704l-33 -146
c-193 -157 -302 -344 -398 -693z" />
    <glyph glyph-name="uni2467" unicode="&#x2467;" horiz-adv-x="1857" 
d="M966 -58c-433 0 -758 326 -758 758s325 758 758 758c432 0 758 -326 758 -758s-326 -758 -758 -758zM966 22c386 0 678 292 678 678s-292 678 -678 678c-387 0 -678 -292 -678 -678s291 -678 678 -678zM910 264c-234 0 -369 80 -369 220c0 127 79 214 217 236l2 12
c-69 26 -109 80 -109 149c0 161 136 254 373 254c222 0 349 -77 349 -209c0 -115 -70 -194 -191 -216l-2 -12c82 -26 129 -83 129 -159c0 -175 -145 -275 -399 -275zM997 780c87 0 137 40 137 110c0 56 -43 88 -119 88c-88 0 -138 -41 -138 -112c0 -55 43 -86 120 -86z
M918 421c96 0 150 46 150 125c0 59 -46 93 -128 93c-96 0 -150 -46 -150 -125c0 -59 46 -93 128 -93z" />
    <glyph glyph-name="uni2468" unicode="&#x2468;" horiz-adv-x="1857" 
d="M966 -58c-433 0 -758 326 -758 758s325 758 758 758c432 0 758 -326 758 -758s-326 -758 -758 -758zM966 22c386 0 678 292 678 678s-292 678 -678 678c-387 0 -678 -292 -678 -678s291 -678 678 -678zM907 265c-206 0 -331 83 -341 228l241 20c6 -54 50 -85 116 -85
c92 0 150 65 176 189l6 29c-56 -38 -122 -59 -205 -59c-176 0 -278 79 -277 223c0 205 140 326 383 326c283 0 400 -159 346 -411l-20 -88c-52 -245 -185 -372 -425 -372zM976 730c97 0 154 52 154 139c0 67 -44 104 -123 104c-96 0 -151 -55 -150 -147
c0 -62 43 -96 119 -96z" />
    <glyph glyph-name="uni24FF" unicode="&#x24ff;" horiz-adv-x="1857" 
d="M966 -58c432 0 758 326 758 758s-326 758 -758 758c-433 0 -758 -326 -758 -758s325 -758 758 -758zM924 265c-270 0 -399 172 -339 442l18 83c44 227 183 345 404 345c270 0 399 -171 339 -442l-18 -82c-45 -228 -183 -346 -404 -346zM929 439c79 0 128 59 153 179
l29 134c29 130 -9 210 -109 210c-80 0 -128 -60 -153 -178l-30 -134c-29 -130 8 -211 110 -211z" />
    <glyph glyph-name="uni2776" unicode="&#x2776;" horiz-adv-x="1857" 
d="M966 -58c432 0 758 326 758 758s-326 758 -758 758c-433 0 -758 -326 -758 -758s325 -758 758 -758zM1275 290h-712l39 179h261l75 347h-243l33 154c249 6 273 19 319 159h207l-144 -660h204z" />
    <glyph glyph-name="uni2777" unicode="&#x2777;" horiz-adv-x="1857" 
d="M966 -58c432 0 758 326 758 758s-326 758 -758 758c-433 0 -758 -326 -758 -758s325 -758 758 -758zM1253 286h-688v158c447 246 576 338 576 444c0 52 -44 84 -113 84c-74 0 -121 -43 -132 -128l-237 21c19 175 163 275 386 275c213 0 335 -81 335 -222
c0 -151 -108 -251 -462 -446l2 -10c42 3 74 3 106 3h266z" />
    <glyph glyph-name="uni2778" unicode="&#x2778;" horiz-adv-x="1857" 
d="M966 -58c432 0 758 326 758 758s-326 758 -758 758c-433 0 -758 -326 -758 -758s325 -758 758 -758zM924 266c-240 0 -369 93 -363 266l243 24c1 -86 44 -129 127 -129c79 0 128 50 127 132c-1 58 -36 84 -88 87l-59 3l21 129l63 2c71 3 123 46 122 114
c0 51 -41 83 -113 83c-77 0 -121 -32 -133 -98l-230 25c28 156 154 234 380 234c216 0 340 -79 340 -210c0 -118 -67 -192 -195 -214l-1 -17c89 -21 135 -72 135 -159c0 -163 -149 -272 -376 -272z" />
    <glyph glyph-name="uni2779" unicode="&#x2779;" horiz-adv-x="1857" 
d="M966 -58c432 0 758 326 758 758s-326 758 -758 758c-433 0 -758 -326 -758 -758s325 -758 758 -758zM1125 284h-240l34 156h-402l-2 132l449 551h344l-115 -530h105l-33 -153h-105zM928 817l-182 -224h206l43 189c11 47 26 101 46 162l-27 9c-35 -60 -60 -99 -86 -136z
" />
    <glyph glyph-name="uni277A" unicode="&#x277a;" horiz-adv-x="1857" 
d="M966 -58c432 0 758 326 758 758s-326 758 -758 758c-433 0 -758 -326 -758 -758s325 -758 758 -758zM900 267c-204 0 -339 75 -360 199l247 53c11 -58 55 -91 122 -91c90 0 150 61 149 151c0 69 -42 104 -115 104c-64 0 -110 -25 -136 -74l-222 53l115 461h668l-38 -174
h-444l-42 -159c50 28 108 40 176 40c178 0 285 -85 285 -231c1 -204 -155 -332 -405 -332z" />
    <glyph glyph-name="uni277B" unicode="&#x277b;" horiz-adv-x="1857" 
d="M966 -58c432 0 758 326 758 758s-326 758 -758 758c-433 0 -758 -326 -758 -758s325 -758 758 -758zM1024 1136c207 0 332 -83 341 -229l-240 -19c-7 54 -51 85 -116 85c-93 0 -150 -65 -176 -189l-6 -30c55 39 122 60 204 60c177 0 278 -79 278 -223
c-1 -205 -140 -326 -384 -326c-283 0 -399 159 -345 411l19 88c52 245 186 372 425 372zM956 671c-98 0 -154 -53 -154 -139c0 -67 44 -104 122 -104c96 0 151 55 151 147c0 62 -44 96 -119 96z" />
    <glyph glyph-name="uni277C" unicode="&#x277c;" horiz-adv-x="1857" 
d="M966 -58c432 0 758 326 758 758s-326 758 -758 758c-433 0 -758 -326 -758 -758s325 -758 758 -758zM937 280h-252c82 296 200 503 387 653h-449l41 186h704l-33 -146c-193 -157 -302 -344 -398 -693z" />
    <glyph glyph-name="uni277D" unicode="&#x277d;" horiz-adv-x="1857" 
d="M966 -58c432 0 758 326 758 758s-326 758 -758 758c-433 0 -758 -326 -758 -758s325 -758 758 -758zM910 264c-234 0 -369 80 -369 220c0 127 79 214 217 236l2 12c-69 26 -109 80 -109 149c0 161 136 254 373 254c222 0 349 -77 349 -209c0 -115 -70 -194 -191 -216
l-2 -12c82 -26 129 -83 129 -159c0 -175 -145 -275 -399 -275zM997 780c87 0 137 40 137 110c0 56 -43 88 -119 88c-88 0 -138 -41 -138 -112c0 -55 43 -86 120 -86zM918 421c96 0 150 46 150 125c0 59 -46 93 -128 93c-96 0 -150 -46 -150 -125c0 -59 46 -93 128 -93z" />
    <glyph glyph-name="uni277E" unicode="&#x277e;" horiz-adv-x="1857" 
d="M966 -58c432 0 758 326 758 758s-326 758 -758 758c-433 0 -758 -326 -758 -758s325 -758 758 -758zM907 265c-206 0 -331 83 -341 228l241 20c6 -54 50 -85 116 -85c92 0 150 65 176 189l6 29c-56 -38 -122 -59 -205 -59c-176 0 -278 79 -277 223c0 205 140 326 383 326
c283 0 400 -159 346 -411l-20 -88c-52 -245 -185 -372 -425 -372zM976 730c97 0 154 52 154 139c0 67 -44 104 -123 104c-96 0 -151 -55 -150 -147c0 -62 43 -96 119 -96z" />
    <glyph glyph-name="uni2460.init" 
d="M1485 -20h-529c-427 0 -750 310 -750 720s323 720 750 720h835l-16 -75h-819c-382 0 -670 -277 -670 -645s288 -645 670 -645h545zM1435 290h-712l39 179h261l75 347h-243l33 154c249 6 273 19 319 159h207l-144 -660h204z" />
    <glyph glyph-name="uni2460.medi" horiz-adv-x="1020" 
d="M1196 1345h-1024l16 75h1024zM856 290h-712l39 179h261l75 347h-243l33 154c249 6 273 19 319 159h207l-144 -660h204zM906 -20h-1024l16 75h1024z" />
    <glyph glyph-name="uni2460.fina" 
d="M188 1420h529c427 0 750 -310 750 -720s-323 -720 -750 -720h-835l16 75h819c382 0 670 277 670 645s-288 645 -670 645h-545zM856 290h-712l39 179h261l75 347h-243l33 154c249 6 273 19 319 159h207l-144 -660h204z" />
    <glyph glyph-name="uni2461.init" 
d="M1485 -20h-529c-427 0 -750 310 -750 720s323 720 750 720h835l-16 -75h-819c-382 0 -670 -277 -670 -645s288 -645 670 -645h545zM1414 286h-688v158c447 246 576 338 576 444c0 52 -44 84 -113 84c-74 0 -121 -43 -132 -128l-237 21c19 175 163 275 386 275
c213 0 335 -81 335 -222c0 -151 -108 -251 -462 -446l2 -10c42 3 74 3 106 3h266z" />
    <glyph glyph-name="uni2461.medi" horiz-adv-x="1020" 
d="M1196 1345h-1024l16 75h1024zM835 286h-688v158c447 246 576 338 576 444c0 52 -44 84 -113 84c-74 0 -121 -43 -132 -128l-237 21c19 175 163 275 386 275c213 0 335 -81 335 -222c0 -151 -108 -251 -462 -446l2 -10c42 3 74 3 106 3h266zM906 -20h-1024l16 75h1024z
" />
    <glyph glyph-name="uni2461.fina" 
d="M188 1420h529c427 0 750 -310 750 -720s-323 -720 -750 -720h-835l16 75h819c382 0 670 277 670 645s-288 645 -670 645h-545zM835 286h-688v158c447 246 576 338 576 444c0 52 -44 84 -113 84c-74 0 -121 -43 -132 -128l-237 21c19 175 163 275 386 275
c213 0 335 -81 335 -222c0 -151 -108 -251 -462 -446l2 -10c42 3 74 3 106 3h266z" />
    <glyph glyph-name="uni2462.init" 
d="M1485 -20h-529c-427 0 -750 310 -750 720s323 720 750 720h835l-16 -75h-819c-382 0 -670 -277 -670 -645s288 -645 670 -645h545zM1084 266c-240 0 -369 93 -363 266l243 24c1 -86 44 -129 127 -129c79 0 128 50 127 132c-1 58 -36 84 -88 87l-59 3l21 129l63 2
c71 3 123 46 122 114c0 51 -41 83 -113 83c-77 0 -121 -32 -133 -98l-230 25c28 156 154 234 380 234c216 0 340 -79 340 -210c0 -118 -67 -192 -195 -214l-1 -17c89 -21 135 -72 135 -159c0 -163 -149 -272 -376 -272z" />
    <glyph glyph-name="uni2462.medi" horiz-adv-x="1020" 
d="M1196 1345h-1024l16 75h1024zM505 266c-240 0 -369 93 -363 266l243 24c1 -86 44 -129 127 -129c79 0 128 50 127 132c-1 58 -36 84 -88 87l-59 3l21 129l63 2c71 3 123 46 122 114c0 51 -41 83 -113 83c-77 0 -121 -32 -133 -98l-230 25c28 156 154 234 380 234
c216 0 340 -79 340 -210c0 -118 -67 -192 -195 -214l-1 -17c89 -21 135 -72 135 -159c0 -163 -149 -272 -376 -272zM906 -20h-1024l16 75h1024z" />
    <glyph glyph-name="uni2462.fina" 
d="M188 1420h529c427 0 750 -310 750 -720s-323 -720 -750 -720h-835l16 75h819c382 0 670 277 670 645s-288 645 -670 645h-545zM505 266c-240 0 -369 93 -363 266l243 24c1 -86 44 -129 127 -129c79 0 128 50 127 132c-1 58 -36 84 -88 87l-59 3l21 129l63 2
c71 3 123 46 122 114c0 51 -41 83 -113 83c-77 0 -121 -32 -133 -98l-230 25c28 156 154 234 380 234c216 0 340 -79 340 -210c0 -118 -67 -192 -195 -214l-1 -17c89 -21 135 -72 135 -159c0 -163 -149 -272 -376 -272z" />
    <glyph glyph-name="uni2463.init" 
d="M1485 -20h-529c-427 0 -750 310 -750 720s323 720 750 720h835l-16 -75h-819c-382 0 -670 -277 -670 -645s288 -645 670 -645h545zM1285 284h-240l34 156h-402l-2 132l449 551h344l-115 -530h105l-33 -153h-105zM1088 817l-182 -224h206l43 189c11 47 26 101 46 162
l-27 9c-35 -60 -60 -99 -86 -136z" />
    <glyph glyph-name="uni2463.medi" horiz-adv-x="1020" 
d="M1196 1345h-1024l16 75h1024zM706 284h-240l34 156h-402l-2 132l449 551h344l-115 -530h105l-33 -153h-105zM509 817l-182 -224h206l43 189c11 47 26 101 46 162l-27 9c-35 -60 -60 -99 -86 -136zM906 -20h-1024l16 75h1024z" />
    <glyph glyph-name="uni2463.fina" 
d="M188 1420h529c427 0 750 -310 750 -720s-323 -720 -750 -720h-835l16 75h819c382 0 670 277 670 645s-288 645 -670 645h-545zM706 284h-240l34 156h-402l-2 132l449 551h344l-115 -530h105l-33 -153h-105zM509 817l-182 -224h206l43 189c11 47 26 101 46 162l-27 9
c-35 -60 -60 -99 -86 -136z" />
    <glyph glyph-name="uni2464.init" 
d="M1485 -20h-529c-427 0 -750 310 -750 720s323 720 750 720h835l-16 -75h-819c-382 0 -670 -277 -670 -645s288 -645 670 -645h545zM1061 267c-204 0 -339 75 -360 199l247 53c11 -58 55 -91 122 -91c90 0 150 61 149 151c0 69 -42 104 -115 104c-64 0 -110 -25 -136 -74
l-222 53l115 461h668l-38 -174h-444l-42 -159c50 28 108 40 176 40c178 0 285 -85 285 -231c1 -204 -155 -332 -405 -332z" />
    <glyph glyph-name="uni2464.medi" horiz-adv-x="1020" 
d="M1196 1345h-1024l16 75h1024zM482 267c-204 0 -339 75 -360 199l247 53c11 -58 55 -91 122 -91c90 0 150 61 149 151c0 69 -42 104 -115 104c-64 0 -110 -25 -136 -74l-222 53l115 461h668l-38 -174h-444l-42 -159c50 28 108 40 176 40c178 0 285 -85 285 -231
c1 -204 -155 -332 -405 -332zM906 -20h-1024l16 75h1024z" />
    <glyph glyph-name="uni2464.fina" 
d="M188 1420h529c427 0 750 -310 750 -720s-323 -720 -750 -720h-835l16 75h819c382 0 670 277 670 645s-288 645 -670 645h-545zM482 267c-204 0 -339 75 -360 199l247 53c11 -58 55 -91 122 -91c90 0 150 61 149 151c0 69 -42 104 -115 104c-64 0 -110 -25 -136 -74
l-222 53l115 461h668l-38 -174h-444l-42 -159c50 28 108 40 176 40c178 0 285 -85 285 -231c1 -204 -155 -332 -405 -332z" />
    <glyph glyph-name="uni2465.init" 
d="M1485 -20h-529c-427 0 -750 310 -750 720s323 720 750 720h835l-16 -75h-819c-382 0 -670 -277 -670 -645s288 -645 670 -645h545zM1184 1136c207 0 332 -83 341 -229l-240 -19c-7 54 -51 85 -116 85c-93 0 -150 -65 -176 -189l-6 -30c55 39 122 60 204 60
c177 0 278 -79 278 -223c-1 -205 -140 -326 -384 -326c-283 0 -399 159 -345 411l19 88c52 245 186 372 425 372zM1116 671c-98 0 -154 -53 -154 -139c0 -67 44 -104 122 -104c96 0 151 55 151 147c0 62 -44 96 -119 96z" />
    <glyph glyph-name="uni2465.medi" horiz-adv-x="1020" 
d="M1196 1345h-1024l16 75h1024zM605 1136c207 0 332 -83 341 -229l-240 -19c-7 54 -51 85 -116 85c-93 0 -150 -65 -176 -189l-6 -30c55 39 122 60 204 60c177 0 278 -79 278 -223c-1 -205 -140 -326 -384 -326c-283 0 -399 159 -345 411l19 88c52 245 186 372 425 372z
M537 671c-98 0 -154 -53 -154 -139c0 -67 44 -104 122 -104c96 0 151 55 151 147c0 62 -44 96 -119 96zM906 -20h-1024l16 75h1024z" />
    <glyph glyph-name="uni2465.fina" 
d="M188 1420h529c427 0 750 -310 750 -720s-323 -720 -750 -720h-835l16 75h819c382 0 670 277 670 645s-288 645 -670 645h-545zM605 1136c207 0 332 -83 341 -229l-240 -19c-7 54 -51 85 -116 85c-93 0 -150 -65 -176 -189l-6 -30c55 39 122 60 204 60
c177 0 278 -79 278 -223c-1 -205 -140 -326 -384 -326c-283 0 -399 159 -345 411l19 88c52 245 186 372 425 372zM537 671c-98 0 -154 -53 -154 -139c0 -67 44 -104 122 -104c96 0 151 55 151 147c0 62 -44 96 -119 96z" />
    <glyph glyph-name="uni2466.init" 
d="M1485 -20h-529c-427 0 -750 310 -750 720s323 720 750 720h835l-16 -75h-819c-382 0 -670 -277 -670 -645s288 -645 670 -645h545zM1098 280h-252c82 296 200 503 387 653h-449l41 186h704l-33 -146c-193 -157 -302 -344 -398 -693z" />
    <glyph glyph-name="uni2466.medi" horiz-adv-x="1020" 
d="M1196 1345h-1024l16 75h1024zM519 280h-252c82 296 200 503 387 653h-449l41 186h704l-33 -146c-193 -157 -302 -344 -398 -693zM906 -20h-1024l16 75h1024z" />
    <glyph glyph-name="uni2466.fina" 
d="M188 1420h529c427 0 750 -310 750 -720s-323 -720 -750 -720h-835l16 75h819c382 0 670 277 670 645s-288 645 -670 645h-545zM519 280h-252c82 296 200 503 387 653h-449l41 186h704l-33 -146c-193 -157 -302 -344 -398 -693z" />
    <glyph glyph-name="uni2467.init" 
d="M1485 -20h-529c-427 0 -750 310 -750 720s323 720 750 720h835l-16 -75h-819c-382 0 -670 -277 -670 -645s288 -645 670 -645h545zM1071 264c-234 0 -369 80 -369 220c0 127 79 214 217 236l2 12c-69 26 -109 80 -109 149c0 161 136 254 373 254c222 0 349 -77 349 -209
c0 -115 -70 -194 -191 -216l-2 -12c82 -26 129 -83 129 -159c0 -175 -145 -275 -399 -275zM1158 780c87 0 137 40 137 110c0 56 -43 88 -119 88c-88 0 -138 -41 -138 -112c0 -55 43 -86 120 -86zM1079 421c96 0 150 46 150 125c0 59 -46 93 -128 93
c-96 0 -150 -46 -150 -125c0 -59 46 -93 128 -93z" />
    <glyph glyph-name="uni2467.medi" horiz-adv-x="1020" 
d="M1196 1345h-1024l16 75h1024zM492 264c-234 0 -369 80 -369 220c0 127 79 214 217 236l2 12c-69 26 -109 80 -109 149c0 161 136 254 373 254c222 0 349 -77 349 -209c0 -115 -70 -194 -191 -216l-2 -12c82 -26 129 -83 129 -159c0 -175 -145 -275 -399 -275zM579 780
c87 0 137 40 137 110c0 56 -43 88 -119 88c-88 0 -138 -41 -138 -112c0 -55 43 -86 120 -86zM500 421c96 0 150 46 150 125c0 59 -46 93 -128 93c-96 0 -150 -46 -150 -125c0 -59 46 -93 128 -93zM906 -20h-1024l16 75h1024z" />
    <glyph glyph-name="uni2467.fina" 
d="M188 1420h529c427 0 750 -310 750 -720s-323 -720 -750 -720h-835l16 75h819c382 0 670 277 670 645s-288 645 -670 645h-545zM492 264c-234 0 -369 80 -369 220c0 127 79 214 217 236l2 12c-69 26 -109 80 -109 149c0 161 136 254 373 254c222 0 349 -77 349 -209
c0 -115 -70 -194 -191 -216l-2 -12c82 -26 129 -83 129 -159c0 -175 -145 -275 -399 -275zM579 780c87 0 137 40 137 110c0 56 -43 88 -119 88c-88 0 -138 -41 -138 -112c0 -55 43 -86 120 -86zM500 421c96 0 150 46 150 125c0 59 -46 93 -128 93c-96 0 -150 -46 -150 -125
c0 -59 46 -93 128 -93z" />
    <glyph glyph-name="uni2468.init" 
d="M1485 -20h-529c-427 0 -750 310 -750 720s323 720 750 720h835l-16 -75h-819c-382 0 -670 -277 -670 -645s288 -645 670 -645h545zM1067 265c-206 0 -331 83 -341 228l241 20c6 -54 50 -85 116 -85c92 0 150 65 176 189l6 29c-56 -38 -122 -59 -205 -59
c-176 0 -278 79 -277 223c0 205 140 326 383 326c283 0 400 -159 346 -411l-20 -88c-52 -245 -185 -372 -425 -372zM1136 730c97 0 154 52 154 139c0 67 -44 104 -123 104c-96 0 -151 -55 -150 -147c0 -62 43 -96 119 -96z" />
    <glyph glyph-name="uni2468.medi" horiz-adv-x="1020" 
d="M1196 1345h-1024l16 75h1024zM488 265c-206 0 -331 83 -341 228l241 20c6 -54 50 -85 116 -85c92 0 150 65 176 189l6 29c-56 -38 -122 -59 -205 -59c-176 0 -278 79 -277 223c0 205 140 326 383 326c283 0 400 -159 346 -411l-20 -88c-52 -245 -185 -372 -425 -372z
M557 730c97 0 154 52 154 139c0 67 -44 104 -123 104c-96 0 -151 -55 -150 -147c0 -62 43 -96 119 -96zM906 -20h-1024l16 75h1024z" />
    <glyph glyph-name="uni2468.fina" 
d="M188 1420h529c427 0 750 -310 750 -720s-323 -720 -750 -720h-835l16 75h819c382 0 670 277 670 645s-288 645 -670 645h-545zM488 265c-206 0 -331 83 -341 228l241 20c6 -54 50 -85 116 -85c92 0 150 65 176 189l6 29c-56 -38 -122 -59 -205 -59
c-176 0 -278 79 -277 223c0 205 140 326 383 326c283 0 400 -159 346 -411l-20 -88c-52 -245 -185 -372 -425 -372zM557 730c97 0 154 52 154 139c0 67 -44 104 -123 104c-96 0 -151 -55 -150 -147c0 -62 43 -96 119 -96z" />
    <glyph glyph-name="uni24EA.init" 
d="M1485 -20h-529c-427 0 -750 310 -750 720s323 720 750 720h835l-16 -75h-819c-382 0 -670 -277 -670 -645s288 -645 670 -645h545zM1085 265c-270 0 -399 172 -339 442l18 83c44 227 183 345 404 345c270 0 399 -171 339 -442l-18 -82c-45 -228 -183 -346 -404 -346z
M1090 439c79 0 128 59 153 179l29 134c29 130 -9 210 -109 210c-80 0 -128 -60 -153 -178l-30 -134c-29 -130 8 -211 110 -211z" />
    <glyph glyph-name="uni24EA.medi" horiz-adv-x="1020" 
d="M1196 1345h-1024l16 75h1024zM506 265c-270 0 -399 172 -339 442l18 83c44 227 183 345 404 345c270 0 399 -171 339 -442l-18 -82c-45 -228 -183 -346 -404 -346zM511 439c79 0 128 59 153 179l29 134c29 130 -9 210 -109 210c-80 0 -128 -60 -153 -178l-30 -134
c-29 -130 8 -211 110 -211zM906 -20h-1024l16 75h1024z" />
    <glyph glyph-name="uni24EA.fina" 
d="M188 1420h529c427 0 750 -310 750 -720s-323 -720 -750 -720h-835l16 75h819c382 0 670 277 670 645s-288 645 -670 645h-545zM506 265c-270 0 -399 172 -339 442l18 83c44 227 183 345 404 345c270 0 399 -171 339 -442l-18 -82c-45 -228 -183 -346 -404 -346zM511 439
c79 0 128 59 153 179l29 134c29 130 -9 210 -109 210c-80 0 -128 -60 -153 -178l-30 -134c-29 -130 8 -211 110 -211z" />
    <glyph glyph-name="uni2776.init" 
d="M956 -20h529l306 1440h-835c-427 0 -750 -310 -750 -720s323 -720 750 -720zM1435 290h-712l39 179h261l75 347h-243l33 154c249 6 273 19 319 159h207l-144 -660h204z" />
    <glyph glyph-name="uni2776.medi" horiz-adv-x="1020" 
d="M188 1420l-306 -1440h1024l306 1440h-1024zM856 290h-712l39 179h261l75 347h-243l33 154c249 6 273 19 319 159h207l-144 -660h204z" />
    <glyph glyph-name="uni2776.fina" 
d="M717 1420h-529l-306 -1440h835c427 0 750 310 750 720s-323 720 -750 720zM856 290h-712l39 179h261l75 347h-243l33 154c249 6 273 19 319 159h207l-144 -660h204z" />
    <glyph glyph-name="uni2777.init" 
d="M956 -20h529l306 1440h-835c-427 0 -750 -310 -750 -720s323 -720 750 -720zM1414 286h-688v158c447 246 576 338 576 444c0 52 -44 84 -113 84c-74 0 -121 -43 -132 -128l-237 21c19 175 163 275 386 275c213 0 335 -81 335 -222c0 -151 -108 -251 -462 -446l2 -10
c42 3 74 3 106 3h266z" />
    <glyph glyph-name="uni2777.medi" horiz-adv-x="1020" 
d="M188 1420l-306 -1440h1024l306 1440h-1024zM835 286h-688v158c447 246 576 338 576 444c0 52 -44 84 -113 84c-74 0 -121 -43 -132 -128l-237 21c19 175 163 275 386 275c213 0 335 -81 335 -222c0 -151 -108 -251 -462 -446l2 -10c42 3 74 3 106 3h266z" />
    <glyph glyph-name="uni2777.fina" 
d="M717 1420h-529l-306 -1440h835c427 0 750 310 750 720s-323 720 -750 720zM835 286h-688v158c447 246 576 338 576 444c0 52 -44 84 -113 84c-74 0 -121 -43 -132 -128l-237 21c19 175 163 275 386 275c213 0 335 -81 335 -222c0 -151 -108 -251 -462 -446l2 -10
c42 3 74 3 106 3h266z" />
    <glyph glyph-name="uni2778.init" 
d="M956 -20h529l306 1440h-835c-427 0 -750 -310 -750 -720s323 -720 750 -720zM1084 266c-240 0 -369 93 -363 266l243 24c1 -86 44 -129 127 -129c79 0 128 50 127 132c-1 58 -36 84 -88 87l-59 3l21 129l63 2c71 3 123 46 122 114c0 51 -41 83 -113 83
c-77 0 -121 -32 -133 -98l-230 25c28 156 154 234 380 234c216 0 340 -79 340 -210c0 -118 -67 -192 -195 -214l-1 -17c89 -21 135 -72 135 -159c0 -163 -149 -272 -376 -272z" />
    <glyph glyph-name="uni2778.medi" horiz-adv-x="1020" 
d="M188 1420l-306 -1440h1024l306 1440h-1024zM505 266c-240 0 -369 93 -363 266l243 24c1 -86 44 -129 127 -129c79 0 128 50 127 132c-1 58 -36 84 -88 87l-59 3l21 129l63 2c71 3 123 46 122 114c0 51 -41 83 -113 83c-77 0 -121 -32 -133 -98l-230 25
c28 156 154 234 380 234c216 0 340 -79 340 -210c0 -118 -67 -192 -195 -214l-1 -17c89 -21 135 -72 135 -159c0 -163 -149 -272 -376 -272z" />
    <glyph glyph-name="uni2778.fina" 
d="M717 1420h-529l-306 -1440h835c427 0 750 310 750 720s-323 720 -750 720zM505 266c-240 0 -369 93 -363 266l243 24c1 -86 44 -129 127 -129c79 0 128 50 127 132c-1 58 -36 84 -88 87l-59 3l21 129l63 2c71 3 123 46 122 114c0 51 -41 83 -113 83
c-77 0 -121 -32 -133 -98l-230 25c28 156 154 234 380 234c216 0 340 -79 340 -210c0 -118 -67 -192 -195 -214l-1 -17c89 -21 135 -72 135 -159c0 -163 -149 -272 -376 -272z" />
    <glyph glyph-name="uni2779.init" 
d="M956 -20h529l306 1440h-835c-427 0 -750 -310 -750 -720s323 -720 750 -720zM1285 284h-240l34 156h-402l-2 132l449 551h344l-115 -530h105l-33 -153h-105zM1088 817l-182 -224h206l43 189c11 47 26 101 46 162l-27 9c-35 -60 -60 -99 -86 -136z" />
    <glyph glyph-name="uni2779.medi" horiz-adv-x="1020" 
d="M188 1420l-306 -1440h1024l306 1440h-1024zM706 284h-240l34 156h-402l-2 132l449 551h344l-115 -530h105l-33 -153h-105zM509 817l-182 -224h206l43 189c11 47 26 101 46 162l-27 9c-35 -60 -60 -99 -86 -136z" />
    <glyph glyph-name="uni2779.fina" 
d="M717 1420h-529l-306 -1440h835c427 0 750 310 750 720s-323 720 -750 720zM706 284h-240l34 156h-402l-2 132l449 551h344l-115 -530h105l-33 -153h-105zM509 817l-182 -224h206l43 189c11 47 26 101 46 162l-27 9c-35 -60 -60 -99 -86 -136z" />
    <glyph glyph-name="uni277A.init" 
d="M956 -20h529l306 1440h-835c-427 0 -750 -310 -750 -720s323 -720 750 -720zM1061 267c-204 0 -339 75 -360 199l247 53c11 -58 55 -91 122 -91c90 0 150 61 149 151c0 69 -42 104 -115 104c-64 0 -110 -25 -136 -74l-222 53l115 461h668l-38 -174h-444l-42 -159
c50 28 108 40 176 40c178 0 285 -85 285 -231c1 -204 -155 -332 -405 -332z" />
    <glyph glyph-name="uni277A.medi" horiz-adv-x="1020" 
d="M188 1420l-306 -1440h1024l306 1440h-1024zM482 267c-204 0 -339 75 -360 199l247 53c11 -58 55 -91 122 -91c90 0 150 61 149 151c0 69 -42 104 -115 104c-64 0 -110 -25 -136 -74l-222 53l115 461h668l-38 -174h-444l-42 -159c50 28 108 40 176 40
c178 0 285 -85 285 -231c1 -204 -155 -332 -405 -332z" />
    <glyph glyph-name="uni277A.fina" 
d="M717 1420h-529l-306 -1440h835c427 0 750 310 750 720s-323 720 -750 720zM482 267c-204 0 -339 75 -360 199l247 53c11 -58 55 -91 122 -91c90 0 150 61 149 151c0 69 -42 104 -115 104c-64 0 -110 -25 -136 -74l-222 53l115 461h668l-38 -174h-444l-42 -159
c50 28 108 40 176 40c178 0 285 -85 285 -231c1 -204 -155 -332 -405 -332z" />
    <glyph glyph-name="uni277B.init" 
d="M956 -20h529l306 1440h-835c-427 0 -750 -310 -750 -720s323 -720 750 -720zM1184 1136c207 0 332 -83 341 -229l-240 -19c-7 54 -51 85 -116 85c-93 0 -150 -65 -176 -189l-6 -30c55 39 122 60 204 60c177 0 278 -79 278 -223c-1 -205 -140 -326 -384 -326
c-283 0 -399 159 -345 411l19 88c52 245 186 372 425 372zM1116 671c-98 0 -154 -53 -154 -139c0 -67 44 -104 122 -104c96 0 151 55 151 147c0 62 -44 96 -119 96z" />
    <glyph glyph-name="uni277B.medi" horiz-adv-x="1020" 
d="M188 1420l-306 -1440h1024l306 1440h-1024zM605 1136c207 0 332 -83 341 -229l-240 -19c-7 54 -51 85 -116 85c-93 0 -150 -65 -176 -189l-6 -30c55 39 122 60 204 60c177 0 278 -79 278 -223c-1 -205 -140 -326 -384 -326c-283 0 -399 159 -345 411l19 88
c52 245 186 372 425 372zM537 671c-98 0 -154 -53 -154 -139c0 -67 44 -104 122 -104c96 0 151 55 151 147c0 62 -44 96 -119 96z" />
    <glyph glyph-name="uni277B.fina" 
d="M717 1420h-529l-306 -1440h835c427 0 750 310 750 720s-323 720 -750 720zM605 1136c207 0 332 -83 341 -229l-240 -19c-7 54 -51 85 -116 85c-93 0 -150 -65 -176 -189l-6 -30c55 39 122 60 204 60c177 0 278 -79 278 -223c-1 -205 -140 -326 -384 -326
c-283 0 -399 159 -345 411l19 88c52 245 186 372 425 372zM537 671c-98 0 -154 -53 -154 -139c0 -67 44 -104 122 -104c96 0 151 55 151 147c0 62 -44 96 -119 96z" />
    <glyph glyph-name="uni277C.init" 
d="M956 -20h529l306 1440h-835c-427 0 -750 -310 -750 -720s323 -720 750 -720zM1098 280h-252c82 296 200 503 387 653h-449l41 186h704l-33 -146c-193 -157 -302 -344 -398 -693z" />
    <glyph glyph-name="uni277C.medi" horiz-adv-x="1020" 
d="M188 1420l-306 -1440h1024l306 1440h-1024zM519 280h-252c82 296 200 503 387 653h-449l41 186h704l-33 -146c-193 -157 -302 -344 -398 -693z" />
    <glyph glyph-name="uni277C.fina" 
d="M717 1420h-529l-306 -1440h835c427 0 750 310 750 720s-323 720 -750 720zM519 280h-252c82 296 200 503 387 653h-449l41 186h704l-33 -146c-193 -157 -302 -344 -398 -693z" />
    <glyph glyph-name="uni277D.init" 
d="M956 -20h529l306 1440h-835c-427 0 -750 -310 -750 -720s323 -720 750 -720zM1071 264c-234 0 -369 80 -369 220c0 127 79 214 217 236l2 12c-69 26 -109 80 -109 149c0 161 136 254 373 254c222 0 349 -77 349 -209c0 -115 -70 -194 -191 -216l-2 -12
c82 -26 129 -83 129 -159c0 -175 -145 -275 -399 -275zM1158 780c87 0 137 40 137 110c0 56 -43 88 -119 88c-88 0 -138 -41 -138 -112c0 -55 43 -86 120 -86zM1079 421c96 0 150 46 150 125c0 59 -46 93 -128 93c-96 0 -150 -46 -150 -125c0 -59 46 -93 128 -93z" />
    <glyph glyph-name="uni277D.medi" horiz-adv-x="1020" 
d="M188 1420l-306 -1440h1024l306 1440h-1024zM492 264c-234 0 -369 80 -369 220c0 127 79 214 217 236l2 12c-69 26 -109 80 -109 149c0 161 136 254 373 254c222 0 349 -77 349 -209c0 -115 -70 -194 -191 -216l-2 -12c82 -26 129 -83 129 -159
c0 -175 -145 -275 -399 -275zM579 780c87 0 137 40 137 110c0 56 -43 88 -119 88c-88 0 -138 -41 -138 -112c0 -55 43 -86 120 -86zM500 421c96 0 150 46 150 125c0 59 -46 93 -128 93c-96 0 -150 -46 -150 -125c0 -59 46 -93 128 -93z" />
    <glyph glyph-name="uni277D.fina" 
d="M717 1420h-529l-306 -1440h835c427 0 750 310 750 720s-323 720 -750 720zM492 264c-234 0 -369 80 -369 220c0 127 79 214 217 236l2 12c-69 26 -109 80 -109 149c0 161 136 254 373 254c222 0 349 -77 349 -209c0 -115 -70 -194 -191 -216l-2 -12
c82 -26 129 -83 129 -159c0 -175 -145 -275 -399 -275zM579 780c87 0 137 40 137 110c0 56 -43 88 -119 88c-88 0 -138 -41 -138 -112c0 -55 43 -86 120 -86zM500 421c96 0 150 46 150 125c0 59 -46 93 -128 93c-96 0 -150 -46 -150 -125c0 -59 46 -93 128 -93z" />
    <glyph glyph-name="uni277E.init" 
d="M956 -20h529l306 1440h-835c-427 0 -750 -310 -750 -720s323 -720 750 -720zM1067 265c-206 0 -331 83 -341 228l241 20c6 -54 50 -85 116 -85c92 0 150 65 176 189l6 29c-56 -38 -122 -59 -205 -59c-176 0 -278 79 -277 223c0 205 140 326 383 326
c283 0 400 -159 346 -411l-20 -88c-52 -245 -185 -372 -425 -372zM1136 730c97 0 154 52 154 139c0 67 -44 104 -123 104c-96 0 -151 -55 -150 -147c0 -62 43 -96 119 -96z" />
    <glyph glyph-name="uni277E.medi" horiz-adv-x="1020" 
d="M188 1420l-306 -1440h1024l306 1440h-1024zM488 265c-206 0 -331 83 -341 228l241 20c6 -54 50 -85 116 -85c92 0 150 65 176 189l6 29c-56 -38 -122 -59 -205 -59c-176 0 -278 79 -277 223c0 205 140 326 383 326c283 0 400 -159 346 -411l-20 -88
c-52 -245 -185 -372 -425 -372zM557 730c97 0 154 52 154 139c0 67 -44 104 -123 104c-96 0 -151 -55 -150 -147c0 -62 43 -96 119 -96z" />
    <glyph glyph-name="uni277E.fina" 
d="M717 1420h-529l-306 -1440h835c427 0 750 310 750 720s-323 720 -750 720zM488 265c-206 0 -331 83 -341 228l241 20c6 -54 50 -85 116 -85c92 0 150 65 176 189l6 29c-56 -38 -122 -59 -205 -59c-176 0 -278 79 -277 223c0 205 140 326 383 326c283 0 400 -159 346 -411
l-20 -88c-52 -245 -185 -372 -425 -372zM557 730c97 0 154 52 154 139c0 67 -44 104 -123 104c-96 0 -151 -55 -150 -147c0 -62 43 -96 119 -96z" />
    <glyph glyph-name="uni24FF.init" 
d="M956 -20h529l306 1440h-835c-427 0 -750 -310 -750 -720s323 -720 750 -720zM1085 265c-270 0 -399 172 -339 442l18 83c44 227 183 345 404 345c270 0 399 -171 339 -442l-18 -82c-45 -228 -183 -346 -404 -346zM1090 439c79 0 128 59 153 179l29 134
c29 130 -9 210 -109 210c-80 0 -128 -60 -153 -178l-30 -134c-29 -130 8 -211 110 -211z" />
    <glyph glyph-name="uni24FF.medi" horiz-adv-x="1020" 
d="M188 1420l-306 -1440h1024l306 1440h-1024zM506 265c-270 0 -399 172 -339 442l18 83c44 227 183 345 404 345c270 0 399 -171 339 -442l-18 -82c-45 -228 -183 -346 -404 -346zM511 439c79 0 128 59 153 179l29 134c29 130 -9 210 -109 210c-80 0 -128 -60 -153 -178
l-30 -134c-29 -130 8 -211 110 -211z" />
    <glyph glyph-name="uni24FF.fina" 
d="M717 1420h-529l-306 -1440h835c427 0 750 310 750 720s-323 720 -750 720zM506 265c-270 0 -399 172 -339 442l18 83c44 227 183 345 404 345c270 0 399 -171 339 -442l-18 -82c-45 -228 -183 -346 -404 -346zM511 439c79 0 128 59 153 179l29 134
c29 130 -9 210 -109 210c-80 0 -128 -60 -153 -178l-30 -134c-29 -130 8 -211 110 -211z" />
    <glyph glyph-name="zero.dnom" horiz-adv-x="1008" 
d="M440 -13c-270 0 -399 172 -339 442l18 83c44 227 183 345 404 345c270 0 399 -171 339 -442l-18 -82c-45 -228 -183 -346 -404 -346zM445 161c79 0 128 59 153 179l29 134c29 130 -9 210 -109 210c-80 0 -128 -60 -153 -178l-30 -134c-29 -130 8 -211 110 -211z" />
    <glyph glyph-name="one.dnom" horiz-adv-x="1008" 
d="M745 0h-712l39 179h261l75 347h-243l33 154c249 6 273 19 319 159h207l-144 -660h204z" />
    <glyph glyph-name="two.dnom" horiz-adv-x="1008" 
d="M750 0h-688v158c447 246 576 338 576 444c0 52 -44 84 -113 84c-74 0 -121 -43 -132 -128l-237 21c19 175 163 275 386 275c213 0 335 -81 335 -222c0 -151 -108 -251 -462 -446l2 -10c42 3 74 3 106 3h266z" />
    <glyph glyph-name="three.dnom" horiz-adv-x="1008" 
d="M439 -18c-240 0 -369 93 -363 266l243 24c1 -86 44 -129 127 -129c79 0 128 50 127 132c-1 58 -36 84 -88 87l-59 3l21 129l63 2c71 3 123 46 122 114c0 51 -41 83 -113 83c-77 0 -121 -32 -133 -98l-230 25c28 156 154 234 380 234c216 0 340 -79 340 -210
c0 -118 -67 -192 -195 -214l-1 -17c89 -21 135 -72 135 -159c0 -163 -149 -272 -376 -272z" />
    <glyph glyph-name="four.dnom" horiz-adv-x="1008" 
d="M670 0h-240l34 156h-402l-2 132l449 551h344l-115 -530h105l-33 -153h-105zM473 533l-182 -224h206l43 189c11 47 26 101 46 162l-27 9c-35 -60 -60 -99 -86 -136z" />
    <glyph glyph-name="five.dnom" horiz-adv-x="1008" 
d="M424 -18c-204 0 -339 75 -360 199l247 53c11 -58 55 -91 122 -91c90 0 150 61 149 151c0 69 -42 104 -115 104c-64 0 -110 -25 -136 -74l-222 53l115 461h668l-38 -174h-444l-42 -159c50 28 108 40 176 40c178 0 285 -85 285 -231c1 -204 -155 -332 -405 -332z" />
    <glyph glyph-name="six.dnom" horiz-adv-x="1008" 
d="M545 860c207 0 332 -83 341 -229l-240 -19c-7 54 -51 85 -116 85c-93 0 -150 -65 -176 -189l-6 -30c55 39 122 60 204 60c177 0 278 -79 278 -223c-1 -205 -140 -326 -384 -326c-283 0 -399 159 -345 411l19 88c52 245 186 372 425 372zM477 395
c-98 0 -154 -53 -154 -139c0 -67 44 -104 122 -104c96 0 151 55 151 147c0 62 -44 96 -119 96z" />
    <glyph glyph-name="seven.dnom" horiz-adv-x="1008" 
d="M494 0h-252c82 296 200 503 387 653h-449l41 186h704l-33 -146c-193 -157 -302 -344 -398 -693z" />
    <glyph glyph-name="eight.dnom" horiz-adv-x="1008" 
d="M424 -18c-234 0 -369 80 -369 220c0 127 79 214 217 236l2 12c-69 26 -109 80 -109 149c0 161 136 254 373 254c222 0 349 -77 349 -209c0 -115 -70 -194 -191 -216l-2 -12c82 -26 129 -83 129 -159c0 -175 -145 -275 -399 -275zM511 498c87 0 137 40 137 110
c0 56 -43 88 -119 88c-88 0 -138 -41 -138 -112c0 -55 43 -86 120 -86zM432 139c96 0 150 46 150 125c0 59 -46 93 -128 93c-96 0 -150 -46 -150 -125c0 -59 46 -93 128 -93z" />
    <glyph glyph-name="nine.dnom" horiz-adv-x="1008" 
d="M417 -17c-206 0 -331 83 -341 228l241 20c6 -54 50 -85 116 -85c92 0 150 65 176 189l6 29c-56 -38 -122 -59 -205 -59c-176 0 -278 79 -277 223c0 205 140 326 383 326c283 0 400 -159 346 -411l-20 -88c-52 -245 -185 -372 -425 -372zM486 448c97 0 154 52 154 139
c0 67 -44 104 -123 104c-96 0 -151 -55 -150 -147c0 -62 43 -96 119 -96z" />
    <glyph glyph-name="zero.numr" horiz-adv-x="1008" 
d="M559 548c-270 0 -399 172 -339 442l18 83c44 227 183 345 404 345c270 0 399 -171 339 -442l-18 -82c-45 -228 -183 -346 -404 -346zM564 722c79 0 128 59 153 179l29 134c29 130 -9 210 -109 210c-80 0 -128 -60 -153 -178l-30 -134c-29 -130 8 -211 110 -211z" />
    <glyph glyph-name="one.numr" horiz-adv-x="1008" 
d="M864 561h-712l39 179h261l75 347h-243l33 154c249 6 273 19 319 159h207l-144 -660h204z" />
    <glyph glyph-name="two.numr" horiz-adv-x="1008" 
d="M869 561h-688v158c447 246 576 338 576 444c0 52 -44 84 -113 84c-74 0 -121 -43 -132 -128l-237 21c19 175 163 275 386 275c213 0 335 -81 335 -222c0 -151 -108 -251 -462 -446l2 -10c42 3 74 3 106 3h266z" />
    <glyph glyph-name="three.numr" horiz-adv-x="1008" 
d="M558 543c-240 0 -369 93 -363 266l243 24c1 -86 44 -129 127 -129c79 0 128 50 127 132c-1 58 -36 84 -88 87l-59 3l21 129l63 2c71 3 123 46 122 114c0 51 -41 83 -113 83c-77 0 -121 -32 -133 -98l-230 25c28 156 154 234 380 234c216 0 340 -79 340 -210
c0 -118 -67 -192 -195 -214l-1 -17c89 -21 135 -72 135 -159c0 -163 -149 -272 -376 -272z" />
    <glyph glyph-name="four.numr" horiz-adv-x="1008" 
d="M789 561h-240l34 156h-402l-2 132l449 551h344l-115 -530h105l-33 -153h-105zM592 1094l-182 -224h206l43 189c11 47 26 101 46 162l-27 9c-35 -60 -60 -99 -86 -136z" />
    <glyph glyph-name="five.numr" horiz-adv-x="1008" 
d="M543 543c-204 0 -339 75 -360 199l247 53c11 -58 55 -91 122 -91c90 0 150 61 149 151c0 69 -42 104 -115 104c-64 0 -110 -25 -136 -74l-222 53l115 461h668l-38 -174h-444l-42 -159c50 28 108 40 176 40c178 0 285 -85 285 -231c1 -204 -155 -332 -405 -332z" />
    <glyph glyph-name="six.numr" horiz-adv-x="1008" 
d="M664 1421c207 0 332 -83 341 -229l-240 -19c-7 54 -51 85 -116 85c-93 0 -150 -65 -176 -189l-6 -30c55 39 122 60 204 60c177 0 278 -79 278 -223c-1 -205 -140 -326 -384 -326c-283 0 -399 159 -345 411l19 88c52 245 186 372 425 372zM596 956
c-98 0 -154 -53 -154 -139c0 -67 44 -104 122 -104c96 0 151 55 151 147c0 62 -44 96 -119 96z" />
    <glyph glyph-name="seven.numr" horiz-adv-x="1008" 
d="M613 561h-252c82 296 200 503 387 653h-449l41 186h704l-33 -146c-193 -157 -302 -344 -398 -693z" />
    <glyph glyph-name="eight.numr" horiz-adv-x="1008" 
d="M543 543c-234 0 -369 80 -369 220c0 127 79 214 217 236l2 12c-69 26 -109 80 -109 149c0 161 136 254 373 254c222 0 349 -77 349 -209c0 -115 -70 -194 -191 -216l-2 -12c82 -26 129 -83 129 -159c0 -175 -145 -275 -399 -275zM630 1059c87 0 137 40 137 110
c0 56 -43 88 -119 88c-88 0 -138 -41 -138 -112c0 -55 43 -86 120 -86zM551 700c96 0 150 46 150 125c0 59 -46 93 -128 93c-96 0 -150 -46 -150 -125c0 -59 46 -93 128 -93z" />
    <glyph glyph-name="nine.numr" horiz-adv-x="1008" 
d="M536 544c-206 0 -331 83 -341 228l241 20c6 -54 50 -85 116 -85c92 0 150 65 176 189l6 29c-56 -38 -122 -59 -205 -59c-176 0 -278 79 -277 223c0 205 140 326 383 326c283 0 400 -159 346 -411l-20 -88c-52 -245 -185 -372 -425 -372zM605 1009c97 0 154 52 154 139
c0 67 -44 104 -123 104c-96 0 -151 -55 -150 -147c0 -62 43 -96 119 -96z" />
    <glyph glyph-name="fraction" unicode="&#x2044;" horiz-adv-x="674" 
d="M-34 0h-267l1085 1400h267z" />
    <glyph glyph-name="onehalf" unicode="&#xbd;" horiz-adv-x="2714" 
d="M864 561h-712l39 179h261l75 347h-243l33 154c249 6 273 19 319 159h207l-144 -660h204zM998 0h-267l1085 1400h267zM2456 0h-688v158c447 246 576 338 576 444c0 52 -44 84 -113 84c-74 0 -121 -43 -132 -128l-237 21c19 175 163 275 386 275c213 0 335 -81 335 -222
c0 -151 -108 -251 -462 -446l2 -10c42 3 74 3 106 3h266z" />
    <glyph glyph-name="uni2153" unicode="&#x2153;" horiz-adv-x="2714" 
d="M864 561h-712l39 179h261l75 347h-243l33 154c249 6 273 19 319 159h207l-144 -660h204zM998 0h-267l1085 1400h267zM2145 -18c-240 0 -369 93 -363 266l243 24c1 -86 44 -129 127 -129c79 0 128 50 127 132c-1 58 -36 84 -88 87l-59 3l21 129l63 2c71 3 123 46 122 114
c0 51 -41 83 -113 83c-77 0 -121 -32 -133 -98l-230 25c28 156 154 234 380 234c216 0 340 -79 340 -210c0 -118 -67 -192 -195 -214l-1 -17c89 -21 135 -72 135 -159c0 -163 -149 -272 -376 -272z" />
    <glyph glyph-name="onequarter" unicode="&#xbc;" horiz-adv-x="2649" 
d="M864 561h-712l39 179h261l75 347h-243l33 154c249 6 273 19 319 159h207l-144 -660h204zM998 0h-267l1085 1400h267zM2311 0h-240l34 156h-402l-2 132l449 551h344l-115 -530h105l-33 -153h-105zM2114 533l-182 -224h206l43 189c11 47 26 101 46 162l-27 9
c-35 -60 -60 -99 -86 -136z" />
    <glyph glyph-name="oneeighth" unicode="&#x215b;" horiz-adv-x="2714" 
d="M864 561h-712l39 179h261l75 347h-243l33 154c249 6 273 19 319 159h207l-144 -660h204zM998 0h-267l1085 1400h267zM2130 -18c-234 0 -369 80 -369 220c0 127 79 214 217 236l2 12c-69 26 -109 80 -109 149c0 161 136 254 373 254c222 0 349 -77 349 -209
c0 -115 -70 -194 -191 -216l-2 -12c82 -26 129 -83 129 -159c0 -175 -145 -275 -399 -275zM2217 498c87 0 137 40 137 110c0 56 -43 88 -119 88c-88 0 -138 -41 -138 -112c0 -55 43 -86 120 -86zM2138 139c96 0 150 46 150 125c0 59 -46 93 -128 93
c-96 0 -150 -46 -150 -125c0 -59 46 -93 128 -93z" />
    <glyph glyph-name="uni2154" unicode="&#x2154;" horiz-adv-x="2704" 
d="M869 561h-688v158c447 246 576 338 576 444c0 52 -44 84 -113 84c-74 0 -121 -43 -132 -128l-237 21c19 175 163 275 386 275c213 0 335 -81 335 -222c0 -151 -108 -251 -462 -446l2 -10c42 3 74 3 106 3h266zM988 0h-267l1085 1400h267zM2135 -18
c-240 0 -369 93 -363 266l243 24c1 -86 44 -129 127 -129c79 0 128 50 127 132c-1 58 -36 84 -88 87l-59 3l21 129l63 2c71 3 123 46 122 114c0 51 -41 83 -113 83c-77 0 -121 -32 -133 -98l-230 25c28 156 154 234 380 234c216 0 340 -79 340 -210
c0 -118 -67 -192 -195 -214l-1 -17c89 -21 135 -72 135 -159c0 -163 -149 -272 -376 -272z" />
    <glyph glyph-name="threequarters" unicode="&#xbe;" horiz-adv-x="2625" 
d="M558 543c-240 0 -369 93 -363 266l243 24c1 -86 44 -129 127 -129c79 0 128 50 127 132c-1 58 -36 84 -88 87l-59 3l21 129l63 2c71 3 123 46 122 114c0 51 -41 83 -113 83c-77 0 -121 -32 -133 -98l-230 25c28 156 154 234 380 234c216 0 340 -79 340 -210
c0 -118 -67 -192 -195 -214l-1 -17c89 -21 135 -72 135 -159c0 -163 -149 -272 -376 -272zM974 0h-267l1085 1400h267zM2287 0h-240l34 156h-402l-2 132l449 551h344l-115 -530h105l-33 -153h-105zM2090 533l-182 -224h206l43 189c11 47 26 101 46 162l-27 9
c-35 -60 -60 -99 -86 -136z" />
    <glyph glyph-name="threeeighths" unicode="&#x215c;" horiz-adv-x="2690" 
d="M558 543c-240 0 -369 93 -363 266l243 24c1 -86 44 -129 127 -129c79 0 128 50 127 132c-1 58 -36 84 -88 87l-59 3l21 129l63 2c71 3 123 46 122 114c0 51 -41 83 -113 83c-77 0 -121 -32 -133 -98l-230 25c28 156 154 234 380 234c216 0 340 -79 340 -210
c0 -118 -67 -192 -195 -214l-1 -17c89 -21 135 -72 135 -159c0 -163 -149 -272 -376 -272zM974 0h-267l1085 1400h267zM2106 -18c-234 0 -369 80 -369 220c0 127 79 214 217 236l2 12c-69 26 -109 80 -109 149c0 161 136 254 373 254c222 0 349 -77 349 -209
c0 -115 -70 -194 -191 -216l-2 -12c82 -26 129 -83 129 -159c0 -175 -145 -275 -399 -275zM2193 498c87 0 137 40 137 110c0 56 -43 88 -119 88c-88 0 -138 -41 -138 -112c0 -55 43 -86 120 -86zM2114 139c96 0 150 46 150 125c0 59 -46 93 -128 93
c-96 0 -150 -46 -150 -125c0 -59 46 -93 128 -93z" />
    <glyph glyph-name="fiveeighths" unicode="&#x215d;" horiz-adv-x="2690" 
d="M974 0h-267l1085 1400h267zM543 543c-204 0 -339 75 -360 199l247 53c11 -58 55 -91 122 -91c90 0 150 61 149 151c0 69 -42 104 -115 104c-64 0 -110 -25 -136 -74l-222 53l115 461h668l-38 -174h-444l-42 -159c50 28 108 40 176 40c178 0 285 -85 285 -231
c1 -204 -155 -332 -405 -332zM2106 -18c-234 0 -369 80 -369 220c0 127 79 214 217 236l2 12c-69 26 -109 80 -109 149c0 161 136 254 373 254c222 0 349 -77 349 -209c0 -115 -70 -194 -191 -216l-2 -12c82 -26 129 -83 129 -159c0 -175 -145 -275 -399 -275zM2193 498
c87 0 137 40 137 110c0 56 -43 88 -119 88c-88 0 -138 -41 -138 -112c0 -55 43 -86 120 -86zM2114 139c96 0 150 46 150 125c0 59 -46 93 -128 93c-96 0 -150 -46 -150 -125c0 -59 46 -93 128 -93z" />
    <glyph glyph-name="seveneighths" unicode="&#x215e;" horiz-adv-x="2590" 
d="M613 561h-252c82 296 200 503 387 653h-449l41 186h704l-33 -146c-193 -157 -302 -344 -398 -693zM874 0h-267l1085 1400h267zM2006 -18c-234 0 -369 80 -369 220c0 127 79 214 217 236l2 12c-69 26 -109 80 -109 149c0 161 136 254 373 254c222 0 349 -77 349 -209
c0 -115 -70 -194 -191 -216l-2 -12c82 -26 129 -83 129 -159c0 -175 -145 -275 -399 -275zM2093 498c87 0 137 40 137 110c0 56 -43 88 -119 88c-88 0 -138 -41 -138 -112c0 -55 43 -86 120 -86zM2014 139c96 0 150 46 150 125c0 59 -46 93 -128 93
c-96 0 -150 -46 -150 -125c0 -59 46 -93 128 -93z" />
    <glyph glyph-name="uni2003" unicode="&#x2003;" horiz-adv-x="2216" 
 />
    <glyph glyph-name="uni2002" unicode="&#x2002;" horiz-adv-x="1108" 
 />
    <glyph glyph-name="uni2004" unicode="&#x2004;" horiz-adv-x="739" 
 />
    <glyph glyph-name="uni2005" unicode="&#x2005;" horiz-adv-x="554" 
 />
    <glyph glyph-name="uni2006" unicode="&#x2006;" horiz-adv-x="369" 
 />
    <glyph glyph-name="uni2009" unicode="&#x2009;" horiz-adv-x="277" 
 />
    <glyph glyph-name="uni200A" unicode="&#x200a;" horiz-adv-x="185" 
 />
    <glyph glyph-name="uni2008" unicode="&#x2008;" horiz-adv-x="684" 
 />
    <glyph glyph-name="uni2007" unicode="&#x2007;" horiz-adv-x="1494" 
 />
    <glyph glyph-name="uni2008.tf" horiz-adv-x="747" 
 />
    <glyph glyph-name="period" unicode="." horiz-adv-x="684" 
d="M41 0l69 317h373l-69 -317h-373z" />
    <glyph glyph-name="comma" unicode="," horiz-adv-x="683" 
d="M3 -335l-22 131c127 17 190 59 221 204h-160l67 317h373l-56 -261c-59 -275 -220 -375 -423 -391z" />
    <glyph glyph-name="colon" unicode=":" horiz-adv-x="687" 
d="M201 733l69 317h373l-69 -317h-373zM41 0l69 317h373l-69 -317h-373z" />
    <glyph glyph-name="semicolon" unicode=";" horiz-adv-x="687" 
d="M200 733l69 317h373l-69 -317h-373zM3 -335l-22 131c127 17 190 59 221 204h-160l67 317h373l-56 -261c-59 -275 -220 -375 -423 -391z" />
    <glyph glyph-name="ellipsis" unicode="&#x2026;" horiz-adv-x="1615" 
d="M388 0h-347l69 317h347zM866 0h-348l69 317h349zM1344 0h-348l69 317h349z" />
    <glyph glyph-name="exclam" unicode="!" horiz-adv-x="688" 
d="M471 451h-291l164 949h373zM41 0l69 317h373l-69 -317h-373z" />
    <glyph glyph-name="exclamdown" unicode="&#xa1;" horiz-adv-x="688" 
d="M643 1050l-69 -317h-373l69 317h373zM213 599h291l-164 -949h-373z" />
    <glyph glyph-name="question" unicode="?" horiz-adv-x="1342" 
d="M755 449h-288c-45 181 70 289 207 358l141 69c132 67 183 100 183 187c0 77 -67 106 -183 106c-152 0 -235 -57 -246 -199l-359 38c21 256 247 417 621 417c326 0 524 -119 524 -344c0 -199 -134 -292 -300 -366l-150 -69c-151 -70 -174 -113 -136 -160zM346 0l69 317
h373l-69 -317h-373z" />
    <glyph glyph-name="questiondown" unicode="&#xbf;" horiz-adv-x="1342" 
d="M1004 1050l-69 -317h-373l69 317h373zM594 601h289c45 -181 -71 -289 -208 -358l-140 -69c-132 -67 -183 -100 -183 -187c0 -77 67 -106 183 -106c152 0 235 57 246 199l359 -38c-21 -256 -247 -417 -622 -417c-326 0 -523 119 -523 344c0 199 134 292 299 366l151 69
c151 70 173 113 136 160z" />
    <glyph glyph-name="periodcentered" unicode="&#xb7;" horiz-adv-x="684" 
d="M130 419l69 317h373l-69 -317h-373z" />
    <glyph glyph-name="bullet" unicode="&#x2022;" horiz-adv-x="1028" 
d="M682 385h-406l85 391h407z" />
    <glyph glyph-name="asterisk" unicode="*" horiz-adv-x="1075" 
d="M610 867l-189 -241l-172 192l260 161l-287 105l128 223l234 -197l12 306l251 -54l-114 -284l293 85l27 -256l-305 21l170 -253l-234 -105z" />
    <glyph glyph-name="numbersign" unicode="#" horiz-adv-x="1545" 
d="M1551 1062l-22 -209h-241l-99 -303h221l-22 -209h-266l-111 -341h-252l110 341h-351l-111 -341h-252l111 341h-197l22 209h242l99 303h-222l22 209h267l110 338h252l-110 -338h352l109 338h253l-110 -338h196zM585 550h352l98 303h-351z" />
    <glyph glyph-name="slash" unicode="/" horiz-adv-x="903" 
d="M222 -200h-338l840 1650h338z" />
    <glyph glyph-name="backslash" unicode="\" horiz-adv-x="995" 
d="M539 1450l264 -1650h-304l-264 1650h304z" />
    <glyph glyph-name="parenleft" unicode="(" horiz-adv-x="808" 
d="M616 -200h-312c-100 165 -154 360 -154 585c0 414 180 833 452 1065h352c-306 -257 -485 -663 -485 -1094c0 -219 51 -402 147 -556z" />
    <glyph glyph-name="parenright" unicode=")" horiz-adv-x="809" 
d="M235 1450h312c100 -165 154 -360 154 -585c0 -414 -180 -833 -452 -1065h-352c306 257 485 663 485 1094c0 219 -51 402 -147 556z" />
    <glyph glyph-name="braceleft" unicode="{" horiz-adv-x="852" 
d="M590 -200h-221c-222 0 -312 104 -270 302l54 258c20 94 -8 148 -91 172l48 221c88 10 141 54 160 143l61 272c42 190 159 282 371 282h248l-51 -238h-116c-80 0 -126 -37 -143 -115l-56 -262c-22 -105 -81 -170 -179 -188l-6 -40c84 -29 110 -98 88 -204l-53 -250
c-16 -77 13 -115 93 -115h116z" />
    <glyph glyph-name="braceright" unicode="}" horiz-adv-x="852" 
d="M305 1450h221c223 0 312 -104 271 -302l-55 -258c-20 -94 8 -148 92 -172l-49 -221c-88 -10 -141 -54 -160 -143l-60 -272c-42 -190 -160 -282 -372 -282h-248l51 238h116c80 0 127 37 143 115l56 262c22 105 81 170 179 188l6 40c-84 29 -109 98 -87 204l52 250
c16 77 -13 115 -93 115h-115z" />
    <glyph glyph-name="bracketleft" unicode="[" horiz-adv-x="861" 
d="M600 -200h-574l360 1650h574l-52 -238h-246l-257 -1174h246z" />
    <glyph glyph-name="bracketright" unicode="]" horiz-adv-x="861" 
d="M305 1450h573l-360 -1650h-573l51 238h247l256 1174h-246z" />
    <glyph glyph-name="hyphen" unicode="-" horiz-adv-x="963" 
d="M788 453h-645l54 250h646z" />
    <glyph glyph-name="endash" unicode="&#x2013;" horiz-adv-x="1346" 
d="M1174 464h-1029l48 221h1029z" />
    <glyph glyph-name="emdash" unicode="&#x2014;" horiz-adv-x="1866" 
d="M1694 465h-1549l48 220h1549z" />
    <glyph glyph-name="underscore" unicode="_" horiz-adv-x="738" 
d="M569 -272h-738l46 213h737z" />
    <glyph glyph-name="quotesinglbase" unicode="&#x201a;" horiz-adv-x="683" 
d="M3 -335l-22 131c127 17 190 59 221 204h-160l67 317h373l-56 -261c-59 -275 -220 -375 -423 -391z" />
    <glyph glyph-name="quotedblbase" unicode="&#x201e;" horiz-adv-x="1185" 
d="M3 -335l-22 131c127 17 190 59 221 204h-160l67 317h373l-56 -261c-59 -275 -220 -375 -423 -391zM505 -335l-22 131c127 17 190 59 221 204h-160l67 317h373l-56 -261c-59 -275 -220 -375 -423 -391z" />
    <glyph glyph-name="quotedblleft" unicode="&#x201c;" horiz-adv-x="1185" 
d="M689 1425l22 -132c-127 -17 -190 -58 -222 -203h161l-67 -317h-374l56 261c59 274 220 375 424 391zM1191 1425l22 -132c-127 -17 -190 -58 -222 -203h161l-67 -317h-374l56 261c59 274 220 375 424 391z" />
    <glyph glyph-name="quotedblright" unicode="&#x201d;" horiz-adv-x="1185" 
d="M233 748l-22 132c127 17 190 58 221 203h-160l67 317h373l-56 -261c-59 -274 -220 -375 -423 -391zM735 748l-22 132c127 17 190 58 221 203h-160l67 317h373l-56 -261c-59 -274 -220 -375 -423 -391z" />
    <glyph glyph-name="quoteleft" unicode="&#x2018;" horiz-adv-x="683" 
d="M695 1455l22 -132c-127 -17 -190 -58 -221 -203h160l-67 -317h-373l56 261c59 274 220 375 423 391z" />
    <glyph glyph-name="quoteright" unicode="&#x2019;" horiz-adv-x="683" 
d="M233 748l-22 132c127 17 190 58 221 203h-160l67 317h373l-56 -261c-59 -274 -220 -375 -423 -391z" />
    <glyph glyph-name="guillemotleft" unicode="&#xab;" horiz-adv-x="1379" 
d="M663 100h-306l-222 464l346 386h329l-347 -402zM1160 100h-308l-192 439l355 411h327l-353 -426z" />
    <glyph glyph-name="guillemotright" unicode="&#xbb;" horiz-adv-x="1379" 
d="M219 950h308l192 -439l-355 -411h-327l353 426zM716 950h306l222 -464l-346 -386h-329l347 402z" />
    <glyph glyph-name="guilsinglleft" unicode="&#x2039;" horiz-adv-x="860" 
d="M641 100h-308l-200 459l352 391h334l-357 -419z" />
    <glyph glyph-name="guilsinglright" unicode="&#x203a;" horiz-adv-x="860" 
d="M219 950h308l200 -459l-352 -391h-334l357 419z" />
    <glyph glyph-name="quotedbl" unicode="&#x22;" horiz-adv-x="1000" 
d="M461 828h-209l87 572h285zM867 828h-210l87 572h285z" />
    <glyph glyph-name="quotesingle" unicode="'" horiz-adv-x="595" 
d="M461 828h-209l87 572h285z" />
    <glyph glyph-name="colon.case" horiz-adv-x="688" 
d="M239 908l69 317h373l-69 -317h-373zM79 175l69 317h373l-69 -317h-373z" />
    <glyph glyph-name="semicolon.case" horiz-adv-x="687" 
d="M237 908l69 317h373l-69 -317h-373zM40 -160l-22 131c127 17 190 59 221 204h-160l67 317h373l-56 -261c-59 -275 -220 -375 -423 -391z" />
    <glyph glyph-name="bullet.case" horiz-adv-x="1028" 
d="M717 548h-407l85 391h408z" />
    <glyph glyph-name="parenleft.case" horiz-adv-x="809" 
d="M631 -50h-316c-99 162 -150 329 -150 533c0 373 175 745 451 967h352c-309 -246 -484 -605 -484 -994c0 -197 48 -354 147 -506z" />
    <glyph glyph-name="parenright.case" horiz-adv-x="810" 
d="M254 1450h316c98 -162 150 -329 150 -533c0 -373 -176 -745 -452 -967h-352c310 246 484 605 484 994c0 197 -48 354 -146 506z" />
    <glyph glyph-name="braceleft.case" horiz-adv-x="852" 
d="M623 -50h-222c-222 0 -313 103 -271 301l39 184c20 95 -8 150 -92 172l49 221c88 11 140 55 160 143l44 197c42 191 159 282 371 282h249l-51 -238h-116c-80 0 -127 -37 -143 -115l-40 -187c-23 -105 -82 -170 -180 -188l-6 -40c85 -28 111 -98 89 -201l-37 -178
c-16 -77 14 -115 93 -115h116z" />
    <glyph glyph-name="braceright.case" horiz-adv-x="853" 
d="M304 1450h222c222 0 313 -103 271 -301l-39 -184c-20 -95 8 -150 92 -172l-49 -221c-88 -11 -140 -55 -160 -143l-44 -197c-42 -191 -159 -282 -371 -282h-249l51 238h116c80 0 127 37 143 115l40 187c23 105 82 170 180 188l6 40c-85 28 -111 98 -89 201l37 178
c16 77 -14 115 -93 115h-116z" />
    <glyph glyph-name="bracketleft.case" horiz-adv-x="861" 
d="M632 -50h-574l328 1500h573l-52 -238h-246l-224 -1024h247z" />
    <glyph glyph-name="bracketright.case" horiz-adv-x="861" 
d="M304 1450h573l-327 -1500h-573l51 238h247l224 1024h-247z" />
    <glyph glyph-name="hyphen.case" horiz-adv-x="962" 
d="M814 578h-645l54 250h646z" />
    <glyph glyph-name="endash.case" horiz-adv-x="1346" 
d="M1201 590h-1029l47 221h1029z" />
    <glyph glyph-name="emdash.case" horiz-adv-x="1866" 
d="M1721 590h-1549l47 221h1550z" />
    <glyph glyph-name="guillemotleft.case" horiz-adv-x="1378" 
d="M700 275h-306l-222 464l346 386h329l-347 -402zM1197 275h-308l-192 439l355 411h327l-353 -426z" />
    <glyph glyph-name="guillemotright.case" horiz-adv-x="1379" 
d="M256 1125h308l192 -439l-354 -411h-328l354 426zM754 1125h305l223 -464l-347 -386h-329l348 402z" />
    <glyph glyph-name="guilsinglleft.case" horiz-adv-x="860" 
d="M679 275h-309l-199 459l352 391h334l-358 -419z" />
    <glyph glyph-name="guilsinglright.case" horiz-adv-x="861" 
d="M256 1125h309l199 -459l-352 -391h-333l357 419z" />
    <glyph glyph-name="exclamdown.case" horiz-adv-x="688" 
d="M717 1400l-69 -317h-373l69 317h373zM287 949h291l-164 -949h-373z" />
    <glyph glyph-name="questiondown.case" horiz-adv-x="1342" 
d="M1078 1400l-69 -317h-373l69 317h373zM668 951h289c45 -181 -71 -289 -208 -358l-140 -69c-132 -67 -183 -100 -183 -187c0 -77 67 -106 183 -106c152 0 235 57 246 199l359 -38c-21 -256 -247 -417 -622 -417c-326 0 -523 119 -523 344c0 199 134 292 299 366l151 69
c151 70 173 113 136 160z" />
    <glyph glyph-name="period.tf" horiz-adv-x="747" 
d="M63 0l69 317h373l-69 -317h-373z" />
    <glyph glyph-name="comma.tf" horiz-adv-x="747" 
d="M25 -335l-22 131c127 17 189 59 221 204h-161l67 317h374l-56 -261c-59 -275 -220 -375 -423 -391z" />
    <glyph glyph-name="colon.case.tf" horiz-adv-x="747" 
d="M259 908l69 317h373l-69 -317h-373zM99 175l69 317h373l-69 -317h-373z" />
    <glyph glyph-name="semicolon.case.tf" horiz-adv-x="747" 
d="M259 908l69 317h373l-69 -317h-373zM61 -160l-22 131c127 17 190 59 222 204h-161l67 317h374l-56 -261c-59 -275 -220 -375 -424 -391z" />
    <glyph glyph-name="dollar" unicode="$" horiz-adv-x="1565" 
d="M1480 1004l-342 -36c16 143 -72 215 -254 215c-150 0 -226 -42 -228 -133c-1 -68 39 -105 232 -186l189 -77c190 -79 310 -187 306 -392c-4 -251 -210 -399 -550 -418l-45 -207h-327l50 226c-270 53 -411 200 -388 422l374 37c-25 -160 77 -238 282 -238
c150 0 228 42 231 140c2 83 -38 122 -227 202l-187 80c-189 81 -308 192 -305 380c3 250 204 387 530 404l47 217h327l-53 -240c239 -53 361 -192 338 -396z" />
    <glyph glyph-name="cent" unicode="&#xa2;" horiz-adv-x="1438" 
d="M1363 812l-369 -20c24 155 -50 237 -187 237c-136 0 -218 -83 -252 -242l-28 -123c-38 -180 29 -288 185 -288c122 0 209 73 245 219l356 -62c-58 -222 -236 -353 -517 -377l-45 -208h-326l50 231c-252 70 -365 267 -307 541l17 80c55 260 231 417 524 447l46 214h326
l-50 -230c229 -54 356 -202 332 -419z" />
    <glyph glyph-name="Euro" unicode="&#x20ac;" horiz-adv-x="1711" 
d="M1621 863l-372 -38c32 233 -60 349 -246 349c-161 0 -265 -88 -324 -261h388l-61 -154h-366l-26 -113v-1h348l-61 -155h-303c4 -172 98 -263 272 -263c169 0 279 105 331 339l357 -73c-76 -341 -336 -518 -705 -518c-382 0 -599 193 -610 515h-150l32 155h127
c3 22 7 44 12 67l10 47h-125l34 154h128c98 329 339 512 713 512c392 0 626 -206 597 -562z" />
    <glyph glyph-name="sterling" unicode="&#xa3;" horiz-adv-x="1549" 
d="M960 1169c-128 0 -189 -47 -218 -185l-43 -204h626l-47 -230h-627l-11 -50c-23 -109 -60 -172 -129 -218l10 -30c53 3 90 4 149 4h701l-52 -256h-1274l15 200c127 56 178 133 211 286l14 64h-167l47 230h170l50 231c61 284 241 414 593 414c355 0 531 -151 526 -384
l-359 -43c-8 114 -59 171 -185 171z" />
    <glyph glyph-name="yen" unicode="&#xa5;" horiz-adv-x="1525" 
d="M1211 1400h400l-592 -805h241l-35 -167h-305l-23 -106h305l-36 -167h-304l-33 -155h-372l35 155h-304l36 167h305l24 106h-307l36 167h265l-261 805h371l91 -329c22 -86 38 -170 43 -276l39 -3c48 111 96 192 154 279z" />
    <glyph glyph-name="uni20BD" unicode="&#x20bd;" horiz-adv-x="1500" 
d="M841 469h-297l-29 -134h352l-45 -208h-353l-28 -127h-373l28 127h-167l45 208h167l29 133h-169l53 244h169l150 688h620c312 0 477 -129 477 -383c0 -294 -190 -548 -629 -548zM903 1156h-209l-99 -443h230c193 0 276 119 276 275c0 115 -65 168 -198 168z" />
    <glyph glyph-name="uni20B4" unicode="&#x20b4;" horiz-adv-x="1854" 
d="M1562 958h237l-43 -206h-1561l44 206h1010c37 37 59 79 59 128c0 73 -74 109 -236 109c-168 0 -262 -48 -290 -141l-333 40c62 220 271 331 640 331s568 -99 568 -277c0 -75 -34 -143 -95 -190zM345 450h-214l44 206h1560l-44 -206h-1023c-43 -38 -68 -84 -68 -137
c0 -72 72 -108 240 -108c181 0 284 49 315 145l364 -40c-67 -223 -290 -335 -681 -335c-392 0 -598 99 -598 278c0 74 45 148 105 197z" />
    <glyph glyph-name="uni20B8" unicode="&#x20b8;" horiz-adv-x="1400" 
d="M1432 1144h-1201l55 256h1200zM775 0h-374l160 752h-413l55 256h1200l-54 -256h-414z" />
    <glyph glyph-name="currency" unicode="&#xa4;" horiz-adv-x="1452" 
d="M517 353l-199 -161l-144 178l200 161c-25 50 -39 108 -39 171c0 96 30 181 80 247l-159 196l178 144l160 -198c49 23 104 35 165 35c97 0 182 -30 248 -81l201 163l144 -178l-203 -164c22 -49 34 -104 34 -164c0 -95 -28 -178 -76 -244l164 -203l-178 -144l-165 204
c-50 -23 -107 -36 -169 -36c-94 0 -176 27 -242 74zM759 515c109 0 187 79 187 187s-78 187 -187 187c-108 0 -187 -79 -187 -187s79 -187 187 -187z" />
    <glyph glyph-name="ampersand" unicode="&#x26;" horiz-adv-x="1545" 
d="M1294 183c32 0 64 4 96 13l-60 -201c-39 -13 -82 -20 -139 -20c-101 0 -188 31 -255 98c-118 -60 -250 -97 -387 -97c-293 0 -458 118 -458 332c0 208 127 346 419 462c-75 111 -106 183 -104 279c4 247 174 375 505 375c289 0 441 -103 441 -294
c0 -180 -114 -301 -467 -435l151 -259c48 59 86 123 110 186l243 -90c-42 -102 -122 -212 -229 -306c34 -29 78 -43 134 -43zM719 1045c-1 -60 14 -109 62 -180c213 78 263 138 263 217c0 73 -45 112 -153 112c-109 0 -170 -53 -172 -149zM413 360c0 -100 62 -154 183 -154
c78 0 152 19 219 52l-193 335c-143 -70 -209 -140 -209 -233z" />
    <glyph glyph-name="at" unicode="@" horiz-adv-x="2497" 
d="M1136 -475c-599 0 -993 327 -993 835c0 685 476 1145 1200 1145c611 0 1013 -329 1013 -839c0 -412 -219 -691 -553 -691c-234 0 -347 94 -335 261l-39 10c-93 -179 -253 -271 -480 -271c-205 0 -322 99 -321 253c1 256 255 366 545 405l302 38l11 56
c21 93 -43 142 -159 142c-127 0 -197 -51 -201 -146l-361 26c12 207 206 326 578 326s555 -142 492 -407l-81 -356c-20 -84 10 -126 80 -126c157 -1 258 193 258 477c-1 385 -299 630 -753 630c-561 0 -931 -369 -931 -918c0 -390 292 -638 735 -638c192 0 376 30 547 94
l42 -200c-175 -71 -376 -106 -596 -106zM1123 199c130 0 250 99 290 232l14 52l-168 -25c-164 -25 -249 -70 -250 -165c0 -63 41 -94 114 -94z" />
    <glyph glyph-name="at.case" horiz-adv-x="2497" 
d="M1175 -290c-598 0 -993 327 -993 835c0 686 477 1145 1201 1145c611 0 1013 -328 1013 -839c0 -412 -219 -691 -553 -690c-235 0 -347 94 -335 261l-39 10c-94 -179 -254 -271 -480 -271c-205 0 -322 99 -322 253c2 255 256 366 546 405l301 37l12 56
c21 94 -43 142 -159 142c-127 0 -197 -51 -202 -145l-361 26c13 207 206 325 579 325c372 0 554 -142 492 -406l-81 -357c-20 -84 10 -125 80 -125c156 -2 258 192 257 476c0 386 -299 630 -752 630c-561 0 -931 -368 -931 -918c0 -389 292 -638 734 -638
c192 0 376 31 548 95l41 -201c-175 -70 -375 -106 -596 -106zM1163 385c130 0 249 98 290 231l14 53l-168 -26c-164 -24 -249 -69 -250 -164c-1 -63 40 -94 114 -94z" />
    <glyph glyph-name="copyright" unicode="&#xa9;" horiz-adv-x="2528" 
d="M1197 -460c-651 0 -1041 331 -1041 880c0 678 440 1090 1173 1090c653 0 1043 -329 1043 -875c0 -681 -440 -1095 -1175 -1095zM1200 -248c563 0 901 333 901 878c0 416 -290 668 -775 668c-562 0 -900 -332 -900 -875c0 -418 290 -671 774 -671zM1205 -26
c-406 0 -603 223 -530 568l17 81c62 291 276 453 635 453s573 -165 543 -441l-369 -21c24 156 -50 238 -187 238c-136 0 -218 -83 -252 -243l-28 -123c-38 -179 29 -288 185 -288c122 0 209 74 245 219l356 -62c-64 -246 -277 -381 -615 -381z" />
    <glyph glyph-name="copyright.case" horiz-adv-x="2527" 
d="M1234 -284c-651 0 -1040 331 -1040 880c0 677 439 1089 1172 1089c653 0 1044 -329 1044 -875c0 -681 -441 -1094 -1176 -1094zM1237 -72c564 0 902 333 902 877c0 416 -290 668 -776 668c-562 0 -899 -331 -899 -874c0 -418 289 -671 773 -671zM1242 150
c-406 0 -602 223 -530 568l18 80c61 292 276 453 634 453c359 0 574 -165 544 -441l-369 -20c24 155 -50 237 -188 237c-135 0 -218 -83 -252 -242l-28 -123c-37 -180 29 -288 186 -288c121 0 208 73 244 219l356 -62c-64 -247 -277 -381 -615 -381z" />
    <glyph glyph-name="registered" unicode="&#xae;" horiz-adv-x="1224" 
d="M700 636c-274 0 -439 141 -439 375c0 255 180 416 479 416c274 0 439 -142 439 -376c0 -254 -180 -415 -479 -415zM700 736c227 0 363 120 363 315c0 171 -121 275 -323 275c-227 0 -363 -119 -363 -315c0 -171 121 -275 323 -275zM620 845h-122l81 381h232
c89 0 135 -32 135 -94c0 -57 -43 -92 -119 -97l-3 -18c35 -5 49 -13 52 -55l4 -44c4 -41 8 -51 16 -59l-5 -14h-122c-6 13 -7 30 -8 65l-2 36c-1 34 -6 42 -45 42h-63zM684 1142l-17 -77h93c38 0 59 17 59 47c0 19 -18 30 -51 30h-84z" />
    <glyph glyph-name="trademark" unicode="&#x2122;" horiz-adv-x="1710" 
d="M518 770h-192l100 480h-172l32 150h536l-31 -150h-172zM928 770h-170l132 630h248l42 -262c9 -52 12 -108 14 -171l23 -2c28 62 54 119 85 173l151 262h261l-132 -630h-179l57 272c9 41 22 93 38 141l-24 4l-224 -417h-171l-46 416l-25 -2c-8 -54 -16 -107 -24 -142z" />
    <glyph glyph-name="paragraph" unicode="&#xb6;" horiz-adv-x="1851" 
d="M756 -350h-301l172 795c-243 40 -386 205 -386 460c0 305 203 495 603 495h1047l-58 -269h-216l-313 -1481h-301l313 1481h-246z" />
    <glyph glyph-name="section" unicode="&#xa7;" horiz-adv-x="1517" 
d="M1469 1103l-345 -16c5 94 -73 149 -236 149c-140 0 -218 -31 -218 -93c-2 -51 34 -77 220 -120l192 -44c183 -43 323 -96 321 -251c-2 -109 -78 -173 -212 -182l-4 -43c89 -48 132 -113 131 -202c-3 -219 -257 -327 -610 -327c-372 0 -617 118 -605 347l359 12
c-2 -103 86 -166 259 -166c141 0 223 33 224 98c1 58 -51 84 -232 127l-185 44c-180 42 -316 97 -314 249c2 115 84 193 228 200l4 43c-94 50 -135 116 -134 201c2 209 238 296 577 296c359 0 595 -105 580 -322zM1041 691c2 57 -59 82 -255 133l-68 18
c-104 -17 -145 -49 -146 -97c-1 -56 60 -85 258 -135l60 -15c108 19 151 50 151 96z" />
    <glyph glyph-name="uni2116" unicode="&#x2116;" horiz-adv-x="2578" 
d="M2126 548c-270 0 -399 172 -339 442l18 83c44 227 183 345 404 345c270 0 399 -171 339 -442l-18 -82c-45 -228 -183 -346 -404 -346zM418 0h-350l301 1400h391l199 -502c57 -134 118 -333 145 -462l50 5c1 157 29 401 66 573l83 386h350l-302 -1400h-387l-196 488
c-53 128 -117 337 -148 488l-49 -5c2 -140 -28 -389 -70 -583zM2131 722c79 0 128 59 153 179l29 134c29 130 -9 210 -109 210c-80 0 -128 -60 -153 -178l-30 -134c-29 -130 8 -211 110 -211zM2371 187h-755l44 212h755z" />
    <glyph glyph-name="dagger" unicode="&#x2020;" horiz-adv-x="1349" 
d="M517 -320l-43 9c11 380 56 750 115 1113l-340 47l63 295l329 -96l56 357l315 -67l-94 -349l340 -46l-63 -296l-329 97c-94 -357 -204 -712 -349 -1064z" />
    <glyph glyph-name="daggerdbl" unicode="&#x2021;" horiz-adv-x="1350" 
d="M653 -352l-314 67l93 349l-340 46l59 273l344 -99l65 266l49 268l-355 51l58 272l329 -96l57 357l314 -67l-94 -349l340 -46l-59 -273l-344 99l-65 -266l-49 -268l355 -51l-58 -272l-329 96z" />
    <glyph glyph-name="plus" unicode="+" horiz-adv-x="1335" 
d="M766 158h-249l39 365h-373l26 241h372l39 365h249l-39 -365h372l-25 -241h-373z" />
    <glyph glyph-name="minus" unicode="&#x2212;" horiz-adv-x="1238" 
d="M1078 517h-895l27 253h894z" />
    <glyph glyph-name="multiply" unicode="&#xd7;" horiz-adv-x="1418" 
d="M716 466l-302 -273l-157 174l302 273l-240 269l189 172l243 -270l299 271l157 -174l-300 -272l240 -269l-189 -171z" />
    <glyph glyph-name="divide" unicode="&#xf7;" horiz-adv-x="1290" 
d="M850 883h-310l29 281h310zM1132 526h-948l24 234h948zM770 121h-310l29 281h310z" />
    <glyph glyph-name="equal" unicode="=" horiz-adv-x="1453" 
d="M1215 729h-908l28 254h907zM1171 313h-908l27 253h908z" />
    <glyph glyph-name="notequal" unicode="&#x2260;" horiz-adv-x="1453" 
d="M1245 996l-28 -254h-305l-72 -162h360l-27 -254h-445l-113 -257h-243l113 257h-219l27 254h304l72 162h-359l27 254h444l113 257h243l-113 -257h221z" />
    <glyph glyph-name="greater" unicode="&#x3e;" horiz-adv-x="1391" 
d="M322 799l28 258l908 -262l-33 -307l-963 -260l28 269l408 92c83 18 179 35 244 43l1 31c-68 8 -160 26 -234 43z" />
    <glyph glyph-name="less" unicode="&#x3c;" horiz-adv-x="1392" 
d="M1119 488l-27 -259l-908 263l32 306l963 260l-28 -268l-408 -92c-82 -19 -179 -35 -243 -43l-1 -32c67 -8 160 -25 234 -43z" />
    <glyph glyph-name="greaterequal" unicode="&#x2265;" horiz-adv-x="1450" 
d="M363 991l28 258l908 -262l-32 -307l-964 -260l28 269l408 92c83 18 180 35 244 43l1 31c-68 8 -160 26 -234 43zM1205 111h-936l25 242h936z" />
    <glyph glyph-name="lessequal" unicode="&#x2264;" horiz-adv-x="1427" 
d="M1160 679l-28 -258l-908 262l33 307l963 260l-28 -269l-408 -92c-82 -18 -179 -35 -244 -43l-1 -31c68 -8 160 -26 234 -43zM1102 111h-935l25 242h936z" />
    <glyph glyph-name="plusminus" unicode="&#xb1;" horiz-adv-x="1554" 
d="M902 468h-256l30 281h-364l25 242h364l29 283h257l-30 -283h364l-25 -242h-364zM1228 106h-984l25 243h984z" />
    <glyph glyph-name="approxequal" unicode="&#x2248;" horiz-adv-x="1453" 
d="M1003 709c-166 0 -293 136 -396 136c-66 0 -105 -49 -119 -142l-205 13c31 264 130 389 295 389c167 0 289 -136 393 -136c64 0 101 47 115 136l206 -14c-32 -259 -132 -382 -289 -382zM934 189c-167 0 -294 136 -397 136c-66 0 -105 -49 -118 -142l-206 14
c31 263 131 388 296 388c166 0 288 -135 393 -135c63 0 100 46 114 135l206 -13c-31 -260 -131 -383 -288 -383z" />
    <glyph glyph-name="asciitilde" unicode="~" horiz-adv-x="1413" 
d="M945 436c-166 0 -293 135 -396 135c-66 0 -105 -48 -119 -141l-206 13c31 263 131 389 296 389c167 0 288 -136 393 -136c64 0 101 47 114 135l206 -13c-31 -260 -131 -382 -288 -382z" />
    <glyph glyph-name="logicalnot" unicode="&#xac;" horiz-adv-x="1443" 
d="M1161 317h-270l32 304h-639l28 254h908z" />
    <glyph glyph-name="asciicircum" unicode="^" horiz-adv-x="1492" 
d="M557 756h-327l480 644h306l345 -644h-320l-106 191c-26 49 -57 120 -79 189h-34c-32 -63 -78 -133 -120 -189z" />
    <glyph glyph-name="infinity" unicode="&#x221e;" horiz-adv-x="1970" 
d="M1498 1174c276 0 409 -169 375 -477l-5 -38c-29 -279 -188 -432 -446 -432c-205 0 -324 116 -414 253c-115 -137 -256 -253 -461 -253c-276 0 -408 168 -375 475l5 38c29 280 188 434 447 434c204 0 323 -116 414 -252c114 136 254 252 460 252zM1603 679l4 35
c14 123 -43 193 -153 193c-109 0 -193 -95 -283 -213c66 -112 134 -199 241 -199c109 0 178 67 191 184zM591 493c111 0 195 95 284 214c-65 111 -134 198 -242 198s-179 -67 -191 -185l-4 -35c-13 -122 42 -192 153 -192z" />
    <glyph glyph-name="percent" unicode="%" horiz-adv-x="2311" 
d="M623 700c-288 0 -424 159 -376 393l9 42c40 190 175 291 402 291c289 0 427 -160 379 -394l-9 -42c-40 -190 -177 -290 -405 -290zM761 0h-316l1180 1400h316zM625 878c70 0 115 46 133 132l15 66c22 105 -21 171 -114 172c-70 0 -115 -46 -133 -132l-15 -67
c-22 -105 20 -172 114 -171zM1725 -24c-288 0 -424 160 -375 394l9 41c39 191 174 291 402 291c289 0 427 -160 378 -394l-9 -42c-39 -190 -177 -290 -405 -290zM1727 154c70 0 115 46 133 132l15 67c22 104 -21 170 -114 171c-69 0 -115 -45 -133 -132l-15 -67
c-22 -104 20 -172 114 -171z" />
    <glyph glyph-name="perthousand" unicode="&#x2030;" horiz-adv-x="3243" 
d="M623 700c-288 0 -424 159 -376 393l9 42c40 190 175 291 402 291c289 0 427 -160 379 -394l-9 -42c-40 -190 -177 -290 -405 -290zM761 0h-316l1180 1400h316zM625 878c70 0 115 46 133 132l15 66c22 105 -21 171 -114 172c-70 0 -115 -46 -133 -132l-15 -67
c-22 -105 20 -172 114 -171zM1725 -24c-288 0 -424 160 -375 394l9 41c39 191 174 291 402 291c289 0 427 -160 378 -394l-9 -42c-39 -190 -177 -290 -405 -290zM2657 -24c-288 0 -424 160 -375 394l9 41c39 191 174 291 402 291c289 0 427 -160 378 -394l-9 -42
c-39 -190 -177 -290 -405 -290zM1727 154c70 0 115 46 133 132l15 67c22 104 -21 170 -114 171c-69 0 -115 -45 -133 -132l-15 -67c-22 -104 20 -172 114 -171zM2659 154c70 0 115 46 133 132l15 67c22 104 -21 170 -114 171c-69 0 -115 -45 -133 -132l-15 -67
c-22 -104 20 -172 114 -171z" />
    <glyph glyph-name="lozenge" unicode="&#x25ca;" horiz-adv-x="1499" 
d="M870 0h-314l-336 714l484 686h313l335 -714zM722 270l35 -2c36 77 74 150 117 212l160 220l-110 220c-28 63 -52 135 -73 210l-35 2c-37 -77 -74 -150 -118 -212l-158 -220l110 -220c30 -63 52 -136 72 -210z" />
    <glyph glyph-name="degree" unicode="&#xb0;" horiz-adv-x="1095" 
d="M645 676c-243 0 -402 137 -402 345c-1 244 171 405 430 405c243 0 402 -138 402 -347c1 -243 -170 -403 -430 -403zM654 883c119 0 189 68 189 179c0 97 -66 156 -179 156c-119 0 -190 -68 -189 -179c0 -97 67 -156 179 -156z" />
    <glyph glyph-name="uni2300" unicode="&#x2300;" horiz-adv-x="1583" 
d="M1338 1356l170 -170l-175 -175c64 -96 100 -213 100 -340c0 -345 -265 -611 -610 -611c-127 0 -244 36 -341 100l-174 -175l-170 170l174 174c-63 97 -100 214 -100 342c0 344 266 610 611 610c127 0 244 -36 340 -100zM466 671c0 -56 12 -108 33 -154l478 477
c-47 21 -98 33 -154 33c-202 0 -357 -154 -357 -356zM1178 671c0 55 -11 107 -32 153l-476 -477c46 -21 98 -33 153 -33c202 0 355 154 355 357z" />
    <glyph glyph-name="bar" unicode="|" horiz-adv-x="687" 
d="M343 -200h-317l360 1650h317z" />
    <glyph glyph-name="brokenbar" unicode="&#xa6;" horiz-adv-x="683" 
d="M546 739h-318l149 711h318zM349 -200h-318l150 711h317z" />
    <glyph glyph-name="uni25CF" unicode="&#x25cf;" horiz-adv-x="1416" 
d="M708 -20c-301 0 -544 243 -544 545s243 545 544 545s544 -243 544 -545s-243 -545 -544 -545z" />
    <glyph glyph-name="circle" unicode="&#x25cb;" horiz-adv-x="1416" 
d="M708 -20c-301 0 -544 243 -544 545s243 545 544 545s544 -243 544 -545s-243 -545 -544 -545zM708 60c257 0 464 207 464 465s-207 465 -464 465s-464 -207 -464 -465s207 -465 464 -465z" />
    <glyph glyph-name="filledbox" unicode="&#x25a0;" horiz-adv-x="1595" 
d="M1322 0h-1050v1050h1050v-1050z" />
    <glyph glyph-name="uni25A1" unicode="&#x25a1;" horiz-adv-x="1595" 
d="M1322 0h-1050v1050h1050v-1050zM352 970v-890h890v890h-890z" />
    <glyph glyph-name="uni2B24" unicode="&#x2b24;" horiz-adv-x="1857" 
d="M966 -58c432 0 758 326 758 758s-326 758 -758 758c-433 0 -758 -326 -758 -758s325 -758 758 -758z" />
    <glyph glyph-name="uni2B1B" unicode="&#x2b1b;" horiz-adv-x="2019" 
d="M1746 0h-1400v1400h1400v-1400z" />
    <glyph glyph-name="whiteLargeCircle" horiz-adv-x="1857" 
d="M966 -58c-433 0 -758 326 -758 758s325 758 758 758c432 0 758 -326 758 -758s-326 -758 -758 -758zM966 22c386 0 678 292 678 678s-292 678 -678 678c-387 0 -678 -292 -678 -678s291 -678 678 -678z" />
    <glyph glyph-name="uni2B1C" unicode="&#x2b1c;" horiz-adv-x="2019" 
d="M1746 0h-1400v1400h1400v-1400zM426 1320v-1240h1240v1240h-1240z" />
    <glyph glyph-name="triagup" unicode="&#x25b2;" horiz-adv-x="1397" 
d="M108 154l512 886l511 -886h-1023z" />
    <glyph glyph-name="uni25B6" unicode="&#x25b6;" horiz-adv-x="1519" 
d="M436 1084l886 -512l-886 -511v1023z" />
    <glyph glyph-name="triagdn" unicode="&#x25bc;" horiz-adv-x="1397" 
d="M1307 980l-511 -886l-512 886h1023z" />
    <glyph glyph-name="uni25C0" unicode="&#x25c0;" horiz-adv-x="1519" 
d="M1083 61l-886 511l886 512v-1023z" />
    <glyph glyph-name="arrowup" unicode="&#x2191;" 
d="M959 0h-279v610c0 88 9 195 22 287l-29 12l-208 -288h-300l624 779h62l624 -779h-300l-208 288l-30 -12c14 -90 22 -198 22 -287v-610z" />
    <glyph glyph-name="uni2197" unicode="&#x2197;" horiz-adv-x="1553" 
d="M455 114l-203 191l413 448c61 64 140 137 213 194l-13 29l-348 -67l-218 206l986 138l45 -42l-80 -994l-218 205l47 352l-31 12c-51 -75 -119 -159 -180 -224z" />
    <glyph glyph-name="arrowright" unicode="&#x2192;" horiz-adv-x="1719" 
d="M1582 669l-779 -624v300l288 208l-12 30c-90 -14 -198 -22 -287 -22h-556v279h556c88 0 195 -9 287 -22l12 29l-288 208v300l779 -624v-62z" />
    <glyph glyph-name="uni2198" unicode="&#x2198;" horiz-adv-x="1638" 
d="M1359 154l-45 -42l-987 138l218 206l349 -67l13 29c-73 57 -153 130 -213 194l-413 448l202 191l413 -448c62 -65 130 -149 181 -224l30 12l-46 352l218 205z" />
    <glyph glyph-name="arrowdown" unicode="&#x2193;" 
d="M714 790v610h279v-610c0 -89 -8 -197 -22 -287l30 -12l208 288h300l-624 -779h-62l-624 779h300l208 -288l29 12c-13 92 -22 199 -22 287z" />
    <glyph glyph-name="uni2199" unicode="&#x2199;" horiz-adv-x="1509" 
d="M1284 250l-987 -138l-45 42l80 994l218 -205l-46 -352l30 -12c51 75 119 159 181 224l413 448l202 -191l-413 -448c-60 -64 -140 -137 -212 -194l13 -29l348 67z" />
    <glyph glyph-name="arrowleft" unicode="&#x2190;" horiz-adv-x="1719" 
d="M990 345v-300l-778 624v62l778 624v-300l-288 -208l13 -29c91 13 199 22 287 22h555v-279h-555c-90 0 -198 8 -287 22l-13 -30z" />
    <glyph glyph-name="uni2196" unicode="&#x2196;" horiz-adv-x="1680" 
d="M1048 753l413 -448l-203 -191l-413 448c-61 65 -129 149 -180 224l-31 -12l47 -352l-218 -205l-80 994l45 42l986 -138l-218 -206l-348 67l-13 -29c73 -57 152 -130 213 -194z" />
    <glyph glyph-name="arrowboth" unicode="&#x2194;" horiz-adv-x="2577" 
d="M990 345v-300l-778 624v62l778 624v-300l-288 -208l13 -29c91 13 199 22 287 22h648c87 0 195 -9 287 -22l12 29l-288 208v300l779 -624v-62l-779 -624v300l288 208l-12 30c-90 -14 -198 -22 -287 -22h-648c-90 0 -198 8 -287 22l-13 -30z" />
    <glyph glyph-name="arrowupdn" unicode="&#x2195;" horiz-adv-x="1712" 
d="M922 -263h-62l-624 778h300l208 -288l29 13c-14 91 -22 199 -22 287v323c0 88 8 195 22 287l-29 12l-208 -288h-300l624 779h62l623 -779h-300l-207 288l-30 -12c13 -90 22 -198 22 -287v-323c0 -90 -9 -198 -22 -287l30 -13l207 288h300z" />
    <glyph glyph-name="uni2BA0" unicode="&#x2ba0;" horiz-adv-x="1837" 
d="M990 345v-300l-778 624v62l778 624v-300l-288 -208l13 -29c91 13 199 22 287 22h354v352h279v-631h-633c-90 0 -198 8 -287 22l-13 -30z" />
    <glyph glyph-name="uni2BA1" unicode="&#x2ba1;" horiz-adv-x="1912" 
d="M1775 669l-779 -624v300l288 208l-12 30c-90 -14 -198 -22 -287 -22h-634v631h280v-352h354c88 0 195 -9 287 -22l12 29l-288 208v300l779 -624v-62z" />
    <glyph glyph-name="uni2BA6" unicode="&#x2ba6;" 
d="M885 0h-62l-624 779h300l208 -288l29 12c-13 92 -22 199 -22 287v610h633v-262h-354v-348c0 -89 -8 -197 -22 -287l30 -12l208 288h300z" />
    <glyph glyph-name="uni2BA4" unicode="&#x2ba4;" 
d="M165 621l624 779h62l624 -779h-300l-208 288l-30 -12c14 -90 22 -198 22 -287v-348h354v-262h-633v610c0 88 9 195 22 287l-29 12l-208 -288h-300z" />
    <glyph glyph-name="uni2BA7" unicode="&#x2ba7;" 
d="M1509 779l-624 -779h-62l-624 779h300l208 -288l30 12c-14 90 -22 198 -22 287v348h-354v262h632v-610c0 -88 -8 -195 -22 -287l30 -12l208 288h300z" />
    <glyph glyph-name="uni2BA5" unicode="&#x2ba5;" 
d="M789 1400h62l624 -779h-300l-208 288l-29 -12c13 -92 22 -199 22 -287v-610h-633v262h354v348c0 89 8 197 22 287l-30 12l-208 -288h-300z" />
    <glyph glyph-name="uni2BA2" unicode="&#x2ba2;" horiz-adv-x="1914" 
d="M992 344v-299l-780 624v62l780 624v-299l-176 -123c-61 -34 -120 -64 -176 -87l4 -19c68 8 151 12 235 12h758v-632h-278v354h-480c-84 0 -167 4 -235 12l-4 -19c56 -23 115 -52 176 -86z" />
    <glyph glyph-name="uni2BA3" unicode="&#x2ba3;" horiz-adv-x="1840" 
d="M1702 669l-780 -624v299l176 124c61 34 120 63 176 86l-5 19c-67 -8 -150 -12 -234 -12h-481v-354h-278v632h759c84 0 167 -4 234 -12l5 19c-56 23 -115 53 -176 87l-176 123v299l780 -624v-62z" />
    <glyph glyph-name="arrowup.ss05" 
d="M958 0h-277v620h-516l624 780h62l623 -780h-516v-620z" />
    <glyph glyph-name="uni2197.ss05" horiz-adv-x="1549" 
d="M874 573l-415 -459l-201 191l414 459l-374 353l985 138l45 -42l-81 -994z" />
    <glyph glyph-name="arrowright.ss05" horiz-adv-x="1722" 
d="M1584 669l-781 -624v516h-567v278h567v516l781 -624v-62z" />
    <glyph glyph-name="uni2198.ss05" horiz-adv-x="1630" 
d="M1351 152l-44 -41l-985 138l374 354l-415 459l202 190l414 -459l373 354z" />
    <glyph glyph-name="arrowdown.ss05" 
d="M715 780v620h278v-620h516l-624 -780h-62l-624 780h516z" />
    <glyph glyph-name="uni2199.ss05" horiz-adv-x="1505" 
d="M1280 249l-985 -138l-44 41l81 995l373 -354l414 459l202 -190l-415 -459z" />
    <glyph glyph-name="arrowleft.ss05" horiz-adv-x="1721" 
d="M992 561v-516l-780 624v62l780 624v-516h567v-278h-567z" />
    <glyph glyph-name="uni2196.ss05" horiz-adv-x="1673" 
d="M1454 305l-202 -191l-414 459l-373 -354l-82 994l45 42l985 -138l-374 -353z" />
    <glyph glyph-name="arrowboth.ss05" horiz-adv-x="2579" 
d="M992 561v-516l-780 624v62l780 624v-516h668v516l781 -624v-62l-781 -624v516h-668z" />
    <glyph glyph-name="arrowupdn.ss05" horiz-adv-x="1716" 
d="M924 -271h-62l-624 780h516v358h-516l624 781h62l624 -781h-516v-358h516z" />
    <glyph glyph-name="uni2BA0.ss05" horiz-adv-x="1839" 
d="M992 561v-516l-780 624v62l780 624v-516h368v354h277v-632h-645z" />
    <glyph glyph-name="uni2BA1.ss05" horiz-adv-x="1915" 
d="M1777 669l-780 -624v516h-645v632h277v-354h368v516l780 -624v-62z" />
    <glyph glyph-name="uni2BA6.ss05" 
d="M885 0h-62l-624 780h516v620h632v-262h-354v-358h516z" />
    <glyph glyph-name="uni2BA4.ss05" 
d="M1312 0h-631v620h-516l624 780h62l623 -780h-516v-357h354v-263z" />
    <glyph glyph-name="uni2BA7.ss05" 
d="M1509 780l-624 -780h-62l-624 780h516v358h-354v262h632v-620h516z" />
    <glyph glyph-name="uni2BA5.ss05" 
d="M958 620v-620h-631v263h354v357h-516l623 780h62l624 -780h-516z" />
    <glyph glyph-name="uni2BA2.ss05" horiz-adv-x="1914" 
d="M992 561v-516l-780 624v62l780 624v-516h645v-632h-278v354h-367z" />
    <glyph glyph-name="uni2BA3.ss05" horiz-adv-x="1840" 
d="M1702 669l-780 -624v516h-368v-354h-278v632h646v516l780 -624v-62z" />
    <glyph glyph-name="uni0410" unicode="&#x410;" horiz-adv-x="1565" 
d="M366 0h-378l761 1400h451l153 -1400h-376l-13 213h-484zM744 763l-154 -314h361l-15 315c-7 117 -7 229 -2 340l-41 4c-46 -121 -93 -235 -149 -345z" />
    <glyph glyph-name="uni0411" unicode="&#x411;" horiz-adv-x="1549" 
d="M853 0h-785l305 1400h1150l-54 -256h-778l-61 -277h338c281 0 434 -127 434 -350c0 -319 -212 -517 -549 -517zM576 623l-81 -379h294c153 0 239 93 239 255c0 93 -58 124 -170 124h-282z" />
    <glyph glyph-name="uni0412" unicode="&#x412;" horiz-adv-x="1558" 
d="M876 0h-808l305 1400h763c240 0 369 -100 369 -287c0 -196 -99 -335 -290 -365l-1 -39c127 -28 193 -109 193 -239c0 -299 -214 -470 -531 -470zM693 1156l-70 -317h284c138 0 221 78 221 205c0 79 -52 112 -153 112h-282zM575 615l-80 -371h290c156 0 239 88 239 235
c0 92 -56 136 -165 136h-284z" />
    <glyph glyph-name="uni0413" unicode="&#x413;" horiz-adv-x="1328" 
d="M440 0h-372l306 1400h1040l-58 -268h-667z" />
    <glyph glyph-name="uni0403" unicode="&#x403;" horiz-adv-x="1328" 
d="M1020 1488h-248l152 231h343zM440 0h-372l306 1400h1040l-58 -268h-667z" />
    <glyph glyph-name="uni0490" unicode="&#x490;" horiz-adv-x="1328" 
d="M1106 1400l39 183h307l-38 -183l-58 -268h-667l-249 -1132h-372l306 1400h732z" />
    <glyph glyph-name="uni0492" unicode="&#x492;" horiz-adv-x="1399" 
d="M1486 1400l-58 -268h-668l-80 -363h415l-46 -220h-417l-120 -549h-372l120 549h-169l47 220h170l138 631h1040z" />
    <glyph glyph-name="uni0414" unicode="&#x414;" horiz-adv-x="1710" 
d="M315 -211h-353l102 467h89c141 216 198 452 359 1144h1127l-250 -1144h130l-102 -467h-354l45 211h-746zM496 299l13 -43h508l193 888h-406c-110 -434 -191 -737 -308 -845z" />
    <glyph glyph-name="uni0415" unicode="&#x415;" horiz-adv-x="1370" 
d="M1139 0h-1071l301 1400h1051l-56 -256h-677l-65 -302h636l-50 -236h-636l-76 -350h698z" />
    <glyph glyph-name="uni0415_uni0301" horiz-adv-x="1370" 
d="M1027 1488h-248l152 231h343zM1139 0h-1071l301 1400h1051l-56 -256h-677l-65 -302h636l-50 -236h-636l-76 -350h698z" />
    <glyph glyph-name="uni0400" unicode="&#x400;" horiz-adv-x="1370" 
d="M1034 1488h-243l-189 231h335zM1139 0h-1071l301 1400h1051l-56 -256h-677l-65 -302h636l-50 -236h-636l-76 -350h698z" />
    <glyph glyph-name="uni0401" unicode="&#x401;" horiz-adv-x="1370" 
d="M855 1496h-332l49 228h332zM1322 1496h-333l50 228h333zM1139 0h-1071l301 1400h1051l-56 -256h-677l-65 -302h636l-50 -236h-636l-76 -350h698z" />
    <glyph glyph-name="uni0416" unicode="&#x416;" horiz-adv-x="2304" 
d="M409 0h-411l-2 36c52 23 102 87 187 268l85 182c85 181 144 227 263 241l1 39c-96 16 -129 76 -137 226l-8 150c-9 150 -31 198 -69 222l8 36h386c19 -43 28 -112 32 -240l4 -127c4 -128 31 -171 151 -171h143l117 538h372l-117 -538h126c121 0 174 53 235 184l62 132
c62 131 94 186 126 222h402l2 -36c-50 -25 -107 -81 -182 -237l-76 -159c-75 -158 -132 -209 -243 -221l-2 -38c98 -17 136 -76 148 -249l12 -173c11 -173 38 -228 76 -251l-8 -36h-402c-20 49 -29 107 -32 259l-3 151c-3 151 -34 201 -157 201h-139l-134 -611h-372l134 610
h-132c-141 0 -191 -56 -252 -207l-62 -152c-61 -151 -91 -204 -132 -251z" />
    <glyph glyph-name="uni0496" unicode="&#x496;" horiz-adv-x="2304" 
d="M2185 1127l-76 -159c-75 -158 -132 -209 -243 -221l-2 -38c98 -17 136 -76 148 -249l12 -173c1 -9 1 -17 2 -25h160l-103 -473h-353l46 211h-86c-20 49 -29 107 -32 259l-3 151c-3 151 -34 201 -157 201h-139l-134 -611h-372l134 610h-132c-141 0 -191 -56 -252 -207
l-62 -152c-61 -151 -91 -204 -132 -251h-411l-2 36c52 23 102 87 187 268l85 182c85 181 144 227 263 241l1 39c-96 16 -129 76 -137 226l-8 150c-9 150 -31 198 -69 222l8 36h386c19 -43 28 -112 32 -240l4 -127c4 -128 31 -171 151 -171h143l117 538h372l-117 -538h126
c121 0 174 53 235 184l62 132c62 131 94 186 126 222h402l2 -36c-50 -25 -107 -81 -182 -237z" />
    <glyph glyph-name="uni0417" unicode="&#x417;" horiz-adv-x="1583" 
d="M756 -25c-412 -1 -647 175 -628 461l369 43c-18 -158 86 -248 285 -248c171 0 273 88 274 226c0 94 -69 138 -220 138h-116l53 243h114c175 0 271 67 273 188c1 93 -81 143 -232 143c-192 0 -284 -78 -300 -212l-359 48c32 269 264 420 677 420c383 0 586 -122 586 -332
c0 -194 -125 -332 -333 -360l-3 -39c145 -29 230 -120 230 -254c0 -293 -234 -465 -670 -465z" />
    <glyph glyph-name="uni0418" unicode="&#x418;" horiz-adv-x="1644" 
d="M461 0h-393l306 1400h372l-104 -489c-29 -136 -85 -311 -139 -440l41 -12c53 97 115 188 172 259l539 682h394l-306 -1400h-372l111 508c33 150 86 323 136 437l-41 12c-57 -106 -119 -201 -176 -274z" />
    <glyph glyph-name="uni0418_uni0301" horiz-adv-x="1644" 
d="M1138 1488h-248l152 231h343zM461 0h-393l306 1400h372l-104 -489c-29 -136 -85 -311 -139 -440l41 -12c53 97 115 188 172 259l539 682h394l-306 -1400h-372l111 508c33 150 86 323 136 437l-41 12c-57 -106 -119 -201 -176 -274z" />
    <glyph glyph-name="uni0419" unicode="&#x419;" horiz-adv-x="1644" 
d="M1035 1490c-345 0 -452 97 -430 268h345c-6 -59 33 -101 119 -101c87 0 137 42 150 101h354c-34 -171 -182 -268 -538 -268zM461 0h-393l306 1400h372l-104 -489c-29 -136 -85 -311 -139 -440l41 -12c53 97 115 188 172 259l539 682h394l-306 -1400h-372l111 508
c33 150 86 323 136 437l-41 12c-57 -106 -119 -201 -176 -274z" />
    <glyph glyph-name="uni040D" unicode="&#x40d;" horiz-adv-x="1644" 
d="M1146 1488h-243l-189 231h335zM461 0h-393l306 1400h372l-104 -489c-29 -136 -85 -311 -139 -440l41 -12c53 97 115 188 172 259l539 682h394l-306 -1400h-372l111 508c33 150 86 323 136 437l-41 12c-57 -106 -119 -201 -176 -274z" />
    <glyph glyph-name="uni0406" unicode="&#x406;" horiz-adv-x="741" 
d="M441 0h-373l305 1400h373z" />
    <glyph glyph-name="uni0407" unicode="&#x407;" horiz-adv-x="741" 
d="M538 1493h-226l51 235h226zM824 1493h-225l51 235h226zM441 0h-373l305 1400h373z" />
    <glyph glyph-name="uni0408" unicode="&#x408;" horiz-adv-x="1434" 
d="M626 -25c-373 0 -562 178 -510 551l382 48c-41 -248 14 -351 155 -351c109 0 181 72 210 207l213 970h373l-220 -1000c-62 -285 -252 -425 -603 -425z" />
    <glyph glyph-name="uni041A" unicode="&#x41a;" horiz-adv-x="1570" 
d="M441 0h-373l306 1400h373l-117 -536h175c121 0 174 51 236 182l62 132c61 131 92 186 125 222h402l2 -36c-49 -19 -107 -80 -182 -237l-75 -159c-76 -158 -135 -209 -240 -222l-3 -37c96 -18 133 -76 145 -249l12 -173c12 -173 38 -228 77 -251l-8 -36h-402
c-21 49 -31 107 -33 259l-3 151c-2 151 -35 198 -158 198h-188z" />
    <glyph glyph-name="uni040C" unicode="&#x40c;" horiz-adv-x="1570" 
d="M1100 1488h-248l152 231h343zM441 0h-373l306 1400h373l-117 -536h175c121 0 174 51 236 182l62 132c61 131 92 186 125 222h402l2 -36c-49 -19 -107 -80 -182 -237l-75 -159c-76 -158 -135 -209 -240 -222l-3 -37c96 -18 133 -76 145 -249l12 -173
c12 -173 38 -228 77 -251l-8 -36h-402c-21 49 -31 107 -33 259l-3 151c-2 151 -35 198 -158 198h-188z" />
    <glyph glyph-name="uni049A" unicode="&#x49a;" horiz-adv-x="1570" 
d="M1228 1400h402l2 -36c-49 -19 -107 -80 -182 -237l-75 -159c-76 -158 -135 -209 -240 -222l-3 -37c96 -18 133 -76 145 -249l12 -173c1 -9 1 -17 2 -25h154l-103 -473h-353l46 211h-79c-21 49 -31 107 -33 259l-3 151c-2 151 -35 198 -158 198h-188l-133 -608h-373
l306 1400h373l-117 -536h175c121 0 174 51 236 182l62 132c61 131 92 186 125 222z" />
    <glyph glyph-name="uni041B" unicode="&#x41b;" horiz-adv-x="1664" 
d="M38 -20v303l51 3c167 8 253 189 425 943l39 171h1117l-306 -1400h-373l247 1132h-400l-30 -118c-180 -687 -341 -1080 -770 -1034z" />
    <glyph glyph-name="uni0409" unicode="&#x409;" horiz-adv-x="2421" 
d="M1563 910h312c284 0 443 -138 443 -377c0 -340 -217 -533 -558 -533h-769l247 1132h-400l-30 -118c-180 -687 -341 -1080 -770 -1034v303l51 3c167 8 253 189 425 943l39 171h1117l-97 -445zM1417 243l275 1c159 0 252 107 252 269c0 105 -59 153 -180 153h-254z" />
    <glyph glyph-name="uni041C" unicode="&#x41c;" horiz-adv-x="2027" 
d="M427 0h-359l305 1400h456l91 -584c19 -131 29 -272 34 -434l39 -3c56 146 137 319 203 435l342 586h494l-305 -1400h-363l77 349c46 214 121 496 180 652l-50 10l-535 -1011h-276l-125 1009l-52 -5c-1 -180 -38 -464 -80 -656z" />
    <glyph glyph-name="uni041D" unicode="&#x41d;" horiz-adv-x="1642" 
d="M441 0h-373l301 1400h373l-116 -538h533l116 538h373l-301 -1400h-373l130 606h-533z" />
    <glyph glyph-name="uni04A2" unicode="&#x4a2;" horiz-adv-x="1712" 
d="M1275 1400h373l-245 -1138h119l-103 -473h-353l46 211h-138l130 606h-533l-130 -606h-373l301 1400h373l-116 -538h533z" />
    <glyph glyph-name="uni040A" unicode="&#x40a;" horiz-adv-x="2402" 
d="M1532 862h306c283 0 457 -126 457 -357c0 -321 -213 -505 -564 -505h-757l130 606h-533l-130 -606h-373l301 1400h373l-116 -538h533l116 538h373zM1401 253h277c157 0 243 84 242 231c-1 87 -56 125 -183 125h-259z" />
    <glyph glyph-name="uni041E" unicode="&#x41e;" horiz-adv-x="1677" 
d="M794 -25c-476 0 -702 285 -607 740l25 114c79 384 332 596 744 596c476 0 703 -288 608 -746l-25 -114c-80 -380 -332 -590 -745 -590zM808 231c189 0 307 115 355 343l38 167c58 276 -37 428 -258 428c-189 0 -307 -117 -355 -349l-38 -167c-58 -274 38 -422 258 -422z
" />
    <glyph glyph-name="uni041E_uni0301" horiz-adv-x="1677" 
d="M1114 1488h-248l152 231h343zM794 -25c-476 0 -702 285 -607 740l25 114c79 384 332 596 744 596c476 0 703 -288 608 -746l-25 -114c-80 -380 -332 -590 -745 -590zM808 231c189 0 307 115 355 343l38 167c58 276 -37 428 -258 428c-189 0 -307 -117 -355 -349l-38 -167
c-58 -274 38 -422 258 -422z" />
    <glyph glyph-name="uni04E8" unicode="&#x4e8;" horiz-adv-x="1677" 
d="M956 1425c476 0 703 -288 608 -746l-25 -114c-80 -380 -332 -590 -745 -590c-476 0 -702 285 -607 740l25 114c79 384 332 596 744 596zM943 1169c-189 0 -307 -117 -355 -349l-1 -4h626c27 228 -70 353 -270 353zM808 231c189 0 307 115 355 343l5 22h-628
c-34 -237 64 -365 268 -365z" />
    <glyph glyph-name="uni041F" unicode="&#x41f;" horiz-adv-x="1619" 
d="M441 0h-373l306 1400h1251l-306 -1400h-373l247 1132h-504z" />
    <glyph glyph-name="uni0420" unicode="&#x420;" horiz-adv-x="1500" 
d="M441 0h-373l305 1400h620c312 0 477 -129 477 -383c0 -294 -190 -548 -629 -548h-297zM694 1156l-99 -443h230c193 0 276 119 276 275c0 115 -65 168 -198 168h-209z" />
    <glyph glyph-name="uni0421" unicode="&#x421;" horiz-adv-x="1652" 
d="M789 -25c-473 0 -696 285 -601 744l25 115c79 379 330 591 740 591c399 0 637 -205 609 -523l-378 -39c34 194 -63 306 -250 306c-186 0 -296 -112 -346 -350l-38 -168c-58 -275 34 -420 250 -420c175 0 273 96 326 292l364 -75c-76 -304 -330 -473 -701 -473z" />
    <glyph glyph-name="uni0422" unicode="&#x422;" horiz-adv-x="1399" 
d="M771 0h-373l246 1144h-413l55 256h1200l-56 -256h-413z" />
    <glyph glyph-name="uni0423" unicode="&#x423;" horiz-adv-x="1538" 
d="M188 -25l-25 258l123 4c123 5 169 35 214 92l24 36l-238 1035h382l82 -459c22 -117 26 -278 21 -402l40 -3c33 99 106 258 184 402l242 462h387l-489 -848c-263 -439 -438 -561 -947 -577z" />
    <glyph glyph-name="uni0423_uni0301" horiz-adv-x="1538" 
d="M1077 1488h-248l152 231h343zM188 -25l-25 258l123 4c123 5 169 35 214 92l24 36l-238 1035h382l82 -459c22 -117 26 -278 21 -402l40 -3c33 99 106 258 184 402l242 462h387l-489 -848c-263 -439 -438 -561 -947 -577z" />
    <glyph glyph-name="uni040E" unicode="&#x40e;" horiz-adv-x="1538" 
d="M974 1490c-345 0 -452 97 -430 268h345c-6 -59 33 -101 119 -101c87 0 137 42 150 101h354c-34 -171 -182 -268 -538 -268zM188 -25l-25 258l123 4c123 5 169 35 214 92l24 36l-238 1035h382l82 -459c22 -117 26 -278 21 -402l40 -3c33 99 106 258 184 402l242 462h387
l-489 -848c-263 -439 -438 -561 -947 -577z" />
    <glyph glyph-name="uni04EE" unicode="&#x4ee;" horiz-adv-x="1538" 
d="M1346 1506h-746l40 183h745zM188 -25l-25 258l123 4c123 5 169 35 214 92l24 36l-238 1035h382l82 -459c22 -117 26 -278 21 -402l40 -3c33 99 106 258 184 402l242 462h387l-489 -848c-263 -439 -438 -561 -947 -577z" />
    <glyph glyph-name="uni04AE" unicode="&#x4ae;" horiz-adv-x="1525" 
d="M829 0h-372l116 516l-287 884h371l91 -329c22 -86 38 -170 43 -276l39 -3c48 111 96 192 154 279l227 329h400l-682 -928z" />
    <glyph glyph-name="uni04B0" unicode="&#x4b0;" horiz-adv-x="1525" 
d="M1211 1400h400l-645 -878h253l-48 -220h-278l-64 -302h-372l68 302h-284l48 220h282l-285 878h371l91 -329c22 -86 38 -170 43 -276l39 -3c48 111 96 192 154 279z" />
    <glyph glyph-name="uni0424" unicode="&#x424;" horiz-adv-x="2150" 
d="M1143 -20h-373l31 144c-552 1 -679 285 -616 583l21 99c61 290 271 471 847 471l31 143h373l-31 -143c534 -2 678 -272 615 -575l-22 -101c-61 -288 -274 -477 -845 -476zM859 376l144 649c-282 -1 -391 -89 -424 -247l-21 -97c-34 -159 13 -305 301 -305zM1369 1024
l-145 -648c279 0 390 101 422 255l21 96c35 163 -20 298 -298 297z" />
    <glyph glyph-name="uni0425" unicode="&#x425;" horiz-adv-x="1574" 
d="M398 0h-410l602 714l-282 686h398l116 -298c20 -52 31 -125 32 -185l36 -2c22 62 61 134 101 183l251 302h409l-590 -677l301 -723h-404l-128 336c-19 51 -29 124 -30 186l-37 2c-21 -60 -59 -134 -99 -185z" />
    <glyph glyph-name="uni04B2" unicode="&#x4b2;" horiz-adv-x="1574" 
d="M1651 1400l-590 -677l192 -461h176l-103 -473h-353l46 211h-61l-128 336c-19 51 -29 124 -30 186l-37 2c-21 -60 -59 -134 -99 -185l-266 -339h-410l602 714l-282 686h398l116 -298c20 -52 31 -125 32 -185l36 -2c22 62 61 134 101 183l251 302h409z" />
    <glyph glyph-name="uni0427" unicode="&#x427;" horiz-adv-x="1518" 
d="M1217 0h-372l121 553c-92 -24 -190 -36 -308 -36c-335 0 -494 160 -433 453l91 430h373l-89 -412c-31 -142 32 -215 197 -215c79 0 147 9 224 33l130 594h372z" />
    <glyph glyph-name="uni04B6" unicode="&#x4b6;" horiz-adv-x="1518" 
d="M1151 1400h372l-249 -1138h129l-103 -473h-353l46 211h-148l121 553c-92 -24 -190 -36 -308 -36c-335 0 -494 160 -433 453l91 430h373l-89 -412c-31 -142 32 -215 197 -215c79 0 147 9 224 33z" />
    <glyph glyph-name="uni0426" unicode="&#x426;" horiz-adv-x="1693" 
d="M1400 -211h-354l47 211h-1025l306 1400h372l-247 -1132h505l247 1132h372l-247 -1132h129z" />
    <glyph glyph-name="uni0428" unicode="&#x428;" horiz-adv-x="2307" 
d="M2006 0h-1938l306 1400h372l-246 -1132h410l247 1132h372l-247 -1132h411l246 1132h373z" />
    <glyph glyph-name="uni0429" unicode="&#x429;" horiz-adv-x="2378" 
d="M1939 1400h373l-249 -1138h126l-104 -473h-353l46 211h-1710l306 1400h372l-246 -1132h410l247 1132h372l-247 -1132h411z" />
    <glyph glyph-name="uni040F" unicode="&#x40f;" horiz-adv-x="1619" 
d="M1252 1400h373l-306 -1400h-438l-46 -211h-353l46 211h-460l306 1400h373l-247 -1132h504z" />
    <glyph glyph-name="uni042A" unicode="&#x42a;" horiz-adv-x="1766" 
d="M908 910h312c284 0 444 -138 444 -377c0 -340 -218 -533 -558 -533h-769l249 1144h-355l57 256h727zM762 243l275 1c159 0 252 107 252 269c0 105 -59 153 -179 153h-255z" />
    <glyph glyph-name="uni042B" unicode="&#x42b;" horiz-adv-x="2197" 
d="M837 0h-769l305 1400h373l-106 -490h312c284 0 443 -138 443 -377c0 -340 -217 -533 -558 -533zM1898 0h-373l305 1400h373zM586 666l-92 -423l275 1c159 0 252 107 252 269c0 105 -59 153 -180 153h-255z" />
    <glyph glyph-name="uni042B_uni0301" horiz-adv-x="2197" 
d="M1414 1488h-248l152 231h343zM837 0h-769l305 1400h373l-106 -490h312c284 0 443 -138 443 -377c0 -340 -217 -533 -558 -533zM1898 0h-373l305 1400h373zM586 666l-92 -423l275 1c159 0 252 107 252 269c0 105 -59 153 -180 153h-255z" />
    <glyph glyph-name="uni042C" unicode="&#x42c;" horiz-adv-x="1498" 
d="M837 0h-769l305 1400h373l-106 -490h312c284 0 443 -138 443 -377c0 -340 -217 -533 -558 -533zM586 666l-92 -423l275 1c159 0 252 107 252 269c0 105 -59 153 -180 153h-255z" />
    <glyph glyph-name="uni0405" unicode="&#x405;" horiz-adv-x="1565" 
d="M754 -25c-425 0 -660 161 -631 443l374 37c-25 -160 77 -238 282 -238c150 0 228 42 231 140c2 83 -38 122 -227 202l-187 80c-189 81 -308 192 -305 380c3 268 234 406 602 406c401 0 617 -155 587 -421l-342 -36c16 143 -72 215 -254 215c-150 0 -226 -42 -228 -133
c-1 -68 39 -105 232 -186l189 -77c190 -79 310 -187 306 -392c-4 -270 -242 -420 -629 -420z" />
    <glyph glyph-name="uni0404" unicode="&#x404;" horiz-adv-x="1650" 
d="M1566 922l-374 -38c28 175 -63 285 -250 285c-186 0 -300 -109 -351 -334h372l-53 -243h-371c-32 -235 61 -361 263 -361c164 0 273 87 321 273l360 -75c-68 -277 -327 -454 -700 -454c-474 0 -690 285 -595 744l25 115c79 379 329 591 741 591c404 0 638 -207 612 -503z
" />
    <glyph glyph-name="uni042D" unicode="&#x42d;" horiz-adv-x="1649" 
d="M940 1425c475 0 691 -285 596 -744l-25 -115c-79 -379 -329 -591 -742 -591c-403 0 -638 207 -611 503l374 38c-29 -175 63 -285 250 -285c188 0 303 112 353 343h-374l53 243h372c29 229 -65 352 -265 352c-163 0 -273 -87 -321 -273l-359 75c68 277 327 454 699 454z
" />
    <glyph glyph-name="uni042D_uni0301" horiz-adv-x="1649" 
d="M969 1719h343l-247 -231h-248zM940 1425c475 0 691 -285 596 -744l-25 -115c-79 -379 -329 -591 -742 -591c-403 0 -638 207 -611 503l374 38c-29 -175 63 -285 250 -285c188 0 303 112 353 343h-374l53 243h372c29 229 -65 352 -265 352c-163 0 -273 -87 -321 -273
l-359 75c68 277 327 454 699 454z" />
    <glyph glyph-name="uni04D8" unicode="&#x4d8;" horiz-adv-x="1667" 
d="M948 1425c476 0 702 -285 606 -744l-25 -114c-82 -391 -344 -592 -752 -592c-464 -1 -673 249 -609 644c11 60 24 127 40 180h994c36 238 -58 370 -271 370c-162 0 -264 -65 -294 -185l-370 43c42 218 277 398 681 398zM793 231c193 0 311 108 360 338l5 24h-613l-12 -55
c-35 -198 67 -307 260 -307z" />
    <glyph glyph-name="uni040B" unicode="&#x40b;" horiz-adv-x="1766" 
d="M670 0h-372l244 1132h-313l58 268h1183l-58 -268h-498l-74 -341c93 29 195 44 316 44c328 0 488 -166 426 -458l-80 -377h-371l77 365c30 139 -34 214 -194 214c-78 0 -149 -10 -226 -32z" />
    <glyph glyph-name="uni0402" unicode="&#x402;" horiz-adv-x="1767" 
d="M874 -283l24 239l90 8c100 9 143 37 165 139l55 262c30 139 -34 214 -194 214c-78 0 -149 -10 -226 -32l-118 -547h-372l244 1132h-313l58 268h1183l-58 -268h-498l-74 -341c93 29 195 44 316 44c328 0 487 -166 426 -458l-52 -248c-62 -299 -253 -411 -656 -412z" />
    <glyph glyph-name="uni04BA" unicode="&#x4ba;" horiz-adv-x="1539" 
d="M374 1400h373l-122 -553c92 24 190 36 308 36c336 0 495 -160 433 -453l-91 -430h-372l89 412c31 142 -33 215 -198 215c-79 0 -146 -9 -223 -33l-130 -594h-373z" />
    <glyph glyph-name="uni042E" unicode="&#x42e;" horiz-adv-x="2271" 
d="M1553 1425c474 0 699 -287 604 -745l-25 -114c-79 -381 -329 -591 -741 -591c-427 0 -651 231 -623 609h-200l-127 -584h-373l305 1400h373l-123 -564h190c81 379 331 589 740 589zM1756 573l39 170c56 277 -34 426 -254 426c-188 0 -305 -115 -354 -348l-38 -169
c-57 -274 36 -421 255 -421c187 0 305 113 352 342z" />
    <glyph glyph-name="uni042E_uni0301" horiz-adv-x="2271" 
d="M1195 1724h343l-247 -231h-248zM1553 1425c474 0 699 -287 604 -745l-25 -114c-79 -381 -329 -591 -741 -591c-427 0 -651 231 -623 609h-200l-127 -584h-373l305 1400h373l-123 -564h190c81 379 331 589 740 589zM1756 573l39 170c56 277 -34 426 -254 426
c-188 0 -305 -115 -354 -348l-38 -169c-57 -274 36 -421 255 -421c187 0 305 113 352 342z" />
    <glyph glyph-name="uni042F" unicode="&#x42f;" horiz-adv-x="1560" 
d="M394 0h-410l-2 36c53 30 100 90 172 238l70 146c71 148 131 188 257 199l1 39c-144 20 -230 118 -230 265c0 333 242 477 608 477h706l-306 -1400h-373l113 516h-178c-144 0 -189 -21 -246 -158l-57 -135c-58 -137 -83 -175 -125 -223zM808 760h245l87 396h-240
c-179 0 -280 -72 -280 -240c0 -108 63 -156 188 -156z" />
    <glyph glyph-name="uni042F_uni0301" horiz-adv-x="1560" 
d="M1082 1488h-248l152 231h343zM394 0h-410l-2 36c53 30 100 90 172 238l70 146c71 148 131 188 257 199l1 39c-144 20 -230 118 -230 265c0 333 242 477 608 477h706l-306 -1400h-373l113 516h-178c-144 0 -189 -21 -246 -158l-57 -135c-58 -137 -83 -175 -125 -223z
M808 760h245l87 396h-240c-179 0 -280 -72 -280 -240c0 -108 63 -156 188 -156z" />
    <glyph glyph-name="uni0414.loclBGR" horiz-adv-x="1656" 
d="M1230 1400l121 -1144h114l-102 -467h-353l43 211h-692l-46 -211h-353l102 467h105l614 1144h447zM754 684l-208 -428h441l-23 427c-7 113 -4 300 6 433l-40 4c-45 -136 -121 -323 -176 -436z" />
    <glyph glyph-name="uni041B.loclBGR" horiz-adv-x="1546" 
d="M740 1400h446l148 -1400h-377l-36 683c-7 113 -5 300 5 433l-40 4c-45 -136 -120 -323 -176 -436l-333 -684h-389z" />
    <glyph glyph-name="uni0430" unicode="&#x430;" horiz-adv-x="1437" 
d="M379 -25c-201 0 -318 99 -317 253c1 256 255 366 545 405l304 38l13 56c22 92 -47 142 -163 142c-127 0 -197 -51 -201 -146l-361 26c12 207 206 326 578 326s559 -143 496 -407l-95 -405c-13 -58 -1 -74 48 -74h44l-70 -205c-35 -6 -74 -9 -117 -9
c-220 0 -256 90 -185 261l-39 10c-89 -175 -249 -271 -480 -271zM559 199c130 0 249 99 290 232l14 52l-168 -25c-164 -25 -249 -70 -250 -165c-1 -63 40 -94 114 -94z" />
    <glyph glyph-name="uni0430_uni0301" horiz-adv-x="1437" 
d="M923 1138h-246l153 262h322zM379 -25c-201 0 -318 99 -317 253c1 256 255 366 545 405l304 38l13 56c22 92 -47 142 -163 142c-127 0 -197 -51 -201 -146l-361 26c12 207 206 326 578 326s559 -143 496 -407l-95 -405c-13 -58 -1 -74 48 -74h44l-70 -205
c-35 -6 -74 -9 -117 -9c-220 0 -256 90 -185 261l-39 10c-89 -175 -249 -271 -480 -271zM559 199c130 0 249 99 290 232l14 52l-168 -25c-164 -25 -249 -70 -250 -165c-1 -63 40 -94 114 -94z" />
    <glyph glyph-name="uni0431" unicode="&#x431;" horiz-adv-x="1452" 
d="M662 -25c-407 0 -607 221 -524 604l41 194c90 409 301 518 632 551l223 22c94 9 149 27 152 66h286c-9 -191 -146 -264 -382 -285l-235 -20c-237 -20 -311 -112 -387 -328l39 -10c81 152 233 235 435 235c307 0 442 -199 379 -503l-18 -84c-59 -280 -282 -442 -641 -442z
M682 199c137 0 225 80 255 223l25 111c33 153 -34 247 -185 247c-134 0 -232 -76 -261 -218l-24 -108c-33 -159 38 -255 190 -255z" />
    <glyph glyph-name="uni0432" unicode="&#x432;" horiz-adv-x="1430" 
d="M854 0h-806l230 1050h743c203 0 309 -75 308 -221c0 -152 -80 -249 -238 -265l-3 -38c109 -17 165 -75 167 -180c4 -213 -147 -346 -401 -346zM604 858l-50 -226h264c98 0 154 53 154 138c0 59 -36 88 -110 88h-258zM517 460l-59 -268h274c106 0 165 60 166 167
c0 68 -40 101 -120 101h-261z" />
    <glyph glyph-name="uni0433" unicode="&#x433;" horiz-adv-x="1193" 
d="M416 0h-368l230 1050h917l-54 -248h-549z" />
    <glyph glyph-name="uni0453" unicode="&#x453;" horiz-adv-x="1193" 
d="M870 1138h-246l153 262h322zM416 0h-368l230 1050h917l-54 -248h-549z" />
    <glyph glyph-name="uni0491" unicode="&#x491;" horiz-adv-x="1194" 
d="M934 1050l46 211h261l-100 -459h-549l-176 -802h-368l230 1050h656z" />
    <glyph glyph-name="uni0493" unicode="&#x493;" horiz-adv-x="1309" 
d="M1311 1050l-54 -248h-549l-52 -238h323l-43 -200h-324l-80 -364h-367l80 364h-181l44 200h181l106 486h916z" />
    <glyph glyph-name="uni0434" unicode="&#x434;" horiz-adv-x="1537" 
d="M267 -194h-302l91 424h78c130 199 162 348 271 820h1001l-181 -820h118l-91 -424h-302l43 194h-685zM453 264l14 -34h391l130 590h-300c-64 -264 -116 -433 -235 -556z" />
    <glyph glyph-name="uni0435" unicode="&#x435;" horiz-adv-x="1449" 
d="M1288 431h-811c-31 -160 48 -241 196 -241c120 0 201 48 241 141l350 -54c-78 -186 -279 -302 -604 -302c-403 0 -602 224 -534 549l20 91c61 290 295 460 656 460c341 0 542 -150 542 -390c0 -82 -23 -188 -56 -254zM791 860c-135 0 -223 -72 -265 -214h445l8 40
c24 113 -55 174 -188 174z" />
    <glyph glyph-name="uni0435_uni0301" horiz-adv-x="1449" 
d="M861 1400h322l-229 -262h-246zM1288 431h-811c-31 -160 48 -241 196 -241c120 0 201 48 241 141l350 -54c-78 -186 -279 -302 -604 -302c-403 0 -602 224 -534 549l20 91c61 290 295 460 656 460c341 0 542 -150 542 -390c0 -82 -23 -188 -56 -254zM791 860
c-135 0 -223 -72 -265 -214h445l8 40c24 113 -55 174 -188 174z" />
    <glyph glyph-name="uni0450" unicode="&#x450;" horiz-adv-x="1449" 
d="M897 1400l77 -262h-236l-165 262h324zM1288 431h-811c-31 -160 48 -241 196 -241c120 0 201 48 241 141l350 -54c-78 -186 -279 -302 -604 -302c-403 0 -602 224 -534 549l20 91c61 290 295 460 656 460c341 0 542 -150 542 -390c0 -82 -23 -188 -56 -254zM791 860
c-135 0 -223 -72 -265 -214h445l8 40c24 113 -55 174 -188 174z" />
    </font>
</defs>
</svg>
