<?xml version="1.0" standalone="no"?>
<!DOCTYPE svg PUBLIC "-//W3C//DTD SVG 1.1//EN" "http://www.w3.org/Graphics/SVG/1.1/DTD/svg11.dtd" >
<svg xmlns="http://www.w3.org/2000/svg" xmlns:xlink="http://www.w3.org/1999/xlink" version="1.1">
<metadata>
Created by FontForge 20230101 at Mon Jun 21 02:23:15 2021
 By Webmaster
Copyright \(c\) 2020 by Alexander Slobzheninov. All rights reserved.
</metadata>
<defs>
<font id="PPRightGroteskText-SpatialLight" horiz-adv-x="1603" >
  <font-face 
    font-family="PP Right Grotesk Text Spatial Light"
    font-weight="200"
    font-stretch="extra-expanded"
    units-per-em="2048"
    panose-1="0 0 3 7 0 0 0 0 0 0"
    ascent="1638"
    descent="-410"
    x-height="1050"
    cap-height="1400"
    bbox="-860 -432 2815 1866"
    underline-thickness="79"
    underline-position="-200"
    stemh="103"
    stemv="145"
    unicode-range="U+0020-2BA7"
  />
<missing-glyph horiz-adv-x="1919" 
d="M1704 0h-1489v1400h1489v-1400zM348 119l45 -4c32 80 79 155 128 212l883 963h-1042v-855c0 -78 -5 -197 -14 -316zM1391 1069l-878 -959h1043v855c0 77 5 197 14 318l-45 3c-30 -76 -84 -157 -134 -217z" />
    <glyph glyph-name=".notdef" horiz-adv-x="1919" 
d="M1704 0h-1489v1400h1489v-1400zM348 119l45 -4c32 80 79 155 128 212l883 963h-1042v-855c0 -78 -5 -197 -14 -316zM1391 1069l-878 -959h1043v855c0 77 5 197 14 318l-45 3c-30 -76 -84 -157 -134 -217z" />
    <glyph glyph-name="space" unicode=" " horiz-adv-x="783" 
 />
    <glyph glyph-name="A" unicode="A" horiz-adv-x="1536" 
d="M220 0h-153l610 1400h183l609 -1400h-161l-153 349h-781zM591 867l-178 -409h702l-172 408c-57 136 -103 250 -162 413h-31c-57 -163 -101 -278 -159 -412z" />
    <glyph glyph-name="B" unicode="B" horiz-adv-x="1637" 
d="M1050 0h-815v1400h805c265 0 408 -122 408 -343c0 -165 -86 -270 -239 -289v-27c184 -19 287 -141 287 -340c0 -258 -157 -401 -446 -401zM385 1291v-486h628c186 0 285 86 285 245s-99 241 -285 241h-628zM385 698v-589h636c208 0 319 103 319 297
c0 190 -111 292 -319 292h-636z" />
    <glyph glyph-name="C" unicode="C" horiz-adv-x="1851" 
d="M941 -21c-493 0 -764 254 -764 718v4c0 465 269 720 760 720c433 0 687 -187 717 -467l-152 -45c-12 250 -196 401 -565 401c-407 0 -603 -199 -603 -608v-6c0 -407 198 -606 607 -606c372 0 561 147 578 388l155 -42c-35 -274 -294 -457 -733 -457z" />
    <glyph glyph-name="D" unicode="D" horiz-adv-x="1730" 
d="M893 0h-658v1400h658c427 0 660 -248 660 -699v-4c0 -450 -233 -697 -660 -697zM385 1289v-1178h503c343 0 509 188 509 585v6c0 399 -166 587 -509 587h-503z" />
    <glyph glyph-name="E" unicode="E" horiz-adv-x="1509" 
d="M1387 0h-1152v1400h1131v-111h-981v-480h931v-109h-931v-589h1002v-111z" />
    <glyph glyph-name="F" unicode="F" horiz-adv-x="1428" 
d="M385 0h-150v1400h1081v-111h-931v-505h878v-109h-878v-675z" />
    <glyph glyph-name="G" unicode="G" horiz-adv-x="1894" 
d="M894 -21c-463 0 -717 255 -717 719v4c0 464 272 719 769 719c419 0 669 -157 706 -438l-151 -46c-16 251 -197 373 -555 373c-413 0 -612 -198 -612 -607v-6c0 -408 189 -607 579 -607c375 0 557 187 611 475h-493v108h638v-673h-148c0 92 11 172 67 431l-33 8
c-81 -314 -342 -460 -661 -460z" />
    <glyph glyph-name="H" unicode="H" horiz-adv-x="1782" 
d="M385 0h-150v1400h150v-592h1012v592h150v-1400h-150v697h-1012v-697z" />
    <glyph glyph-name="I" unicode="I" horiz-adv-x="620" 
d="M385 0h-150v1400h150v-1400z" />
    <glyph glyph-name="J" unicode="J" horiz-adv-x="1445" 
d="M666 -21c-362 0 -565 201 -579 579l151 34c5 -331 154 -501 428 -501c257 0 404 146 404 430v879h150v-891c0 -343 -198 -530 -554 -530z" />
    <glyph glyph-name="K" unicode="K" horiz-adv-x="1536" 
d="M385 0h-150v1400h150v-449c0 -91 -8 -158 -33 -248l28 -16l889 713h198l-673 -527l674 -873h-177l-607 787l-299 -231v-556z" />
    <glyph glyph-name="L" unicode="L" horiz-adv-x="1458" 
d="M1345 0h-1110v1400h150v-1289h960v-111z" />
    <glyph glyph-name="M" unicode="M" horiz-adv-x="2013" 
d="M379 0h-144v1400h206l422 -913c48 -103 93 -208 133 -324h26c39 116 85 219 133 324l419 913h205v-1400h-149v844c0 130 10 239 32 380l-32 6l-563 -1230h-118l-567 1234l-33 -7c21 -141 30 -251 30 -383v-844z" />
    <glyph glyph-name="N" unicode="N" horiz-adv-x="1740" 
d="M376 0h-141v1400h173l809 -1025c53 -66 95 -131 141 -209l32 10c-18 106 -26 221 -26 336v888h141v-1400h-168l-804 1018c-56 70 -100 138 -149 226l-33 -9c18 -103 25 -225 25 -336v-899z" />
    <glyph glyph-name="O" unicode="O" horiz-adv-x="1895" 
d="M947 -21c-497 0 -770 255 -770 720v4c0 463 273 718 770 718c498 0 770 -255 770 -718v-4c0 -465 -272 -720 -770 -720zM947 90c414 0 614 196 614 609v5c0 411 -200 606 -614 606c-413 0 -613 -195 -613 -606v-5c0 -413 200 -609 613 -609z" />
    <glyph glyph-name="P" unicode="P" horiz-adv-x="1559" 
d="M385 0h-150v1400h732c314 0 487 -153 487 -425c0 -271 -173 -423 -487 -423h-582v-552zM385 1291v-630h562c236 0 352 104 352 314c0 211 -116 316 -352 316h-562z" />
    <glyph glyph-name="Q" unicode="Q" horiz-adv-x="1895" 
d="M947 1421c498 0 770 -255 770 -718v-4c0 -437 -240 -689 -683 -717c9 -132 76 -156 295 -166l193 -9l-31 -135c-436 57 -565 122 -572 307c-479 10 -742 264 -742 720v4c0 463 273 718 770 718zM1561 699v5c0 411 -200 606 -614 606c-413 0 -613 -195 -613 -606v-5
c0 -413 200 -609 613 -609c414 0 614 196 614 609z" />
    <glyph glyph-name="R" unicode="R" horiz-adv-x="1649" 
d="M385 0h-150v1400h783c283 0 440 -133 440 -368c0 -204 -131 -321 -362 -326v-28c121 -20 162 -96 220 -236l57 -139c58 -140 126 -245 184 -272l-2 -31h-193c-42 60 -80 141 -131 279l-50 139c-50 138 -94 238 -295 238h-501v-656zM385 1291v-527h587
c221 0 331 88 331 264s-104 263 -313 263h-605z" />
    <glyph glyph-name="S" unicode="S" horiz-adv-x="1657" 
d="M852 -21c-444 0 -676 133 -709 408l153 47c14 -232 197 -345 560 -345c307 0 476 92 476 259c0 146 -85 206 -391 275l-301 68c-304 69 -425 163 -425 348c0 247 213 382 591 382c412 0 622 -138 643 -421l-145 -47c-11 242 -174 358 -499 358c-288 0 -446 -91 -446 -258
c0 -106 43 -171 346 -239l302 -69c305 -69 473 -153 473 -374c0 -252 -227 -392 -628 -392z" />
    <glyph glyph-name="T" unicode="T" horiz-adv-x="1421" 
d="M785 0h-150v1289h-577v111h1305v-111h-578v-1289z" />
    <glyph glyph-name="U" unicode="U" horiz-adv-x="1752" 
d="M876 -21c-457 0 -651 170 -651 580v841h150v-828c0 -342 148 -482 501 -482s501 140 501 482v828h150v-841c0 -410 -194 -580 -651 -580z" />
    <glyph glyph-name="V" unicode="V" horiz-adv-x="1534" 
d="M860 0h-183l-610 1400h162l362 -853c58 -133 108 -259 164 -428h32c57 173 106 298 161 427l365 854h154z" />
    <glyph glyph-name="W" unicode="W" horiz-adv-x="2170" 
d="M708 0h-162l-479 1400h155l280 -834c37 -113 87 -295 115 -423h32c25 125 71 307 107 423l259 834h143l262 -834c38 -121 84 -301 107 -420h32c28 126 78 306 115 420l280 834h149l-478 -1400h-163l-275 884c-34 108 -70 262 -86 358h-32c-15 -93 -52 -247 -86 -358z" />
    <glyph glyph-name="X" unicode="X" horiz-adv-x="1471" 
d="M246 0h-179l575 708l-555 692h175l386 -483c27 -36 51 -74 71 -115h30c22 43 47 82 73 115l394 483h170l-560 -683l578 -717h-185l-392 490c-30 39 -58 82 -81 124h-30c-20 -39 -48 -80 -81 -122z" />
    <glyph glyph-name="Y" unicode="Y" horiz-adv-x="1477" 
d="M813 0h-150v513l-596 887h168l321 -481c62 -95 109 -171 172 -293h29c60 124 105 198 168 294l320 480h165l-597 -887v-513z" />
    <glyph glyph-name="Z" unicode="Z" horiz-adv-x="1455" 
d="M1351 0h-1247v89l865 1014c45 53 103 113 155 152l-14 38c-55 -4 -98 -4 -161 -4h-835v111h1208v-89l-842 -992c-45 -52 -107 -119 -172 -173l11 -38c37 2 79 3 117 3h915v-111z" />
    <glyph glyph-name="a" unicode="a" horiz-adv-x="1502" 
d="M516 -21c-240 0 -376 89 -376 251c0 195 155 282 584 344l396 58v79c0 174 -126 261 -388 261c-272 0 -430 -101 -435 -264l-138 35c19 199 213 328 573 328c361 0 533 -117 533 -362v-529c0 -88 22 -92 91 -92h70l-31 -107c-10 -1 -19 -2 -30 -2
c-229 2 -261 75 -204 301l-33 9c-81 -182 -330 -310 -612 -310zM567 82c286 0 553 163 553 407v47l-353 -51c-371 -54 -475 -105 -475 -243c0 -103 97 -160 275 -160z" />
    <glyph glyph-name="b" unicode="b" horiz-adv-x="1667" 
d="M894 -20c-281 0 -469 111 -546 308l-33 -11c34 -98 55 -199 57 -277h-157v1400h145v-305c0 -127 -17 -218 -49 -331l32 -10c76 201 266 316 551 316c398 0 616 -192 616 -541v-4c0 -352 -218 -545 -616 -545zM865 83c318 0 495 157 495 441v5c0 283 -177 438 -495 438
c-325 0 -505 -155 -505 -438v-5c0 -284 180 -441 505 -441z" />
    <glyph glyph-name="c" unicode="c" horiz-adv-x="1592" 
d="M808 -21c-420 0 -651 192 -651 543v7c0 350 229 542 647 542c374 0 594 -141 624 -381l-142 -33c-20 194 -191 311 -482 311c-319 0 -496 -156 -496 -439v-7c0 -282 178 -440 500 -440c290 0 453 109 483 278l147 -33c-48 -216 -262 -348 -630 -348z" />
    <glyph glyph-name="d" unicode="d" horiz-adv-x="1667" 
d="M773 -20c-397 0 -616 193 -616 545v4c0 349 219 541 616 541c286 0 475 -115 551 -316l32 10c-32 113 -48 204 -48 331v305h145v-1400h-157c1 78 22 179 56 277l-32 11c-78 -197 -266 -308 -547 -308zM803 83c325 0 505 157 505 441v5c0 283 -180 438 -505 438
c-319 0 -496 -155 -496 -438v-5c0 -284 177 -441 496 -441z" />
    <glyph glyph-name="e" unicode="e" horiz-adv-x="1610" 
d="M1304 316l147 -33c-85 -184 -302 -304 -639 -304c-398 0 -655 189 -655 543v8c0 330 257 541 659 541c376 0 620 -201 620 -481c0 -31 -3 -63 -8 -93h-1122c12 -272 215 -417 514 -417c259 0 422 100 484 236zM820 970c-282 0 -479 -147 -510 -372h979v4
c0 210 -189 368 -469 368z" />
    <glyph glyph-name="f" unicode="f" horiz-adv-x="1144" 
d="M485 0h-145v947h-245v103h245v69c0 203 127 286 680 302l29 -113l-262 -14c-262 -15 -305 -51 -305 -168v-76h557v-103h-554v-947z" />
    <glyph glyph-name="g" unicode="g" horiz-adv-x="1555" 
d="M704 201l289 -32c288 -33 478 -78 478 -255c0 -210 -225 -285 -695 -285c-466 0 -690 73 -690 278c0 129 107 201 290 209v24c-121 37 -192 88 -192 158c0 91 79 133 203 141v32c-124 55 -186 144 -186 268c0 222 199 332 600 332c92 0 173 -6 243 -17
c-3 136 81 254 332 269l37 -125l-121 -8c-103 -8 -170 -63 -177 -151c189 -47 283 -147 283 -300c0 -223 -198 -332 -597 -332c-96 0 -181 6 -254 19c-158 -11 -239 -37 -239 -93c0 -78 108 -99 396 -132zM801 973c-302 0 -453 -76 -453 -234c0 -159 151 -235 453 -235
c300 0 449 76 449 235c0 158 -149 234 -449 234zM779 -273c375 0 560 47 560 173c0 99 -101 123 -386 155l-285 32c-53 6 -103 13 -149 21c-210 -30 -298 -81 -298 -179c0 -145 182 -202 558 -202z" />
    <glyph glyph-name="h" unicode="h" horiz-adv-x="1581" 
d="M360 0h-145v1400h145l-1 -350c0 -107 -13 -202 -42 -297l32 -9c93 211 258 326 551 326c308 0 477 -144 477 -408v-662h-145v638c0 211 -122 325 -374 325c-318 0 -498 -184 -498 -496v-467z" />
    <glyph glyph-name="i" unicode="i" horiz-adv-x="569" 
d="M374 1236h-179v164h179v-164zM357 0h-145v1050h145v-1050z" />
    <glyph glyph-name="j" unicode="j" horiz-adv-x="575" 
d="M377 1236h-180v164h180v-164zM-39 -370l-29 127l115 7c116 7 168 44 168 165v1121h145v-1007c0 -277 -131 -379 -399 -413z" />
    <glyph glyph-name="k" unicode="k" horiz-adv-x="1248" 
d="M360 0h-145v1400h145v-577c0 -85 -13 -196 -32 -282l23 -11l643 520h197l-518 -395l499 -655h-167l-434 580l-211 -163v-417z" />
    <glyph glyph-name="l" unicode="l" horiz-adv-x="575" 
d="M360 0h-145v1400h145v-1400z" />
    <glyph glyph-name="m" unicode="m" horiz-adv-x="2384" 
d="M360 0h-145v1050h154c0 -85 -14 -171 -52 -297l32 -9c83 212 230 326 483 326c278 0 417 -114 390 -320l32 -7c77 211 233 327 499 327c274 0 426 -119 426 -338v-732h-145v703c0 161 -118 260 -331 260c-278 0 -434 -179 -434 -476v-487h-145v700
c0 164 -119 263 -333 263c-276 0 -431 -192 -431 -514v-449z" />
    <glyph glyph-name="n" unicode="n" horiz-adv-x="1581" 
d="M360 0h-145v1050h154c0 -87 -14 -172 -52 -297l32 -9c93 211 258 326 551 326c308 0 477 -144 477 -408v-662h-145v638c0 211 -122 325 -374 325c-318 0 -498 -184 -498 -496v-467z" />
    <glyph glyph-name="o" unicode="o" horiz-adv-x="1611" 
d="M806 -21c-373 0 -649 156 -649 533v26c0 372 276 533 649 533c372 0 647 -161 647 -533v-26c0 -377 -275 -533 -647 -533zM806 82c292 0 497 130 497 431v24c0 302 -205 431 -497 431c-294 0 -498 -129 -498 -431v-24c0 -301 204 -431 498 -431z" />
    <glyph glyph-name="p" unicode="p" horiz-adv-x="1668" 
d="M894 1070c398 0 616 -193 616 -545v-4c0 -349 -218 -541 -616 -541c-285 0 -475 115 -551 316l-32 -10c32 -113 49 -204 49 -331v-305h-145v1400h157c-2 -78 -23 -179 -57 -277l33 -11c77 197 265 308 546 308zM865 967c-325 0 -505 -157 -505 -441v-5
c0 -283 180 -438 505 -438c318 0 495 155 495 438v5c0 284 -177 441 -495 441z" />
    <glyph glyph-name="q" unicode="q" horiz-adv-x="1668" 
d="M773 1070c281 0 469 -111 547 -308l32 11c-34 98 -55 199 -56 277h157v-1400h-145v305c0 127 16 218 48 331l-32 10c-76 -201 -265 -316 -551 -316c-397 0 -616 192 -616 541v4c0 352 219 545 616 545zM803 967c-319 0 -496 -157 -496 -441v-5c0 -283 177 -438 496 -438
c325 0 505 155 505 438v5c0 284 -180 441 -505 441z" />
    <glyph glyph-name="r" unicode="r" horiz-adv-x="1027" 
d="M360 0h-145v1050h154c0 -87 -14 -172 -52 -297l32 -9c76 227 217 312 561 334l31 -123l-178 -14c-289 -25 -403 -186 -403 -473v-468z" />
    <glyph glyph-name="s" unicode="s" horiz-adv-x="1510" 
d="M783 -21c-383 0 -599 111 -627 330l145 41c14 -176 178 -272 482 -272c272 0 420 65 420 189c0 132 -166 166 -369 199l-203 33c-202 32 -432 86 -432 279c0 192 192 293 549 293s562 -122 581 -304l-142 -38c-10 141 -166 243 -439 243c-265 0 -405 -60 -405 -178
c0 -115 141 -151 345 -183l203 -32c203 -33 461 -85 461 -303c0 -199 -197 -297 -569 -297z" />
    <glyph glyph-name="t" unicode="t" horiz-adv-x="1136" 
d="M685 -19c-233 0 -345 101 -345 309v657h-245v103h245v265l145 48v-313h557v-103h-557v-639c0 -148 80 -216 241 -216c96 0 196 18 300 65l-13 -108c-81 -43 -187 -68 -328 -68z" />
    <glyph glyph-name="u" unicode="u" horiz-adv-x="1582" 
d="M1222 1050h145v-1050h-155c0 87 15 172 52 297l-32 9c-93 -211 -258 -326 -550 -326c-309 0 -477 144 -477 408v662h145v-638c0 -211 121 -325 373 -325c319 0 499 184 499 496v467z" />
    <glyph glyph-name="v" unicode="v" horiz-adv-x="1358" 
d="M750 0h-139l-554 1050h158l304 -582c53 -101 101 -203 149 -352h32c49 150 94 253 145 352l302 582h154z" />
    <glyph glyph-name="w" unicode="w" horiz-adv-x="2041" 
d="M659 0h-146l-456 1050h145l262 -609c39 -93 84 -223 110 -325h33c27 109 68 239 102 325l243 609h138l245 -609c37 -92 80 -221 107 -323h32c28 114 69 242 105 323l264 609h141l-456 -1050h-146l-240 593c-37 91 -78 227 -105 337h-32c-18 -82 -61 -219 -109 -337z" />
    <glyph glyph-name="x" unicode="x" horiz-adv-x="1352" 
d="M235 0h-178l519 532l-499 518h186l327 -348c27 -30 52 -63 73 -100h26c27 40 53 75 81 103l329 345h176l-502 -513l522 -537h-192l-345 358c-27 29 -50 63 -73 102h-26c-24 -35 -53 -71 -82 -102z" />
    <glyph glyph-name="y" unicode="y" horiz-adv-x="1358" 
d="M137 -371l-32 130l166 9c165 8 234 39 283 137l47 94l-544 1051h159l304 -601c51 -103 99 -205 148 -345h32c49 142 96 244 146 345l300 601h155l-530 -1032c-146 -295 -293 -361 -634 -389z" />
    <glyph glyph-name="z" unicode="z" horiz-adv-x="1386" 
d="M1256 0h-1126v86l729 689c38 36 111 94 178 133l-11 38c-52 -2 -76 -3 -121 -3h-748v107h1086v-86l-728 -687c-38 -37 -112 -95 -180 -135l11 -38c52 2 78 3 125 3h785v-107z" />
    <glyph glyph-name="Aacute" unicode="&#xc1;" horiz-adv-x="1536" 
d="M828 1535h-121l177 224h188zM220 0h-153l610 1400h183l609 -1400h-161l-153 349h-781zM591 867l-178 -409h702l-172 408c-57 136 -103 250 -162 413h-31c-57 -163 -101 -278 -159 -412z" />
    <glyph glyph-name="Abreve" unicode="&#x102;" horiz-adv-x="1536" 
d="M769 1541c-210 0 -324 83 -329 238h107c4 -95 82 -147 222 -147c139 0 217 52 221 147h107c-5 -155 -119 -238 -328 -238zM220 0h-153l610 1400h183l609 -1400h-161l-153 349h-781zM591 867l-178 -409h702l-172 408c-57 136 -103 250 -162 413h-31
c-57 -163 -101 -278 -159 -412z" />
    <glyph glyph-name="Acircumflex" unicode="&#xc2;" horiz-adv-x="1536" 
d="M554 1535h-139l276 224h154l276 -224h-139l-214 134zM220 0h-153l610 1400h183l609 -1400h-161l-153 349h-781zM591 867l-178 -409h702l-172 408c-57 136 -103 250 -162 413h-31c-57 -163 -101 -278 -159 -412z" />
    <glyph glyph-name="Adieresis" unicode="&#xc4;" horiz-adv-x="1536" 
d="M629 1556h-175v161h175v-161zM1084 1556h-175v161h175v-161zM220 0h-153l610 1400h183l609 -1400h-161l-153 349h-781zM591 867l-178 -409h702l-172 408c-57 136 -103 250 -162 413h-31c-57 -163 -101 -278 -159 -412z" />
    <glyph glyph-name="Agrave" unicode="&#xc0;" horiz-adv-x="1536" 
d="M831 1535h-121l-244 224h188zM220 0h-153l610 1400h183l609 -1400h-161l-153 349h-781zM591 867l-178 -409h702l-172 408c-57 136 -103 250 -162 413h-31c-57 -163 -101 -278 -159 -412z" />
    <glyph glyph-name="Amacron" unicode="&#x100;" horiz-adv-x="1536" 
d="M1198 1557h-860v96h860v-96zM220 0h-153l610 1400h183l609 -1400h-161l-153 349h-781zM591 867l-178 -409h702l-172 408c-57 136 -103 250 -162 413h-31c-57 -163 -101 -278 -159 -412z" />
    <glyph glyph-name="Aogonek" unicode="&#x104;" horiz-adv-x="1536" 
d="M1469 0h-8c-104 -40 -158 -87 -158 -139c0 -38 31 -58 86 -58c23 0 45 4 63 9l-24 -91c-24 -8 -53 -12 -82 -12c-103 0 -159 42 -159 117c0 64 42 126 154 174h-33l-153 349h-781l-154 -349h-153l610 1400h183zM591 867l-178 -409h702l-172 408
c-57 136 -103 250 -162 413h-31c-57 -163 -101 -278 -159 -412z" />
    <glyph glyph-name="Aring" unicode="&#xc5;" horiz-adv-x="1536" 
d="M769 1535c-127 0 -206 64 -206 166s79 165 206 165s206 -63 206 -165s-79 -166 -206 -166zM769 1614c72 0 112 33 112 87c0 53 -40 86 -112 86s-112 -33 -112 -86c0 -54 40 -87 112 -87zM220 0h-153l610 1400h183l609 -1400h-161l-153 349h-781zM591 867l-178 -409h702
l-172 408c-57 136 -103 250 -162 413h-31c-57 -163 -101 -278 -159 -412z" />
    <glyph glyph-name="Atilde" unicode="&#xc3;" horiz-adv-x="1536" 
d="M973 1556c-152 0 -304 128 -406 128c-61 0 -85 -34 -88 -123h-99c1 147 62 216 184 216c160 0 313 -128 408 -128c60 0 84 34 87 123h98c-1 -146 -61 -216 -184 -216zM220 0h-153l610 1400h183l609 -1400h-161l-153 349h-781zM591 867l-178 -409h702l-172 408
c-57 136 -103 250 -162 413h-31c-57 -163 -101 -278 -159 -412z" />
    <glyph glyph-name="AE" unicode="&#xc6;" horiz-adv-x="2227" 
d="M221 0h-162l910 1400h1115v-111h-882v-482h832v-108h-832v-588h903v-111h-1052v351h-604zM909 1080l-400 -621h544v837h-35c-29 -75 -65 -146 -109 -216z" />
    <glyph glyph-name="AEacute" unicode="&#x1fc;" horiz-adv-x="2227" 
d="M1132 1535h-121l177 224h188zM221 0h-162l910 1400h1115v-111h-882v-482h832v-108h-832v-588h903v-111h-1052v351h-604zM909 1080l-400 -621h544v837h-35c-29 -75 -65 -146 -109 -216z" />
    <glyph glyph-name="Cacute" unicode="&#x106;" horiz-adv-x="1851" 
d="M996 1535h-121l177 224h188zM941 -21c-493 0 -764 254 -764 718v4c0 465 269 720 760 720c433 0 687 -187 717 -467l-152 -45c-12 250 -196 401 -565 401c-407 0 -603 -199 -603 -608v-6c0 -407 198 -606 607 -606c372 0 561 147 578 388l155 -42
c-35 -274 -294 -457 -733 -457z" />
    <glyph glyph-name="Ccaron" unicode="&#x10c;" horiz-adv-x="1851" 
d="M1151 1759h139l-276 -224h-154l-276 224h139l214 -134zM941 -21c-493 0 -764 254 -764 718v4c0 465 269 720 760 720c433 0 687 -187 717 -467l-152 -45c-12 250 -196 401 -565 401c-407 0 -603 -199 -603 -608v-6c0 -407 198 -606 607 -606c372 0 561 147 578 388
l155 -42c-35 -274 -294 -457 -733 -457z" />
    <glyph glyph-name="Ccedilla" unicode="&#xc7;" horiz-adv-x="1851" 
d="M1519 478l155 -42c-34 -267 -280 -447 -698 -457l-10 -80c177 -16 270 -55 270 -152c0 -88 -79 -138 -222 -138c-90 0 -177 16 -248 45l15 84c67 -29 148 -46 226 -46c84 0 130 24 130 64c0 55 -97 73 -266 83l16 141c-459 18 -710 270 -710 717v4c0 465 269 720 760 720
c433 0 687 -187 717 -467l-152 -45c-12 250 -196 401 -565 401c-407 0 -603 -199 -603 -608v-6c0 -407 198 -606 607 -606c372 0 561 147 578 388z" />
    <glyph glyph-name="Cdotaccent" unicode="&#x10a;" horiz-adv-x="1851" 
d="M1021 1556h-169v161h169v-161zM941 -21c-493 0 -764 254 -764 718v4c0 465 269 720 760 720c433 0 687 -187 717 -467l-152 -45c-12 250 -196 401 -565 401c-407 0 -603 -199 -603 -608v-6c0 -407 198 -606 607 -606c372 0 561 147 578 388l155 -42
c-35 -274 -294 -457 -733 -457z" />
    <glyph glyph-name="Eth" unicode="&#xd0;" horiz-adv-x="1609" 
d="M114 1400h658c427 0 660 -248 660 -699v-4c0 -450 -233 -697 -660 -697h-658v698h-158v107h158v595zM1275 696v6c0 399 -165 587 -508 587h-503v-484h466v-107h-466v-587h503c343 0 508 188 508 585z" />
    <glyph glyph-name="Dcaron" unicode="&#x10e;" horiz-adv-x="1730" 
d="M1049 1759h139l-276 -224h-154l-276 224h139l214 -134zM893 0h-658v1400h658c427 0 660 -248 660 -699v-4c0 -450 -233 -697 -660 -697zM385 1289v-1178h503c343 0 509 188 509 585v6c0 399 -166 587 -509 587h-503z" />
    <glyph glyph-name="Dcroat" unicode="&#x110;" horiz-adv-x="1609" 
d="M114 1400h658c427 0 660 -248 660 -699v-4c0 -450 -233 -697 -660 -697h-658v698h-158v107h158v595zM1275 696v6c0 399 -165 587 -508 587h-503v-484h466v-107h-466v-587h503c343 0 508 188 508 585z" />
    <glyph glyph-name="Eacute" unicode="&#xc9;" horiz-adv-x="1509" 
d="M870 1535h-121l177 224h188zM1387 0h-1152v1400h1131v-111h-981v-480h931v-109h-931v-589h1002v-111z" />
    <glyph glyph-name="Ecaron" unicode="&#x11a;" horiz-adv-x="1509" 
d="M1025 1759h139l-276 -224h-154l-276 224h139l214 -134zM1387 0h-1152v1400h1131v-111h-981v-480h931v-109h-931v-589h1002v-111z" />
    <glyph glyph-name="Ecircumflex" unicode="&#xca;" horiz-adv-x="1509" 
d="M596 1535h-139l276 224h154l276 -224h-139l-214 134zM1387 0h-1152v1400h1131v-111h-981v-480h931v-109h-931v-589h1002v-111z" />
    <glyph glyph-name="Edieresis" unicode="&#xcb;" horiz-adv-x="1509" 
d="M671 1556h-175v161h175v-161zM1126 1556h-175v161h175v-161zM1387 0h-1152v1400h1131v-111h-981v-480h931v-109h-931v-589h1002v-111z" />
    <glyph glyph-name="Edotaccent" unicode="&#x116;" horiz-adv-x="1509" 
d="M896 1556h-169v161h169v-161zM1387 0h-1152v1400h1131v-111h-981v-480h931v-109h-931v-589h1002v-111z" />
    <glyph glyph-name="Egrave" unicode="&#xc8;" horiz-adv-x="1509" 
d="M874 1535h-121l-244 224h188zM1387 0h-1152v1400h1131v-111h-981v-480h931v-109h-931v-589h1002v-111z" />
    <glyph glyph-name="Emacron" unicode="&#x112;" horiz-adv-x="1509" 
d="M1241 1557h-860v96h860v-96zM1387 0h-1152v1400h1131v-111h-981v-480h931v-109h-931v-589h1002v-111z" />
    <glyph glyph-name="Eogonek" unicode="&#x118;" horiz-adv-x="1509" 
d="M385 700v-589h1002v-111h-7c-104 -40 -158 -87 -158 -139c0 -38 31 -58 86 -58c23 0 45 4 63 9l-24 -91c-24 -8 -53 -12 -82 -12c-103 0 -159 42 -159 117c0 64 42 126 154 174h-1025v1400h1131v-111h-981v-480h931v-109h-931z" />
    <glyph glyph-name="uni1EBC" unicode="&#x1ebc;" horiz-adv-x="1509" 
d="M1015 1556c-152 0 -304 128 -406 128c-61 0 -85 -34 -88 -123h-99c1 147 62 216 184 216c160 0 313 -128 408 -128c60 0 84 34 87 123h98c-1 -146 -61 -216 -184 -216zM1387 0h-1152v1400h1131v-111h-981v-480h931v-109h-931v-589h1002v-111z" />
    <glyph glyph-name="Gbreve" unicode="&#x11e;" horiz-adv-x="1894" 
d="M946 1541c-210 0 -324 83 -329 238h107c4 -95 82 -147 222 -147c139 0 217 52 221 147h107c-5 -155 -119 -238 -328 -238zM894 -21c-463 0 -717 255 -717 719v4c0 464 272 719 769 719c419 0 669 -157 706 -438l-151 -46c-16 251 -197 373 -555 373
c-413 0 -612 -198 -612 -607v-6c0 -408 189 -607 579 -607c375 0 557 187 611 475h-493v108h638v-673h-148c0 92 11 172 67 431l-33 8c-81 -314 -342 -460 -661 -460z" />
    <glyph glyph-name="Gcaron" unicode="&#x1e6;" horiz-adv-x="1894" 
d="M1160 1759h139l-276 -224h-154l-276 224h139l214 -134zM894 -21c-463 0 -717 255 -717 719v4c0 464 272 719 769 719c419 0 669 -157 706 -438l-151 -46c-16 251 -197 373 -555 373c-413 0 -612 -198 -612 -607v-6c0 -408 189 -607 579 -607c375 0 557 187 611 475h-493
v108h638v-673h-148c0 92 11 172 67 431l-33 8c-81 -314 -342 -460 -661 -460z" />
    <glyph glyph-name="uni0122" unicode="&#x122;" horiz-adv-x="1894" 
d="M894 -21c-463 0 -717 255 -717 719v4c0 464 272 719 769 719c419 0 669 -157 706 -438l-151 -46c-16 251 -197 373 -555 373c-413 0 -612 -198 -612 -607v-6c0 -408 189 -607 579 -607c375 0 557 187 611 475h-493v108h638v-673h-148c0 92 11 172 67 431l-33 8
c-81 -314 -342 -460 -661 -460zM863 -411l-9 55c72 4 94 32 94 99h-93v138h181v-112c0 -119 -40 -168 -173 -180z" />
    <glyph glyph-name="Gdotaccent" unicode="&#x120;" horiz-adv-x="1894" 
d="M1030 1556h-169v161h169v-161zM894 -21c-463 0 -717 255 -717 719v4c0 464 272 719 769 719c419 0 669 -157 706 -438l-151 -46c-16 251 -197 373 -555 373c-413 0 -612 -198 -612 -607v-6c0 -408 189 -607 579 -607c375 0 557 187 611 475h-493v108h638v-673h-148
c0 92 11 172 67 431l-33 8c-81 -314 -342 -460 -661 -460z" />
    <glyph glyph-name="Hbar" unicode="&#x126;" horiz-adv-x="1437" 
d="M1376 1092h191v-107h-191v-985h-150v568h-1015v-568h-150v985h-191v107h191v308h150v-308h1015v308h150v-308zM211 679h1015v306h-1015v-306z" />
    <glyph glyph-name="Iacute" unicode="&#xcd;" horiz-adv-x="620" 
d="M368 1535h-121l177 224h188zM385 0h-150v1400h150v-1400z" />
    <glyph glyph-name="Icircumflex" unicode="&#xce;" horiz-adv-x="620" 
d="M232 1535h-108l118 224h133l118 -224h-108l-76 137zM385 0h-150v1400h150v-1400z" />
    <glyph glyph-name="Idieresis" unicode="&#xcf;" horiz-adv-x="620" 
d="M265 1555h-156v163h156v-163zM508 1555h-156v163h156v-163zM385 0h-150v1400h150v-1400z" />
    <glyph glyph-name="Idotaccent" unicode="&#x130;" horiz-adv-x="620" 
d="M394 1556h-169v161h169v-161zM385 0h-150v1400h150v-1400z" />
    <glyph glyph-name="Igrave" unicode="&#xcc;" horiz-adv-x="620" 
d="M372 1535h-121l-244 224h188zM385 0h-150v1400h150v-1400z" />
    <glyph glyph-name="Imacron" unicode="&#x12a;" horiz-adv-x="620" 
d="M473 1615h-327v94h327v-94zM385 0h-150v1400h150v-1400z" />
    <glyph glyph-name="Iogonek" unicode="&#x12e;" horiz-adv-x="620" 
d="M235 0v1400h150v-1400h-8c-104 -40 -158 -87 -158 -139c0 -38 31 -58 86 -58c23 0 45 4 63 9l-24 -91c-24 -8 -53 -12 -82 -12c-103 0 -159 42 -159 117c0 64 42 126 154 174h-22z" />
    <glyph glyph-name="Itilde" unicode="&#x128;" horiz-adv-x="620" 
d="M390 1555c-66 0 -114 66 -143 66c-20 0 -30 -24 -26 -68h-76c-7 114 25 168 92 168c60 0 113 -67 142 -67c20 0 30 24 26 69h76c7 -113 -24 -168 -91 -168zM385 0h-150v1400h150v-1400z" />
    <glyph glyph-name="uni004A0301" horiz-adv-x="1445" 
d="M1204 1535h-121l177 224h188zM666 -21c-362 0 -565 201 -579 579l151 34c5 -331 154 -501 428 -501c257 0 404 146 404 430v879h150v-891c0 -343 -198 -530 -554 -530z" />
    <glyph glyph-name="uni0136" unicode="&#x136;" horiz-adv-x="1536" 
d="M385 0h-150v1400h150v-449c0 -91 -8 -158 -33 -248l28 -16l889 713h198l-673 -527l674 -873h-177l-607 787l-299 -231v-556zM732 -411l-9 55c72 4 94 32 94 99h-93v138h181v-112c0 -119 -40 -168 -173 -180z" />
    <glyph glyph-name="Lacute" unicode="&#x139;" horiz-adv-x="1458" 
d="M369 1535h-121l177 224h188zM1345 0h-1110v1400h150v-1289h960v-111z" />
    <glyph glyph-name="Lcaron" unicode="&#x13d;" horiz-adv-x="1458" 
d="M1345 0h-1110v1400h150v-1289h960v-111zM701 1073h-94l15 327h139z" />
    <glyph glyph-name="uni013B" unicode="&#x13b;" horiz-adv-x="1458" 
d="M1345 0h-1110v1400h150v-1289h960v-111zM707 -411l-9 55c72 4 94 32 94 99h-93v138h181v-112c0 -119 -40 -168 -173 -180z" />
    <glyph glyph-name="Ldot" unicode="&#x13f;" horiz-adv-x="1464" 
d="M1345 0h-1110v1400h150v-1289h960v-111zM877 706v188h197v-188h-197z" />
    <glyph glyph-name="Lslash" unicode="&#x141;" horiz-adv-x="1278" 
d="M206 642v-531h960v-111h-1110v576l-221 -98v106l221 98v718h150v-652l501 221v-106z" />
    <glyph glyph-name="Nacute" unicode="&#x143;" horiz-adv-x="1740" 
d="M930 1535h-121l177 224h188zM376 0h-141v1400h173l809 -1025c53 -66 95 -131 141 -209l32 10c-18 106 -26 221 -26 336v888h141v-1400h-168l-804 1018c-56 70 -100 138 -149 226l-33 -9c18 -103 25 -225 25 -336v-899z" />
    <glyph glyph-name="Ncaron" unicode="&#x147;" horiz-adv-x="1740" 
d="M1085 1759h139l-276 -224h-154l-276 224h139l214 -134zM376 0h-141v1400h173l809 -1025c53 -66 95 -131 141 -209l32 10c-18 106 -26 221 -26 336v888h141v-1400h-168l-804 1018c-56 70 -100 138 -149 226l-33 -9c18 -103 25 -225 25 -336v-899z" />
    <glyph glyph-name="uni0145" unicode="&#x145;" horiz-adv-x="1740" 
d="M376 0h-141v1400h173l809 -1025c53 -66 95 -131 141 -209l32 10c-18 106 -26 221 -26 336v888h141v-1400h-168l-804 1018c-56 70 -100 138 -149 226l-33 -9c18 -103 25 -225 25 -336v-899zM788 -411l-9 55c72 4 94 32 94 99h-93v138h181v-112c0 -119 -40 -168 -173 -180z
" />
    <glyph glyph-name="Eng" unicode="&#x14a;" horiz-adv-x="1740" 
d="M958 -370l-29 129l115 4c290 10 321 46 322 238l-832 1017c-57 69 -101 138 -150 226l-33 -9c18 -103 25 -225 25 -336v-899h-141v1400h171l811 -995c54 -67 95 -132 141 -214l32 10c-17 106 -26 221 -26 336v863h141v-1397c0 -228 -111 -339 -547 -373z" />
    <glyph glyph-name="Ntilde" unicode="&#xd1;" horiz-adv-x="1740" 
d="M1075 1556c-152 0 -304 128 -406 128c-61 0 -85 -34 -88 -123h-99c1 147 62 216 184 216c160 0 313 -128 408 -128c60 0 84 34 87 123h98c-1 -146 -61 -216 -184 -216zM376 0h-141v1400h173l809 -1025c53 -66 95 -131 141 -209l32 10c-18 106 -26 221 -26 336v888h141
v-1400h-168l-804 1018c-56 70 -100 138 -149 226l-33 -9c18 -103 25 -225 25 -336v-899z" />
    <glyph glyph-name="Oacute" unicode="&#xd3;" horiz-adv-x="1895" 
d="M1006 1535h-121l177 224h188zM947 -21c-497 0 -770 255 -770 720v4c0 463 273 718 770 718c498 0 770 -255 770 -718v-4c0 -465 -272 -720 -770 -720zM947 90c414 0 614 196 614 609v5c0 411 -200 606 -614 606c-413 0 -613 -195 -613 -606v-5c0 -413 200 -609 613 -609z
" />
    <glyph glyph-name="Ocircumflex" unicode="&#xd4;" horiz-adv-x="1895" 
d="M733 1535h-139l276 224h154l276 -224h-139l-214 134zM947 -21c-497 0 -770 255 -770 720v4c0 463 273 718 770 718c498 0 770 -255 770 -718v-4c0 -465 -272 -720 -770 -720zM947 90c414 0 614 196 614 609v5c0 411 -200 606 -614 606c-413 0 -613 -195 -613 -606v-5
c0 -413 200 -609 613 -609z" />
    <glyph glyph-name="Odieresis" unicode="&#xd6;" horiz-adv-x="1895" 
d="M808 1556h-175v161h175v-161zM1263 1556h-175v161h175v-161zM947 -21c-497 0 -770 255 -770 720v4c0 463 273 718 770 718c498 0 770 -255 770 -718v-4c0 -465 -272 -720 -770 -720zM947 90c414 0 614 196 614 609v5c0 411 -200 606 -614 606c-413 0 -613 -195 -613 -606
v-5c0 -413 200 -609 613 -609z" />
    <glyph glyph-name="Ograve" unicode="&#xd2;" horiz-adv-x="1895" 
d="M1010 1535h-121l-244 224h188zM947 -21c-497 0 -770 255 -770 720v4c0 463 273 718 770 718c498 0 770 -255 770 -718v-4c0 -465 -272 -720 -770 -720zM947 90c414 0 614 196 614 609v5c0 411 -200 606 -614 606c-413 0 -613 -195 -613 -606v-5c0 -413 200 -609 613 -609
z" />
    <glyph glyph-name="Ohungarumlaut" unicode="&#x150;" horiz-adv-x="1895" 
d="M762 1535h-121l177 224h188zM1168 1535h-121l177 224h188zM947 -21c-497 0 -770 255 -770 720v4c0 463 273 718 770 718c498 0 770 -255 770 -718v-4c0 -465 -272 -720 -770 -720zM947 90c414 0 614 196 614 609v5c0 411 -200 606 -614 606c-413 0 -613 -195 -613 -606
v-5c0 -413 200 -609 613 -609z" />
    <glyph glyph-name="Omacron" unicode="&#x14c;" horiz-adv-x="1895" 
d="M1377 1588h-860v95h860v-95zM947 -21c-497 0 -770 255 -770 720v4c0 463 273 718 770 718c498 0 770 -255 770 -718v-4c0 -465 -272 -720 -770 -720zM947 90c414 0 614 196 614 609v5c0 411 -200 606 -614 606c-413 0 -613 -195 -613 -606v-5c0 -413 200 -609 613 -609z
" />
    <glyph glyph-name="uni01EA" unicode="&#x1ea;" horiz-adv-x="1895" 
d="M947 1421c498 0 770 -255 770 -718v-4c0 -398 -199 -642 -568 -704c-95 -39 -145 -84 -145 -134c0 -38 31 -58 86 -58c23 0 45 4 63 9l-24 -91c-24 -8 -53 -12 -82 -12c-103 0 -159 42 -159 117c0 56 31 110 113 154c-18 -1 -36 -1 -54 -1c-497 0 -770 255 -770 720v4
c0 463 273 718 770 718zM1561 699v5c0 411 -200 606 -614 606c-413 0 -613 -195 -613 -606v-5c0 -413 200 -609 613 -609c414 0 614 196 614 609z" />
    <glyph glyph-name="Oslash" unicode="&#xd8;" horiz-adv-x="1897" 
d="M1666 1543l-202 -262c167 -121 255 -317 255 -578v-4c0 -463 -275 -720 -771 -720c-166 0 -307 29 -421 84l-159 -206h-138l202 263c-166 121 -255 317 -255 579v4c0 461 276 718 771 718c166 0 307 -29 421 -84l159 206h138zM332 704v-5c0 -221 58 -380 176 -481
l788 1024c-92 46 -208 68 -348 68c-414 0 -616 -195 -616 -606zM1565 699v5c0 221 -58 379 -177 479l-788 -1025c92 -45 208 -68 348 -68c415 0 617 197 617 609z" />
    <glyph glyph-name="Oslashacute" unicode="&#x1fe;" horiz-adv-x="1897" 
d="M1063 1759h188l-244 -224h-121zM1666 1543l-202 -262c167 -121 255 -317 255 -578v-4c0 -463 -275 -720 -771 -720c-166 0 -307 29 -421 84l-159 -206h-138l202 263c-166 121 -255 317 -255 579v4c0 461 276 718 771 718c166 0 307 -29 421 -84l159 206h138zM332 704v-5
c0 -221 58 -380 176 -481l788 1024c-92 46 -208 68 -348 68c-414 0 -616 -195 -616 -606zM1565 699v5c0 221 -58 379 -177 479l-788 -1025c92 -45 208 -68 348 -68c415 0 617 197 617 609z" />
    <glyph glyph-name="Otilde" unicode="&#xd5;" horiz-adv-x="1895" 
d="M1151 1556c-152 0 -304 128 -406 128c-61 0 -85 -34 -88 -123h-99c1 147 62 216 184 216c160 0 313 -128 408 -128c60 0 84 34 87 123h98c-1 -146 -61 -216 -184 -216zM947 -21c-497 0 -770 255 -770 720v4c0 463 273 718 770 718c498 0 770 -255 770 -718v-4
c0 -465 -272 -720 -770 -720zM947 90c414 0 614 196 614 609v5c0 411 -200 606 -614 606c-413 0 -613 -195 -613 -606v-5c0 -413 200 -609 613 -609z" />
    <glyph glyph-name="OE" unicode="&#x152;" horiz-adv-x="2827" 
d="M932 -21c-485 0 -755 257 -755 720v4c0 461 270 718 755 718c316 0 527 -108 634 -311v290h1118v-111h-973v-480h923v-109h-923v-589h994v-111h-1139v292c-107 -204 -318 -313 -634 -313zM947 90c414 0 614 196 614 609v5c0 411 -200 606 -614 606
c-413 0 -613 -195 -613 -606v-5c0 -413 200 -609 613 -609z" />
    <glyph glyph-name="Thorn" unicode="&#xde;" horiz-adv-x="1559" 
d="M385 0h-150v1400h150v-258h582c314 0 487 -153 487 -425c0 -270 -173 -423 -487 -423h-582v-294zM385 1033v-630h562c236 0 352 104 352 314c0 211 -116 316 -352 316h-562z" />
    <glyph glyph-name="Racute" unicode="&#x154;" horiz-adv-x="1649" 
d="M851 1535h-121l177 224h188zM385 0h-150v1400h783c283 0 440 -133 440 -368c0 -204 -131 -321 -362 -326v-28c121 -20 162 -96 220 -236l57 -139c58 -140 126 -245 184 -272l-2 -31h-193c-42 60 -80 141 -131 279l-50 139c-50 138 -94 238 -295 238h-501v-656zM385 1291
v-527h587c221 0 331 88 331 264s-104 263 -313 263h-605z" />
    <glyph glyph-name="Rcaron" unicode="&#x158;" horiz-adv-x="1649" 
d="M1006 1759h139l-276 -224h-154l-276 224h139l214 -134zM385 0h-150v1400h783c283 0 440 -133 440 -368c0 -204 -131 -321 -362 -326v-28c121 -20 162 -96 220 -236l57 -139c58 -140 126 -245 184 -272l-2 -31h-193c-42 60 -80 141 -131 279l-50 139
c-50 138 -94 238 -295 238h-501v-656zM385 1291v-527h587c221 0 331 88 331 264s-104 263 -313 263h-605z" />
    <glyph glyph-name="uni0156" unicode="&#x156;" horiz-adv-x="1649" 
d="M385 0h-150v1400h783c283 0 440 -133 440 -368c0 -204 -131 -321 -362 -326v-28c121 -20 162 -96 220 -236l57 -139c58 -140 126 -245 184 -272l-2 -31h-193c-42 60 -80 141 -131 279l-50 139c-50 138 -94 238 -295 238h-501v-656zM385 1291v-527h587
c221 0 331 88 331 264s-104 263 -313 263h-605zM767 -411l-9 55c72 4 94 32 94 99h-93v138h181v-112c0 -119 -40 -168 -173 -180z" />
    <glyph glyph-name="Sacute" unicode="&#x15a;" horiz-adv-x="1657" 
d="M879 1535h-121l177 224h188zM852 -21c-444 0 -676 133 -709 408l153 47c14 -232 197 -345 560 -345c307 0 476 92 476 259c0 146 -85 206 -391 275l-301 68c-304 69 -425 163 -425 348c0 247 213 382 591 382c412 0 622 -138 643 -421l-145 -47
c-11 242 -174 358 -499 358c-288 0 -446 -91 -446 -258c0 -106 43 -171 346 -239l302 -69c305 -69 473 -153 473 -374c0 -252 -227 -392 -628 -392z" />
    <glyph glyph-name="Scaron" unicode="&#x160;" horiz-adv-x="1657" 
d="M1034 1759h139l-276 -224h-154l-276 224h139l214 -134zM852 -21c-444 0 -676 133 -709 408l153 47c14 -232 197 -345 560 -345c307 0 476 92 476 259c0 146 -85 206 -391 275l-301 68c-304 69 -425 163 -425 348c0 247 213 382 591 382c412 0 622 -138 643 -421l-145 -47
c-11 242 -174 358 -499 358c-288 0 -446 -91 -446 -258c0 -106 43 -171 346 -239l302 -69c305 -69 473 -153 473 -374c0 -252 -227 -392 -628 -392z" />
    <glyph glyph-name="Scedilla" unicode="&#x15e;" horiz-adv-x="1657" 
d="M1480 371c0 -250 -224 -390 -620 -392l-10 -80c177 -16 270 -55 270 -152c0 -88 -79 -138 -222 -138c-90 0 -177 16 -248 45l15 84c67 -29 148 -46 226 -46c84 0 130 24 130 64c0 55 -97 73 -266 83l17 142c-392 15 -598 148 -629 406l153 47c14 -232 197 -345 560 -345
c307 0 476 92 476 259c0 146 -85 206 -391 275l-301 68c-304 69 -425 163 -425 348c0 247 213 382 591 382c412 0 622 -138 643 -421l-145 -47c-11 242 -174 358 -499 358c-288 0 -446 -91 -446 -258c0 -106 43 -171 346 -239l302 -69c305 -69 473 -153 473 -374z" />
    <glyph glyph-name="uni0218" unicode="&#x218;" horiz-adv-x="1657" 
d="M852 -21c-444 0 -676 133 -709 408l153 47c14 -232 197 -345 560 -345c307 0 476 92 476 259c0 146 -85 206 -391 275l-301 68c-304 69 -425 163 -425 348c0 247 213 382 591 382c412 0 622 -138 643 -421l-145 -47c-11 242 -174 358 -499 358c-288 0 -446 -91 -446 -258
c0 -106 43 -171 346 -239l302 -69c305 -69 473 -153 473 -374c0 -252 -227 -392 -628 -392zM738 -411l-9 55c72 4 94 32 94 99h-93v138h181v-112c0 -119 -40 -168 -173 -180z" />
    <glyph glyph-name="uni1E9E" unicode="&#x1e9e;" horiz-adv-x="1626" 
d="M1067 -19c-253 0 -415 106 -455 291l92 81c27 -164 157 -261 364 -261c165 0 259 57 259 157c0 91 -84 136 -223 190l-139 54c-140 55 -282 119 -282 260c0 289 563 189 563 389c0 107 -127 168 -398 168c-328 0 -483 -118 -483 -349v-961h-150v958
c0 299 207 463 622 463c371 0 550 -102 550 -280c0 -281 -556 -190 -556 -373c0 -75 90 -112 225 -162l135 -51c135 -51 278 -117 278 -292c0 -180 -148 -282 -402 -282z" />
    <glyph glyph-name="Tbar" unicode="&#x166;" horiz-adv-x="1421" 
d="M1363 1400v-111h-578v-490h386v-107h-386v-692h-150v692h-385v107h385v490h-577v111h1305z" />
    <glyph glyph-name="Tcaron" unicode="&#x164;" horiz-adv-x="1421" 
d="M925 1759h139l-276 -224h-154l-276 224h139l214 -134zM785 0h-150v1289h-577v111h1305v-111h-578v-1289z" />
    <glyph glyph-name="uni0162" unicode="&#x162;" horiz-adv-x="1421" 
d="M785 1289v-1289h-31l-13 -101c177 -16 270 -55 270 -152c0 -88 -79 -138 -222 -138c-90 0 -177 16 -248 45l15 84c67 -29 148 -46 226 -46c84 0 130 24 130 64c0 55 -97 73 -266 83l19 161h-30v1289h-577v111h1305v-111h-578z" />
    <glyph glyph-name="uni021A" unicode="&#x21a;" horiz-adv-x="1421" 
d="M785 0h-150v1289h-577v111h1305v-111h-578v-1289zM629 -411l-9 55c72 4 94 32 94 99h-93v138h181v-112c0 -119 -40 -168 -173 -180z" />
    <glyph glyph-name="Uacute" unicode="&#xda;" horiz-adv-x="1752" 
d="M935 1535h-121l177 224h188zM876 -21c-457 0 -651 170 -651 580v841h150v-828c0 -342 148 -482 501 -482s501 140 501 482v828h150v-841c0 -410 -194 -580 -651 -580z" />
    <glyph glyph-name="Ubreve" unicode="&#x16c;" horiz-adv-x="1752" 
d="M876 1541c-210 0 -324 83 -329 238h107c4 -95 82 -147 222 -147c139 0 217 52 221 147h107c-5 -155 -119 -238 -328 -238zM876 -21c-457 0 -651 170 -651 580v841h150v-828c0 -342 148 -482 501 -482s501 140 501 482v828h150v-841c0 -410 -194 -580 -651 -580z" />
    <glyph glyph-name="Ucircumflex" unicode="&#xdb;" horiz-adv-x="1752" 
d="M661 1535h-139l276 224h154l276 -224h-139l-214 134zM876 -21c-457 0 -651 170 -651 580v841h150v-828c0 -342 148 -482 501 -482s501 140 501 482v828h150v-841c0 -410 -194 -580 -651 -580z" />
    <glyph glyph-name="Udieresis" unicode="&#xdc;" horiz-adv-x="1752" 
d="M736 1556h-175v161h175v-161zM1191 1556h-175v161h175v-161zM876 -21c-457 0 -651 170 -651 580v841h150v-828c0 -342 148 -482 501 -482s501 140 501 482v828h150v-841c0 -410 -194 -580 -651 -580z" />
    <glyph glyph-name="Ugrave" unicode="&#xd9;" horiz-adv-x="1752" 
d="M938 1535h-121l-244 224h188zM876 -21c-457 0 -651 170 -651 580v841h150v-828c0 -342 148 -482 501 -482s501 140 501 482v828h150v-841c0 -410 -194 -580 -651 -580z" />
    <glyph glyph-name="Uhungarumlaut" unicode="&#x170;" horiz-adv-x="1752" 
d="M690 1535h-121l177 224h188zM1096 1535h-121l177 224h188zM876 -21c-457 0 -651 170 -651 580v841h150v-828c0 -342 148 -482 501 -482s501 140 501 482v828h150v-841c0 -410 -194 -580 -651 -580z" />
    <glyph glyph-name="Umacron" unicode="&#x16a;" horiz-adv-x="1752" 
d="M1305 1588h-860v95h860v-95zM876 -21c-457 0 -651 170 -651 580v841h150v-828c0 -342 148 -482 501 -482s501 140 501 482v828h150v-841c0 -410 -194 -580 -651 -580z" />
    <glyph glyph-name="Uogonek" unicode="&#x172;" horiz-adv-x="1752" 
d="M1377 572v828h150v-841c0 -338 -132 -513 -435 -564c-95 -39 -145 -84 -145 -134c0 -38 31 -58 86 -58c23 0 45 4 63 9l-24 -91c-24 -8 -53 -12 -82 -12c-103 0 -159 42 -159 117c0 56 32 110 113 154c-22 -1 -45 -1 -68 -1c-457 0 -651 170 -651 580v841h150v-828
c0 -342 148 -482 501 -482s501 140 501 482z" />
    <glyph glyph-name="Uring" unicode="&#x16e;" horiz-adv-x="1752" 
d="M876 1535c-127 0 -206 64 -206 166s79 165 206 165s206 -63 206 -165s-79 -166 -206 -166zM876 1614c72 0 112 33 112 87c0 53 -40 86 -112 86s-112 -33 -112 -86c0 -54 40 -87 112 -87zM876 -21c-457 0 -651 170 -651 580v841h150v-828c0 -342 148 -482 501 -482
s501 140 501 482v828h150v-841c0 -410 -194 -580 -651 -580z" />
    <glyph glyph-name="Utilde" unicode="&#x168;" horiz-adv-x="1752" 
d="M1080 1556c-152 0 -304 128 -406 128c-61 0 -85 -34 -88 -123h-99c1 147 62 216 184 216c160 0 313 -128 408 -128c60 0 84 34 87 123h98c-1 -146 -61 -216 -184 -216zM876 -21c-457 0 -651 170 -651 580v841h150v-828c0 -342 148 -482 501 -482s501 140 501 482v828h150
v-841c0 -410 -194 -580 -651 -580z" />
    <glyph glyph-name="Wacute" unicode="&#x1e82;" horiz-adv-x="2170" 
d="M1144 1535h-121l177 224h188zM708 0h-162l-479 1400h155l280 -834c37 -113 87 -295 115 -423h32c25 125 71 307 107 423l259 834h143l262 -834c38 -121 84 -301 107 -420h32c28 126 78 306 115 420l280 834h149l-478 -1400h-163l-275 884c-34 108 -70 262 -86 358h-32
c-15 -93 -52 -247 -86 -358z" />
    <glyph glyph-name="Wcircumflex" unicode="&#x174;" horiz-adv-x="2170" 
d="M870 1535h-139l276 224h154l276 -224h-139l-214 134zM708 0h-162l-479 1400h155l280 -834c37 -113 87 -295 115 -423h32c25 125 71 307 107 423l259 834h143l262 -834c38 -121 84 -301 107 -420h32c28 126 78 306 115 420l280 834h149l-478 -1400h-163l-275 884
c-34 108 -70 262 -86 358h-32c-15 -93 -52 -247 -86 -358z" />
    <glyph glyph-name="Wdieresis" unicode="&#x1e84;" horiz-adv-x="2170" 
d="M945 1556h-175v161h175v-161zM1400 1556h-175v161h175v-161zM708 0h-162l-479 1400h155l280 -834c37 -113 87 -295 115 -423h32c25 125 71 307 107 423l259 834h143l262 -834c38 -121 84 -301 107 -420h32c28 126 78 306 115 420l280 834h149l-478 -1400h-163l-275 884
c-34 108 -70 262 -86 358h-32c-15 -93 -52 -247 -86 -358z" />
    <glyph glyph-name="Wgrave" unicode="&#x1e80;" horiz-adv-x="2170" 
d="M1147 1535h-121l-244 224h188zM708 0h-162l-479 1400h155l280 -834c37 -113 87 -295 115 -423h32c25 125 71 307 107 423l259 834h143l262 -834c38 -121 84 -301 107 -420h32c28 126 78 306 115 420l280 834h149l-478 -1400h-163l-275 884c-34 108 -70 262 -86 358h-32
c-15 -93 -52 -247 -86 -358z" />
    <glyph glyph-name="Yacute" unicode="&#xdd;" horiz-adv-x="1477" 
d="M798 1535h-121l177 224h188zM813 0h-150v513l-596 887h168l321 -481c62 -95 109 -171 172 -293h29c60 124 105 198 168 294l320 480h165l-597 -887v-513z" />
    <glyph glyph-name="Ycircumflex" unicode="&#x176;" horiz-adv-x="1477" 
d="M524 1535h-139l276 224h154l276 -224h-139l-214 134zM813 0h-150v513l-596 887h168l321 -481c62 -95 109 -171 172 -293h29c60 124 105 198 168 294l320 480h165l-597 -887v-513z" />
    <glyph glyph-name="Ydieresis" unicode="&#x178;" horiz-adv-x="1477" 
d="M599 1556h-175v161h175v-161zM1054 1556h-175v161h175v-161zM813 0h-150v513l-596 887h168l321 -481c62 -95 109 -171 172 -293h29c60 124 105 198 168 294l320 480h165l-597 -887v-513z" />
    <glyph glyph-name="Ygrave" unicode="&#x1ef2;" horiz-adv-x="1477" 
d="M801 1535h-121l-244 224h188zM813 0h-150v513l-596 887h168l321 -481c62 -95 109 -171 172 -293h29c60 124 105 198 168 294l320 480h165l-597 -887v-513z" />
    <glyph glyph-name="uni1EF8" unicode="&#x1ef8;" horiz-adv-x="1477" 
d="M943 1556c-152 0 -304 128 -406 128c-61 0 -85 -34 -88 -123h-99c1 147 62 216 184 216c160 0 313 -128 408 -128c60 0 84 34 87 123h98c-1 -146 -61 -216 -184 -216zM813 0h-150v513l-596 887h168l321 -481c62 -95 109 -171 172 -293h29c60 124 105 198 168 294l320 480
h165l-597 -887v-513z" />
    <glyph glyph-name="Zacute" unicode="&#x179;" horiz-adv-x="1455" 
d="M782 1535h-121l177 224h188zM1351 0h-1247v89l865 1014c45 53 103 113 155 152l-14 38c-55 -4 -98 -4 -161 -4h-835v111h1208v-89l-842 -992c-45 -52 -107 -119 -172 -173l11 -38c37 2 79 3 117 3h915v-111z" />
    <glyph glyph-name="Zcaron" unicode="&#x17d;" horiz-adv-x="1455" 
d="M937 1759h139l-276 -224h-154l-276 224h139l214 -134zM1351 0h-1247v89l865 1014c45 53 103 113 155 152l-14 38c-55 -4 -98 -4 -161 -4h-835v111h1208v-89l-842 -992c-45 -52 -107 -119 -172 -173l11 -38c37 2 79 3 117 3h915v-111z" />
    <glyph glyph-name="Zdotaccent" unicode="&#x17b;" horiz-adv-x="1455" 
d="M807 1556h-169v161h169v-161zM1351 0h-1247v89l865 1014c45 53 103 113 155 152l-14 38c-55 -4 -98 -4 -161 -4h-835v111h1208v-89l-842 -992c-45 -52 -107 -119 -172 -173l11 -38c37 2 79 3 117 3h915v-111z" />
    <glyph glyph-name="aacute" unicode="&#xe1;" horiz-adv-x="1502" 
d="M796 1187h-116l157 243h178zM516 -21c-240 0 -376 89 -376 251c0 195 155 282 584 344l396 58v79c0 174 -126 261 -388 261c-272 0 -430 -101 -435 -264l-138 35c19 199 213 328 573 328c361 0 533 -117 533 -362v-529c0 -88 22 -92 91 -92h70l-31 -107
c-10 -1 -19 -2 -30 -2c-229 2 -261 75 -204 301l-33 9c-81 -182 -330 -310 -612 -310zM567 82c286 0 553 163 553 407v47l-353 -51c-371 -54 -475 -105 -475 -243c0 -103 97 -160 275 -160z" />
    <glyph glyph-name="abreve" unicode="&#x103;" horiz-adv-x="1502" 
d="M742 1173c-207 0 -312 91 -317 257h102c4 -106 73 -165 215 -165s211 59 215 165h102c-5 -166 -110 -257 -317 -257zM516 -21c-240 0 -376 89 -376 251c0 195 155 282 584 344l396 58v79c0 174 -126 261 -388 261c-272 0 -430 -101 -435 -264l-138 35
c19 199 213 328 573 328c361 0 533 -117 533 -362v-529c0 -88 22 -92 91 -92h70l-31 -107c-10 -1 -19 -2 -30 -2c-229 2 -261 75 -204 301l-33 9c-81 -182 -330 -310 -612 -310zM567 82c286 0 553 163 553 407v47l-353 -51c-371 -54 -475 -105 -475 -243
c0 -103 97 -160 275 -160z" />
    <glyph glyph-name="acircumflex" unicode="&#xe2;" horiz-adv-x="1502" 
d="M534 1187h-131l262 243h154l261 -243h-131l-207 152zM516 -21c-240 0 -376 89 -376 251c0 195 155 282 584 344l396 58v79c0 174 -126 261 -388 261c-272 0 -430 -101 -435 -264l-138 35c19 199 213 328 573 328c361 0 533 -117 533 -362v-529c0 -88 22 -92 91 -92h70
l-31 -107c-10 -1 -19 -2 -30 -2c-229 2 -261 75 -204 301l-33 9c-81 -182 -330 -310 -612 -310zM567 82c286 0 553 163 553 407v47l-353 -51c-371 -54 -475 -105 -475 -243c0 -103 97 -160 275 -160z" />
    <glyph glyph-name="adieresis" unicode="&#xe4;" horiz-adv-x="1502" 
d="M602 1241h-175v162h175v-162zM1057 1241h-175v162h175v-162zM516 -21c-240 0 -376 89 -376 251c0 195 155 282 584 344l396 58v79c0 174 -126 261 -388 261c-272 0 -430 -101 -435 -264l-138 35c19 199 213 328 573 328c361 0 533 -117 533 -362v-529
c0 -88 22 -92 91 -92h70l-31 -107c-10 -1 -19 -2 -30 -2c-229 2 -261 75 -204 301l-33 9c-81 -182 -330 -310 -612 -310zM567 82c286 0 553 163 553 407v47l-353 -51c-371 -54 -475 -105 -475 -243c0 -103 97 -160 275 -160z" />
    <glyph glyph-name="agrave" unicode="&#xe0;" horiz-adv-x="1502" 
d="M804 1187h-117l-218 243h178zM516 -21c-240 0 -376 89 -376 251c0 195 155 282 584 344l396 58v79c0 174 -126 261 -388 261c-272 0 -430 -101 -435 -264l-138 35c19 199 213 328 573 328c361 0 533 -117 533 -362v-529c0 -88 22 -92 91 -92h70l-31 -107
c-10 -1 -19 -2 -30 -2c-229 2 -261 75 -204 301l-33 9c-81 -182 -330 -310 -612 -310zM567 82c286 0 553 163 553 407v47l-353 -51c-371 -54 -475 -105 -475 -243c0 -103 97 -160 275 -160z" />
    <glyph glyph-name="amacron" unicode="&#x101;" horiz-adv-x="1502" 
d="M1171 1238h-860v95h860v-95zM516 -21c-240 0 -376 89 -376 251c0 195 155 282 584 344l396 58v79c0 174 -126 261 -388 261c-272 0 -430 -101 -435 -264l-138 35c19 199 213 328 573 328c361 0 533 -117 533 -362v-529c0 -88 22 -92 91 -92h70l-31 -107
c-10 -1 -19 -2 -30 -2c-229 2 -261 75 -204 301l-33 9c-81 -182 -330 -310 -612 -310zM567 82c286 0 553 163 553 407v47l-353 -51c-371 -54 -475 -105 -475 -243c0 -103 97 -160 275 -160z" />
    <glyph glyph-name="aogonek" unicode="&#x105;" horiz-adv-x="1502" 
d="M1356 88h70l-31 -107c-10 -1 -19 -2 -30 -2c-24 0 -46 1 -66 3c-77 -36 -116 -77 -116 -121c0 -38 31 -58 86 -58c23 0 45 4 63 9l-24 -91c-24 -8 -53 -12 -82 -12c-103 0 -159 42 -159 117c0 64 41 125 151 173c-93 34 -98 118 -57 281l-33 9
c-81 -182 -330 -310 -612 -310c-240 0 -376 89 -376 251c0 195 155 282 584 344l396 58v79c0 174 -126 261 -388 261c-272 0 -430 -101 -435 -264l-138 35c19 199 213 328 573 328c361 0 533 -117 533 -362v-529c0 -88 22 -92 91 -92zM1120 489v47l-353 -51
c-371 -54 -475 -105 -475 -243c0 -103 97 -160 275 -160c286 0 553 163 553 407z" />
    <glyph glyph-name="aring" unicode="&#xe5;" horiz-adv-x="1502" 
d="M742 1162c-119 0 -204 83 -204 199s85 198 204 198s204 -82 204 -198s-85 -199 -204 -199zM742 1243c69 0 118 49 118 118s-49 118 -118 118s-118 -49 -118 -118s49 -118 118 -118zM516 -21c-240 0 -376 89 -376 251c0 195 155 282 584 344l396 58v79
c0 174 -126 261 -388 261c-272 0 -430 -101 -435 -264l-138 35c19 199 213 328 573 328c361 0 533 -117 533 -362v-529c0 -88 22 -92 91 -92h70l-31 -107c-10 -1 -19 -2 -30 -2c-229 2 -261 75 -204 301l-33 9c-81 -182 -330 -310 -612 -310zM567 82c286 0 553 163 553 407
v47l-353 -51c-371 -54 -475 -105 -475 -243c0 -103 97 -160 275 -160z" />
    <glyph glyph-name="atilde" unicode="&#xe3;" horiz-adv-x="1502" 
d="M922 1219c-135 0 -260 130 -354 130c-63 0 -96 -30 -99 -125h-98c1 150 71 219 190 219c141 0 269 -130 355 -130c63 0 96 30 98 125h98c-1 -150 -72 -219 -190 -219zM516 -21c-240 0 -376 89 -376 251c0 195 155 282 584 344l396 58v79c0 174 -126 261 -388 261
c-272 0 -430 -101 -435 -264l-138 35c19 199 213 328 573 328c361 0 533 -117 533 -362v-529c0 -88 22 -92 91 -92h70l-31 -107c-10 -1 -19 -2 -30 -2c-229 2 -261 75 -204 301l-33 9c-81 -182 -330 -310 -612 -310zM567 82c286 0 553 163 553 407v47l-353 -51
c-371 -54 -475 -105 -475 -243c0 -103 97 -160 275 -160z" />
    <glyph glyph-name="ae" unicode="&#xe6;" horiz-adv-x="2567" 
d="M2260 316l148 -33c-86 -184 -302 -304 -630 -304c-313 0 -523 132 -587 360h-35c-92 -249 -358 -360 -640 -360c-240 0 -376 89 -376 251c0 195 155 282 584 344l396 58v70c0 174 -126 270 -388 270c-272 0 -427 -110 -433 -264l-140 35c10 199 213 328 570 328
c306 0 466 -104 489 -312c99 208 286 312 558 312c372 0 616 -202 616 -481c0 -31 -3 -63 -7 -93h-1123c12 -272 215 -417 514 -417c259 0 422 100 484 236zM1776 970c-282 0 -479 -147 -510 -372h979v4c0 210 -189 368 -469 368zM1120 489v47l-353 -51
c-371 -54 -475 -105 -475 -243c0 -103 97 -160 275 -160c286 0 553 163 553 407z" />
    <glyph glyph-name="aeacute" unicode="&#x1fd;" horiz-adv-x="2567" 
d="M1318 1430h178l-219 -243h-116zM2260 316l148 -33c-86 -184 -302 -304 -630 -304c-313 0 -523 132 -587 360h-35c-92 -249 -358 -360 -640 -360c-240 0 -376 89 -376 251c0 195 155 282 584 344l396 58v70c0 174 -126 270 -388 270c-272 0 -427 -110 -433 -264l-140 35
c10 199 213 328 570 328c306 0 466 -104 489 -312c99 208 286 312 558 312c372 0 616 -202 616 -481c0 -31 -3 -63 -7 -93h-1123c12 -272 215 -417 514 -417c259 0 422 100 484 236zM1776 970c-282 0 -479 -147 -510 -372h979v4c0 210 -189 368 -469 368zM1120 489v47
l-353 -51c-371 -54 -475 -105 -475 -243c0 -103 97 -160 275 -160c286 0 553 163 553 407z" />
    <glyph glyph-name="a.ss01" horiz-adv-x="1667" 
d="M773 -20c-397 0 -616 192 -616 543v4c0 348 219 543 616 543c281 0 469 -111 547 -308l32 11c-34 98 -55 199 -56 277h157v-1050h-157c1 78 22 179 56 277l-32 11c-78 -197 -266 -308 -547 -308zM803 83c325 0 505 155 505 439v6c0 280 -180 439 -505 439
c-319 0 -496 -159 -496 -439v-6c0 -284 177 -439 496 -439z" />
    <glyph glyph-name="aacute.ss01" horiz-adv-x="1667" 
d="M877 1187h-116l157 243h178zM773 -20c-397 0 -616 192 -616 543v4c0 348 219 543 616 543c281 0 469 -111 547 -308l32 11c-34 98 -55 199 -56 277h157v-1050h-157c1 78 22 179 56 277l-32 11c-78 -197 -266 -308 -547 -308zM803 83c325 0 505 155 505 439v6
c0 280 -180 439 -505 439c-319 0 -496 -159 -496 -439v-6c0 -284 177 -439 496 -439z" />
    <glyph glyph-name="abreve.ss01" horiz-adv-x="1667" 
d="M823 1173c-207 0 -312 91 -317 257h102c4 -106 73 -165 215 -165s211 59 215 165h102c-5 -166 -110 -257 -317 -257zM773 -20c-397 0 -616 192 -616 543v4c0 348 219 543 616 543c281 0 469 -111 547 -308l32 11c-34 98 -55 199 -56 277h157v-1050h-157
c1 78 22 179 56 277l-32 11c-78 -197 -266 -308 -547 -308zM803 83c325 0 505 155 505 439v6c0 280 -180 439 -505 439c-319 0 -496 -159 -496 -439v-6c0 -284 177 -439 496 -439z" />
    <glyph glyph-name="acircumflex.ss01" horiz-adv-x="1667" 
d="M616 1187h-131l262 243h154l261 -243h-131l-207 152zM773 -20c-397 0 -616 192 -616 543v4c0 348 219 543 616 543c281 0 469 -111 547 -308l32 11c-34 98 -55 199 -56 277h157v-1050h-157c1 78 22 179 56 277l-32 11c-78 -197 -266 -308 -547 -308zM803 83
c325 0 505 155 505 439v6c0 280 -180 439 -505 439c-319 0 -496 -159 -496 -439v-6c0 -284 177 -439 496 -439z" />
    <glyph glyph-name="adieresis.ss01" horiz-adv-x="1667" 
d="M683 1241h-175v162h175v-162zM1138 1241h-175v162h175v-162zM773 -20c-397 0 -616 192 -616 543v4c0 348 219 543 616 543c281 0 469 -111 547 -308l32 11c-34 98 -55 199 -56 277h157v-1050h-157c1 78 22 179 56 277l-32 11c-78 -197 -266 -308 -547 -308zM803 83
c325 0 505 155 505 439v6c0 280 -180 439 -505 439c-319 0 -496 -159 -496 -439v-6c0 -284 177 -439 496 -439z" />
    <glyph glyph-name="agrave.ss01" horiz-adv-x="1667" 
d="M885 1187h-117l-218 243h178zM773 -20c-397 0 -616 192 -616 543v4c0 348 219 543 616 543c281 0 469 -111 547 -308l32 11c-34 98 -55 199 -56 277h157v-1050h-157c1 78 22 179 56 277l-32 11c-78 -197 -266 -308 -547 -308zM803 83c325 0 505 155 505 439v6
c0 280 -180 439 -505 439c-319 0 -496 -159 -496 -439v-6c0 -284 177 -439 496 -439z" />
    <glyph glyph-name="amacron.ss01" horiz-adv-x="1667" 
d="M1252 1238h-860v95h860v-95zM773 -20c-397 0 -616 192 -616 543v4c0 348 219 543 616 543c281 0 469 -111 547 -308l32 11c-34 98 -55 199 -56 277h157v-1050h-157c1 78 22 179 56 277l-32 11c-78 -197 -266 -308 -547 -308zM803 83c325 0 505 155 505 439v6
c0 280 -180 439 -505 439c-319 0 -496 -159 -496 -439v-6c0 -284 177 -439 496 -439z" />
    <glyph glyph-name="aogonek.ss01" horiz-adv-x="1667" 
d="M1296 1050h157v-1050h-8c-104 -40 -158 -87 -158 -139c0 -38 31 -58 86 -58c23 0 45 4 63 9l-24 -91c-24 -8 -53 -12 -82 -12c-103 0 -159 42 -159 117c0 64 42 126 154 174h-29c1 78 22 179 56 277l-32 11c-78 -197 -266 -308 -547 -308c-397 0 -616 192 -616 543v4
c0 348 219 543 616 543c281 0 469 -111 547 -308l32 11c-34 98 -55 199 -56 277zM1308 522v6c0 280 -180 439 -505 439c-319 0 -496 -159 -496 -439v-6c0 -284 177 -439 496 -439c325 0 505 155 505 439z" />
    <glyph glyph-name="aring.ss01" horiz-adv-x="1667" 
d="M823 1162c-119 0 -204 83 -204 199s85 198 204 198s204 -82 204 -198s-85 -199 -204 -199zM823 1243c69 0 118 49 118 118s-49 118 -118 118s-118 -49 -118 -118s49 -118 118 -118zM773 -20c-397 0 -616 192 -616 543v4c0 348 219 543 616 543c281 0 469 -111 547 -308
l32 11c-34 98 -55 199 -56 277h157v-1050h-157c1 78 22 179 56 277l-32 11c-78 -197 -266 -308 -547 -308zM803 83c325 0 505 155 505 439v6c0 280 -180 439 -505 439c-319 0 -496 -159 -496 -439v-6c0 -284 177 -439 496 -439z" />
    <glyph glyph-name="atilde.ss01" horiz-adv-x="1667" 
d="M1003 1219c-135 0 -260 130 -354 130c-63 0 -96 -30 -99 -125h-98c1 150 71 219 190 219c141 0 269 -130 355 -130c63 0 96 30 98 125h98c-1 -150 -72 -219 -190 -219zM773 -20c-397 0 -616 192 -616 543v4c0 348 219 543 616 543c281 0 469 -111 547 -308l32 11
c-34 98 -55 199 -56 277h157v-1050h-157c1 78 22 179 56 277l-32 11c-78 -197 -266 -308 -547 -308zM803 83c325 0 505 155 505 439v6c0 280 -180 439 -505 439c-319 0 -496 -159 -496 -439v-6c0 -284 177 -439 496 -439z" />
    <glyph glyph-name="cacute" unicode="&#x107;" horiz-adv-x="1592" 
d="M859 1187h-116l157 243h178zM808 -21c-420 0 -651 192 -651 543v7c0 350 229 542 647 542c374 0 594 -141 624 -381l-142 -33c-20 194 -191 311 -482 311c-319 0 -496 -156 -496 -439v-7c0 -282 178 -440 500 -440c290 0 453 109 483 278l147 -33
c-48 -216 -262 -348 -630 -348z" />
    <glyph glyph-name="ccaron" unicode="&#x10d;" horiz-adv-x="1592" 
d="M1010 1430h131l-261 -243h-154l-262 243h131l208 -152zM808 -21c-420 0 -651 192 -651 543v7c0 350 229 542 647 542c374 0 594 -141 624 -381l-142 -33c-20 194 -191 311 -482 311c-319 0 -496 -156 -496 -439v-7c0 -282 178 -440 500 -440c290 0 453 109 483 278
l147 -33c-48 -216 -262 -348 -630 -348z" />
    <glyph glyph-name="ccedilla" unicode="&#xe7;" horiz-adv-x="1592" 
d="M1291 360l147 -33c-46 -209 -248 -339 -593 -348l-10 -80c177 -16 270 -55 270 -152c0 -88 -79 -138 -222 -138c-90 0 -177 16 -248 45l15 84c67 -29 148 -46 226 -46c84 0 130 24 130 64c0 55 -97 73 -266 83l16 141c-387 15 -599 206 -599 542v7c0 350 229 542 647 542
c374 0 594 -141 624 -381l-142 -33c-20 194 -191 311 -482 311c-319 0 -496 -156 -496 -439v-7c0 -282 178 -440 500 -440c290 0 453 109 483 278z" />
    <glyph glyph-name="cdotaccent" unicode="&#x10b;" horiz-adv-x="1592" 
d="M882 1243h-173v161h173v-161zM808 -21c-420 0 -651 192 -651 543v7c0 350 229 542 647 542c374 0 594 -141 624 -381l-142 -33c-20 194 -191 311 -482 311c-319 0 -496 -156 -496 -439v-7c0 -282 178 -440 500 -440c290 0 453 109 483 278l147 -33
c-48 -216 -262 -348 -630 -348z" />
    <glyph glyph-name="eth" unicode="&#xf0;" horiz-adv-x="1615" 
d="M1372 1295l-245 -43c200 -170 330 -379 330 -670v-12c0 -379 -233 -590 -654 -590c-415 0 -646 194 -646 541v4c0 349 239 540 609 540c258 0 420 -78 532 -249l29 13c-63 144 -176 283 -331 399l-346 -61l-19 82l266 47c-39 25 -82 49 -126 71l117 54
c53 -32 103 -65 151 -100l315 56zM1308 522v6c0 280 -180 435 -505 435c-320 0 -496 -158 -496 -435v-6c0 -280 176 -439 496 -439c325 0 505 159 505 439z" />
    <glyph glyph-name="dcaron" unicode="&#x10f;" horiz-adv-x="1667" 
d="M773 -20c-397 0 -616 193 -616 545v4c0 349 219 541 616 541c286 0 475 -115 551 -316l32 10c-32 113 -48 204 -48 331v305h145v-1400h-157c1 78 22 179 56 277l-32 11c-78 -197 -266 -308 -547 -308zM1672 1084h-90l15 316h134zM803 83c325 0 505 157 505 441v5
c0 283 -180 438 -505 438c-319 0 -496 -155 -496 -438v-5c0 -284 177 -441 496 -441z" />
    <glyph glyph-name="dcroat" unicode="&#x111;" horiz-adv-x="1514" 
d="M1453 1268h210v-91h-210v-1177h-157c1 78 22 179 56 277l-32 11c-78 -197 -266 -308 -547 -308c-397 0 -616 193 -616 545v4c0 349 219 541 616 541c286 0 475 -115 551 -316l32 10c-32 113 -48 204 -48 331v82h-412v91h412v132h145v-132zM1308 524v5
c0 283 -180 438 -505 438c-319 0 -496 -155 -496 -438v-5c0 -284 177 -441 496 -441c325 0 505 157 505 441z" />
    <glyph glyph-name="eacute" unicode="&#xe9;" horiz-adv-x="1610" 
d="M911 1430h178l-219 -243h-116zM1304 316l147 -33c-85 -184 -302 -304 -639 -304c-398 0 -655 189 -655 543v8c0 330 257 541 659 541c376 0 620 -201 620 -481c0 -31 -3 -63 -8 -93h-1122c12 -272 215 -417 514 -417c259 0 422 100 484 236zM820 970
c-282 0 -479 -147 -510 -372h979v4c0 210 -189 368 -469 368z" />
    <glyph glyph-name="ecaron" unicode="&#x11b;" horiz-adv-x="1610" 
d="M1152 1430l-261 -243h-154l-262 243h131l208 -152l207 152h131zM1304 316l147 -33c-85 -184 -302 -304 -639 -304c-398 0 -655 189 -655 543v8c0 330 257 541 659 541c376 0 620 -201 620 -481c0 -31 -3 -63 -8 -93h-1122c12 -272 215 -417 514 -417
c259 0 422 100 484 236zM820 970c-282 0 -479 -147 -510 -372h979v4c0 210 -189 368 -469 368z" />
    <glyph glyph-name="ecircumflex" unicode="&#xea;" horiz-adv-x="1610" 
d="M1023 1187l-207 152l-208 -152h-131l262 243h154l261 -243h-131zM1304 316l147 -33c-85 -184 -302 -304 -639 -304c-398 0 -655 189 -655 543v8c0 330 257 541 659 541c376 0 620 -201 620 -481c0 -31 -3 -63 -8 -93h-1122c12 -272 215 -417 514 -417
c259 0 422 100 484 236zM820 970c-282 0 -479 -147 -510 -372h979v4c0 210 -189 368 -469 368z" />
    <glyph glyph-name="edieresis" unicode="&#xeb;" horiz-adv-x="1610" 
d="M501 1403h175v-162h-175v162zM956 1403h175v-162h-175v162zM1304 316l147 -33c-85 -184 -302 -304 -639 -304c-398 0 -655 189 -655 543v8c0 330 257 541 659 541c376 0 620 -201 620 -481c0 -31 -3 -63 -8 -93h-1122c12 -272 215 -417 514 -417c259 0 422 100 484 236z
M820 970c-282 0 -479 -147 -510 -372h979v4c0 210 -189 368 -469 368z" />
    <glyph glyph-name="edotaccent" unicode="&#x117;" horiz-adv-x="1610" 
d="M719 1404h172v-161h-172v161zM1304 316l147 -33c-85 -184 -302 -304 -639 -304c-398 0 -655 189 -655 543v8c0 330 257 541 659 541c376 0 620 -201 620 -481c0 -31 -3 -63 -8 -93h-1122c12 -272 215 -417 514 -417c259 0 422 100 484 236zM820 970
c-282 0 -479 -147 -510 -372h979v4c0 210 -189 368 -469 368z" />
    <glyph glyph-name="egrave" unicode="&#xe8;" horiz-adv-x="1610" 
d="M721 1430l157 -243h-117l-218 243h178zM1304 316l147 -33c-85 -184 -302 -304 -639 -304c-398 0 -655 189 -655 543v8c0 330 257 541 659 541c376 0 620 -201 620 -481c0 -31 -3 -63 -8 -93h-1122c12 -272 215 -417 514 -417c259 0 422 100 484 236zM820 970
c-282 0 -479 -147 -510 -372h979v4c0 210 -189 368 -469 368z" />
    <glyph glyph-name="emacron" unicode="&#x113;" horiz-adv-x="1610" 
d="M385 1333h860v-95h-860v95zM1304 316l147 -33c-85 -184 -302 -304 -639 -304c-398 0 -655 189 -655 543v8c0 330 257 541 659 541c376 0 620 -201 620 -481c0 -31 -3 -63 -8 -93h-1122c12 -272 215 -417 514 -417c259 0 422 100 484 236zM820 970
c-282 0 -479 -147 -510 -372h979v4c0 210 -189 368 -469 368z" />
    <glyph glyph-name="eogonek" unicode="&#x119;" horiz-adv-x="1610" 
d="M993 -8c-91 -38 -138 -82 -138 -131c0 -38 31 -58 86 -58c23 0 45 4 63 9l-24 -91c-24 -8 -53 -12 -82 -12c-103 0 -159 42 -159 117c0 56 31 109 112 154c-13 -1 -26 -1 -39 -1c-398 0 -655 189 -655 543v8c0 330 257 541 659 541c376 0 620 -201 620 -481
c0 -31 -3 -63 -8 -93h-1122c12 -272 215 -417 514 -417c259 0 422 100 484 236l147 -33c-69 -149 -224 -256 -458 -291zM820 970c-282 0 -479 -147 -510 -372h979v4c0 210 -189 368 -469 368z" />
    <glyph glyph-name="uni1EBD" unicode="&#x1ebd;" horiz-adv-x="1610" 
d="M642 1349c-63 0 -96 -30 -99 -125h-98c1 150 71 219 190 219c141 0 269 -130 355 -130c63 0 96 30 98 125h98c-1 -150 -72 -219 -190 -219c-135 0 -260 130 -354 130zM1304 316l147 -33c-85 -184 -302 -304 -639 -304c-398 0 -655 189 -655 543v8c0 330 257 541 659 541
c376 0 620 -201 620 -481c0 -31 -3 -63 -8 -93h-1122c12 -272 215 -417 514 -417c259 0 422 100 484 236zM820 970c-282 0 -479 -147 -510 -372h979v4c0 210 -189 368 -469 368z" />
    <glyph glyph-name="g.accents" horiz-adv-x="1555" 
d="M704 201l289 -32c288 -33 478 -78 478 -255c0 -210 -225 -285 -695 -285c-466 0 -690 73 -690 278c0 129 107 201 290 209v24c-121 37 -192 88 -192 158c0 91 79 133 203 141v32c-124 55 -186 144 -186 268c0 222 199 332 600 332c103 0 193 -7 269 -22
c13 117 86 173 281 184l39 -124l-117 -9c-88 -6 -130 -25 -147 -64c182 -48 272 -147 272 -297c0 -223 -198 -332 -597 -332c-96 0 -181 6 -254 19c-158 -11 -239 -37 -239 -93c0 -78 108 -99 396 -132zM801 973c-302 0 -453 -76 -453 -234c0 -159 151 -235 453 -235
c300 0 449 76 449 235c0 158 -149 234 -449 234zM779 -273c375 0 560 47 560 173c0 99 -101 123 -386 155l-285 32c-53 6 -103 13 -149 21c-210 -30 -298 -81 -298 -179c0 -145 182 -202 558 -202z" />
    <glyph glyph-name="gbreve" unicode="&#x11f;" horiz-adv-x="1555" 
d="M768 1190c-197 0 -294 78 -299 240h110c4 -102 59 -150 189 -150c129 0 184 48 188 150h110c-5 -162 -102 -240 -298 -240zM704 201l289 -32c288 -33 478 -78 478 -255c0 -210 -225 -285 -695 -285c-466 0 -690 73 -690 278c0 129 107 201 290 209v24
c-121 37 -192 88 -192 158c0 91 79 133 203 141v32c-124 55 -186 144 -186 268c0 222 199 332 600 332c103 0 193 -7 269 -22c13 117 86 173 281 184l39 -124l-117 -9c-88 -6 -130 -25 -147 -64c182 -48 272 -147 272 -297c0 -223 -198 -332 -597 -332c-96 0 -181 6 -254 19
c-158 -11 -239 -37 -239 -93c0 -78 108 -99 396 -132zM801 973c-302 0 -453 -76 -453 -234c0 -159 151 -235 453 -235c300 0 449 76 449 235c0 158 -149 234 -449 234zM779 -273c375 0 560 47 560 173c0 99 -101 123 -386 155l-285 32c-53 6 -103 13 -149 21
c-210 -30 -298 -81 -298 -179c0 -145 182 -202 558 -202z" />
    <glyph glyph-name="gcaron" unicode="&#x1e7;" horiz-adv-x="1555" 
d="M1070 1430l-266 -245h-145l-266 245h140l199 -158l198 158h140zM704 201l289 -32c288 -33 478 -78 478 -255c0 -210 -225 -285 -695 -285c-466 0 -690 73 -690 278c0 129 107 201 290 209v24c-121 37 -192 88 -192 158c0 91 79 133 203 141v32c-124 55 -186 144 -186 268
c0 222 199 332 600 332c103 0 193 -7 269 -22c13 117 86 173 281 184l39 -124l-117 -9c-88 -6 -130 -25 -147 -64c182 -48 272 -147 272 -297c0 -223 -198 -332 -597 -332c-96 0 -181 6 -254 19c-158 -11 -239 -37 -239 -93c0 -78 108 -99 396 -132zM801 973
c-302 0 -453 -76 -453 -234c0 -159 151 -235 453 -235c300 0 449 76 449 235c0 158 -149 234 -449 234zM779 -273c375 0 560 47 560 173c0 99 -101 123 -386 155l-285 32c-53 6 -103 13 -149 21c-210 -30 -298 -81 -298 -179c0 -145 182 -202 558 -202z" />
    <glyph glyph-name="uni0123" unicode="&#x123;" horiz-adv-x="1555" 
d="M784 1316h92v-137h-181v113c0 118 41 167 172 179l10 -55c-71 -4 -93 -32 -93 -100zM704 201l289 -32c288 -33 478 -78 478 -255c0 -210 -225 -285 -695 -285c-466 0 -690 73 -690 278c0 129 107 201 290 209v24c-121 37 -192 88 -192 158c0 91 79 133 203 141v32
c-124 55 -186 144 -186 268c0 222 199 332 600 332c103 0 193 -7 269 -22c13 117 86 173 281 184l39 -124l-117 -9c-88 -6 -130 -25 -147 -64c182 -48 272 -147 272 -297c0 -223 -198 -332 -597 -332c-96 0 -181 6 -254 19c-158 -11 -239 -37 -239 -93
c0 -78 108 -99 396 -132zM801 973c-302 0 -453 -76 -453 -234c0 -159 151 -235 453 -235c300 0 449 76 449 235c0 158 -149 234 -449 234zM779 -273c375 0 560 47 560 173c0 99 -101 123 -386 155l-285 32c-53 6 -103 13 -149 21c-210 -30 -298 -81 -298 -179
c0 -145 182 -202 558 -202z" />
    <glyph glyph-name="gdotaccent" unicode="&#x121;" horiz-adv-x="1555" 
d="M719 1403h168v-161h-168v161zM704 201l289 -32c288 -33 478 -78 478 -255c0 -210 -225 -285 -695 -285c-466 0 -690 73 -690 278c0 129 107 201 290 209v24c-121 37 -192 88 -192 158c0 91 79 133 203 141v32c-124 55 -186 144 -186 268c0 222 199 332 600 332
c103 0 193 -7 269 -22c13 117 86 173 281 184l39 -124l-117 -9c-88 -6 -130 -25 -147 -64c182 -48 272 -147 272 -297c0 -223 -198 -332 -597 -332c-96 0 -181 6 -254 19c-158 -11 -239 -37 -239 -93c0 -78 108 -99 396 -132zM801 973c-302 0 -453 -76 -453 -234
c0 -159 151 -235 453 -235c300 0 449 76 449 235c0 158 -149 234 -449 234zM779 -273c375 0 560 47 560 173c0 99 -101 123 -386 155l-285 32c-53 6 -103 13 -149 21c-210 -30 -298 -81 -298 -179c0 -145 182 -202 558 -202z" />
    <glyph glyph-name="hbar" unicode="&#x127;" horiz-adv-x="1573" 
d="M891 1070c308 0 477 -144 477 -408v-662h-145v638c0 211 -121 325 -374 325c-318 0 -498 -184 -498 -496v-467h-145v1177h-193v91h193v132h145v-132h432v-91h-433v-127c0 -107 -13 -202 -42 -297l33 -9c93 211 258 326 550 326z" />
    <glyph glyph-name="dotlessi" unicode="&#x131;" horiz-adv-x="575" 
d="M360 0h-145v1050h145v-1050z" />
    <glyph glyph-name="iacute" unicode="&#xed;" horiz-adv-x="575" 
d="M355 1184h-121l79 246h154zM360 0h-145v1050h145v-1050z" />
    <glyph glyph-name="icircumflex" unicode="&#xee;" horiz-adv-x="575" 
d="M210 1192h-108l118 247h133l118 -247h-108l-76 153zM360 0h-145v1050h145v-1050z" />
    <glyph glyph-name="idieresis" unicode="&#xef;" horiz-adv-x="575" 
d="M244 1240h-156v163h156v-163zM487 1240h-156v163h156v-163zM360 0h-145v1050h145v-1050z" />
    <glyph glyph-name="i.loclTRK" horiz-adv-x="575" 
d="M374 1241h-173v162h173v-162zM360 0h-145v1050h145v-1050z" />
    <glyph glyph-name="igrave" unicode="&#xec;" horiz-adv-x="575" 
d="M341 1184h-121l-112 246h153zM360 0h-145v1050h145v-1050z" />
    <glyph glyph-name="imacron" unicode="&#x12b;" horiz-adv-x="575" 
d="M451 1265h-327v94h327v-94zM360 0h-145v1050h145v-1050z" />
    <glyph glyph-name="iogonek" unicode="&#x12f;" horiz-adv-x="569" 
d="M195 1236v164h179v-164h-179zM237 0h-25v1050h145v-1050c-104 -40 -158 -87 -158 -139c0 -38 31 -58 86 -58c23 0 45 4 63 9l-24 -91c-24 -8 -53 -12 -82 -12c-103 0 -159 42 -159 117c0 64 42 126 154 174z" />
    <glyph glyph-name="itilde" unicode="&#x129;" horiz-adv-x="575" 
d="M368 1205c-66 0 -114 66 -143 66c-20 0 -30 -24 -26 -68h-76c-7 114 25 168 92 168c60 0 113 -67 142 -67c20 0 30 24 26 69h76c7 -113 -24 -168 -91 -168zM360 0h-145v1050h145v-1050z" />
    <glyph glyph-name="uni0237" unicode="&#x237;" horiz-adv-x="575" 
d="M-39 -370l-29 127l115 7c116 7 168 44 168 165v1121h145v-1007c0 -277 -131 -379 -399 -413z" />
    <glyph glyph-name="uni006A0301" horiz-adv-x="575" 
d="M355 1184h-121l79 246h154zM-39 -370l-29 127l115 7c116 7 168 44 168 165v1121h145v-1007c0 -277 -131 -379 -399 -413z" />
    <glyph glyph-name="uni0137" unicode="&#x137;" horiz-adv-x="1248" 
d="M360 0h-145v1400h145v-577c0 -85 -13 -196 -32 -282l23 -11l643 520h197l-518 -395l499 -655h-167l-434 580l-211 -163v-417zM585 -411l-9 55c72 4 94 32 94 99h-93v138h181v-112c0 -119 -40 -168 -173 -180z" />
    <glyph glyph-name="lacute" unicode="&#x13a;" horiz-adv-x="575" 
d="M346 1535h-121l177 224h188zM360 0h-145v1400h145v-1400z" />
    <glyph glyph-name="lcaron" unicode="&#x13e;" horiz-adv-x="575" 
d="M360 0h-145v1400h145v-1400zM579 1084h-90l15 316h134z" />
    <glyph glyph-name="uni013C" unicode="&#x13c;" horiz-adv-x="575" 
d="M360 0h-145v1400h145v-1400zM205 -411l-9 55c72 4 94 32 94 99h-93v138h181v-112c0 -119 -40 -168 -173 -180z" />
    <glyph glyph-name="ldot" unicode="&#x140;" horiz-adv-x="984" 
d="M360 0h-145v1400h145v-1400zM580 658v188h198v-188h-198z" />
    <glyph glyph-name="lslash" unicode="&#x142;" horiz-adv-x="943" 
d="M544 832l290 151v-112l-290 -152v-719h-145v644l-290 -152v113l290 151v644h145v-568z" />
    <glyph glyph-name="nacute" unicode="&#x144;" horiz-adv-x="1581" 
d="M866 1187h-116l157 243h178zM360 0h-145v1050h154c0 -87 -14 -172 -52 -297l32 -9c93 211 258 326 551 326c308 0 477 -144 477 -408v-662h-145v638c0 211 -122 325 -374 325c-318 0 -498 -184 -498 -496v-467z" />
    <glyph glyph-name="ncaron" unicode="&#x148;" horiz-adv-x="1581" 
d="M1017 1430h131l-261 -243h-154l-262 243h131l208 -152zM360 0h-145v1050h154c0 -87 -14 -172 -52 -297l32 -9c93 211 258 326 551 326c308 0 477 -144 477 -408v-662h-145v638c0 211 -122 325 -374 325c-318 0 -498 -184 -498 -496v-467z" />
    <glyph glyph-name="uni0146" unicode="&#x146;" horiz-adv-x="1581" 
d="M360 0h-145v1050h154c0 -87 -14 -172 -52 -297l32 -9c93 211 258 326 551 326c308 0 477 -144 477 -408v-662h-145v638c0 211 -122 325 -374 325c-318 0 -498 -184 -498 -496v-467zM713 -411l-9 55c72 4 94 32 94 99h-93v138h181v-112c0 -119 -40 -168 -173 -180z" />
    <glyph glyph-name="eng" unicode="&#x14b;" horiz-adv-x="1581" 
d="M900 1070c308 0 477 -144 477 -408v-662c0 -225 -112 -336 -546 -370l-29 129l115 4c290 10 315 48 315 244v631c0 211 -122 325 -374 325c-318 0 -498 -184 -498 -496v-467h-145v1050h154c0 -87 -14 -172 -52 -297l32 -9c93 211 258 326 551 326z" />
    <glyph glyph-name="ntilde" unicode="&#xf1;" horiz-adv-x="1581" 
d="M993 1219c-135 0 -260 130 -354 130c-63 0 -96 -30 -99 -125h-98c1 150 71 219 190 219c141 0 269 -130 355 -130c63 0 96 30 98 125h98c-1 -150 -72 -219 -190 -219zM360 0h-145v1050h154c0 -87 -14 -172 -52 -297l32 -9c93 211 258 326 551 326
c308 0 477 -144 477 -408v-662h-145v638c0 211 -122 325 -374 325c-318 0 -498 -184 -498 -496v-467z" />
    <glyph glyph-name="oacute" unicode="&#xf3;" horiz-adv-x="1611" 
d="M860 1187h-116l157 243h178zM806 -21c-373 0 -649 156 -649 533v26c0 372 276 533 649 533c372 0 647 -161 647 -533v-26c0 -377 -275 -533 -647 -533zM806 82c292 0 497 130 497 431v24c0 302 -205 431 -497 431c-294 0 -498 -129 -498 -431v-24
c0 -301 204 -431 498 -431z" />
    <glyph glyph-name="ocircumflex" unicode="&#xf4;" horiz-adv-x="1611" 
d="M598 1187h-131l262 243h154l261 -243h-131l-207 152zM806 -21c-373 0 -649 156 -649 533v26c0 372 276 533 649 533c372 0 647 -161 647 -533v-26c0 -377 -275 -533 -647 -533zM806 82c292 0 497 130 497 431v24c0 302 -205 431 -497 431c-294 0 -498 -129 -498 -431v-24
c0 -301 204 -431 498 -431z" />
    <glyph glyph-name="odieresis" unicode="&#xf6;" horiz-adv-x="1611" 
d="M666 1241h-175v162h175v-162zM1121 1241h-175v162h175v-162zM806 -21c-373 0 -649 156 -649 533v26c0 372 276 533 649 533c372 0 647 -161 647 -533v-26c0 -377 -275 -533 -647 -533zM806 82c292 0 497 130 497 431v24c0 302 -205 431 -497 431
c-294 0 -498 -129 -498 -431v-24c0 -301 204 -431 498 -431z" />
    <glyph glyph-name="ograve" unicode="&#xf2;" horiz-adv-x="1611" 
d="M868 1187h-117l-218 243h178zM806 -21c-373 0 -649 156 -649 533v26c0 372 276 533 649 533c372 0 647 -161 647 -533v-26c0 -377 -275 -533 -647 -533zM806 82c292 0 497 130 497 431v24c0 302 -205 431 -497 431c-294 0 -498 -129 -498 -431v-24
c0 -301 204 -431 498 -431z" />
    <glyph glyph-name="ohungarumlaut" unicode="&#x151;" horiz-adv-x="1611" 
d="M673 1187h-116l157 243h178zM1030 1187h-117l157 243h178zM806 -21c-373 0 -649 156 -649 533v26c0 372 276 533 649 533c372 0 647 -161 647 -533v-26c0 -377 -275 -533 -647 -533zM806 82c292 0 497 130 497 431v24c0 302 -205 431 -497 431
c-294 0 -498 -129 -498 -431v-24c0 -301 204 -431 498 -431z" />
    <glyph glyph-name="omacron" unicode="&#x14d;" horiz-adv-x="1611" 
d="M1235 1238h-860v95h860v-95zM806 -21c-373 0 -649 156 -649 533v26c0 372 276 533 649 533c372 0 647 -161 647 -533v-26c0 -377 -275 -533 -647 -533zM806 82c292 0 497 130 497 431v24c0 302 -205 431 -497 431c-294 0 -498 -129 -498 -431v-24
c0 -301 204 -431 498 -431z" />
    <glyph glyph-name="uni01EB" unicode="&#x1eb;" horiz-adv-x="1611" 
d="M806 1071c372 0 647 -161 647 -533v-26c0 -307 -182 -467 -450 -516c-97 -39 -147 -85 -147 -135c0 -38 31 -58 86 -58c23 0 45 4 63 9l-24 -91c-24 -8 -53 -12 -82 -12c-103 0 -159 42 -159 117c0 56 31 109 112 154c-15 -1 -30 -1 -46 -1c-373 0 -649 156 -649 533v26
c0 372 276 533 649 533zM1303 513v24c0 302 -205 431 -497 431c-294 0 -498 -129 -498 -431v-24c0 -301 204 -431 498 -431c292 0 497 130 497 431z" />
    <glyph glyph-name="oslash" unicode="&#xf8;" horiz-adv-x="1620" 
d="M1406 1175l-167 -205c146 -91 223 -240 223 -441v-8c0 -348 -232 -542 -652 -542c-128 0 -239 18 -331 53l-129 -158h-135l167 206c-147 90 -225 240 -225 441v8c0 348 234 542 653 542c129 0 241 -18 333 -54l128 158h135zM299 528v-6c0 -156 55 -274 160 -348l609 751
c-71 29 -158 43 -258 43c-329 0 -511 -155 -511 -440zM1320 522v6c0 156 -54 273 -158 347l-609 -751c72 -28 158 -42 257 -42c328 0 510 156 510 440z" />
    <glyph glyph-name="oslashacute" unicode="&#x1ff;" horiz-adv-x="1620" 
d="M905 1430h178l-219 -243h-116zM1406 1175l-167 -205c146 -91 223 -240 223 -441v-8c0 -348 -232 -542 -652 -542c-128 0 -239 18 -331 53l-129 -158h-135l167 206c-147 90 -225 240 -225 441v8c0 348 234 542 653 542c129 0 241 -18 333 -54l128 158h135zM299 528v-6
c0 -156 55 -274 160 -348l609 751c-71 29 -158 43 -258 43c-329 0 -511 -155 -511 -440zM1320 522v6c0 156 -54 273 -158 347l-609 -751c72 -28 158 -42 257 -42c328 0 510 156 510 440z" />
    <glyph glyph-name="otilde" unicode="&#xf5;" horiz-adv-x="1611" 
d="M986 1219c-135 0 -260 130 -354 130c-63 0 -96 -30 -99 -125h-98c1 150 71 219 190 219c141 0 269 -130 355 -130c63 0 96 30 98 125h98c-1 -150 -72 -219 -190 -219zM806 -21c-373 0 -649 156 -649 533v26c0 372 276 533 649 533c372 0 647 -161 647 -533v-26
c0 -377 -275 -533 -647 -533zM806 82c292 0 497 130 497 431v24c0 302 -205 431 -497 431c-294 0 -498 -129 -498 -431v-24c0 -301 204 -431 498 -431z" />
    <glyph glyph-name="oe" unicode="&#x153;" horiz-adv-x="2754" 
d="M2448 316l147 -33c-85 -184 -302 -304 -639 -304c-271 0 -487 97 -576 333c-82 -235 -288 -333 -579 -333c-414 0 -644 192 -644 542v8c0 350 230 542 643 542c294 0 502 -100 581 -338c92 230 308 338 580 338c375 0 619 -201 619 -481c0 -31 -3 -63 -8 -93h-1122
c12 -272 215 -417 513 -417c260 0 423 100 485 236zM1963 970c-281 0 -478 -147 -509 -372h979v4c0 210 -189 368 -470 368zM1303 522v6c0 284 -177 440 -497 440c-321 0 -498 -156 -498 -440v-6c0 -283 177 -440 498 -440c320 0 497 157 497 440z" />
    <glyph glyph-name="thorn" unicode="&#xfe;" horiz-adv-x="1667" 
d="M360 -347h-145v1747h145v-305c0 -127 -17 -218 -49 -331l32 -10c76 201 266 316 551 316c398 0 616 -192 616 -541v-4c0 -350 -218 -542 -616 -542c-285 0 -475 115 -551 317l-32 -11c32 -112 49 -203 49 -331v-305zM865 86c318 0 495 156 495 438v5
c0 283 -177 438 -495 438c-325 0 -505 -155 -505 -438v-5c0 -282 180 -438 505 -438z" />
    <glyph glyph-name="racute" unicode="&#x155;" horiz-adv-x="1027" 
d="M614 1187h-116l157 243h178zM360 0h-145v1050h154c0 -87 -14 -172 -52 -297l32 -9c76 227 217 312 561 334l31 -123l-178 -14c-289 -25 -403 -186 -403 -473v-468z" />
    <glyph glyph-name="rcaron" unicode="&#x159;" horiz-adv-x="1027" 
d="M765 1430h131l-261 -243h-154l-262 243h131l208 -152zM360 0h-145v1050h154c0 -87 -14 -172 -52 -297l32 -9c76 227 217 312 561 334l31 -123l-178 -14c-289 -25 -403 -186 -403 -473v-468z" />
    <glyph glyph-name="uni0157" unicode="&#x157;" horiz-adv-x="1027" 
d="M360 0h-145v1050h154c0 -87 -14 -172 -52 -297l32 -9c76 227 217 312 561 334l31 -123l-178 -14c-289 -25 -403 -186 -403 -473v-468zM205 -411l-9 55c72 4 94 32 94 99h-93v138h181v-112c0 -119 -40 -168 -173 -180z" />
    <glyph glyph-name="sacute" unicode="&#x15b;" horiz-adv-x="1510" 
d="M808 1187h-116l157 243h178zM783 -21c-383 0 -599 111 -627 330l145 41c14 -176 178 -272 482 -272c272 0 420 65 420 189c0 132 -166 166 -369 199l-203 33c-202 32 -432 86 -432 279c0 192 192 293 549 293s562 -122 581 -304l-142 -38c-10 141 -166 243 -439 243
c-265 0 -405 -60 -405 -178c0 -115 141 -151 345 -183l203 -32c203 -33 461 -85 461 -303c0 -199 -197 -297 -569 -297z" />
    <glyph glyph-name="scaron" unicode="&#x161;" horiz-adv-x="1510" 
d="M959 1430h131l-261 -243h-154l-262 243h131l208 -152zM783 -21c-383 0 -599 111 -627 330l145 41c14 -176 178 -272 482 -272c272 0 420 65 420 189c0 132 -166 166 -369 199l-203 33c-202 32 -432 86 -432 279c0 192 192 293 549 293s562 -122 581 -304l-142 -38
c-10 141 -166 243 -439 243c-265 0 -405 -60 -405 -178c0 -115 141 -151 345 -183l203 -32c203 -33 461 -85 461 -303c0 -199 -197 -297 -569 -297z" />
    <glyph glyph-name="scedilla" unicode="&#x15f;" horiz-adv-x="1510" 
d="M1352 276c0 -197 -193 -295 -558 -297l-10 -80c177 -16 270 -55 270 -152c0 -88 -79 -138 -222 -138c-90 0 -177 16 -248 45l15 84c67 -29 148 -46 226 -46c84 0 130 24 130 64c0 55 -97 73 -266 83l17 142c-335 14 -524 124 -550 328l145 41c14 -176 178 -272 482 -272
c272 0 420 65 420 189c0 132 -166 166 -369 199l-203 33c-202 32 -432 86 -432 279c0 192 192 293 549 293s562 -122 581 -304l-142 -38c-10 141 -166 243 -439 243c-265 0 -405 -60 -405 -178c0 -115 141 -151 345 -183l203 -32c203 -33 461 -85 461 -303z" />
    <glyph glyph-name="uni0219" unicode="&#x219;" horiz-adv-x="1510" 
d="M783 -21c-383 0 -599 111 -627 330l145 41c14 -176 178 -272 482 -272c272 0 420 65 420 189c0 132 -166 166 -369 199l-203 33c-202 32 -432 86 -432 279c0 192 192 293 549 293s562 -122 581 -304l-142 -38c-10 141 -166 243 -439 243c-265 0 -405 -60 -405 -178
c0 -115 141 -151 345 -183l203 -32c203 -33 461 -85 461 -303c0 -199 -197 -297 -569 -297zM672 -411l-9 55c72 4 94 32 94 99h-93v138h181v-112c0 -119 -40 -168 -173 -180z" />
    <glyph glyph-name="germandbls" unicode="&#xdf;" horiz-adv-x="1549" 
d="M976 -19c-230 0 -379 81 -439 234l90 82c47 -141 155 -208 350 -208c187 0 273 50 273 160c0 91 -80 137 -221 189l-141 53c-141 53 -282 121 -282 263c0 278 563 191 563 395c0 110 -116 164 -353 164c-311 0 -456 -113 -456 -352v-961h-145v958c0 309 189 463 593 463
c336 0 503 -91 503 -273c0 -281 -557 -203 -557 -377c0 -78 90 -115 227 -164l137 -50c137 -50 274 -119 274 -288c0 -188 -145 -288 -416 -288z" />
    <glyph glyph-name="tbar" unicode="&#x167;" horiz-adv-x="1136" 
d="M1042 1050v-103h-557v-295h548v-94h-548v-250c0 -148 80 -216 241 -216c96 0 196 18 300 65l-13 -108c-81 -43 -187 -68 -328 -68c-233 0 -345 101 -345 309v268h-245v94h245v295h-245v103h245v265l145 48v-313h557z" />
    <glyph glyph-name="tcaron" unicode="&#x165;" horiz-adv-x="1136" 
d="M734 1187h-90l15 316h134zM685 -19c-233 0 -345 101 -345 309v657h-245v103h245v265l145 48v-313h557v-103h-557v-639c0 -148 80 -216 241 -216c96 0 196 18 300 65l-13 -108c-81 -43 -187 -68 -328 -68z" />
    <glyph glyph-name="uni0163" unicode="&#x163;" horiz-adv-x="1136" 
d="M1042 1050v-103h-557v-639c0 -148 80 -216 241 -216c96 0 196 18 300 65l-13 -108c-78 -42 -180 -66 -314 -68l-10 -82c177 -16 270 -55 270 -152c0 -88 -79 -138 -222 -138c-90 0 -177 16 -248 45l15 84c67 -29 148 -46 226 -46c84 0 130 24 130 64c0 55 -97 73 -266 83
l17 146c-183 20 -271 120 -271 305v657h-245v103h245v265l145 48v-313h557z" />
    <glyph glyph-name="uni021B" unicode="&#x21b;" horiz-adv-x="1136" 
d="M685 -19c-233 0 -345 101 -345 309v657h-245v103h245v265l145 48v-313h557v-103h-557v-639c0 -148 80 -216 241 -216c96 0 196 18 300 65l-13 -108c-81 -43 -187 -68 -328 -68zM576 -411l-9 55c72 4 94 32 94 99h-93v138h181v-112c0 -119 -40 -168 -173 -180z" />
    <glyph glyph-name="uacute" unicode="&#xfa;" horiz-adv-x="1582" 
d="M845 1187h-116l157 243h178zM1222 1050h145v-1050h-155c0 87 15 172 52 297l-32 9c-93 -211 -258 -326 -550 -326c-309 0 -477 144 -477 408v662h145v-638c0 -211 121 -325 373 -325c319 0 499 184 499 496v467z" />
    <glyph glyph-name="ubreve" unicode="&#x16d;" horiz-adv-x="1582" 
d="M791 1173c-207 0 -312 91 -317 257h102c4 -106 73 -165 215 -165s211 59 215 165h102c-5 -166 -110 -257 -317 -257zM1222 1050h145v-1050h-155c0 87 15 172 52 297l-32 9c-93 -211 -258 -326 -550 -326c-309 0 -477 144 -477 408v662h145v-638c0 -211 121 -325 373 -325
c319 0 499 184 499 496v467z" />
    <glyph glyph-name="ucircumflex" unicode="&#xfb;" horiz-adv-x="1582" 
d="M583 1187h-131l262 243h154l261 -243h-131l-207 152zM1222 1050h145v-1050h-155c0 87 15 172 52 297l-32 9c-93 -211 -258 -326 -550 -326c-309 0 -477 144 -477 408v662h145v-638c0 -211 121 -325 373 -325c319 0 499 184 499 496v467z" />
    <glyph glyph-name="udieresis" unicode="&#xfc;" horiz-adv-x="1582" 
d="M651 1241h-175v162h175v-162zM1106 1241h-175v162h175v-162zM1222 1050h145v-1050h-155c0 87 15 172 52 297l-32 9c-93 -211 -258 -326 -550 -326c-309 0 -477 144 -477 408v662h145v-638c0 -211 121 -325 373 -325c319 0 499 184 499 496v467z" />
    <glyph glyph-name="ugrave" unicode="&#xf9;" horiz-adv-x="1582" 
d="M853 1187h-117l-218 243h178zM1222 1050h145v-1050h-155c0 87 15 172 52 297l-32 9c-93 -211 -258 -326 -550 -326c-309 0 -477 144 -477 408v662h145v-638c0 -211 121 -325 373 -325c319 0 499 184 499 496v467z" />
    <glyph glyph-name="uhungarumlaut" unicode="&#x171;" horiz-adv-x="1582" 
d="M658 1187h-116l157 243h178zM1014 1187h-116l157 243h178zM1222 1050h145v-1050h-155c0 87 15 172 52 297l-32 9c-93 -211 -258 -326 -550 -326c-309 0 -477 144 -477 408v662h145v-638c0 -211 121 -325 373 -325c319 0 499 184 499 496v467z" />
    <glyph glyph-name="umacron" unicode="&#x16b;" horiz-adv-x="1582" 
d="M1220 1238h-860v95h860v-95zM1222 1050h145v-1050h-155c0 87 15 172 52 297l-32 9c-93 -211 -258 -326 -550 -326c-309 0 -477 144 -477 408v662h145v-638c0 -211 121 -325 373 -325c319 0 499 184 499 496v467z" />
    <glyph glyph-name="uogonek" unicode="&#x173;" horiz-adv-x="1582" 
d="M1222 583v467h145v-1050h-4c-104 -40 -158 -87 -158 -139c0 -38 31 -58 86 -58c23 0 45 4 63 9l-24 -91c-24 -8 -53 -12 -82 -12c-103 0 -159 42 -159 117c0 64 42 126 154 174h-31c0 87 15 172 52 297l-32 9c-93 -211 -258 -326 -550 -326c-309 0 -477 144 -477 408v662
h145v-638c0 -211 121 -325 373 -325c319 0 499 184 499 496z" />
    <glyph glyph-name="uring" unicode="&#x16f;" horiz-adv-x="1582" 
d="M791 1162c-119 0 -204 83 -204 199s85 198 204 198s204 -82 204 -198s-85 -199 -204 -199zM791 1243c69 0 118 49 118 118s-49 118 -118 118s-118 -49 -118 -118s49 -118 118 -118zM1222 1050h145v-1050h-155c0 87 15 172 52 297l-32 9c-93 -211 -258 -326 -550 -326
c-309 0 -477 144 -477 408v662h145v-638c0 -211 121 -325 373 -325c319 0 499 184 499 496v467z" />
    <glyph glyph-name="utilde" unicode="&#x169;" horiz-adv-x="1582" 
d="M971 1219c-135 0 -260 130 -354 130c-63 0 -96 -30 -99 -125h-98c1 150 71 219 190 219c141 0 269 -130 355 -130c63 0 96 30 98 125h98c-1 -150 -72 -219 -190 -219zM1222 1050h145v-1050h-155c0 87 15 172 52 297l-32 9c-93 -211 -258 -326 -550 -326
c-309 0 -477 144 -477 408v662h145v-638c0 -211 121 -325 373 -325c319 0 499 184 499 496v467z" />
    <glyph glyph-name="wacute" unicode="&#x1e83;" horiz-adv-x="2041" 
d="M1075 1187h-116l157 243h178zM659 0h-146l-456 1050h145l262 -609c39 -93 84 -223 110 -325h33c27 109 68 239 102 325l243 609h138l245 -609c37 -92 80 -221 107 -323h32c28 114 69 242 105 323l264 609h141l-456 -1050h-146l-240 593c-37 91 -78 227 -105 337h-32
c-18 -82 -61 -219 -109 -337z" />
    <glyph glyph-name="wcircumflex" unicode="&#x175;" horiz-adv-x="2041" 
d="M813 1187h-131l262 243h154l261 -243h-131l-207 152zM659 0h-146l-456 1050h145l262 -609c39 -93 84 -223 110 -325h33c27 109 68 239 102 325l243 609h138l245 -609c37 -92 80 -221 107 -323h32c28 114 69 242 105 323l264 609h141l-456 -1050h-146l-240 593
c-37 91 -78 227 -105 337h-32c-18 -82 -61 -219 -109 -337z" />
    <glyph glyph-name="wdieresis" unicode="&#x1e85;" horiz-adv-x="2041" 
d="M881 1241h-175v162h175v-162zM1336 1241h-175v162h175v-162zM659 0h-146l-456 1050h145l262 -609c39 -93 84 -223 110 -325h33c27 109 68 239 102 325l243 609h138l245 -609c37 -92 80 -221 107 -323h32c28 114 69 242 105 323l264 609h141l-456 -1050h-146l-240 593
c-37 91 -78 227 -105 337h-32c-18 -82 -61 -219 -109 -337z" />
    <glyph glyph-name="wgrave" unicode="&#x1e81;" horiz-adv-x="2041" 
d="M1083 1187h-117l-218 243h178zM659 0h-146l-456 1050h145l262 -609c39 -93 84 -223 110 -325h33c27 109 68 239 102 325l243 609h138l245 -609c37 -92 80 -221 107 -323h32c28 114 69 242 105 323l264 609h141l-456 -1050h-146l-240 593c-37 91 -78 227 -105 337h-32
c-18 -82 -61 -219 -109 -337z" />
    <glyph glyph-name="yacute" unicode="&#xfd;" horiz-adv-x="1358" 
d="M735 1187h-116l157 243h178zM137 -371l-32 130l166 9c165 8 234 39 283 137l47 94l-544 1051h159l304 -601c51 -103 99 -205 148 -345h32c49 142 96 244 146 345l300 601h155l-530 -1032c-146 -295 -293 -361 -634 -389z" />
    <glyph glyph-name="ycircumflex" unicode="&#x177;" horiz-adv-x="1358" 
d="M474 1187h-131l262 243h154l261 -243h-131l-207 152zM137 -371l-32 130l166 9c165 8 234 39 283 137l47 94l-544 1051h159l304 -601c51 -103 99 -205 148 -345h32c49 142 96 244 146 345l300 601h155l-530 -1032c-146 -295 -293 -361 -634 -389z" />
    <glyph glyph-name="ydieresis" unicode="&#xff;" horiz-adv-x="1358" 
d="M541 1241h-175v162h175v-162zM996 1241h-175v162h175v-162zM137 -371l-32 130l166 9c165 8 234 39 283 137l47 94l-544 1051h159l304 -601c51 -103 99 -205 148 -345h32c49 142 96 244 146 345l300 601h155l-530 -1032c-146 -295 -293 -361 -634 -389z" />
    <glyph glyph-name="ygrave" unicode="&#x1ef3;" horiz-adv-x="1358" 
d="M743 1187h-117l-218 243h178zM137 -371l-32 130l166 9c165 8 234 39 283 137l47 94l-544 1051h159l304 -601c51 -103 99 -205 148 -345h32c49 142 96 244 146 345l300 601h155l-530 -1032c-146 -295 -293 -361 -634 -389z" />
    <glyph glyph-name="uni1EF9" unicode="&#x1ef9;" horiz-adv-x="1358" 
d="M861 1219c-135 0 -260 130 -354 130c-63 0 -96 -30 -99 -125h-98c1 150 71 219 190 219c141 0 269 -130 355 -130c63 0 96 30 98 125h98c-1 -150 -72 -219 -190 -219zM137 -371l-32 130l166 9c165 8 234 39 283 137l47 94l-544 1051h159l304 -601
c51 -103 99 -205 148 -345h32c49 142 96 244 146 345l300 601h155l-530 -1032c-146 -295 -293 -361 -634 -389z" />
    <glyph glyph-name="zacute" unicode="&#x17a;" horiz-adv-x="1386" 
d="M745 1187h-116l157 243h178zM1256 0h-1126v86l729 689c38 36 111 94 178 133l-11 38c-52 -2 -76 -3 -121 -3h-748v107h1086v-86l-728 -687c-38 -37 -112 -95 -180 -135l11 -38c52 2 78 3 125 3h785v-107z" />
    <glyph glyph-name="zcaron" unicode="&#x17e;" horiz-adv-x="1386" 
d="M895 1430h131l-261 -243h-154l-262 243h131l208 -152zM1256 0h-1126v86l729 689c38 36 111 94 178 133l-11 38c-52 -2 -76 -3 -121 -3h-748v107h1086v-86l-728 -687c-38 -37 -112 -95 -180 -135l11 -38c52 2 78 3 125 3h785v-107z" />
    <glyph glyph-name="zdotaccent" unicode="&#x17c;" horiz-adv-x="1386" 
d="M777 1241h-173v162h173v-162zM1256 0h-1126v86l729 689c38 36 111 94 178 133l-11 38c-52 -2 -76 -3 -121 -3h-748v107h1086v-86l-728 -687c-38 -37 -112 -95 -180 -135l11 -38c52 2 78 3 125 3h785v-107z" />
    <glyph glyph-name="g.ss02" horiz-adv-x="1667" 
d="M795 -371c-324 0 -569 112 -630 290l145 45c39 -141 228 -232 483 -232c307 0 494 93 510 319l2 21c4 58 22 152 51 259l-32 10c-76 -201 -265 -316 -551 -316c-397 0 -616 192 -616 519v4c0 329 219 522 616 522c281 0 469 -111 547 -307l32 10c-33 98 -54 199 -56 277
h157v-966c0 -298 -249 -455 -658 -455zM803 128c325 0 505 156 505 415v6c0 261 -180 418 -505 418c-319 0 -496 -157 -496 -418v-6c0 -259 177 -415 496 -415z" />
    <glyph glyph-name="gbreve.ss02" horiz-adv-x="1667" 
d="M812 1173c-207 0 -312 91 -317 257h102c4 -106 73 -165 215 -165s211 59 215 165h102c-5 -166 -110 -257 -317 -257zM795 -371c-324 0 -569 112 -630 290l145 45c39 -141 228 -232 483 -232c307 0 494 93 510 319l2 21c4 58 22 152 51 259l-32 10
c-76 -201 -265 -316 -551 -316c-397 0 -616 192 -616 519v4c0 329 219 522 616 522c281 0 469 -111 547 -307l32 10c-33 98 -54 199 -56 277h157v-966c0 -298 -249 -455 -658 -455zM803 128c325 0 505 156 505 415v6c0 261 -180 418 -505 418c-319 0 -496 -157 -496 -418v-6
c0 -259 177 -415 496 -415z" />
    <glyph glyph-name="gcaron.ss02" horiz-adv-x="1667" 
d="M1017 1430h131l-261 -243h-154l-262 243h131l208 -152zM795 -371c-324 0 -569 112 -630 290l145 45c39 -141 228 -232 483 -232c307 0 494 93 510 319l2 21c4 58 22 152 51 259l-32 10c-76 -201 -265 -316 -551 -316c-397 0 -616 192 -616 519v4c0 329 219 522 616 522
c281 0 469 -111 547 -307l32 10c-33 98 -54 199 -56 277h157v-966c0 -298 -249 -455 -658 -455zM803 128c325 0 505 156 505 415v6c0 261 -180 418 -505 418c-319 0 -496 -157 -496 -418v-6c0 -259 177 -415 496 -415z" />
    <glyph glyph-name="uni0123.ss02" horiz-adv-x="1667" 
d="M894 1461l9 -55c-72 -4 -94 -32 -94 -99h93v-138h-181v112c0 119 40 168 173 180zM795 -371c-324 0 -569 112 -630 290l145 45c39 -141 228 -232 483 -232c307 0 494 93 510 319l2 21c4 58 22 152 51 259l-32 10c-76 -201 -265 -316 -551 -316c-397 0 -616 192 -616 519
v4c0 329 219 522 616 522c281 0 469 -111 547 -307l32 10c-33 98 -54 199 -56 277h157v-966c0 -298 -249 -455 -658 -455zM803 128c325 0 505 156 505 415v6c0 261 -180 418 -505 418c-319 0 -496 -157 -496 -418v-6c0 -259 177 -415 496 -415z" />
    <glyph glyph-name="gdotaccent.ss02" horiz-adv-x="1667" 
d="M898 1241h-173v162h173v-162zM795 -371c-324 0 -569 112 -630 290l145 45c39 -141 228 -232 483 -232c307 0 494 93 510 319l2 21c4 58 22 152 51 259l-32 10c-76 -201 -265 -316 -551 -316c-397 0 -616 192 -616 519v4c0 329 219 522 616 522c281 0 469 -111 547 -307
l32 10c-33 98 -54 199 -56 277h157v-966c0 -298 -249 -455 -658 -455zM803 128c325 0 505 156 505 415v6c0 261 -180 418 -505 418c-319 0 -496 -157 -496 -418v-6c0 -259 177 -415 496 -415z" />
    <glyph glyph-name="f.calt" horiz-adv-x="1049" 
d="M485 0h-145v947h-245v103h245v69c0 203 127 286 680 302l29 -113l-262 -14c-262 -15 -305 -51 -305 -168v-76h433v-103h-430v-947z" />
    <glyph glyph-name="t.calt" horiz-adv-x="1061" 
d="M685 -19c-233 0 -345 101 -345 309v657h-245v103h245v265l145 48v-313h443v-103h-443v-639c0 -148 80 -216 241 -216c96 0 196 18 300 65l-13 -108c-81 -43 -187 -68 -328 -68z" />
    <glyph glyph-name="tbar.calt" horiz-adv-x="1061" 
d="M726 92c96 0 196 18 300 65l-13 -108c-81 -43 -187 -68 -328 -68c-233 0 -345 101 -345 309v268h-245v94h245v295h-245v103h245v265l145 48v-313h443v-103h-443v-295h467v-94h-467v-250c0 -148 80 -216 241 -216z" />
    <glyph glyph-name="tcaron.calt" horiz-adv-x="1061" 
d="M734 1187h-90l15 316h134zM685 -19c-233 0 -345 101 -345 309v657h-245v103h245v265l145 48v-313h443v-103h-443v-639c0 -148 80 -216 241 -216c96 0 196 18 300 65l-13 -108c-81 -43 -187 -68 -328 -68z" />
    <glyph glyph-name="uni0163.calt" horiz-adv-x="1061" 
d="M1026 157l-13 -108c-78 -42 -180 -66 -314 -68l-10 -82c177 -16 270 -55 270 -152c0 -88 -79 -138 -222 -138c-90 0 -177 16 -248 45l15 84c67 -29 148 -46 226 -46c84 0 130 24 130 64c0 55 -97 73 -266 83l17 146c-183 20 -271 120 -271 305v657h-245v103h245v265
l145 48v-313h443v-103h-443v-639c0 -148 80 -216 241 -216c96 0 196 18 300 65z" />
    <glyph glyph-name="uni021B.calt" horiz-adv-x="1061" 
d="M685 -19c-233 0 -345 101 -345 309v657h-245v103h245v265l145 48v-313h443v-103h-443v-639c0 -148 80 -216 241 -216c96 0 196 18 300 65l-13 -108c-81 -43 -187 -68 -328 -68zM576 -411l-9 55c72 4 94 32 94 99h-93v138h181v-112c0 -119 -40 -168 -173 -180z" />
    <glyph glyph-name="zero.slashed" horiz-adv-x="1713" 
d="M852 1421c441 0 683 -254 683 -717v-4c0 -466 -242 -721 -683 -721c-436 0 -675 255 -675 721v4c0 463 239 717 675 717zM334 705v-6c0 -60 4 -115 11 -166l1006 426c-63 237 -227 351 -499 351c-350 0 -518 -194 -518 -605zM1379 699v6c0 56 -3 107 -9 155l-1006 -425
c63 -233 224 -345 488 -345c355 0 527 196 527 609z" />
    <glyph glyph-name="zero" unicode="0" horiz-adv-x="1713" 
d="M852 -21c-436 0 -675 255 -675 721v4c0 463 239 717 675 717c441 0 683 -254 683 -717v-4c0 -466 -242 -721 -683 -721zM852 90c355 0 527 196 527 609v6c0 411 -172 605 -527 605c-350 0 -518 -194 -518 -605v-6c0 -413 168 -609 518 -609z" />
    <glyph glyph-name="one" unicode="1" horiz-adv-x="934" 
d="M699 0h-150v993h-436v92c441 5 448 12 479 315h107v-1400z" />
    <glyph glyph-name="two" unicode="2" horiz-adv-x="1386" 
d="M1296 0h-1190v90c797 542 1001 716 1001 931c0 195 -124 289 -391 289c-306 0 -448 -145 -433 -444l-152 46c-7 326 201 509 587 509c352 0 545 -138 545 -387c0 -268 -187 -420 -910 -898l7 -29c55 3 111 4 167 4h769v-111z" />
    <glyph glyph-name="three" unicode="3" horiz-adv-x="1579" 
d="M829 -21c-386 0 -624 170 -670 423l154 49c33 -229 204 -362 518 -362c304 0 449 101 449 317c0 182 -136 277 -383 279l-224 3v90l224 2c223 3 348 82 348 248c0 194 -141 283 -433 283c-289 0 -438 -106 -461 -299l-150 46c36 220 250 363 605 363
c381 0 590 -137 590 -387c0 -161 -98 -255 -283 -286v-28c215 -29 323 -137 323 -323c0 -270 -213 -418 -607 -418z" />
    <glyph glyph-name="four" unicode="4" horiz-adv-x="1454" 
d="M1135 0h-150v361h-891v85l843 954h198v-933h207v-106h-207v-361zM808 1086l-552 -619h729v504c0 79 5 202 18 325l-33 7c-48 -77 -111 -161 -162 -217z" />
    <glyph glyph-name="five" unicode="5" horiz-adv-x="1574" 
d="M815 -21c-381 0 -583 119 -652 317l150 59c38 -166 199 -266 501 -266c324 0 480 113 480 345c0 236 -159 349 -489 349c-243 0 -417 -66 -493 -184l-127 16l59 785h1144v-111h-1009l-44 -553c97 95 273 154 491 154c403 0 625 -161 625 -456s-225 -455 -636 -455z" />
    <glyph glyph-name="six" unicode="6" 
d="M834 1421c329 0 536 -138 587 -301l-147 -57c-30 133 -186 251 -442 251c-339 0 -510 -229 -510 -662c65 133 248 217 514 217c380 0 590 -161 590 -445c0 -287 -217 -445 -605 -445c-426 0 -644 202 -644 641v53c0 486 234 748 657 748zM797 763
c-288 0 -447 -113 -447 -321c0 -214 168 -356 465 -356c309 0 458 107 458 337s-156 340 -476 340z" />
    <glyph glyph-name="seven" unicode="7" horiz-adv-x="1333" 
d="M714 0h-150c14 538 189 1030 495 1289h-963v111h1141v-84c-337 -267 -508 -729 -523 -1316z" />
    <glyph glyph-name="eight" unicode="8" horiz-adv-x="1600" 
d="M800 -21c-425 0 -657 141 -657 399c0 199 136 321 367 342v28c-205 22 -327 134 -327 310c0 235 218 363 617 363s618 -128 618 -363c0 -176 -122 -288 -328 -310v-28c232 -21 368 -143 368 -342c0 -258 -233 -399 -658 -399zM800 783c316 0 469 86 469 269
c0 180 -153 262 -469 262s-469 -82 -469 -262c0 -183 153 -269 469 -269zM800 86c339 0 503 93 503 296s-164 299 -503 299s-502 -96 -502 -299s163 -296 502 -296z" />
    <glyph glyph-name="nine" unicode="9" 
d="M769 -21c-329 0 -536 138 -587 301l147 57c30 -133 187 -251 443 -251c338 0 509 229 509 662c-65 -133 -248 -217 -514 -217c-379 0 -590 161 -590 445c0 287 217 445 606 445c426 0 643 -202 643 -641v-53c0 -486 -234 -748 -657 -748zM806 637c289 0 447 113 447 321
c0 214 -167 356 -465 356c-308 0 -458 -107 -458 -337s156 -340 476 -340z" />
    <glyph glyph-name="zero.tf.slashed" horiz-adv-x="1760" 
d="M875 1421c428 0 634 -238 634 -717v-4c0 -481 -206 -721 -634 -721c-421 0 -624 240 -624 721v4c0 479 203 717 624 717zM407 705v-6c0 -56 2 -108 7 -156l918 407c-51 249 -196 359 -457 359c-328 0 -468 -180 -468 -604zM1353 699v6c0 52 -2 100 -6 144l-917 -406
c51 -244 193 -351 445 -351c335 0 478 181 478 607z" />
    <glyph glyph-name="zero.tf" horiz-adv-x="1760" 
d="M875 -21c-421 0 -624 240 -624 721v4c0 479 203 717 624 717c428 0 634 -238 634 -717v-4c0 -481 -206 -721 -634 -721zM875 92c335 0 478 181 478 607v6c0 424 -143 604 -478 604c-328 0 -468 -180 -468 -604v-6c0 -426 140 -607 468 -607z" />
    <glyph glyph-name="one.tf" horiz-adv-x="1760" 
d="M1543 0h-1326v112h616v881h-597v92c602 5 609 12 640 315h107v-1288h560v-112z" />
    <glyph glyph-name="two.tf" horiz-adv-x="1760" 
d="M1475 0h-1190v90c797 542 1001 716 1001 931c0 195 -124 289 -391 289c-306 0 -448 -145 -433 -444l-152 46c-7 326 201 509 587 509c352 0 545 -138 545 -387c0 -268 -187 -420 -910 -898l7 -29c55 3 111 4 167 4h769v-111z" />
    <glyph glyph-name="three.tf" horiz-adv-x="1760" 
d="M912 -21c-387 0 -625 170 -670 423l153 49c34 -229 204 -362 519 -362c304 0 448 101 448 317c0 182 -135 277 -383 279l-224 3v90l224 2c223 3 348 82 348 248c0 194 -141 283 -433 283c-289 0 -438 -106 -461 -299l-150 46c37 220 251 363 606 363
c381 0 589 -137 589 -387c0 -161 -98 -255 -283 -286v-28c216 -29 323 -137 323 -323c0 -270 -213 -418 -606 -418z" />
    <glyph glyph-name="four.tf" horiz-adv-x="1760" 
d="M1297 0h-150v361h-891v85l843 954h198v-933h208v-106h-208v-361zM971 1086l-553 -619h729v504c0 79 5 202 19 325l-33 7c-49 -77 -112 -161 -162 -217z" />
    <glyph glyph-name="five.tf" horiz-adv-x="1760" 
d="M888 -21c-380 0 -583 119 -652 317l150 59c38 -166 199 -266 502 -266c323 0 480 113 480 345c0 236 -160 349 -489 349c-243 0 -418 -66 -493 -184l-128 16l60 785h1143v-111h-1009l-44 -553c97 95 274 154 491 154c404 0 625 -161 625 -456s-224 -455 -636 -455z" />
    <glyph glyph-name="six.tf" horiz-adv-x="1760" 
d="M913 1421c329 0 536 -138 587 -301l-147 -57c-30 133 -187 251 -443 251c-338 0 -509 -229 -509 -662c65 133 248 217 514 217c380 0 590 -161 590 -445c0 -287 -217 -445 -605 -445c-427 0 -644 202 -644 641v53c0 486 234 748 657 748zM876 763
c-288 0 -447 -113 -447 -321c0 -214 167 -356 465 -356c308 0 458 107 458 337s-156 340 -476 340z" />
    <glyph glyph-name="seven.tf" horiz-adv-x="1760" 
d="M928 0h-150c14 538 189 1030 495 1289h-963v111h1141v-84c-337 -267 -508 -729 -523 -1316z" />
    <glyph glyph-name="eight.tf" horiz-adv-x="1760" 
d="M880 -21c-425 0 -657 141 -657 399c0 199 135 321 367 342v28c-205 22 -327 134 -327 310c0 235 218 363 617 363s617 -128 617 -363c0 -176 -122 -288 -327 -310v-28c231 -21 367 -143 367 -342c0 -258 -232 -399 -657 -399zM880 783c316 0 469 86 469 269
c0 180 -153 262 -469 262s-469 -82 -469 -262c0 -183 153 -269 469 -269zM880 86c339 0 502 93 502 296s-163 299 -502 299s-502 -96 -502 -299s163 -296 502 -296z" />
    <glyph glyph-name="nine.tf" horiz-adv-x="1760" 
d="M848 -21c-329 0 -536 138 -587 301l147 57c30 -133 187 -251 442 -251c339 0 510 229 510 662c-65 -133 -248 -217 -514 -217c-380 0 -590 161 -590 445c0 287 217 445 605 445c426 0 644 -202 644 -641v-53c0 -486 -234 -748 -657 -748zM885 637c288 0 447 113 447 321
c0 214 -168 356 -465 356c-309 0 -458 -107 -458 -337s156 -340 476 -340z" />
    <glyph glyph-name="uni24EA" unicode="&#x24ea;" horiz-adv-x="1900" 
d="M950 -70c-439 0 -770 331 -770 770s331 770 770 770s770 -331 770 -770s-331 -770 -770 -770zM950 10c393 0 690 297 690 690s-297 690 -690 690s-690 -297 -690 -690s297 -690 690 -690zM947 268c-263 0 -404 152 -404 432v2c0 280 141 431 404 431
c265 0 410 -151 410 -431v-2c0 -280 -144 -432 -410 -432zM947 354c191 0 283 112 283 340v15c0 227 -92 338 -283 338c-187 0 -278 -111 -278 -338v-15c0 -207 73 -340 278 -340z" />
    <glyph glyph-name="uni2460" unicode="&#x2460;" horiz-adv-x="1900" 
d="M950 -70c-439 0 -770 331 -770 770s331 770 770 770s770 -331 770 -770s-331 -770 -770 -770zM950 10c393 0 690 297 690 690s-297 690 -690 690s-690 -297 -690 -690s297 -690 690 -690zM1301 282h-703v90h316v485h-303v79c302 4 314 9 332 183h95v-747h263v-90z" />
    <glyph glyph-name="uni2461" unicode="&#x2461;" horiz-adv-x="1900" 
d="M950 -70c-439 0 -770 331 -770 770s331 770 770 770s770 -331 770 -770s-331 -770 -770 -770zM950 10c393 0 690 297 690 690s-297 690 -690 690s-690 -297 -690 -690s297 -690 690 -690zM1312 282h-726v79c465 296 583 389 583 519c0 115 -70 168 -215 168
c-148 0 -226 -72 -236 -211l-124 27c13 166 143 269 361 269s338 -83 338 -244c0 -157 -117 -250 -532 -499l5 -20c35 2 69 2 103 2h443v-90z" />
    <glyph glyph-name="uni2462" unicode="&#x2462;" horiz-adv-x="1900" 
d="M950 -70c-439 0 -770 331 -770 770s331 770 770 770s770 -331 770 -770s-331 -770 -770 -770zM950 10c393 0 690 297 690 690s-297 690 -690 690s-690 -297 -690 -690s297 -690 690 -690zM973 267c-238 0 -382 103 -410 262l126 30c20 -132 111 -208 285 -208
c162 0 235 60 235 178c0 106 -87 149 -197 151l-110 2v71l109 2c117 2 180 49 180 137c0 105 -76 157 -234 157c-155 0 -236 -68 -249 -180l-123 29c19 142 150 234 371 234c235 0 357 -82 357 -233c0 -96 -57 -152 -173 -168v-27c135 -15 197 -77 197 -186
c0 -166 -129 -251 -364 -251z" />
    <glyph glyph-name="uni2463" unicode="&#x2463;" horiz-adv-x="1900" 
d="M950 -70c-439 0 -770 331 -770 770s331 770 770 770s770 -331 770 -770s-331 -770 -770 -770zM950 10c393 0 690 297 690 690s-297 690 -690 690s-690 -297 -690 -690s297 -690 690 -690zM1148 282h-123v201h-515v72l480 564h158v-549h182v-87h-182v-201zM942 921
l-301 -351h384v311c0 39 2 85 9 134l-24 3c-20 -35 -42 -65 -68 -97z" />
    <glyph glyph-name="uni2464" unicode="&#x2464;" horiz-adv-x="1900" 
d="M950 -70c-439 0 -770 331 -770 770s331 770 770 770s770 -331 770 -770s-331 -770 -770 -770zM950 10c393 0 690 297 690 690s-297 690 -690 690s-690 -297 -690 -690s297 -690 690 -690zM954 268c-230 0 -359 75 -390 178l124 40c23 -78 108 -134 265 -134
c173 0 258 59 258 194c0 136 -84 202 -261 202c-130 0 -217 -36 -263 -112l-112 18l33 465h694v-92h-582l-23 -273c65 53 153 75 276 75c238 0 366 -102 366 -283c0 -184 -135 -278 -385 -278z" />
    <glyph glyph-name="uni2465" unicode="&#x2465;" horiz-adv-x="1900" 
d="M950 -70c-439 0 -770 331 -770 770s331 770 770 770s770 -331 770 -770s-331 -770 -770 -770zM950 10c393 0 690 297 690 690s-297 690 -690 690s-690 -297 -690 -690s297 -690 690 -690zM967 1133c199 0 322 -88 351 -186l-106 -49c-34 86 -119 151 -248 151
c-177 0 -276 -117 -276 -340v-3c50 60 155 102 297 102c225 0 346 -100 346 -271c0 -175 -129 -269 -371 -269c-260 0 -391 120 -391 361v52c0 292 132 452 398 452zM948 727c-154 0 -252 -70 -252 -180c0 -125 103 -196 261 -196c168 0 249 60 249 185
c0 126 -85 191 -258 191z" />
    <glyph glyph-name="uni2466" unicode="&#x2466;" horiz-adv-x="1900" 
d="M950 -70c-439 0 -770 331 -770 770s331 770 770 770s770 -331 770 -770s-331 -770 -770 -770zM950 10c393 0 690 297 690 690s-297 690 -690 690s-690 -297 -690 -690s297 -690 690 -690zM994 281h-124c6 315 105 594 293 746h-565v91h703v-69
c-186 -158 -300 -419 -307 -768z" />
    <glyph glyph-name="uni2467" unicode="&#x2467;" horiz-adv-x="1900" 
d="M950 -70c-439 0 -770 331 -770 770s331 770 770 770s770 -331 770 -770s-331 -770 -770 -770zM950 10c393 0 690 297 690 690s-297 690 -690 690s-690 -297 -690 -690s297 -690 690 -690zM950 268c-255 0 -398 88 -398 242c0 115 74 188 207 198v23
c-117 12 -183 77 -183 180c0 142 134 222 374 222c239 0 373 -80 373 -222c0 -102 -65 -167 -183 -180v-23c133 -10 208 -83 208 -198c0 -154 -144 -242 -398 -242zM950 758c170 0 253 48 253 147c0 97 -83 145 -253 145s-254 -48 -254 -145c0 -99 84 -147 254 -147z
M950 352c182 0 271 53 271 162s-89 164 -271 164s-272 -55 -272 -164s90 -162 272 -162z" />
    <glyph glyph-name="uni2468" unicode="&#x2468;" horiz-adv-x="1900" 
d="M950 -70c-439 0 -770 331 -770 770s331 770 770 770s770 -331 770 -770s-331 -770 -770 -770zM950 10c393 0 690 297 690 690s-297 690 -690 690s-690 -297 -690 -690s297 -690 690 -690zM933 267c-199 0 -322 88 -351 186l106 49c34 -85 119 -151 248 -151
c178 0 277 117 277 340v3c-50 -60 -156 -102 -298 -102c-225 0 -346 101 -346 271c0 175 129 269 371 269c260 0 391 -120 391 -361v-52c0 -292 -132 -452 -398 -452zM952 673c154 0 252 70 252 181c0 124 -103 195 -261 195c-168 0 -249 -59 -249 -185
c0 -125 85 -191 258 -191z" />
    <glyph glyph-name="uni24FF" unicode="&#x24ff;" horiz-adv-x="1900" 
d="M950 -70c439 0 770 331 770 770s-331 770 -770 770s-770 -331 -770 -770s331 -770 770 -770zM947 268c-263 0 -404 152 -404 432v2c0 280 141 431 404 431c265 0 410 -151 410 -431v-2c0 -280 -144 -432 -410 -432zM947 354c191 0 283 112 283 340v15
c0 227 -92 338 -283 338c-187 0 -278 -111 -278 -338v-15c0 -207 73 -340 278 -340z" />
    <glyph glyph-name="uni2776" unicode="&#x2776;" horiz-adv-x="1900" 
d="M950 -70c439 0 770 331 770 770s-331 770 -770 770s-770 -331 -770 -770s331 -770 770 -770zM1301 282h-703v90h316v485h-303v79c302 4 314 9 332 183h95v-747h263v-90z" />
    <glyph glyph-name="uni2777" unicode="&#x2777;" horiz-adv-x="1900" 
d="M950 -70c439 0 770 331 770 770s-331 770 -770 770s-770 -331 -770 -770s331 -770 770 -770zM1312 282h-726v79c465 296 583 389 583 519c0 115 -70 168 -215 168c-148 0 -226 -72 -236 -211l-124 27c13 166 143 269 361 269s338 -83 338 -244
c0 -157 -117 -250 -532 -499l5 -20c35 2 69 2 103 2h443v-90z" />
    <glyph glyph-name="uni2778" unicode="&#x2778;" horiz-adv-x="1900" 
d="M950 -70c439 0 770 331 770 770s-331 770 -770 770s-770 -331 -770 -770s331 -770 770 -770zM973 267c-238 0 -382 103 -410 262l126 30c20 -132 111 -208 285 -208c162 0 235 60 235 178c0 106 -87 149 -197 151l-110 2v71l109 2c117 2 180 49 180 137
c0 105 -76 157 -234 157c-155 0 -236 -68 -249 -180l-123 29c19 142 150 234 371 234c235 0 357 -82 357 -233c0 -96 -57 -152 -173 -168v-27c135 -15 197 -77 197 -186c0 -166 -129 -251 -364 -251z" />
    <glyph glyph-name="uni2779" unicode="&#x2779;" horiz-adv-x="1900" 
d="M950 -70c439 0 770 331 770 770s-331 770 -770 770s-770 -331 -770 -770s331 -770 770 -770zM1148 282h-123v201h-515v72l480 564h158v-549h182v-87h-182v-201zM942 921l-301 -351h384v311c0 39 2 85 9 134l-24 3c-20 -35 -42 -65 -68 -97z" />
    <glyph glyph-name="uni277A" unicode="&#x277a;" horiz-adv-x="1900" 
d="M950 -70c439 0 770 331 770 770s-331 770 -770 770s-770 -331 -770 -770s331 -770 770 -770zM954 268c-230 0 -359 75 -390 178l124 40c23 -78 108 -134 265 -134c173 0 258 59 258 194c0 136 -84 202 -261 202c-130 0 -217 -36 -263 -112l-112 18l33 465h694v-92h-582
l-23 -273c65 53 153 75 276 75c238 0 366 -102 366 -283c0 -184 -135 -278 -385 -278z" />
    <glyph glyph-name="uni277B" unicode="&#x277b;" horiz-adv-x="1900" 
d="M950 -70c439 0 770 331 770 770s-331 770 -770 770s-770 -331 -770 -770s331 -770 770 -770zM967 1133c199 0 322 -88 351 -186l-106 -49c-34 86 -119 151 -248 151c-177 0 -276 -117 -276 -340v-3c50 60 155 102 297 102c225 0 346 -100 346 -271
c0 -175 -129 -269 -371 -269c-260 0 -391 120 -391 361v52c0 292 132 452 398 452zM948 727c-154 0 -252 -70 -252 -180c0 -125 103 -196 261 -196c168 0 249 60 249 185c0 126 -85 191 -258 191z" />
    <glyph glyph-name="uni277C" unicode="&#x277c;" horiz-adv-x="1900" 
d="M950 -70c439 0 770 331 770 770s-331 770 -770 770s-770 -331 -770 -770s331 -770 770 -770zM994 281h-124c6 315 105 594 293 746h-565v91h703v-69c-186 -158 -300 -419 -307 -768z" />
    <glyph glyph-name="uni277D" unicode="&#x277d;" horiz-adv-x="1900" 
d="M950 -70c439 0 770 331 770 770s-331 770 -770 770s-770 -331 -770 -770s331 -770 770 -770zM950 268c-255 0 -398 88 -398 242c0 115 74 188 207 198v23c-117 12 -183 77 -183 180c0 142 134 222 374 222c239 0 373 -80 373 -222c0 -102 -65 -167 -183 -180v-23
c133 -10 208 -83 208 -198c0 -154 -144 -242 -398 -242zM950 758c170 0 253 48 253 147c0 97 -83 145 -253 145s-254 -48 -254 -145c0 -99 84 -147 254 -147zM950 352c182 0 271 53 271 162s-89 164 -271 164s-272 -55 -272 -164s90 -162 272 -162z" />
    <glyph glyph-name="uni277E" unicode="&#x277e;" horiz-adv-x="1900" 
d="M950 -70c439 0 770 331 770 770s-331 770 -770 770s-770 -331 -770 -770s331 -770 770 -770zM933 267c-199 0 -322 88 -351 186l106 49c34 -85 119 -151 248 -151c178 0 277 117 277 340v3c-50 -60 -156 -102 -298 -102c-225 0 -346 101 -346 271c0 175 129 269 371 269
c260 0 391 -120 391 -361v-52c0 -292 -132 -452 -398 -452zM952 673c154 0 252 70 252 181c0 124 -103 195 -261 195c-168 0 -249 -59 -249 -185c0 -125 85 -191 258 -191z" />
    <glyph glyph-name="uni2460.init" 
d="M1605 -20h-675c-427 0 -750 310 -750 720s323 720 750 720h675v-75h-675c-382 0 -670 -277 -670 -645s288 -645 670 -645h675v-75zM1408 282h-703v90h316v485h-303v79c302 4 314 9 332 183h95v-747h263v-90z" />
    <glyph glyph-name="uni2460.medi" horiz-adv-x="1093" 
d="M1095 1345h-1097v75h1097v-75zM897 282h-703v90h316v485h-303v79c302 4 314 9 332 183h95v-747h263v-90zM1095 -20h-1097v75h1097v-75z" />
    <glyph glyph-name="uni2460.fina" 
d="M-2 1420h675c427 0 750 -310 750 -720s-323 -720 -750 -720h-675v75h675c382 0 670 277 670 645s-288 645 -670 645h-675v75zM897 282h-703v90h316v485h-303v79c302 4 314 9 332 183h95v-747h263v-90z" />
    <glyph glyph-name="uni2461.init" 
d="M1605 -20h-675c-427 0 -750 310 -750 720s323 720 750 720h675v-75h-675c-382 0 -670 -277 -670 -645s288 -645 670 -645h675v-75zM1419 282h-726v79c465 296 583 389 583 519c0 115 -70 168 -215 168c-148 0 -226 -72 -236 -211l-124 27c13 166 143 269 361 269
s338 -83 338 -244c0 -157 -117 -250 -532 -499l5 -20c35 2 69 2 103 2h443v-90z" />
    <glyph glyph-name="uni2461.medi" horiz-adv-x="1093" 
d="M1095 1345h-1097v75h1097v-75zM908 282h-726v79c465 296 583 389 583 519c0 115 -70 168 -215 168c-148 0 -226 -72 -236 -211l-124 27c13 166 143 269 361 269s338 -83 338 -244c0 -157 -117 -250 -532 -499l5 -20c35 2 69 2 103 2h443v-90zM1095 -20h-1097v75h1097v-75
z" />
    <glyph glyph-name="uni2461.fina" 
d="M-2 1420h675c427 0 750 -310 750 -720s-323 -720 -750 -720h-675v75h675c382 0 670 277 670 645s-288 645 -670 645h-675v75zM908 282h-726v79c465 296 583 389 583 519c0 115 -70 168 -215 168c-148 0 -226 -72 -236 -211l-124 27c13 166 143 269 361 269
s338 -83 338 -244c0 -157 -117 -250 -532 -499l5 -20c35 2 69 2 103 2h443v-90z" />
    <glyph glyph-name="uni2462.init" 
d="M1605 -20h-675c-427 0 -750 310 -750 720s323 720 750 720h675v-75h-675c-382 0 -670 -277 -670 -645s288 -645 670 -645h675v-75zM1080 267c-238 0 -382 103 -410 262l126 30c20 -132 111 -208 285 -208c162 0 235 60 235 178c0 106 -87 149 -197 151l-110 2v71l109 2
c117 2 180 49 180 137c0 105 -76 157 -234 157c-155 0 -236 -68 -249 -180l-123 29c19 142 150 234 371 234c235 0 357 -82 357 -233c0 -96 -57 -152 -173 -168v-27c135 -15 197 -77 197 -186c0 -166 -129 -251 -364 -251z" />
    <glyph glyph-name="uni2462.medi" horiz-adv-x="1093" 
d="M1095 1345h-1097v75h1097v-75zM569 267c-238 0 -382 103 -410 262l126 30c20 -132 111 -208 285 -208c162 0 235 60 235 178c0 106 -87 149 -197 151l-110 2v71l109 2c117 2 180 49 180 137c0 105 -76 157 -234 157c-155 0 -236 -68 -249 -180l-123 29
c19 142 150 234 371 234c235 0 357 -82 357 -233c0 -96 -57 -152 -173 -168v-27c135 -15 197 -77 197 -186c0 -166 -129 -251 -364 -251zM1095 -20h-1097v75h1097v-75z" />
    <glyph glyph-name="uni2462.fina" 
d="M-2 1420h675c427 0 750 -310 750 -720s-323 -720 -750 -720h-675v75h675c382 0 670 277 670 645s-288 645 -670 645h-675v75zM569 267c-238 0 -382 103 -410 262l126 30c20 -132 111 -208 285 -208c162 0 235 60 235 178c0 106 -87 149 -197 151l-110 2v71l109 2
c117 2 180 49 180 137c0 105 -76 157 -234 157c-155 0 -236 -68 -249 -180l-123 29c19 142 150 234 371 234c235 0 357 -82 357 -233c0 -96 -57 -152 -173 -168v-27c135 -15 197 -77 197 -186c0 -166 -129 -251 -364 -251z" />
    <glyph glyph-name="uni2463.init" 
d="M1605 -20h-675c-427 0 -750 310 -750 720s323 720 750 720h675v-75h-675c-382 0 -670 -277 -670 -645s288 -645 670 -645h675v-75zM1255 282h-123v201h-515v72l480 564h158v-549h182v-87h-182v-201zM1049 921l-301 -351h384v311c0 39 2 85 9 134l-24 3
c-20 -35 -42 -65 -68 -97z" />
    <glyph glyph-name="uni2463.medi" horiz-adv-x="1093" 
d="M1095 1345h-1097v75h1097v-75zM745 282h-123v201h-515v72l480 564h158v-549h182v-87h-182v-201zM539 921l-301 -351h384v311c0 39 2 85 9 134l-24 3c-20 -35 -42 -65 -68 -97zM1095 -20h-1097v75h1097v-75z" />
    <glyph glyph-name="uni2463.fina" 
d="M-2 1420h675c427 0 750 -310 750 -720s-323 -720 -750 -720h-675v75h675c382 0 670 277 670 645s-288 645 -670 645h-675v75zM745 282h-123v201h-515v72l480 564h158v-549h182v-87h-182v-201zM539 921l-301 -351h384v311c0 39 2 85 9 134l-24 3c-20 -35 -42 -65 -68 -97z
" />
    <glyph glyph-name="uni2464.init" 
d="M1605 -20h-675c-427 0 -750 310 -750 720s323 720 750 720h675v-75h-675c-382 0 -670 -277 -670 -645s288 -645 670 -645h675v-75zM1061 268c-230 0 -359 75 -390 178l124 40c23 -78 108 -134 265 -134c173 0 258 59 258 194c0 136 -84 202 -261 202
c-130 0 -217 -36 -263 -112l-112 18l33 465h694v-92h-582l-23 -273c65 53 153 75 276 75c238 0 366 -102 366 -283c0 -184 -135 -278 -385 -278z" />
    <glyph glyph-name="uni2464.medi" horiz-adv-x="1093" 
d="M1095 1345h-1097v75h1097v-75zM550 268c-230 0 -359 75 -390 178l124 40c23 -78 108 -134 265 -134c173 0 258 59 258 194c0 136 -84 202 -261 202c-130 0 -217 -36 -263 -112l-112 18l33 465h694v-92h-582l-23 -273c65 53 153 75 276 75c238 0 366 -102 366 -283
c0 -184 -135 -278 -385 -278zM1095 -20h-1097v75h1097v-75z" />
    <glyph glyph-name="uni2464.fina" 
d="M-2 1420h675c427 0 750 -310 750 -720s-323 -720 -750 -720h-675v75h675c382 0 670 277 670 645s-288 645 -670 645h-675v75zM550 268c-230 0 -359 75 -390 178l124 40c23 -78 108 -134 265 -134c173 0 258 59 258 194c0 136 -84 202 -261 202c-130 0 -217 -36 -263 -112
l-112 18l33 465h694v-92h-582l-23 -273c65 53 153 75 276 75c238 0 366 -102 366 -283c0 -184 -135 -278 -385 -278z" />
    <glyph glyph-name="uni2465.init" 
d="M1605 -20h-675c-427 0 -750 310 -750 720s323 720 750 720h675v-75h-675c-382 0 -670 -277 -670 -645s288 -645 670 -645h675v-75zM1074 1133c199 0 322 -88 351 -186l-106 -49c-34 86 -119 151 -248 151c-177 0 -276 -117 -276 -340v-3c50 60 155 102 297 102
c225 0 346 -100 346 -271c0 -175 -129 -269 -371 -269c-260 0 -391 120 -391 361v52c0 292 132 452 398 452zM1055 727c-154 0 -252 -70 -252 -180c0 -125 103 -196 261 -196c168 0 249 60 249 185c0 126 -85 191 -258 191z" />
    <glyph glyph-name="uni2465.medi" horiz-adv-x="1093" 
d="M1095 1345h-1097v75h1097v-75zM564 1133c199 0 322 -88 351 -186l-106 -49c-34 86 -119 151 -248 151c-177 0 -276 -117 -276 -340v-3c50 60 155 102 297 102c225 0 346 -100 346 -271c0 -175 -129 -269 -371 -269c-260 0 -391 120 -391 361v52c0 292 132 452 398 452z
M545 727c-154 0 -252 -70 -252 -180c0 -125 103 -196 261 -196c168 0 249 60 249 185c0 126 -85 191 -258 191zM1095 -20h-1097v75h1097v-75z" />
    <glyph glyph-name="uni2465.fina" 
d="M-2 1420h675c427 0 750 -310 750 -720s-323 -720 -750 -720h-675v75h675c382 0 670 277 670 645s-288 645 -670 645h-675v75zM564 1133c199 0 322 -88 351 -186l-106 -49c-34 86 -119 151 -248 151c-177 0 -276 -117 -276 -340v-3c50 60 155 102 297 102
c225 0 346 -100 346 -271c0 -175 -129 -269 -371 -269c-260 0 -391 120 -391 361v52c0 292 132 452 398 452zM545 727c-154 0 -252 -70 -252 -180c0 -125 103 -196 261 -196c168 0 249 60 249 185c0 126 -85 191 -258 191z" />
    <glyph glyph-name="uni2466.init" 
d="M1605 -20h-675c-427 0 -750 310 -750 720s323 720 750 720h675v-75h-675c-382 0 -670 -277 -670 -645s288 -645 670 -645h675v-75zM1101 281h-124c6 315 105 594 293 746h-565v91h703v-69c-186 -158 -300 -419 -307 -768z" />
    <glyph glyph-name="uni2466.medi" horiz-adv-x="1093" 
d="M1095 1345h-1097v75h1097v-75zM590 281h-124c6 315 105 594 293 746h-565v91h703v-69c-186 -158 -300 -419 -307 -768zM1095 -20h-1097v75h1097v-75z" />
    <glyph glyph-name="uni2466.fina" 
d="M-2 1420h675c427 0 750 -310 750 -720s-323 -720 -750 -720h-675v75h675c382 0 670 277 670 645s-288 645 -670 645h-675v75zM590 281h-124c6 315 105 594 293 746h-565v91h703v-69c-186 -158 -300 -419 -307 -768z" />
    <glyph glyph-name="uni2467.init" 
d="M1605 -20h-675c-427 0 -750 310 -750 720s323 720 750 720h675v-75h-675c-382 0 -670 -277 -670 -645s288 -645 670 -645h675v-75zM1057 268c-255 0 -398 88 -398 242c0 115 74 188 207 198v23c-117 12 -183 77 -183 180c0 142 134 222 374 222c239 0 373 -80 373 -222
c0 -102 -65 -167 -183 -180v-23c133 -10 208 -83 208 -198c0 -154 -144 -242 -398 -242zM1057 758c170 0 253 48 253 147c0 97 -83 145 -253 145s-254 -48 -254 -145c0 -99 84 -147 254 -147zM1057 352c182 0 271 53 271 162s-89 164 -271 164s-272 -55 -272 -164
s90 -162 272 -162z" />
    <glyph glyph-name="uni2467.medi" horiz-adv-x="1093" 
d="M1095 1345h-1097v75h1097v-75zM546 268c-255 0 -398 88 -398 242c0 115 74 188 207 198v23c-117 12 -183 77 -183 180c0 142 134 222 374 222c239 0 373 -80 373 -222c0 -102 -65 -167 -183 -180v-23c133 -10 208 -83 208 -198c0 -154 -144 -242 -398 -242zM546 758
c170 0 253 48 253 147c0 97 -83 145 -253 145s-254 -48 -254 -145c0 -99 84 -147 254 -147zM546 352c182 0 271 53 271 162s-89 164 -271 164s-272 -55 -272 -164s90 -162 272 -162zM1095 -20h-1097v75h1097v-75z" />
    <glyph glyph-name="uni2467.fina" 
d="M-2 1420h675c427 0 750 -310 750 -720s-323 -720 -750 -720h-675v75h675c382 0 670 277 670 645s-288 645 -670 645h-675v75zM546 268c-255 0 -398 88 -398 242c0 115 74 188 207 198v23c-117 12 -183 77 -183 180c0 142 134 222 374 222c239 0 373 -80 373 -222
c0 -102 -65 -167 -183 -180v-23c133 -10 208 -83 208 -198c0 -154 -144 -242 -398 -242zM546 758c170 0 253 48 253 147c0 97 -83 145 -253 145s-254 -48 -254 -145c0 -99 84 -147 254 -147zM546 352c182 0 271 53 271 162s-89 164 -271 164s-272 -55 -272 -164
s90 -162 272 -162z" />
    <glyph glyph-name="uni2468.init" 
d="M1605 -20h-675c-427 0 -750 310 -750 720s323 720 750 720h675v-75h-675c-382 0 -670 -277 -670 -645s288 -645 670 -645h675v-75zM1040 267c-199 0 -322 88 -351 186l106 49c34 -85 119 -151 248 -151c178 0 277 117 277 340v3c-50 -60 -156 -102 -298 -102
c-225 0 -346 101 -346 271c0 175 129 269 371 269c260 0 391 -120 391 -361v-52c0 -292 -132 -452 -398 -452zM1059 673c154 0 252 70 252 181c0 124 -103 195 -261 195c-168 0 -249 -59 -249 -185c0 -125 85 -191 258 -191z" />
    <glyph glyph-name="uni2468.medi" horiz-adv-x="1093" 
d="M1095 1345h-1097v75h1097v-75zM529 267c-199 0 -322 88 -351 186l106 49c34 -85 119 -151 248 -151c178 0 277 117 277 340v3c-50 -60 -156 -102 -298 -102c-225 0 -346 101 -346 271c0 175 129 269 371 269c260 0 391 -120 391 -361v-52c0 -292 -132 -452 -398 -452z
M548 673c154 0 252 70 252 181c0 124 -103 195 -261 195c-168 0 -249 -59 -249 -185c0 -125 85 -191 258 -191zM1095 -20h-1097v75h1097v-75z" />
    <glyph glyph-name="uni2468.fina" 
d="M-2 1420h675c427 0 750 -310 750 -720s-323 -720 -750 -720h-675v75h675c382 0 670 277 670 645s-288 645 -670 645h-675v75zM529 267c-199 0 -322 88 -351 186l106 49c34 -85 119 -151 248 -151c178 0 277 117 277 340v3c-50 -60 -156 -102 -298 -102
c-225 0 -346 101 -346 271c0 175 129 269 371 269c260 0 391 -120 391 -361v-52c0 -292 -132 -452 -398 -452zM548 673c154 0 252 70 252 181c0 124 -103 195 -261 195c-168 0 -249 -59 -249 -185c0 -125 85 -191 258 -191z" />
    <glyph glyph-name="uni24EA.init" 
d="M1605 -20h-675c-427 0 -750 310 -750 720s323 720 750 720h675v-75h-675c-382 0 -670 -277 -670 -645s288 -645 670 -645h675v-75zM1054 268c-263 0 -404 152 -404 432v2c0 280 141 431 404 431c265 0 410 -151 410 -431v-2c0 -280 -144 -432 -410 -432zM1054 354
c191 0 283 112 283 340v15c0 227 -92 338 -283 338c-187 0 -278 -111 -278 -338v-15c0 -207 73 -340 278 -340z" />
    <glyph glyph-name="uni24EA.medi" horiz-adv-x="1093" 
d="M1095 1345h-1097v75h1097v-75zM543 268c-263 0 -404 152 -404 432v2c0 280 141 431 404 431c265 0 410 -151 410 -431v-2c0 -280 -144 -432 -410 -432zM543 354c191 0 283 112 283 340v15c0 227 -92 338 -283 338c-187 0 -278 -111 -278 -338v-15
c0 -207 73 -340 278 -340zM1095 -20h-1097v75h1097v-75z" />
    <glyph glyph-name="uni24EA.fina" 
d="M-2 1420h675c427 0 750 -310 750 -720s-323 -720 -750 -720h-675v75h675c382 0 670 277 670 645s-288 645 -670 645h-675v75zM543 268c-263 0 -404 152 -404 432v2c0 280 141 431 404 431c265 0 410 -151 410 -431v-2c0 -280 -144 -432 -410 -432zM543 354
c191 0 283 112 283 340v15c0 227 -92 338 -283 338c-187 0 -278 -111 -278 -338v-15c0 -207 73 -340 278 -340z" />
    <glyph glyph-name="uni2776.init" 
d="M930 -20h675v1440h-675c-427 0 -750 -310 -750 -720s323 -720 750 -720zM1408 282h-703v90h316v485h-303v79c302 4 314 9 332 183h95v-747h263v-90z" />
    <glyph glyph-name="uni2776.medi" horiz-adv-x="1093" 
d="M-2 1420v-1440h1097v1440h-1097zM897 282h-703v90h316v485h-303v79c302 4 314 9 332 183h95v-747h263v-90z" />
    <glyph glyph-name="uni2776.fina" 
d="M673 1420h-675v-1440h675c427 0 750 310 750 720s-323 720 -750 720zM897 282h-703v90h316v485h-303v79c302 4 314 9 332 183h95v-747h263v-90z" />
    <glyph glyph-name="uni2777.init" 
d="M930 -20h675v1440h-675c-427 0 -750 -310 -750 -720s323 -720 750 -720zM1419 282h-726v79c465 296 583 389 583 519c0 115 -70 168 -215 168c-148 0 -226 -72 -236 -211l-124 27c13 166 143 269 361 269s338 -83 338 -244c0 -157 -117 -250 -532 -499l5 -20
c35 2 69 2 103 2h443v-90z" />
    <glyph glyph-name="uni2777.medi" horiz-adv-x="1093" 
d="M-2 1420v-1440h1097v1440h-1097zM908 282h-726v79c465 296 583 389 583 519c0 115 -70 168 -215 168c-148 0 -226 -72 -236 -211l-124 27c13 166 143 269 361 269s338 -83 338 -244c0 -157 -117 -250 -532 -499l5 -20c35 2 69 2 103 2h443v-90z" />
    <glyph glyph-name="uni2777.fina" 
d="M673 1420h-675v-1440h675c427 0 750 310 750 720s-323 720 -750 720zM908 282h-726v79c465 296 583 389 583 519c0 115 -70 168 -215 168c-148 0 -226 -72 -236 -211l-124 27c13 166 143 269 361 269s338 -83 338 -244c0 -157 -117 -250 -532 -499l5 -20c35 2 69 2 103 2
h443v-90z" />
    <glyph glyph-name="uni2778.init" 
d="M930 -20h675v1440h-675c-427 0 -750 -310 -750 -720s323 -720 750 -720zM1080 267c-238 0 -382 103 -410 262l126 30c20 -132 111 -208 285 -208c162 0 235 60 235 178c0 106 -87 149 -197 151l-110 2v71l109 2c117 2 180 49 180 137c0 105 -76 157 -234 157
c-155 0 -236 -68 -249 -180l-123 29c19 142 150 234 371 234c235 0 357 -82 357 -233c0 -96 -57 -152 -173 -168v-27c135 -15 197 -77 197 -186c0 -166 -129 -251 -364 -251z" />
    <glyph glyph-name="uni2778.medi" horiz-adv-x="1093" 
d="M-2 1420v-1440h1097v1440h-1097zM569 267c-238 0 -382 103 -410 262l126 30c20 -132 111 -208 285 -208c162 0 235 60 235 178c0 106 -87 149 -197 151l-110 2v71l109 2c117 2 180 49 180 137c0 105 -76 157 -234 157c-155 0 -236 -68 -249 -180l-123 29
c19 142 150 234 371 234c235 0 357 -82 357 -233c0 -96 -57 -152 -173 -168v-27c135 -15 197 -77 197 -186c0 -166 -129 -251 -364 -251z" />
    <glyph glyph-name="uni2778.fina" 
d="M673 1420h-675v-1440h675c427 0 750 310 750 720s-323 720 -750 720zM569 267c-238 0 -382 103 -410 262l126 30c20 -132 111 -208 285 -208c162 0 235 60 235 178c0 106 -87 149 -197 151l-110 2v71l109 2c117 2 180 49 180 137c0 105 -76 157 -234 157
c-155 0 -236 -68 -249 -180l-123 29c19 142 150 234 371 234c235 0 357 -82 357 -233c0 -96 -57 -152 -173 -168v-27c135 -15 197 -77 197 -186c0 -166 -129 -251 -364 -251z" />
    <glyph glyph-name="uni2779.init" 
d="M930 -20h675v1440h-675c-427 0 -750 -310 -750 -720s323 -720 750 -720zM1255 282h-123v201h-515v72l480 564h158v-549h182v-87h-182v-201zM1049 921l-301 -351h384v311c0 39 2 85 9 134l-24 3c-20 -35 -42 -65 -68 -97z" />
    <glyph glyph-name="uni2779.medi" horiz-adv-x="1093" 
d="M-2 1420v-1440h1097v1440h-1097zM745 282h-123v201h-515v72l480 564h158v-549h182v-87h-182v-201zM539 921l-301 -351h384v311c0 39 2 85 9 134l-24 3c-20 -35 -42 -65 -68 -97z" />
    <glyph glyph-name="uni2779.fina" 
d="M673 1420h-675v-1440h675c427 0 750 310 750 720s-323 720 -750 720zM745 282h-123v201h-515v72l480 564h158v-549h182v-87h-182v-201zM539 921l-301 -351h384v311c0 39 2 85 9 134l-24 3c-20 -35 -42 -65 -68 -97z" />
    <glyph glyph-name="uni277A.init" 
d="M930 -20h675v1440h-675c-427 0 -750 -310 -750 -720s323 -720 750 -720zM1061 268c-230 0 -359 75 -390 178l124 40c23 -78 108 -134 265 -134c173 0 258 59 258 194c0 136 -84 202 -261 202c-130 0 -217 -36 -263 -112l-112 18l33 465h694v-92h-582l-23 -273
c65 53 153 75 276 75c238 0 366 -102 366 -283c0 -184 -135 -278 -385 -278z" />
    <glyph glyph-name="uni277A.medi" horiz-adv-x="1093" 
d="M-2 1420v-1440h1097v1440h-1097zM550 268c-230 0 -359 75 -390 178l124 40c23 -78 108 -134 265 -134c173 0 258 59 258 194c0 136 -84 202 -261 202c-130 0 -217 -36 -263 -112l-112 18l33 465h694v-92h-582l-23 -273c65 53 153 75 276 75c238 0 366 -102 366 -283
c0 -184 -135 -278 -385 -278z" />
    <glyph glyph-name="uni277A.fina" 
d="M673 1420h-675v-1440h675c427 0 750 310 750 720s-323 720 -750 720zM550 268c-230 0 -359 75 -390 178l124 40c23 -78 108 -134 265 -134c173 0 258 59 258 194c0 136 -84 202 -261 202c-130 0 -217 -36 -263 -112l-112 18l33 465h694v-92h-582l-23 -273
c65 53 153 75 276 75c238 0 366 -102 366 -283c0 -184 -135 -278 -385 -278z" />
    <glyph glyph-name="uni277B.init" 
d="M930 -20h675v1440h-675c-427 0 -750 -310 -750 -720s323 -720 750 -720zM1074 1133c199 0 322 -88 351 -186l-106 -49c-34 86 -119 151 -248 151c-177 0 -276 -117 -276 -340v-3c50 60 155 102 297 102c225 0 346 -100 346 -271c0 -175 -129 -269 -371 -269
c-260 0 -391 120 -391 361v52c0 292 132 452 398 452zM1055 727c-154 0 -252 -70 -252 -180c0 -125 103 -196 261 -196c168 0 249 60 249 185c0 126 -85 191 -258 191z" />
    <glyph glyph-name="uni277B.medi" horiz-adv-x="1093" 
d="M-2 1420v-1440h1097v1440h-1097zM564 1133c199 0 322 -88 351 -186l-106 -49c-34 86 -119 151 -248 151c-177 0 -276 -117 -276 -340v-3c50 60 155 102 297 102c225 0 346 -100 346 -271c0 -175 -129 -269 -371 -269c-260 0 -391 120 -391 361v52c0 292 132 452 398 452z
M545 727c-154 0 -252 -70 -252 -180c0 -125 103 -196 261 -196c168 0 249 60 249 185c0 126 -85 191 -258 191z" />
    <glyph glyph-name="uni277B.fina" 
d="M673 1420h-675v-1440h675c427 0 750 310 750 720s-323 720 -750 720zM564 1133c199 0 322 -88 351 -186l-106 -49c-34 86 -119 151 -248 151c-177 0 -276 -117 -276 -340v-3c50 60 155 102 297 102c225 0 346 -100 346 -271c0 -175 -129 -269 -371 -269
c-260 0 -391 120 -391 361v52c0 292 132 452 398 452zM545 727c-154 0 -252 -70 -252 -180c0 -125 103 -196 261 -196c168 0 249 60 249 185c0 126 -85 191 -258 191z" />
    <glyph glyph-name="uni277C.init" 
d="M930 -20h675v1440h-675c-427 0 -750 -310 -750 -720s323 -720 750 -720zM1101 281h-124c6 315 105 594 293 746h-565v91h703v-69c-186 -158 -300 -419 -307 -768z" />
    <glyph glyph-name="uni277C.medi" horiz-adv-x="1093" 
d="M-2 1420v-1440h1097v1440h-1097zM590 281h-124c6 315 105 594 293 746h-565v91h703v-69c-186 -158 -300 -419 -307 -768z" />
    <glyph glyph-name="uni277C.fina" 
d="M673 1420h-675v-1440h675c427 0 750 310 750 720s-323 720 -750 720zM590 281h-124c6 315 105 594 293 746h-565v91h703v-69c-186 -158 -300 -419 -307 -768z" />
    <glyph glyph-name="uni277D.init" 
d="M930 -20h675v1440h-675c-427 0 -750 -310 -750 -720s323 -720 750 -720zM1057 268c-255 0 -398 88 -398 242c0 115 74 188 207 198v23c-117 12 -183 77 -183 180c0 142 134 222 374 222c239 0 373 -80 373 -222c0 -102 -65 -167 -183 -180v-23c133 -10 208 -83 208 -198
c0 -154 -144 -242 -398 -242zM1057 758c170 0 253 48 253 147c0 97 -83 145 -253 145s-254 -48 -254 -145c0 -99 84 -147 254 -147zM1057 352c182 0 271 53 271 162s-89 164 -271 164s-272 -55 -272 -164s90 -162 272 -162z" />
    <glyph glyph-name="uni277D.medi" horiz-adv-x="1093" 
d="M-2 1420v-1440h1097v1440h-1097zM546 268c-255 0 -398 88 -398 242c0 115 74 188 207 198v23c-117 12 -183 77 -183 180c0 142 134 222 374 222c239 0 373 -80 373 -222c0 -102 -65 -167 -183 -180v-23c133 -10 208 -83 208 -198c0 -154 -144 -242 -398 -242zM546 758
c170 0 253 48 253 147c0 97 -83 145 -253 145s-254 -48 -254 -145c0 -99 84 -147 254 -147zM546 352c182 0 271 53 271 162s-89 164 -271 164s-272 -55 -272 -164s90 -162 272 -162z" />
    <glyph glyph-name="uni277D.fina" 
d="M673 1420h-675v-1440h675c427 0 750 310 750 720s-323 720 -750 720zM546 268c-255 0 -398 88 -398 242c0 115 74 188 207 198v23c-117 12 -183 77 -183 180c0 142 134 222 374 222c239 0 373 -80 373 -222c0 -102 -65 -167 -183 -180v-23c133 -10 208 -83 208 -198
c0 -154 -144 -242 -398 -242zM546 758c170 0 253 48 253 147c0 97 -83 145 -253 145s-254 -48 -254 -145c0 -99 84 -147 254 -147zM546 352c182 0 271 53 271 162s-89 164 -271 164s-272 -55 -272 -164s90 -162 272 -162z" />
    <glyph glyph-name="uni277E.init" 
d="M930 -20h675v1440h-675c-427 0 -750 -310 -750 -720s323 -720 750 -720zM1040 267c-199 0 -322 88 -351 186l106 49c34 -85 119 -151 248 -151c178 0 277 117 277 340v3c-50 -60 -156 -102 -298 -102c-225 0 -346 101 -346 271c0 175 129 269 371 269
c260 0 391 -120 391 -361v-52c0 -292 -132 -452 -398 -452zM1059 673c154 0 252 70 252 181c0 124 -103 195 -261 195c-168 0 -249 -59 -249 -185c0 -125 85 -191 258 -191z" />
    <glyph glyph-name="uni277E.medi" horiz-adv-x="1093" 
d="M-2 1420v-1440h1097v1440h-1097zM529 267c-199 0 -322 88 -351 186l106 49c34 -85 119 -151 248 -151c178 0 277 117 277 340v3c-50 -60 -156 -102 -298 -102c-225 0 -346 101 -346 271c0 175 129 269 371 269c260 0 391 -120 391 -361v-52c0 -292 -132 -452 -398 -452z
M548 673c154 0 252 70 252 181c0 124 -103 195 -261 195c-168 0 -249 -59 -249 -185c0 -125 85 -191 258 -191z" />
    <glyph glyph-name="uni277E.fina" 
d="M673 1420h-675v-1440h675c427 0 750 310 750 720s-323 720 -750 720zM529 267c-199 0 -322 88 -351 186l106 49c34 -85 119 -151 248 -151c178 0 277 117 277 340v3c-50 -60 -156 -102 -298 -102c-225 0 -346 101 -346 271c0 175 129 269 371 269
c260 0 391 -120 391 -361v-52c0 -292 -132 -452 -398 -452zM548 673c154 0 252 70 252 181c0 124 -103 195 -261 195c-168 0 -249 -59 -249 -185c0 -125 85 -191 258 -191z" />
    <glyph glyph-name="uni24FF.init" 
d="M930 -20h675v1440h-675c-427 0 -750 -310 -750 -720s323 -720 750 -720zM1054 268c-263 0 -404 152 -404 432v2c0 280 141 431 404 431c265 0 410 -151 410 -431v-2c0 -280 -144 -432 -410 -432zM1054 354c191 0 283 112 283 340v15c0 227 -92 338 -283 338
c-187 0 -278 -111 -278 -338v-15c0 -207 73 -340 278 -340z" />
    <glyph glyph-name="uni24FF.medi" horiz-adv-x="1093" 
d="M-2 1420v-1440h1097v1440h-1097zM543 268c-263 0 -404 152 -404 432v2c0 280 141 431 404 431c265 0 410 -151 410 -431v-2c0 -280 -144 -432 -410 -432zM543 354c191 0 283 112 283 340v15c0 227 -92 338 -283 338c-187 0 -278 -111 -278 -338v-15
c0 -207 73 -340 278 -340z" />
    <glyph glyph-name="uni24FF.fina" 
d="M673 1420h-675v-1440h675c427 0 750 310 750 720s-323 720 -750 720zM543 268c-263 0 -404 152 -404 432v2c0 280 141 431 404 431c265 0 410 -151 410 -431v-2c0 -280 -144 -432 -410 -432zM543 354c191 0 283 112 283 340v15c0 227 -92 338 -283 338
c-187 0 -278 -111 -278 -338v-15c0 -207 73 -340 278 -340z" />
    <glyph glyph-name="zero.dnom" horiz-adv-x="1105" 
d="M550 -13c-263 0 -404 152 -404 432v2c0 280 141 431 404 431c265 0 410 -151 410 -431v-2c0 -280 -144 -432 -410 -432zM550 73c191 0 283 112 283 340v15c0 227 -92 338 -283 338c-187 0 -278 -111 -278 -338v-15c0 -207 73 -340 278 -340z" />
    <glyph glyph-name="one.dnom" horiz-adv-x="1105" 
d="M904 0h-703v90h316v485h-303v79c302 4 314 9 332 183h95v-747h263v-90z" />
    <glyph glyph-name="two.dnom" horiz-adv-x="1105" 
d="M915 0h-726v79c465 296 583 389 583 519c0 115 -70 168 -215 168c-148 0 -226 -72 -236 -211l-124 27c13 166 143 269 361 269s338 -83 338 -244c0 -157 -117 -250 -532 -499l5 -20c35 2 69 2 103 2h443v-90z" />
    <glyph glyph-name="three.dnom" horiz-adv-x="1105" 
d="M576 -14c-238 0 -382 103 -410 262l126 30c20 -132 111 -208 285 -208c162 0 235 60 235 178c0 106 -87 149 -197 151l-110 2v71l109 2c117 2 180 49 180 137c0 105 -76 157 -234 157c-155 0 -236 -68 -249 -180l-123 29c19 142 150 234 371 234c235 0 357 -82 357 -233
c0 -96 -57 -152 -173 -168v-27c135 -15 197 -77 197 -186c0 -166 -129 -251 -364 -251z" />
    <glyph glyph-name="four.dnom" horiz-adv-x="1105" 
d="M777 0h-123v201h-515v72l480 564h158v-549h182v-87h-182v-201zM571 639l-301 -351h384v311c0 39 2 85 9 134l-24 3c-20 -35 -42 -65 -68 -97z" />
    <glyph glyph-name="five.dnom" horiz-adv-x="1105" 
d="M557 -14c-230 0 -359 75 -390 178l124 40c23 -78 108 -134 265 -134c173 0 258 59 258 194c0 136 -84 202 -261 202c-130 0 -217 -36 -263 -112l-112 18l33 465h694v-92h-582l-23 -273c65 53 153 75 276 75c238 0 366 -102 366 -283c0 -184 -135 -278 -385 -278z" />
    <glyph glyph-name="six.dnom" horiz-adv-x="1105" 
d="M570 852c199 0 322 -88 351 -186l-106 -49c-34 85 -119 151 -248 151c-178 0 -277 -117 -277 -340v-3c50 60 156 102 298 102c225 0 346 -100 346 -271c0 -175 -129 -269 -371 -269c-260 0 -391 120 -391 361v52c0 292 132 452 398 452zM551 446
c-154 0 -252 -70 -252 -181c0 -124 103 -195 261 -195c168 0 249 59 249 185c0 125 -85 191 -258 191z" />
    <glyph glyph-name="seven.dnom" horiz-adv-x="1105" 
d="M597 0h-124c6 315 105 594 293 746h-565v91h703v-69c-186 -158 -300 -419 -307 -768z" />
    <glyph glyph-name="eight.dnom" horiz-adv-x="1105" 
d="M553 -14c-255 0 -398 88 -398 242c0 115 74 188 207 198v23c-117 12 -183 77 -183 180c0 142 134 222 374 222c239 0 373 -80 373 -222c0 -102 -65 -167 -183 -180v-23c133 -10 208 -83 208 -198c0 -154 -144 -242 -398 -242zM553 476c170 0 253 48 253 147
c0 97 -83 145 -253 145s-254 -48 -254 -145c0 -99 84 -147 254 -147zM553 70c182 0 271 53 271 162s-89 164 -271 164s-272 -55 -272 -164s90 -162 272 -162z" />
    <glyph glyph-name="nine.dnom" horiz-adv-x="1105" 
d="M535 -14c-199 0 -322 88 -351 186l106 49c34 -85 119 -151 248 -151c178 0 277 117 277 340v3c-50 -60 -156 -102 -298 -102c-225 0 -346 101 -346 271c0 175 129 269 371 269c260 0 391 -120 391 -361v-52c0 -292 -132 -452 -398 -452zM554 392c154 0 252 70 252 181
c0 124 -103 195 -261 195c-168 0 -249 -59 -249 -185c0 -125 85 -191 258 -191z" />
    <glyph glyph-name="zero.numr" horiz-adv-x="1105" 
d="M550 550c-263 0 -404 152 -404 432v2c0 280 141 431 404 431c265 0 410 -151 410 -431v-2c0 -280 -144 -432 -410 -432zM550 636c191 0 283 112 283 340v15c0 227 -92 338 -283 338c-187 0 -278 -111 -278 -338v-15c0 -207 73 -340 278 -340z" />
    <glyph glyph-name="one.numr" horiz-adv-x="1105" 
d="M904 563h-703v90h316v485h-303v79c302 4 314 9 332 183h95v-747h263v-90z" />
    <glyph glyph-name="two.numr" horiz-adv-x="1105" 
d="M915 563h-726v79c465 296 583 389 583 519c0 115 -70 168 -215 168c-148 0 -226 -72 -236 -211l-124 27c13 166 143 269 361 269s338 -83 338 -244c0 -157 -117 -250 -532 -499l5 -20c35 2 69 2 103 2h443v-90z" />
    <glyph glyph-name="three.numr" horiz-adv-x="1105" 
d="M576 549c-238 0 -382 103 -410 262l126 30c20 -132 111 -208 285 -208c162 0 235 60 235 178c0 106 -87 149 -197 151l-110 2v71l109 2c117 2 180 49 180 137c0 105 -76 157 -234 157c-155 0 -236 -68 -249 -180l-123 29c19 142 150 234 371 234c235 0 357 -82 357 -233
c0 -96 -57 -152 -173 -168v-27c135 -15 197 -77 197 -186c0 -166 -129 -251 -364 -251z" />
    <glyph glyph-name="four.numr" horiz-adv-x="1105" 
d="M777 563h-123v201h-515v72l480 564h158v-549h182v-87h-182v-201zM571 1202l-301 -351h384v311c0 39 2 85 9 134l-24 3c-20 -35 -42 -65 -68 -97z" />
    <glyph glyph-name="five.numr" horiz-adv-x="1105" 
d="M557 549c-230 0 -359 75 -390 178l124 40c23 -78 108 -134 265 -134c173 0 258 59 258 194c0 136 -84 202 -261 202c-130 0 -217 -36 -263 -112l-112 18l33 465h694v-92h-582l-23 -273c65 53 153 75 276 75c238 0 366 -102 366 -283c0 -184 -135 -278 -385 -278z" />
    <glyph glyph-name="six.numr" horiz-adv-x="1105" 
d="M570 1415c199 0 322 -88 351 -186l-106 -49c-34 85 -119 151 -248 151c-178 0 -277 -117 -277 -340v-3c50 60 156 102 298 102c225 0 346 -100 346 -271c0 -175 -129 -269 -371 -269c-260 0 -391 120 -391 361v52c0 292 132 452 398 452zM551 1009
c-154 0 -252 -70 -252 -181c0 -124 103 -195 261 -195c168 0 249 59 249 185c0 125 -85 191 -258 191z" />
    <glyph glyph-name="seven.numr" horiz-adv-x="1105" 
d="M597 563h-124c6 315 105 594 293 746h-565v91h703v-69c-186 -158 -300 -419 -307 -768z" />
    <glyph glyph-name="eight.numr" horiz-adv-x="1105" 
d="M553 549c-255 0 -398 88 -398 242c0 115 74 188 207 198v23c-117 12 -183 77 -183 180c0 142 134 222 374 222c239 0 373 -80 373 -222c0 -102 -65 -167 -183 -180v-23c133 -10 208 -83 208 -198c0 -154 -144 -242 -398 -242zM553 1039c170 0 253 48 253 147
c0 97 -83 145 -253 145s-254 -48 -254 -145c0 -99 84 -147 254 -147zM553 633c182 0 271 53 271 162s-89 164 -271 164s-272 -55 -272 -164s90 -162 272 -162z" />
    <glyph glyph-name="nine.numr" horiz-adv-x="1105" 
d="M535 549c-199 0 -322 88 -351 186l106 49c34 -85 119 -151 248 -151c178 0 277 117 277 340v3c-50 -60 -156 -102 -298 -102c-225 0 -346 101 -346 271c0 175 129 269 371 269c260 0 391 -120 391 -361v-52c0 -292 -132 -452 -398 -452zM554 955c154 0 252 70 252 181
c0 124 -103 195 -261 195c-168 0 -249 -59 -249 -185c0 -125 85 -191 258 -191z" />
    <glyph glyph-name="fraction" unicode="&#x2044;" horiz-adv-x="583" 
d="M-74 0h-130l861 1400h130z" />
    <glyph glyph-name="onehalf" unicode="&#xbd;" horiz-adv-x="2814" 
d="M904 563h-703v90h316v485h-303v79c302 4 314 9 332 183h95v-747h263v-90zM1052 0h-130l861 1400h130zM2624 0h-726v79c465 296 583 389 583 519c0 115 -70 168 -215 168c-148 0 -226 -72 -236 -211l-124 27c13 166 143 269 361 269s338 -83 338 -244
c0 -157 -117 -250 -532 -499l5 -20c35 2 69 2 103 2h443v-90z" />
    <glyph glyph-name="uni2153" unicode="&#x2153;" horiz-adv-x="2814" 
d="M904 563h-703v90h316v485h-303v79c302 4 314 9 332 183h95v-747h263v-90zM1052 0h-130l861 1400h130zM2285 -14c-238 0 -382 103 -410 262l126 30c20 -132 111 -208 285 -208c162 0 235 60 235 178c0 106 -87 149 -197 151l-110 2v71l109 2c117 2 180 49 180 137
c0 105 -76 157 -234 157c-155 0 -236 -68 -249 -180l-123 29c19 142 150 234 371 234c235 0 357 -82 357 -233c0 -96 -57 -152 -173 -168v-27c135 -15 197 -77 197 -186c0 -166 -129 -251 -364 -251z" />
    <glyph glyph-name="onequarter" unicode="&#xbc;" horiz-adv-x="2743" 
d="M904 563h-703v90h316v485h-303v79c302 4 314 9 332 183h95v-747h263v-90zM1052 0h-130l861 1400h130zM2415 0h-123v201h-515v72l480 564h158v-549h182v-87h-182v-201zM2209 639l-301 -351h384v311c0 39 2 85 9 134l-24 3c-20 -35 -42 -65 -68 -97z" />
    <glyph glyph-name="oneeighth" unicode="&#x215b;" horiz-adv-x="2814" 
d="M904 563h-703v90h316v485h-303v79c302 4 314 9 332 183h95v-747h263v-90zM1052 0h-130l861 1400h130zM2262 -14c-255 0 -398 88 -398 242c0 115 74 188 207 198v23c-117 12 -183 77 -183 180c0 142 134 222 374 222c239 0 373 -80 373 -222c0 -102 -65 -167 -183 -180
v-23c133 -10 208 -83 208 -198c0 -154 -144 -242 -398 -242zM2262 476c170 0 253 48 253 147c0 97 -83 145 -253 145s-254 -48 -254 -145c0 -99 84 -147 254 -147zM2262 70c182 0 271 53 271 162s-89 164 -271 164s-272 -55 -272 -164s90 -162 272 -162z" />
    <glyph glyph-name="uni2154" unicode="&#x2154;" horiz-adv-x="2804" 
d="M915 563h-726v79c465 296 583 389 583 519c0 115 -70 168 -215 168c-148 0 -226 -72 -236 -211l-124 27c13 166 143 269 361 269s338 -83 338 -244c0 -157 -117 -250 -532 -499l5 -20c35 2 69 2 103 2h443v-90zM1042 0h-130l861 1400h130zM2275 -14
c-238 0 -382 103 -410 262l126 30c20 -132 111 -208 285 -208c162 0 235 60 235 178c0 106 -87 149 -197 151l-110 2v71l109 2c117 2 180 49 180 137c0 105 -76 157 -234 157c-155 0 -236 -68 -249 -180l-123 29c19 142 150 234 371 234c235 0 357 -82 357 -233
c0 -96 -57 -152 -173 -168v-27c135 -15 197 -77 197 -186c0 -166 -129 -251 -364 -251z" />
    <glyph glyph-name="threequarters" unicode="&#xbe;" horiz-adv-x="2722" 
d="M576 549c-238 0 -382 103 -410 262l126 30c20 -132 111 -208 285 -208c162 0 235 60 235 178c0 106 -87 149 -197 151l-110 2v71l109 2c117 2 180 49 180 137c0 105 -76 157 -234 157c-155 0 -236 -68 -249 -180l-123 29c19 142 150 234 371 234c235 0 357 -82 357 -233
c0 -96 -57 -152 -173 -168v-27c135 -15 197 -77 197 -186c0 -166 -129 -251 -364 -251zM1031 0h-130l861 1400h130zM2394 0h-123v201h-515v72l480 564h158v-549h182v-87h-182v-201zM2188 639l-301 -351h384v311c0 39 2 85 9 134l-24 3c-20 -35 -42 -65 -68 -97z" />
    <glyph glyph-name="threeeighths" unicode="&#x215c;" horiz-adv-x="2793" 
d="M576 549c-238 0 -382 103 -410 262l126 30c20 -132 111 -208 285 -208c162 0 235 60 235 178c0 106 -87 149 -197 151l-110 2v71l109 2c117 2 180 49 180 137c0 105 -76 157 -234 157c-155 0 -236 -68 -249 -180l-123 29c19 142 150 234 371 234c235 0 357 -82 357 -233
c0 -96 -57 -152 -173 -168v-27c135 -15 197 -77 197 -186c0 -166 -129 -251 -364 -251zM1031 0h-130l861 1400h130zM2241 -14c-255 0 -398 88 -398 242c0 115 74 188 207 198v23c-117 12 -183 77 -183 180c0 142 134 222 374 222c239 0 373 -80 373 -222
c0 -102 -65 -167 -183 -180v-23c133 -10 208 -83 208 -198c0 -154 -144 -242 -398 -242zM2241 476c170 0 253 48 253 147c0 97 -83 145 -253 145s-254 -48 -254 -145c0 -99 84 -147 254 -147zM2241 70c182 0 271 53 271 162s-89 164 -271 164s-272 -55 -272 -164
s90 -162 272 -162z" />
    <glyph glyph-name="fiveeighths" unicode="&#x215d;" horiz-adv-x="2793" 
d="M557 549c-230 0 -359 75 -390 178l124 40c23 -78 108 -134 265 -134c173 0 258 59 258 194c0 136 -84 202 -261 202c-130 0 -217 -36 -263 -112l-112 18l33 465h694v-92h-582l-23 -273c65 53 153 75 276 75c238 0 366 -102 366 -283c0 -184 -135 -278 -385 -278zM1031 0
h-130l861 1400h130zM2241 -14c-255 0 -398 88 -398 242c0 115 74 188 207 198v23c-117 12 -183 77 -183 180c0 142 134 222 374 222c239 0 373 -80 373 -222c0 -102 -65 -167 -183 -180v-23c133 -10 208 -83 208 -198c0 -154 -144 -242 -398 -242zM2241 476
c170 0 253 48 253 147c0 97 -83 145 -253 145s-254 -48 -254 -145c0 -99 84 -147 254 -147zM2241 70c182 0 271 53 271 162s-89 164 -271 164s-272 -55 -272 -164s90 -162 272 -162z" />
    <glyph glyph-name="seveneighths" unicode="&#x215e;" horiz-adv-x="2726" 
d="M597 563h-124c6 315 105 594 293 746h-565v91h703v-69c-186 -158 -300 -419 -307 -768zM964 0h-130l861 1400h130zM2174 -14c-255 0 -398 88 -398 242c0 115 74 188 207 198v23c-117 12 -183 77 -183 180c0 142 134 222 374 222c239 0 373 -80 373 -222
c0 -102 -65 -167 -183 -180v-23c133 -10 208 -83 208 -198c0 -154 -144 -242 -398 -242zM2174 476c170 0 253 48 253 147c0 97 -83 145 -253 145s-254 -48 -254 -145c0 -99 84 -147 254 -147zM2174 70c182 0 271 53 271 162s-89 164 -271 164s-272 -55 -272 -164
s90 -162 272 -162z" />
    <glyph glyph-name="uni2003" unicode="&#x2003;" horiz-adv-x="2248" 
 />
    <glyph glyph-name="uni2002" unicode="&#x2002;" horiz-adv-x="1124" 
 />
    <glyph glyph-name="uni2004" unicode="&#x2004;" horiz-adv-x="749" 
 />
    <glyph glyph-name="uni2005" unicode="&#x2005;" horiz-adv-x="562" 
 />
    <glyph glyph-name="uni2006" unicode="&#x2006;" horiz-adv-x="375" 
 />
    <glyph glyph-name="uni2009" unicode="&#x2009;" horiz-adv-x="281" 
 />
    <glyph glyph-name="uni200A" unicode="&#x200a;" horiz-adv-x="187" 
 />
    <glyph glyph-name="uni2008" unicode="&#x2008;" horiz-adv-x="609" 
 />
    <glyph glyph-name="uni2007" unicode="&#x2007;" horiz-adv-x="1760" 
 />
    <glyph glyph-name="uni2008.tf" horiz-adv-x="880" 
 />
    <glyph glyph-name="period" unicode="." horiz-adv-x="609" 
d="M206 0v188h197v-188h-197z" />
    <glyph glyph-name="comma" unicode="," horiz-adv-x="609" 
d="M181 -297l-12 62c107 23 151 76 145 235h-108v188h197v-163c0 -216 -66 -293 -222 -322z" />
    <glyph glyph-name="colon" unicode=":" horiz-adv-x="609" 
d="M206 861v188h197v-188h-197zM206 0v188h197v-188h-197z" />
    <glyph glyph-name="semicolon" unicode=";" horiz-adv-x="609" 
d="M206 862v188h197v-188h-197zM181 -297l-12 62c107 23 151 76 145 235h-108v188h197v-163c0 -216 -66 -293 -222 -322z" />
    <glyph glyph-name="ellipsis" unicode="&#x2026;" horiz-adv-x="1429" 
d="M400 0h-194v188h194v-188zM811 0h-194v188h194v-188zM1223 0h-194v188h194v-188z" />
    <glyph glyph-name="exclam" unicode="!" horiz-adv-x="748" 
d="M425 408h-100l-28 992h156zM275 0v188h198v-188h-198z" />
    <glyph glyph-name="exclamdown" unicode="&#xa1;" horiz-adv-x="748" 
d="M473 1050v-188h-198v188h198zM324 642h100l28 -992h-156z" />
    <glyph glyph-name="question" unicode="?" horiz-adv-x="1400" 
d="M747 408h-161c-63 150 28 239 173 304l147 66c148 67 199 150 199 267c0 185 -137 265 -383 265c-315 0 -474 -134 -409 -427l-149 26c-58 318 140 512 558 512c335 0 526 -127 526 -389c0 -168 -98 -269 -260 -339l-161 -70c-161 -69 -150 -133 -74 -188zM575 0v188h198
v-188h-198z" />
    <glyph glyph-name="questiondown" unicode="&#xbf;" horiz-adv-x="1400" 
d="M826 1050v-188h-197v188h197zM655 642h160c63 -150 -28 -239 -173 -304l-147 -66c-147 -67 -198 -150 -198 -267c0 -185 137 -265 382 -265c316 0 475 134 409 427l150 -26c57 -318 -140 -512 -559 -512c-335 0 -525 127 -525 389c0 168 98 269 259 339l161 70
c161 69 150 133 75 188z" />
    <glyph glyph-name="periodcentered" unicode="&#xb7;" horiz-adv-x="609" 
d="M206 498v188h197v-188h-197z" />
    <glyph glyph-name="bullet" unicode="&#x2022;" horiz-adv-x="1047" 
d="M660 448h-273v269h273v-269z" />
    <glyph glyph-name="asterisk" unicode="*" horiz-adv-x="1010" 
d="M505 979l-164 -278l-101 74l212 242l-315 70l39 120l298 -128l-31 321h126l-31 -321l296 128l39 -120l-315 -70l212 -242l-101 -74z" />
    <glyph glyph-name="numbersign" unicode="#" horiz-adv-x="1586" 
d="M1514 1019v-105h-309l-117 -428h319v-105h-347l-104 -381h-129l104 381h-449l-104 -381h-128l104 381h-281v105h309l117 428h-319v105h347l104 381h128l-104 -381h449l104 381h129l-104 -381h281zM510 486h449l117 428h-449z" />
    <glyph glyph-name="slash" unicode="/" horiz-adv-x="785" 
d="M188 -200h-141l550 1650h141z" />
    <glyph glyph-name="backslash" unicode="\" horiz-adv-x="785" 
d="M188 1450l550 -1650h-141l-550 1650h141z" />
    <glyph glyph-name="parenleft" unicode="(" horiz-adv-x="732" 
d="M685 -200h-151c-226 191 -357 485 -357 825s131 634 359 825h149c-239 -190 -372 -484 -372 -825s133 -635 372 -825z" />
    <glyph glyph-name="parenright" unicode=")" horiz-adv-x="732" 
d="M47 1450h151c226 -191 357 -485 357 -825s-131 -634 -359 -825h-149c239 190 372 484 372 825s-133 635 -372 825z" />
    <glyph glyph-name="braceleft" unicode="{" horiz-adv-x="750" 
d="M616 -200h-185c-144 0 -214 69 -214 209v406c0 92 -51 141 -157 151v118c106 10 157 59 157 151v406c0 140 70 209 214 209h185v-107h-142c-81 0 -121 -39 -121 -120v-392c0 -109 -43 -173 -143 -190v-32c100 -17 143 -81 143 -190v-392c0 -81 40 -120 121 -120h142v-107
z" />
    <glyph glyph-name="braceright" unicode="}" horiz-adv-x="750" 
d="M134 1450h185c144 0 213 -69 213 -209v-406c0 -92 52 -141 158 -151v-118c-106 -10 -158 -59 -158 -151v-406c0 -140 -69 -209 -213 -209h-185v107h142c81 0 121 39 121 120v392c0 109 43 173 143 190v32c-100 17 -143 81 -143 190v392c0 81 -40 120 -121 120h-142v107z
" />
    <glyph glyph-name="bracketleft" unicode="[" horiz-adv-x="820" 
d="M686 -200h-451v1650h451v-107h-315v-1436h315v-107z" />
    <glyph glyph-name="bracketright" unicode="]" horiz-adv-x="820" 
d="M134 1450h451v-1650h-451v107h316v1436h-316v107z" />
    <glyph glyph-name="hyphen" unicode="-" horiz-adv-x="1208" 
d="M958 539h-708v109h708v-109z" />
    <glyph glyph-name="endash" unicode="&#x2013;" horiz-adv-x="1745" 
d="M1495 534h-1245v101h1245v-101z" />
    <glyph glyph-name="emdash" unicode="&#x2014;" horiz-adv-x="2312" 
d="M2062 543h-1812v101h1812v-101z" />
    <glyph glyph-name="underscore" unicode="_" horiz-adv-x="725" 
d="M725 -199h-725v105h725v-105z" />
    <glyph glyph-name="quotesinglbase" unicode="&#x201a;" horiz-adv-x="609" 
d="M181 -297l-12 62c107 23 151 76 145 235h-108v188h197v-163c0 -216 -66 -293 -222 -322z" />
    <glyph glyph-name="quotedblbase" unicode="&#x201e;" horiz-adv-x="957" 
d="M181 -297l-12 62c107 23 151 76 145 235h-108v188h197v-163c0 -216 -66 -293 -222 -322zM528 -297l-11 62c106 23 151 76 145 235h-109v188h198v-163c0 -216 -66 -293 -223 -322z" />
    <glyph glyph-name="quotedblleft" unicode="&#x201c;" horiz-adv-x="957" 
d="M428 1421l12 -63c-106 -22 -151 -75 -145 -234h108v-188h-197v162c0 217 66 294 222 323zM776 1421l11 -63c-106 -22 -151 -75 -145 -234h109v-188h-198v162c0 217 66 294 223 323z" />
    <glyph glyph-name="quotedblright" unicode="&#x201d;" horiz-adv-x="957" 
d="M181 915l-12 62c107 23 151 76 145 235h-108v188h197v-163c0 -216 -66 -294 -222 -322zM528 915l-11 62c106 23 151 76 145 235h-109v188h198v-163c0 -216 -66 -294 -223 -322z" />
    <glyph glyph-name="quoteleft" unicode="&#x2018;" horiz-adv-x="609" 
d="M428 1421l12 -63c-106 -22 -151 -75 -145 -234h108v-188h-197v162c0 217 66 294 222 323z" />
    <glyph glyph-name="quoteright" unicode="&#x2019;" horiz-adv-x="609" 
d="M181 915l-12 62c107 23 151 76 145 235h-108v188h197v-163c0 -216 -66 -294 -222 -322z" />
    <glyph glyph-name="guillemotleft" unicode="&#xab;" horiz-adv-x="1389" 
d="M777 100h-171l-449 425l452 425h168l-450 -425zM1231 100h-171l-448 425l451 425h168l-450 -425z" />
    <glyph glyph-name="guillemotright" unicode="&#xbb;" horiz-adv-x="1389" 
d="M157 950h172l448 -425l-451 -425h-169l450 425zM612 950h171l448 -425l-451 -425h-168l450 425z" />
    <glyph glyph-name="guilsinglleft" unicode="&#x2039;" horiz-adv-x="934" 
d="M777 100h-171l-449 425l452 425h168l-446 -425z" />
    <glyph glyph-name="guilsinglright" unicode="&#x203a;" horiz-adv-x="934" 
d="M157 950h172l448 -425l-451 -425h-169l446 425z" />
    <glyph glyph-name="quotedbl" unicode="&#x22;" horiz-adv-x="870" 
d="M321 921h-75l-40 479h155zM624 921h-75l-40 479h155z" />
    <glyph glyph-name="quotesingle" unicode="'" horiz-adv-x="567" 
d="M321 921h-75l-40 479h155z" />
    <glyph glyph-name="colon.case" horiz-adv-x="609" 
d="M206 1037v188h197v-188h-197zM206 176v188h197v-188h-197z" />
    <glyph glyph-name="semicolon.case" horiz-adv-x="609" 
d="M206 1037v188h197v-188h-197zM181 -122l-12 62c107 23 151 76 145 235h-108v188h197v-163c0 -216 -66 -293 -222 -322z" />
    <glyph glyph-name="bullet.case" horiz-adv-x="1047" 
d="M660 615h-273v268h273v-268z" />
    <glyph glyph-name="parenleft.case" horiz-adv-x="732" 
d="M685 -50h-151c-240 203 -357 447 -357 750c0 304 117 548 359 750h149c-251 -200 -372 -444 -372 -750s121 -550 372 -750z" />
    <glyph glyph-name="parenright.case" horiz-adv-x="732" 
d="M47 1450h151c240 -203 357 -447 357 -750c0 -304 -117 -548 -359 -750h-149c251 200 372 444 372 750s-121 550 -372 750z" />
    <glyph glyph-name="braceleft.case" horiz-adv-x="750" 
d="M616 -50h-185c-144 0 -214 69 -214 209v331c0 92 -51 141 -157 151v118c106 10 157 59 157 151v331c0 140 70 209 214 209h185v-107h-142c-81 0 -121 -39 -121 -120v-318c0 -109 -43 -172 -142 -189v-32c99 -17 142 -80 142 -189v-318c0 -81 40 -120 121 -120h142v-107z
" />
    <glyph glyph-name="braceright.case" horiz-adv-x="750" 
d="M134 1450h185c144 0 213 -69 213 -209v-331c0 -92 52 -141 158 -151v-118c-106 -10 -158 -59 -158 -151v-331c0 -140 -69 -209 -213 -209h-185v107h142c81 0 121 39 121 120v318c0 109 43 172 142 189v32c-99 17 -142 80 -142 189v318c0 81 -40 120 -121 120h-142v107z
" />
    <glyph glyph-name="bracketleft.case" horiz-adv-x="820" 
d="M686 -50h-451v1500h451v-107h-315v-1286h315v-107z" />
    <glyph glyph-name="bracketright.case" horiz-adv-x="820" 
d="M134 1450h451v-1500h-451v107h316v1286h-316v107z" />
    <glyph glyph-name="hyphen.case" horiz-adv-x="1208" 
d="M958 647h-708v110h708v-110z" />
    <glyph glyph-name="endash.case" horiz-adv-x="1745" 
d="M1495 643h-1245v101h1245v-101z" />
    <glyph glyph-name="emdash.case" horiz-adv-x="2312" 
d="M2062 652h-1812v101h1812v-101z" />
    <glyph glyph-name="guillemotleft.case" horiz-adv-x="1389" 
d="M777 275h-171l-449 425l452 425h168l-450 -425zM1231 275h-171l-448 425l451 425h168l-450 -425z" />
    <glyph glyph-name="guillemotright.case" horiz-adv-x="1389" 
d="M157 1125h172l448 -425l-451 -425h-169l450 425zM612 1125h171l448 -425l-451 -425h-168l450 425z" />
    <glyph glyph-name="guilsinglleft.case" horiz-adv-x="934" 
d="M777 275h-171l-449 425l452 425h168l-446 -425z" />
    <glyph glyph-name="guilsinglright.case" horiz-adv-x="934" 
d="M157 1125h172l448 -425l-451 -425h-169l446 425z" />
    <glyph glyph-name="exclamdown.case" horiz-adv-x="748" 
d="M473 1400v-188h-198v188h198zM324 992h100l28 -992h-156z" />
    <glyph glyph-name="questiondown.case" horiz-adv-x="1400" 
d="M826 1400v-188h-197v188h197zM655 992h160c63 -150 -28 -239 -173 -304l-147 -66c-147 -67 -198 -150 -198 -267c0 -185 137 -265 382 -265c316 0 475 134 409 427l150 -26c57 -318 -140 -512 -559 -512c-335 0 -525 127 -525 389c0 168 98 269 259 339l161 70
c161 69 150 133 75 188z" />
    <glyph glyph-name="period.tf" horiz-adv-x="880" 
d="M326 0v188h198v-188h-198z" />
    <glyph glyph-name="comma.tf" horiz-adv-x="880" 
d="M336 -297l-12 62c107 23 152 76 145 235h-108v188h198v-163c0 -216 -66 -293 -223 -322z" />
    <glyph glyph-name="colon.case.tf" horiz-adv-x="880" 
d="M326 1037v188h198v-188h-198zM326 176v188h198v-188h-198z" />
    <glyph glyph-name="semicolon.case.tf" horiz-adv-x="880" 
d="M326 1037v188h198v-188h-198zM301 -122l-11 62c106 23 151 76 145 235h-109v188h198v-163c0 -216 -66 -293 -223 -322z" />
    <glyph glyph-name="dollar" unicode="$" horiz-adv-x="1657" 
d="M1480 371c0 -245 -215 -384 -596 -392v-219h-128v221c-382 19 -582 152 -613 406l153 47c14 -232 197 -345 560 -345c307 0 476 92 476 259c0 146 -85 206 -391 275l-301 68c-304 69 -425 163 -425 348c0 236 194 370 541 381v230h128v-231c361 -17 545 -154 565 -419
l-145 -47c-11 242 -174 358 -499 358c-288 0 -446 -91 -446 -258c0 -106 43 -171 346 -239l302 -69c305 -69 473 -153 473 -374z" />
    <glyph glyph-name="cent" unicode="&#xa2;" horiz-adv-x="1592" 
d="M1291 535l147 -33c-45 -204 -238 -333 -569 -347v-220h-128v221c-378 20 -584 210 -584 541v8c0 331 206 521 584 539v231h128v-230c334 -16 531 -154 559 -379l-142 -34c-20 195 -191 311 -482 311c-319 0 -496 -156 -496 -439v-6c0 -282 178 -441 500 -441
c290 0 453 110 483 278z" />
    <glyph glyph-name="Euro" unicode="&#x20ac;" horiz-adv-x="1885" 
d="M1554 460l153 -42c-52 -256 -301 -439 -722 -439c-423 0 -684 188 -748 536h-187v95h174c-2 28 -3 57 -3 87v4c0 31 1 60 4 89h-175v95h187c65 348 324 536 744 536c423 0 668 -187 706 -449l-150 -45c-21 235 -197 383 -556 383c-340 0 -538 -138 -594 -425h735l-20 -95
h-728c-2 -28 -3 -57 -3 -88v-6c0 -30 1 -58 3 -86h690l-20 -95h-657c56 -286 257 -424 598 -424c354 0 534 144 569 369z" />
    <glyph glyph-name="sterling" unicode="&#xa3;" horiz-adv-x="1500" 
d="M456 111h940v-111h-1298v72c129 88 168 194 168 405v114h-179v107h179v233c0 344 192 490 545 490c337 0 540 -138 574 -391l-145 -46c-23 231 -164 326 -427 326c-271 0 -402 -91 -402 -382v-230h765v-107h-765v-109c0 -190 -35 -276 -125 -350l7 -23c54 2 106 2 163 2z
" />
    <glyph glyph-name="yen" unicode="&#xa5;" horiz-adv-x="1477" 
d="M1245 1400h165l-591 -878h374v-96h-380v-152h380v-96h-380v-178h-150v178h-379v96h379v152h-379v96h373l-590 878h168l321 -481c62 -95 109 -171 172 -293h29c60 124 105 198 168 294z" />
    <glyph glyph-name="uni20BD" unicode="&#x20bd;" horiz-adv-x="1559" 
d="M967 552h-582v-205h611v-101h-611v-246h-150v246h-204v101h204v205h-204v109h204v739h732c314 0 487 -153 487 -425c0 -271 -173 -423 -487 -423zM947 1291h-562v-630h562c236 0 352 104 352 314c0 211 -116 316 -352 316z" />
    <glyph glyph-name="uni20B4" unicode="&#x20b4;" horiz-adv-x="1939" 
d="M1486 866h276v-102h-1619v102h1197c61 49 91 107 91 178c0 178 -158 270 -451 270c-291 0 -452 -105 -499 -267l-145 46c59 193 268 328 645 328c378 0 589 -129 589 -370c0 -73 -28 -134 -84 -185zM378 550h-235v102h1619v-102h-1227c-72 -53 -108 -119 -108 -194
c0 -169 168 -270 481 -270c320 0 501 103 560 257l153 -48c-79 -184 -311 -316 -712 -316s-625 132 -625 373c0 80 29 144 94 198z" />
    <glyph glyph-name="uni20B8" unicode="&#x20b8;" horiz-adv-x="1421" 
d="M1363 1289h-1305v111h1305v-111zM785 0h-150v964h-577v111h1305v-111h-578v-964z" />
    <glyph glyph-name="currency" unicode="&#xa4;" horiz-adv-x="1311" 
d="M389 356l-207 -208l-78 78l205 205c-59 72 -94 167 -94 274c0 105 32 198 88 270l-199 199l78 78l200 -200c71 53 160 83 262 83c108 0 203 -34 276 -93l210 210l77 -78l-212 -212c50 -70 79 -158 79 -257c0 -101 -31 -191 -84 -262l217 -217l-77 -78l-218 218
c-71 -56 -163 -89 -268 -89c-99 0 -186 29 -255 79zM644 389c184 0 318 133 318 316c0 185 -134 319 -318 319s-318 -134 -318 -319c0 -183 134 -316 318 -316z" />
    <glyph glyph-name="ampersand" unicode="&#x26;" horiz-adv-x="1565" 
d="M1397 85c35 0 59 5 86 14l-16 -100c-25 -13 -55 -20 -106 -20c-103 0 -190 33 -276 126c-120 -78 -268 -126 -437 -126c-302 0 -491 143 -491 386c0 218 161 329 343 398c-130 133 -183 227 -183 331c0 211 148 327 421 327c252 0 389 -109 389 -296
c0 -159 -94 -273 -426 -397l410 -469c113 110 178 261 186 416l130 -50c-28 -166 -113 -326 -245 -445c70 -71 133 -95 215 -95zM739 1318c-184 0 -286 -77 -286 -219c0 -92 53 -174 175 -292c323 111 371 200 371 316c0 121 -93 195 -260 195zM292 373
c0 -182 140 -291 361 -291c142 0 264 38 363 101l-439 499c-158 -61 -285 -136 -285 -309z" />
    <glyph glyph-name="at" unicode="@" horiz-adv-x="2525" 
d="M1291 -432c-677 0 -1114 374 -1114 942c0 594 432 968 1101 968c651 0 1070 -385 1070 -964c0 -354 -151 -537 -414 -535c-174 1 -260 113 -229 301l-32 9c-81 -182 -330 -310 -612 -310c-240 0 -376 89 -376 251c0 195 155 282 584 344l395 58v79
c0 174 -125 261 -387 261c-272 0 -430 -101 -435 -264l-138 35c19 199 213 328 573 328c361 0 533 -117 533 -362v-492c0 -82 49 -133 129 -134c173 -2 282 126 282 431c0 516 -370 860 -943 860c-591 0 -973 -334 -973 -864c0 -504 387 -837 986 -837c258 0 538 54 731 147
l24 -105c-197 -90 -488 -147 -755 -147zM1112 82c286 0 552 163 552 407v47l-352 -51c-371 -54 -475 -105 -475 -243c0 -103 97 -160 275 -160z" />
    <glyph glyph-name="at.case" horiz-adv-x="2525" 
d="M1291 -255c-677 0 -1114 374 -1114 941c0 594 432 969 1101 969c651 0 1070 -385 1070 -965c0 -353 -151 -536 -414 -534c-174 1 -260 113 -229 300l-32 10c-81 -182 -330 -310 -612 -310c-240 0 -376 89 -376 251c0 195 155 281 584 344l395 57v80
c0 173 -125 261 -387 261c-272 0 -430 -102 -435 -265l-138 36c19 199 213 328 573 328c361 0 533 -117 533 -362v-492c0 -82 49 -133 129 -134c173 -2 282 126 282 430c0 516 -370 861 -943 861c-591 0 -973 -334 -973 -865c0 -503 387 -837 986 -837c258 0 538 55 731 147
l24 -104c-197 -90 -488 -147 -755 -147zM1112 259c286 0 552 163 552 407v47l-352 -51c-371 -54 -475 -106 -475 -243c0 -103 97 -160 275 -160z" />
    <glyph glyph-name="copyright" unicode="&#xa9;" horiz-adv-x="2503" 
d="M1251 -418c-653 0 -1074 370 -1074 943s421 943 1074 943s1074 -370 1074 -943s-421 -943 -1074 -943zM1251 -314c576 0 947 330 947 839s-371 839 -947 839c-575 0 -946 -330 -946 -839s371 -839 946 -839zM1261 -21c-420 0 -651 192 -651 543v7c0 350 229 542 647 542
c374 0 594 -141 624 -381l-142 -33c-20 194 -191 311 -482 311c-319 0 -496 -156 -496 -439v-7c0 -282 178 -440 500 -440c290 0 453 109 483 278l147 -33c-48 -216 -262 -348 -630 -348z" />
    <glyph glyph-name="copyright.case" horiz-adv-x="2503" 
d="M1251 -243c-653 0 -1074 370 -1074 943c0 574 421 943 1074 943s1074 -369 1074 -943c0 -573 -421 -943 -1074 -943zM1251 -139c576 0 947 330 947 839s-371 839 -947 839c-575 0 -946 -330 -946 -839s371 -839 946 -839zM1261 154c-420 0 -651 193 -651 543v8
c0 349 229 541 647 541c374 0 594 -141 624 -381l-142 -33c-20 194 -191 311 -482 311c-319 0 -496 -156 -496 -439v-6c0 -283 178 -441 500 -441c290 0 453 109 483 278l147 -33c-48 -216 -262 -348 -630 -348z" />
    <glyph glyph-name="registered" unicode="&#xae;" horiz-adv-x="1327" 
d="M664 618c-293 0 -487 163 -487 411s194 411 487 411s486 -163 486 -411s-193 -411 -486 -411zM664 685c249 0 411 135 411 344s-162 344 -411 344c-250 0 -411 -135 -411 -344s161 -344 411 -344zM527 819h-79v428h288c104 0 154 -44 154 -121c0 -59 -38 -94 -126 -98
v-18c36 -6 48 -8 68 -54l21 -47c21 -47 36 -62 55 -74l-4 -16h-85c-12 19 -24 40 -42 82l-19 43c-19 42 -30 51 -86 51h-145v-176zM527 1186v-131h188c67 0 96 20 96 68c0 44 -29 63 -96 63h-188z" />
    <glyph glyph-name="trademark" unicode="&#x2122;" horiz-adv-x="1715" 
d="M401 773h-95v547h-248v80h591v-80h-248v-547zM818 773h-90v627h148l174 -393c17 -38 33 -80 46 -121h18c13 41 29 83 45 121l176 393h145v-627h-91v406c0 38 0 76 5 124l-17 1l-236 -531h-78l-232 532l-18 -2c4 -50 5 -88 5 -124v-406z" />
    <glyph glyph-name="paragraph" unicode="&#xb6;" horiz-adv-x="1710" 
d="M818 -350h-137v750c-309 0 -504 194 -504 501c0 306 195 499 536 499h820v-110h-268v-1640h-137v1640h-310v-1640z" />
    <glyph glyph-name="section" unicode="&#xa7;" horiz-adv-x="1530" 
d="M1133 495v-26c154 -43 220 -103 220 -215c0 -181 -204 -275 -574 -275s-593 116 -636 292l143 41c30 -136 206 -233 494 -233c275 0 425 56 425 170c0 95 -98 116 -349 157l-251 42c-252 41 -426 90 -426 264c0 105 74 187 211 208v28c-122 47 -174 113 -174 209
c0 171 184 264 521 264c349 0 555 -129 585 -295l-140 -38c-18 125 -176 234 -446 234c-245 0 -378 -52 -378 -159c0 -100 60 -124 305 -163l245 -40c245 -40 445 -82 445 -267c0 -104 -78 -169 -220 -198zM700 548l265 -44c167 49 239 107 239 181c0 102 -90 127 -354 171
l-266 44l-34 6c-162 -39 -228 -98 -228 -177c0 -114 107 -135 378 -181z" />
    <glyph glyph-name="uni2116" unicode="&#x2116;" horiz-adv-x="2775" 
d="M2208 550c-263 0 -405 152 -405 432v2c0 280 142 431 405 431c265 0 409 -151 409 -431v-2c0 -280 -143 -432 -409 -432zM376 0h-141v1400h173l809 -1025c53 -66 95 -131 141 -209l32 10c-18 106 -26 221 -26 336v888h141v-1400h-168l-804 1018c-56 70 -100 138 -149 226
l-33 -9c18 -103 25 -225 25 -336v-899zM2208 636c190 0 282 112 282 340v15c0 227 -92 338 -282 338c-188 0 -278 -111 -278 -338v-15c0 -207 73 -340 278 -340zM2606 256h-793v99h793v-99z" />
    <glyph glyph-name="dagger" unicode="&#x2020;" horiz-adv-x="1489" 
d="M766 -350h-42c-27 430 -33 860 -36 1289l-453 -20v141l453 -21l-16 361h146l-16 -361l452 21v-141l-452 20c-4 -429 -10 -859 -36 -1289z" />
    <glyph glyph-name="daggerdbl" unicode="&#x2021;" horiz-adv-x="1489" 
d="M818 -350h-146l16 361l-453 -21v136l457 -21l10 420l-10 420l-457 -21v136l453 -21l-16 361h146l-16 -361l452 21v-136l-457 21l-9 -420l9 -420l457 21v-136l-452 21z" />
    <glyph glyph-name="plus" unicode="+" horiz-adv-x="1538" 
d="M825 142h-112v435h-463v109h463v434h112v-434h463v-109h-463v-435z" />
    <glyph glyph-name="minus" unicode="&#x2212;" horiz-adv-x="1438" 
d="M1189 576h-939v111h939v-111z" />
    <glyph glyph-name="multiply" unicode="&#xd7;" horiz-adv-x="1587" 
d="M793 551l-341 -341l-77 77l341 341l-341 342l77 78l341 -342l342 342l77 -78l-341 -342l341 -341l-77 -77z" />
    <glyph glyph-name="divide" unicode="&#xf7;" horiz-adv-x="1440" 
d="M824 903h-208v204h208v-204zM1190 578h-940v107h940v-107zM824 155h-208v204h208v-204z" />
    <glyph glyph-name="equal" unicode="=" horiz-adv-x="1690" 
d="M1315 771h-940v111h940v-111zM1315 382h-940v111h940v-111z" />
    <glyph glyph-name="notequal" unicode="&#x2260;" horiz-adv-x="1690" 
d="M1315 882v-111h-339l-144 -278h483v-111h-540l-162 -314h-118l162 314h-282v111h339l143 278h-482v111h540l162 315h119l-163 -315h282z" />
    <glyph glyph-name="greater" unicode="&#x3e;" horiz-adv-x="1616" 
d="M375 902v119l991 -309v-164l-991 -309v119l657 201c77 23 127 37 210 57v28c-83 20 -133 34 -210 57z" />
    <glyph glyph-name="less" unicode="&#x3c;" horiz-adv-x="1616" 
d="M1241 360v-119l-991 309v164l991 309v-119l-658 -201c-76 -23 -127 -37 -209 -57v-28c82 -21 133 -35 209 -58z" />
    <glyph glyph-name="greaterequal" unicode="&#x2265;" horiz-adv-x="1616" 
d="M375 1020v119l991 -309v-164l-991 -309v119l657 201c77 23 127 37 210 57v28c-83 20 -133 35 -210 57zM1366 136h-991v109h991v-109z" />
    <glyph glyph-name="lessequal" unicode="&#x2264;" horiz-adv-x="1616" 
d="M1241 476v-119l-991 309v164l991 309v-119l-658 -201c-76 -23 -127 -37 -209 -57v-28c82 -20 133 -35 209 -57zM1241 136h-991v109h991v-109z" />
    <glyph glyph-name="plusminus" unicode="&#xb1;" horiz-adv-x="2013" 
d="M1063 428h-113v353h-463v109h463v357h113v-357h462v-109h-462v-353zM1525 153h-1038v109h1038v-109z" />
    <glyph glyph-name="approxequal" unicode="&#x2248;" horiz-adv-x="1718" 
d="M1109 705c-188 0 -365 211 -501 211c-91 0 -128 -67 -130 -207h-103c1 210 79 320 234 320c176 0 365 -211 502 -211c90 0 125 69 129 188h103c-2 -189 -89 -301 -234 -301zM1109 247c-188 0 -365 211 -501 211c-91 0 -128 -67 -130 -206h-103c1 209 79 319 234 319
c176 0 365 -210 502 -210c90 0 125 69 129 188h103c-2 -190 -89 -302 -234 -302z" />
    <glyph glyph-name="asciitilde" unicode="~" horiz-adv-x="1718" 
d="M1109 474c-188 0 -365 210 -501 210c-91 0 -128 -67 -130 -206h-103c1 210 79 320 234 320c176 0 365 -211 502 -211c90 0 125 69 129 188h103c-2 -189 -89 -301 -234 -301z" />
    <glyph glyph-name="logicalnot" unicode="&#xac;" horiz-adv-x="1695" 
d="M1320 369h-113v350h-832v111h945v-461z" />
    <glyph glyph-name="asciicircum" unicode="^" horiz-adv-x="1730" 
d="M393 744h-158l561 656h138l561 -656h-158l-338 394c-41 49 -81 105 -115 158h-38c-31 -50 -71 -106 -114 -157z" />
    <glyph glyph-name="infinity" unicode="&#x221e;" horiz-adv-x="2194" 
d="M1645 1115c253 0 391 -146 391 -414v-2c0 -268 -138 -414 -391 -414c-222 0 -389 155 -543 320c-155 -165 -325 -320 -553 -320c-254 0 -392 146 -392 414v2c0 268 138 414 392 414c222 0 388 -155 542 -320c156 165 325 320 554 320zM553 407c173 0 312 142 456 299
c-143 157 -283 297 -456 297c-176 0 -274 -108 -274 -302v-2c0 -188 98 -292 274 -292zM1914 699v2c0 188 -98 292 -274 292c-172 0 -311 -142 -456 -299c143 -157 283 -297 456 -297c176 0 274 108 274 302z" />
    <glyph glyph-name="percent" unicode="%" horiz-adv-x="2113" 
d="M523 724c-236 0 -366 123 -366 345v6c0 223 130 346 366 346c237 0 366 -123 366 -346v-6c0 -222 -129 -345 -366 -345zM641 0h-150l981 1400h149zM523 820c152 0 236 90 236 250v5c0 161 -84 250 -236 250s-236 -89 -236 -250v-5c0 -160 84 -250 236 -250zM1589 -21
c-236 0 -366 123 -366 346v6c0 222 130 345 366 345c237 0 366 -123 366 -345v-6c0 -223 -129 -346 -366 -346zM1589 75c152 0 236 90 236 250v5c0 161 -84 250 -236 250s-236 -89 -236 -250v-5c0 -160 84 -250 236 -250z" />
    <glyph glyph-name="perthousand" unicode="&#x2030;" horiz-adv-x="2973" 
d="M523 724c-236 0 -366 123 -366 345v6c0 223 130 346 366 346c237 0 366 -123 366 -346v-6c0 -222 -129 -345 -366 -345zM641 0h-150l981 1400h149zM523 820c152 0 236 90 236 250v5c0 161 -84 250 -236 250s-236 -89 -236 -250v-5c0 -160 84 -250 236 -250zM1589 -21
c-236 0 -366 123 -366 346v6c0 222 130 345 366 345c237 0 366 -123 366 -345v-6c0 -223 -129 -346 -366 -346zM2449 -21c-236 0 -366 123 -366 346v6c0 222 130 345 366 345c237 0 366 -123 366 -345v-6c0 -223 -129 -346 -366 -346zM1589 75c152 0 236 90 236 250v5
c0 161 -84 250 -236 250s-236 -89 -236 -250v-5c0 -160 84 -250 236 -250zM2449 75c152 0 236 90 236 250v5c0 161 -84 250 -236 250s-236 -89 -236 -250v-5c0 -160 84 -250 236 -250z" />
    <glyph glyph-name="lozenge" unicode="&#x25ca;" horiz-adv-x="1719" 
d="M923 0h-127l-561 700l561 700h127l561 -700zM846 109h27c32 53 73 115 113 165l345 426l-345 426c-40 51 -81 112 -113 165h-27c-33 -55 -73 -115 -113 -165l-345 -426l345 -426c40 -50 82 -113 113 -165z" />
    <glyph glyph-name="degree" unicode="&#xb0;" horiz-adv-x="1166" 
d="M583 737c-256 0 -426 136 -426 342s170 342 426 342s425 -136 425 -342s-169 -342 -425 -342zM583 835c189 0 311 96 311 244s-122 244 -311 244s-312 -96 -312 -244s123 -244 312 -244z" />
    <glyph glyph-name="uni2300" unicode="&#x2300;" horiz-adv-x="1719" 
d="M1441 1332l80 -79l-209 -209c83 -101 133 -231 133 -373c0 -326 -261 -587 -586 -587c-142 0 -273 50 -374 133l-208 -208l-80 79l209 209c-84 101 -134 231 -134 374c0 325 261 586 587 586c142 0 272 -50 373 -134zM387 671c0 -111 37 -213 100 -293l665 665
c-81 63 -182 100 -293 100c-263 0 -472 -210 -472 -472zM1331 671c0 111 -37 212 -100 292l-665 -665c81 -63 182 -100 293 -100c263 0 472 210 472 473z" />
    <glyph glyph-name="bar" unicode="|" horiz-adv-x="605" 
d="M370 -200h-135v1650h135v-1650z" />
    <glyph glyph-name="brokenbar" unicode="&#xa6;" horiz-adv-x="605" 
d="M370 752h-135v698h135v-698zM370 -200h-135v698h135v-698z" />
    <glyph glyph-name="uni25CF" unicode="&#x25cf;" horiz-adv-x="1448" 
d="M724 -20c-301 0 -544 243 -544 545s243 545 544 545s544 -243 544 -545s-243 -545 -544 -545z" />
    <glyph glyph-name="circle" unicode="&#x25cb;" horiz-adv-x="1448" 
d="M724 -20c-301 0 -544 243 -544 545s243 545 544 545s544 -243 544 -545s-243 -545 -544 -545zM724 60c257 0 464 207 464 465s-207 465 -464 465s-464 -207 -464 -465s207 -465 464 -465z" />
    <glyph glyph-name="filledbox" unicode="&#x25a0;" horiz-adv-x="1480" 
d="M1265 0h-1050v1050h1050v-1050z" />
    <glyph glyph-name="uni25A1" unicode="&#x25a1;" horiz-adv-x="1480" 
d="M1265 0h-1050v1050h1050v-1050zM295 970v-890h890v890h-890z" />
    <glyph glyph-name="uni2B24" unicode="&#x2b24;" horiz-adv-x="1900" 
d="M950 -70c439 0 770 331 770 770s-331 770 -770 770s-770 -331 -770 -770s331 -770 770 -770z" />
    <glyph glyph-name="uni2B1B" unicode="&#x2b1b;" horiz-adv-x="1830" 
d="M1615 0h-1400v1400h1400v-1400z" />
    <glyph glyph-name="whiteLargeCircle" horiz-adv-x="1900" 
d="M950 -70c-439 0 -770 331 -770 770s331 770 770 770s770 -331 770 -770s-331 -770 -770 -770zM950 10c393 0 690 297 690 690s-297 690 -690 690s-690 -297 -690 -690s297 -690 690 -690z" />
    <glyph glyph-name="uni2B1C" unicode="&#x2b1c;" horiz-adv-x="1830" 
d="M1615 0h-1400v1400h1400v-1400zM295 1320v-1240h1240v1240h-1240z" />
    <glyph glyph-name="triagup" unicode="&#x25b2;" horiz-adv-x="1423" 
d="M200 154l512 886l511 -886h-1023z" />
    <glyph glyph-name="uni25B6" unicode="&#x25b6;" horiz-adv-x="1436" 
d="M350 1084l886 -512l-886 -511v1023z" />
    <glyph glyph-name="triagdn" unicode="&#x25bc;" horiz-adv-x="1423" 
d="M1223 980l-511 -886l-512 886h1023z" />
    <glyph glyph-name="uni25C0" unicode="&#x25c0;" horiz-adv-x="1436" 
d="M1086 61l-886 511l886 512v-1023z" />
    <glyph glyph-name="arrowup" unicode="&#x2191;" horiz-adv-x="1720" 
d="M924 0h-128v899c0 119 8 219 20 299l-26 11l-441 -557h-154l627 748h76l627 -748h-154l-441 557l-26 -11c12 -80 20 -180 20 -299v-899z" />
    <glyph glyph-name="uni2197" unicode="&#x2197;" horiz-adv-x="1493" 
d="M290 164l-91 91l635 636c85 84 161 149 226 197l-10 26l-706 -82l-108 109l971 86l55 -55l-86 -971l-109 108l82 706l-26 10c-49 -65 -113 -141 -198 -226z" />
    <glyph glyph-name="arrowright" unicode="&#x2192;" horiz-adv-x="1802" 
d="M1602 662l-748 -627v154l557 441l-11 26c-80 -12 -181 -20 -299 -20h-899v128h899c118 0 219 -8 299 -20l11 26l-557 441v154l748 -627v-76z" />
    <glyph glyph-name="uni2198" unicode="&#x2198;" horiz-adv-x="1493" 
d="M1262 194l-55 -55l-971 86l108 109l706 -82l10 26c-65 48 -141 113 -226 197l-635 636l91 91l635 -635c85 -85 149 -161 198 -226l26 10l-82 706l109 108z" />
    <glyph glyph-name="arrowdown" unicode="&#x2193;" horiz-adv-x="1720" 
d="M796 501v899h128v-899c0 -119 -8 -219 -20 -299l26 -11l441 557h154l-627 -748h-76l-627 748h154l441 -557l26 11c-12 80 -20 180 -20 299z" />
    <glyph glyph-name="uni2199" unicode="&#x2199;" horiz-adv-x="1493" 
d="M1257 225l-971 -86l-55 55l86 971l109 -108l-82 -706l26 -10c48 65 113 141 197 226l636 635l91 -91l-635 -636c-85 -84 -161 -149 -226 -197l10 -26l705 82z" />
    <glyph glyph-name="arrowleft" unicode="&#x2190;" horiz-adv-x="1802" 
d="M948 189v-154l-748 627v76l748 627v-154l-557 -441l11 -26c80 12 180 20 299 20h899v-128h-899c-119 0 -219 8 -299 20l-11 -26z" />
    <glyph glyph-name="uni2196" unicode="&#x2196;" horiz-adv-x="1493" 
d="M659 891l635 -636l-91 -91l-636 635c-84 85 -149 161 -197 226l-26 -10l82 -706l-109 -108l-86 971l55 55l971 -86l-109 -109l-705 82l-10 -26c65 -48 141 -113 226 -197z" />
    <glyph glyph-name="arrowboth" unicode="&#x2194;" horiz-adv-x="2840" 
d="M948 189v-154l-748 627v76l748 627v-154l-557 -441l11 -26c80 12 180 20 299 20h1438c119 0 219 -8 299 -20l11 26l-556 441v154l747 -627v-76l-747 -627v154l556 441l-11 26c-80 -12 -180 -20 -299 -20h-1438c-119 0 -219 8 -299 20l-11 -26z" />
    <glyph glyph-name="arrowupdn" unicode="&#x2195;" horiz-adv-x="1760" 
d="M918 -359h-76l-627 748h154l441 -556l26 10c-12 81 -20 181 -20 299v1024c0 119 8 219 20 299l-26 11l-441 -557h-154l627 748h76l627 -748h-154l-441 557l-26 -11c12 -80 20 -180 20 -299v-1024c0 -118 -8 -218 -20 -299l26 -10l441 556h154z" />
    <glyph glyph-name="uni2BA0" unicode="&#x2ba0;" horiz-adv-x="1859" 
d="M948 189v-154l-748 627v76l748 627v-154l-557 -441l11 -26c80 12 180 20 299 20h788v442h129v-570h-917c-119 0 -219 8 -299 20l-11 -26z" />
    <glyph glyph-name="uni2BA1" unicode="&#x2ba1;" horiz-adv-x="1859" 
d="M1659 662l-748 -627v154l557 441l-11 26c-80 -12 -180 -20 -299 -20h-916v570h129v-442h787c119 0 219 -8 299 -20l11 26l-557 441v154l748 -627v-76z" />
    <glyph glyph-name="uni2BA6" unicode="&#x2ba6;" horiz-adv-x="1720" 
d="M898 0h-76l-627 748h154l441 -557l26 11c-12 80 -20 180 -20 299v899h570v-125h-442v-774c0 -119 -8 -219 -20 -299l26 -11l441 557h154z" />
    <glyph glyph-name="uni2BA4" unicode="&#x2ba4;" horiz-adv-x="1720" 
d="M195 652l627 748h76l627 -748h-154l-441 557l-26 -11c12 -80 20 -180 20 -299v-774h442v-125h-570v899c0 119 8 219 20 299l-26 11l-441 -557h-154z" />
    <glyph glyph-name="uni2BA7" unicode="&#x2ba7;" horiz-adv-x="1720" 
d="M1525 748l-627 -748h-76l-627 748h154l441 -557l26 11c-12 80 -20 180 -20 299v774h-442v125h570v-899c0 -119 -8 -219 -20 -299l26 -11l441 557h154z" />
    <glyph glyph-name="uni2BA5" unicode="&#x2ba5;" horiz-adv-x="1720" 
d="M822 1400h76l627 -748h-154l-441 557l-26 -11c12 -80 20 -180 20 -299v-899h-570v125h442v774c0 119 8 219 20 299l-26 11l-441 -557h-154z" />
    <glyph glyph-name="uni2BA2" unicode="&#x2ba2;" horiz-adv-x="1859" 
d="M948 189v-154l-748 635v60l748 635v-154l-401 -329c-50 -39 -114 -82 -164 -112l3 -16c68 8 136 10 206 10h1026v-570h-129v442h-897c-70 0 -138 2 -206 10l-3 -16c50 -30 114 -73 164 -112z" />
    <glyph glyph-name="uni2BA3" unicode="&#x2ba3;" horiz-adv-x="1859" 
d="M1659 670l-748 -635v154l401 329c50 39 114 82 164 112l-3 16c-68 -8 -136 -10 -206 -10h-896v-442h-129v570h1025c70 0 138 -2 206 -10l3 16c-50 30 -114 73 -164 112l-401 329v154l748 -635v-60z" />
    <glyph glyph-name="arrowup.ss05" horiz-adv-x="1720" 
d="M924 0h-128v652h-601l635 748h60l635 -748h-601v-652z" />
    <glyph glyph-name="uni2197.ss05" horiz-adv-x="1486" 
d="M751 626l-461 -462l-91 91l462 461l-425 425l977 79l42 -42l-79 -977z" />
    <glyph glyph-name="arrowright.ss05" horiz-adv-x="1802" 
d="M1602 670l-748 -635v601h-652v128h652v601l748 -635v-60z" />
    <glyph glyph-name="uni2198.ss05" horiz-adv-x="1486" 
d="M1255 181l-42 -42l-977 79l425 425l-462 461l91 91l461 -462l425 425z" />
    <glyph glyph-name="arrowdown.ss05" horiz-adv-x="1720" 
d="M796 748v652h128v-652h601l-635 -748h-60l-635 748h601z" />
    <glyph glyph-name="uni2199.ss05" horiz-adv-x="1486" 
d="M1250 218l-977 -79l-42 42l79 977l425 -425l461 462l91 -91l-462 -461z" />
    <glyph glyph-name="arrowleft.ss05" horiz-adv-x="1802" 
d="M948 636v-601l-748 635v60l748 635v-601h652v-128h-652z" />
    <glyph glyph-name="uni2196.ss05" horiz-adv-x="1486" 
d="M1287 255l-91 -91l-461 462l-425 -425l-79 977l42 42l977 -79l-425 -425z" />
    <glyph glyph-name="arrowboth.ss05" horiz-adv-x="2840" 
d="M948 636v-601l-748 635v60l748 635v-601h945v601l747 -635v-60l-747 -635v601h-945z" />
    <glyph glyph-name="arrowupdn.ss05" horiz-adv-x="1760" 
d="M910 -360h-60l-635 747h601v534h-601l635 748h60l635 -748h-601v-534h601z" />
    <glyph glyph-name="uni2BA0.ss05" horiz-adv-x="1859" 
d="M948 636v-601l-748 635v60l748 635v-601h541v442h129v-570h-670z" />
    <glyph glyph-name="uni2BA1.ss05" horiz-adv-x="1859" 
d="M1659 670l-748 -635v601h-669v570h129v-442h540v601l748 -635v-60z" />
    <glyph glyph-name="uni2BA6.ss05" horiz-adv-x="1720" 
d="M890 0h-60l-635 748h601v652h570v-125h-442v-527h601z" />
    <glyph glyph-name="uni2BA4.ss05" horiz-adv-x="1720" 
d="M1366 0h-570v652h-601l635 748h60l635 -748h-601v-527h442v-125z" />
    <glyph glyph-name="uni2BA7.ss05" horiz-adv-x="1720" 
d="M1525 748l-635 -748h-60l-635 748h601v527h-442v125h570v-652h601z" />
    <glyph glyph-name="uni2BA5.ss05" horiz-adv-x="1720" 
d="M924 652v-652h-570v125h442v527h-601l635 748h60l635 -748h-601z" />
    <glyph glyph-name="uni2BA2.ss05" horiz-adv-x="1859" 
d="M948 636v-601l-748 635v60l748 635v-601h670v-570h-129v442h-541z" />
    <glyph glyph-name="uni2BA3.ss05" horiz-adv-x="1859" 
d="M1659 670l-748 -635v601h-540v-442h-129v570h669v601l748 -635v-60z" />
    <glyph glyph-name="uni0410" unicode="&#x410;" horiz-adv-x="1536" 
d="M220 0h-153l610 1400h183l609 -1400h-161l-153 349h-781zM591 867l-178 -409h702l-172 408c-57 136 -103 250 -162 413h-31c-57 -163 -101 -278 -159 -412z" />
    <glyph glyph-name="uni0411" unicode="&#x411;" horiz-adv-x="1582" 
d="M987 0h-752v1400h1113v-111h-963v-454h602c305 0 472 -146 472 -416c0 -272 -167 -419 -472 -419zM385 726v-617h570c236 0 349 93 349 310c0 216 -113 307 -349 307h-570z" />
    <glyph glyph-name="uni0412" unicode="&#x412;" horiz-adv-x="1637" 
d="M1050 0h-815v1400h805c265 0 408 -122 408 -343c0 -165 -86 -270 -239 -289v-27c184 -19 287 -141 287 -340c0 -258 -157 -401 -446 -401zM385 1291v-486h628c186 0 285 86 285 245s-99 241 -285 241h-628zM385 698v-589h636c208 0 319 103 319 297
c0 190 -111 292 -319 292h-636z" />
    <glyph glyph-name="uni0413" unicode="&#x413;" horiz-adv-x="1343" 
d="M385 0h-150v1400h1050v-114h-900v-1286z" />
    <glyph glyph-name="uni0403" unicode="&#x403;" horiz-adv-x="1343" 
d="M819 1535h-121l177 224h188zM385 0h-150v1400h1050v-114h-900v-1286z" />
    <glyph glyph-name="uni0490" unicode="&#x490;" horiz-adv-x="1343" 
d="M1155 1400v190h130v-304h-900v-1286h-150v1400h920z" />
    <glyph glyph-name="uni0492" unicode="&#x492;" horiz-adv-x="1455" 
d="M1397 1400v-114h-901v-483h600v-101h-600v-702h-150v702h-246v101h246v597h1051z" />
    <glyph glyph-name="uni0414" unicode="&#x414;" horiz-adv-x="1687" 
d="M235 -209h-147v320h82c92 196 95 569 96 1288h1171v-1288h108v-320h-147v209h-1163v-209zM288 138l14 -27h985v1177h-880c-1 -567 -24 -1027 -119 -1150z" />
    <glyph glyph-name="uni0415" unicode="&#x415;" horiz-adv-x="1509" 
d="M1387 0h-1152v1400h1131v-111h-981v-480h931v-109h-931v-589h1002v-111z" />
    <glyph glyph-name="uni0415_uni0301" horiz-adv-x="1509" 
d="M870 1535h-121l177 224h188zM1387 0h-1152v1400h1131v-111h-981v-480h931v-109h-931v-589h1002v-111z" />
    <glyph glyph-name="uni0400" unicode="&#x400;" horiz-adv-x="1509" 
d="M874 1535h-121l-244 224h188zM1387 0h-1152v1400h1131v-111h-981v-480h931v-109h-931v-589h1002v-111z" />
    <glyph glyph-name="uni0401" unicode="&#x401;" horiz-adv-x="1509" 
d="M671 1556h-175v161h175v-161zM1126 1556h-175v161h175v-161zM1387 0h-1152v1400h1131v-111h-981v-480h931v-109h-931v-589h1002v-111z" />
    <glyph glyph-name="uni0416" unicode="&#x416;" horiz-adv-x="2284" 
d="M262 0h-193l-2 31c58 27 126 135 184 284l58 149c58 150 108 242 228 265v28c-114 20 -169 92 -220 225l-50 134c-51 134 -110 231 -164 253l2 31h184c39 -55 67 -133 115 -262l48 -129c48 -129 104 -209 280 -209h335v600h150v-600h336c176 0 232 80 280 209l48 129
c48 129 76 207 115 262h183l2 -31c-54 -22 -113 -119 -163 -253l-51 -134c-50 -133 -106 -205 -219 -225v-28c119 -23 169 -115 227 -265l58 -149c59 -149 126 -257 185 -284l-2 -31h-194c-42 62 -80 148 -130 292l-50 144c-50 144 -101 252 -289 252h-336v-688h-150v688
h-335c-188 0 -239 -108 -289 -252l-50 -144c-50 -144 -89 -230 -131 -292z" />
    <glyph glyph-name="uni0496" unicode="&#x496;" horiz-adv-x="2284" 
d="M2135 113h119v-322h-147v209h-85c-42 62 -80 148 -130 292l-50 144c-50 144 -101 252 -289 252h-336v-688h-150v688h-335c-188 0 -239 -108 -289 -252l-50 -144c-50 -144 -89 -230 -131 -292h-193l-2 31c58 27 126 135 184 284l58 149c58 150 108 242 228 265v28
c-114 20 -169 92 -220 225l-50 134c-51 134 -110 231 -164 253l2 31h184c39 -55 67 -133 115 -262l48 -129c48 -129 104 -209 280 -209h335v600h150v-600h336c176 0 232 80 280 209l48 129c48 129 76 207 115 262h183l2 -31c-54 -22 -113 -119 -163 -253l-51 -134
c-50 -133 -106 -205 -219 -225v-28c119 -23 169 -115 227 -265l58 -149c32 -82 67 -152 102 -202z" />
    <glyph glyph-name="uni0417" unicode="&#x417;" horiz-adv-x="1690" 
d="M856 -21c-430 0 -673 179 -687 422l152 42c0 -217 176 -353 538 -353s508 100 508 316c0 191 -142 274 -445 274h-199v110h213c273 0 392 85 392 248c0 192 -147 272 -469 272c-358 0 -527 -141 -521 -366l-150 48c11 246 247 429 665 429c419 0 624 -125 624 -372
c0 -169 -99 -266 -299 -297v-27c228 -25 345 -138 345 -328c0 -271 -206 -418 -667 -418z" />
    <glyph glyph-name="uni0418" unicode="&#x418;" horiz-adv-x="1740" 
d="M408 0h-173v1400h150v-919c0 -107 -7 -212 -25 -316l31 -4c40 72 73 117 118 176l823 1063h173v-1400h-150v926c0 101 10 226 24 314l-32 4c-41 -80 -75 -129 -125 -193z" />
    <glyph glyph-name="uni0418_uni0301" horiz-adv-x="1740" 
d="M930 1535h-121l177 224h188zM408 0h-173v1400h150v-919c0 -107 -7 -212 -25 -316l31 -4c40 72 73 117 118 176l823 1063h173v-1400h-150v926c0 101 10 226 24 314l-32 4c-41 -80 -75 -129 -125 -193z" />
    <glyph glyph-name="uni0419" unicode="&#x419;" horiz-adv-x="1740" 
d="M871 1518c-282 0 -397 86 -402 241h146c4 -94 73 -147 256 -147c182 0 251 53 255 147h146c-5 -155 -120 -241 -401 -241zM408 0h-173v1400h150v-919c0 -107 -7 -212 -25 -316l31 -4c40 72 73 117 118 176l823 1063h173v-1400h-150v926c0 101 10 226 24 314l-32 4
c-41 -80 -75 -129 -125 -193z" />
    <glyph glyph-name="uni040D" unicode="&#x40d;" horiz-adv-x="1740" 
d="M933 1535h-121l-244 224h188zM408 0h-173v1400h150v-919c0 -107 -7 -212 -25 -316l31 -4c40 72 73 117 118 176l823 1063h173v-1400h-150v926c0 101 10 226 24 314l-32 4c-41 -80 -75 -129 -125 -193z" />
    <glyph glyph-name="uni0406" unicode="&#x406;" horiz-adv-x="620" 
d="M385 0h-150v1400h150v-1400z" />
    <glyph glyph-name="uni0407" unicode="&#x407;" horiz-adv-x="620" 
d="M265 1555h-156v163h156v-163zM508 1555h-156v163h156v-163zM385 0h-150v1400h150v-1400z" />
    <glyph glyph-name="uni0408" unicode="&#x408;" horiz-adv-x="1445" 
d="M666 -21c-362 0 -565 201 -579 579l151 34c5 -331 154 -501 428 -501c257 0 404 146 404 430v879h150v-891c0 -343 -198 -530 -554 -530z" />
    <glyph glyph-name="uni041A" unicode="&#x41a;" horiz-adv-x="1583" 
d="M385 0h-150v1400h150v-600h466c176 0 233 80 281 209l48 129c48 129 76 207 114 262h184l2 -31c-54 -22 -111 -119 -163 -253l-53 -134c-52 -133 -104 -206 -219 -225v-28c121 -23 171 -115 229 -265l58 -149c58 -149 126 -257 185 -284l-3 -31h-193
c-42 62 -81 148 -130 292l-50 144c-50 144 -101 253 -290 253h-466v-689z" />
    <glyph glyph-name="uni040C" unicode="&#x40c;" horiz-adv-x="1583" 
d="M838 1535h-121l177 224h188zM385 0h-150v1400h150v-600h466c176 0 233 80 281 209l48 129c48 129 76 207 114 262h184l2 -31c-54 -22 -111 -119 -163 -253l-53 -134c-52 -133 -104 -206 -219 -225v-28c121 -23 171 -115 229 -265l58 -149c58 -149 126 -257 185 -284
l-3 -31h-193c-42 62 -81 148 -130 292l-50 144c-50 144 -101 253 -290 253h-466v-689z" />
    <glyph glyph-name="uni049A" unicode="&#x49a;" horiz-adv-x="1583" 
d="M1434 113h119v-322h-147v209h-85c-42 62 -81 148 -130 292l-50 144c-50 144 -101 253 -290 253h-466v-689h-150v1400h150v-600h466c176 0 233 80 281 209l48 129c48 129 76 207 114 262h184l2 -31c-54 -22 -111 -119 -163 -253l-53 -134c-52 -133 -104 -206 -219 -225
v-28c121 -23 171 -115 229 -265l58 -149c32 -82 67 -152 102 -202z" />
    <glyph glyph-name="uni041B" unicode="&#x41b;" horiz-adv-x="1736" 
d="M90 -19l-22 131l34 2c212 7 246 437 259 1091l4 195h1137v-1400h-150v1286h-848l-4 -103c-35 -709 -68 -1211 -410 -1202z" />
    <glyph glyph-name="uni0409" unicode="&#x409;" horiz-adv-x="2678" 
d="M1502 851h598c305 0 471 -144 471 -424c0 -281 -166 -427 -471 -427h-748v1286h-848l-4 -103c-35 -709 -68 -1211 -410 -1202l-22 131l34 2c212 7 246 437 259 1091l4 195h1137v-549zM1502 109h563c237 0 351 95 351 318c0 222 -114 315 -351 315h-563v-633z" />
    <glyph glyph-name="uni041C" unicode="&#x41c;" horiz-adv-x="2013" 
d="M379 0h-144v1400h206l422 -913c48 -103 93 -208 133 -324h26c39 116 85 219 133 324l419 913h205v-1400h-149v844c0 130 10 239 32 380l-32 6l-563 -1230h-118l-567 1234l-33 -7c21 -141 30 -251 30 -383v-844z" />
    <glyph glyph-name="uni041D" unicode="&#x41d;" horiz-adv-x="1782" 
d="M385 0h-150v1400h150v-592h1012v592h150v-1400h-150v697h-1012v-697z" />
    <glyph glyph-name="uni04A2" unicode="&#x4a2;" horiz-adv-x="1787" 
d="M1547 1400v-1287h99v-322h-148v209h-101v697h-1012v-697h-150v1400h150v-592h1012v592h150z" />
    <glyph glyph-name="uni040A" unicode="&#x40a;" horiz-adv-x="2714" 
d="M1547 805h588c305 0 472 -143 472 -400c0 -262 -167 -405 -472 -405h-738v697h-1012v-697h-150v1400h150v-592h1012v592h150v-595zM1547 111h556c236 0 349 92 349 294c0 197 -113 289 -349 289h-556v-583z" />
    <glyph glyph-name="uni041E" unicode="&#x41e;" horiz-adv-x="1895" 
d="M947 -21c-497 0 -770 255 -770 720v4c0 463 273 718 770 718c498 0 770 -255 770 -718v-4c0 -465 -272 -720 -770 -720zM947 90c414 0 614 196 614 609v5c0 411 -200 606 -614 606c-413 0 -613 -195 -613 -606v-5c0 -413 200 -609 613 -609z" />
    <glyph glyph-name="uni041E_uni0301" horiz-adv-x="1895" 
d="M1006 1535h-121l177 224h188zM947 -21c-497 0 -770 255 -770 720v4c0 463 273 718 770 718c498 0 770 -255 770 -718v-4c0 -465 -272 -720 -770 -720zM947 90c414 0 614 196 614 609v5c0 411 -200 606 -614 606c-413 0 -613 -195 -613 -606v-5c0 -413 200 -609 613 -609z
" />
    <glyph glyph-name="uni04E8" unicode="&#x4e8;" horiz-adv-x="1895" 
d="M947 1421c498 0 770 -255 770 -718v-4c0 -465 -272 -720 -770 -720c-497 0 -770 255 -770 720v4c0 463 273 718 770 718zM947 1310c-394 0 -594 -177 -612 -550h1225c-18 373 -218 550 -613 550zM947 90c400 0 600 183 613 568h-1225c13 -385 213 -568 612 -568z" />
    <glyph glyph-name="uni041F" unicode="&#x41f;" horiz-adv-x="1716" 
d="M385 0h-150v1400h1247v-1400h-151v1286h-946v-1286z" />
    <glyph glyph-name="uni0420" unicode="&#x420;" horiz-adv-x="1559" 
d="M385 0h-150v1400h732c314 0 487 -153 487 -425c0 -271 -173 -423 -487 -423h-582v-552zM385 1291v-630h562c236 0 352 104 352 314c0 211 -116 316 -352 316h-562z" />
    <glyph glyph-name="uni0421" unicode="&#x421;" horiz-adv-x="1851" 
d="M941 -21c-493 0 -764 254 -764 718v4c0 465 269 720 760 720c433 0 687 -187 717 -467l-152 -45c-12 250 -196 401 -565 401c-407 0 -603 -199 -603 -608v-6c0 -407 198 -606 607 -606c372 0 561 147 578 388l155 -42c-35 -274 -294 -457 -733 -457z" />
    <glyph glyph-name="uni0422" unicode="&#x422;" horiz-adv-x="1421" 
d="M785 0h-150v1289h-577v111h1305v-111h-578v-1289z" />
    <glyph glyph-name="uni0423" unicode="&#x423;" horiz-adv-x="1461" 
d="M280 -21l-37 132l133 5c145 6 191 30 252 137l16 27l-577 1120h157l295 -584c67 -134 164 -337 191 -432h32c27 95 139 314 204 443l293 573h155l-521 -984c-132 -254 -197 -403 -593 -437z" />
    <glyph glyph-name="uni0423_uni0301" horiz-adv-x="1461" 
d="M790 1535h-121l177 224h188zM280 -21l-37 132l133 5c145 6 191 30 252 137l16 27l-577 1120h157l295 -584c67 -134 164 -337 191 -432h32c27 95 139 314 204 443l293 573h155l-521 -984c-132 -254 -197 -403 -593 -437z" />
    <glyph glyph-name="uni040E" unicode="&#x40e;" horiz-adv-x="1461" 
d="M732 1518c-282 0 -397 86 -402 241h146c4 -94 73 -147 256 -147c182 0 251 53 255 147h146c-5 -155 -120 -241 -401 -241zM280 -21l-37 132l133 5c145 6 191 30 252 137l16 27l-577 1120h157l295 -584c67 -134 164 -337 191 -432h32c27 95 139 314 204 443l293 573h155
l-521 -984c-132 -254 -197 -403 -593 -437z" />
    <glyph glyph-name="uni04EE" unicode="&#x4ee;" horiz-adv-x="1461" 
d="M1161 1557h-860v96h860v-96zM280 -21l-37 132l133 5c145 6 191 30 252 137l16 27l-577 1120h157l295 -584c67 -134 164 -337 191 -432h32c27 95 139 314 204 443l293 573h155l-521 -984c-132 -254 -197 -403 -593 -437z" />
    <glyph glyph-name="uni04AE" unicode="&#x4ae;" horiz-adv-x="1477" 
d="M813 0h-150v513l-596 887h168l321 -481c62 -95 109 -171 172 -293h29c60 124 105 198 168 294l320 480h165l-597 -887v-513z" />
    <glyph glyph-name="uni04B0" unicode="&#x4b0;" horiz-adv-x="1477" 
d="M1410 1400l-597 -887v-20h460v-101h-460v-392h-150v392h-383v101h383v20l-596 887h168l321 -481c62 -95 109 -171 172 -293h29c60 124 105 198 168 294l320 480h165z" />
    <glyph glyph-name="uni0424" unicode="&#x424;" horiz-adv-x="2181" 
d="M1166 -20h-150v151c-660 0 -847 262 -847 566v6c0 304 187 566 847 566v151h150v-151c659 0 847 -262 847 -566v-6c0 -304 -188 -566 -847 -566v-151zM1016 238v924c-570 0 -691 -210 -691 -459v-6c0 -247 121 -459 691 -459zM1165 1162v-924c571 0 691 212 691 459v6
c0 249 -125 459 -691 459z" />
    <glyph glyph-name="uni0425" unicode="&#x425;" horiz-adv-x="1471" 
d="M246 0h-179l575 708l-555 692h175l386 -483c27 -36 51 -74 71 -115h30c22 43 47 82 73 115l394 483h170l-560 -683l578 -717h-185l-392 490c-30 39 -58 82 -81 124h-30c-20 -39 -48 -80 -81 -122z" />
    <glyph glyph-name="uni04B2" unicode="&#x4b2;" horiz-adv-x="1471" 
d="M826 717l487 -604h118v-322h-147v209h-65l-392 490c-30 39 -58 82 -81 124h-30c-20 -39 -48 -80 -81 -122l-389 -492h-179l575 708l-555 692h175l386 -483c27 -36 51 -74 71 -115h30c22 43 47 82 73 115l394 483h170z" />
    <glyph glyph-name="uni0427" unicode="&#x427;" horiz-adv-x="1628" 
d="M1393 0h-150v626c-163 -46 -325 -62 -491 -62c-389 0 -567 136 -567 428v408h150v-392c0 -235 130 -333 443 -333c164 0 311 14 465 62v663h150v-1400z" />
    <glyph glyph-name="uni04B6" unicode="&#x4b6;" horiz-adv-x="1628" 
d="M1393 1400v-1287h108v-322h-147v209h-111v626c-163 -46 -325 -62 -491 -62c-389 0 -567 136 -567 428v408h150v-392c0 -235 130 -333 443 -333c164 0 311 14 465 62v663h150z" />
    <glyph glyph-name="uni0426" unicode="&#x426;" horiz-adv-x="1714" 
d="M1572 -209h-148v209h-1189v1400h150v-1286h928v1286h150v-1286h109v-323z" />
    <glyph glyph-name="uni0428" unicode="&#x428;" horiz-adv-x="2430" 
d="M2196 0h-1961v1400h150v-1286h755v1286h150v-1286h755v1286h151v-1400z" />
    <glyph glyph-name="uni0429" unicode="&#x429;" horiz-adv-x="2445" 
d="M2196 1400v-1287h107v-322h-147v209h-1921v1400h150v-1286h755v1286h150v-1286h755v1286h151z" />
    <glyph glyph-name="uni040F" unicode="&#x40f;" horiz-adv-x="1716" 
d="M1331 1400h151v-1400h-540v-209h-148v209h-559v1400h150v-1286h946v1286z" />
    <glyph glyph-name="uni042A" unicode="&#x42a;" horiz-adv-x="1823" 
d="M646 851h598c306 0 472 -144 472 -424c0 -281 -166 -427 -472 -427h-748v1289h-438v111h588v-549zM646 109h564c237 0 351 95 351 318c0 222 -114 315 -351 315h-564v-633z" />
    <glyph glyph-name="uni042B" unicode="&#x42b;" horiz-adv-x="2141" 
d="M983 0h-748v1400h150v-549h598c305 0 471 -144 471 -424c0 -281 -166 -427 -471 -427zM1906 0h-150v1400h150v-1400zM385 742v-633h563c237 0 351 95 351 318c0 222 -114 315 -351 315h-563z" />
    <glyph glyph-name="uni042B_uni0301" horiz-adv-x="2141" 
d="M1130 1535h-121l177 224h188zM983 0h-748v1400h150v-549h598c305 0 471 -144 471 -424c0 -281 -166 -427 -471 -427zM1906 0h-150v1400h150v-1400zM385 742v-633h563c237 0 351 95 351 318c0 222 -114 315 -351 315h-563z" />
    <glyph glyph-name="uni042C" unicode="&#x42c;" horiz-adv-x="1562" 
d="M983 0h-748v1400h150v-549h598c305 0 471 -144 471 -424c0 -281 -166 -427 -471 -427zM385 742v-633h563c237 0 351 95 351 318c0 222 -114 315 -351 315h-563z" />
    <glyph glyph-name="uni0405" unicode="&#x405;" horiz-adv-x="1657" 
d="M852 -21c-444 0 -676 133 -709 408l153 47c14 -232 197 -345 560 -345c307 0 476 92 476 259c0 146 -85 206 -391 275l-301 68c-304 69 -425 163 -425 348c0 247 213 382 591 382c412 0 622 -138 643 -421l-145 -47c-11 242 -174 358 -499 358c-288 0 -446 -91 -446 -258
c0 -106 43 -171 346 -239l302 -69c305 -69 473 -153 473 -374c0 -252 -227 -392 -628 -392z" />
    <glyph glyph-name="uni0404" unicode="&#x404;" horiz-adv-x="1851" 
d="M1519 457l155 -41c-53 -254 -278 -437 -733 -437c-510 0 -764 254 -764 718v4c0 465 253 720 760 720c450 0 678 -187 717 -446l-152 -45c-20 233 -181 380 -565 380c-391 0 -575 -167 -600 -520h755v-110h-758c5 -400 188 -590 607 -590c387 0 543 144 578 367z" />
    <glyph glyph-name="uni042D" unicode="&#x42d;" horiz-adv-x="1843" 
d="M906 1421c507 0 759 -255 759 -720v-4c0 -464 -253 -718 -763 -718c-455 0 -681 183 -733 437l154 41c35 -223 192 -367 579 -367c418 0 602 190 607 590h-759v110h756c-25 353 -210 520 -600 520c-384 0 -545 -147 -566 -380l-151 45c38 259 267 446 717 446z" />
    <glyph glyph-name="uni042D_uni0301" horiz-adv-x="1843" 
d="M1032 1759h188l-244 -224h-121zM906 1421c507 0 759 -255 759 -720v-4c0 -464 -253 -718 -763 -718c-455 0 -681 183 -733 437l154 41c35 -223 192 -367 579 -367c418 0 602 190 607 590h-759v110h756c-25 353 -210 520 -600 520c-384 0 -545 -147 -566 -380l-151 45
c38 259 267 446 717 446z" />
    <glyph glyph-name="uni04D8" unicode="&#x4d8;" horiz-adv-x="1869" 
d="M911 1421c499 0 781 -256 781 -718v-5c0 -464 -272 -719 -770 -719s-745 247 -745 633c0 40 4 76 9 112h1350c-5 396 -213 586 -625 586c-387 0 -521 -153 -572 -329l-146 38c79 233 265 402 718 402zM922 90c388 0 589 171 612 532h-1197v-24c0 -316 172 -508 585 -508z
" />
    <glyph glyph-name="uni040B" unicode="&#x40b;" horiz-adv-x="1869" 
d="M605 0h-150v1286h-397v114h1302v-114h-755v-523c164 46 326 62 491 62c390 0 568 -136 568 -429v-396h-150v382c0 234 -130 332 -443 332c-164 0 -311 -14 -466 -62v-652z" />
    <glyph glyph-name="uni0402" unicode="&#x402;" horiz-adv-x="1869" 
d="M1197 -250l-29 128l114 7c184 12 232 56 232 221v275c0 234 -130 332 -443 332c-164 0 -311 -14 -466 -62v-651h-150v1286h-397v114h1302v-114h-755v-523c164 46 326 62 491 62c390 0 568 -136 568 -429v-265c0 -236 -148 -350 -467 -381z" />
    <glyph glyph-name="uni04BA" unicode="&#x4ba;" horiz-adv-x="1648" 
d="M235 1400h150v-626c163 46 325 62 491 62c389 0 567 -136 567 -428v-408h-150v392c0 235 -129 333 -442 333c-165 0 -312 -14 -466 -62v-663h-150v1400z" />
    <glyph glyph-name="uni042E" unicode="&#x42e;" horiz-adv-x="2349" 
d="M1413 1421c486 0 759 -255 759 -718v-4c0 -465 -273 -720 -759 -720c-471 0 -742 240 -758 678h-270v-657h-150v1400h150v-632h271c25 422 294 653 757 653zM2016 699v5c0 411 -200 606 -603 606c-405 0 -604 -195 -604 -606v-5c0 -413 199 -609 604 -609
c403 0 603 196 603 609z" />
    <glyph glyph-name="uni042E_uni0301" horiz-adv-x="2349" 
d="M1057 1762h188l-244 -224h-121zM1413 1421c486 0 759 -255 759 -718v-4c0 -465 -273 -720 -759 -720c-471 0 -742 240 -758 678h-270v-657h-150v1400h150v-632h271c25 422 294 653 757 653zM2016 699v5c0 411 -200 606 -603 606c-405 0 -604 -195 -604 -606v-5
c0 -413 199 -609 604 -609c403 0 603 196 603 609z" />
    <glyph glyph-name="uni042F" unicode="&#x42f;" horiz-adv-x="1649" 
d="M286 0h-193l-2 31c59 27 127 132 184 272l58 139c58 140 106 181 214 206l-3 27c-231 5 -354 130 -354 337c0 259 158 388 443 388h781v-1400h-150v619h-498c-188 0 -248 -65 -298 -203l-51 -138c-50 -138 -89 -218 -131 -278zM678 728h586v563h-605
c-212 0 -314 -82 -314 -284c0 -196 109 -279 333 -279z" />
    <glyph glyph-name="uni042F_uni0301" horiz-adv-x="1649" 
d="M932 1535h-121l177 224h188zM286 0h-193l-2 31c59 27 127 132 184 272l58 139c58 140 106 181 214 206l-3 27c-231 5 -354 130 -354 337c0 259 158 388 443 388h781v-1400h-150v619h-498c-188 0 -248 -65 -298 -203l-51 -138c-50 -138 -89 -218 -131 -278zM678 728h586
v563h-605c-212 0 -314 -82 -314 -284c0 -196 109 -279 333 -279z" />
    <glyph glyph-name="uni0414.loclBGR" horiz-adv-x="1712" 
d="M945 1400l562 -1289h98v-320h-148v209h-1205v-209h-147v320h98l559 1289h183zM674 854l-318 -743h990l-315 742c-58 133 -108 259 -164 428h-32c-57 -172 -106 -298 -161 -427z" />
    <glyph glyph-name="uni041B.loclBGR" horiz-adv-x="1534" 
d="M674 1400h183l610 -1400h-162l-362 853c-58 133 -108 259 -164 428h-32c-57 -172 -106 -298 -161 -427l-365 -854h-154z" />
    <glyph glyph-name="uni0430" unicode="&#x430;" horiz-adv-x="1502" 
d="M516 -21c-240 0 -376 89 -376 251c0 195 155 282 584 344l396 58v79c0 174 -126 261 -388 261c-272 0 -430 -101 -435 -264l-138 35c19 199 213 328 573 328c361 0 533 -117 533 -362v-529c0 -88 22 -92 91 -92h70l-31 -107c-10 -1 -19 -2 -30 -2
c-229 2 -261 75 -204 301l-33 9c-81 -182 -330 -310 -612 -310zM567 82c286 0 553 163 553 407v47l-353 -51c-371 -54 -475 -105 -475 -243c0 -103 97 -160 275 -160z" />
    <glyph glyph-name="uni0430_uni0301" horiz-adv-x="1502" 
d="M796 1187h-116l157 243h178zM516 -21c-240 0 -376 89 -376 251c0 195 155 282 584 344l396 58v79c0 174 -126 261 -388 261c-272 0 -430 -101 -435 -264l-138 35c19 199 213 328 573 328c361 0 533 -117 533 -362v-529c0 -88 22 -92 91 -92h70l-31 -107
c-10 -1 -19 -2 -30 -2c-229 2 -261 75 -204 301l-33 9c-81 -182 -330 -310 -612 -310zM567 82c286 0 553 163 553 407v47l-353 -51c-371 -54 -475 -105 -475 -243c0 -103 97 -160 275 -160z" />
    <glyph glyph-name="uni0431" unicode="&#x431;" horiz-adv-x="1628" 
d="M823 -21c-419 0 -648 191 -648 542v139c0 499 249 621 644 651l263 21c113 8 182 28 182 71h131c0 -111 -64 -160 -361 -184l-296 -24c-297 -25 -433 -184 -461 -467l31 -3c41 146 195 296 566 296c378 0 597 -192 597 -509v-6c0 -335 -229 -527 -648 -527zM825 82
c320 0 497 156 497 423v6c0 252 -177 407 -497 407c-321 0 -498 -136 -498 -407v-6c0 -267 177 -423 498 -423z" />
    <glyph glyph-name="uni0432" unicode="&#x432;" horiz-adv-x="1511" 
d="M1001 0h-786v1050h797c218 0 323 -90 323 -256c0 -121 -80 -201 -202 -215v-24c148 -14 238 -110 238 -256c0 -193 -124 -299 -370 -299zM360 950v-337h615c145 0 215 57 215 175c0 104 -74 162 -215 162h-615zM360 515v-414h612c175 0 249 72 249 203
c0 142 -79 211 -239 211h-622z" />
    <glyph glyph-name="uni0433" unicode="&#x433;" horiz-adv-x="1269" 
d="M360 0h-145v1050h1005v-111h-860v-939z" />
    <glyph glyph-name="uni0453" unicode="&#x453;" horiz-adv-x="1269" 
d="M742 1187h-116l157 243h178zM360 0h-145v1050h1005v-111h-860v-939z" />
    <glyph glyph-name="uni0491" unicode="&#x491;" horiz-adv-x="1269" 
d="M1102 1050v197h118v-308h-860v-939h-145v1050h887z" />
    <glyph glyph-name="uni0493" unicode="&#x493;" horiz-adv-x="1489" 
d="M1440 1050v-111h-860v-383h508v-97h-508v-459h-145v459h-315v97h315v494h1005z" />
    <glyph glyph-name="uni0434" unicode="&#x434;" horiz-adv-x="1574" 
d="M241 -194h-135v301h75c92 196 95 364 96 943h1026v-943h103v-301h-135v194h-1030v-194zM302 129l9 -22h847v836h-743c-1 -434 -22 -686 -113 -814z" />
    <glyph glyph-name="uni0435" unicode="&#x435;" horiz-adv-x="1610" 
d="M1304 316l147 -33c-85 -184 -302 -304 -639 -304c-398 0 -655 189 -655 543v8c0 330 257 541 659 541c376 0 620 -201 620 -481c0 -31 -3 -63 -8 -93h-1122c12 -272 215 -417 514 -417c259 0 422 100 484 236zM820 970c-282 0 -479 -147 -510 -372h979v4
c0 210 -189 368 -469 368z" />
    <glyph glyph-name="uni0435_uni0301" horiz-adv-x="1610" 
d="M911 1430h178l-219 -243h-116zM1304 316l147 -33c-85 -184 -302 -304 -639 -304c-398 0 -655 189 -655 543v8c0 330 257 541 659 541c376 0 620 -201 620 -481c0 -31 -3 -63 -8 -93h-1122c12 -272 215 -417 514 -417c259 0 422 100 484 236zM820 970
c-282 0 -479 -147 -510 -372h979v4c0 210 -189 368 -469 368z" />
    <glyph glyph-name="uni0450" unicode="&#x450;" horiz-adv-x="1610" 
d="M721 1430l157 -243h-117l-218 243h178zM1304 316l147 -33c-85 -184 -302 -304 -639 -304c-398 0 -655 189 -655 543v8c0 330 257 541 659 541c376 0 620 -201 620 -481c0 -31 -3 -63 -8 -93h-1122c12 -272 215 -417 514 -417c259 0 422 100 484 236zM820 970
c-282 0 -479 -147 -510 -372h979v4c0 210 -189 368 -469 368z" />
    <glyph glyph-name="uni0451" unicode="&#x451;" horiz-adv-x="1610" 
d="M501 1403h175v-162h-175v162zM956 1403h175v-162h-175v162zM1304 316l147 -33c-85 -184 -302 -304 -639 -304c-398 0 -655 189 -655 543v8c0 330 257 541 659 541c376 0 620 -201 620 -481c0 -31 -3 -63 -8 -93h-1122c12 -272 215 -417 514 -417c259 0 422 100 484 236z
M820 970c-282 0 -479 -147 -510 -372h979v4c0 210 -189 368 -469 368z" />
    <glyph glyph-name="uni0436" unicode="&#x436;" horiz-adv-x="2053" 
d="M252 0h-193l-2 31c60 23 136 109 191 226l54 117c54 116 111 151 196 167v26c-72 16 -118 60 -174 164l-55 103c-56 103 -118 167 -179 185l2 31h189c37 -41 57 -74 117 -184l59 -110c60 -110 86 -154 223 -154h274v448h145v-448h274c137 0 164 44 223 154l59 110
c60 110 80 143 117 184h189l2 -31c-61 -18 -123 -82 -179 -185l-55 -103c-55 -104 -101 -148 -174 -164v-26c85 -16 142 -51 196 -167l55 -117c54 -117 130 -203 190 -226l-2 -31h-193c-41 45 -61 77 -124 211l-63 134c-63 133 -111 150 -245 150h-270v-495h-145v495h-270
c-134 0 -182 -17 -245 -150l-63 -134c-63 -134 -83 -166 -124 -211z" />
    <glyph glyph-name="uni0497" unicode="&#x497;" horiz-adv-x="2053" 
d="M1900 107h113v-301h-136v194h-76c-41 45 -61 77 -124 211l-63 134c-63 133 -111 150 -245 150h-270v-495h-145v495h-270c-134 0 -182 -17 -245 -150l-63 -134c-63 -134 -83 -166 -124 -211h-193l-2 31c60 23 136 109 191 226l54 117c54 116 111 151 196 167v26
c-72 16 -118 60 -174 164l-55 103c-56 103 -118 167 -179 185l2 31h189c37 -41 57 -74 117 -184l59 -110c60 -110 86 -154 223 -154h274v448h145v-448h274c137 0 164 44 223 154l59 110c60 110 80 143 117 184h189l2 -31c-61 -18 -123 -82 -179 -185l-55 -103
c-55 -104 -101 -148 -174 -164v-26c85 -16 142 -51 196 -167l55 -117c27 -59 60 -111 94 -150z" />
    <glyph glyph-name="uni0437" unicode="&#x437;" horiz-adv-x="1509" 
d="M766 -21c-369 0 -576 93 -626 281l145 33c28 -141 188 -212 481 -212c301 0 454 80 454 240c0 118 -76 180 -347 180h-246v98h237c266 0 328 33 328 163c0 143 -131 207 -420 207c-296 0 -456 -81 -482 -245l-140 34c55 210 252 313 622 313c391 0 563 -104 563 -297
c0 -139 -96 -199 -213 -210v-28c146 -11 246 -96 246 -229c0 -221 -201 -328 -602 -328z" />
    <glyph glyph-name="uni0438" unicode="&#x438;" horiz-adv-x="1577" 
d="M383 0h-168v1050h145v-610c0 -127 -7 -205 -21 -287l32 -7c36 51 68 89 113 137l710 767h168v-1050h-145v616c0 121 6 204 20 283l-32 7c-41 -57 -76 -99 -121 -148z" />
    <glyph glyph-name="uni0438_uni0301" horiz-adv-x="1577" 
d="M834 1187h-116l157 243h178zM383 0h-168v1050h145v-610c0 -127 -7 -205 -21 -287l32 -7c36 51 68 89 113 137l710 767h168v-1050h-145v616c0 121 6 204 20 283l-32 7c-41 -57 -76 -99 -121 -148z" />
    <glyph glyph-name="uni0439" unicode="&#x439;" horiz-adv-x="1577" 
d="M780 1169c-218 0 -325 95 -330 257h128c3 -101 63 -173 202 -173s198 72 202 173h128c-5 -162 -112 -257 -330 -257zM383 0h-168v1050h145v-610c0 -127 -7 -205 -21 -287l32 -7c36 51 68 89 113 137l710 767h168v-1050h-145v616c0 121 6 204 20 283l-32 7
c-41 -57 -76 -99 -121 -148z" />
    <glyph glyph-name="uni045D" unicode="&#x45d;" horiz-adv-x="1577" 
d="M842 1187h-117l-218 243h178zM383 0h-168v1050h145v-610c0 -127 -7 -205 -21 -287l32 -7c36 51 68 89 113 137l710 767h168v-1050h-145v616c0 121 6 204 20 283l-32 7c-41 -57 -76 -99 -121 -148z" />
    <glyph glyph-name="uni04E3" unicode="&#x4e3;" horiz-adv-x="1577" 
d="M1209 1238h-860v95h860v-95zM383 0h-168v1050h145v-610c0 -127 -7 -205 -21 -287l32 -7c36 51 68 89 113 137l710 767h168v-1050h-145v616c0 121 6 204 20 283l-32 7c-41 -57 -76 -99 -121 -148z" />
    <glyph glyph-name="uni0456" unicode="&#x456;" horiz-adv-x="569" 
d="M374 1236h-179v164h179v-164zM357 0h-145v1050h145v-1050z" />
    <glyph glyph-name="uni0457" unicode="&#x457;" horiz-adv-x="575" 
d="M244 1240h-156v163h156v-163zM487 1240h-156v163h156v-163zM360 0h-145v1050h145v-1050z" />
    <glyph glyph-name="uni0458" unicode="&#x458;" horiz-adv-x="575" 
d="M377 1236h-180v164h180v-164zM-39 -370l-29 127l115 7c116 7 168 44 168 165v1121h145v-1007c0 -277 -131 -379 -399 -413z" />
    <glyph glyph-name="uni043A" unicode="&#x43a;" horiz-adv-x="1463" 
d="M360 0h-145v1050h145v-447h423c138 0 164 43 223 153l59 110c61 110 80 143 117 184h189l2 -31c-60 -18 -123 -82 -178 -185l-56 -103c-55 -104 -101 -148 -175 -163v-28c86 -15 143 -50 198 -166l54 -117c54 -117 130 -203 191 -226l-3 -31h-193c-41 45 -61 77 -124 211
l-63 134c-63 133 -111 150 -245 150h-419v-495z" />
    <glyph glyph-name="uni045C" unicode="&#x45c;" horiz-adv-x="1463" 
d="M799 1187h-116l157 243h178zM360 0h-145v1050h145v-447h423c138 0 164 43 223 153l59 110c61 110 80 143 117 184h189l2 -31c-60 -18 -123 -82 -178 -185l-56 -103c-55 -104 -101 -148 -175 -163v-28c86 -15 143 -50 198 -166l54 -117c54 -117 130 -203 191 -226l-3 -31
h-193c-41 45 -61 77 -124 211l-63 134c-63 133 -111 150 -245 150h-419v-495z" />
    <glyph glyph-name="uni049B" unicode="&#x49b;" horiz-adv-x="1463" 
d="M1310 107h114v-301h-136v194h-77c-41 45 -61 77 -124 211l-63 134c-63 133 -111 150 -245 150h-419v-495h-145v1050h145v-447h423c138 0 164 43 223 153l59 110c61 110 80 143 117 184h189l2 -31c-60 -18 -123 -82 -178 -185l-56 -103c-55 -104 -101 -148 -175 -163v-28
c86 -15 143 -50 198 -166l54 -117c27 -59 60 -111 94 -150z" />
    <glyph glyph-name="uni043B" unicode="&#x43b;" horiz-adv-x="1525" 
d="M69 -19l-19 136l70 5c140 12 177 146 193 826l2 102h995v-1050h-145v943h-719l-1 -24c-28 -589 -46 -954 -376 -938z" />
    <glyph glyph-name="uni0459" unicode="&#x459;" horiz-adv-x="2394" 
d="M1310 659h557c305 0 430 -126 430 -327c0 -206 -127 -332 -430 -332h-703v943h-718l-1 -24c-28 -589 -46 -954 -376 -938l-19 136l70 5c140 12 177 146 193 826l2 102h995v-391zM1310 103h527c233 0 310 70 310 228c0 157 -77 225 -310 225h-527v-453z" />
    <glyph glyph-name="uni043C" unicode="&#x43c;" horiz-adv-x="1839" 
d="M354 0h-139v1050h198l367 -662c49 -88 99 -191 129 -263h26c23 62 75 165 129 263l364 662h196v-1050h-143v553c0 118 11 259 29 360l-32 6l-503 -919h-109l-506 920l-32 -5c15 -103 26 -245 26 -362v-553z" />
    <glyph glyph-name="uni043D" unicode="&#x43d;" horiz-adv-x="1591" 
d="M360 0h-145v1050h145v-435h872v435h145v-1050h-145v508h-872v-508z" />
    </font>
</defs>
</svg>
