<?xml version="1.0" standalone="no"?>
<!DOCTYPE svg PUBLIC "-//W3C//DTD SVG 1.1//EN" "http://www.w3.org/Graphics/SVG/1.1/DTD/svg11.dtd" >
<svg xmlns="http://www.w3.org/2000/svg" xmlns:xlink="http://www.w3.org/1999/xlink" version="1.1">
<metadata>
Created by FontForge 20230101 at Wed Feb 26 02:58:28 2020
 By Webmaster
Copyright \(c\) 2020 by Alexander Slobzheninov. All rights reserved.
</metadata>
<defs>
<font id="RightGrotesk-Medium" horiz-adv-x="0" >
  <font-face 
    font-family="Right Grotesk Medium"
    font-weight="500"
    font-stretch="normal"
    units-per-em="2048"
    panose-1="0 0 6 0 0 0 0 0 0 0"
    ascent="1638"
    descent="-410"
    x-height="1050"
    cap-height="1400"
    bbox="-727 -389 2294 1820"
    underline-thickness="116"
    underline-position="-200"
    stemh="167"
    stemv="243"
    unicode-range="U+0020-2BA7"
  />
<missing-glyph horiz-adv-x="875" 
d="M718 1400v-1750h-555v1750h555zM583 1283h-289v-58h114v-65h-116v-57h291v57h-116v65h116v58zM467 1057h-175v-182h291v60h-116v122zM408 998v-63h-58v63h58zM583 828h-291v-58h116v-65h-116v-57h175v122h116v58zM583 723h-58v-116h-233v-59h291v175zM583 509h-175v-98
h59v41h58v-83h-175v140h-58v-197h291v197zM583 207h-291v-198h291v198zM525 149v-82h-175v82h175zM583 -32h-291v-57h123l-123 -83v-57h291v57h-179l123 83h56v57z" />
    <glyph glyph-name=".notdef" horiz-adv-x="875" 
d="M718 1400v-1750h-555v1750h555zM583 1283h-289v-58h114v-65h-116v-57h291v57h-116v65h116v58zM467 1057h-175v-182h291v60h-116v122zM408 998v-63h-58v63h58zM583 828h-291v-58h116v-65h-116v-57h175v122h116v58zM583 723h-58v-116h-233v-59h291v175zM583 509h-175v-98
h59v41h58v-83h-175v140h-58v-197h291v197zM583 207h-291v-198h291v198zM525 149v-82h-175v82h175zM583 -32h-291v-57h123l-123 -83v-57h291v57h-179l123 83h56v57z" />
    <glyph glyph-name="space" unicode=" " horiz-adv-x="365" 
 />
    <glyph glyph-name="A" unicode="A" horiz-adv-x="1180" 
d="M21 0l415 1400h305l418 -1400h-263l-77 276h-478l-77 -276h-243zM386 458h389l-107 389c-32 114 -56 213 -79 329h-21c-20 -116 -43 -215 -74 -329z" />
    <glyph glyph-name="B" unicode="B" horiz-adv-x="1159" 
d="M121 0v1400h525c270 0 409 -117 409 -341v-4c0 -166 -81 -269 -236 -300v-18c185 -33 282 -150 282 -342v-4c0 -257 -151 -391 -441 -391h-539zM369 820h232c140 0 207 63 207 194v5c0 127 -67 187 -207 187h-232v-386zM369 195h241c155 0 229 74 229 228v5
c0 152 -74 226 -229 226h-241v-459z" />
    <glyph glyph-name="C" unicode="C" horiz-adv-x="1221" 
d="M623 -25c-359 0 -543 247 -543 723v4c0 475 186 723 541 723c315 0 486 -181 506 -529l-237 -47c-6 260 -94 383 -269 383c-194 0 -288 -155 -288 -480v-104c0 -325 95 -480 290 -480c173 0 263 126 277 390l243 -59c-31 -345 -209 -524 -520 -524z" />
    <glyph glyph-name="D" unicode="D" horiz-adv-x="1207" 
d="M121 0v1400h430c388 0 576 -228 576 -699v-4c0 -470 -188 -697 -576 -697h-430zM369 196h173c231 0 331 132 331 438v131c0 307 -100 439 -331 439h-173v-1008z" />
    <glyph glyph-name="E" unicode="E" horiz-adv-x="1021" 
d="M369 201h585v-201h-833v1400h812v-200h-564v-381h518v-178h-518v-440z" />
    <glyph glyph-name="F" unicode="F" horiz-adv-x="981" 
d="M121 0v1400h798v-200h-550v-384h503v-186h-503v-630h-248z" />
    <glyph glyph-name="G" unicode="G" horiz-adv-x="1261" 
d="M544 -19c-303 0 -464 247 -464 722v4c0 472 189 718 554 718c304 0 464 -158 497 -447l-237 -47c-13 205 -97 300 -260 300c-202 0 -301 -155 -301 -483v-76c0 -338 91 -497 278 -497c172 0 269 138 300 425h-330v195h565v-795h-226c-4 82 10 170 56 353l-21 5
c-81 -247 -206 -377 -411 -377z" />
    <glyph glyph-name="H" unicode="H" horiz-adv-x="1244" 
d="M875 1400h248v-1400h-248v636h-506v-636h-248v1400h248v-564h506v564z" />
    <glyph glyph-name="I" unicode="I" horiz-adv-x="490" 
d="M121 1400h248v-1400h-248v1400z" />
    <glyph glyph-name="J" unicode="J" horiz-adv-x="1003" 
d="M474 -25c-266 0 -417 150 -427 466l251 38c0 -222 56 -315 182 -315c107 0 159 64 159 207v1029h249v-1058c0 -235 -148 -367 -414 -367z" />
    <glyph glyph-name="K" unicode="K" horiz-adv-x="1116" 
d="M121 0v1400h248v-365c0 -110 -6 -185 -24 -273l19 -8l458 646h264l-401 -558l398 -842h-274l-293 656l-147 -191v-465h-248z" />
    <glyph glyph-name="L" unicode="L" horiz-adv-x="950" 
d="M121 0v1400h248v-1199h536v-201h-784z" />
    <glyph glyph-name="M" unicode="M" horiz-adv-x="1531" 
d="M121 0v1400h307l240 -708c37 -104 64 -196 92 -331h16c28 135 56 228 92 331l234 708h309v-1400h-242v730c0 97 3 186 15 304l-20 2l-317 -1036h-166l-320 1037l-21 -2c11 -119 14 -208 14 -305v-730h-233z" />
    <glyph glyph-name="N" unicode="N" horiz-adv-x="1247" 
d="M121 0v1400h279l395 -834c34 -72 60 -134 89 -226l21 3c-12 108 -18 191 -18 281v776h239v-1400h-280l-383 820c-38 82 -68 153 -100 248l-20 -3c12 -113 16 -192 16 -286v-779h-238z" />
    <glyph glyph-name="O" unicode="O" horiz-adv-x="1279" 
d="M640 -25c-369 0 -560 236 -560 718v4c0 488 191 728 560 728c368 0 559 -240 559 -728v-4c0 -482 -191 -718 -559 -718zM640 168c206 0 305 154 305 476v103c0 329 -99 485 -306 485c-206 0 -306 -156 -306 -485v-103c0 -322 100 -476 307 -476z" />
    <glyph glyph-name="P" unicode="P" horiz-adv-x="1104" 
d="M595 1400c302 0 458 -146 458 -429v-4c0 -280 -156 -426 -458 -426h-226v-541h-248v1400h474zM567 732c163 0 242 77 242 235v4c0 160 -79 238 -242 238h-198v-477h198z" />
    <glyph glyph-name="Q" unicode="Q" horiz-adv-x="1279" 
d="M640 1425c368 0 559 -240 559 -728v-4c0 -454 -170 -690 -497 -716c1 -92 40 -122 157 -128l152 -8l-41 -207c-292 24 -434 144 -417 346c-312 35 -473 270 -473 713v4c0 488 191 728 560 728zM945 644v103c0 329 -99 485 -306 485c-206 0 -306 -156 -306 -485v-103
c0 -322 100 -476 307 -476c206 0 305 154 305 476z" />
    <glyph glyph-name="R" unicode="R" horiz-adv-x="1161" 
d="M121 0v1400h487c295 0 454 -132 454 -371v-4c0 -181 -106 -294 -297 -316v-19c120 -36 165 -91 209 -252l43 -161c44 -162 80 -217 131 -252l-3 -25h-285c-37 52 -57 123 -93 270l-35 147c-35 147 -78 197 -206 197h-157v-614h-248zM369 800h212c157 0 232 65 232 201v3
c0 135 -75 200 -232 200h-212v-404z" />
    <glyph glyph-name="S" unicode="S" horiz-adv-x="1150" 
d="M592 -25c-334 0 -522 162 -528 479l233 46c13 -234 96 -341 306 -341c147 0 239 75 239 190c0 106 -70 162 -243 228l-170 65c-182 70 -328 162 -327 393c1 248 169 390 454 390c314 0 487 -161 485 -444l-219 -43c-7 198 -91 304 -269 304c-134 0 -217 -68 -217 -170
c0 -104 57 -157 245 -225l170 -61c174 -63 335 -155 335 -392c0 -260 -187 -419 -494 -419z" />
    <glyph glyph-name="T" unicode="T" horiz-adv-x="1019" 
d="M385 0v1200h-362v200h973v-200h-362v-1200h-249z" />
    <glyph glyph-name="U" unicode="U" horiz-adv-x="1233" 
d="M869 1400h249v-980c0 -293 -172 -445 -501 -445s-501 152 -501 445v980h248v-960c0 -185 85 -276 253 -276s252 91 252 276v960z" />
    <glyph glyph-name="V" unicode="V" horiz-adv-x="1153" 
d="M437 0l-416 1400h265l216 -783c32 -118 51 -211 73 -345h21c22 134 41 227 73 345l214 783h249l-410 -1400h-285z" />
    <glyph glyph-name="W" unicode="W" horiz-adv-x="1614" 
d="M326 0l-303 1400h252l152 -747c27 -134 40 -242 53 -385h23c13 142 26 256 50 385l142 747h232l145 -747c25 -129 39 -243 51 -383h24c14 140 28 249 53 383l147 747h243l-297 -1400h-294l-112 565c-29 154 -49 290 -68 451h-24c-20 -161 -40 -296 -68 -451l-111 -565
h-290z" />
    <glyph glyph-name="X" unicode="X" horiz-adv-x="1119" 
d="M21 0l376 704l-352 696h278l182 -368c20 -41 35 -78 49 -117h16c15 39 31 79 50 118l191 367h263l-367 -668l391 -732h-284l-201 398c-20 42 -40 88 -56 130h-17c-15 -42 -33 -87 -53 -130l-199 -398h-267z" />
    <glyph glyph-name="Y" unicode="Y" horiz-adv-x="1094" 
d="M1073 1400l-402 -833v-567h-248v567l-402 833h266l170 -365c31 -66 57 -135 87 -225h19c29 90 57 158 87 225l169 365h254z" />
    <glyph glyph-name="Z" unicode="Z" horiz-adv-x="964" 
d="M27 0l-4 11l485 1034c25 54 47 98 78 147l-7 12c-61 -3 -117 -4 -180 -4h-355v200h873l4 -11l-456 -1002c-28 -64 -51 -114 -90 -178l8 -12c56 3 114 4 177 4h381v-201h-914z" />
    <glyph glyph-name="a" unicode="a" horiz-adv-x="1015" 
d="M330 -24c-170 0 -267 97 -267 263v5c0 226 175 308 377 359l201 51v88c0 115 -47 167 -152 167c-122 0 -178 -78 -166 -246l-237 26c-15 242 130 385 408 385c256 0 387 -111 387 -328v-510c0 -70 12 -87 64 -89l40 -2l-32 -165c-14 -2 -35 -4 -53 -4
c-194 0 -238 77 -199 269l-20 4c-49 -178 -167 -273 -351 -273zM419 153c128 0 222 109 222 265v71l-125 -35c-124 -35 -209 -87 -209 -189v-2c0 -71 39 -110 112 -110z" />
    <glyph glyph-name="b" unicode="b" horiz-adv-x="1073" 
d="M659 -18c-177 0 -282 100 -338 277l-21 -8c33 -115 49 -199 51 -251h-243v1400h244v-285c0 -99 -15 -188 -52 -316l21 -8c55 170 160 277 338 277c224 0 342 -179 342 -521v-44c0 -342 -118 -521 -342 -521zM563 146c128 0 192 110 192 340v77c0 231 -64 342 -192 342
c-137 0 -211 -123 -211 -352v-57c0 -228 74 -350 211 -350z" />
    <glyph glyph-name="c" unicode="c" horiz-adv-x="1027" 
d="M520 -25c-295 0 -448 190 -448 554v4c0 356 157 542 449 542c264 0 405 -140 426 -409l-243 -29c-11 183 -67 271 -184 271c-129 0 -197 -108 -197 -335v-84c0 -234 64 -345 200 -345c115 0 176 80 187 248l249 -31c-29 -254 -179 -386 -439 -386z" />
    <glyph glyph-name="d" unicode="d" horiz-adv-x="1073" 
d="M414 -18c-224 0 -342 179 -342 521v44c0 342 118 521 342 521c178 0 283 -107 338 -277l21 8c-37 128 -52 217 -52 316v285h244v-1400h-243c2 52 18 136 51 251l-21 8c-56 -177 -160 -277 -338 -277zM510 146c137 0 211 122 211 350v57c0 229 -74 352 -211 352
c-128 0 -192 -111 -192 -342v-77c0 -230 64 -340 192 -340z" />
    <glyph glyph-name="e" unicode="e" horiz-adv-x="1032" 
d="M726 364l234 -30c-36 -239 -188 -358 -440 -358c-288 0 -448 178 -448 502v93c0 324 160 503 455 503c275 0 428 -170 428 -473c0 -47 -2 -91 -7 -142h-634v-20c0 -201 74 -298 214 -298c113 0 179 64 198 223zM525 909c-136 0 -206 -94 -211 -283h399v27
c0 175 -63 256 -188 256z" />
    <glyph glyph-name="f" unicode="f" horiz-adv-x="692" 
d="M185 0v873h-144v177h144v56c0 214 124 286 443 319l29 -187l-109 -6c-108 -6 -129 -31 -129 -117v-65h232v-177h-223v-873h-243z" />
    <glyph glyph-name="g" unicode="g" horiz-adv-x="987" 
d="M603 254c166 -18 368 -61 368 -307c0 -221 -160 -321 -492 -321c-312 0 -463 81 -463 248c0 116 57 192 188 218v15c-95 31 -161 85 -161 181c0 94 59 152 177 172v17c-86 56 -132 146 -132 266c0 212 146 332 406 332c55 0 105 -5 149 -16c-33 170 57 302 279 315
l27 -224l-95 -9c-87 -7 -137 -35 -136 -107c117 -51 180 -151 180 -291c0 -214 -145 -333 -404 -333c-67 0 -126 8 -177 23c-64 -8 -89 -27 -89 -64c0 -54 43 -77 209 -96zM494 938c-108 0 -159 -64 -159 -195c0 -132 51 -195 159 -195c106 0 157 63 157 195
c0 131 -51 195 -157 195zM492 -206c193 0 277 38 277 127c0 95 -71 119 -240 137l-169 18c-14 1 -28 3 -41 5c-96 -31 -127 -75 -127 -143c0 -99 88 -144 300 -144z" />
    <glyph glyph-name="h" unicode="h" horiz-adv-x="1059" 
d="M108 0v1400h244v-318c0 -94 -14 -178 -56 -300l21 -8c80 205 198 294 360 294c184 0 278 -99 278 -288v-780h-243v729c0 108 -48 166 -136 166c-134 0 -224 -146 -224 -363v-532h-244z" />
    <glyph glyph-name="i" unicode="i" horiz-adv-x="460" 
d="M98 1178v206h265v-206h-265zM108 0v1050h244v-1050h-244z" />
    <glyph glyph-name="j" unicode="j" horiz-adv-x="466" 
d="M103 1178v206h265v-206h-265zM-89 -374l-29 211l95 7c95 7 137 40 137 131v1075h243v-1011c0 -278 -155 -399 -446 -413z" />
    <glyph glyph-name="k" unicode="k" horiz-adv-x="952" 
d="M108 0v1400h244v-434c0 -137 -9 -228 -33 -347l15 -8l333 439h261l-300 -384l296 -666h-250l-213 512l-109 -131v-381h-244z" />
    <glyph glyph-name="l" unicode="l" horiz-adv-x="460" 
d="M108 1400h244v-1400h-244v1400z" />
    <glyph glyph-name="m" unicode="m" horiz-adv-x="1568" 
d="M108 0v1050h245c2 -64 -10 -121 -56 -263l20 -9c94 215 191 290 334 290c161 0 235 -108 196 -291l20 -6c74 210 188 297 345 297c171 0 253 -95 253 -290v-778h-244v737c0 104 -40 156 -120 156c-122 0 -192 -150 -192 -351v-542h-243v735c0 102 -42 159 -118 159
c-118 0 -196 -144 -196 -358v-536h-244z" />
    <glyph glyph-name="n" unicode="n" horiz-adv-x="1059" 
d="M108 0v1050h244c-2 -75 -16 -145 -56 -268l21 -8c80 205 198 294 360 294c184 0 278 -99 278 -288v-780h-243v730c0 107 -48 165 -136 165c-134 0 -224 -146 -224 -363v-532h-244z" />
    <glyph glyph-name="o" unicode="o" horiz-adv-x="1046" 
d="M523 -25c-290 0 -451 197 -451 547v4c0 351 161 549 451 549s451 -198 451 -549v-4c0 -350 -162 -547 -451 -547zM523 143c134 0 200 111 200 340v84c0 230 -66 341 -200 341c-135 0 -200 -111 -200 -341v-84c0 -229 65 -340 200 -340z" />
    <glyph glyph-name="p" unicode="p" horiz-adv-x="1073" 
d="M659 1068c224 0 342 -179 342 -521v-44c0 -342 -118 -521 -342 -521c-178 0 -283 107 -338 277l-21 -8c37 -128 52 -217 52 -316v-285h-244v1400h243c-2 -52 -18 -136 -51 -251l21 -7c56 176 161 276 338 276zM563 904c-137 0 -211 -122 -211 -350v-57
c0 -229 74 -352 211 -352c128 0 192 111 192 342v77c0 230 -64 340 -192 340z" />
    <glyph glyph-name="q" unicode="q" horiz-adv-x="1073" 
d="M414 1068c178 0 282 -100 338 -276l21 7c-33 115 -49 199 -51 251h243v-1400h-244v285c0 99 15 188 52 316l-21 8c-55 -170 -160 -277 -338 -277c-224 0 -342 179 -342 521v44c0 342 118 521 342 521zM510 904c-128 0 -192 -110 -192 -340v-77c0 -231 64 -342 192 -342
c137 0 211 123 211 352v57c0 228 -74 350 -211 350z" />
    <glyph glyph-name="r" unicode="r" horiz-adv-x="757" 
d="M108 0v1050h245c2 -74 -8 -127 -57 -268l20 -9c94 222 186 295 372 310l35 -220l-94 -8c-193 -14 -277 -113 -277 -390v-465h-244z" />
    <glyph glyph-name="s" unicode="s" horiz-adv-x="951" 
d="M492 -22c-272 0 -428 117 -435 329l232 47c-2 -137 70 -212 202 -212c103 0 160 38 160 117c0 78 -51 114 -185 164l-134 51c-134 51 -249 149 -249 295c0 194 135 303 380 303c257 0 399 -108 400 -303l-227 -40c5 124 -57 179 -170 179c-99 0 -154 -37 -154 -104
c0 -68 48 -111 182 -159l134 -49c134 -49 267 -125 267 -314c0 -191 -148 -304 -403 -304z" />
    <glyph glyph-name="t" unicode="t" horiz-adv-x="756" 
d="M477 -23c-190 0 -288 96 -288 302v594h-148v177h148v238l244 73v-311h275v-177h-275v-565c0 -100 41 -139 124 -139c45 0 101 12 154 35l-14 -178c-55 -29 -140 -49 -220 -49z" />
    <glyph glyph-name="u" unicode="u" horiz-adv-x="1059" 
d="M951 1050v-1050h-244c2 75 16 145 56 268l-21 8c-80 -205 -198 -294 -360 -294c-184 0 -278 99 -278 288v780h243v-730c0 -107 48 -165 136 -165c134 0 224 146 224 363v532h244z" />
    <glyph glyph-name="v" unicode="v" horiz-adv-x="951" 
d="M344 0l-328 1050h251l129 -457c31 -114 55 -219 74 -335h21c19 116 44 221 75 335l126 457h243l-327 -1050h-264z" />
    <glyph glyph-name="w" unicode="w" horiz-adv-x="1406" 
d="M281 0l-262 1050h249l113 -541c17 -79 29 -156 39 -252h21c11 96 24 173 41 253l112 540h227l117 -540c18 -80 31 -157 41 -253h21c10 96 21 173 38 252l108 541h241l-261 -1050h-274l-92 463c-21 110 -33 190 -48 309h-20c-13 -119 -26 -200 -46 -309l-93 -463h-272z
" />
    <glyph glyph-name="x" unicode="x" horiz-adv-x="970" 
d="M16 0l325 528l-305 522h273l129 -248c14 -27 29 -62 42 -95h14c14 34 29 67 42 94l133 249h264l-309 -505l330 -545h-278l-146 271c-15 31 -30 63 -42 97h-15c-12 -34 -26 -65 -44 -97l-145 -271h-268z" />
    <glyph glyph-name="y" unicode="y" horiz-adv-x="947" 
d="M71 -374l-31 208l136 13c117 11 156 41 169 91l13 50l-342 1062h251l152 -578c20 -76 37 -164 52 -269h21c15 105 32 191 52 269l148 578h238l-300 -999c-92 -312 -209 -405 -559 -425z" />
    <glyph glyph-name="z" unicode="z" horiz-adv-x="898" 
d="M47 0l-5 16l412 761c18 36 31 57 50 85l-6 13c-32 -2 -60 -2 -101 -2h-324v177h775l6 -16l-403 -748c-18 -35 -33 -62 -58 -97l6 -13c30 2 61 3 98 3h365v-179h-815z" />
    <glyph glyph-name="Aacute" unicode="&#xc1;" horiz-adv-x="1180" 
d="M497 1495l128 185h244l-179 -185h-193zM21 0l415 1400h305l418 -1400h-263l-77 276h-478l-77 -276h-243zM386 458h389l-107 389c-32 114 -56 213 -79 329h-21c-20 -116 -43 -215 -74 -329z" />
    <glyph glyph-name="Abreve" unicode="&#x102;" horiz-adv-x="1180" 
d="M708 1680h163c-7 -144 -101 -190 -280 -190c-180 0 -274 46 -281 190h163c3 -49 38 -75 118 -75c79 0 114 26 117 75zM21 0l415 1400h305l418 -1400h-263l-77 276h-478l-77 -276h-243zM386 458h389l-107 389c-32 114 -56 213 -79 329h-21c-20 -116 -43 -215 -74 -329z
" />
    <glyph glyph-name="Acircumflex" unicode="&#xc2;" horiz-adv-x="1180" 
d="M275 1494l204 186h223l204 -186h-195l-120 87l-120 -87h-196zM21 0l415 1400h305l418 -1400h-263l-77 276h-478l-77 -276h-243zM386 458h389l-107 389c-32 114 -56 213 -79 329h-21c-20 -116 -43 -215 -74 -329z" />
    <glyph glyph-name="Adieresis" unicode="&#xc4;" horiz-adv-x="1180" 
d="M289 1507v205h235v-205h-235zM658 1507v205h234v-205h-234zM21 0l415 1400h305l418 -1400h-263l-77 276h-478l-77 -276h-243zM386 458h389l-107 389c-32 114 -56 213 -79 329h-21c-20 -116 -43 -215 -74 -329z" />
    <glyph glyph-name="Agrave" unicode="&#xc0;" horiz-adv-x="1180" 
d="M684 1495h-193l-179 185h245zM21 0l415 1400h305l418 -1400h-263l-77 276h-478l-77 -276h-243zM386 458h389l-107 389c-32 114 -56 213 -79 329h-21c-20 -116 -43 -215 -74 -329z" />
    <glyph glyph-name="Amacron" unicode="&#x100;" horiz-adv-x="1180" 
d="M304 1485v152h572v-152h-572zM21 0l415 1400h305l418 -1400h-263l-77 276h-478l-77 -276h-243zM386 458h389l-107 389c-32 114 -56 213 -79 329h-21c-20 -116 -43 -215 -74 -329z" />
    <glyph glyph-name="Aogonek" unicode="&#x104;" horiz-adv-x="1180" 
d="M1009 -119c0 -30 24 -45 66 -45c21 0 47 4 72 11l-31 -156c-31 -11 -68 -17 -103 -17c-117 0 -178 53 -178 139c0 75 44 138 139 187h-78l-77 276h-478l-77 -276h-243l415 1400h305l418 -1400c-96 -31 -150 -74 -150 -119zM386 458h389l-107 389c-32 114 -56 213 -79 329
h-21c-20 -116 -43 -215 -74 -329z" />
    <glyph glyph-name="Aring" unicode="&#xc5;" horiz-adv-x="1180" 
d="M590 1467c-146 0 -232 66 -232 177c0 110 86 176 232 176s232 -66 232 -176c0 -111 -86 -177 -232 -177zM590 1573c57 0 90 27 90 71s-33 71 -90 71s-90 -27 -90 -71s33 -71 90 -71zM21 0l415 1400h305l418 -1400h-263l-77 276h-478l-77 -276h-243zM386 458h389l-107 389
c-32 114 -56 213 -79 329h-21c-20 -116 -43 -215 -74 -329z" />
    <glyph glyph-name="Atilde" unicode="&#xc3;" horiz-adv-x="1180" 
d="M735 1489c-113 0 -222 98 -279 98c-42 0 -57 -29 -61 -92h-129c5 146 68 224 185 224c115 0 216 -98 276 -98c39 0 54 29 57 92h129c-5 -146 -71 -224 -178 -224zM21 0l415 1400h305l418 -1400h-263l-77 276h-478l-77 -276h-243zM386 458h389l-107 389
c-32 114 -56 213 -79 329h-21c-20 -116 -43 -215 -74 -329z" />
    <glyph glyph-name="AE" unicode="&#xc6;" horiz-adv-x="1616" 
d="M21 0l559 1400h949v-200h-542v-381h495v-178h-495v-440h562v-201h-810v276h-361l-113 -276h-244zM440 458h299v752h-20c-18 -70 -42 -142 -70 -218z" />
    <glyph glyph-name="AEacute" unicode="&#x1fc;" horiz-adv-x="1616" 
d="M671 1495l128 185h244l-179 -185h-193zM21 0l559 1400h949v-200h-542v-381h495v-178h-495v-440h562v-201h-810v276h-361l-113 -276h-244zM440 458h299v752h-20c-18 -70 -42 -142 -70 -218z" />
    <glyph glyph-name="Cacute" unicode="&#x106;" horiz-adv-x="1221" 
d="M530 1495l128 185h244l-179 -185h-193zM623 -25c-359 0 -543 247 -543 723v4c0 475 186 723 541 723c315 0 486 -181 506 -529l-237 -47c-6 260 -94 383 -269 383c-194 0 -288 -155 -288 -480v-104c0 -325 95 -480 290 -480c173 0 263 126 277 390l243 -59
c-31 -345 -209 -524 -520 -524z" />
    <glyph glyph-name="Ccaron" unicode="&#x10c;" horiz-adv-x="1221" 
d="M307 1680h196l120 -86l120 86h195l-204 -186h-223zM623 -25c-359 0 -543 247 -543 723v4c0 475 186 723 541 723c315 0 486 -181 506 -529l-237 -47c-6 260 -94 383 -269 383c-194 0 -288 -155 -288 -480v-104c0 -325 95 -480 290 -480c173 0 263 126 277 390l243 -59
c-31 -345 -209 -524 -520 -524z" />
    <glyph glyph-name="Ccedilla" unicode="&#xc7;" horiz-adv-x="1221" 
d="M1143 499c-29 -319 -183 -497 -453 -521l-7 -56c113 -14 173 -59 173 -145c0 -95 -75 -152 -198 -152c-61 0 -121 17 -175 45l22 122c43 -27 93 -42 140 -42c49 0 79 20 79 52c0 48 -82 64 -192 66l16 111c-310 33 -468 278 -468 719v4c0 475 186 723 541 723
c315 0 486 -181 506 -529l-237 -47c-6 260 -94 383 -269 383c-194 0 -288 -155 -288 -480v-104c0 -325 95 -480 290 -480c173 0 263 126 277 390z" />
    <glyph glyph-name="Cdotaccent" unicode="&#x10a;" horiz-adv-x="1221" 
d="M491 1507v205h265v-205h-265zM623 -25c-359 0 -543 247 -543 723v4c0 475 186 723 541 723c315 0 486 -181 506 -529l-237 -47c-6 260 -94 383 -269 383c-194 0 -288 -155 -288 -480v-104c0 -325 95 -480 290 -480c173 0 263 126 277 390l243 -59
c-31 -345 -209 -524 -520 -524z" />
    <glyph glyph-name="Eth" unicode="&#xd0;" horiz-adv-x="1223" 
d="M567 1400c389 0 576 -228 576 -699v-4c0 -470 -187 -697 -576 -697h-430v656h-108v173h108v571h430zM889 634v131c0 307 -100 439 -331 439h-173v-375h283v-173h-283v-460h173c231 0 331 132 331 438z" />
    <glyph glyph-name="Dcaron" unicode="&#x10e;" horiz-adv-x="1207" 
d="M250 1680h196l120 -86l120 86h195l-204 -186h-223zM121 0v1400h430c388 0 576 -228 576 -699v-4c0 -470 -188 -697 -576 -697h-430zM369 196h173c231 0 331 132 331 438v131c0 307 -100 439 -331 439h-173v-1008z" />
    <glyph glyph-name="Dcroat" unicode="&#x110;" horiz-adv-x="1223" 
d="M567 1400c389 0 576 -228 576 -699v-4c0 -470 -187 -697 -576 -697h-430v656h-108v173h108v571h430zM889 634v131c0 307 -100 439 -331 439h-173v-375h283v-173h-283v-460h173c231 0 331 132 331 438z" />
    <glyph glyph-name="Eacute" unicode="&#xc9;" horiz-adv-x="1021" 
d="M439 1495l128 185h244l-179 -185h-193zM369 201h585v-201h-833v1400h812v-200h-564v-381h518v-178h-518v-440z" />
    <glyph glyph-name="Ecaron" unicode="&#x11a;" horiz-adv-x="1021" 
d="M217 1680h196l120 -86l120 86h195l-204 -186h-223zM369 201h585v-201h-833v1400h812v-200h-564v-381h518v-178h-518v-440z" />
    <glyph glyph-name="Ecircumflex" unicode="&#xca;" horiz-adv-x="1021" 
d="M217 1494l204 186h223l204 -186h-195l-120 87l-120 -87h-196zM369 201h585v-201h-833v1400h812v-200h-564v-381h518v-178h-518v-440z" />
    <glyph glyph-name="Edieresis" unicode="&#xcb;" horiz-adv-x="1021" 
d="M231 1507v205h235v-205h-235zM600 1507v205h234v-205h-234zM369 201h585v-201h-833v1400h812v-200h-564v-381h518v-178h-518v-440z" />
    <glyph glyph-name="Edotaccent" unicode="&#x116;" horiz-adv-x="1021" 
d="M401 1507v205h265v-205h-265zM369 201h585v-201h-833v1400h812v-200h-564v-381h518v-178h-518v-440z" />
    <glyph glyph-name="Egrave" unicode="&#xc8;" horiz-adv-x="1021" 
d="M626 1495h-193l-179 185h245zM369 201h585v-201h-833v1400h812v-200h-564v-381h518v-178h-518v-440z" />
    <glyph glyph-name="Emacron" unicode="&#x112;" horiz-adv-x="1021" 
d="M246 1485v152h572v-152h-572zM369 201h585v-201h-833v1400h812v-200h-564v-381h518v-178h-518v-440z" />
    <glyph glyph-name="Eogonek" unicode="&#x118;" horiz-adv-x="1021" 
d="M954 0c-96 -31 -150 -74 -150 -119c0 -30 24 -45 66 -45c21 0 47 4 72 11l-31 -156c-31 -11 -68 -17 -103 -17c-117 0 -178 53 -178 139c0 75 44 138 139 187h-648v1400h812v-200h-564v-381h518v-178h-518v-440h585v-201z" />
    <glyph glyph-name="uni1EBC" unicode="&#x1ebc;" horiz-adv-x="1021" 
d="M678 1489c-113 0 -222 98 -279 98c-42 0 -57 -29 -61 -92h-129c5 146 68 224 185 224c115 0 216 -98 276 -98c39 0 54 29 57 92h129c-5 -146 -71 -224 -178 -224zM369 201h585v-201h-833v1400h812v-200h-564v-381h518v-178h-518v-440z" />
    <glyph glyph-name="Gbreve" unicode="&#x11e;" horiz-adv-x="1261" 
d="M738 1680h163c-7 -144 -101 -190 -280 -190c-180 0 -274 46 -281 190h163c3 -49 38 -75 118 -75c79 0 114 26 117 75zM544 -19c-303 0 -464 247 -464 722v4c0 472 189 718 554 718c304 0 464 -158 497 -447l-237 -47c-13 205 -97 300 -260 300
c-202 0 -301 -155 -301 -483v-76c0 -338 91 -497 278 -497c172 0 269 138 300 425h-330v195h565v-795h-226c-4 82 10 170 56 353l-21 5c-81 -247 -206 -377 -411 -377z" />
    <glyph glyph-name="Gcaron" unicode="&#x1e6;" horiz-adv-x="1261" 
d="M304 1680h196l120 -86l120 86h195l-204 -186h-223zM544 -19c-303 0 -464 247 -464 722v4c0 472 189 718 554 718c304 0 464 -158 497 -447l-237 -47c-13 205 -97 300 -260 300c-202 0 -301 -155 -301 -483v-76c0 -338 91 -497 278 -497c172 0 269 138 300 425h-330v195
h565v-795h-226c-4 82 10 170 56 353l-21 5c-81 -247 -206 -377 -411 -377z" />
    <glyph glyph-name="uni0122" unicode="&#x122;" horiz-adv-x="1261" 
d="M544 -19c-303 0 -464 247 -464 722v4c0 472 189 718 554 718c304 0 464 -158 497 -447l-237 -47c-13 205 -97 300 -260 300c-202 0 -301 -155 -301 -483v-76c0 -338 91 -497 278 -497c172 0 269 138 300 425h-330v195h565v-795h-226c-4 82 10 170 56 353l-21 5
c-81 -247 -206 -377 -411 -377zM509 -90h222v-121c0 -127 -46 -170 -211 -178l-12 67c84 3 108 26 108 86h-107v146z" />
    <glyph glyph-name="Gdotaccent" unicode="&#x120;" horiz-adv-x="1261" 
d="M488 1507v205h265v-205h-265zM544 -19c-303 0 -464 247 -464 722v4c0 472 189 718 554 718c304 0 464 -158 497 -447l-237 -47c-13 205 -97 300 -260 300c-202 0 -301 -155 -301 -483v-76c0 -338 91 -497 278 -497c172 0 269 138 300 425h-330v195h565v-795h-226
c-4 82 10 170 56 353l-21 5c-81 -247 -206 -377 -411 -377z" />
    <glyph glyph-name="Hbar" unicode="&#x126;" horiz-adv-x="1244" 
d="M1215 1105v-173h-92v-932h-248v500h-506v-500h-248v932h-92v173h92v295h248v-295h506v295h248v-295h92zM875 700v232h-506v-232h506z" />
    <glyph glyph-name="Iacute" unicode="&#xcd;" horiz-adv-x="490" 
d="M151 1495l128 185h244l-179 -185h-193zM121 1400h248v-1400h-248v1400z" />
    <glyph glyph-name="Icircumflex" unicode="&#xce;" horiz-adv-x="490" 
d="M30 1494l116 186h199l116 -186h-146l-70 89l-70 -89h-145zM121 1400h248v-1400h-248v1400z" />
    <glyph glyph-name="Idieresis" unicode="&#xcf;" horiz-adv-x="490" 
d="M28 1507v205h184v-205h-184zM278 1507v205h183v-205h-183zM121 1400h248v-1400h-248v1400z" />
    <glyph glyph-name="Idotaccent" unicode="&#x130;" horiz-adv-x="490" 
d="M112 1507v205h265v-205h-265zM121 1400h248v-1400h-248v1400z" />
    <glyph glyph-name="Igrave" unicode="&#xcc;" horiz-adv-x="490" 
d="M338 1495h-193l-179 185h245zM121 1400h248v-1400h-248v1400z" />
    <glyph glyph-name="Imacron" unicode="&#x12a;" horiz-adv-x="490" 
d="M51 1541v143h388v-143h-388zM121 1400h248v-1400h-248v1400z" />
    <glyph glyph-name="Iogonek" unicode="&#x12e;" horiz-adv-x="490" 
d="M369 0c-96 -31 -150 -74 -150 -119c0 -30 24 -45 66 -45c21 0 47 4 72 11l-31 -156c-31 -11 -68 -17 -103 -17c-117 0 -178 53 -178 139c0 75 44 138 139 187h-63v1400h248v-1400z" />
    <glyph glyph-name="Itilde" unicode="&#x128;" horiz-adv-x="490" 
d="M327 1507c-58 0 -115 57 -146 57c-20 0 -31 -19 -29 -52h-93c-13 132 26 202 107 202c56 0 116 -58 149 -58c19 0 30 19 28 53h93c9 -132 -29 -202 -109 -202zM121 1400h248v-1400h-248v1400z" />
    <glyph glyph-name="IJ" unicode="&#x132;" horiz-adv-x="1493" 
d="M121 1400h248v-1400h-248v1400zM964 -25c-266 0 -417 150 -427 466l251 38c0 -222 56 -315 182 -315c107 0 159 64 159 207v1029h249v-1058c0 -235 -148 -367 -414 -367z" />
    <glyph glyph-name="IJacute" horiz-adv-x="1493" 
d="M152 1495l127 185h245l-179 -185h-193zM1160 1495l128 185h244l-179 -185h-193zM121 1400h248v-1400h-248v1400zM964 -25c-266 0 -417 150 -427 466l251 38c0 -222 56 -315 182 -315c107 0 159 64 159 207v1029h249v-1058c0 -235 -148 -367 -414 -367z" />
    <glyph glyph-name="uni0136" unicode="&#x136;" horiz-adv-x="1116" 
d="M121 0v1400h248v-365c0 -110 -6 -185 -24 -273l19 -8l458 646h264l-401 -558l398 -842h-274l-293 656l-147 -191v-465h-248zM476 -90h222v-121c0 -127 -46 -170 -211 -178l-12 67c84 3 108 26 108 86h-107v146z" />
    <glyph glyph-name="Lacute" unicode="&#x139;" horiz-adv-x="950" 
d="M151 1495l128 185h244l-179 -185h-193zM121 0v1400h248v-1199h536v-201h-784z" />
    <glyph glyph-name="Lcaron" unicode="&#x13d;" horiz-adv-x="950" 
d="M121 0v1400h248v-1199h536v-201h-784zM472 1400h213v-167c0 -136 -57 -194 -202 -202l-12 77c72 3 99 32 99 100h-98v192z" />
    <glyph glyph-name="uni013B" unicode="&#x13b;" horiz-adv-x="950" 
d="M121 0v1400h248v-1199h536v-201h-784zM402 -90h222v-121c0 -127 -46 -170 -211 -178l-12 67c84 3 108 26 108 86h-107v146z" />
    <glyph glyph-name="Ldot" unicode="&#x13f;" horiz-adv-x="1001" 
d="M121 0v1400h248v-1199h536v-201h-784zM590 892h297v-268h-297v268z" />
    <glyph glyph-name="Lslash" unicode="&#x141;" horiz-adv-x="966" 
d="M385 201h536v-201h-784v648l-134 -37v160l134 37v592h248v-523l246 69v-160l-246 -69v-516z" />
    <glyph glyph-name="Nacute" unicode="&#x143;" horiz-adv-x="1247" 
d="M530 1495l128 185h244l-179 -185h-193zM121 0v1400h279l395 -834c34 -72 60 -134 89 -226l21 3c-12 108 -18 191 -18 281v776h239v-1400h-280l-383 820c-38 82 -68 153 -100 248l-20 -3c12 -113 16 -192 16 -286v-779h-238z" />
    <glyph glyph-name="Ncaron" unicode="&#x147;" horiz-adv-x="1247" 
d="M307 1680h196l120 -86l120 86h195l-204 -186h-223zM121 0v1400h279l395 -834c34 -72 60 -134 89 -226l21 3c-12 108 -18 191 -18 281v776h239v-1400h-280l-383 820c-38 82 -68 153 -100 248l-20 -3c12 -113 16 -192 16 -286v-779h-238z" />
    <glyph glyph-name="uni0145" unicode="&#x145;" horiz-adv-x="1247" 
d="M121 0v1400h279l395 -834c34 -72 60 -134 89 -226l21 3c-12 108 -18 191 -18 281v776h239v-1400h-280l-383 820c-38 82 -68 153 -100 248l-20 -3c12 -113 16 -192 16 -286v-779h-238zM512 -90h222v-121c0 -127 -46 -170 -211 -178l-12 67c84 3 108 26 108 86h-107v146z
" />
    <glyph glyph-name="Eng" unicode="&#x14a;" horiz-adv-x="1247" 
d="M634 -374l-30 201l119 7c131 7 163 38 167 166l-427 830c-41 80 -68 143 -100 238l-20 -3c12 -113 16 -192 16 -286v-779h-238v1400h279l395 -808c35 -72 60 -134 89 -226l21 3c-12 108 -18 191 -18 281v750h239v-1400c0 -233 -145 -344 -492 -374z" />
    <glyph glyph-name="Ntilde" unicode="&#xd1;" horiz-adv-x="1247" 
d="M768 1489c-113 0 -222 98 -279 98c-42 0 -57 -29 -61 -92h-129c5 146 68 224 185 224c115 0 216 -98 276 -98c39 0 54 29 57 92h129c-5 -146 -71 -224 -178 -224zM121 0v1400h279l395 -834c34 -72 60 -134 89 -226l21 3c-12 108 -18 191 -18 281v776h239v-1400h-280
l-383 820c-38 82 -68 153 -100 248l-20 -3c12 -113 16 -192 16 -286v-779h-238z" />
    <glyph glyph-name="Oacute" unicode="&#xd3;" horiz-adv-x="1279" 
d="M546 1495l128 185h244l-179 -185h-193zM640 -25c-369 0 -560 236 -560 718v4c0 488 191 728 560 728c368 0 559 -240 559 -728v-4c0 -482 -191 -718 -559 -718zM640 168c206 0 305 154 305 476v103c0 329 -99 485 -306 485c-206 0 -306 -156 -306 -485v-103
c0 -322 100 -476 307 -476z" />
    <glyph glyph-name="Ocircumflex" unicode="&#xd4;" horiz-adv-x="1279" 
d="M324 1494l204 186h223l204 -186h-195l-120 87l-120 -87h-196zM640 -25c-369 0 -560 236 -560 718v4c0 488 191 728 560 728c368 0 559 -240 559 -728v-4c0 -482 -191 -718 -559 -718zM640 168c206 0 305 154 305 476v103c0 329 -99 485 -306 485
c-206 0 -306 -156 -306 -485v-103c0 -322 100 -476 307 -476z" />
    <glyph glyph-name="Odieresis" unicode="&#xd6;" horiz-adv-x="1279" 
d="M338 1507v205h235v-205h-235zM707 1507v205h234v-205h-234zM640 -25c-369 0 -560 236 -560 718v4c0 488 191 728 560 728c368 0 559 -240 559 -728v-4c0 -482 -191 -718 -559 -718zM640 168c206 0 305 154 305 476v103c0 329 -99 485 -306 485
c-206 0 -306 -156 -306 -485v-103c0 -322 100 -476 307 -476z" />
    <glyph glyph-name="Ograve" unicode="&#xd2;" horiz-adv-x="1279" 
d="M733 1495h-193l-179 185h245zM640 -25c-369 0 -560 236 -560 718v4c0 488 191 728 560 728c368 0 559 -240 559 -728v-4c0 -482 -191 -718 -559 -718zM640 168c206 0 305 154 305 476v103c0 329 -99 485 -306 485c-206 0 -306 -156 -306 -485v-103
c0 -322 100 -476 307 -476z" />
    <glyph glyph-name="Ohungarumlaut" unicode="&#x150;" horiz-adv-x="1279" 
d="M368 1495l128 185h244l-179 -185h-193zM700 1495l128 185h244l-179 -185h-193zM640 -25c-369 0 -560 236 -560 718v4c0 488 191 728 560 728c368 0 559 -240 559 -728v-4c0 -482 -191 -718 -559 -718zM640 168c206 0 305 154 305 476v103c0 329 -99 485 -306 485
c-206 0 -306 -156 -306 -485v-103c0 -322 100 -476 307 -476z" />
    <glyph glyph-name="Omacron" unicode="&#x14c;" horiz-adv-x="1279" 
d="M353 1532v152h572v-152h-572zM640 -25c-369 0 -560 236 -560 718v4c0 488 191 728 560 728c368 0 559 -240 559 -728v-4c0 -482 -191 -718 -559 -718zM640 168c206 0 305 154 305 476v103c0 329 -99 485 -306 485c-206 0 -306 -156 -306 -485v-103
c0 -322 100 -476 307 -476z" />
    <glyph glyph-name="uni01EA" unicode="&#x1ea;" horiz-adv-x="1279" 
d="M640 1425c368 0 559 -240 559 -728v-4c0 -408 -137 -639 -401 -701c-78 -37 -112 -72 -112 -111c0 -30 24 -45 66 -45c21 0 47 4 72 11l-31 -156c-31 -11 -68 -17 -103 -17c-117 0 -178 53 -178 139c0 60 29 116 91 163c-345 15 -523 251 -523 717v4
c0 488 191 728 560 728zM945 644v103c0 329 -99 485 -306 485c-206 0 -306 -156 -306 -485v-103c0 -322 100 -476 307 -476c206 0 305 154 305 476z" />
    <glyph glyph-name="Oslash" unicode="&#xd8;" horiz-adv-x="1288" 
d="M1048 1262c106 -122 160 -311 160 -565v-4c0 -472 -192 -718 -564 -718c-103 0 -193 19 -268 57l-72 -132h-194l129 237c-105 120 -159 307 -159 556v4c0 479 193 728 564 728c103 0 192 -19 267 -57l72 132h195zM333 644c0 -109 12 -199 35 -271l443 813
c-44 32 -100 48 -167 48c-209 0 -311 -158 -311 -487v-103zM955 644v103c0 113 -12 206 -36 279l-443 -812c45 -32 101 -48 168 -48c210 0 311 156 311 478z" />
    <glyph glyph-name="Oslashacute" unicode="&#x1fe;" horiz-adv-x="1288" 
d="M923 1680l-179 -185h-193l128 185h244zM1048 1262c106 -122 160 -311 160 -565v-4c0 -472 -192 -718 -564 -718c-103 0 -193 19 -268 57l-72 -132h-194l129 237c-105 120 -159 307 -159 556v4c0 479 193 728 564 728c103 0 192 -19 267 -57l72 132h195zM333 644
c0 -109 12 -199 35 -271l443 813c-44 32 -100 48 -167 48c-209 0 -311 -158 -311 -487v-103zM955 644v103c0 113 -12 206 -36 279l-443 -812c45 -32 101 -48 168 -48c210 0 311 156 311 478z" />
    <glyph glyph-name="Otilde" unicode="&#xd5;" horiz-adv-x="1279" 
d="M785 1489c-113 0 -222 98 -279 98c-42 0 -57 -29 -61 -92h-129c5 146 68 224 185 224c115 0 216 -98 276 -98c39 0 54 29 57 92h129c-5 -146 -71 -224 -178 -224zM640 -25c-369 0 -560 236 -560 718v4c0 488 191 728 560 728c368 0 559 -240 559 -728v-4
c0 -482 -191 -718 -559 -718zM640 168c206 0 305 154 305 476v103c0 329 -99 485 -306 485c-206 0 -306 -156 -306 -485v-103c0 -322 100 -476 307 -476z" />
    <glyph glyph-name="OE" unicode="&#x152;" horiz-adv-x="1822" 
d="M603 -25c-344 0 -523 246 -523 718v4c0 479 179 728 523 728c163 0 283 -66 366 -192v167h766v-200h-541v-381h495v-178h-495v-440h561v-201h-786v165c-83 -125 -203 -190 -366 -190zM640 168c206 0 305 154 305 476v103c0 329 -99 485 -306 485
c-206 0 -306 -156 -306 -485v-103c0 -322 100 -476 307 -476z" />
    <glyph glyph-name="Thorn" unicode="&#xde;" horiz-adv-x="1104" 
d="M121 0v1400h248v-243h226c302 0 458 -146 458 -429v-4c0 -280 -156 -426 -458 -426h-226v-298h-248zM369 489h198c163 0 242 77 242 235v4c0 160 -79 238 -242 238h-198v-477z" />
    <glyph glyph-name="Racute" unicode="&#x154;" horiz-adv-x="1161" 
d="M461 1495l128 185h244l-179 -185h-193zM121 0v1400h487c295 0 454 -132 454 -371v-4c0 -181 -106 -294 -297 -316v-19c120 -36 165 -91 209 -252l43 -161c44 -162 80 -217 131 -252l-3 -25h-285c-37 52 -57 123 -93 270l-35 147c-35 147 -78 197 -206 197h-157v-614h-248
zM369 800h212c157 0 232 65 232 201v3c0 135 -75 200 -232 200h-212v-404z" />
    <glyph glyph-name="Rcaron" unicode="&#x158;" horiz-adv-x="1161" 
d="M238 1680h196l120 -86l120 86h195l-204 -186h-223zM121 0v1400h487c295 0 454 -132 454 -371v-4c0 -181 -106 -294 -297 -316v-19c120 -36 165 -91 209 -252l43 -161c44 -162 80 -217 131 -252l-3 -25h-285c-37 52 -57 123 -93 270l-35 147c-35 147 -78 197 -206 197
h-157v-614h-248zM369 800h212c157 0 232 65 232 201v3c0 135 -75 200 -232 200h-212v-404z" />
    <glyph glyph-name="uni0156" unicode="&#x156;" horiz-adv-x="1161" 
d="M121 0v1400h487c295 0 454 -132 454 -371v-4c0 -181 -106 -294 -297 -316v-19c120 -36 165 -91 209 -252l43 -161c44 -162 80 -217 131 -252l-3 -25h-285c-37 52 -57 123 -93 270l-35 147c-35 147 -78 197 -206 197h-157v-614h-248zM369 800h212c157 0 232 65 232 201v3
c0 135 -75 200 -232 200h-212v-404zM504 -90h222v-121c0 -127 -46 -170 -211 -178l-12 67c84 3 108 26 108 86h-107v146z" />
    <glyph glyph-name="Sacute" unicode="&#x15a;" horiz-adv-x="1150" 
d="M646 1750h242l-214 -256h-186zM592 -25c-334 0 -522 162 -528 479l233 46c13 -234 96 -341 306 -341c147 0 239 75 239 190c0 106 -70 162 -243 228l-170 65c-182 70 -328 162 -327 393c1 248 169 390 454 390c314 0 487 -161 485 -444l-219 -43c-7 198 -91 304 -269 304
c-134 0 -217 -68 -217 -170c0 -104 57 -157 245 -225l170 -61c174 -63 335 -155 335 -392c0 -260 -187 -419 -494 -419z" />
    <glyph glyph-name="Scaron" unicode="&#x160;" horiz-adv-x="1150" 
d="M266 1680h196l120 -86l120 86h195l-204 -186h-223zM592 -25c-334 0 -522 162 -528 479l233 46c13 -234 96 -341 306 -341c147 0 239 75 239 190c0 106 -70 162 -243 228l-170 65c-182 70 -328 162 -327 393c1 248 169 390 454 390c314 0 487 -161 485 -444l-219 -43
c-7 198 -91 304 -269 304c-134 0 -217 -68 -217 -170c0 -104 57 -157 245 -225l170 -61c174 -63 335 -155 335 -392c0 -260 -187 -419 -494 -419z" />
    <glyph glyph-name="Scedilla" unicode="&#x15e;" horiz-adv-x="1150" 
d="M1086 394c0 -244 -164 -398 -437 -417l-7 -55c113 -14 173 -59 173 -145c0 -95 -75 -152 -198 -152c-61 0 -121 17 -175 45l22 122c43 -27 93 -42 140 -42c49 0 79 20 79 52c0 48 -82 64 -192 66l16 111c-281 26 -438 186 -443 475l233 46c13 -234 96 -341 306 -341
c147 0 239 75 239 190c0 106 -70 162 -243 228l-170 65c-182 70 -328 162 -327 393c1 248 169 390 454 390c314 0 487 -161 485 -444l-219 -43c-7 198 -91 304 -269 304c-134 0 -217 -68 -217 -170c0 -104 57 -157 245 -225l170 -61c174 -63 335 -155 335 -392z" />
    <glyph glyph-name="uni0218" unicode="&#x218;" horiz-adv-x="1150" 
d="M592 -25c-334 0 -522 162 -528 479l233 46c13 -234 96 -341 306 -341c147 0 239 75 239 190c0 106 -70 162 -243 228l-170 65c-182 70 -328 162 -327 393c1 248 169 390 454 390c314 0 487 -161 485 -444l-219 -43c-7 198 -91 304 -269 304c-134 0 -217 -68 -217 -170
c0 -104 57 -157 245 -225l170 -61c174 -63 335 -155 335 -392c0 -260 -187 -419 -494 -419zM470 -90h222v-121c0 -127 -46 -170 -211 -178l-12 67c84 3 108 26 108 86h-107v146z" />
    <glyph glyph-name="uni1E9E" unicode="&#x1e9e;" horiz-adv-x="1092" 
d="M708 -10c-112 0 -199 40 -251 113l84 151c38 -67 89 -103 147 -103c75 0 115 39 115 110c0 65 -39 116 -108 191l-69 75c-68 76 -108 147 -108 226c0 220 257 248 257 375c0 82 -72 128 -198 128c-149 0 -222 -74 -222 -208v-1048h-247v1038c0 251 160 386 466 386
c272 0 421 -96 421 -276c0 -193 -251 -227 -251 -367c0 -55 26 -92 96 -167l69 -73c68 -74 129 -157 129 -281c0 -174 -115 -270 -330 -270z" />
    <glyph glyph-name="Tbar" unicode="&#x166;" horiz-adv-x="1019" 
d="M996 1200h-362v-420h218v-172h-218v-608h-249v608h-223v172h223v420h-362v200h973v-200z" />
    <glyph glyph-name="Tcaron" unicode="&#x164;" horiz-adv-x="1019" 
d="M194 1680h196l120 -86l120 86h195l-204 -186h-223zM385 0v1200h-362v200h973v-200h-362v-1200h-249z" />
    <glyph glyph-name="uni0162" unicode="&#x162;" horiz-adv-x="1019" 
d="M634 0h-54l-10 -78c113 -14 173 -59 173 -145c0 -95 -75 -152 -198 -152c-61 0 -121 17 -175 45l22 122c43 -27 93 -42 140 -42c49 0 79 20 79 52c0 48 -82 64 -192 66l19 132h-53v1200h-362v200h973v-200h-362v-1200z" />
    <glyph glyph-name="uni021A" unicode="&#x21a;" horiz-adv-x="1019" 
d="M385 0v1200h-362v200h973v-200h-362v-1200h-249zM399 -90h222v-121c0 -127 -46 -170 -211 -178l-12 67c84 3 108 26 108 86h-107v146z" />
    <glyph glyph-name="Uacute" unicode="&#xda;" horiz-adv-x="1233" 
d="M523 1495l128 185h244l-179 -185h-193zM869 1400h249v-980c0 -293 -172 -445 -501 -445s-501 152 -501 445v980h248v-960c0 -185 85 -276 253 -276s252 91 252 276v960z" />
    <glyph glyph-name="Ubreve" unicode="&#x16c;" horiz-adv-x="1233" 
d="M734 1680h163c-7 -144 -101 -190 -280 -190c-180 0 -274 46 -281 190h163c3 -49 38 -75 118 -75c79 0 114 26 117 75zM869 1400h249v-980c0 -293 -172 -445 -501 -445s-501 152 -501 445v980h248v-960c0 -185 85 -276 253 -276s252 91 252 276v960z" />
    <glyph glyph-name="Ucircumflex" unicode="&#xdb;" horiz-adv-x="1233" 
d="M301 1494l204 186h223l204 -186h-195l-120 87l-120 -87h-196zM869 1400h249v-980c0 -293 -172 -445 -501 -445s-501 152 -501 445v980h248v-960c0 -185 85 -276 253 -276s252 91 252 276v960z" />
    <glyph glyph-name="Udieresis" unicode="&#xdc;" horiz-adv-x="1233" 
d="M315 1507v205h235v-205h-235zM684 1507v205h234v-205h-234zM869 1400h249v-980c0 -293 -172 -445 -501 -445s-501 152 -501 445v980h248v-960c0 -185 85 -276 253 -276s252 91 252 276v960z" />
    <glyph glyph-name="Ugrave" unicode="&#xd9;" horiz-adv-x="1233" 
d="M710 1495h-193l-179 185h245zM869 1400h249v-980c0 -293 -172 -445 -501 -445s-501 152 -501 445v980h248v-960c0 -185 85 -276 253 -276s252 91 252 276v960z" />
    <glyph glyph-name="Uhungarumlaut" unicode="&#x170;" horiz-adv-x="1233" 
d="M345 1495l128 185h244l-179 -185h-193zM677 1495l128 185h244l-179 -185h-193zM869 1400h249v-980c0 -293 -172 -445 -501 -445s-501 152 -501 445v980h248v-960c0 -185 85 -276 253 -276s252 91 252 276v960z" />
    <glyph glyph-name="Umacron" unicode="&#x16a;" horiz-adv-x="1233" 
d="M330 1532v152h572v-152h-572zM869 1400h249v-980c0 -293 -172 -445 -501 -445s-501 152 -501 445v980h248v-960c0 -185 85 -276 253 -276s252 91 252 276v960z" />
    <glyph glyph-name="Uogonek" unicode="&#x172;" horiz-adv-x="1233" 
d="M869 1400h249v-980c0 -237 -113 -382 -330 -429c-77 -37 -111 -71 -111 -110c0 -30 24 -45 66 -45c21 0 47 4 72 11l-31 -156c-31 -11 -68 -17 -103 -17c-117 0 -178 53 -178 139c0 60 29 115 90 162c-313 7 -477 159 -477 445v980h248v-960c0 -185 85 -276 253 -276
s252 91 252 276v960z" />
    <glyph glyph-name="Uring" unicode="&#x16e;" horiz-adv-x="1233" 
d="M617 1467c-146 0 -232 66 -232 177c0 110 86 176 232 176s232 -66 232 -176c0 -111 -86 -177 -232 -177zM617 1573c57 0 90 27 90 71s-33 71 -90 71s-90 -27 -90 -71s33 -71 90 -71zM869 1400h249v-980c0 -293 -172 -445 -501 -445s-501 152 -501 445v980h248v-960
c0 -185 85 -276 253 -276s252 91 252 276v960z" />
    <glyph glyph-name="Utilde" unicode="&#x168;" horiz-adv-x="1233" 
d="M762 1489c-113 0 -222 98 -279 98c-42 0 -57 -29 -61 -92h-129c5 146 68 224 185 224c115 0 216 -98 276 -98c39 0 54 29 57 92h129c-5 -146 -71 -224 -178 -224zM869 1400h249v-980c0 -293 -172 -445 -501 -445s-501 152 -501 445v980h248v-960c0 -185 85 -276 253 -276
s252 91 252 276v960z" />
    <glyph glyph-name="Wacute" unicode="&#x1e82;" horiz-adv-x="1614" 
d="M716 1495l128 185h244l-179 -185h-193zM326 0l-303 1400h252l152 -747c27 -134 40 -242 53 -385h23c13 142 26 256 50 385l142 747h232l145 -747c25 -129 39 -243 51 -383h24c14 140 28 249 53 383l147 747h243l-297 -1400h-294l-112 565c-29 154 -49 290 -68 451h-24
c-20 -161 -40 -296 -68 -451l-111 -565h-290z" />
    <glyph glyph-name="Wcircumflex" unicode="&#x174;" horiz-adv-x="1614" 
d="M494 1494l204 186h223l204 -186h-195l-120 87l-120 -87h-196zM326 0l-303 1400h252l152 -747c27 -134 40 -242 53 -385h23c13 142 26 256 50 385l142 747h232l145 -747c25 -129 39 -243 51 -383h24c14 140 28 249 53 383l147 747h243l-297 -1400h-294l-112 565
c-29 154 -49 290 -68 451h-24c-20 -161 -40 -296 -68 -451l-111 -565h-290z" />
    <glyph glyph-name="Wdieresis" unicode="&#x1e84;" horiz-adv-x="1614" 
d="M508 1507v205h235v-205h-235zM877 1507v205h234v-205h-234zM326 0l-303 1400h252l152 -747c27 -134 40 -242 53 -385h23c13 142 26 256 50 385l142 747h232l145 -747c25 -129 39 -243 51 -383h24c14 140 28 249 53 383l147 747h243l-297 -1400h-294l-112 565
c-29 154 -49 290 -68 451h-24c-20 -161 -40 -296 -68 -451l-111 -565h-290z" />
    <glyph glyph-name="Wgrave" unicode="&#x1e80;" horiz-adv-x="1614" 
d="M903 1495h-193l-179 185h245zM326 0l-303 1400h252l152 -747c27 -134 40 -242 53 -385h23c13 142 26 256 50 385l142 747h232l145 -747c25 -129 39 -243 51 -383h24c14 140 28 249 53 383l147 747h243l-297 -1400h-294l-112 565c-29 154 -49 290 -68 451h-24
c-20 -161 -40 -296 -68 -451l-111 -565h-290z" />
    <glyph glyph-name="Yacute" unicode="&#xdd;" horiz-adv-x="1094" 
d="M457 1495l128 185h244l-179 -185h-193zM1073 1400l-402 -833v-567h-248v567l-402 833h266l170 -365c31 -66 57 -135 87 -225h19c29 90 57 158 87 225l169 365h254z" />
    <glyph glyph-name="Ycircumflex" unicode="&#x176;" horiz-adv-x="1094" 
d="M235 1494l204 186h223l204 -186h-195l-120 87l-120 -87h-196zM1073 1400l-402 -833v-567h-248v567l-402 833h266l170 -365c31 -66 57 -135 87 -225h19c29 90 57 158 87 225l169 365h254z" />
    <glyph glyph-name="Ydieresis" unicode="&#x178;" horiz-adv-x="1094" 
d="M249 1507v205h235v-205h-235zM618 1507v205h234v-205h-234zM1073 1400l-402 -833v-567h-248v567l-402 833h266l170 -365c31 -66 57 -135 87 -225h19c29 90 57 158 87 225l169 365h254z" />
    <glyph glyph-name="Ygrave" unicode="&#x1ef2;" horiz-adv-x="1094" 
d="M644 1495h-193l-179 185h245zM1073 1400l-402 -833v-567h-248v567l-402 833h266l170 -365c31 -66 57 -135 87 -225h19c29 90 57 158 87 225l169 365h254z" />
    <glyph glyph-name="uni1EF8" unicode="&#x1ef8;" horiz-adv-x="1094" 
d="M696 1489c-113 0 -222 98 -279 98c-42 0 -57 -29 -61 -92h-129c5 146 68 224 185 224c115 0 216 -98 276 -98c39 0 54 29 57 92h129c-5 -146 -71 -224 -178 -224zM1073 1400l-402 -833v-567h-248v567l-402 833h266l170 -365c31 -66 57 -135 87 -225h19
c29 90 57 158 87 225l169 365h254z" />
    <glyph glyph-name="Zacute" unicode="&#x179;" horiz-adv-x="964" 
d="M389 1495l128 185h244l-179 -185h-193zM27 0l-4 11l485 1034c25 54 47 98 78 147l-7 12c-61 -3 -117 -4 -180 -4h-355v200h873l4 -11l-456 -1002c-28 -64 -51 -114 -90 -178l8 -12c56 3 114 4 177 4h381v-201h-914z" />
    <glyph glyph-name="Zcaron" unicode="&#x17d;" horiz-adv-x="964" 
d="M166 1680h196l120 -86l120 86h195l-204 -186h-223zM27 0l-4 11l485 1034c25 54 47 98 78 147l-7 12c-61 -3 -117 -4 -180 -4h-355v200h873l4 -11l-456 -1002c-28 -64 -51 -114 -90 -178l8 -12c56 3 114 4 177 4h381v-201h-914z" />
    <glyph glyph-name="Zdotaccent" unicode="&#x17b;" horiz-adv-x="964" 
d="M350 1507v205h265v-205h-265zM27 0l-4 11l485 1034c25 54 47 98 78 147l-7 12c-61 -3 -117 -4 -180 -4h-355v200h873l4 -11l-456 -1002c-28 -64 -51 -114 -90 -178l8 -12c56 3 114 4 177 4h381v-201h-914z" />
    <glyph glyph-name="aacute" unicode="&#xe1;" horiz-adv-x="1015" 
d="M554 1400h242l-214 -256h-186zM330 -24c-170 0 -267 97 -267 263v5c0 226 175 308 377 359l201 51v88c0 115 -47 167 -152 167c-122 0 -178 -78 -166 -246l-237 26c-15 242 130 385 408 385c256 0 387 -111 387 -328v-510c0 -70 12 -87 64 -89l40 -2l-32 -165
c-14 -2 -35 -4 -53 -4c-194 0 -238 77 -199 269l-20 4c-49 -178 -167 -273 -351 -273zM419 153c128 0 222 109 222 265v71l-125 -35c-124 -35 -209 -87 -209 -189v-2c0 -71 39 -110 112 -110z" />
    <glyph glyph-name="abreve" unicode="&#x103;" horiz-adv-x="1015" 
d="M597 1401h163c-7 -174 -88 -255 -270 -255c-183 0 -264 81 -271 255h163c6 -86 33 -122 108 -122c74 0 102 36 107 122zM330 -24c-170 0 -267 97 -267 263v5c0 226 175 308 377 359l201 51v88c0 115 -47 167 -152 167c-122 0 -178 -78 -166 -246l-237 26
c-15 242 130 385 408 385c256 0 387 -111 387 -328v-510c0 -70 12 -87 64 -89l40 -2l-32 -165c-14 -2 -35 -4 -53 -4c-194 0 -238 77 -199 269l-20 4c-49 -178 -167 -273 -351 -273zM419 153c128 0 222 109 222 265v71l-125 -35c-124 -35 -209 -87 -209 -189v-2
c0 -71 39 -110 112 -110z" />
    <glyph glyph-name="acircumflex" unicode="&#xe2;" horiz-adv-x="1015" 
d="M178 1144l202 256h218l202 -256h-186l-125 127l-125 -127h-186zM330 -24c-170 0 -267 97 -267 263v5c0 226 175 308 377 359l201 51v88c0 115 -47 167 -152 167c-122 0 -178 -78 -166 -246l-237 26c-15 242 130 385 408 385c256 0 387 -111 387 -328v-510
c0 -70 12 -87 64 -89l40 -2l-32 -165c-14 -2 -35 -4 -53 -4c-194 0 -238 77 -199 269l-20 4c-49 -178 -167 -273 -351 -273zM419 153c128 0 222 109 222 265v71l-125 -35c-124 -35 -209 -87 -209 -189v-2c0 -71 39 -110 112 -110z" />
    <glyph glyph-name="adieresis" unicode="&#xe4;" horiz-adv-x="1015" 
d="M188 1178v206h235v-206h-235zM557 1178v206h234v-206h-234zM330 -24c-170 0 -267 97 -267 263v5c0 226 175 308 377 359l201 51v88c0 115 -47 167 -152 167c-122 0 -178 -78 -166 -246l-237 26c-15 242 130 385 408 385c256 0 387 -111 387 -328v-510
c0 -70 12 -87 64 -89l40 -2l-32 -165c-14 -2 -35 -4 -53 -4c-194 0 -238 77 -199 269l-20 4c-49 -178 -167 -273 -351 -273zM419 153c128 0 222 109 222 265v71l-125 -35c-124 -35 -209 -87 -209 -189v-2c0 -71 39 -110 112 -110z" />
    <glyph glyph-name="agrave" unicode="&#xe0;" horiz-adv-x="1015" 
d="M425 1400l158 -256h-186l-214 256h242zM330 -24c-170 0 -267 97 -267 263v5c0 226 175 308 377 359l201 51v88c0 115 -47 167 -152 167c-122 0 -178 -78 -166 -246l-237 26c-15 242 130 385 408 385c256 0 387 -111 387 -328v-510c0 -70 12 -87 64 -89l40 -2l-32 -165
c-14 -2 -35 -4 -53 -4c-194 0 -238 77 -199 269l-20 4c-49 -178 -167 -273 -351 -273zM419 153c128 0 222 109 222 265v71l-125 -35c-124 -35 -209 -87 -209 -189v-2c0 -71 39 -110 112 -110z" />
    <glyph glyph-name="amacron" unicode="&#x101;" horiz-adv-x="1015" 
d="M203 1182v152h572v-152h-572zM330 -24c-170 0 -267 97 -267 263v5c0 226 175 308 377 359l201 51v88c0 115 -47 167 -152 167c-122 0 -178 -78 -166 -246l-237 26c-15 242 130 385 408 385c256 0 387 -111 387 -328v-510c0 -70 12 -87 64 -89l40 -2l-32 -165
c-14 -2 -35 -4 -53 -4c-194 0 -238 77 -199 269l-20 4c-49 -178 -167 -273 -351 -273zM419 153c128 0 222 109 222 265v71l-125 -35c-124 -35 -209 -87 -209 -189v-2c0 -71 39 -110 112 -110z" />
    <glyph glyph-name="aogonek" unicode="&#x105;" horiz-adv-x="1015" 
d="M850 -22c-59 -32 -85 -63 -85 -97c0 -30 24 -45 66 -45c21 0 47 4 72 11l-31 -156c-31 -11 -68 -17 -103 -17c-117 0 -178 53 -178 139c0 77 47 145 148 199c-55 40 -62 115 -38 233l-20 4c-49 -178 -167 -273 -351 -273c-170 0 -267 97 -267 263v5
c0 226 175 308 377 359l201 51v88c0 115 -47 167 -152 167c-122 0 -178 -78 -166 -246l-237 26c-15 242 130 385 408 385c256 0 387 -111 387 -328v-510c0 -70 12 -87 64 -89l40 -2l-32 -165c-14 -2 -35 -4 -53 -4s-35 1 -50 2zM641 418v71l-125 -35
c-124 -35 -209 -87 -209 -189v-2c0 -71 39 -110 112 -110c128 0 222 109 222 265z" />
    <glyph glyph-name="aring" unicode="&#xe5;" horiz-adv-x="1015" 
d="M489 1136c-138 0 -232 89 -232 221c0 133 94 222 232 222s232 -89 232 -222c0 -132 -94 -221 -232 -221zM489 1263c55 0 95 39 95 94c0 56 -40 95 -95 95s-95 -39 -95 -95c0 -55 40 -94 95 -94zM330 -24c-170 0 -267 97 -267 263v5c0 226 175 308 377 359l201 51v88
c0 115 -47 167 -152 167c-122 0 -178 -78 -166 -246l-237 26c-15 242 130 385 408 385c256 0 387 -111 387 -328v-510c0 -70 12 -87 64 -89l40 -2l-32 -165c-14 -2 -35 -4 -53 -4c-194 0 -238 77 -199 269l-20 4c-49 -178 -167 -273 -351 -273zM419 153
c128 0 222 109 222 265v71l-125 -35c-124 -35 -209 -87 -209 -189v-2c0 -71 39 -110 112 -110z" />
    <glyph glyph-name="atilde" unicode="&#xe3;" horiz-adv-x="1015" 
d="M643 1181c-113 0 -227 102 -283 102c-42 0 -58 -28 -62 -96h-133c5 158 56 242 176 242c115 0 221 -102 280 -102c40 0 55 28 58 96h133c-5 -158 -64 -242 -169 -242zM330 -24c-170 0 -267 97 -267 263v5c0 226 175 308 377 359l201 51v88c0 115 -47 167 -152 167
c-122 0 -178 -78 -166 -246l-237 26c-15 242 130 385 408 385c256 0 387 -111 387 -328v-510c0 -70 12 -87 64 -89l40 -2l-32 -165c-14 -2 -35 -4 -53 -4c-194 0 -238 77 -199 269l-20 4c-49 -178 -167 -273 -351 -273zM419 153c128 0 222 109 222 265v71l-125 -35
c-124 -35 -209 -87 -209 -189v-2c0 -71 39 -110 112 -110z" />
    <glyph glyph-name="ae" unicode="&#xe6;" horiz-adv-x="1597" 
d="M1291 364l234 -30c-35 -239 -188 -357 -439 -357c-228 0 -355 93 -387 272h-18c-39 -178 -157 -273 -351 -273c-170 0 -267 97 -267 263v5c0 226 175 308 377 359l201 51v88c0 115 -47 167 -152 167c-122 0 -178 -78 -166 -246l-237 26c-15 242 129 385 407 385
c125 0 226 -32 299 -109c79 71 178 109 302 109c275 0 427 -170 427 -473c0 -47 -2 -91 -7 -142h-633v-20c0 -201 74 -297 213 -297c113 0 179 63 197 222zM1092 909c-136 0 -206 -94 -211 -283h405v27c0 175 -70 256 -194 256zM641 418v71l-125 -35
c-124 -35 -209 -87 -209 -189v-2c0 -72 39 -110 112 -110c128 0 222 109 222 265z" />
    <glyph glyph-name="aeacute" unicode="&#x1fd;" horiz-adv-x="1597" 
d="M1098 1400l-214 -256h-186l158 256h242zM1291 364l234 -30c-35 -239 -188 -357 -439 -357c-228 0 -355 93 -387 272h-18c-39 -178 -157 -273 -351 -273c-170 0 -267 97 -267 263v5c0 226 175 308 377 359l201 51v88c0 115 -47 167 -152 167c-122 0 -178 -78 -166 -246
l-237 26c-15 242 129 385 407 385c125 0 226 -32 299 -109c79 71 178 109 302 109c275 0 427 -170 427 -473c0 -47 -2 -91 -7 -142h-633v-20c0 -201 74 -297 213 -297c113 0 179 63 197 222zM1092 909c-136 0 -206 -94 -211 -283h405v27c0 175 -70 256 -194 256zM641 418v71
l-125 -35c-124 -35 -209 -87 -209 -189v-2c0 -72 39 -110 112 -110c128 0 222 109 222 265z" />
    <glyph glyph-name="a.ss01" horiz-adv-x="1073" 
d="M414 -18c-224 0 -342 179 -342 521v44c0 342 118 521 342 521c177 0 281 -100 338 -276l21 7c-33 115 -50 199 -51 251h242v-1050h-242c1 52 18 136 51 251l-21 8c-57 -177 -161 -277 -338 -277zM510 146c137 0 211 122 211 350v58c0 228 -74 350 -211 350
c-129 0 -192 -110 -192 -340v-78c0 -230 63 -340 192 -340z" />
    <glyph glyph-name="aacute.ss01" horiz-adv-x="1073" 
d="M577 1400h242l-214 -256h-186zM414 -18c-224 0 -342 179 -342 521v44c0 342 118 521 342 521c177 0 281 -100 338 -276l21 7c-33 115 -50 199 -51 251h242v-1050h-242c1 52 18 136 51 251l-21 8c-57 -177 -161 -277 -338 -277zM510 146c137 0 211 122 211 350v58
c0 228 -74 350 -211 350c-129 0 -192 -110 -192 -340v-78c0 -230 63 -340 192 -340z" />
    <glyph glyph-name="abreve.ss01" horiz-adv-x="1073" 
d="M620 1401h163c-7 -174 -88 -255 -270 -255c-183 0 -264 81 -271 255h163c6 -86 33 -122 108 -122c74 0 102 36 107 122zM414 -18c-224 0 -342 179 -342 521v44c0 342 118 521 342 521c177 0 281 -100 338 -276l21 7c-33 115 -50 199 -51 251h242v-1050h-242
c1 52 18 136 51 251l-21 8c-57 -177 -161 -277 -338 -277zM510 146c137 0 211 122 211 350v58c0 228 -74 350 -211 350c-129 0 -192 -110 -192 -340v-78c0 -230 63 -340 192 -340z" />
    <glyph glyph-name="acircumflex.ss01" horiz-adv-x="1073" 
d="M201 1144l202 256h218l202 -256h-186l-125 127l-125 -127h-186zM414 -18c-224 0 -342 179 -342 521v44c0 342 118 521 342 521c177 0 281 -100 338 -276l21 7c-33 115 -50 199 -51 251h242v-1050h-242c1 52 18 136 51 251l-21 8c-57 -177 -161 -277 -338 -277zM510 146
c137 0 211 122 211 350v58c0 228 -74 350 -211 350c-129 0 -192 -110 -192 -340v-78c0 -230 63 -340 192 -340z" />
    <glyph glyph-name="adieresis.ss01" horiz-adv-x="1073" 
d="M210 1178v206h235v-206h-235zM579 1178v206h234v-206h-234zM414 -18c-224 0 -342 179 -342 521v44c0 342 118 521 342 521c177 0 281 -100 338 -276l21 7c-33 115 -50 199 -51 251h242v-1050h-242c1 52 18 136 51 251l-21 8c-57 -177 -161 -277 -338 -277zM510 146
c137 0 211 122 211 350v58c0 228 -74 350 -211 350c-129 0 -192 -110 -192 -340v-78c0 -230 63 -340 192 -340z" />
    <glyph glyph-name="agrave.ss01" horiz-adv-x="1073" 
d="M448 1400l158 -256h-186l-214 256h242zM414 -18c-224 0 -342 179 -342 521v44c0 342 118 521 342 521c177 0 281 -100 338 -276l21 7c-33 115 -50 199 -51 251h242v-1050h-242c1 52 18 136 51 251l-21 8c-57 -177 -161 -277 -338 -277zM510 146c137 0 211 122 211 350v58
c0 228 -74 350 -211 350c-129 0 -192 -110 -192 -340v-78c0 -230 63 -340 192 -340z" />
    <glyph glyph-name="amacron.ss01" horiz-adv-x="1073" 
d="M226 1182v152h572v-152h-572zM414 -18c-224 0 -342 179 -342 521v44c0 342 118 521 342 521c177 0 281 -100 338 -276l21 7c-33 115 -50 199 -51 251h242v-1050h-242c1 52 18 136 51 251l-21 8c-57 -177 -161 -277 -338 -277zM510 146c137 0 211 122 211 350v58
c0 228 -74 350 -211 350c-129 0 -192 -110 -192 -340v-78c0 -230 63 -340 192 -340z" />
    <glyph glyph-name="aogonek.ss01" horiz-adv-x="1073" 
d="M964 0c-96 -31 -150 -74 -150 -119c0 -30 24 -45 66 -45c21 0 47 4 72 11l-31 -156c-31 -11 -68 -17 -103 -17c-117 0 -178 53 -178 139c0 75 44 138 139 187h-57c1 52 18 136 51 251l-21 8c-57 -177 -161 -277 -338 -277c-224 0 -342 179 -342 521v44
c0 342 118 521 342 521c177 0 281 -100 338 -276l21 7c-33 115 -50 199 -51 251h242v-1050zM721 496v58c0 228 -74 350 -211 350c-129 0 -192 -110 -192 -340v-78c0 -230 63 -340 192 -340c137 0 211 122 211 350z" />
    <glyph glyph-name="aring.ss01" horiz-adv-x="1073" 
d="M512 1136c-138 0 -232 89 -232 221c0 133 94 222 232 222s232 -89 232 -222c0 -132 -94 -221 -232 -221zM512 1263c55 0 95 39 95 94c0 56 -40 95 -95 95s-95 -39 -95 -95c0 -55 40 -94 95 -94zM414 -18c-224 0 -342 179 -342 521v44c0 342 118 521 342 521
c177 0 281 -100 338 -276l21 7c-33 115 -50 199 -51 251h242v-1050h-242c1 52 18 136 51 251l-21 8c-57 -177 -161 -277 -338 -277zM510 146c137 0 211 122 211 350v58c0 228 -74 350 -211 350c-129 0 -192 -110 -192 -340v-78c0 -230 63 -340 192 -340z" />
    <glyph glyph-name="atilde.ss01" horiz-adv-x="1073" 
d="M666 1181c-113 0 -227 102 -283 102c-42 0 -58 -28 -62 -96h-133c5 158 56 242 176 242c115 0 221 -102 280 -102c40 0 55 28 58 96h133c-5 -158 -64 -242 -169 -242zM414 -18c-224 0 -342 179 -342 521v44c0 342 118 521 342 521c177 0 281 -100 338 -276l21 7
c-33 115 -50 199 -51 251h242v-1050h-242c1 52 18 136 51 251l-21 8c-57 -177 -161 -277 -338 -277zM510 146c137 0 211 122 211 350v58c0 228 -74 350 -211 350c-129 0 -192 -110 -192 -340v-78c0 -230 63 -340 192 -340z" />
    <glyph glyph-name="cacute" unicode="&#x107;" horiz-adv-x="1027" 
d="M587 1400h242l-214 -256h-186zM520 -25c-295 0 -448 190 -448 554v4c0 356 157 542 449 542c264 0 405 -140 426 -409l-243 -29c-11 183 -67 271 -184 271c-129 0 -197 -108 -197 -335v-84c0 -234 64 -345 200 -345c115 0 176 80 187 248l249 -31
c-29 -254 -179 -386 -439 -386z" />
    <glyph glyph-name="ccaron" unicode="&#x10d;" horiz-adv-x="1027" 
d="M211 1400h186l125 -127l125 127h186l-202 -256h-218zM520 -25c-295 0 -448 190 -448 554v4c0 356 157 542 449 542c264 0 405 -140 426 -409l-243 -29c-11 183 -67 271 -184 271c-129 0 -197 -108 -197 -335v-84c0 -234 64 -345 200 -345c115 0 176 80 187 248l249 -31
c-29 -254 -179 -386 -439 -386z" />
    <glyph glyph-name="ccedilla" unicode="&#xe7;" horiz-adv-x="1027" 
d="M959 361c-26 -230 -152 -360 -369 -383l-7 -56c113 -14 173 -59 173 -145c0 -95 -75 -152 -198 -152c-61 0 -121 17 -175 45l22 122c43 -27 93 -42 140 -42c49 0 79 20 79 52c0 48 -82 64 -192 66l16 111c-248 30 -376 217 -376 550v4c0 356 157 542 449 542
c264 0 405 -140 426 -409l-243 -29c-11 183 -67 271 -184 271c-129 0 -197 -108 -197 -335v-84c0 -234 64 -345 200 -345c115 0 176 80 187 248z" />
    <glyph glyph-name="cdotaccent" unicode="&#x10b;" horiz-adv-x="1027" 
d="M390 1179v205h265v-205h-265zM520 -25c-295 0 -448 190 -448 554v4c0 356 157 542 449 542c264 0 405 -140 426 -409l-243 -29c-11 183 -67 271 -184 271c-129 0 -197 -108 -197 -335v-84c0 -234 64 -345 200 -345c115 0 176 80 187 248l249 -31
c-29 -254 -179 -386 -439 -386z" />
    <glyph glyph-name="eth" unicode="&#xf0;" horiz-adv-x="1037" 
d="M812 1207c103 -178 152 -383 152 -625v-47c0 -360 -159 -560 -452 -560c-283 0 -440 194 -440 542v3c0 343 129 534 360 534c169 0 244 -82 296 -205l19 7c-19 82 -66 193 -145 311l-243 -46l-28 147l169 32c-21 24 -44 48 -68 72l216 53c26 -27 50 -55 72 -83l178 34
l28 -147zM721 483v70c0 229 -74 352 -211 352c-129 0 -192 -111 -192 -342v-80c0 -230 63 -339 194 -339c141 0 209 109 209 339z" />
    <glyph glyph-name="dcaron" unicode="&#x10f;" horiz-adv-x="1073" 
d="M414 -18c-224 0 -342 179 -342 521v44c0 342 118 521 342 521c178 0 283 -107 338 -277l21 8c-37 128 -52 217 -52 316v285h244v-1400h-243c2 52 18 136 51 251l-21 8c-56 -177 -160 -277 -338 -277zM1036 1400h204v-121c0 -122 -51 -170 -193 -178l-12 67
c78 3 99 26 99 86h-98v146zM510 146c137 0 211 122 211 350v57c0 229 -74 352 -211 352c-128 0 -192 -111 -192 -342v-77c0 -230 64 -340 192 -340z" />
    <glyph glyph-name="dcroat" unicode="&#x111;" horiz-adv-x="1057" 
d="M1065 1283v-154h-100v-1129h-243c2 52 18 136 51 251l-21 8c-56 -177 -160 -277 -338 -277c-224 0 -342 179 -342 521v44c0 342 118 521 342 521c178 0 283 -107 338 -277l21 8c-37 128 -52 217 -52 316v14h-290v154h290v117h244v-117h100zM721 496v57
c0 229 -74 352 -211 352c-128 0 -192 -111 -192 -342v-77c0 -230 64 -340 192 -340c137 0 211 122 211 350z" />
    <glyph glyph-name="eacute" unicode="&#xe9;" horiz-adv-x="1032" 
d="M823 1400l-214 -256h-186l158 256h242zM726 364l234 -30c-36 -239 -188 -358 -440 -358c-288 0 -448 178 -448 502v93c0 324 160 503 455 503c275 0 428 -170 428 -473c0 -47 -2 -91 -7 -142h-634v-20c0 -201 74 -298 214 -298c113 0 179 64 198 223zM525 909
c-136 0 -206 -94 -211 -283h399v27c0 175 -63 256 -188 256z" />
    <glyph glyph-name="ecaron" unicode="&#x11b;" horiz-adv-x="1032" 
d="M625 1144h-218l-202 256h186l125 -127l125 127h186zM726 364l234 -30c-36 -239 -188 -358 -440 -358c-288 0 -448 178 -448 502v93c0 324 160 503 455 503c275 0 428 -170 428 -473c0 -47 -2 -91 -7 -142h-634v-20c0 -201 74 -298 214 -298c113 0 179 64 198 223z
M525 909c-136 0 -206 -94 -211 -283h399v27c0 175 -63 256 -188 256z" />
    <glyph glyph-name="ecircumflex" unicode="&#xea;" horiz-adv-x="1032" 
d="M517 1271l-125 -127h-186l202 256h218l202 -256h-186zM726 364l234 -30c-36 -239 -188 -358 -440 -358c-288 0 -448 178 -448 502v93c0 324 160 503 455 503c275 0 428 -170 428 -473c0 -47 -2 -91 -7 -142h-634v-20c0 -201 74 -298 214 -298c113 0 179 64 198 223z
M525 909c-136 0 -206 -94 -211 -283h399v27c0 175 -63 256 -188 256z" />
    <glyph glyph-name="edieresis" unicode="&#xeb;" horiz-adv-x="1032" 
d="M450 1384v-206h-235v206h235zM818 1384v-206h-234v206h234zM726 364l234 -30c-36 -239 -188 -358 -440 -358c-288 0 -448 178 -448 502v93c0 324 160 503 455 503c275 0 428 -170 428 -473c0 -47 -2 -91 -7 -142h-634v-20c0 -201 74 -298 214 -298c113 0 179 64 198 223z
M525 909c-136 0 -206 -94 -211 -283h399v27c0 175 -63 256 -188 256z" />
    <glyph glyph-name="edotaccent" unicode="&#x117;" horiz-adv-x="1032" 
d="M649 1384v-205h-265v205h265zM726 364l234 -30c-36 -239 -188 -358 -440 -358c-288 0 -448 178 -448 502v93c0 324 160 503 455 503c275 0 428 -170 428 -473c0 -47 -2 -91 -7 -142h-634v-20c0 -201 74 -298 214 -298c113 0 179 64 198 223zM525 909
c-136 0 -206 -94 -211 -283h399v27c0 175 -63 256 -188 256z" />
    <glyph glyph-name="egrave" unicode="&#xe8;" horiz-adv-x="1032" 
d="M610 1144h-186l-214 256h242zM726 364l234 -30c-36 -239 -188 -358 -440 -358c-288 0 -448 178 -448 502v93c0 324 160 503 455 503c275 0 428 -170 428 -473c0 -47 -2 -91 -7 -142h-634v-20c0 -201 74 -298 214 -298c113 0 179 64 198 223zM525 909
c-136 0 -206 -94 -211 -283h399v27c0 175 -63 256 -188 256z" />
    <glyph glyph-name="emacron" unicode="&#x113;" horiz-adv-x="1032" 
d="M802 1334v-152h-572v152h572zM726 364l234 -30c-36 -239 -188 -358 -440 -358c-288 0 -448 178 -448 502v93c0 324 160 503 455 503c275 0 428 -170 428 -473c0 -47 -2 -91 -7 -142h-634v-20c0 -201 74 -298 214 -298c113 0 179 64 198 223zM525 909
c-136 0 -206 -94 -211 -283h399v27c0 175 -63 256 -188 256z" />
    <glyph glyph-name="eogonek" unicode="&#x119;" horiz-adv-x="1032" 
d="M686 -3c-86 -39 -123 -75 -123 -116c0 -30 24 -45 66 -45c21 0 47 4 72 11l-31 -156c-31 -11 -68 -17 -103 -17c-117 0 -178 53 -178 139c0 61 30 116 93 164c-264 15 -410 192 -410 501v93c0 324 160 503 455 503c275 0 428 -170 428 -473c0 -47 -2 -91 -7 -142h-634
v-20c0 -201 74 -298 214 -298c113 0 179 64 198 223l234 -30c-27 -181 -121 -293 -274 -337zM525 909c-136 0 -206 -94 -211 -283h399v27c0 175 -63 256 -188 256z" />
    <glyph glyph-name="uni1EBD" unicode="&#x1ebd;" horiz-adv-x="1032" 
d="M388 1283c-42 0 -58 -28 -62 -96h-133c5 158 56 242 176 242c115 0 221 -102 280 -102c40 0 55 28 58 96h133c-5 -158 -64 -242 -169 -242c-113 0 -227 102 -283 102zM726 364l234 -30c-36 -239 -188 -358 -440 -358c-288 0 -448 178 -448 502v93c0 324 160 503 455 503
c275 0 428 -170 428 -473c0 -47 -2 -91 -7 -142h-634v-20c0 -201 74 -298 214 -298c113 0 179 64 198 223zM525 909c-136 0 -206 -94 -211 -283h399v27c0 175 -63 256 -188 256z" />
    <glyph glyph-name="gbreve" unicode="&#x11f;" horiz-adv-x="987" 
d="M413 1145c-156 0 -229 79 -234 256h144c3 -85 30 -122 90 -122c59 0 87 37 89 122h144c-5 -177 -78 -256 -233 -256zM603 254c166 -18 368 -61 368 -307c0 -221 -160 -321 -492 -321c-312 0 -463 81 -463 248c0 116 57 192 188 218v15c-95 31 -161 85 -161 181
c0 94 59 152 177 172v17c-86 56 -132 146 -132 266c0 212 146 332 406 332c55 0 105 -5 149 -16c-33 170 57 302 279 315l27 -224l-95 -9c-87 -7 -137 -35 -136 -107c117 -51 180 -151 180 -291c0 -214 -145 -333 -404 -333c-67 0 -126 8 -177 23c-64 -8 -89 -27 -89 -64
c0 -54 43 -77 209 -96zM494 938c-108 0 -159 -64 -159 -195c0 -132 51 -195 159 -195c106 0 157 63 157 195c0 131 -51 195 -157 195zM492 -206c193 0 277 38 277 127c0 95 -71 119 -240 137l-169 18c-14 1 -28 3 -41 5c-96 -31 -127 -75 -127 -143c0 -99 88 -144 300 -144z
" />
    <glyph glyph-name="gcaron" unicode="&#x1e7;" horiz-adv-x="987" 
d="M536 1144h-189l-161 256h149l106 -141l107 141h149zM603 254c166 -18 368 -61 368 -307c0 -221 -160 -321 -492 -321c-312 0 -463 81 -463 248c0 116 57 192 188 218v15c-95 31 -161 85 -161 181c0 94 59 152 177 172v17c-86 56 -132 146 -132 266c0 212 146 332 406 332
c55 0 105 -5 149 -16c-33 170 57 302 279 315l27 -224l-95 -9c-87 -7 -137 -35 -136 -107c117 -51 180 -151 180 -291c0 -214 -145 -333 -404 -333c-67 0 -126 8 -177 23c-64 -8 -89 -27 -89 -64c0 -54 43 -77 209 -96zM494 938c-108 0 -159 -64 -159 -195
c0 -132 51 -195 159 -195c106 0 157 63 157 195c0 131 -51 195 -157 195zM492 -206c193 0 277 38 277 127c0 95 -71 119 -240 137l-169 18c-14 1 -28 3 -41 5c-96 -31 -127 -75 -127 -143c0 -99 88 -144 300 -144z" />
    <glyph glyph-name="uni0123" unicode="&#x123;" horiz-adv-x="987" 
d="M566 1300v-155h-204v121c0 122 50 171 193 179l12 -68c-77 -3 -99 -23 -99 -77h98zM603 254c166 -18 368 -61 368 -307c0 -221 -160 -321 -492 -321c-312 0 -463 81 -463 248c0 116 57 192 188 218v15c-95 31 -161 85 -161 181c0 94 59 152 177 172v17
c-86 56 -132 146 -132 266c0 212 146 332 406 332c55 0 105 -5 149 -16c-33 170 57 302 279 315l27 -224l-95 -9c-87 -7 -137 -35 -136 -107c117 -51 180 -151 180 -291c0 -214 -145 -333 -404 -333c-67 0 -126 8 -177 23c-64 -8 -89 -27 -89 -64c0 -54 43 -77 209 -96z
M494 938c-108 0 -159 -64 -159 -195c0 -132 51 -195 159 -195c106 0 157 63 157 195c0 131 -51 195 -157 195zM492 -206c193 0 277 38 277 127c0 95 -71 119 -240 137l-169 18c-14 1 -28 3 -41 5c-96 -31 -127 -75 -127 -143c0 -99 88 -144 300 -144z" />
    <glyph glyph-name="gdotaccent" unicode="&#x121;" horiz-adv-x="987" 
d="M575 1384v-205h-265v205h265zM603 254c166 -18 368 -61 368 -307c0 -221 -160 -321 -492 -321c-312 0 -463 81 -463 248c0 116 57 192 188 218v15c-95 31 -161 85 -161 181c0 94 59 152 177 172v17c-86 56 -132 146 -132 266c0 212 146 332 406 332c55 0 105 -5 149 -16
c-33 170 57 302 279 315l27 -224l-95 -9c-87 -7 -137 -35 -136 -107c117 -51 180 -151 180 -291c0 -214 -145 -333 -404 -333c-67 0 -126 8 -177 23c-64 -8 -89 -27 -89 -64c0 -54 43 -77 209 -96zM494 938c-108 0 -159 -64 -159 -195c0 -132 51 -195 159 -195
c106 0 157 63 157 195c0 131 -51 195 -157 195zM492 -206c193 0 277 38 277 127c0 95 -71 119 -240 137l-169 18c-14 1 -28 3 -41 5c-96 -31 -127 -75 -127 -143c0 -99 88 -144 300 -144z" />
    <glyph glyph-name="hbar" unicode="&#x127;" horiz-adv-x="1075" 
d="M693 1068c184 0 279 -99 279 -288v-780h-244v729c0 108 -47 166 -136 166c-134 0 -224 -146 -224 -363v-532h-243v1135h-134v154h134v111h243v-111h258v-154h-258v-53c0 -94 -14 -178 -55 -300l20 -8c80 205 198 294 360 294z" />
    <glyph glyph-name="dotlessi" unicode="&#x131;" horiz-adv-x="460" 
d="M108 0v1050h244v-1050h-244z" />
    <glyph glyph-name="iacute" unicode="&#xed;" horiz-adv-x="460" 
d="M200 1400h235l-115 -256h-188zM108 0v1050h244v-1050h-244z" />
    <glyph glyph-name="icircumflex" unicode="&#xee;" horiz-adv-x="460" 
d="M15 1135l116 265h199l116 -265h-146l-69 131l-70 -131h-146zM108 0v1050h244v-1050h-244z" />
    <glyph glyph-name="idieresis" unicode="&#xef;" horiz-adv-x="460" 
d="M13 1178v206h184v-206h-184zM262 1178v206h184v-206h-184zM108 0v1050h244v-1050h-244z" />
    <glyph glyph-name="i.loclTRK" horiz-adv-x="460" 
d="M98 1179v205h265v-205h-265zM108 0v1050h244v-1050h-244z" />
    <glyph glyph-name="igrave" unicode="&#xec;" horiz-adv-x="460" 
d="M261 1400l68 -256h-189l-114 256h235zM108 0v1050h244v-1050h-244z" />
    <glyph glyph-name="imacron" unicode="&#x12b;" horiz-adv-x="460" 
d="M36 1191v143h388v-143h-388zM108 0v1050h244v-1050h-244z" />
    <glyph glyph-name="iogonek" unicode="&#x12f;" horiz-adv-x="460" 
d="M98 1384h265v-206h-265v206zM108 0v1050h244v-1050c-96 -31 -150 -74 -150 -119c0 -30 24 -45 66 -45c21 0 47 4 72 11l-31 -156c-31 -11 -68 -17 -103 -17c-117 0 -178 53 -178 139c0 75 44 138 139 187h-59z" />
    <glyph glyph-name="itilde" unicode="&#x129;" horiz-adv-x="460" 
d="M312 1157c-58 0 -115 57 -146 57c-20 0 -31 -19 -29 -52h-93c-13 132 26 202 107 202c56 0 116 -58 149 -58c19 0 30 19 28 53h93c9 -132 -29 -202 -109 -202zM108 0v1050h244v-1050h-244z" />
    <glyph glyph-name="ij" unicode="&#x133;" horiz-adv-x="926" 
d="M98 1178v206h265v-206h-265zM563 1178v206h265v-206h-265zM108 0v1050h244v-1050h-244zM371 -374l-29 211l95 7c95 7 137 40 137 131v1075h243v-1011c0 -278 -155 -399 -446 -413z" />
    <glyph glyph-name="ijacute" horiz-adv-x="920" 
d="M204 1400h235l-114 -256h-188zM660 1400h235l-115 -256h-188zM108 0v1050h244v-1050h-244zM366 -374l-30 211l95 7c96 7 137 40 137 131v1075h244v-1011c0 -278 -156 -399 -446 -413z" />
    <glyph glyph-name="uni0237" unicode="&#x237;" horiz-adv-x="460" 
d="M-94 -374l-30 211l95 7c96 7 137 40 137 131v1075h244v-1011c0 -278 -156 -399 -446 -413z" />
    <glyph glyph-name="uni0137" unicode="&#x137;" horiz-adv-x="952" 
d="M108 0v1400h244v-434c0 -137 -9 -228 -33 -347l15 -8l333 439h261l-300 -384l296 -666h-250l-213 512l-109 -131v-381h-244zM405 -90h222v-121c0 -127 -46 -170 -211 -178l-12 67c84 3 108 26 108 86h-107v146z" />
    <glyph glyph-name="lacute" unicode="&#x13a;" horiz-adv-x="460" 
d="M137 1495l128 185h244l-179 -185h-193zM108 1400h244v-1400h-244v1400z" />
    <glyph glyph-name="lcaron" unicode="&#x13e;" horiz-adv-x="460" 
d="M108 1400h244v-1400h-244v1400zM439 1400h204v-121c0 -122 -51 -170 -193 -178l-12 67c78 3 99 26 99 86h-98v146z" />
    <glyph glyph-name="uni013C" unicode="&#x13c;" horiz-adv-x="460" 
d="M108 1400h244v-1400h-244v1400zM119 -90h222v-121c0 -127 -46 -170 -211 -178l-12 67c84 3 108 26 108 86h-107v146z" />
    <glyph glyph-name="ldot" unicode="&#x140;" horiz-adv-x="888" 
d="M108 1400h244v-1400h-244v1400zM509 825h297v-268h-297v268z" />
    <glyph glyph-name="lslash" unicode="&#x142;" horiz-adv-x="667" 
d="M625 1044v-204l-170 -92v-748h-243v616l-170 -92v205l170 92v579h243v-448z" />
    <glyph glyph-name="nacute" unicode="&#x144;" horiz-adv-x="1059" 
d="M598 1400h242l-214 -256h-186zM108 0v1050h244c-2 -75 -16 -145 -56 -268l21 -8c80 205 198 294 360 294c184 0 278 -99 278 -288v-780h-243v730c0 107 -48 165 -136 165c-134 0 -224 -146 -224 -363v-532h-244z" />
    <glyph glyph-name="ncaron" unicode="&#x148;" horiz-adv-x="1059" 
d="M222 1400h186l125 -127l125 127h186l-202 -256h-218zM108 0v1050h244c-2 -75 -16 -145 -56 -268l21 -8c80 205 198 294 360 294c184 0 278 -99 278 -288v-780h-243v730c0 107 -48 165 -136 165c-134 0 -224 -146 -224 -363v-532h-244z" />
    <glyph glyph-name="uni0146" unicode="&#x146;" horiz-adv-x="1059" 
d="M108 0v1050h244c-2 -75 -16 -145 -56 -268l21 -8c80 205 198 294 360 294c184 0 278 -99 278 -288v-780h-243v730c0 107 -48 165 -136 165c-134 0 -224 -146 -224 -363v-532h-244zM421 -90h222v-121c0 -127 -46 -170 -211 -178l-12 67c84 3 108 26 108 86h-107v146z" />
    <glyph glyph-name="eng" unicode="&#x14b;" horiz-adv-x="1059" 
d="M677 1068c184 0 278 -99 278 -288v-780c0 -233 -144 -344 -478 -374l-29 201l95 6c138 8 169 46 169 182v715c0 107 -48 165 -136 165c-134 0 -224 -146 -224 -363v-532h-244v1050h244c-2 -75 -16 -145 -56 -268l21 -8c80 205 198 294 360 294z" />
    <glyph glyph-name="ntilde" unicode="&#xf1;" horiz-adv-x="1059" 
d="M687 1181c-113 0 -227 102 -283 102c-42 0 -58 -28 -62 -96h-133c5 158 56 242 176 242c115 0 221 -102 280 -102c40 0 55 28 58 96h133c-5 -158 -64 -242 -169 -242zM108 0v1050h244c-2 -75 -16 -145 -56 -268l21 -8c80 205 198 294 360 294c184 0 278 -99 278 -288
v-780h-243v730c0 107 -48 165 -136 165c-134 0 -224 -146 -224 -363v-532h-244z" />
    <glyph glyph-name="oacute" unicode="&#xf3;" horiz-adv-x="1046" 
d="M588 1400h242l-214 -256h-186zM523 -25c-290 0 -451 197 -451 547v4c0 351 161 549 451 549s451 -198 451 -549v-4c0 -350 -162 -547 -451 -547zM523 143c134 0 200 111 200 340v84c0 230 -66 341 -200 341c-135 0 -200 -111 -200 -341v-84c0 -229 65 -340 200 -340z" />
    <glyph glyph-name="ocircumflex" unicode="&#xf4;" horiz-adv-x="1046" 
d="M212 1144l202 256h218l202 -256h-186l-125 127l-125 -127h-186zM523 -25c-290 0 -451 197 -451 547v4c0 351 161 549 451 549s451 -198 451 -549v-4c0 -350 -162 -547 -451 -547zM523 143c134 0 200 111 200 340v84c0 230 -66 341 -200 341c-135 0 -200 -111 -200 -341
v-84c0 -229 65 -340 200 -340z" />
    <glyph glyph-name="odieresis" unicode="&#xf6;" horiz-adv-x="1046" 
d="M222 1178v206h235v-206h-235zM591 1178v206h234v-206h-234zM523 -25c-290 0 -451 197 -451 547v4c0 351 161 549 451 549s451 -198 451 -549v-4c0 -350 -162 -547 -451 -547zM523 143c134 0 200 111 200 340v84c0 230 -66 341 -200 341c-135 0 -200 -111 -200 -341v-84
c0 -229 65 -340 200 -340z" />
    <glyph glyph-name="ograve" unicode="&#xf2;" horiz-adv-x="1046" 
d="M459 1400l158 -256h-186l-214 256h242zM523 -25c-290 0 -451 197 -451 547v4c0 351 161 549 451 549s451 -198 451 -549v-4c0 -350 -162 -547 -451 -547zM523 143c134 0 200 111 200 340v84c0 230 -66 341 -200 341c-135 0 -200 -111 -200 -341v-84
c0 -229 65 -340 200 -340z" />
    <glyph glyph-name="ohungarumlaut" unicode="&#x151;" horiz-adv-x="1046" 
d="M423 1400h242l-214 -256h-186zM750 1400h242l-214 -256h-186zM523 -25c-290 0 -451 197 -451 547v4c0 351 161 549 451 549s451 -198 451 -549v-4c0 -350 -162 -547 -451 -547zM523 143c134 0 200 111 200 340v84c0 230 -66 341 -200 341c-135 0 -200 -111 -200 -341v-84
c0 -229 65 -340 200 -340z" />
    <glyph glyph-name="omacron" unicode="&#x14d;" horiz-adv-x="1046" 
d="M237 1182v152h572v-152h-572zM523 -25c-290 0 -451 197 -451 547v4c0 351 161 549 451 549s451 -198 451 -549v-4c0 -350 -162 -547 -451 -547zM523 143c134 0 200 111 200 340v84c0 230 -66 341 -200 341c-135 0 -200 -111 -200 -341v-84c0 -229 65 -340 200 -340z" />
    <glyph glyph-name="uni01EB" unicode="&#x1eb;" horiz-adv-x="1046" 
d="M523 1075c290 0 451 -198 451 -549v-4c0 -296 -116 -483 -326 -533c-74 -36 -106 -70 -106 -108c0 -30 24 -45 66 -45c21 0 47 4 72 11l-31 -156c-31 -11 -68 -17 -103 -17c-117 0 -178 53 -178 139c0 61 30 117 94 165c-251 26 -390 219 -390 544v4
c0 351 161 549 451 549zM723 483v84c0 230 -66 341 -200 341c-135 0 -200 -111 -200 -341v-84c0 -229 65 -340 200 -340c134 0 200 111 200 340z" />
    <glyph glyph-name="oslash" unicode="&#xf8;" horiz-adv-x="1000" 
d="M788 979c106 -91 163 -245 163 -453v-4c0 -352 -162 -547 -451 -547c-64 0 -122 9 -173 28l-54 -115h-146l85 181c-106 91 -163 244 -163 453v4c0 352 161 549 451 549c64 0 122 -10 173 -29l54 115h147zM286 483c0 -81 9 -147 28 -199l283 601c-28 15 -60 23 -97 23
c-142 0 -214 -115 -214 -341v-84zM714 483v84c0 80 -9 146 -27 198l-283 -599c27 -15 59 -23 96 -23c142 0 214 114 214 340z" />
    <glyph glyph-name="oslashacute" unicode="&#x1ff;" horiz-adv-x="1000" 
d="M807 1400l-214 -256h-186l158 256h242zM788 979c106 -91 163 -245 163 -453v-4c0 -352 -162 -547 -451 -547c-64 0 -122 9 -173 28l-54 -115h-146l85 181c-106 91 -163 244 -163 453v4c0 352 161 549 451 549c64 0 122 -10 173 -29l54 115h147zM286 483
c0 -81 9 -147 28 -199l283 601c-28 15 -60 23 -97 23c-142 0 -214 -115 -214 -341v-84zM714 483v84c0 80 -9 146 -27 198l-283 -599c27 -15 59 -23 96 -23c142 0 214 114 214 340z" />
    <glyph glyph-name="otilde" unicode="&#xf5;" horiz-adv-x="1046" 
d="M677 1181c-113 0 -227 102 -283 102c-42 0 -58 -28 -62 -96h-133c5 158 56 242 176 242c115 0 221 -102 280 -102c40 0 55 28 58 96h133c-5 -158 -64 -242 -169 -242zM523 -25c-290 0 -451 197 -451 547v4c0 351 161 549 451 549s451 -198 451 -549v-4
c0 -350 -162 -547 -451 -547zM523 143c134 0 200 111 200 340v84c0 230 -66 341 -200 341c-135 0 -200 -111 -200 -341v-84c0 -229 65 -340 200 -340z" />
    <glyph glyph-name="oe" unicode="&#x153;" horiz-adv-x="1674" 
d="M1369 362l233 -32c-39 -228 -194 -354 -431 -354c-152 0 -263 61 -329 174c-67 -113 -178 -174 -329 -174c-280 0 -441 196 -441 546v4c0 351 161 548 441 548c145 0 262 -62 329 -174c67 112 188 174 337 174c266 0 417 -174 417 -486c0 -48 -2 -81 -8 -129h-625
c3 -213 71 -316 211 -316c110 0 176 67 195 219zM713 483v84c0 230 -64 341 -196 341c-129 0 -194 -111 -194 -341v-84c0 -229 65 -340 194 -340c135 0 196 111 196 340zM1170 908c-127 0 -195 -94 -205 -282h388v6c0 187 -62 276 -183 276z" />
    <glyph glyph-name="thorn" unicode="&#xfe;" horiz-adv-x="1073" 
d="M108 -350v1732h244v-284c0 -99 -15 -171 -52 -299l21 -7c52 170 155 276 338 276c224 0 342 -179 342 -521v-44c0 -342 -118 -521 -342 -521c-178 0 -278 100 -338 276l-21 -7c38 -128 52 -217 52 -316v-285h-244zM563 146c128 0 192 110 192 340v77
c0 231 -64 342 -192 342c-137 0 -211 -123 -211 -352v-57c0 -228 74 -350 211 -350z" />
    <glyph glyph-name="racute" unicode="&#x155;" horiz-adv-x="757" 
d="M464 1400h242l-214 -256h-186zM108 0v1050h245c2 -74 -8 -127 -57 -268l20 -9c94 222 186 295 372 310l35 -220l-94 -8c-193 -14 -277 -113 -277 -390v-465h-244z" />
    <glyph glyph-name="rcaron" unicode="&#x159;" horiz-adv-x="757" 
d="M88 1400h186l125 -127l125 127h186l-202 -256h-218zM108 0v1050h245c2 -74 -8 -127 -57 -268l20 -9c94 222 186 295 372 310l35 -220l-94 -8c-193 -14 -277 -113 -277 -390v-465h-244z" />
    <glyph glyph-name="uni0157" unicode="&#x157;" horiz-adv-x="757" 
d="M108 0v1050h245c2 -74 -8 -127 -57 -268l20 -9c94 222 186 295 372 310l35 -220l-94 -8c-193 -14 -277 -113 -277 -390v-465h-244zM119 -90h222v-121c0 -127 -46 -170 -211 -178l-12 67c84 3 108 26 108 86h-107v146z" />
    <glyph glyph-name="sacute" unicode="&#x15b;" horiz-adv-x="951" 
d="M541 1400h242l-214 -256h-186zM492 -22c-272 0 -428 117 -435 329l232 47c-2 -137 70 -212 202 -212c103 0 160 38 160 117c0 78 -51 114 -185 164l-134 51c-134 51 -249 149 -249 295c0 194 135 303 380 303c257 0 399 -108 400 -303l-227 -40c5 124 -57 179 -170 179
c-99 0 -154 -37 -154 -104c0 -68 48 -111 182 -159l134 -49c134 -49 267 -125 267 -314c0 -191 -148 -304 -403 -304z" />
    <glyph glyph-name="scaron" unicode="&#x161;" horiz-adv-x="951" 
d="M165 1400h186l125 -127l125 127h186l-202 -256h-218zM492 -22c-272 0 -428 117 -435 329l232 47c-2 -137 70 -212 202 -212c103 0 160 38 160 117c0 78 -51 114 -185 164l-134 51c-134 51 -249 149 -249 295c0 194 135 303 380 303c257 0 399 -108 400 -303l-227 -40
c5 124 -57 179 -170 179c-99 0 -154 -37 -154 -104c0 -68 48 -111 182 -159l134 -49c134 -49 267 -125 267 -314c0 -191 -148 -304 -403 -304z" />
    <glyph glyph-name="scedilla" unicode="&#x15f;" horiz-adv-x="951" 
d="M895 282c0 -178 -128 -288 -351 -302l-7 -58c113 -14 173 -59 173 -145c0 -95 -75 -152 -198 -152c-61 0 -121 17 -175 45l22 122c43 -27 93 -42 140 -42c49 0 79 20 79 52c0 48 -82 64 -192 66l16 115c-216 23 -339 137 -345 324l232 47c-2 -137 70 -212 202 -212
c103 0 160 38 160 117c0 78 -51 114 -185 164l-134 51c-134 51 -249 149 -249 295c0 194 135 303 380 303c257 0 399 -108 400 -303l-227 -40c5 124 -57 179 -170 179c-99 0 -154 -37 -154 -104c0 -68 48 -111 182 -159l134 -49c134 -49 267 -125 267 -314z" />
    <glyph glyph-name="uni0219" unicode="&#x219;" horiz-adv-x="951" 
d="M492 -22c-272 0 -428 117 -435 329l232 47c-2 -137 70 -212 202 -212c103 0 160 38 160 117c0 78 -51 114 -185 164l-134 51c-134 51 -249 149 -249 295c0 194 135 303 380 303c257 0 399 -108 400 -303l-227 -40c5 124 -57 179 -170 179c-99 0 -154 -37 -154 -104
c0 -68 48 -111 182 -159l134 -49c134 -49 267 -125 267 -314c0 -191 -148 -304 -403 -304zM365 -90h222v-121c0 -127 -46 -170 -211 -178l-12 67c84 3 108 26 108 86h-107v146z" />
    <glyph glyph-name="germandbls" unicode="&#xdf;" horiz-adv-x="1042" 
d="M659 -10c-112 0 -199 40 -246 112l84 152c35 -67 87 -103 144 -103c74 0 113 39 113 110c0 65 -39 116 -108 191l-68 75c-69 76 -109 145 -109 225c0 203 257 236 257 376c0 84 -61 128 -178 128c-130 0 -198 -67 -198 -208v-1048h-242v1038c0 250 155 386 437 386
c258 0 400 -107 400 -276c0 -196 -251 -230 -251 -367c0 -55 26 -92 96 -167l69 -73c68 -74 129 -157 129 -281c0 -174 -115 -270 -329 -270z" />
    <glyph glyph-name="tbar" unicode="&#x167;" horiz-adv-x="756" 
d="M557 169c45 0 101 12 154 35l-14 -178c-55 -29 -140 -49 -220 -49c-190 0 -288 96 -288 302v217h-148v159h148v218h-148v177h148v238l244 73v-311h275v-177h-275v-218h270v-159h-270v-188c0 -100 41 -139 124 -139z" />
    <glyph glyph-name="tcaron" unicode="&#x165;" horiz-adv-x="756" 
d="M501 1400h204v-121c0 -122 -51 -170 -193 -178l-12 67c78 3 99 26 99 86h-98v146zM477 -23c-190 0 -288 96 -288 302v594h-148v177h148v238l244 73v-311h275v-177h-275v-565c0 -100 41 -139 124 -139c45 0 101 12 154 35l-14 -178c-55 -29 -140 -49 -220 -49z" />
    <glyph glyph-name="uni0163" unicode="&#x163;" horiz-adv-x="756" 
d="M697 26c-45 -24 -111 -42 -178 -47l-7 -57c113 -14 173 -59 173 -145c0 -95 -75 -152 -198 -152c-61 0 -121 17 -175 45l22 122c43 -27 93 -42 140 -42c49 0 79 20 79 52c0 48 -82 64 -192 66l17 120c-125 30 -189 125 -189 291v594h-148v177h148v238l244 73v-311h275
v-177h-275v-565c0 -100 41 -139 124 -139c45 0 101 12 154 35z" />
    <glyph glyph-name="uni021B" unicode="&#x21b;" horiz-adv-x="756" 
d="M477 -23c-190 0 -288 96 -288 302v594h-148v177h148v238l244 73v-311h275v-177h-275v-565c0 -100 41 -139 124 -139c45 0 101 12 154 35l-14 -178c-55 -29 -140 -49 -220 -49zM341 -90h222v-121c0 -127 -46 -170 -211 -178l-12 67c84 3 108 26 108 86h-107v146z" />
    <glyph glyph-name="uacute" unicode="&#xfa;" horiz-adv-x="1059" 
d="M591 1400h242l-214 -256h-186zM951 1050v-1050h-244c2 75 16 145 56 268l-21 8c-80 -205 -198 -294 -360 -294c-184 0 -278 99 -278 288v780h243v-730c0 -107 48 -165 136 -165c134 0 224 146 224 363v532h244z" />
    <glyph glyph-name="ubreve" unicode="&#x16d;" horiz-adv-x="1059" 
d="M634 1401h163c-7 -174 -88 -255 -270 -255c-183 0 -264 81 -271 255h163c6 -86 33 -122 108 -122c74 0 102 36 107 122zM951 1050v-1050h-244c2 75 16 145 56 268l-21 8c-80 -205 -198 -294 -360 -294c-184 0 -278 99 -278 288v780h243v-730c0 -107 48 -165 136 -165
c134 0 224 146 224 363v532h244z" />
    <glyph glyph-name="ucircumflex" unicode="&#xfb;" horiz-adv-x="1059" 
d="M216 1144l202 256h218l202 -256h-186l-125 127l-125 -127h-186zM951 1050v-1050h-244c2 75 16 145 56 268l-21 8c-80 -205 -198 -294 -360 -294c-184 0 -278 99 -278 288v780h243v-730c0 -107 48 -165 136 -165c134 0 224 146 224 363v532h244z" />
    <glyph glyph-name="udieresis" unicode="&#xfc;" horiz-adv-x="1059" 
d="M225 1178v206h235v-206h-235zM594 1178v206h234v-206h-234zM951 1050v-1050h-244c2 75 16 145 56 268l-21 8c-80 -205 -198 -294 -360 -294c-184 0 -278 99 -278 288v780h243v-730c0 -107 48 -165 136 -165c134 0 224 146 224 363v532h244z" />
    <glyph glyph-name="ugrave" unicode="&#xf9;" horiz-adv-x="1059" 
d="M462 1400l158 -256h-186l-214 256h242zM951 1050v-1050h-244c2 75 16 145 56 268l-21 8c-80 -205 -198 -294 -360 -294c-184 0 -278 99 -278 288v780h243v-730c0 -107 48 -165 136 -165c134 0 224 146 224 363v532h244z" />
    <glyph glyph-name="uhungarumlaut" unicode="&#x171;" horiz-adv-x="1059" 
d="M426 1400h242l-214 -256h-186zM753 1400h242l-214 -256h-186zM951 1050v-1050h-244c2 75 16 145 56 268l-21 8c-80 -205 -198 -294 -360 -294c-184 0 -278 99 -278 288v780h243v-730c0 -107 48 -165 136 -165c134 0 224 146 224 363v532h244z" />
    <glyph glyph-name="umacron" unicode="&#x16b;" horiz-adv-x="1059" 
d="M240 1182v152h572v-152h-572zM951 1050v-1050h-244c2 75 16 145 56 268l-21 8c-80 -205 -198 -294 -360 -294c-184 0 -278 99 -278 288v780h243v-730c0 -107 48 -165 136 -165c134 0 224 146 224 363v532h244z" />
    <glyph glyph-name="uogonek" unicode="&#x173;" horiz-adv-x="1059" 
d="M707 1050h244v-1050h-1c-96 -31 -150 -74 -150 -119c0 -30 24 -45 66 -45c21 0 47 4 72 11l-31 -156c-31 -11 -68 -17 -103 -17c-117 0 -178 53 -178 139c0 75 44 138 139 187h-58c2 75 16 145 56 268l-21 8c-80 -205 -198 -294 -360 -294c-184 0 -278 99 -278 288v780
h243v-730c0 -107 48 -165 136 -165c134 0 224 146 224 363v532z" />
    <glyph glyph-name="uring" unicode="&#x16f;" horiz-adv-x="1059" 
d="M527 1136c-138 0 -232 89 -232 221c0 133 94 222 232 222s232 -89 232 -222c0 -132 -94 -221 -232 -221zM527 1263c55 0 95 39 95 94c0 56 -40 95 -95 95s-95 -39 -95 -95c0 -55 40 -94 95 -94zM951 1050v-1050h-244c2 75 16 145 56 268l-21 8
c-80 -205 -198 -294 -360 -294c-184 0 -278 99 -278 288v780h243v-730c0 -107 48 -165 136 -165c134 0 224 146 224 363v532h244z" />
    <glyph glyph-name="utilde" unicode="&#x169;" horiz-adv-x="1059" 
d="M681 1181c-113 0 -227 102 -283 102c-42 0 -58 -28 -62 -96h-133c5 158 56 242 176 242c115 0 221 -102 280 -102c40 0 55 28 58 96h133c-5 -158 -64 -242 -169 -242zM951 1050v-1050h-244c2 75 16 145 56 268l-21 8c-80 -205 -198 -294 -360 -294
c-184 0 -278 99 -278 288v780h243v-730c0 -107 48 -165 136 -165c134 0 224 146 224 363v532h244z" />
    <glyph glyph-name="wacute" unicode="&#x1e83;" horiz-adv-x="1406" 
d="M768 1400h242l-214 -256h-186zM281 0l-262 1050h249l113 -541c17 -79 29 -156 39 -252h21c11 96 24 173 41 253l112 540h227l117 -540c18 -80 31 -157 41 -253h21c10 96 21 173 38 252l108 541h241l-261 -1050h-274l-92 463c-21 110 -33 190 -48 309h-20
c-13 -119 -26 -200 -46 -309l-93 -463h-272z" />
    <glyph glyph-name="wcircumflex" unicode="&#x175;" horiz-adv-x="1406" 
d="M393 1144l202 256h218l202 -256h-186l-125 127l-125 -127h-186zM281 0l-262 1050h249l113 -541c17 -79 29 -156 39 -252h21c11 96 24 173 41 253l112 540h227l117 -540c18 -80 31 -157 41 -253h21c10 96 21 173 38 252l108 541h241l-261 -1050h-274l-92 463
c-21 110 -33 190 -48 309h-20c-13 -119 -26 -200 -46 -309l-93 -463h-272z" />
    <glyph glyph-name="wdieresis" unicode="&#x1e85;" horiz-adv-x="1406" 
d="M402 1178v206h235v-206h-235zM771 1178v206h234v-206h-234zM281 0l-262 1050h249l113 -541c17 -79 29 -156 39 -252h21c11 96 24 173 41 253l112 540h227l117 -540c18 -80 31 -157 41 -253h21c10 96 21 173 38 252l108 541h241l-261 -1050h-274l-92 463
c-21 110 -33 190 -48 309h-20c-13 -119 -26 -200 -46 -309l-93 -463h-272z" />
    <glyph glyph-name="wgrave" unicode="&#x1e81;" horiz-adv-x="1406" 
d="M639 1400l158 -256h-186l-214 256h242zM281 0l-262 1050h249l113 -541c17 -79 29 -156 39 -252h21c11 96 24 173 41 253l112 540h227l117 -540c18 -80 31 -157 41 -253h21c10 96 21 173 38 252l108 541h241l-261 -1050h-274l-92 463c-21 110 -33 190 -48 309h-20
c-13 -119 -26 -200 -46 -309l-93 -463h-272z" />
    <glyph glyph-name="yacute" unicode="&#xfd;" horiz-adv-x="947" 
d="M545 1400h242l-214 -256h-186zM71 -374l-31 208l136 13c117 11 156 41 169 91l13 50l-342 1062h251l152 -578c20 -76 37 -164 52 -269h21c15 105 32 191 52 269l148 578h238l-300 -999c-92 -312 -209 -405 -559 -425z" />
    <glyph glyph-name="ycircumflex" unicode="&#x177;" horiz-adv-x="947" 
d="M170 1144l202 256h218l202 -256h-186l-125 127l-125 -127h-186zM71 -374l-31 208l136 13c117 11 156 41 169 91l13 50l-342 1062h251l152 -578c20 -76 37 -164 52 -269h21c15 105 32 191 52 269l148 578h238l-300 -999c-92 -312 -209 -405 -559 -425z" />
    <glyph glyph-name="ydieresis" unicode="&#xff;" horiz-adv-x="947" 
d="M179 1178v206h235v-206h-235zM548 1178v206h234v-206h-234zM71 -374l-31 208l136 13c117 11 156 41 169 91l13 50l-342 1062h251l152 -578c20 -76 37 -164 52 -269h21c15 105 32 191 52 269l148 578h238l-300 -999c-92 -312 -209 -405 -559 -425z" />
    <glyph glyph-name="ygrave" unicode="&#x1ef3;" horiz-adv-x="947" 
d="M416 1400l158 -256h-186l-214 256h242zM71 -374l-31 208l136 13c117 11 156 41 169 91l13 50l-342 1062h251l152 -578c20 -76 37 -164 52 -269h21c15 105 32 191 52 269l148 578h238l-300 -999c-92 -312 -209 -405 -559 -425z" />
    <glyph glyph-name="uni1EF9" unicode="&#x1ef9;" horiz-adv-x="947" 
d="M635 1181c-113 0 -227 102 -283 102c-42 0 -58 -28 -62 -96h-133c5 158 56 242 176 242c115 0 221 -102 280 -102c40 0 55 28 58 96h133c-5 -158 -64 -242 -169 -242zM71 -374l-31 208l136 13c117 11 156 41 169 91l13 50l-342 1062h251l152 -578c20 -76 37 -164 52 -269
h21c15 105 32 191 52 269l148 578h238l-300 -999c-92 -312 -209 -405 -559 -425z" />
    <glyph glyph-name="zacute" unicode="&#x17a;" horiz-adv-x="898" 
d="M517 1400h242l-214 -256h-186zM47 0l-5 16l412 761c18 36 31 57 50 85l-6 13c-32 -2 -60 -2 -101 -2h-324v177h775l6 -16l-403 -748c-18 -35 -33 -62 -58 -97l6 -13c30 2 61 3 98 3h365v-179h-815z" />
    <glyph glyph-name="zcaron" unicode="&#x17e;" horiz-adv-x="898" 
d="M141 1400h186l125 -127l125 127h186l-202 -256h-218zM47 0l-5 16l412 761c18 36 31 57 50 85l-6 13c-32 -2 -60 -2 -101 -2h-324v177h775l6 -16l-403 -748c-18 -35 -33 -62 -58 -97l6 -13c30 2 61 3 98 3h365v-179h-815z" />
    <glyph glyph-name="zdotaccent" unicode="&#x17c;" horiz-adv-x="898" 
d="M320 1179v205h265v-205h-265zM47 0l-5 16l412 761c18 36 31 57 50 85l-6 13c-32 -2 -60 -2 -101 -2h-324v177h775l6 -16l-403 -748c-18 -35 -33 -62 -58 -97l6 -13c30 2 61 3 98 3h365v-179h-815z" />
    <glyph glyph-name="f_f" horiz-adv-x="1264" 
d="M185 0v873h-144v177h144v56c0 183 120 261 408 299l29 -187l-79 -6c-99 -7 -124 -30 -124 -112v-55h337v61c0 214 124 286 443 319l29 -187l-108 -6c-107 -6 -130 -31 -130 -117v-65h232v-177h-222v-873h-244v873h-328v-873h-243z" />
    <glyph glyph-name="f_t" horiz-adv-x="1313" 
d="M1034 -23c-190 0 -288 96 -288 302v594h-318v-873h-243v873h-144v177h144v56c0 207 120 286 398 319l29 -187l-78 -6c-90 -7 -115 -30 -115 -117v-70h327v173l244 73v-241h275v-177h-275v-565c0 -100 41 -139 124 -139c45 0 101 12 154 35l-14 -178
c-55 -29 -140 -49 -220 -49z" />
    <glyph glyph-name="t_t" horiz-adv-x="1390" 
d="M472 -23c-191 0 -283 103 -283 302v594h-148v177h148v213l244 73v-286h390v238l244 73v-311h275v-177h-275v-565c0 -100 41 -139 124 -139c45 0 101 12 154 35l-14 -178c-55 -29 -140 -49 -220 -49c-190 0 -288 96 -288 302v594h-390v-565c0 -91 37 -139 118 -139
c44 0 91 11 132 29l-14 -179c-49 -27 -119 -42 -197 -42z" />
    <glyph glyph-name="f.calt" horiz-adv-x="641" 
d="M185 0v873h-144v177h144v56c0 214 124 286 443 319l29 -187l-109 -6c-108 -6 -129 -31 -129 -117v-65h181v-177h-172v-873h-243z" />
    <glyph glyph-name="t.calt" horiz-adv-x="684" 
d="M477 -23c-190 0 -288 96 -288 302v594h-148v177h148v238l244 73v-311h211v-177h-211v-565c0 -100 41 -139 124 -139c45 0 101 12 154 35l-14 -178c-55 -29 -140 -49 -220 -49z" />
    <glyph glyph-name="tbar.calt" horiz-adv-x="684" 
d="M557 169c45 0 101 12 154 35l-14 -178c-55 -29 -140 -49 -220 -49c-190 0 -288 96 -288 302v217h-148v159h148v218h-148v177h148v238l244 73v-311h211v-177h-211v-218h227v-159h-227v-188c0 -100 41 -139 124 -139z" />
    <glyph glyph-name="tcaron.calt" horiz-adv-x="684" 
d="M501 1400h204v-121c0 -122 -51 -170 -193 -178l-12 67c78 3 99 26 99 86h-98v146zM477 -23c-190 0 -288 96 -288 302v594h-148v177h148v238l244 73v-311h211v-177h-211v-565c0 -100 41 -139 124 -139c45 0 101 12 154 35l-14 -178c-55 -29 -140 -49 -220 -49z" />
    <glyph glyph-name="uni0163.calt" horiz-adv-x="684" 
d="M697 26c-45 -24 -111 -42 -178 -47l-7 -57c113 -14 173 -59 173 -145c0 -95 -75 -152 -198 -152c-61 0 -121 17 -175 45l22 122c43 -27 93 -42 140 -42c49 0 79 20 79 52c0 48 -82 64 -192 66l17 120c-125 30 -189 125 -189 291v594h-148v177h148v238l244 73v-311h211
v-177h-211v-565c0 -100 41 -139 124 -139c45 0 101 12 154 35z" />
    <glyph glyph-name="uni021B.calt" horiz-adv-x="684" 
d="M477 -23c-190 0 -288 96 -288 302v594h-148v177h148v238l244 73v-311h211v-177h-211v-565c0 -100 41 -139 124 -139c45 0 101 12 154 35l-14 -178c-55 -29 -140 -49 -220 -49zM341 -90h222v-121c0 -127 -46 -170 -211 -178l-12 67c84 3 108 26 108 86h-107v146z" />
    <glyph glyph-name="zero.slashed" horiz-adv-x="1207" 
d="M604 1425c345 0 523 -248 523 -723v-4c0 -476 -178 -723 -523 -723c-346 0 -524 247 -524 723v4c0 475 178 723 524 723zM333 751v-102v-16l529 299c-29 203 -115 300 -258 300c-183 0 -271 -155 -271 -481zM874 649v102v16l-530 -299c30 -203 115 -300 260 -300
c181 0 270 155 270 481z" />
    <glyph glyph-name="zero" unicode="0" horiz-adv-x="1207" 
d="M604 -25c-346 0 -524 247 -524 723v4c0 475 178 723 524 723c345 0 523 -248 523 -723v-4c0 -476 -178 -723 -523 -723zM604 168c181 0 270 155 270 481v102c0 326 -89 481 -270 481c-183 0 -271 -155 -271 -481v-102c0 -326 88 -481 271 -481z" />
    <glyph glyph-name="one" unicode="1" horiz-adv-x="739" 
d="M370 0v964h-328v160c320 10 351 27 369 276h207v-1400h-248z" />
    <glyph glyph-name="two" unicode="2" horiz-adv-x="1055" 
d="M69 0v166c427 290 653 551 653 838c0 156 -61 229 -187 229c-159 0 -229 -124 -213 -370l-239 37c-18 346 135 525 462 525c275 0 424 -133 424 -401c0 -319 -202 -590 -564 -817l3 -13c58 4 115 6 179 6h393v-200h-911z" />
    <glyph glyph-name="three" unicode="3" horiz-adv-x="1114" 
d="M570 -25c-323 0 -496 156 -507 470l249 40c0 -221 85 -326 254 -326c142 0 221 81 221 241v4c0 166 -87 234 -220 240l-133 5v154l128 4c128 4 200 75 200 215v4c0 145 -74 216 -206 216c-156 0 -234 -98 -232 -305l-238 36c2 302 164 452 477 452
c286 0 441 -125 441 -364v-4c0 -168 -76 -273 -229 -317v-17c180 -42 269 -156 269 -346v-4c0 -259 -166 -398 -474 -398z" />
    <glyph glyph-name="four" unicode="4" horiz-adv-x="1100" 
d="M641 0v321h-594v144l498 935h344v-906h165v-173h-165v-321h-248zM294 494h347v446c0 79 2 155 7 225l-20 2c-24 -62 -57 -131 -93 -204z" />
    <glyph glyph-name="five" unicode="5" horiz-adv-x="1111" 
d="M565 -25c-310 0 -473 118 -496 362l249 41c16 -146 95 -215 238 -215c163 0 240 91 240 285v4c0 189 -75 281 -230 281c-119 0 -200 -51 -246 -153l-224 13l36 807h859v-200h-625l-22 -380c71 56 167 86 279 86c281 0 426 -157 426 -454v-4c0 -311 -163 -473 -484 -473z
" />
    <glyph glyph-name="six" unicode="6" horiz-adv-x="1142" 
d="M586 1425c273 0 433 -139 464 -411l-250 -45c-12 173 -91 264 -221 264c-165 0 -255 -146 -255 -491v-2c82 81 193 128 329 128c265 0 406 -156 406 -442v-3c0 -295 -166 -448 -482 -448c-336 0 -497 205 -497 617v75c0 515 164 758 506 758zM575 694
c-158 0 -234 -84 -234 -249v-2c0 -173 86 -274 240 -274c153 0 229 82 229 258v2c0 175 -76 265 -235 265z" />
    <glyph glyph-name="seven" unicode="7" horiz-adv-x="972" 
d="M345 0c7 558 116 949 327 1201h-630v200h889v-161c-223 -262 -336 -666 -337 -1240h-249z" />
    <glyph glyph-name="eight" unicode="8" horiz-adv-x="1159" 
d="M579 -25c-335 0 -509 137 -509 400v4c0 180 91 298 264 345v17c-147 48 -224 154 -224 309v4c0 244 160 371 469 371c310 0 470 -127 470 -371v-4c0 -155 -78 -261 -224 -309v-17c173 -47 264 -165 264 -345v-4c0 -263 -174 -400 -510 -400zM579 811
c155 0 229 70 229 216v4c0 146 -74 217 -229 217c-154 0 -229 -71 -229 -217v-4c0 -146 75 -216 229 -216zM579 153c172 0 255 78 255 240v4c0 163 -83 242 -255 242c-171 0 -254 -79 -254 -242v-4c0 -162 83 -240 254 -240z" />
    <glyph glyph-name="nine" unicode="9" horiz-adv-x="1142" 
d="M556 -25c-274 0 -433 139 -464 411l249 45c13 -173 91 -264 222 -264c165 0 254 146 254 491v2c-81 -81 -192 -128 -328 -128c-266 0 -406 156 -406 442v3c0 295 166 448 482 448c336 0 497 -205 497 -617v-75c0 -515 -164 -758 -506 -758zM566 706c159 0 234 84 234 249
v2c0 173 -86 274 -239 274s-229 -82 -229 -258v-2c0 -175 76 -265 234 -265z" />
    <glyph glyph-name="zero.tf.slashed" horiz-adv-x="1100" 
d="M550 1423c324 0 480 -216 480 -664v-119c0 -448 -156 -664 -480 -664c-323 0 -480 216 -480 664v119c0 448 157 664 480 664zM550 1251c-176 0 -252 -135 -252 -452v-156l499 282c-19 227 -96 326 -247 326zM550 149c176 0 252 135 252 452v156l-499 -282
c19 -227 96 -326 247 -326z" />
    <glyph glyph-name="zero.tf" horiz-adv-x="1100" 
d="M550 -24c-323 0 -480 216 -480 664v119c0 448 157 664 480 664c324 0 480 -216 480 -664v-119c0 -448 -156 -664 -480 -664zM550 149c176 0 252 135 252 452v198c0 317 -76 452 -252 452s-252 -135 -252 -452v-198c0 -317 76 -452 252 -452z" />
    <glyph glyph-name="one.tf" horiz-adv-x="1100" 
d="M86 0v179h389v782h-362v144c353 10 384 27 401 295h185v-1221h330v-179h-943z" />
    <glyph glyph-name="two.tf" horiz-adv-x="1100" 
d="M113 0v148c418 314 636 594 636 881c0 154 -61 223 -188 223c-158 0 -229 -105 -219 -379l-216 36c-8 355 142 514 439 514c264 0 406 -123 406 -385c0 -314 -190 -587 -554 -851l3 -13c53 4 106 5 163 5h402v-179h-872z" />
    <glyph glyph-name="three.tf" horiz-adv-x="1100" 
d="M573 -23c-315 0 -482 147 -497 482l227 39c4 -246 88 -356 268 -356c150 0 222 80 222 245v44c0 154 -89 215 -228 220l-139 5v145l135 4c135 4 209 67 209 196v37c0 149 -72 221 -212 221c-163 0 -240 -107 -242 -339l-217 36c7 322 165 467 464 467
c280 0 425 -128 425 -374v-19c0 -150 -76 -247 -221 -288v-17c170 -39 257 -148 257 -321v-23c0 -265 -154 -404 -451 -404z" />
    <glyph glyph-name="four.tf" horiz-adv-x="1100" 
d="M650 0v316h-593v129l495 955h321v-928h155v-156h-155v-316h-223zM283 472h367v462c0 77 2 156 6 242l-22 1c-23 -73 -53 -148 -90 -224z" />
    <glyph glyph-name="five.tf" horiz-adv-x="1100" 
d="M559 -23c-306 0 -459 119 -482 382l224 39c11 -170 94 -252 257 -252c159 0 237 88 237 284v42c0 193 -78 280 -238 280c-123 0 -207 -54 -255 -162l-201 13l37 797h831v-180h-619l-24 -405c70 62 167 96 292 96c261 0 404 -145 404 -424v-63c0 -295 -158 -447 -463 -447
z" />
    <glyph glyph-name="six.tf" horiz-adv-x="1100" 
d="M566 1424c264 0 427 -132 450 -411l-225 -42c-8 193 -94 281 -231 281c-166 0 -264 -152 -264 -463v-39c72 77 183 119 322 119c259 0 396 -144 396 -428v-22c0 -294 -159 -442 -461 -442c-317 0 -477 191 -477 573v168c0 471 166 706 490 706zM548 710
c-161 0 -239 -75 -239 -254v-22c0 -187 90 -285 246 -285c157 0 235 80 235 270v22c0 189 -79 269 -242 269z" />
    <glyph glyph-name="seven.tf" horiz-adv-x="1100" 
d="M395 0c7 551 145 951 366 1210h-673v191h924v-152c-236 -271 -377 -678 -378 -1249h-239z" />
    <glyph glyph-name="eight.tf" horiz-adv-x="1100" 
d="M550 -23c-322 0 -490 134 -490 392v15c0 182 89 299 258 340v17c-145 48 -222 152 -222 304v12c0 241 156 366 454 366s454 -125 454 -366v-12c0 -152 -77 -256 -222 -304v-17c169 -41 258 -158 258 -340v-15c0 -258 -168 -392 -490 -392zM550 805c159 0 237 72 237 220
v19c0 148 -78 218 -237 218s-237 -70 -237 -218v-19c0 -148 78 -220 237 -220zM550 138c176 0 260 79 260 242v25c0 164 -84 243 -260 243s-260 -79 -260 -243v-25c0 -163 84 -242 260 -242z" />
    <glyph glyph-name="nine.tf" horiz-adv-x="1100" 
d="M534 -24c-264 0 -427 132 -450 411l225 42c8 -193 94 -281 231 -281c166 0 264 152 264 463v39c-72 -77 -183 -119 -322 -119c-259 0 -396 144 -396 428v22c0 294 159 442 461 442c317 0 477 -191 477 -573v-168c0 -471 -166 -706 -490 -706zM552 690
c161 0 239 75 239 254v22c0 187 -90 285 -246 285c-157 0 -235 -80 -235 -270v-22c0 -189 79 -269 242 -269z" />
    <glyph glyph-name="uni24EA" unicode="&#x24ea;" horiz-adv-x="1600" 
d="M800 -20c-397 0 -720 320 -720 720c0 399 323 720 720 720c398 0 720 -321 720 -720c0 -400 -322 -720 -720 -720zM800 60c354 0 640 284 640 640c0 355 -286 640 -640 640c-353 0 -640 -285 -640 -640c0 -356 287 -640 640 -640zM800 252c-226 0 -337 135 -337 411v73
c0 277 111 411 337 411s337 -134 337 -411v-73c0 -276 -110 -411 -337 -411zM800 399c103 0 137 83 137 234v134c0 151 -34 234 -137 234s-137 -83 -137 -234v-134c0 -151 34 -234 137 -234z" />
    <glyph glyph-name="uni2460" unicode="&#x2460;" horiz-adv-x="1600" 
d="M800 -20c-397 0 -720 320 -720 720c0 399 323 720 720 720c398 0 720 -321 720 -720c0 -400 -322 -720 -720 -720zM800 60c354 0 640 284 640 640c0 355 -286 640 -640 640c-353 0 -640 -285 -640 -640c0 -356 287 -640 640 -640zM477 283v154h252v412h-234v127
c229 6 253 19 265 171h166v-710h196v-154h-645z" />
    <glyph glyph-name="uni2461" unicode="&#x2461;" horiz-adv-x="1600" 
d="M800 -20c-397 0 -720 320 -720 720c0 399 323 720 720 720c398 0 720 -321 720 -720c0 -400 -322 -720 -720 -720zM800 60c354 0 640 284 640 640c0 355 -286 640 -640 640c-353 0 -640 -285 -640 -640c0 -356 287 -640 640 -640zM492 269v129c271 178 413 334 413 492
c0 79 -32 113 -101 113c-89 0 -122 -66 -114 -205l-194 21c-12 220 88 329 314 329c192 0 294 -80 294 -246c0 -192 -120 -339 -345 -475l2 -8c35 2 68 3 103 3h241v-153h-613z" />
    <glyph glyph-name="uni2462" unicode="&#x2462;" horiz-adv-x="1600" 
d="M800 -20c-397 0 -720 320 -720 720c0 399 323 720 720 720c398 0 720 -321 720 -720c0 -400 -322 -720 -720 -720zM800 60c354 0 640 284 640 640c0 355 -286 640 -640 640c-353 0 -640 -285 -640 -640c0 -356 287 -640 640 -640zM806 252c-217 0 -333 103 -336 301
l198 23c1 -125 47 -186 141 -186c78 0 117 42 117 131v9c0 82 -45 119 -123 122l-77 3v119l76 2c75 3 112 40 112 107v5c0 82 -37 121 -113 121c-89 0 -127 -59 -125 -173l-192 21c-1 190 110 290 320 290c198 0 304 -83 304 -235v-7c0 -96 -49 -156 -139 -180v-12
c105 -24 161 -92 161 -204v-11c0 -154 -115 -246 -324 -246z" />
    <glyph glyph-name="uni2463" unicode="&#x2463;" horiz-adv-x="1600" 
d="M800 -20c-397 0 -720 320 -720 720c0 399 323 720 720 720c398 0 720 -321 720 -720c0 -400 -322 -720 -720 -720zM800 60c354 0 640 284 640 640c0 355 -286 640 -640 640c-353 0 -640 -285 -640 -640c0 -356 287 -640 640 -640zM806 268v167h-381v118l302 579h277v-559
h89v-138h-89v-167h-198zM611 573h195v238c0 42 2 93 5 146l-14 1c-15 -50 -30 -89 -51 -131z" />
    <glyph glyph-name="uni2464" unicode="&#x2464;" horiz-adv-x="1600" 
d="M800 -20c-397 0 -720 320 -720 720c0 399 323 720 720 720c398 0 720 -321 720 -720c0 -400 -322 -720 -720 -720zM800 60c354 0 640 284 640 640c0 355 -286 640 -640 640c-353 0 -640 -285 -640 -640c0 -356 287 -640 640 -640zM807 251c-220 0 -330 80 -337 244
l198 22c6 -86 49 -126 132 -126c89 0 127 48 127 150v8c0 100 -36 149 -125 149c-68 0 -110 -28 -132 -87l-189 9l22 511h596v-151h-411l-11 -198c50 31 106 47 177 47c195 0 276 -104 276 -271v-8c0 -190 -93 -299 -323 -299z" />
    <glyph glyph-name="uni2465" unicode="&#x2465;" horiz-adv-x="1600" 
d="M800 -20c-397 0 -720 320 -720 720c0 399 323 720 720 720c398 0 720 -321 720 -720c0 -400 -322 -720 -720 -720zM800 60c354 0 640 284 640 640c0 355 -286 640 -640 640c-353 0 -640 -285 -640 -640c0 -356 287 -640 640 -640zM808 1148c197 0 304 -89 319 -262
l-199 -22c-6 95 -50 142 -126 142c-96 0 -145 -84 -145 -241v-21c54 44 125 70 209 70c171 0 266 -98 266 -273v-10c0 -179 -116 -279 -328 -279c-240 0 -340 140 -340 379v80c0 278 103 437 344 437zM803 685c-90 0 -131 -45 -131 -135v-6c0 -95 47 -149 133 -149
c87 0 133 49 133 141v6c0 96 -45 143 -135 143z" />
    <glyph glyph-name="uni2466" unicode="&#x2466;" horiz-adv-x="1600" 
d="M800 -20c-397 0 -720 320 -720 720c0 399 323 720 720 720c398 0 720 -321 720 -720c0 -400 -322 -720 -720 -720zM800 60c354 0 640 284 640 640c0 355 -286 640 -640 640c-353 0 -640 -285 -640 -640c0 -356 287 -640 640 -640zM674 268c9 322 89 550 233 703h-434v161
h648v-128c-156 -166 -235 -401 -242 -736h-205z" />
    <glyph glyph-name="uni2467" unicode="&#x2467;" horiz-adv-x="1600" 
d="M800 -20c-397 0 -720 320 -720 720c0 399 323 720 720 720c398 0 720 -321 720 -720c0 -400 -322 -720 -720 -720zM800 60c354 0 640 284 640 640c0 355 -286 640 -640 640c-353 0 -640 -285 -640 -640c0 -356 287 -640 640 -640zM800 252c-241 0 -341 94 -341 248v9
c0 108 54 178 161 203v13c-90 27 -138 88 -138 183v8c0 146 96 231 318 231c226 0 318 -88 318 -231v-8c0 -93 -47 -155 -139 -183v-13c109 -25 161 -96 161 -203v-9c0 -153 -98 -248 -340 -248zM800 777c86 0 127 37 127 116v5c0 78 -41 114 -127 114s-128 -35 -128 -114
v-5c0 -79 42 -116 128 -116zM800 388c94 0 139 39 139 126v7c0 87 -45 127 -139 127c-95 0 -139 -40 -139 -127v-7c0 -86 44 -126 139 -126z" />
    <glyph glyph-name="uni2468" unicode="&#x2468;" horiz-adv-x="1600" 
d="M800 -20c-397 0 -720 320 -720 720c0 399 323 720 720 720c398 0 720 -321 720 -720c0 -400 -322 -720 -720 -720zM800 60c354 0 640 284 640 640c0 355 -286 640 -640 640c-353 0 -640 -285 -640 -640c0 -356 287 -640 640 -640zM792 252c-197 0 -304 89 -319 261
l199 23c6 -95 50 -142 126 -142c96 0 145 84 145 240v22c-54 -44 -125 -70 -209 -70c-171 0 -266 98 -266 273v10c0 179 116 278 328 278c240 0 340 -139 340 -378v-80c0 -278 -103 -437 -344 -437zM797 714c90 0 131 46 131 136v6c0 95 -47 148 -133 148
c-87 0 -133 -49 -133 -140v-7c0 -95 45 -143 135 -143z" />
    <glyph glyph-name="uni24FF" unicode="&#x24ff;" horiz-adv-x="1600" 
d="M800 -20c398 0 720 320 720 720c0 399 -322 720 -720 720c-397 0 -720 -321 -720 -720c0 -400 323 -720 720 -720zM800 252c-226 0 -337 135 -337 411v73c0 277 111 411 337 411s337 -134 337 -411v-73c0 -276 -110 -411 -337 -411zM800 399c103 0 137 83 137 234v134
c0 151 -34 234 -137 234s-137 -83 -137 -234v-134c0 -151 34 -234 137 -234z" />
    <glyph glyph-name="uni2776" unicode="&#x2776;" horiz-adv-x="1600" 
d="M800 -20c398 0 720 320 720 720c0 399 -322 720 -720 720c-397 0 -720 -321 -720 -720c0 -400 323 -720 720 -720zM477 283v154h252v412h-234v127c229 6 253 19 265 171h166v-710h196v-154h-645z" />
    <glyph glyph-name="uni2777" unicode="&#x2777;" horiz-adv-x="1600" 
d="M800 -20c398 0 720 320 720 720c0 399 -322 720 -720 720c-397 0 -720 -321 -720 -720c0 -400 323 -720 720 -720zM491 269v129c272 177 414 334 414 492c0 79 -32 113 -101 113c-89 0 -122 -66 -114 -205l-194 21c-12 220 88 329 313 329c193 0 294 -80 294 -246
c0 -192 -120 -339 -345 -475l2 -9c36 3 69 4 104 4h241v-153h-614z" />
    <glyph glyph-name="uni2778" unicode="&#x2778;" horiz-adv-x="1600" 
d="M800 -20c398 0 720 320 720 720c0 399 -322 720 -720 720c-397 0 -720 -321 -720 -720c0 -400 323 -720 720 -720zM806 252c-217 0 -334 103 -336 301l198 23c1 -125 47 -186 141 -186c77 0 117 42 117 131v9c0 82 -45 119 -123 122l-77 3v119l75 2c76 3 113 40 113 107
v4c0 82 -37 122 -113 122c-89 0 -128 -59 -125 -173l-192 21c-1 190 110 290 320 290c198 0 303 -84 303 -236v-6c0 -96 -49 -156 -138 -180v-12c104 -24 160 -92 160 -205v-10c0 -154 -115 -246 -323 -246z" />
    <glyph glyph-name="uni2779" unicode="&#x2779;" horiz-adv-x="1600" 
d="M800 -20c398 0 720 320 720 720c0 399 -322 720 -720 720c-397 0 -720 -321 -720 -720c0 -400 323 -720 720 -720zM807 268v167h-382v118l302 579h278v-559h88v-138h-88v-167h-198zM611 573h196v238c0 42 2 93 4 146l-13 1c-16 -50 -31 -89 -51 -131z" />
    <glyph glyph-name="uni277A" unicode="&#x277a;" horiz-adv-x="1600" 
d="M800 -20c398 0 720 320 720 720c0 399 -322 720 -720 720c-397 0 -720 -321 -720 -720c0 -400 323 -720 720 -720zM807 251c-219 0 -330 80 -337 244l198 21c6 -86 50 -126 132 -126c90 0 128 49 128 150v9c0 99 -37 149 -125 149c-69 0 -111 -29 -133 -87l-189 9l22 510
h597v-150h-412l-11 -199c50 32 106 48 177 48c196 0 276 -104 276 -271v-8c0 -190 -93 -299 -323 -299z" />
    <glyph glyph-name="uni277B" unicode="&#x277b;" horiz-adv-x="1600" 
d="M800 -20c398 0 720 320 720 720c0 399 -322 720 -720 720c-397 0 -720 -321 -720 -720c0 -400 323 -720 720 -720zM808 1147c197 0 304 -89 319 -261l-199 -23c-6 95 -51 143 -126 143c-97 0 -146 -85 -146 -241v-21c55 44 125 70 210 70c170 0 265 -98 265 -274v-9
c0 -179 -116 -279 -328 -279c-239 0 -339 140 -339 379v80c0 277 103 436 344 436zM802 685c-89 0 -130 -45 -130 -135v-6c0 -95 47 -149 133 -149c87 0 133 49 133 141v6c0 96 -46 143 -136 143z" />
    <glyph glyph-name="uni277C" unicode="&#x277c;" horiz-adv-x="1600" 
d="M800 -20c398 0 720 320 720 720c0 399 -322 720 -720 720c-397 0 -720 -321 -720 -720c0 -400 323 -720 720 -720zM674 268c9 322 89 550 233 703h-434v161h648v-128c-156 -166 -235 -401 -242 -736h-205z" />
    <glyph glyph-name="uni277D" unicode="&#x277d;" horiz-adv-x="1600" 
d="M800 -20c398 0 720 320 720 720c0 399 -322 720 -720 720c-397 0 -720 -321 -720 -720c0 -400 323 -720 720 -720zM800 252c-241 0 -340 94 -340 247v9c0 108 53 178 161 203v13c-91 28 -138 89 -138 184v8c0 146 95 231 317 231c226 0 318 -89 318 -231v-8
c0 -93 -46 -156 -139 -184v-13c109 -25 161 -96 161 -203v-9c0 -153 -97 -247 -340 -247zM800 776c87 0 127 38 127 117v4c0 79 -40 114 -127 114c-86 0 -127 -35 -127 -114v-4c0 -79 41 -117 127 -117zM800 387c95 0 139 39 139 126v7c0 87 -44 128 -139 128
s-138 -41 -138 -128v-7c0 -86 43 -126 138 -126z" />
    <glyph glyph-name="uni277E" unicode="&#x277e;" horiz-adv-x="1600" 
d="M800 -20c398 0 720 320 720 720c0 399 -322 720 -720 720c-397 0 -720 -321 -720 -720c0 -400 323 -720 720 -720zM792 252c-197 0 -304 89 -319 261l199 23c6 -95 51 -142 126 -142c97 0 146 84 146 240v22c-55 -44 -125 -70 -210 -70c-170 0 -265 98 -265 273v10
c0 179 116 278 328 278c239 0 339 -139 339 -379v-79c0 -278 -103 -437 -344 -437zM798 714c89 0 130 45 130 136v6c0 94 -47 148 -133 148c-87 0 -133 -49 -133 -141v-6c0 -95 46 -143 136 -143z" />
    <glyph glyph-name="zero.dnom" horiz-adv-x="770" 
d="M385 -17c-226 0 -337 135 -337 411v73c0 277 111 411 337 411s337 -134 337 -411v-73c0 -276 -110 -411 -337 -411zM385 130c103 0 137 83 137 234v134c0 151 -34 234 -137 234s-137 -83 -137 -234v-134c0 -151 34 -234 137 -234z" />
    <glyph glyph-name="one.dnom" horiz-adv-x="770" 
d="M62 0v154h252v412h-234v127c229 6 253 19 265 171h166v-710h196v-154h-645z" />
    <glyph glyph-name="two.dnom" horiz-adv-x="770" 
d="M77 0v129c271 178 413 334 413 492c0 79 -32 113 -101 113c-89 0 -122 -66 -114 -205l-194 21c-12 220 88 329 314 329c192 0 294 -80 294 -246c0 -192 -120 -339 -345 -475l2 -8c35 2 68 3 103 3h241v-153h-613z" />
    <glyph glyph-name="three.dnom" horiz-adv-x="770" 
d="M391 -17c-217 0 -333 103 -336 301l198 23c1 -125 47 -186 141 -186c78 0 117 42 117 131v9c0 82 -45 119 -123 122l-77 3v119l76 2c75 3 112 40 112 107v5c0 82 -37 121 -113 121c-89 0 -127 -59 -125 -173l-192 21c-1 190 110 290 320 290c198 0 304 -83 304 -235v-7
c0 -96 -49 -156 -139 -180v-12c105 -24 161 -92 161 -204v-11c0 -154 -115 -246 -324 -246z" />
    <glyph glyph-name="four.dnom" horiz-adv-x="770" 
d="M417 0v167h-381v118l302 579h277v-559h89v-138h-89v-167h-198zM222 305h195v238c0 42 2 93 5 146l-14 1c-15 -50 -30 -89 -51 -131z" />
    <glyph glyph-name="five.dnom" horiz-adv-x="770" 
d="M393 -17c-220 0 -330 80 -337 244l198 22c6 -86 49 -126 132 -126c89 0 127 48 127 150v8c0 100 -36 149 -125 149c-68 0 -110 -28 -132 -87l-189 9l22 511h596v-151h-411l-11 -198c50 31 106 47 177 47c195 0 276 -104 276 -271v-8c0 -190 -93 -299 -323 -299z" />
    <glyph glyph-name="six.dnom" horiz-adv-x="770" 
d="M393 884c197 0 304 -89 319 -261l-199 -23c-6 95 -50 142 -126 142c-96 0 -145 -84 -145 -240v-22c54 44 125 70 209 70c171 0 266 -98 266 -273v-10c0 -179 -116 -278 -328 -278c-240 0 -339 139 -339 379v79c0 278 102 437 343 437zM388 422c-90 0 -131 -46 -131 -136
v-6c0 -95 47 -148 133 -148c87 0 133 49 133 140v7c0 95 -45 143 -135 143z" />
    <glyph glyph-name="seven.dnom" horiz-adv-x="770" 
d="M262 0c9 322 89 550 233 703h-434v161h648v-128c-156 -166 -235 -401 -242 -736h-205z" />
    <glyph glyph-name="eight.dnom" horiz-adv-x="770" 
d="M385 -17c-241 0 -341 94 -341 248v9c0 108 54 178 161 203v13c-90 27 -138 88 -138 183v8c0 146 96 231 318 231c226 0 318 -88 318 -231v-8c0 -93 -47 -155 -139 -183v-13c109 -25 161 -96 161 -203v-9c0 -153 -98 -248 -340 -248zM385 508c86 0 127 37 127 116v5
c0 78 -41 114 -127 114s-128 -35 -128 -114v-5c0 -79 42 -116 128 -116zM385 119c94 0 139 39 139 126v7c0 87 -45 127 -139 127c-95 0 -139 -40 -139 -127v-7c0 -86 44 -126 139 -126z" />
    <glyph glyph-name="nine.dnom" horiz-adv-x="770" 
d="M377 -17c-197 0 -304 89 -319 261l199 23c6 -95 50 -142 126 -142c96 0 145 84 145 240v22c-54 -44 -125 -70 -209 -70c-171 0 -266 98 -266 273v10c0 179 116 278 328 278c240 0 340 -139 340 -378v-80c0 -278 -103 -437 -344 -437zM382 445c90 0 131 46 131 136v6
c0 95 -47 148 -133 148c-87 0 -133 -49 -133 -140v-7c0 -95 45 -143 135 -143z" />
    <glyph glyph-name="zero.numr" horiz-adv-x="770" 
d="M385 519c-226 0 -337 135 -337 411v73c0 277 111 411 337 411s337 -134 337 -411v-73c0 -276 -110 -411 -337 -411zM385 666c103 0 137 83 137 234v134c0 151 -34 234 -137 234s-137 -83 -137 -234v-134c0 -151 34 -234 137 -234z" />
    <glyph glyph-name="one.numr" horiz-adv-x="770" 
d="M62 536v154h252v412h-234v127c229 6 253 19 265 171h166v-710h196v-154h-645z" />
    <glyph glyph-name="two.numr" horiz-adv-x="770" 
d="M77 536v129c271 178 413 334 413 492c0 79 -32 113 -101 113c-89 0 -122 -66 -114 -205l-194 21c-12 220 88 329 314 329c192 0 294 -80 294 -246c0 -192 -120 -339 -345 -475l2 -8c35 2 68 3 103 3h241v-153h-613z" />
    <glyph glyph-name="three.numr" horiz-adv-x="770" 
d="M391 519c-217 0 -333 103 -336 301l198 23c1 -125 47 -186 141 -186c78 0 117 42 117 131v9c0 82 -45 119 -123 122l-77 3v119l76 2c75 3 112 40 112 107v5c0 82 -37 121 -113 121c-89 0 -127 -59 -125 -173l-192 21c-1 190 110 290 320 290c198 0 304 -83 304 -235v-7
c0 -96 -49 -156 -139 -180v-12c105 -24 161 -92 161 -204v-11c0 -154 -115 -246 -324 -246z" />
    <glyph glyph-name="four.numr" horiz-adv-x="770" 
d="M417 536v167h-381v118l302 579h277v-559h89v-138h-89v-167h-198zM222 841h195v238c0 42 2 93 5 146l-14 1c-15 -50 -30 -89 -51 -131z" />
    <glyph glyph-name="five.numr" horiz-adv-x="770" 
d="M393 519c-220 0 -330 80 -337 244l198 22c6 -86 49 -126 132 -126c89 0 127 48 127 150v8c0 100 -36 149 -125 149c-68 0 -110 -28 -132 -87l-189 9l22 511h596v-151h-411l-11 -198c50 31 106 47 177 47c195 0 276 -104 276 -271v-8c0 -190 -93 -299 -323 -299z" />
    <glyph glyph-name="six.numr" horiz-adv-x="770" 
d="M393 1420c197 0 304 -89 319 -261l-199 -23c-6 95 -50 142 -126 142c-96 0 -145 -84 -145 -240v-22c54 44 125 70 209 70c171 0 266 -98 266 -273v-10c0 -179 -116 -278 -328 -278c-240 0 -339 139 -339 379v79c0 278 102 437 343 437zM388 958c-90 0 -131 -46 -131 -136
v-6c0 -95 47 -148 133 -148c87 0 133 49 133 140v7c0 95 -45 143 -135 143z" />
    <glyph glyph-name="seven.numr" horiz-adv-x="770" 
d="M262 536c9 322 89 550 233 703h-434v161h648v-128c-156 -166 -235 -401 -242 -736h-205z" />
    <glyph glyph-name="eight.numr" horiz-adv-x="770" 
d="M385 519c-241 0 -341 94 -341 248v9c0 108 54 178 161 203v13c-90 27 -138 88 -138 183v8c0 146 96 231 318 231c226 0 318 -88 318 -231v-8c0 -93 -47 -155 -139 -183v-13c109 -25 161 -96 161 -203v-9c0 -153 -98 -248 -340 -248zM385 1044c86 0 127 37 127 116v5
c0 78 -41 114 -127 114s-128 -35 -128 -114v-5c0 -79 42 -116 128 -116zM385 655c94 0 139 39 139 126v7c0 87 -45 127 -139 127c-95 0 -139 -40 -139 -127v-7c0 -86 44 -126 139 -126z" />
    <glyph glyph-name="nine.numr" horiz-adv-x="770" 
d="M377 519c-197 0 -304 89 -319 261l199 23c6 -95 50 -142 126 -142c96 0 145 84 145 240v22c-54 -44 -125 -70 -209 -70c-171 0 -266 98 -266 273v10c0 179 116 278 328 278c240 0 340 -139 340 -378v-80c0 -278 -103 -437 -344 -437zM382 981c90 0 131 46 131 136v6
c0 95 -47 148 -133 148c-87 0 -133 -49 -133 -140v-7c0 -95 45 -143 135 -143z" />
    <glyph glyph-name="fraction" unicode="&#x2044;" horiz-adv-x="435" 
d="M-288 0l804 1400h206l-803 -1400h-207z" />
    <glyph glyph-name="onehalf" unicode="&#xbd;" horiz-adv-x="2000" 
d="M62 536v154h252v412h-234v127c229 6 253 19 265 171h166v-710h196v-154h-645zM507 0l804 1400h206l-803 -1400h-207zM1307 0v129c271 178 413 334 413 492c0 79 -32 113 -101 113c-89 0 -122 -66 -114 -205l-194 21c-12 220 88 329 314 329c192 0 294 -80 294 -246
c0 -192 -120 -339 -345 -475l2 -8c35 2 68 3 103 3h241v-153h-613z" />
    <glyph glyph-name="uni2153" unicode="&#x2153;" horiz-adv-x="2000" 
d="M62 536v154h252v412h-234v127c229 6 253 19 265 171h166v-710h196v-154h-645zM507 0l804 1400h206l-803 -1400h-207zM1621 -17c-217 0 -333 103 -336 301l198 23c1 -125 47 -186 141 -186c78 0 117 42 117 131v9c0 82 -45 119 -123 122l-77 3v119l76 2
c75 3 112 40 112 107v5c0 82 -37 121 -113 121c-89 0 -127 -59 -125 -173l-192 21c-1 190 110 290 320 290c198 0 304 -83 304 -235v-7c0 -96 -49 -156 -139 -180v-12c105 -24 161 -92 161 -204v-11c0 -154 -115 -246 -324 -246z" />
    <glyph glyph-name="onequarter" unicode="&#xbc;" horiz-adv-x="1945" 
d="M62 536v154h252v412h-234v127c229 6 253 19 265 171h166v-710h196v-154h-645zM507 0l804 1400h206l-803 -1400h-207zM1592 0v167h-381v118l302 579h277v-559h89v-138h-89v-167h-198zM1397 305h195v238c0 42 2 93 5 146l-14 1c-15 -50 -30 -89 -51 -131z" />
    <glyph glyph-name="oneeighth" unicode="&#x215b;" horiz-adv-x="2000" 
d="M62 536v154h252v412h-234v127c229 6 253 19 265 171h166v-710h196v-154h-645zM507 0l804 1400h206l-803 -1400h-207zM1615 -17c-241 0 -341 94 -341 248v9c0 108 54 178 161 203v13c-90 27 -138 88 -138 183v8c0 146 96 231 318 231c226 0 318 -88 318 -231v-8
c0 -93 -47 -155 -139 -183v-13c109 -25 161 -96 161 -203v-9c0 -153 -98 -248 -340 -248zM1615 508c86 0 127 37 127 116v5c0 78 -41 114 -127 114s-128 -35 -128 -114v-5c0 -79 42 -116 128 -116zM1615 119c94 0 139 39 139 126v7c0 87 -45 127 -139 127
c-95 0 -139 -40 -139 -127v-7c0 -86 44 -126 139 -126z" />
    <glyph glyph-name="uni2154" unicode="&#x2154;" horiz-adv-x="1985" 
d="M77 536v129c271 178 413 334 413 492c0 79 -32 113 -101 113c-89 0 -122 -66 -114 -205l-194 21c-12 220 88 329 314 329c192 0 294 -80 294 -246c0 -192 -120 -339 -345 -475l2 -8c35 2 68 3 103 3h241v-153h-613zM492 0l804 1400h206l-803 -1400h-207zM1606 -17
c-217 0 -333 103 -336 301l198 23c1 -125 47 -186 141 -186c78 0 117 42 117 131v9c0 82 -45 119 -123 122l-77 3v119l76 2c75 3 112 40 112 107v5c0 82 -37 121 -113 121c-89 0 -127 -59 -125 -173l-192 21c-1 190 110 290 320 290c198 0 304 -83 304 -235v-7
c0 -96 -49 -156 -139 -180v-12c105 -24 161 -92 161 -204v-11c0 -154 -115 -246 -324 -246z" />
    <glyph glyph-name="threequarters" unicode="&#xbe;" horiz-adv-x="1920" 
d="M391 519c-217 0 -333 103 -336 301l198 23c1 -125 47 -186 141 -186c78 0 117 42 117 131v9c0 82 -45 119 -123 122l-77 3v119l76 2c75 3 112 40 112 107v5c0 82 -37 121 -113 121c-89 0 -127 -59 -125 -173l-192 21c-1 190 110 290 320 290c198 0 304 -83 304 -235v-7
c0 -96 -49 -156 -139 -180v-12c105 -24 161 -92 161 -204v-11c0 -154 -115 -246 -324 -246zM482 0l804 1400h206l-803 -1400h-207zM1567 0v167h-381v118l302 579h277v-559h89v-138h-89v-167h-198zM1372 305h195v238c0 42 2 93 5 146l-14 1c-15 -50 -30 -89 -51 -131z" />
    <glyph glyph-name="threeeighths" unicode="&#x215c;" horiz-adv-x="1975" 
d="M391 519c-217 0 -333 103 -336 301l198 23c1 -125 47 -186 141 -186c78 0 117 42 117 131v9c0 82 -45 119 -123 122l-77 3v119l76 2c75 3 112 40 112 107v5c0 82 -37 121 -113 121c-89 0 -127 -59 -125 -173l-192 21c-1 190 110 290 320 290c198 0 304 -83 304 -235v-7
c0 -96 -49 -156 -139 -180v-12c105 -24 161 -92 161 -204v-11c0 -154 -115 -246 -324 -246zM482 0l804 1400h206l-803 -1400h-207zM1590 -17c-241 0 -341 94 -341 248v9c0 108 54 178 161 203v13c-90 27 -138 88 -138 183v8c0 146 96 231 318 231c226 0 318 -88 318 -231v-8
c0 -93 -47 -155 -139 -183v-13c109 -25 161 -96 161 -203v-9c0 -153 -98 -248 -340 -248zM1590 508c86 0 127 37 127 116v5c0 78 -41 114 -127 114s-128 -35 -128 -114v-5c0 -79 42 -116 128 -116zM1590 119c94 0 139 39 139 126v7c0 87 -45 127 -139 127
c-95 0 -139 -40 -139 -127v-7c0 -86 44 -126 139 -126z" />
    <glyph glyph-name="fiveeighths" unicode="&#x215d;" horiz-adv-x="1975" 
d="M482 0l804 1400h206l-803 -1400h-207zM393 519c-220 0 -330 80 -337 244l198 22c6 -86 49 -126 132 -126c89 0 127 48 127 150v8c0 100 -36 149 -125 149c-68 0 -110 -28 -132 -87l-189 9l22 511h596v-151h-411l-11 -198c50 31 106 47 177 47c195 0 276 -104 276 -271v-8
c0 -190 -93 -299 -323 -299zM1590 -17c-241 0 -341 94 -341 248v9c0 108 54 178 161 203v13c-90 27 -138 88 -138 183v8c0 146 96 231 318 231c226 0 318 -88 318 -231v-8c0 -93 -47 -155 -139 -183v-13c109 -25 161 -96 161 -203v-9c0 -153 -98 -248 -340 -248zM1590 508
c86 0 127 37 127 116v5c0 78 -41 114 -127 114s-128 -35 -128 -114v-5c0 -79 42 -116 128 -116zM1590 119c94 0 139 39 139 126v7c0 87 -45 127 -139 127c-95 0 -139 -40 -139 -127v-7c0 -86 44 -126 139 -126z" />
    <glyph glyph-name="seveneighths" unicode="&#x215e;" horiz-adv-x="1893" 
d="M262 536c9 322 89 550 233 703h-434v161h648v-128c-156 -166 -235 -401 -242 -736h-205zM400 0l804 1400h206l-803 -1400h-207zM1508 -17c-241 0 -341 94 -341 248v9c0 108 54 178 161 203v13c-90 27 -138 88 -138 183v8c0 146 96 231 318 231c226 0 318 -88 318 -231v-8
c0 -93 -47 -155 -139 -183v-13c109 -25 161 -96 161 -203v-9c0 -153 -98 -248 -340 -248zM1508 508c86 0 127 37 127 116v5c0 78 -41 114 -127 114s-128 -35 -128 -114v-5c0 -79 42 -116 128 -116zM1508 119c94 0 139 39 139 126v7c0 87 -45 127 -139 127
c-95 0 -139 -40 -139 -127v-7c0 -86 44 -126 139 -126z" />
    <glyph glyph-name="uni2003" unicode="&#x2003;" horiz-adv-x="2048" 
 />
    <glyph glyph-name="uni2002" unicode="&#x2002;" horiz-adv-x="1024" 
 />
    <glyph glyph-name="uni2007" unicode="&#x2007;" horiz-adv-x="1100" 
 />
    <glyph glyph-name="uni2005" unicode="&#x2005;" horiz-adv-x="512" 
 />
    <glyph glyph-name="uni200A" unicode="&#x200a;" horiz-adv-x="293" 
 />
    <glyph glyph-name="uni2008" unicode="&#x2008;" horiz-adv-x="460" 
 />
    <glyph glyph-name="uni2006" unicode="&#x2006;" horiz-adv-x="341" 
 />
    <glyph glyph-name="uni2009" unicode="&#x2009;" horiz-adv-x="410" 
 />
    <glyph glyph-name="uni2004" unicode="&#x2004;" horiz-adv-x="683" 
 />
    <glyph glyph-name="period" unicode="." horiz-adv-x="460" 
d="M82 268h296v-268h-296v268z" />
    <glyph glyph-name="comma" unicode="," horiz-adv-x="460" 
d="M82 268h296v-220c0 -229 -88 -326 -294 -346l-24 108c121 19 172 67 172 190h-150v268z" />
    <glyph glyph-name="colon" unicode=":" horiz-adv-x="460" 
d="M82 1049h296v-268h-296v268zM82 268h296v-268h-296v268z" />
    <glyph glyph-name="semicolon" unicode=";" horiz-adv-x="460" 
d="M82 1050h296v-268h-296v268zM82 268h296v-220c0 -229 -88 -326 -294 -346l-24 108c121 19 172 67 172 190h-150v268z" />
    <glyph glyph-name="ellipsis" unicode="&#x2026;" horiz-adv-x="1285" 
d="M82 268h281v-268h-281v268zM502 268h281v-268h-281v268zM922 268h282v-268h-282v268z" />
    <glyph glyph-name="exclam" unicode="!" horiz-adv-x="483" 
d="M107 1400h270l-32 -1010h-206zM93 268h297v-268h-297v268z" />
    <glyph glyph-name="exclamdown" unicode="&#xa1;" horiz-adv-x="483" 
d="M390 782h-297v268h297v-268zM376 -350h-270l32 1010h206z" />
    <glyph glyph-name="question" unicode="?" horiz-adv-x="961" 
d="M346 390c-84 174 2 288 98 369l95 80c99 83 133 152 133 226c0 128 -64 179 -172 179c-163 0 -225 -104 -193 -308l-251 35c-30 292 132 454 445 454c257 0 409 -116 409 -367c0 -155 -59 -235 -160 -325l-103 -91c-103 -91 -125 -167 -55 -240l-4 -12h-242zM317 268h297
v-268h-297v268z" />
    <glyph glyph-name="questiondown" unicode="&#xbf;" horiz-adv-x="961" 
d="M644 782h-297v268h297v-268zM615 660c85 -174 -2 -288 -97 -369l-96 -80c-99 -83 -132 -152 -132 -226c0 -128 64 -179 171 -179c163 0 225 104 193 308l251 -35c30 -292 -131 -454 -445 -454c-257 0 -408 116 -408 367c0 155 58 235 160 325l103 91
c102 91 124 167 54 240l5 12h241z" />
    <glyph glyph-name="periodcentered" unicode="&#xb7;" horiz-adv-x="460" 
d="M82 669h296v-268h-296v268z" />
    <glyph glyph-name="bullet" unicode="&#x2022;" horiz-adv-x="805" 
d="M245 376v315h315v-315h-315z" />
    <glyph glyph-name="asterisk" unicode="*" horiz-adv-x="860" 
d="M277 632l-156 114l201 226l-296 65l60 183l278 -121l-30 301h193l-30 -301l277 121l60 -183l-296 -65l201 -226l-156 -114l-153 261z" />
    <glyph glyph-name="numbersign" unicode="#" horiz-adv-x="1271" 
d="M1235 861h-229l-52 -317h214v-159h-240l-64 -385h-214l64 385h-260l-64 -385h-214l64 385h-204v159h230l52 317h-215v158h241l63 381h214l-63 -381h260l63 381h214l-63 -381h203v-158zM740 544l52 317h-260l-52 -317h260z" />
    <glyph glyph-name="slash" unicode="/" horiz-adv-x="687" 
d="M0 -200l450 1650h237l-450 -1650h-237z" />
    <glyph glyph-name="backslash" unicode="\" horiz-adv-x="687" 
d="M687 -200h-237l-450 1650h237z" />
    <glyph glyph-name="parenleft" unicode="(" horiz-adv-x="625" 
d="M603 1450c-180 -215 -280 -509 -280 -825s100 -610 280 -825h-243c-180 215 -280 509 -280 825s100 610 280 825h243z" />
    <glyph glyph-name="parenright" unicode=")" horiz-adv-x="625" 
d="M22 1450h243c180 -215 280 -509 280 -825s-100 -610 -280 -825h-243c180 215 280 509 280 825s-100 610 -280 825z" />
    <glyph glyph-name="braceleft" unicode="{" horiz-adv-x="620" 
d="M593 1250h-70c-81 0 -120 -39 -120 -120v-305c0 -107 -42 -169 -130 -190v-20c88 -21 130 -83 130 -190v-305c0 -81 39 -120 120 -120h70v-200h-164c-181 0 -269 88 -269 269v305c0 90 -42 140 -130 155v192c88 15 130 65 130 155v305c0 181 88 269 269 269h164v-200z
" />
    <glyph glyph-name="braceright" unicode="}" horiz-adv-x="620" 
d="M27 1250v200h164c181 0 269 -88 269 -269v-305c0 -90 42 -140 130 -155v-192c-88 -15 -130 -65 -130 -155v-305c0 -181 -88 -269 -269 -269h-164v200h70c81 0 120 39 120 120v305c0 107 42 169 130 190v20c-88 21 -130 83 -130 190v305c0 81 -39 120 -120 120h-70z" />
    <glyph glyph-name="bracketleft" unicode="[" horiz-adv-x="610" 
d="M584 1250h-220v-1250h220v-200h-463v1650h463v-200z" />
    <glyph glyph-name="bracketright" unicode="]" horiz-adv-x="610" 
d="M26 1250v200h464v-1650h-464v200h220v1250h-220z" />
    <glyph glyph-name="hyphen" unicode="-" horiz-adv-x="698" 
d="M76 640h546v-191h-546v191z" />
    <glyph glyph-name="endash" unicode="&#x2013;" horiz-adv-x="1052" 
d="M76 630h899v-168h-899v168z" />
    <glyph glyph-name="emdash" unicode="&#x2014;" horiz-adv-x="1514" 
d="M76 630h1362v-168h-1362v168z" />
    <glyph glyph-name="underscore" unicode="_" horiz-adv-x="586" 
d="M0 -77h586v-168h-586v168z" />
    <glyph glyph-name="quotesinglbase" unicode="&#x201a;" horiz-adv-x="460" 
d="M82 268h296v-220c0 -229 -88 -326 -294 -346l-24 108c121 19 172 67 172 190h-150v268z" />
    <glyph glyph-name="quotedblbase" unicode="&#x201e;" horiz-adv-x="833" 
d="M82 268h296v-220c0 -229 -88 -326 -294 -346l-24 108c121 19 172 67 172 190h-150v268zM454 268h297v-220c0 -229 -88 -326 -294 -346l-24 108c121 19 172 67 172 190h-151v268z" />
    <glyph glyph-name="quotedblleft" unicode="&#x201c;" horiz-adv-x="833" 
d="M378 859h-296v220c0 229 88 326 294 346l24 -108c-121 -19 -173 -68 -173 -190h151v-268zM751 859h-297v220c0 229 89 326 295 346l24 -108c-121 -19 -173 -68 -173 -190h151v-268z" />
    <glyph glyph-name="quotedblright" unicode="&#x201d;" horiz-adv-x="833" 
d="M82 1400h296v-220c0 -229 -88 -327 -294 -346l-24 108c121 19 172 67 172 190h-150v268zM454 1400h297v-220c0 -229 -88 -327 -294 -346l-24 108c121 19 172 67 172 190h-151v268z" />
    <glyph glyph-name="quoteleft" unicode="&#x2018;" horiz-adv-x="460" 
d="M378 859h-296v220c0 229 88 326 294 346l24 -108c-121 -19 -173 -68 -173 -190h151v-268z" />
    <glyph glyph-name="quoteright" unicode="&#x2019;" horiz-adv-x="460" 
d="M82 1400h296v-220c0 -229 -88 -327 -294 -346l-24 108c121 19 172 67 172 190h-150v268z" />
    <glyph glyph-name="guillemotleft" unicode="&#xab;" horiz-adv-x="1029" 
d="M371 100l-299 425l299 425h212l-291 -425l291 -425h-212zM745 100l-299 425l299 425h212l-291 -425l291 -425h-212z" />
    <glyph glyph-name="guillemotright" unicode="&#xbb;" horiz-adv-x="1029" 
d="M284 100h-212l291 425l-291 425h212l299 -425zM658 100h-212l291 425l-291 425h212l299 -425z" />
    <glyph glyph-name="guilsinglleft" unicode="&#x2039;" horiz-adv-x="655" 
d="M371 100l-299 425l299 425h212l-291 -425l291 -425h-212z" />
    <glyph glyph-name="guilsinglright" unicode="&#x203a;" horiz-adv-x="655" 
d="M284 100h-212l291 425l-291 425h212l299 -425z" />
    <glyph glyph-name="quotedbl" unicode="&#x22;" horiz-adv-x="699" 
d="M122 869l-40 531h227l-40 -531h-147zM430 869l-40 531h227l-40 -531h-147z" />
    <glyph glyph-name="quotesingle" unicode="'" horiz-adv-x="390" 
d="M122 869l-40 531h227l-40 -531h-147z" />
    <glyph glyph-name="colon.case" horiz-adv-x="460" 
d="M82 1225h296v-268h-296v268zM82 444h296v-268h-296v268z" />
    <glyph glyph-name="semicolon.case" horiz-adv-x="460" 
d="M82 1225h296v-268h-296v268zM82 443h296v-220c0 -229 -88 -326 -294 -346l-24 108c121 19 172 67 172 190h-150v268z" />
    <glyph glyph-name="bullet.case" horiz-adv-x="805" 
d="M245 542v316h315v-316h-315z" />
    <glyph glyph-name="parenleft.case" horiz-adv-x="625" 
d="M603 1450c-189 -226 -280 -468 -280 -745c0 -283 91 -529 280 -755h-243c-189 226 -280 472 -280 755c0 277 91 519 280 745h243z" />
    <glyph glyph-name="parenright.case" horiz-adv-x="625" 
d="M22 1450h243c189 -226 280 -468 280 -745c0 -283 -91 -529 -280 -755h-243c189 226 280 472 280 755c0 277 -91 519 -280 745z" />
    <glyph glyph-name="braceleft.case" horiz-adv-x="620" 
d="M593 1250h-70c-81 0 -120 -39 -120 -120v-230c0 -107 -42 -169 -130 -190v-20c88 -21 130 -83 130 -190v-230c0 -81 39 -120 120 -120h70v-200h-164c-181 0 -269 88 -269 269v230c0 90 -42 140 -130 155v192c88 15 130 65 130 155v230c0 181 88 269 269 269h164v-200z
" />
    <glyph glyph-name="braceright.case" horiz-adv-x="620" 
d="M27 1250v200h164c181 0 269 -88 269 -269v-230c0 -90 42 -140 130 -155v-192c-88 -15 -130 -65 -130 -155v-230c0 -181 -88 -269 -269 -269h-164v200h70c81 0 120 39 120 120v230c0 107 42 169 130 190v20c-88 21 -130 83 -130 190v230c0 81 -39 120 -120 120h-70z" />
    <glyph glyph-name="bracketleft.case" horiz-adv-x="610" 
d="M584 1250h-220v-1100h220v-200h-463v1500h463v-200z" />
    <glyph glyph-name="bracketright.case" horiz-adv-x="610" 
d="M26 1250v200h464v-1500h-464v200h220v1100h-220z" />
    <glyph glyph-name="hyphen.case" horiz-adv-x="666" 
d="M76 796h546v-191h-546v191z" />
    <glyph glyph-name="endash.case" horiz-adv-x="1052" 
d="M76 784h899v-168h-899v168z" />
    <glyph glyph-name="emdash.case" horiz-adv-x="1514" 
d="M76 784h1362v-168h-1362v168z" />
    <glyph glyph-name="guillemotleft.case" horiz-adv-x="1029" 
d="M371 275l-299 425l299 425h212l-291 -425l291 -425h-212zM745 275l-299 425l299 425h212l-291 -425l291 -425h-212z" />
    <glyph glyph-name="guillemotright.case" horiz-adv-x="1029" 
d="M284 275h-212l291 425l-291 425h212l299 -425zM658 275h-212l291 425l-291 425h212l299 -425z" />
    <glyph glyph-name="guilsinglleft.case" horiz-adv-x="655" 
d="M371 275l-299 425l299 425h212l-291 -425l291 -425h-212z" />
    <glyph glyph-name="guilsinglright.case" horiz-adv-x="655" 
d="M284 275h-212l291 425l-291 425h212l299 -425z" />
    <glyph glyph-name="exclamdown.case" horiz-adv-x="483" 
d="M390 1132h-297v268h297v-268zM376 0h-270l32 1010h206z" />
    <glyph glyph-name="questiondown.case" horiz-adv-x="961" 
d="M644 1132h-297v268h297v-268zM615 1010c85 -174 -2 -288 -97 -369l-96 -80c-99 -83 -132 -152 -132 -226c0 -128 64 -179 171 -179c163 0 225 104 193 308l251 -35c30 -292 -131 -454 -445 -454c-257 0 -408 116 -408 367c0 155 58 235 160 325l103 91
c102 91 124 167 54 240l5 12h241z" />
    <glyph glyph-name="period.tf" horiz-adv-x="550" 
d="M127 268h297v-268h-297v268z" />
    <glyph glyph-name="comma.tf" horiz-adv-x="550" 
d="M126 268h297v-220c0 -229 -88 -326 -294 -346l-24 108c121 19 172 67 172 190h-151v268z" />
    <glyph glyph-name="colon.case.tf" horiz-adv-x="550" 
d="M127 1225h297v-268h-297v268zM127 444h297v-268h-297v268z" />
    <glyph glyph-name="semicolon.case.tf" horiz-adv-x="550" 
d="M126 1226h297v-269h-297v269zM126 444h297v-221c0 -229 -88 -326 -294 -345l-24 107c121 19 172 68 172 191h-151v268z" />
    <glyph glyph-name="dollar" unicode="$" horiz-adv-x="1150" 
d="M1086 394c0 -228 -143 -378 -385 -412v-222h-239v224c-252 39 -393 197 -398 470l233 46c13 -234 96 -341 306 -341c147 0 239 75 239 190c0 106 -70 162 -243 228l-170 65c-182 70 -328 162 -327 393c1 217 129 353 352 383v232h239v-237c227 -41 350 -193 348 -432
l-219 -43c-7 198 -91 304 -269 304c-134 0 -217 -68 -217 -170c0 -104 57 -157 245 -225l170 -61c174 -63 335 -155 335 -392z" />
    <glyph glyph-name="cent" unicode="&#xa2;" horiz-adv-x="1027" 
d="M959 361c-24 -211 -132 -338 -317 -375v-226h-238v226c-219 46 -332 230 -332 543v4c0 305 115 485 332 531v231h238v-231c186 -39 287 -174 305 -398l-243 -29c-11 183 -67 271 -184 271c-129 0 -197 -108 -197 -335v-84c0 -234 64 -345 200 -345c115 0 176 80 187 248z
" />
    <glyph glyph-name="Euro" unicode="&#x20ac;" horiz-adv-x="1263" 
d="M947 558l238 -59c-31 -345 -210 -524 -521 -524c-309 0 -484 184 -527 539h-122v136h113c-1 16 -1 32 -1 48v4c0 16 0 32 1 48h-113v136h122c43 355 219 539 525 539c315 0 487 -181 507 -529l-232 -47c-6 260 -100 383 -275 383c-165 0 -257 -112 -281 -346h388
l-31 -136h-363v-100h340l-31 -136h-303c24 -234 117 -346 283 -346c173 0 269 126 283 390z" />
    <glyph glyph-name="sterling" unicode="&#xa3;" horiz-adv-x="1138" 
d="M36 0v152c109 68 150 163 150 338v87h-143v172h143v238c0 282 162 438 454 438c288 0 439 -159 442 -444l-220 -43c4 203 -65 303 -226 303c-142 0 -213 -79 -213 -241v-251h508v-172h-508v-82c0 -141 -25 -212 -86 -285l4 -12c54 2 96 3 156 3h599v-201h-1060z" />
    <glyph glyph-name="yen" unicode="&#xa5;" horiz-adv-x="1094" 
d="M1073 1400l-361 -749h236v-149h-277v-92h277v-149h-277v-261h-248v261h-278v149h278v92h-278v149h237l-361 749h266l170 -365c31 -66 57 -135 87 -225h19c29 90 57 158 87 225l169 365h254z" />
    <glyph glyph-name="currency" unicode="&#xa4;" horiz-adv-x="1173" 
d="M170 149l-134 134l189 189c-43 64 -68 143 -68 231c0 87 23 165 65 228l-186 186l134 134l186 -187c63 40 139 63 224 63c89 0 167 -25 231 -69l192 193l134 -134l-193 -193c38 -63 59 -138 59 -221c0 -84 -22 -161 -62 -223l196 -197l-134 -134l-196 197
c-63 -42 -141 -65 -227 -65c-83 0 -158 21 -220 59zM580 468c137 0 236 99 236 235c0 137 -99 237 -236 237s-236 -100 -236 -237c0 -136 99 -235 236 -235z" />
    <glyph glyph-name="ampersand" unicode="&#x26;" horiz-adv-x="1242" 
d="M489 -25c-266 0 -417 131 -417 367c0 172 86 290 274 397c-124 148 -175 251 -175 360c0 210 155 326 432 326c288 0 449 -116 450 -317c0 -172 -111 -261 -426 -415l240 -303c36 83 55 186 53 306l223 -52c-20 -176 -72 -322 -143 -427l170 -217h-236l-78 98
c-98 -81 -223 -123 -367 -123zM526 829c215 100 298 163 298 266c0 102 -75 155 -216 155c-140 0 -213 -57 -213 -168c0 -67 35 -134 131 -253zM524 159c90 0 160 28 211 88l-275 356c-108 -65 -162 -136 -162 -238c0 -130 81 -206 226 -206z" />
    <glyph glyph-name="at" unicode="@" horiz-adv-x="1833" 
d="M927 -352c-537 0 -847 304 -847 815v111c0 512 314 816 847 816c517 0 826 -307 826 -823v-99c0 -309 -129 -492 -379 -491c-182 0 -267 94 -248 268l-20 4c-48 -178 -169 -272 -353 -272c-170 0 -267 96 -267 262v5c0 226 174 308 376 359l202 51v88
c0 115 -47 167 -152 167c-122 0 -179 -78 -166 -246l-237 26c-15 242 130 385 408 385c256 0 389 -111 389 -328v-492c0 -76 29 -115 85 -115c103 0 159 116 159 325v105c0 408 -233 651 -623 651c-405 0 -645 -241 -645 -646v-111c0 -404 237 -644 648 -644
c162 0 346 36 484 86l43 -165c-142 -54 -342 -92 -530 -92zM844 153c128 0 223 109 223 265v71l-125 -35c-124 -35 -210 -87 -210 -189v-2c0 -71 39 -110 112 -110z" />
    <glyph glyph-name="at.case" horiz-adv-x="1872" 
d="M927 -167c-537 0 -847 304 -847 815v111c0 512 314 816 847 816c517 0 826 -307 826 -823v-99c0 -309 -129 -492 -379 -491c-182 0 -267 94 -248 268l-20 4c-48 -178 -169 -272 -353 -272c-170 0 -267 96 -267 262v5c0 226 174 308 376 359l202 51v88
c0 115 -47 167 -152 167c-122 0 -179 -78 -166 -246l-237 26c-15 242 130 385 408 385c256 0 389 -111 389 -328v-492c0 -76 29 -115 85 -115c103 0 159 116 159 325v105c0 408 -233 651 -623 651c-405 0 -645 -241 -645 -646v-111c0 -404 237 -644 648 -644
c162 0 346 36 484 86l43 -165c-142 -54 -342 -92 -530 -92zM844 338c128 0 223 109 223 265v71l-125 -35c-124 -35 -210 -87 -210 -189v-2c0 -71 39 -110 112 -110z" />
    <glyph glyph-name="copyright" unicode="&#xa9;" horiz-adv-x="1892" 
d="M946 -356c-543 0 -866 327 -866 878v6c0 551 323 878 866 878s866 -327 866 -878v-6c0 -551 -323 -878 -866 -878zM946 -194c412 0 659 269 659 716v6c0 447 -247 716 -659 716c-413 0 -660 -269 -660 -716v-6c0 -447 247 -716 660 -716zM943 -25
c-295 0 -448 190 -448 554v4c0 356 157 542 449 542c264 0 405 -140 426 -409l-243 -29c-11 183 -67 271 -184 271c-129 0 -197 -108 -197 -335v-84c0 -234 64 -345 200 -345c115 0 176 80 187 248l249 -31c-29 -254 -179 -386 -439 -386z" />
    <glyph glyph-name="copyright.case" horiz-adv-x="1892" 
d="M946 -181c-543 0 -866 327 -866 878v6c0 551 323 878 866 878s866 -327 866 -878v-6c0 -551 -323 -878 -866 -878zM946 -19c412 0 659 269 659 716v6c0 447 -247 716 -659 716c-413 0 -660 -269 -660 -716v-6c0 -447 247 -716 660 -716zM943 150
c-295 0 -448 190 -448 554v4c0 356 157 542 449 542c264 0 405 -140 426 -409l-243 -29c-11 183 -67 271 -184 271c-129 0 -197 -108 -197 -335v-84c0 -234 64 -345 200 -345c115 0 176 80 187 248l249 -31c-29 -254 -179 -386 -439 -386z" />
    <glyph glyph-name="registered" unicode="&#xae;" horiz-adv-x="1174" 
d="M587 401c-292 0 -507 214 -507 506v2c0 293 215 506 507 506s507 -213 507 -506v-2c0 -292 -215 -506 -507 -506zM587 534c217 0 365 151 365 373v2c0 223 -148 374 -365 374s-365 -151 -365 -374v-2c0 -222 148 -373 365 -373zM387 641v547h237c118 0 179 -50 179 -145
v-2c0 -71 -44 -113 -127 -120v-12c46 -14 64 -34 81 -97l16 -63c17 -63 30 -80 48 -93l-6 -15h-138c-15 20 -23 48 -37 106l-13 57c-14 58 -27 67 -70 67h-35v-230h-135zM522 963h55c60 0 92 21 92 64v2c0 39 -28 58 -81 58h-66v-124z" />
    <glyph glyph-name="trademark" unicode="&#x2122;" horiz-adv-x="1632" 
d="M221 560v688h-198v152h590v-152h-198v-688h-194zM677 560v840h228l137 -426c19 -51 36 -107 47 -171h13c13 64 31 122 47 169l136 428h226v-840h-175v398c0 49 2 99 6 167l-14 2l-171 -567h-127l-170 568l-16 -3c5 -68 6 -118 6 -167v-398h-173z" />
    <glyph glyph-name="paragraph" unicode="&#xb6;" horiz-adv-x="1510" 
d="M595 -350v750c-315 0 -515 195 -515 501c0 305 200 499 554 499h796v-200h-170v-1550h-225v1550h-215v-1550h-225z" />
    <glyph glyph-name="section" unicode="&#xa7;" horiz-adv-x="1053" 
d="M543 -24c-311 0 -473 112 -479 333l233 25c-2 -140 85 -207 253 -207c117 0 186 40 186 117c0 68 -51 108 -212 151l-161 44c-161 44 -273 111 -273 253c0 113 68 189 205 216v14c-126 50 -185 124 -185 228c0 175 135 275 405 275c292 0 442 -101 442 -300l-214 -26
c4 120 -75 177 -230 177c-110 0 -172 -40 -172 -107c0 -61 28 -94 193 -139l166 -46c166 -45 287 -114 287 -263c0 -112 -72 -182 -198 -212v-17c131 -53 201 -137 201 -237c0 -181 -152 -279 -447 -279zM588 570c99 17 154 63 154 125c0 75 -46 113 -259 165
c-98 -17 -154 -63 -154 -132s48 -109 259 -158z" />
    <glyph glyph-name="dagger" unicode="&#x2020;" horiz-adv-x="1125" 
d="M545 -350c-54 402 -75 803 -82 1204l-342 -24v230l342 -25l-15 365h230l-15 -365l342 25v-230l-342 24c-7 -401 -28 -802 -83 -1204h-35z" />
    <glyph glyph-name="daggerdbl" unicode="&#x2021;" horiz-adv-x="1125" 
d="M448 -350l15 365l-342 -25v230l352 -24l8 329l-8 329l-352 -24v230l342 -25l-15 365h230l-15 -365l342 25v-230l-353 24l-7 -329l7 -329l353 24v-230l-342 25l15 -365h-230z" />
    <glyph glyph-name="plus" unicode="+" horiz-adv-x="1020" 
d="M413 277v337h-337v191h337v338h195v-338h336v-191h-336v-337h-195z" />
    <glyph glyph-name="minus" unicode="&#x2212;" horiz-adv-x="883" 
d="M76 610v200h731v-200h-731z" />
    <glyph glyph-name="multiply" unicode="&#xd7;" horiz-adv-x="989" 
d="M213 278l-141 143l281 279l-277 278l141 141l278 -277l281 280l141 -141l-280 -280l276 -279l-140 -141l-278 278z" />
    <glyph glyph-name="divide" unicode="&#xf7;" horiz-adv-x="1002" 
d="M379 929v219h238v-219h-238zM76 614v191h850v-191h-850zM379 271v219h238v-219h-238z" />
    <glyph glyph-name="equal" unicode="=" horiz-adv-x="909" 
d="M76 783v201h757v-201h-757zM76 417v200h757v-200h-757z" />
    <glyph glyph-name="notequal" unicode="&#x2260;" horiz-adv-x="909" 
d="M833 783h-258l-49 -166h307v-200h-365l-71 -241h-192l71 241h-200v200h258l49 166h-307v201h365l71 241h193l-71 -241h199v-201z" />
    <glyph glyph-name="greater" unicode="&#x3e;" horiz-adv-x="909" 
d="M76 373v205l291 68c92 17 190 32 289 45v20c-99 12 -197 27 -289 44l-291 67v205l757 -189v-276z" />
    <glyph glyph-name="less" unicode="&#x3c;" horiz-adv-x="909" 
d="M833 373l-757 189v276l757 189v-205l-291 -67c-92 -17 -190 -32 -289 -44v-20c99 -13 197 -28 289 -45l291 -68v-205z" />
    <glyph glyph-name="greaterequal" unicode="&#x2265;" horiz-adv-x="909" 
d="M76 485v204l291 68c92 18 190 33 289 45v20c-99 13 -197 27 -289 45l-291 67v205l757 -189v-276zM833 256h-757v191h757v-191z" />
    <glyph glyph-name="lessequal" unicode="&#x2264;" horiz-adv-x="909" 
d="M833 485l-757 189v276l757 189v-205l-291 -67c-92 -18 -190 -32 -289 -45v-20c99 -12 197 -27 289 -45l291 -68v-204zM76 256v191h757v-191h-757z" />
    <glyph glyph-name="plusminus" unicode="&#xb1;" horiz-adv-x="1020" 
d="M413 527v248h-337v191h337v249h195v-249h336v-191h-336v-248h-195zM76 256v191h868v-191h-868z" />
    <glyph glyph-name="approxequal" unicode="&#x2248;" horiz-adv-x="927" 
d="M648 733c-125 0 -262 118 -339 118c-47 0 -73 -43 -76 -123h-157c6 209 77 315 210 315c127 0 256 -117 336 -117c44 0 69 39 73 111h156c-7 -201 -76 -304 -203 -304zM648 361c-125 0 -262 117 -339 117c-47 0 -73 -43 -76 -122h-157c6 209 77 315 210 315
c127 0 256 -118 336 -118c44 0 69 39 73 112h156c-7 -202 -76 -304 -203 -304z" />
    <glyph glyph-name="asciitilde" unicode="~" horiz-adv-x="927" 
d="M648 549c-125 0 -262 117 -339 117c-47 0 -73 -43 -76 -122h-157c6 209 77 315 210 315c127 0 256 -118 336 -118c44 0 69 39 73 112h156c-7 -202 -76 -304 -203 -304z" />
    <glyph glyph-name="logicalnot" unicode="&#xac;" horiz-adv-x="909" 
d="M620 410v320h-544v200h757v-520h-213z" />
    <glyph glyph-name="asciicircum" unicode="^" horiz-adv-x="1220" 
d="M121 796l389 604h200l389 -604h-247l-137 208c-33 55 -67 118 -95 183h-20c-29 -65 -61 -127 -95 -183l-137 -208h-247z" />
    <glyph glyph-name="infinity" unicode="&#x221e;" horiz-adv-x="1707" 
d="M1247 1148c249 0 388 -160 388 -447v-2c0 -287 -139 -447 -388 -447c-213 0 -319 115 -395 251c-75 -136 -180 -251 -391 -251c-250 0 -389 160 -389 447v2c0 287 139 447 389 447c213 0 319 -115 395 -251c75 136 180 251 391 251zM1419 699v2c0 152 -70 237 -196 237
c-142 0 -211 -105 -273 -233c62 -128 131 -233 273 -233c126 0 196 81 196 227zM484 462c142 0 211 105 273 233c-62 128 -131 233 -273 233c-126 0 -196 -81 -196 -227v-2c0 -152 70 -237 196 -237z" />
    <glyph glyph-name="percent" unicode="%" horiz-adv-x="1625" 
d="M406 725c-204 0 -334 119 -334 348v3c0 230 130 349 334 349s334 -119 334 -349v-3c0 -229 -130 -348 -334 -348zM280 0l845 1400h220l-844 -1400h-221zM406 853c74 0 137 64 137 195v54c0 131 -63 195 -137 195s-136 -64 -136 -195v-54c0 -131 62 -195 136 -195z
M1219 -25c-204 0 -334 119 -334 348v3c0 230 130 349 334 349s334 -119 334 -349v-3c0 -229 -130 -348 -334 -348zM1219 103c74 0 136 64 136 195v54c0 131 -62 195 -136 195s-136 -64 -136 -195v-54c0 -131 62 -195 136 -195z" />
    <glyph glyph-name="perthousand" unicode="&#x2030;" horiz-adv-x="2366" 
d="M406 725c-204 0 -334 119 -334 348v3c0 230 130 349 334 349s334 -119 334 -349v-3c0 -229 -130 -348 -334 -348zM280 0l845 1400h220l-844 -1400h-221zM406 853c74 0 137 64 137 195v54c0 131 -63 195 -137 195s-136 -64 -136 -195v-54c0 -131 62 -195 136 -195z
M1219 -25c-204 0 -334 119 -334 348v3c0 230 130 349 334 349s334 -119 334 -349v-3c0 -229 -130 -348 -334 -348zM1960 -25c-204 0 -334 119 -334 348v3c0 230 130 349 334 349s334 -119 334 -349v-3c0 -229 -130 -348 -334 -348zM1219 103c74 0 136 64 136 195v54
c0 131 -62 195 -136 195s-136 -64 -136 -195v-54c0 -131 62 -195 136 -195zM1960 103c74 0 136 64 136 195v54c0 131 -62 195 -136 195s-136 -64 -136 -195v-54c0 -131 62 -195 136 -195z" />
    <glyph glyph-name="lozenge" unicode="&#x25ca;" horiz-adv-x="1229" 
d="M510 0l-389 700l389 700h209l389 -700l-389 -700h-209zM604 233h21c28 76 61 150 94 213l142 254l-142 254c-33 63 -66 137 -94 213h-21c-28 -76 -60 -148 -95 -213l-141 -254l141 -254c34 -65 67 -137 95 -213z" />
    <glyph glyph-name="degree" unicode="&#xb0;" horiz-adv-x="849" 
d="M424 729c-204 0 -352 145 -352 345v2c0 200 148 344 352 344c205 0 352 -144 352 -344v-2c0 -200 -147 -345 -352 -345zM424 896c104 0 179 74 179 178v2c0 103 -75 177 -179 177c-103 0 -178 -74 -178 -177v-2c0 -104 74 -178 178 -178z" />
    <glyph glyph-name="bar" unicode="|" horiz-adv-x="471" 
d="M121 -200v1650h229v-1650h-229z" />
    <glyph glyph-name="brokenbar" unicode="&#xa6;" horiz-adv-x="471" 
d="M121 705v745h229v-745h-229zM350 545v-745h-229v745h229z" />
    <glyph glyph-name="uni25CF" unicode="&#x25cf;" horiz-adv-x="1248" 
d="M624 -20c-301 0 -544 243 -544 545s243 545 544 545s544 -243 544 -545s-243 -545 -544 -545z" />
    <glyph glyph-name="circle" unicode="&#x25cb;" horiz-adv-x="1248" 
d="M624 -20c-301 0 -544 243 -544 545s243 545 544 545s544 -243 544 -545s-243 -545 -544 -545zM624 60c257 0 464 207 464 465s-207 465 -464 465s-464 -207 -464 -465s207 -465 464 -465z" />
    <glyph glyph-name="filledbox" unicode="&#x25a0;" horiz-adv-x="1267" 
d="M108 0v1050h1050v-1050h-1050z" />
    <glyph glyph-name="uni25A1" unicode="&#x25a1;" horiz-adv-x="1267" 
d="M108 0v1050h1050v-1050h-1050zM188 80h890v890h-890v-890z" />
    <glyph glyph-name="uni2B24" unicode="&#x2b24;" horiz-adv-x="1600" 
d="M800 -20c398 0 720 320 720 720c0 399 -322 720 -720 720c-397 0 -720 -321 -720 -720c0 -400 323 -720 720 -720z" />
    <glyph glyph-name="uni2B1B" unicode="&#x2b1b;" horiz-adv-x="1617" 
d="M108 0v1400h1400v-1400h-1400z" />
    <glyph glyph-name="whiteLargeCircle" horiz-adv-x="1600" 
d="M800 -20c-397 0 -720 320 -720 720c0 399 323 720 720 720c398 0 720 -321 720 -720c0 -400 -322 -720 -720 -720zM800 60c354 0 640 284 640 640c0 355 -286 640 -640 640c-353 0 -640 -285 -640 -640c0 -356 287 -640 640 -640z" />
    <glyph glyph-name="uni2B1C" unicode="&#x2b1c;" horiz-adv-x="1617" 
d="M108 0v1400h1400v-1400h-1400zM188 80h1240v1240h-1240v-1240z" />
    <glyph glyph-name="arrowup" unicode="&#x2191;" horiz-adv-x="1229" 
d="M514 -23v583c0 78 3 124 11 184l-18 5c-28 -65 -55 -113 -88 -167l-116 -182h-231l514 673h58l513 -673h-231l-116 182c-32 53 -59 102 -88 167l-18 -5c9 -60 11 -106 11 -184v-583h-201z" />
    <glyph glyph-name="uni2197" unicode="&#x2197;" horiz-adv-x="1052" 
d="M228 117l-142 142l412 412c55 55 90 86 138 123l-9 16c-66 -25 -120 -41 -181 -56l-210 -46l-163 163l839 113l41 -41l-113 -839l-164 163l47 210c15 63 30 115 56 181l-16 9c-37 -48 -68 -83 -123 -138z" />
    <glyph glyph-name="arrowright" unicode="&#x2192;" horiz-adv-x="1233" 
d="M63 426v201h583c78 0 124 -3 184 -11l5 18c-65 29 -114 56 -167 88l-182 116v231l673 -514v-58l-673 -513v231l182 116c54 33 102 59 167 88l-5 18c-60 -9 -106 -11 -184 -11h-583z" />
    <glyph glyph-name="uni2198" unicode="&#x2198;" horiz-adv-x="1052" 
d="M228 967l412 -412c55 -55 86 -90 122 -139l16 10c-25 66 -41 118 -55 180l-47 211l163 163l113 -839l-41 -41l-839 113l163 163l211 -46c60 -15 114 -31 181 -56l9 16c-49 36 -83 68 -138 122l-413 413z" />
    <glyph glyph-name="arrowdown" unicode="&#x2193;" horiz-adv-x="1229" 
d="M514 1073h201v-583c0 -78 -2 -124 -11 -184l18 -5c29 65 56 114 88 167l116 182h231l-513 -673h-58l-514 673h231l116 -182c33 -54 60 -102 88 -167l18 5c-8 60 -11 106 -11 184v583z" />
    <glyph glyph-name="uni2199" unicode="&#x2199;" horiz-adv-x="1052" 
d="M824 967l143 -142l-413 -413c-55 -54 -89 -86 -138 -122l9 -16c67 25 121 41 181 56l211 46l163 -163l-839 -113l-41 41l113 839l163 -163l-47 -211c-14 -62 -30 -114 -55 -180l16 -10c36 49 67 84 122 139z" />
    <glyph glyph-name="arrowleft" unicode="&#x2190;" horiz-adv-x="1232" 
d="M1169 426h-583c-77 0 -124 2 -184 11l-5 -18c65 -29 113 -55 167 -88l182 -116v-231l-673 513v58l673 514v-231l-182 -116c-53 -32 -102 -59 -167 -88l5 -18c60 8 107 11 184 11h583v-201z" />
    <glyph glyph-name="uni2196" unicode="&#x2196;" horiz-adv-x="1052" 
d="M824 117l-412 412c-55 55 -86 90 -123 138l-16 -9c26 -66 41 -118 56 -181l47 -210l-164 -163l-113 839l41 41l839 -113l-163 -163l-210 46c-61 15 -115 31 -181 56l-9 -16c48 -37 83 -68 138 -123l412 -412z" />
    <glyph glyph-name="arrowboth" unicode="&#x2194;" horiz-adv-x="1842" 
d="M73 555l673 514v-231l-182 -116c-54 -34 -102 -60 -167 -88l5 -18c60 8 107 11 184 11h670c78 0 124 -3 184 -11l5 18c-65 28 -113 54 -167 88l-182 116v231l673 -514v-58l-673 -513v231l182 116c53 32 102 59 167 88l-5 18c-60 -9 -106 -11 -184 -11h-670
c-77 0 -124 2 -184 11l-5 -18c65 -29 114 -56 167 -88l182 -116v-231l-673 513v58z" />
    <glyph glyph-name="arrowupdn" unicode="&#x2195;" horiz-adv-x="1229" 
d="M586 -323l-514 673h231l116 -182c33 -54 60 -102 88 -167l18 5c-8 60 -11 106 -11 184v670c0 78 3 124 11 184l-18 5c-28 -65 -55 -113 -88 -167l-116 -182h-231l514 673h58l513 -673h-231l-116 182c-32 53 -59 102 -88 167l-18 -5c9 -60 11 -106 11 -184v-670
c0 -78 -2 -124 -11 -184l18 -5c29 65 56 114 88 167l116 182h231l-513 -673h-58z" />
    <glyph glyph-name="uni2BA0" unicode="&#x2ba0;" horiz-adv-x="1246" 
d="M746 -16l-673 514v58l673 513v-231l-182 -116c-53 -32 -102 -59 -167 -88l5 -18c60 9 107 11 184 11h396v423h201v-624h-597c-77 0 -124 3 -184 11l-5 -18c65 -28 113 -54 167 -88l182 -116v-231z" />
    <glyph glyph-name="uni2BA1" unicode="&#x2ba1;" horiz-adv-x="1246" 
d="M500 -16v231l182 116c54 34 102 60 167 88l-5 18c-60 -8 -106 -11 -184 -11h-597v624h201v-423h396c78 0 124 -2 184 -11l5 18c-65 29 -114 56 -167 88l-182 116v231l673 -513v-58z" />
    <glyph glyph-name="uni2BA6" unicode="&#x2ba6;" horiz-adv-x="1230" 
d="M72 641h231l116 -182c34 -55 60 -102 89 -167l18 4c-9 61 -11 107 -11 185v597h623v-201h-422v-396c0 -78 -3 -124 -11 -185l17 -4c30 65 56 114 89 167l116 182h230l-513 -673h-58z" />
    <glyph glyph-name="uni2BA4" unicode="&#x2ba4;" horiz-adv-x="1230" 
d="M72 405l514 673h58l513 -673h-230l-116 181c-33 53 -59 103 -89 168l-17 -5c8 -60 11 -107 11 -184v-396h422v-201h-623v597c0 77 2 124 11 184l-18 5c-29 -65 -55 -113 -89 -168l-116 -181h-231z" />
    <glyph glyph-name="uni2BA7" unicode="&#x2ba7;" horiz-adv-x="1230" 
d="M1158 641l-514 -673h-58l-513 673h230l116 -182c33 -53 59 -102 89 -167l17 4c-8 61 -11 107 -11 185v396h-422v201h623v-597c0 -78 -2 -124 -11 -185l18 -4c29 65 55 112 89 167l116 182h231z" />
    <glyph glyph-name="uni2BA5" unicode="&#x2ba5;" horiz-adv-x="1230" 
d="M1158 405h-231l-116 181c-34 55 -60 103 -89 168l-18 -5c9 -60 11 -107 11 -184v-597h-623v201h422v396c0 77 3 124 11 184l-17 5c-30 -65 -56 -115 -89 -168l-116 -181h-230l513 673h58z" />
    <glyph glyph-name="uni2BA2" unicode="&#x2ba2;" horiz-adv-x="1256" 
d="M746 1070v-231l-182 -116c-54 -33 -102 -60 -167 -88l5 -18c60 8 107 11 184 11h597v-624h-201v423h-396c-77 0 -124 2 -184 11l-5 -18c65 -29 114 -56 167 -88l182 -116v-231l-673 513v58z" />
    <glyph glyph-name="uni2BA3" unicode="&#x2ba3;" horiz-adv-x="1256" 
d="M510 1070l673 -514v-58l-673 -513v231l182 116c53 32 102 59 167 88l-5 18c-60 -9 -106 -11 -184 -11h-396v-423h-201v624h597c78 0 124 -3 184 -11l5 18c-65 28 -113 55 -167 88l-182 116v231z" />
    <glyph glyph-name="arrowup.ss04" horiz-adv-x="1031" 
d="M415 0v460h-333l-10 20l433 613h20l434 -613l-10 -20h-333v-460h-201z" />
    <glyph glyph-name="uni2197.ss04" horiz-adv-x="1055" 
d="M77 262l325 326l-235 235l7 21l740 127l14 -14l-127 -740l-21 -7l-235 236l-326 -326z" />
    <glyph glyph-name="arrowright.ss04" horiz-adv-x="1238" 
d="M72 622h461v333l20 10l612 -434v-20l-612 -433l-20 10v333h-461v201z" />
    <glyph glyph-name="uni2198.ss04" horiz-adv-x="1055" 
d="M219 977l326 -325l235 235l21 -7l127 -740l-14 -14l-739 127l-8 21l236 236l-326 325z" />
    <glyph glyph-name="arrowdown.ss04" horiz-adv-x="1031" 
d="M616 1079v-460h333l10 -20l-434 -613h-20l-433 613l10 20h333v460h201z" />
    <glyph glyph-name="uni2199.ss04" horiz-adv-x="1055" 
d="M836 977l142 -142l-326 -325l236 -236l-7 -21l-740 -127l-14 14l127 740l21 7l235 -235z" />
    <glyph glyph-name="arrowleft.ss04" horiz-adv-x="1238" 
d="M1166 622v-201h-461v-333l-20 -10l-612 433v20l612 434l20 -10v-333h461z" />
    <glyph glyph-name="uni2196.ss04" horiz-adv-x="1055" 
d="M978 262l-142 -142l-326 326l-235 -236l-21 7l-127 740l14 14l740 -127l7 -21l-235 -235z" />
    <glyph glyph-name="arrowboth.ss04" horiz-adv-x="1841" 
d="M1769 511l-613 -433l-20 10v333h-431v-333l-20 -10l-613 433v20l613 434l20 -10v-333h431v333l20 10l613 -434v-20z" />
    <glyph glyph-name="arrowupdn.ss04" horiz-adv-x="1031" 
d="M505 -323l-433 613l10 20h333v430h-333l-10 20l433 613h20l434 -613l-10 -20h-333v-430h333l10 -20l-434 -613h-20z" />
    <glyph glyph-name="uni2BA0.ss04" horiz-adv-x="1265" 
d="M685 82l-613 433v20l613 433l20 -10v-333h287v423h201v-624h-488v-332z" />
    <glyph glyph-name="uni2BA1.ss04" horiz-adv-x="1266" 
d="M580 82l-20 10v332h-488v624h201v-423h287v333l20 10l613 -433v-20z" />
    <glyph glyph-name="uni2BA6.ss04" horiz-adv-x="1111" 
d="M72 580l10 20h333v488h624v-201h-423v-287h333l10 -20l-434 -613h-20z" />
    <glyph glyph-name="uni2BA4.ss04" horiz-adv-x="1111" 
d="M72 509l433 613h20l434 -613l-10 -20h-333v-287h423v-201h-624v488h-333z" />
    <glyph glyph-name="uni2BA7.ss04" horiz-adv-x="1111" 
d="M1039 580l-433 -613h-20l-434 613l10 20h333v287h-423v201h624v-488h333z" />
    <glyph glyph-name="uni2BA5.ss04" horiz-adv-x="1111" 
d="M1039 509l-10 -20h-333v-488h-624v201h423v287h-333l-10 20l434 613h20z" />
    <glyph glyph-name="uni2BA2.ss04" horiz-adv-x="1265" 
d="M685 965l20 -10v-333h488v-624h-201v423h-287v-333l-20 -10l-613 433v20z" />
    <glyph glyph-name="uni2BA3.ss04" horiz-adv-x="1266" 
d="M580 965l613 -434v-20l-613 -433l-20 10v333h-287v-423h-201v624h488v333z" />
    <glyph glyph-name="uni0308" unicode="&#x308;" 
d="M-603 1178v206h235v-206h-235zM-234 1178v206h234v-206h-234z" />
    <glyph glyph-name="uni0307" unicode="&#x307;" 
d="M-265 1179v205h265v-205h-265z" />
    <glyph glyph-name="gravecomb" unicode="&#x300;" 
d="M-158 1400l158 -256h-186l-214 256h242z" />
    <glyph glyph-name="acutecomb" unicode="&#x301;" 
d="M-242 1400h242l-214 -256h-186z" />
    <glyph glyph-name="uni030B" unicode="&#x30b;" 
d="M-569 1400h242l-214 -256h-186zM-242 1400h242l-214 -256h-186z" />
    <glyph glyph-name="uni0302" unicode="&#x302;" 
d="M-622 1144l202 256h218l202 -256h-186l-125 127l-125 -127h-186z" />
    <glyph glyph-name="uni030C" unicode="&#x30c;" 
d="M-622 1400h186l125 -127l125 127h186l-202 -256h-218z" />
    <glyph glyph-name="uni0306" unicode="&#x306;" 
d="M-163 1400h163c-7 -174 -88 -255 -270 -255c-183 0 -264 81 -271 255h163c6 -86 33 -122 108 -122c74 0 102 36 107 122z" />
    <glyph glyph-name="uni030A" unicode="&#x30a;" 
d="M-232 1136c-138 0 -232 89 -232 221c0 133 94 222 232 222s232 -89 232 -222c0 -132 -94 -221 -232 -221zM-232 1263c55 0 95 39 95 94c0 56 -40 95 -95 95s-95 -39 -95 -95c0 -55 40 -94 95 -94z" />
    <glyph glyph-name="tildecomb" unicode="&#x303;" 
d="M-155 1181c-113 0 -227 102 -283 102c-42 0 -58 -28 -62 -96h-133c5 158 56 242 176 242c115 0 221 -102 280 -102c40 0 55 28 58 96h133c-5 -158 -64 -242 -169 -242z" />
    <glyph glyph-name="uni0304" unicode="&#x304;" 
d="M-572 1182v152h572v-152h-572z" />
    <glyph glyph-name="uni0326" unicode="&#x326;" 
d="M-222 -90h222v-121c0 -127 -46 -170 -211 -178l-12 67c84 3 108 26 108 86h-107v146z" />
    <glyph glyph-name="uni0327" unicode="&#x327;" 
d="M-198 -375c-61 0 -121 17 -175 45l22 122c43 -27 93 -42 140 -42c49 0 79 20 79 52c0 48 -82 64 -192 66l20 142h142l-11 -88c113 -14 173 -59 173 -145c0 -95 -75 -152 -198 -152z" />
    <glyph glyph-name="uni0328" unicode="&#x328;" 
d="M-175 5l175 -5c-96 -31 -150 -74 -150 -119c0 -30 24 -45 66 -45c21 0 47 4 72 11l-31 -156c-31 -11 -68 -17 -103 -17c-117 0 -178 53 -178 139c0 78 47 142 149 192z" />
    <glyph glyph-name="uni0328.ae" 
d="M-171 15l171 -6c-105 -44 -150 -83 -150 -128c0 -30 24 -45 66 -45c21 0 47 4 72 11l-31 -156c-31 -11 -68 -17 -103 -17c-117 0 -178 53 -178 139c0 78 49 147 153 202z" />
    <glyph glyph-name="dieresis" unicode="&#xa8;" horiz-adv-x="603" 
d="M0 1178v206h235v-206h-235zM369 1178v206h234v-206h-234z" />
    <glyph glyph-name="dotaccent" unicode="&#x2d9;" horiz-adv-x="265" 
d="M0 1179v205h265v-205h-265z" />
    <glyph glyph-name="grave" unicode="`" horiz-adv-x="400" 
d="M242 1400l158 -256h-186l-214 256h242z" />
    <glyph glyph-name="acute" unicode="&#xb4;" horiz-adv-x="400" 
d="M158 1400h242l-214 -256h-186z" />
    <glyph glyph-name="hungarumlaut" unicode="&#x2dd;" horiz-adv-x="727" 
d="M158 1400h242l-214 -256h-186zM485 1400h242l-214 -256h-186z" />
    <glyph glyph-name="circumflex" unicode="&#x2c6;" horiz-adv-x="622" 
d="M0 1144l202 256h218l202 -256h-186l-125 127l-125 -127h-186z" />
    <glyph glyph-name="caron" unicode="&#x2c7;" horiz-adv-x="622" 
d="M0 1400h186l125 -127l125 127h186l-202 -256h-218z" />
    <glyph glyph-name="breve" unicode="&#x2d8;" horiz-adv-x="541" 
d="M378 1400h163c-7 -174 -88 -255 -270 -255c-183 0 -264 81 -271 255h163c6 -86 33 -122 108 -122c74 0 102 36 107 122z" />
    <glyph glyph-name="ring" unicode="&#x2da;" horiz-adv-x="464" 
d="M232 1136c-138 0 -232 89 -232 221c0 133 94 222 232 222s232 -89 232 -222c0 -132 -94 -221 -232 -221zM232 1263c55 0 95 39 95 94c0 56 -40 95 -95 95s-95 -39 -95 -95c0 -55 40 -94 95 -94z" />
    <glyph glyph-name="tilde" unicode="&#x2dc;" horiz-adv-x="619" 
d="M464 1181c-113 0 -227 102 -283 102c-42 0 -58 -28 -62 -96h-133c5 158 56 242 176 242c115 0 221 -102 280 -102c40 0 55 28 58 96h133c-5 -158 -64 -242 -169 -242z" />
    <glyph glyph-name="macron" unicode="&#xaf;" horiz-adv-x="572" 
d="M0 1182v152h572v-152h-572z" />
    <glyph glyph-name="cedilla" unicode="&#xb8;" horiz-adv-x="373" 
d="M175 -375c-61 0 -121 17 -175 45l22 122c43 -27 93 -42 140 -42c49 0 79 20 79 52c0 48 -82 64 -192 66l20 142h142l-11 -88c113 -14 173 -59 173 -145c0 -95 -75 -152 -198 -152z" />
    <glyph glyph-name="ogonek" unicode="&#x2db;" horiz-adv-x="279" 
d="M153 15l171 -6c-105 -44 -150 -83 -150 -128c0 -30 24 -45 66 -45c21 0 47 4 72 11l-31 -156c-31 -11 -68 -17 -103 -17c-117 0 -178 53 -178 139c0 78 49 147 153 202z" />
    <glyph glyph-name="uni030C.L.case" 
d="M-213 1400h213v-167c0 -136 -57 -194 -202 -202l-12 77c72 3 99 32 99 100h-98v192z" />
    <glyph glyph-name="uni0308.case" 
d="M-603 1507v205h235v-205h-235zM-234 1507v205h234v-205h-234z" />
    <glyph glyph-name="uni0307.case" 
d="M-265 1507v205h265v-205h-265z" />
    <glyph glyph-name="gravecomb.case" 
d="M0 1495h-193l-179 185h245z" />
    <glyph glyph-name="acutecomb.case" 
d="M-372 1495l128 185h244l-179 -185h-193z" />
    <glyph glyph-name="uni030B.case" 
d="M-704 1495l128 185h244l-179 -185h-193zM-372 1495l128 185h244l-179 -185h-193z" />
    <glyph glyph-name="uni0302.case" 
d="M-631 1494l204 186h223l204 -186h-195l-120 87l-120 -87h-196z" />
    <glyph glyph-name="uni030C.case" 
d="M-631 1680h196l120 -86l120 86h195l-204 -186h-223z" />
    <glyph glyph-name="uni0306.case" 
d="M-163 1680h163c-7 -144 -101 -190 -280 -190c-180 0 -274 46 -281 190h163c3 -49 38 -75 118 -75c79 0 114 26 117 75z" />
    <glyph glyph-name="uni030A.case" 
d="M-232 1467c-146 0 -232 66 -232 177c0 110 86 176 232 176s232 -66 232 -176c0 -111 -86 -177 -232 -177zM-232 1573c57 0 90 27 90 71s-33 71 -90 71s-90 -27 -90 -71s33 -71 90 -71z" />
    <glyph glyph-name="tildecomb.case" 
d="M-178 1489c-113 0 -222 98 -279 98c-42 0 -57 -29 -61 -92h-129c5 146 68 224 185 224c115 0 216 -98 276 -98c39 0 54 29 57 92h129c-5 -146 -71 -224 -178 -224z" />
    <glyph glyph-name="uni0304.case" 
d="M-572 1485v152h572v-152h-572z" />
    <glyph glyph-name="uni0326.case" 
d="M-204 1400h204v-121c0 -122 -51 -170 -193 -178l-12 67c78 3 99 26 99 86h-98v146z" />
    <glyph glyph-name="uni0302.narrow.case" 
d="M-447 1494l116 186h199l116 -186h-146l-70 89l-70 -89h-145z" />
    <glyph glyph-name="uni0308.narrow" 
d="M-433 1178v206h184v-206h-184zM-184 1178v206h184v-206h-184z" />
    <glyph glyph-name="gravecomb.narrow" 
d="M-68 1400l68 -256h-189l-114 256h235z" />
    <glyph glyph-name="acutecomb.narrow" 
d="M-235 1400h235l-115 -256h-188z" />
    <glyph glyph-name="uni0302.narrow" 
d="M-431 1135l116 265h199l116 -265h-146l-69 131l-70 -131h-146z" />
    <glyph glyph-name="uni030C.narrow" 
d="M0 1400l-116 -265h-199l-116 265h146l69 -131l70 131h146z" />
    <glyph glyph-name="tildecomb.narrow" 
d="M-110 1157c-58 0 -115 57 -146 57c-20 0 -31 -19 -29 -52h-93c-13 132 26 202 107 202c56 0 116 -58 149 -58c19 0 30 19 28 53h93c9 -132 -29 -202 -109 -202z" />
    <glyph glyph-name="uni0304.narrow" 
d="M-388 1191v143h389v-143h-389z" />
    </font>
</defs>
</svg>
